<?xml version="1.0" encoding="UTF-8" standalone="no"?>
<!DOCTYPE svg PUBLIC "-//W3C//DTD SVG 1.1//EN"
 "http://www.w3.org/Graphics/SVG/1.1/DTD/svg11.dtd">
<!-- Generated by graphviz version 12.2.0 (20241103.1931)
 -->
<!-- Title: include/MyLibrary/Scenes/Credits/Credits.h Pages: 1 -->
<svg width="332pt" height="108pt"
 viewBox="0.00 0.00 332.25 108.00" xmlns="http://www.w3.org/2000/svg" xmlns:xlink="http://www.w3.org/1999/xlink">
<g id="graph0" class="graph" transform="scale(1 1) rotate(0) translate(4 104)">
<title>include/MyLibrary/Scenes/Credits/Credits.h</title>
<!-- Node1 -->
<g id="Node000001" class="node">
<title>Node1</title>
<g id="a_Node000001"><a xlink:title=" ">
<polygon fill="#999999" stroke="#666666" points="238.25,-100 109.75,-100 109.75,-68 238.25,-68 238.25,-100"/>
<text text-anchor="start" x="117.75" y="-86.5" font-family="Helvetica,sans-Serif" font-size="10.00">include/MyLibrary/Scenes</text>
<text text-anchor="middle" x="174" y="-74.5" font-family="Helvetica,sans-Serif" font-size="10.00">/Credits/Credits.h</text>
</a>
</g>
</g>
<!-- Node2 -->
<g id="Node000002" class="node">
<title>Node2</title>
<g id="a_Node000002"><a xlink:href="_game_instance_8cpp.html" target="_top" xlink:title=" ">
<polygon fill="white" stroke="#666666" points="178,-26 0,-26 0,-6 178,-6 178,-26"/>
<text text-anchor="middle" x="89" y="-12.5" font-family="Helvetica,sans-Serif" font-size="10.00">include/MyLibrary/GameInstance.cpp</text>
</a>
</g>
</g>
<!-- Node1&#45;&gt;Node2 -->
<g id="edge1_Node000001_Node000002" class="edge">
<title>Node1&#45;&gt;Node2</title>
<g id="a_edge1_Node000001_Node000002"><a xlink:title=" ">
<path fill="none" stroke="#63b8ff" d="M145.29,-60.71C130.18,-48.98 112.46,-35.22 101,-26.32"/>
<polygon fill="#63b8ff" stroke="#63b8ff" points="143.05,-63.4 153.09,-66.76 147.34,-57.87 143.05,-63.4"/>
</a>
</g>
</g>
<!-- Node3 -->
<g id="Node000003" class="node">
<title>Node3</title>
<g id="a_Node000003"><a xlink:href="_credits_8cpp.html" target="_top" xlink:title=" ">
<polygon fill="white" stroke="#666666" points="324.25,-32 195.75,-32 195.75,0 324.25,0 324.25,-32"/>
<text text-anchor="start" x="203.75" y="-18.5" font-family="Helvetica,sans-Serif" font-size="10.00">include/MyLibrary/Scenes</text>
<text text-anchor="middle" x="260" y="-6.5" font-family="Helvetica,sans-Serif" font-size="10.00">/Credits/Credits.cpp</text>
</a>
</g>
</g>
<!-- Node1&#45;&gt;Node3 -->
<g id="edge2_Node000001_Node000003" class="edge">
<title>Node1&#45;&gt;Node3</title>
<g id="a_edge2_Node000001_Node000003"><a xlink:title=" ">
<path fill="none" stroke="#63b8ff" d="M202.83,-60.87C214.99,-51.55 228.84,-40.91 239.86,-32.45"/>
<polygon fill="#63b8ff" stroke="#63b8ff" points="200.95,-57.91 195.15,-66.77 205.21,-63.46 200.95,-57.91"/>
</a>
</g>
</g>
</g>
</svg>
