<?xml version="1.0" encoding="UTF-8" standalone="no"?>
<!DOCTYPE svg PUBLIC "-//W3C//DTD SVG 1.1//EN"
 "http://www.w3.org/Graphics/SVG/1.1/DTD/svg11.dtd">
<!-- Generated by graphviz version 12.2.0 (20241103.1931)
 -->
<!-- Title: include/MyLibrary/Entities/Enemy.cpp Pages: 1 -->
<!--zoomable 152 -->

<svg id="main" version="1.1" xmlns="http://www.w3.org/2000/svg" xmlns:xlink="http://www.w3.org/1999/xlink" xml:space="preserve" onload="init(evt)">

<style type="text/css"><![CDATA[
.node, .edge {opacity: 0.7;}
.node.selected, .edge.selected {opacity: 1;}
.edge:hover path { stroke: red; }
.edge:hover polygon { stroke: red; fill: red; }
]]></style>

<defs>
  <circle id="rim" cx="0" cy="0" r="7"/>
  <circle id="rim2" cx="0" cy="0" r="3.5"/>
  <g id="zoomPlus">
    <use xlink:href="#rim" fill="#404040"><set attributeName="fill" to="#808080" begin="zoomplus.mouseover" end="zoomplus.mouseout"/></use>
    <path d="M-4,0h8M0,-4v8" fill="none" stroke="white" stroke-width="1.5" pointer-events="none"/>
  </g>
  <g id="zoomMin">
    <use xlink:href="#rim" fill="#404040"><set attributeName="fill" to="#808080" begin="zoomminus.mouseover" end="zoomminus.mouseout"/></use>
    <path d="M-4,0h8" fill="none" stroke="white" stroke-width="1.5" pointer-events="none"/>
  </g>
  <g id="arrowUp" transform="translate(30 24)">
    <use xlink:href="#rim"/>
    <path pointer-events="none" fill="none" stroke="white" stroke-width="1.5" d="M0,-3.0v7 M-2.5,-0.5L0,-3.0L2.5,-0.5"/>
  </g>
  <g id="arrowRight" transform="rotate(90) translate(36 -43)">
    <use xlink:href="#rim"/>
    <path pointer-events="none" fill="none" stroke="white" stroke-width="1.5" d="M0,-3.0v7 M-2.5,-0.5L0,-3.0L2.5,-0.5"/>
  </g>
  <g id="arrowDown" transform="rotate(180) translate(-30 -48)">
    <use xlink:href="#rim"/>
    <path pointer-events="none" fill="none" stroke="white" stroke-width="1.5" d="M0,-3.0v7 M-2.5,-0.5L0,-3.0L2.5,-0.5"/>
  </g>
  <g id="arrowLeft" transform="rotate(270) translate(-36 17)">
    <use xlink:href="#rim"/>
    <path pointer-events="none" fill="none" stroke="white" stroke-width="1.5" d="M0,-3.0v7 M-2.5,-0.5L0,-3.0L2.5,-0.5"/>
  </g>
  <g id="resetDef">
    <use xlink:href="#rim2" fill="#404040"><set attributeName="fill" to="#808080" begin="reset.mouseover" end="reset.mouseout"/></use>
  </g>
</defs>
<script type="application/ecmascript">
var viewWidth = 3196;
var viewHeight = 152;
var sectionId = 'dynsection-0';
</script>
<script type="application/ecmascript" xlink:href="svg.min.js"/>
<svg id="graph" class="graph">
<g id="viewport">
<title>include/MyLibrary/Entities/Enemy.cpp</title>
<!-- Node1 -->
<g id="Node000001" class="node">
<title>Node1</title>
<g id="a_Node000001"><a xlink:title=" ">
<polygon fill="#999999" stroke="#666666" points="2817,-144 2688.5,-144 2688.5,-112 2817,-112 2817,-144"/>
<text text-anchor="start" x="2696.5" y="-130.5" font-family="Helvetica,sans-Serif" font-size="10.00">include/MyLibrary/Entities</text>
<text text-anchor="middle" x="2752.75" y="-118.5" font-family="Helvetica,sans-Serif" font-size="10.00">/Enemy.cpp</text>
</a>
</g>
</g>
<!-- Node2 -->
<g id="Node000002" class="node">
<title>Node2</title>
<g id="a_Node000002"><a xlink:href="stdafx_8h.html" target="_top" xlink:title=" ">
<polygon fill="white" stroke="#666666" points="1104.38,-76 1053.12,-76 1053.12,-56 1104.38,-56 1104.38,-76"/>
<text text-anchor="middle" x="1078.75" y="-62.5" font-family="Helvetica,sans-Serif" font-size="10.00">stdafx.h</text>
</a>
</g>
</g>
<!-- Node1&#45;&gt;Node2 -->
<g id="edge1_Node000001_Node000002" class="edge">
<title>Node1&#45;&gt;Node2</title>
<g id="a_edge1_Node000001_Node000002"><a xlink:title=" ">
<path fill="none" stroke="#63b8ff" d="M2688.15,-124.68C2411.43,-114.77 1330.37,-76.02 1115.86,-68.33"/>
<polygon fill="#63b8ff" stroke="#63b8ff" points="1116.27,-64.84 1106.15,-67.98 1116.02,-71.84 1116.27,-64.84"/>
</a>
</g>
</g>
<!-- Node34 -->
<g id="Node000034" class="node">
<title>Node34</title>
<g id="a_Node000034"><a xlink:href="_enemy_8h.html" target="_top" xlink:title="Contains the Enemy class and its related methods.">
<polygon fill="white" stroke="#666666" points="2684.88,-76 2630.62,-76 2630.62,-56 2684.88,-56 2684.88,-76"/>
<text text-anchor="middle" x="2657.75" y="-62.5" font-family="Helvetica,sans-Serif" font-size="10.00">Enemy.h</text>
</a>
</g>
</g>
<!-- Node1&#45;&gt;Node34 -->
<g id="edge33_Node000001_Node000034" class="edge">
<title>Node1&#45;&gt;Node34</title>
<g id="a_edge33_Node000001_Node000034"><a xlink:title=" ">
<path fill="none" stroke="#63b8ff" d="M2728.29,-111.55C2714.13,-102.61 2696.37,-91.39 2682.21,-82.45"/>
<polygon fill="#63b8ff" stroke="#63b8ff" points="2684.25,-79.6 2673.93,-77.22 2680.51,-85.52 2684.25,-79.6"/>
</a>
</g>
</g>
<!-- Node35 -->
<g id="Node000035" class="node">
<title>Node35</title>
<g id="a_Node000035"><a xlink:href="_projectile_8h.html" target="_top" xlink:title="Contains the Projectile class and its related methods.">
<polygon fill="white" stroke="#666666" points="2745.12,-20 2680.38,-20 2680.38,0 2745.12,0 2745.12,-20"/>
<text text-anchor="middle" x="2712.75" y="-6.5" font-family="Helvetica,sans-Serif" font-size="10.00">Projectile.h</text>
</a>
</g>
</g>
<!-- Node1&#45;&gt;Node35 -->
<g id="edge38_Node000001_Node000035" class="edge">
<title>Node1&#45;&gt;Node35</title>
<g id="a_edge38_Node000001_Node000035"><a xlink:title=" ">
<path fill="none" stroke="#63b8ff" d="M2745.88,-111.54C2741.55,-101.51 2736,-88.11 2731.75,-76 2726.56,-61.2 2721.62,-44.18 2718.08,-31.27"/>
<polygon fill="#63b8ff" stroke="#63b8ff" points="2721.51,-30.57 2715.54,-21.82 2714.75,-32.38 2721.51,-30.57"/>
</a>
</g>
</g>
<!-- Node36 -->
<g id="Node000036" class="node">
<title>Node36</title>
<g id="a_Node000036"><a xlink:href="_strings_8h.html" target="_top" xlink:title=" ">
<polygon fill="white" stroke="#666666" points="2846.75,-76 2740.75,-76 2740.75,-56 2846.75,-56 2846.75,-76"/>
<text text-anchor="middle" x="2793.75" y="-62.5" font-family="Helvetica,sans-Serif" font-size="10.00">Core/Utility/strings.h</text>
</a>
</g>
</g>
<!-- Node1&#45;&gt;Node36 -->
<g id="edge35_Node000001_Node000036" class="edge">
<title>Node1&#45;&gt;Node36</title>
<g id="a_edge35_Node000001_Node000036"><a xlink:title=" ">
<path fill="none" stroke="#63b8ff" d="M2763.31,-111.55C2768.71,-103.65 2775.32,-93.97 2781,-85.66"/>
<polygon fill="#63b8ff" stroke="#63b8ff" points="2783.72,-87.89 2786.47,-77.66 2777.94,-83.94 2783.72,-87.89"/>
</a>
</g>
</g>
<!-- Node37 -->
<g id="Node000037" class="node">
<title>Node37</title>
<g id="a_Node000037"><a xlink:href="_gameplay_utility_8h.html" target="_top" xlink:title="Utility functions for gameplay mechanics, including enemy spawning, collision detection,...">
<polygon fill="white" stroke="#666666" points="3010.62,-76 2864.88,-76 2864.88,-56 3010.62,-56 3010.62,-76"/>
<text text-anchor="middle" x="2937.75" y="-62.5" font-family="Helvetica,sans-Serif" font-size="10.00">Core/Utility/GameplayUtility.h</text>
</a>
</g>
</g>
<!-- Node1&#45;&gt;Node37 -->
<g id="edge36_Node000001_Node000037" class="edge">
<title>Node1&#45;&gt;Node37</title>
<g id="a_edge36_Node000001_Node000037"><a xlink:title=" ">
<path fill="none" stroke="#63b8ff" d="M2800.39,-111.55C2830.54,-101.77 2869.08,-89.27 2897.66,-80"/>
<polygon fill="#63b8ff" stroke="#63b8ff" points="2898.6,-83.38 2907.03,-76.96 2896.44,-76.72 2898.6,-83.38"/>
</a>
</g>
</g>
<!-- Node38 -->
<g id="Node000038" class="node">
<title>Node38</title>
<g id="a_Node000038"><a xlink:href="_sound_manager_8h.html" target="_top" xlink:title="Declares the SoundManager class used to load and manage sound effects.">
<polygon fill="white" stroke="#666666" points="3188.38,-76 3029.12,-76 3029.12,-56 3188.38,-56 3188.38,-76"/>
<text text-anchor="middle" x="3108.75" y="-62.5" font-family="Helvetica,sans-Serif" font-size="10.00">Core/Managers/SoundManager.h</text>
</a>
</g>
</g>
<!-- Node1&#45;&gt;Node38 -->
<g id="edge37_Node000001_Node000038" class="edge">
<title>Node1&#45;&gt;Node38</title>
<g id="a_edge37_Node000001_Node000038"><a xlink:title=" ">
<path fill="none" stroke="#63b8ff" d="M2817.22,-116.13C2880.64,-105.45 2977.05,-89.2 3041.43,-78.35"/>
<polygon fill="#63b8ff" stroke="#63b8ff" points="3041.9,-81.82 3051.18,-76.7 3040.73,-74.91 3041.9,-81.82"/>
</a>
</g>
</g>
<!-- Node3 -->
<g id="Node000003" class="node">
<title>Node3</title>
<g id="a_Node000003"><a xlink:title=" ">
<polygon fill="#e0e0e0" stroke="#999999" points="53.5,-20 0,-20 0,0 53.5,0 53.5,-20"/>
<text text-anchor="middle" x="26.75" y="-6.5" font-family="Helvetica,sans-Serif" font-size="10.00">iostream</text>
</a>
</g>
</g>
<!-- Node2&#45;&gt;Node3 -->
<g id="edge2_Node000002_Node000003" class="edge">
<title>Node2&#45;&gt;Node3</title>
<g id="a_edge2_Node000002_Node000003"><a xlink:title=" ">
<path fill="none" stroke="#63b8ff" d="M1053.01,-64.56C917.44,-62.14 284.53,-49.51 64.84,-19.93"/>
<polygon fill="#63b8ff" stroke="#63b8ff" points="65.65,-16.51 55.26,-18.58 64.67,-23.44 65.65,-16.51"/>
</a>
</g>
</g>
<!-- Node4 -->
<g id="Node000004" class="node">
<title>Node4</title>
<g id="a_Node000004"><a xlink:title=" ">
<polygon fill="#e0e0e0" stroke="#999999" points="111.75,-20 71.75,-20 71.75,0 111.75,0 111.75,-20"/>
<text text-anchor="middle" x="91.75" y="-6.5" font-family="Helvetica,sans-Serif" font-size="10.00">string</text>
</a>
</g>
</g>
<!-- Node2&#45;&gt;Node4 -->
<g id="edge3_Node000002_Node000004" class="edge">
<title>Node2&#45;&gt;Node4</title>
<g id="a_edge3_Node000002_Node000004"><a xlink:title=" ">
<path fill="none" stroke="#63b8ff" d="M1052.71,-64.67C921.34,-62.87 329.82,-53.15 123.47,-19.96"/>
<polygon fill="#63b8ff" stroke="#63b8ff" points="124.12,-16.52 113.68,-18.3 122.96,-23.42 124.12,-16.52"/>
</a>
</g>
</g>
<!-- Node5 -->
<g id="Node000005" class="node">
<title>Node5</title>
<g id="a_Node000005"><a xlink:title=" ">
<polygon fill="#e0e0e0" stroke="#999999" points="173.25,-20 130.25,-20 130.25,0 173.25,0 173.25,-20"/>
<text text-anchor="middle" x="151.75" y="-6.5" font-family="Helvetica,sans-Serif" font-size="10.00">vector</text>
</a>
</g>
</g>
<!-- Node2&#45;&gt;Node5 -->
<g id="edge4_Node000002_Node000005" class="edge">
<title>Node2&#45;&gt;Node5</title>
<g id="a_edge4_Node000002_Node000005"><a xlink:title=" ">
<path fill="none" stroke="#63b8ff" d="M1052.73,-64.51C926.75,-62.01 378.71,-49.7 184.78,-19.84"/>
<polygon fill="#63b8ff" stroke="#63b8ff" points="185.54,-16.42 175.11,-18.27 184.43,-23.33 185.54,-16.42"/>
</a>
</g>
</g>
<!-- Node6 -->
<g id="Node000006" class="node">
<title>Node6</title>
<g id="a_Node000006"><a xlink:title=" ">
<polygon fill="#e0e0e0" stroke="#999999" points="226.12,-20 191.38,-20 191.38,0 226.12,0 226.12,-20"/>
<text text-anchor="middle" x="208.75" y="-6.5" font-family="Helvetica,sans-Serif" font-size="10.00">map</text>
</a>
</g>
</g>
<!-- Node2&#45;&gt;Node6 -->
<g id="edge5_Node000002_Node000006" class="edge">
<title>Node2&#45;&gt;Node6</title>
<g id="a_edge5_Node000002_Node000006"><a xlink:title=" ">
<path fill="none" stroke="#63b8ff" d="M1053.03,-64.56C932.3,-62.33 420.42,-51.32 237.86,-19.75"/>
<polygon fill="#63b8ff" stroke="#63b8ff" points="238.54,-16.31 228.07,-17.96 237.28,-23.2 238.54,-16.31"/>
</a>
</g>
</g>
<!-- Node7 -->
<g id="Node000007" class="node">
<title>Node7</title>
<g id="a_Node000007"><a xlink:title=" ">
<polygon fill="#e0e0e0" stroke="#999999" points="327.12,-20 244.38,-20 244.38,0 327.12,0 327.12,-20"/>
<text text-anchor="middle" x="285.75" y="-6.5" font-family="Helvetica,sans-Serif" font-size="10.00">unordered_map</text>
</a>
</g>
</g>
<!-- Node2&#45;&gt;Node7 -->
<g id="edge6_Node000002_Node000007" class="edge">
<title>Node2&#45;&gt;Node7</title>
<g id="a_edge6_Node000002_Node000007"><a xlink:title=" ">
<path fill="none" stroke="#63b8ff" d="M1052.66,-64.53C958.06,-62.59 624.11,-53.73 338.84,-20.24"/>
<polygon fill="#63b8ff" stroke="#63b8ff" points="339.28,-16.77 328.94,-19.06 338.46,-23.72 339.28,-16.77"/>
</a>
</g>
</g>
<!-- Node8 -->
<g id="Node000008" class="node">
<title>Node8</title>
<g id="a_Node000008"><a xlink:title=" ">
<polygon fill="#e0e0e0" stroke="#999999" points="422.5,-20 345,-20 345,0 422.5,0 422.5,-20"/>
<text text-anchor="middle" x="383.75" y="-6.5" font-family="Helvetica,sans-Serif" font-size="10.00">unordered_set</text>
</a>
</g>
</g>
<!-- Node2&#45;&gt;Node8 -->
<g id="edge7_Node000002_Node000008" class="edge">
<title>Node2&#45;&gt;Node8</title>
<g id="a_edge7_Node000002_Node000008"><a xlink:title=" ">
<path fill="none" stroke="#63b8ff" d="M1052.71,-64.31C966.15,-61.79 680.03,-51.57 434.23,-20.32"/>
<polygon fill="#63b8ff" stroke="#63b8ff" points="434.8,-16.87 424.43,-19.06 433.9,-23.81 434.8,-16.87"/>
</a>
</g>
</g>
<!-- Node9 -->
<g id="Node000009" class="node">
<title>Node9</title>
<g id="a_Node000009"><a xlink:title=" ">
<polygon fill="#e0e0e0" stroke="#999999" points="491.38,-20 440.12,-20 440.12,0 491.38,0 491.38,-20"/>
<text text-anchor="middle" x="465.75" y="-6.5" font-family="Helvetica,sans-Serif" font-size="10.00">memory</text>
</a>
</g>
</g>
<!-- Node2&#45;&gt;Node9 -->
<g id="edge8_Node000002_Node000009" class="edge">
<title>Node2&#45;&gt;Node9</title>
<g id="a_edge8_Node000002_Node000009"><a xlink:title=" ">
<path fill="none" stroke="#63b8ff" d="M1052.63,-64.58C972.11,-62.95 720.54,-55.33 502.95,-20.06"/>
<polygon fill="#63b8ff" stroke="#63b8ff" points="503.57,-16.61 493.13,-18.44 502.43,-23.52 503.57,-16.61"/>
</a>
</g>
</g>
<!-- Node10 -->
<g id="Node000010" class="node">
<title>Node10</title>
<g id="a_Node000010"><a xlink:title=" ">
<polygon fill="#e0e0e0" stroke="#999999" points="565.62,-20 509.88,-20 509.88,0 565.62,0 565.62,-20"/>
<text text-anchor="middle" x="537.75" y="-6.5" font-family="Helvetica,sans-Serif" font-size="10.00">algorithm</text>
</a>
</g>
</g>
<!-- Node2&#45;&gt;Node10 -->
<g id="edge9_Node000002_Node000010" class="edge">
<title>Node2&#45;&gt;Node10</title>
<g id="a_edge9_Node000002_Node000010"><a xlink:title=" ">
<path fill="none" stroke="#63b8ff" d="M1052.88,-64.06C979.71,-61.1 764.94,-50.44 577.13,-20.15"/>
<polygon fill="#63b8ff" stroke="#63b8ff" points="577.87,-16.73 567.44,-18.56 576.74,-23.63 577.87,-16.73"/>
</a>
</g>
</g>
<!-- Node11 -->
<g id="Node000011" class="node">
<title>Node11</title>
<g id="a_Node000011"><a xlink:title=" ">
<polygon fill="#e0e0e0" stroke="#999999" points="621.62,-20 583.88,-20 583.88,0 621.62,0 621.62,-20"/>
<text text-anchor="middle" x="602.75" y="-6.5" font-family="Helvetica,sans-Serif" font-size="10.00">array</text>
</a>
</g>
</g>
<!-- Node2&#45;&gt;Node11 -->
<g id="edge10_Node000002_Node000011" class="edge">
<title>Node2&#45;&gt;Node11</title>
<g id="a_edge10_Node000002_Node000011"><a xlink:title=" ">
<path fill="none" stroke="#63b8ff" d="M1052.88,-64.41C985.11,-62.44 796.85,-54.27 633.31,-20.39"/>
<polygon fill="#63b8ff" stroke="#63b8ff" points="634.06,-16.97 623.55,-18.33 632.61,-23.82 634.06,-16.97"/>
</a>
</g>
</g>
<!-- Node12 -->
<g id="Node000012" class="node">
<title>Node12</title>
<g id="a_Node000012"><a xlink:title=" ">
<polygon fill="#e0e0e0" stroke="#999999" points="682.25,-20 639.25,-20 639.25,0 682.25,0 682.25,-20"/>
<text text-anchor="middle" x="660.75" y="-6.5" font-family="Helvetica,sans-Serif" font-size="10.00">cmath</text>
</a>
</g>
</g>
<!-- Node2&#45;&gt;Node12 -->
<g id="edge11_Node000002_Node000012" class="edge">
<title>Node2&#45;&gt;Node12</title>
<g id="a_edge11_Node000002_Node000012"><a xlink:title=" ">
<path fill="none" stroke="#63b8ff" d="M1053.08,-63.59C992.14,-59.91 833.88,-48.42 693.52,-20.27"/>
<polygon fill="#63b8ff" stroke="#63b8ff" points="694.57,-16.91 684.07,-18.34 693.17,-23.77 694.57,-16.91"/>
</a>
</g>
</g>
<!-- Node13 -->
<g id="Node000013" class="node">
<title>Node13</title>
<g id="a_Node000013"><a xlink:title=" ">
<polygon fill="#e0e0e0" stroke="#999999" points="743.25,-20 700.25,-20 700.25,0 743.25,0 743.25,-20"/>
<text text-anchor="middle" x="721.75" y="-6.5" font-family="Helvetica,sans-Serif" font-size="10.00">thread</text>
</a>
</g>
</g>
<!-- Node2&#45;&gt;Node13 -->
<g id="edge12_Node000002_Node000013" class="edge">
<title>Node2&#45;&gt;Node13</title>
<g id="a_edge12_Node000002_Node000013"><a xlink:title=" ">
<path fill="none" stroke="#63b8ff" d="M1052.65,-62.79C998.66,-57.93 870.68,-44.9 754.78,-20.39"/>
<polygon fill="#63b8ff" stroke="#63b8ff" points="755.6,-16.99 745.08,-18.3 754.12,-23.83 755.6,-16.99"/>
</a>
</g>
</g>
<!-- Node14 -->
<g id="Node000014" class="node">
<title>Node14</title>
<g id="a_Node000014"><a xlink:title=" ">
<polygon fill="#e0e0e0" stroke="#999999" points="810.25,-20 761.25,-20 761.25,0 810.25,0 810.25,-20"/>
<text text-anchor="middle" x="785.75" y="-6.5" font-family="Helvetica,sans-Serif" font-size="10.00">fstream</text>
</a>
</g>
</g>
<!-- Node2&#45;&gt;Node14 -->
<g id="edge13_Node000002_Node000014" class="edge">
<title>Node2&#45;&gt;Node14</title>
<g id="a_edge13_Node000002_Node000014"><a xlink:title=" ">
<path fill="none" stroke="#63b8ff" d="M1052.87,-61.26C1007.92,-54.61 912.32,-39.76 821.61,-20.24"/>
<polygon fill="#63b8ff" stroke="#63b8ff" points="822.57,-16.87 812.05,-18.16 821.08,-23.71 822.57,-16.87"/>
</a>
</g>
</g>
<!-- Node15 -->
<g id="Node000015" class="node">
<title>Node15</title>
<g id="a_Node000015"><a xlink:title=" ">
<polygon fill="#e0e0e0" stroke="#999999" points="876.88,-20 828.62,-20 828.62,0 876.88,0 876.88,-20"/>
<text text-anchor="middle" x="852.75" y="-6.5" font-family="Helvetica,sans-Serif" font-size="10.00">istream</text>
</a>
</g>
</g>
<!-- Node2&#45;&gt;Node15 -->
<g id="edge14_Node000002_Node000015" class="edge">
<title>Node2&#45;&gt;Node15</title>
<g id="a_edge14_Node000002_Node000015"><a xlink:title=" ">
<path fill="none" stroke="#63b8ff" d="M1052.77,-59.26C1017.59,-51.43 952.62,-36.71 888.01,-20.51"/>
<polygon fill="#63b8ff" stroke="#63b8ff" points="889.25,-17.21 878.7,-18.16 887.54,-24 889.25,-17.21"/>
</a>
</g>
</g>
<!-- Node16 -->
<g id="Node000016" class="node">
<title>Node16</title>
<g id="a_Node000016"><a xlink:title=" ">
<polygon fill="#e0e0e0" stroke="#999999" points="946.38,-20 895.12,-20 895.12,0 946.38,0 946.38,-20"/>
<text text-anchor="middle" x="920.75" y="-6.5" font-family="Helvetica,sans-Serif" font-size="10.00">ostream</text>
</a>
</g>
</g>
<!-- Node2&#45;&gt;Node16 -->
<g id="edge15_Node000002_Node000016" class="edge">
<title>Node2&#45;&gt;Node16</title>
<g id="a_edge15_Node000002_Node000016"><a xlink:title=" ">
<path fill="none" stroke="#63b8ff" d="M1052.66,-56.08C1026.62,-47.18 986.4,-33.44 957.21,-23.46"/>
<polygon fill="#63b8ff" stroke="#63b8ff" points="958.64,-20.25 948.05,-20.33 956.38,-26.88 958.64,-20.25"/>
</a>
</g>
</g>
<!-- Node17 -->
<g id="Node000017" class="node">
<title>Node17</title>
<g id="a_Node000017"><a xlink:title=" ">
<polygon fill="#e0e0e0" stroke="#999999" points="1004.75,-20 964.75,-20 964.75,0 1004.75,0 1004.75,-20"/>
<text text-anchor="middle" x="984.75" y="-6.5" font-family="Helvetica,sans-Serif" font-size="10.00">bitset</text>
</a>
</g>
</g>
<!-- Node2&#45;&gt;Node17 -->
<g id="edge16_Node000002_Node000017" class="edge">
<title>Node2&#45;&gt;Node17</title>
<g id="a_edge16_Node000002_Node000017"><a xlink:title=" ">
<path fill="none" stroke="#63b8ff" d="M1062.38,-55.59C1048.18,-47.44 1027.37,-35.48 1010.87,-26"/>
<polygon fill="#63b8ff" stroke="#63b8ff" points="1012.98,-23.18 1002.56,-21.23 1009.49,-29.25 1012.98,-23.18"/>
</a>
</g>
</g>
<!-- Node18 -->
<g id="Node000018" class="node">
<title>Node18</title>
<g id="a_Node000018"><a xlink:title=" ">
<polygon fill="#e0e0e0" stroke="#999999" points="1068.38,-20 1023.12,-20 1023.12,0 1068.38,0 1068.38,-20"/>
<text text-anchor="middle" x="1045.75" y="-6.5" font-family="Helvetica,sans-Serif" font-size="10.00">cstdint</text>
</a>
</g>
</g>
<!-- Node2&#45;&gt;Node18 -->
<g id="edge17_Node000002_Node000018" class="edge">
<title>Node2&#45;&gt;Node18</title>
<g id="a_edge17_Node000002_Node000018"><a xlink:title=" ">
<path fill="none" stroke="#63b8ff" d="M1073,-55.59C1068.7,-48.55 1062.66,-38.67 1057.36,-30"/>
<polygon fill="#63b8ff" stroke="#63b8ff" points="1060.42,-28.3 1052.22,-21.59 1054.45,-31.95 1060.42,-28.3"/>
</a>
</g>
</g>
<!-- Node19 -->
<g id="Node000019" class="node">
<title>Node19</title>
<g id="a_Node000019"><a xlink:title=" ">
<polygon fill="#e0e0e0" stroke="#999999" points="1134.88,-20 1086.62,-20 1086.62,0 1134.88,0 1134.88,-20"/>
<text text-anchor="middle" x="1110.75" y="-6.5" font-family="Helvetica,sans-Serif" font-size="10.00">random</text>
</a>
</g>
</g>
<!-- Node2&#45;&gt;Node19 -->
<g id="edge18_Node000002_Node000019" class="edge">
<title>Node2&#45;&gt;Node19</title>
<g id="a_edge18_Node000002_Node000019"><a xlink:title=" ">
<path fill="none" stroke="#63b8ff" d="M1084.32,-55.59C1088.5,-48.55 1094.35,-38.67 1099.49,-30"/>
<polygon fill="#63b8ff" stroke="#63b8ff" points="1102.38,-31.99 1104.47,-21.6 1096.36,-28.42 1102.38,-31.99"/>
</a>
</g>
</g>
<!-- Node20 -->
<g id="Node000020" class="node">
<title>Node20</title>
<g id="a_Node000020"><a xlink:title=" ">
<polygon fill="#e0e0e0" stroke="#999999" points="1210.75,-20 1152.75,-20 1152.75,0 1210.75,0 1210.75,-20"/>
<text text-anchor="middle" x="1181.75" y="-6.5" font-family="Helvetica,sans-Serif" font-size="10.00">functional</text>
</a>
</g>
</g>
<!-- Node2&#45;&gt;Node20 -->
<g id="edge19_Node000002_Node000020" class="edge">
<title>Node2&#45;&gt;Node20</title>
<g id="a_edge19_Node000002_Node000020"><a xlink:title=" ">
<path fill="none" stroke="#63b8ff" d="M1096.69,-55.59C1112.4,-47.36 1135.48,-35.26 1153.64,-25.74"/>
<polygon fill="#63b8ff" stroke="#63b8ff" points="1155.1,-28.93 1162.33,-21.18 1151.85,-22.73 1155.1,-28.93"/>
</a>
</g>
</g>
<!-- Node21 -->
<g id="Node000021" class="node">
<title>Node21</title>
<g id="a_Node000021"><a xlink:title=" ">
<polygon fill="#e0e0e0" stroke="#999999" points="1260.62,-20 1228.88,-20 1228.88,0 1260.62,0 1260.62,-20"/>
<text text-anchor="middle" x="1244.75" y="-6.5" font-family="Helvetica,sans-Serif" font-size="10.00">any</text>
</a>
</g>
</g>
<!-- Node2&#45;&gt;Node21 -->
<g id="edge20_Node000002_Node000021" class="edge">
<title>Node2&#45;&gt;Node21</title>
<g id="a_edge20_Node000002_Node000021"><a xlink:title=" ">
<path fill="none" stroke="#63b8ff" d="M1104.83,-56.99C1131.1,-48.86 1173.02,-35.69 1217.82,-20.57"/>
<polygon fill="#63b8ff" stroke="#63b8ff" points="1218.86,-23.91 1227.21,-17.38 1216.61,-17.28 1218.86,-23.91"/>
</a>
</g>
</g>
<!-- Node22 -->
<g id="Node000022" class="node">
<title>Node22</title>
<g id="a_Node000022"><a xlink:title=" ">
<polygon fill="#e0e0e0" stroke="#999999" points="1381.25,-20 1278.25,-20 1278.25,0 1381.25,0 1381.25,-20"/>
<text text-anchor="middle" x="1329.75" y="-6.5" font-family="Helvetica,sans-Serif" font-size="10.00">SFML/Graphics.hpp</text>
</a>
</g>
</g>
<!-- Node2&#45;&gt;Node22 -->
<g id="edge21_Node000002_Node000022" class="edge">
<title>Node2&#45;&gt;Node22</title>
<g id="a_edge21_Node000002_Node000022"><a xlink:title=" ">
<path fill="none" stroke="#63b8ff" d="M1104.67,-59.42C1144.57,-50.84 1221.98,-34.19 1274.76,-22.83"/>
<polygon fill="#63b8ff" stroke="#63b8ff" points="1275.43,-26.27 1284.47,-20.74 1273.96,-19.42 1275.43,-26.27"/>
</a>
</g>
</g>
<!-- Node23 -->
<g id="Node000023" class="node">
<title>Node23</title>
<g id="a_Node000023"><a xlink:title=" ">
<polygon fill="#e0e0e0" stroke="#999999" points="1498,-20 1399.5,-20 1399.5,0 1498,0 1498,-20"/>
<text text-anchor="middle" x="1448.75" y="-6.5" font-family="Helvetica,sans-Serif" font-size="10.00">SFML/Window.hpp</text>
</a>
</g>
</g>
<!-- Node2&#45;&gt;Node23 -->
<g id="edge22_Node000002_Node000023" class="edge">
<title>Node2&#45;&gt;Node23</title>
<g id="a_edge22_Node000002_Node000023"><a xlink:title=" ">
<path fill="none" stroke="#63b8ff" d="M1104.56,-61.33C1156.15,-53.99 1275.93,-36.87 1388.01,-20.25"/>
<polygon fill="#63b8ff" stroke="#63b8ff" points="1388.31,-23.74 1397.68,-18.81 1387.28,-16.82 1388.31,-23.74"/>
</a>
</g>
</g>
<!-- Node24 -->
<g id="Node000024" class="node">
<title>Node24</title>
<g id="a_Node000024"><a xlink:title=" ">
<polygon fill="#e0e0e0" stroke="#999999" points="1605.12,-20 1516.38,-20 1516.38,0 1605.12,0 1605.12,-20"/>
<text text-anchor="middle" x="1560.75" y="-6.5" font-family="Helvetica,sans-Serif" font-size="10.00">SFML/Audio.hpp</text>
</a>
</g>
</g>
<!-- Node2&#45;&gt;Node24 -->
<g id="edge23_Node000002_Node000024" class="edge">
<title>Node2&#45;&gt;Node24</title>
<g id="a_edge23_Node000002_Node000024"><a xlink:title=" ">
<path fill="none" stroke="#63b8ff" d="M1104.87,-62.81C1170.25,-57.2 1346.46,-41.37 1504.64,-20.21"/>
<polygon fill="#63b8ff" stroke="#63b8ff" points="1505.05,-23.68 1514.49,-18.88 1504.11,-16.75 1505.05,-23.68"/>
</a>
</g>
</g>
<!-- Node25 -->
<g id="Node000025" class="node">
<title>Node25</title>
<g id="a_Node000025"><a xlink:title=" ">
<polygon fill="#e0e0e0" stroke="#999999" points="1720.62,-20 1622.88,-20 1622.88,0 1720.62,0 1720.62,-20"/>
<text text-anchor="middle" x="1671.75" y="-6.5" font-family="Helvetica,sans-Serif" font-size="10.00">SFML/System.hpp</text>
</a>
</g>
</g>
<!-- Node2&#45;&gt;Node25 -->
<g id="edge24_Node000002_Node000025" class="edge">
<title>Node2&#45;&gt;Node25</title>
<g id="a_edge24_Node000002_Node000025"><a xlink:title=" ">
<path fill="none" stroke="#63b8ff" d="M1104.7,-63.46C1180.77,-58.83 1409.98,-43.88 1611.05,-20.24"/>
<polygon fill="#63b8ff" stroke="#63b8ff" points="1611.4,-23.73 1620.92,-19.07 1610.58,-16.78 1611.4,-23.73"/>
</a>
</g>
</g>
<!-- Node26 -->
<g id="Node000026" class="node">
<title>Node26</title>
<g id="a_Node000026"><a xlink:href="_log_8h.html" target="_top" xlink:title="Provides a lightweight static logging utility for console output.">
<polygon fill="white" stroke="#666666" points="1831,-20 1738.5,-20 1738.5,0 1831,0 1831,-20"/>
<text text-anchor="middle" x="1784.75" y="-6.5" font-family="Helvetica,sans-Serif" font-size="10.00">Core/Utility/Log.h</text>
</a>
</g>
</g>
<!-- Node2&#45;&gt;Node26 -->
<g id="edge25_Node000002_Node000026" class="edge">
<title>Node2&#45;&gt;Node26</title>
<g id="a_edge25_Node000002_Node000026"><a xlink:title=" ">
<path fill="none" stroke="#63b8ff" d="M1104.57,-64.08C1191.06,-60.82 1478.63,-48.51 1726.87,-20.23"/>
<polygon fill="#63b8ff" stroke="#63b8ff" points="1727.24,-23.71 1736.78,-19.09 1726.44,-16.76 1727.24,-23.71"/>
</a>
</g>
</g>
<!-- Node27 -->
<g id="Node000027" class="node">
<title>Node27</title>
<g id="a_Node000027"><a xlink:href="_vector2_8h.html" target="_top" xlink:title="A simple 2D vector class based on SFML&#39;s sf::Vector2.">
<polygon fill="white" stroke="#666666" points="1958.62,-20 1848.88,-20 1848.88,0 1958.62,0 1958.62,-20"/>
<text text-anchor="middle" x="1903.75" y="-6.5" font-family="Helvetica,sans-Serif" font-size="10.00">Core/Utility/Vector2.h</text>
</a>
</g>
</g>
<!-- Node2&#45;&gt;Node27 -->
<g id="edge26_Node000002_Node000027" class="edge">
<title>Node2&#45;&gt;Node27</title>
<g id="a_edge26_Node000002_Node000027"><a xlink:title=" ">
<path fill="none" stroke="#63b8ff" d="M1104.76,-64.22C1200.64,-61.2 1543.47,-48.98 1837.32,-20.16"/>
<polygon fill="#63b8ff" stroke="#63b8ff" points="1837.51,-23.66 1847.12,-19.19 1836.82,-16.69 1837.51,-23.66"/>
</a>
</g>
</g>
<!-- Node28 -->
<g id="Node000028" class="node">
<title>Node28</title>
<g id="a_Node000028"><a xlink:href="_timer_8h.html" target="_top" xlink:title="A simple timer utility class.">
<polygon fill="white" stroke="#666666" points="2078.5,-20 1977,-20 1977,0 2078.5,0 2078.5,-20"/>
<text text-anchor="middle" x="2027.75" y="-6.5" font-family="Helvetica,sans-Serif" font-size="10.00">Core/Utility/Timer.h</text>
</a>
</g>
</g>
<!-- Node2&#45;&gt;Node28 -->
<g id="edge27_Node000002_Node000028" class="edge">
<title>Node2&#45;&gt;Node28</title>
<g id="a_edge27_Node000002_Node000028"><a xlink:title=" ">
<path fill="none" stroke="#63b8ff" d="M1104.64,-64.62C1210.21,-62.87 1618.63,-54.23 1965.45,-20.12"/>
<polygon fill="#63b8ff" stroke="#63b8ff" points="1965.62,-23.62 1975.22,-19.15 1964.93,-16.66 1965.62,-23.62"/>
</a>
</g>
</g>
<!-- Node29 -->
<g id="Node000029" class="node">
<title>Node29</title>
<g id="a_Node000029"><a xlink:href="_random_gen_8h.html" target="_top" xlink:title=" ">
<polygon fill="white" stroke="#666666" points="2228.5,-20 2097,-20 2097,0 2228.5,0 2228.5,-20"/>
<text text-anchor="middle" x="2162.75" y="-6.5" font-family="Helvetica,sans-Serif" font-size="10.00">Core/Utility/RandomGen.h</text>
</a>
</g>
</g>
<!-- Node2&#45;&gt;Node29 -->
<g id="edge28_Node000002_Node000029" class="edge">
<title>Node2&#45;&gt;Node29</title>
<g id="a_edge28_Node000002_Node000029"><a xlink:title=" ">
<path fill="none" stroke="#63b8ff" d="M1104.52,-64.56C1218.41,-62.47 1688.1,-52.3 2085.1,-20.15"/>
<polygon fill="#63b8ff" stroke="#63b8ff" points="2085.33,-23.65 2095.02,-19.34 2084.76,-16.67 2085.33,-23.65"/>
</a>
</g>
</g>
<!-- Node30 -->
<g id="Node000030" class="node">
<title>Node30</title>
<g id="a_Node000030"><a xlink:href="_scene_manager_8h.html" target="_top" xlink:title="Contains the SceneID enum, IGameScene interface, and SceneManager class.">
<polygon fill="white" stroke="#666666" points="2405.38,-20 2246.12,-20 2246.12,0 2405.38,0 2405.38,-20"/>
<text text-anchor="middle" x="2325.75" y="-6.5" font-family="Helvetica,sans-Serif" font-size="10.00">Core/Managers/SceneManager.h</text>
</a>
</g>
</g>
<!-- Node2&#45;&gt;Node30 -->
<g id="edge29_Node000002_Node000030" class="edge">
<title>Node2&#45;&gt;Node30</title>
<g id="a_edge29_Node000002_Node000030"><a xlink:title=" ">
<path fill="none" stroke="#63b8ff" d="M1104.48,-64.6C1228.3,-62.56 1775.37,-52.13 2234.5,-20.19"/>
<polygon fill="#63b8ff" stroke="#63b8ff" points="2234.43,-23.7 2244.16,-19.51 2233.94,-16.72 2234.43,-23.7"/>
</a>
</g>
</g>
<!-- Node31 -->
<g id="Node000031" class="node">
<title>Node31</title>
<g id="a_Node000031"><a xlink:href="_cursor_8h.html" target="_top" xlink:title="Singleton class that manages the in&#45;game cursor.">
<polygon fill="white" stroke="#666666" points="2512.5,-20 2423,-20 2423,0 2512.5,0 2512.5,-20"/>
<text text-anchor="middle" x="2467.75" y="-6.5" font-family="Helvetica,sans-Serif" font-size="10.00">Entities/Cursor.h</text>
</a>
</g>
</g>
<!-- Node2&#45;&gt;Node31 -->
<g id="edge30_Node000002_Node000031" class="edge">
<title>Node2&#45;&gt;Node31</title>
<g id="a_edge30_Node000002_Node000031"><a xlink:title=" ">
<path fill="none" stroke="#63b8ff" d="M1104.71,-64.6C1265.14,-62.08 2123.84,-47.52 2411.48,-20.18"/>
<polygon fill="#63b8ff" stroke="#63b8ff" points="2411.58,-23.68 2421.19,-19.22 2410.9,-16.72 2411.58,-23.68"/>
</a>
</g>
</g>
<!-- Node32 -->
<g id="Node000032" class="node">
<title>Node32</title>
<g id="a_Node000032"><a xlink:title=" ">
<polygon fill="#e0e0e0" stroke="#999999" points="2593,-20 2530.5,-20 2530.5,0 2593,0 2593,-20"/>
<text text-anchor="middle" x="2561.75" y="-6.5" font-family="Helvetica,sans-Serif" font-size="10.00">windows.h</text>
</a>
</g>
</g>
<!-- Node2&#45;&gt;Node32 -->
<g id="edge31_Node000002_Node000032" class="edge">
<title>Node2&#45;&gt;Node32</title>
<g id="a_edge31_Node000002_Node000032"><a xlink:title=" ">
<path fill="none" stroke="#63b8ff" d="M1104.86,-64.86C1273.29,-63.89 2208.99,-56.92 2519.2,-20.03"/>
<polygon fill="#63b8ff" stroke="#63b8ff" points="2519.41,-23.53 2528.9,-18.83 2518.55,-16.58 2519.41,-23.53"/>
</a>
</g>
</g>
<!-- Node33 -->
<g id="Node000033" class="node">
<title>Node33</title>
<g id="a_Node000033"><a xlink:title=" ">
<polygon fill="#e0e0e0" stroke="#999999" points="2662.38,-20 2611.12,-20 2611.12,0 2662.38,0 2662.38,-20"/>
<text text-anchor="middle" x="2636.75" y="-6.5" font-family="Helvetica,sans-Serif" font-size="10.00">sstream</text>
</a>
</g>
</g>
<!-- Node2&#45;&gt;Node33 -->
<g id="edge32_Node000002_Node000033" class="edge">
<title>Node2&#45;&gt;Node33</title>
<g id="a_edge32_Node000002_Node000033"><a xlink:title=" ">
<path fill="none" stroke="#63b8ff" d="M1104.61,-65.02C1277.81,-65.05 2272.11,-63.35 2599.52,-19.9"/>
<polygon fill="#63b8ff" stroke="#63b8ff" points="2599.96,-23.37 2609.39,-18.54 2599,-16.44 2599.96,-23.37"/>
</a>
</g>
</g>
<!-- Node34&#45;&gt;Node35 -->
<g id="edge34_Node000034_Node000035" class="edge">
<title>Node34&#45;&gt;Node35</title>
<g id="a_edge34_Node000034_Node000035"><a xlink:title=" ">
<path fill="none" stroke="#63b8ff" d="M2667.33,-55.59C2674.98,-48.08 2685.91,-37.35 2695.13,-28.3"/>
<polygon fill="#63b8ff" stroke="#63b8ff" points="2697.52,-30.86 2702.2,-21.36 2692.61,-25.87 2697.52,-30.86"/>
</a>
</g>
</g>
</g>
</svg>

<g id="navigator" transform="translate(0 0)" fill="#404254">
  <rect fill="#f2f5e9" fill-opacity="0.5" stroke="#606060" stroke-width=".5" x="0" y="0" width="60" height="60"/>
  <use id="zoomplus" xlink:href="#zoomPlus" x="17" y="9" onmousedown="handleZoom(evt,'in')"/>
  <use id="zoomminus" xlink:href="#zoomMin" x="42" y="9" onmousedown="handleZoom(evt,'out')"/>
  <use id="reset" xlink:href="#resetDef" x="30" y="36" onmousedown="handleReset()"/>
   <use id="arrowup" xlink:href="#arrowUp" x="0" y="0" onmousedown="handlePan(0,-1)"/>
  <use id="arrowright" xlink:href="#arrowRight" x="0" y="0" onmousedown="handlePan(1,0)"/>
  <use id="arrowdown" xlink:href="#arrowDown" x="0" y="0" onmousedown="handlePan(0,1)"/>
  <use id="arrowleft" xlink:href="#arrowLeft" x="0" y="0" onmousedown="handlePan(-1,0)"/>
</g>
<svg viewBox="0 0 15 15" width="100%" height="30px" preserveAspectRatio="xMaxYMin meet">
 <g id="arrow_out" transform="scale(0.3 0.3)">
  <a xlink:href="_enemy_8cpp__incl_org.svg" target="_base">
   <rect id="button" ry="5" rx="5" y="6" x="6" height="38" width="38"
        fill="#f2f5e9" fill-opacity="0.5" stroke="#606060" stroke-width="1.0"/>
   <path id="arrow"
     d="M 11.500037,31.436501 C 11.940474,20.09759 22.043105,11.32322 32.158766,21.979434 L 37.068811,17.246167 C 37.068811,17.246167 37.088388,32 37.088388,32 L 22.160133,31.978069 C 22.160133,31.978069 26.997745,27.140456 26.997745,27.140456 C 18.528582,18.264221 13.291696,25.230495 11.500037,31.436501 z"
     style="fill:#404040;"/>
  </a>
 </g>
</svg>

<style type='text/css'>
<![CDATA[
[data-mouse-over-selected='false'] { opacity: 0.7; }
[data-mouse-over-selected='true']  { opacity: 1.0; }
]]>
</style>
<script type="application/ecmascript"><![CDATA[
document.addEventListener('DOMContentLoaded', (event) => {
  highlightEdges();
  highlightAdjacentNodes();
});
]]></script>
</svg>
