<?xml version="1.0" encoding="UTF-8" standalone="no"?>
<!DOCTYPE svg PUBLIC "-//W3C//DTD SVG 1.1//EN"
 "http://www.w3.org/Graphics/SVG/1.1/DTD/svg11.dtd">
<!-- Generated by graphviz version 12.2.0 (20241103.1931)
 -->
<!-- Title: include/MyLibrary/Entities/Enemy.h Pages: 1 -->
<svg width="816pt" height="176pt"
 viewBox="0.00 0.00 815.88 176.00" xmlns="http://www.w3.org/2000/svg" xmlns:xlink="http://www.w3.org/1999/xlink">
<g id="graph0" class="graph" transform="scale(1 1) rotate(0) translate(4 172)">
<title>include/MyLibrary/Entities/Enemy.h</title>
<!-- Node1 -->
<g id="Node000001" class="node">
<title>Node1</title>
<g id="a_Node000001"><a xlink:title="Contains the Enemy class and its related methods.">
<polygon fill="#999999" stroke="#666666" points="428.88,-168 300.38,-168 300.38,-136 428.88,-136 428.88,-168"/>
<text text-anchor="start" x="308.38" y="-154.5" font-family="Helvetica,sans-Serif" font-size="10.00">include/MyLibrary/Entities</text>
<text text-anchor="middle" x="364.62" y="-142.5" font-family="Helvetica,sans-Serif" font-size="10.00">/Enemy.h</text>
</a>
</g>
</g>
<!-- Node2 -->
<g id="Node000002" class="node">
<title>Node2</title>
<g id="a_Node000002"><a xlink:href="_gameplay_utility_8cpp.html" target="_top" xlink:title=" ">
<polygon fill="white" stroke="#666666" points="135.25,-100 0,-100 0,-68 135.25,-68 135.25,-100"/>
<text text-anchor="start" x="8" y="-86.5" font-family="Helvetica,sans-Serif" font-size="10.00">include/MyLibrary/Core</text>
<text text-anchor="middle" x="67.62" y="-74.5" font-family="Helvetica,sans-Serif" font-size="10.00">/Utility/GameplayUtility.cpp</text>
</a>
</g>
</g>
<!-- Node1&#45;&gt;Node2 -->
<g id="edge1_Node000001_Node000002" class="edge">
<title>Node1&#45;&gt;Node2</title>
<g id="a_edge1_Node000001_Node000002"><a xlink:title=" ">
<path fill="none" stroke="#63b8ff" d="M289.07,-134.21C241.77,-123.7 181.34,-110.27 135.56,-100.1"/>
<polygon fill="#63b8ff" stroke="#63b8ff" points="288.18,-137.6 298.7,-136.35 289.7,-130.76 288.18,-137.6"/>
</a>
</g>
</g>
<!-- Node3 -->
<g id="Node000003" class="node">
<title>Node3</title>
<g id="a_Node000003"><a xlink:href="_enemy_8cpp.html" target="_top" xlink:title=" ">
<polygon fill="white" stroke="#666666" points="281.88,-100 153.38,-100 153.38,-68 281.88,-68 281.88,-100"/>
<text text-anchor="start" x="161.38" y="-86.5" font-family="Helvetica,sans-Serif" font-size="10.00">include/MyLibrary/Entities</text>
<text text-anchor="middle" x="217.62" y="-74.5" font-family="Helvetica,sans-Serif" font-size="10.00">/Enemy.cpp</text>
</a>
</g>
</g>
<!-- Node1&#45;&gt;Node3 -->
<g id="edge2_Node000001_Node000003" class="edge">
<title>Node1&#45;&gt;Node3</title>
<g id="a_edge2_Node000001_Node000003"><a xlink:title=" ">
<path fill="none" stroke="#63b8ff" d="M319.84,-130.89C298.08,-121.12 272.34,-109.56 252.13,-100.49"/>
<polygon fill="#63b8ff" stroke="#63b8ff" points="318.22,-134 328.78,-134.91 321.09,-127.62 318.22,-134"/>
</a>
</g>
</g>
<!-- Node4 -->
<g id="Node000004" class="node">
<title>Node4</title>
<g id="a_Node000004"><a xlink:href="_projectile_8cpp.html" target="_top" xlink:title=" ">
<polygon fill="white" stroke="#666666" points="428.88,-100 300.38,-100 300.38,-68 428.88,-68 428.88,-100"/>
<text text-anchor="start" x="308.38" y="-86.5" font-family="Helvetica,sans-Serif" font-size="10.00">include/MyLibrary/Entities</text>
<text text-anchor="middle" x="364.62" y="-74.5" font-family="Helvetica,sans-Serif" font-size="10.00">/Projectile.cpp</text>
</a>
</g>
</g>
<!-- Node1&#45;&gt;Node4 -->
<g id="edge3_Node000001_Node000004" class="edge">
<title>Node1&#45;&gt;Node4</title>
<g id="a_edge3_Node000001_Node000004"><a xlink:title=" ">
<path fill="none" stroke="#63b8ff" d="M364.62,-124.31C364.62,-116.12 364.62,-107.38 364.62,-100.22"/>
<polygon fill="#63b8ff" stroke="#63b8ff" points="361.13,-124.18 364.63,-134.18 368.13,-124.18 361.13,-124.18"/>
</a>
</g>
</g>
<!-- Node5 -->
<g id="Node000005" class="node">
<title>Node5</title>
<g id="a_Node000005"><a xlink:href="_spaceship_8cpp.html" target="_top" xlink:title=" ">
<polygon fill="white" stroke="#666666" points="575.88,-100 447.38,-100 447.38,-68 575.88,-68 575.88,-100"/>
<text text-anchor="start" x="455.38" y="-86.5" font-family="Helvetica,sans-Serif" font-size="10.00">include/MyLibrary/Entities</text>
<text text-anchor="middle" x="511.62" y="-74.5" font-family="Helvetica,sans-Serif" font-size="10.00">/Spaceship.cpp</text>
</a>
</g>
</g>
<!-- Node1&#45;&gt;Node5 -->
<g id="edge4_Node000001_Node000005" class="edge">
<title>Node1&#45;&gt;Node5</title>
<g id="a_edge4_Node000001_Node000005"><a xlink:title=" ">
<path fill="none" stroke="#63b8ff" d="M409.41,-130.89C431.17,-121.12 456.91,-109.56 477.12,-100.49"/>
<polygon fill="#63b8ff" stroke="#63b8ff" points="408.16,-127.62 400.47,-134.91 411.03,-134 408.16,-127.62"/>
</a>
</g>
</g>
<!-- Node6 -->
<g id="Node000006" class="node">
<title>Node6</title>
<g id="a_Node000006"><a xlink:href="_level_one_8h.html" target="_top" xlink:title="Contains the LevelOne class for handling the first level of the game.">
<polygon fill="white" stroke="#666666" points="722.88,-100 594.38,-100 594.38,-68 722.88,-68 722.88,-100"/>
<text text-anchor="start" x="602.38" y="-86.5" font-family="Helvetica,sans-Serif" font-size="10.00">include/MyLibrary/Scenes</text>
<text text-anchor="middle" x="658.62" y="-74.5" font-family="Helvetica,sans-Serif" font-size="10.00">/InGame/LevelOne.h</text>
</a>
</g>
</g>
<!-- Node1&#45;&gt;Node6 -->
<g id="edge5_Node000001_Node000006" class="edge">
<title>Node1&#45;&gt;Node6</title>
<g id="a_edge5_Node000001_Node000006"><a xlink:title=" ">
<path fill="none" stroke="#63b8ff" d="M440.32,-134.01C487.92,-123.32 548.68,-109.68 594,-99.51"/>
<polygon fill="#63b8ff" stroke="#63b8ff" points="439.61,-130.58 430.62,-136.18 441.15,-137.41 439.61,-130.58"/>
</a>
</g>
</g>
<!-- Node7 -->
<g id="Node000007" class="node">
<title>Node7</title>
<g id="a_Node000007"><a xlink:href="_game_instance_8cpp.html" target="_top" xlink:title=" ">
<polygon fill="white" stroke="#666666" points="661.62,-26 483.62,-26 483.62,-6 661.62,-6 661.62,-26"/>
<text text-anchor="middle" x="572.62" y="-12.5" font-family="Helvetica,sans-Serif" font-size="10.00">include/MyLibrary/GameInstance.cpp</text>
</a>
</g>
</g>
<!-- Node6&#45;&gt;Node7 -->
<g id="edge6_Node000006_Node000007" class="edge">
<title>Node6&#45;&gt;Node7</title>
<g id="a_edge6_Node000006_Node000007"><a xlink:title=" ">
<path fill="none" stroke="#63b8ff" d="M629.58,-60.71C614.29,-48.98 596.36,-35.22 584.76,-26.32"/>
<polygon fill="#63b8ff" stroke="#63b8ff" points="627.41,-63.46 637.48,-66.77 631.68,-57.91 627.41,-63.46"/>
</a>
</g>
</g>
<!-- Node8 -->
<g id="Node000008" class="node">
<title>Node8</title>
<g id="a_Node000008"><a xlink:href="_level_one_8cpp.html" target="_top" xlink:title=" ">
<polygon fill="white" stroke="#666666" points="807.88,-32 679.38,-32 679.38,0 807.88,0 807.88,-32"/>
<text text-anchor="start" x="687.38" y="-18.5" font-family="Helvetica,sans-Serif" font-size="10.00">include/MyLibrary/Scenes</text>
<text text-anchor="middle" x="743.62" y="-6.5" font-family="Helvetica,sans-Serif" font-size="10.00">/InGame/LevelOne.cpp</text>
</a>
</g>
</g>
<!-- Node6&#45;&gt;Node8 -->
<g id="edge7_Node000006_Node000008" class="edge">
<title>Node6&#45;&gt;Node8</title>
<g id="a_edge7_Node000006_Node000008"><a xlink:title=" ">
<path fill="none" stroke="#63b8ff" d="M687.12,-60.87C699.13,-51.55 712.83,-40.91 723.72,-32.45"/>
<polygon fill="#63b8ff" stroke="#63b8ff" points="685.29,-57.87 679.53,-66.76 689.58,-63.4 685.29,-57.87"/>
</a>
</g>
</g>
</g>
</svg>
