<?xml version="1.0" encoding="UTF-8" standalone="no"?>
<!DOCTYPE svg PUBLIC "-//W3C//DTD SVG 1.1//EN"
 "http://www.w3.org/Graphics/SVG/1.1/DTD/svg11.dtd">
<!-- Generated by graphviz version 12.2.0 (20241103.1931)
 -->
<!-- Title: include/MyLibrary/GameInstance.cpp Pages: 1 -->
<!--zoomable 196 -->

<svg id="main" version="1.1" xmlns="http://www.w3.org/2000/svg" xmlns:xlink="http://www.w3.org/1999/xlink" xml:space="preserve" onload="init(evt)">

<style type="text/css"><![CDATA[
.node, .edge {opacity: 0.7;}
.node.selected, .edge.selected {opacity: 1;}
.edge:hover path { stroke: red; }
.edge:hover polygon { stroke: red; fill: red; }
]]></style>

<defs>
  <circle id="rim" cx="0" cy="0" r="7"/>
  <circle id="rim2" cx="0" cy="0" r="3.5"/>
  <g id="zoomPlus">
    <use xlink:href="#rim" fill="#404040"><set attributeName="fill" to="#808080" begin="zoomplus.mouseover" end="zoomplus.mouseout"/></use>
    <path d="M-4,0h8M0,-4v8" fill="none" stroke="white" stroke-width="1.5" pointer-events="none"/>
  </g>
  <g id="zoomMin">
    <use xlink:href="#rim" fill="#404040"><set attributeName="fill" to="#808080" begin="zoomminus.mouseover" end="zoomminus.mouseout"/></use>
    <path d="M-4,0h8" fill="none" stroke="white" stroke-width="1.5" pointer-events="none"/>
  </g>
  <g id="arrowUp" transform="translate(30 24)">
    <use xlink:href="#rim"/>
    <path pointer-events="none" fill="none" stroke="white" stroke-width="1.5" d="M0,-3.0v7 M-2.5,-0.5L0,-3.0L2.5,-0.5"/>
  </g>
  <g id="arrowRight" transform="rotate(90) translate(36 -43)">
    <use xlink:href="#rim"/>
    <path pointer-events="none" fill="none" stroke="white" stroke-width="1.5" d="M0,-3.0v7 M-2.5,-0.5L0,-3.0L2.5,-0.5"/>
  </g>
  <g id="arrowDown" transform="rotate(180) translate(-30 -48)">
    <use xlink:href="#rim"/>
    <path pointer-events="none" fill="none" stroke="white" stroke-width="1.5" d="M0,-3.0v7 M-2.5,-0.5L0,-3.0L2.5,-0.5"/>
  </g>
  <g id="arrowLeft" transform="rotate(270) translate(-36 17)">
    <use xlink:href="#rim"/>
    <path pointer-events="none" fill="none" stroke="white" stroke-width="1.5" d="M0,-3.0v7 M-2.5,-0.5L0,-3.0L2.5,-0.5"/>
  </g>
  <g id="resetDef">
    <use xlink:href="#rim2" fill="#404040"><set attributeName="fill" to="#808080" begin="reset.mouseover" end="reset.mouseout"/></use>
  </g>
</defs>
<script type="application/ecmascript">
var viewWidth = 3631;
var viewHeight = 196;
var sectionId = 'dynsection-0';
</script>
<script type="application/ecmascript" xlink:href="svg.min.js"/>
<svg id="graph" class="graph">
<g id="viewport">
<title>include/MyLibrary/GameInstance.cpp</title>
<!-- Node1 -->
<g id="Node000001" class="node">
<title>Node1</title>
<g id="a_Node000001"><a xlink:title=" ">
<polygon fill="#999999" stroke="#666666" points="2979.75,-188 2801.75,-188 2801.75,-168 2979.75,-168 2979.75,-188"/>
<text text-anchor="middle" x="2890.75" y="-174.5" font-family="Helvetica,sans-Serif" font-size="10.00">include/MyLibrary/GameInstance.cpp</text>
</a>
</g>
</g>
<!-- Node2 -->
<g id="Node000002" class="node">
<title>Node2</title>
<g id="a_Node000002"><a xlink:href="stdafx_8h.html" target="_top" xlink:title=" ">
<polygon fill="white" stroke="#666666" points="1104.38,-132 1053.12,-132 1053.12,-112 1104.38,-112 1104.38,-132"/>
<text text-anchor="middle" x="1078.75" y="-118.5" font-family="Helvetica,sans-Serif" font-size="10.00">stdafx.h</text>
</a>
</g>
</g>
<!-- Node1&#45;&gt;Node2 -->
<g id="edge1_Node000001_Node000002" class="edge">
<title>Node1&#45;&gt;Node2</title>
<g id="a_edge1_Node000001_Node000002"><a xlink:title=" ">
<path fill="none" stroke="#63b8ff" d="M2801.51,-174.34C2472.77,-164.54 1336.94,-130.69 1116.12,-124.11"/>
<polygon fill="#63b8ff" stroke="#63b8ff" points="1116.48,-120.62 1106.38,-123.82 1116.27,-127.62 1116.48,-120.62"/>
</a>
</g>
</g>
<!-- Node34 -->
<g id="Node000034" class="node">
<title>Node34</title>
<g id="a_Node000034"><a xlink:href="_game_instance_8h.html" target="_top" xlink:title="Contains the GameInstance class that manages the game loop and initialization of game resources.">
<polygon fill="white" stroke="#666666" points="2521.75,-132 2433.75,-132 2433.75,-112 2521.75,-112 2521.75,-132"/>
<text text-anchor="middle" x="2477.75" y="-118.5" font-family="Helvetica,sans-Serif" font-size="10.00">GameInstance.h</text>
</a>
</g>
</g>
<!-- Node1&#45;&gt;Node34 -->
<g id="edge33_Node000001_Node000034" class="edge">
<title>Node1&#45;&gt;Node34</title>
<g id="a_edge33_Node000001_Node000034"><a xlink:title=" ">
<path fill="none" stroke="#63b8ff" d="M2806.59,-167.54C2736.18,-159.38 2632.8,-146.83 2533.16,-132.3"/>
<polygon fill="#63b8ff" stroke="#63b8ff" points="2533.87,-128.87 2523.47,-130.88 2532.86,-135.79 2533.87,-128.87"/>
</a>
</g>
</g>
<!-- Node35 -->
<g id="Node000035" class="node">
<title>Node35</title>
<g id="a_Node000035"><a xlink:href="_strings_8h.html" target="_top" xlink:title=" ">
<polygon fill="white" stroke="#666666" points="2645.75,-132 2539.75,-132 2539.75,-112 2645.75,-112 2645.75,-132"/>
<text text-anchor="middle" x="2592.75" y="-118.5" font-family="Helvetica,sans-Serif" font-size="10.00">Core/Utility/strings.h</text>
</a>
</g>
</g>
<!-- Node1&#45;&gt;Node35 -->
<g id="edge34_Node000001_Node000035" class="edge">
<title>Node1&#45;&gt;Node35</title>
<g id="a_edge34_Node000001_Node000035"><a xlink:title=" ">
<path fill="none" stroke="#63b8ff" d="M2838.5,-167.53C2787.7,-158.33 2710.46,-144.33 2656.16,-134.49"/>
<polygon fill="#63b8ff" stroke="#63b8ff" points="2656.89,-131.07 2646.43,-132.73 2655.64,-137.95 2656.89,-131.07"/>
</a>
</g>
</g>
<!-- Node36 -->
<g id="Node000036" class="node">
<title>Node36</title>
<g id="a_Node000036"><a xlink:href="_level_one_8h.html" target="_top" xlink:title="Contains the LevelOne class for handling the first level of the game.">
<polygon fill="white" stroke="#666666" points="2803.25,-132 2664.25,-132 2664.25,-112 2803.25,-112 2803.25,-132"/>
<text text-anchor="middle" x="2733.75" y="-118.5" font-family="Helvetica,sans-Serif" font-size="10.00">Scenes/InGame/LevelOne.h</text>
</a>
</g>
</g>
<!-- Node1&#45;&gt;Node36 -->
<g id="edge35_Node000001_Node000036" class="edge">
<title>Node1&#45;&gt;Node36</title>
<g id="a_edge35_Node000001_Node000036"><a xlink:title=" ">
<path fill="none" stroke="#63b8ff" d="M2863.4,-167.59C2838.12,-158.9 2800.29,-145.89 2772.02,-136.16"/>
<polygon fill="#63b8ff" stroke="#63b8ff" points="2773.34,-132.91 2762.74,-132.97 2771.06,-139.53 2773.34,-132.91"/>
</a>
</g>
</g>
<!-- Node40 -->
<g id="Node000040" class="node">
<title>Node40</title>
<g id="a_Node000040"><a xlink:href="_level_two_8h.html" target="_top" xlink:title="Contains the LevelTwo class for managing the second level of the game.">
<polygon fill="white" stroke="#666666" points="2960.25,-132 2821.25,-132 2821.25,-112 2960.25,-112 2960.25,-132"/>
<text text-anchor="middle" x="2890.75" y="-118.5" font-family="Helvetica,sans-Serif" font-size="10.00">Scenes/InGame/LevelTwo.h</text>
</a>
</g>
</g>
<!-- Node1&#45;&gt;Node40 -->
<g id="edge40_Node000001_Node000040" class="edge">
<title>Node1&#45;&gt;Node40</title>
<g id="a_edge40_Node000001_Node000040"><a xlink:title=" ">
<path fill="none" stroke="#63b8ff" d="M2890.75,-167.59C2890.75,-161.01 2890.75,-151.96 2890.75,-143.73"/>
<polygon fill="#63b8ff" stroke="#63b8ff" points="2894.25,-143.81 2890.75,-133.81 2887.25,-143.81 2894.25,-143.81"/>
</a>
</g>
</g>
<!-- Node41 -->
<g id="Node000041" class="node">
<title>Node41</title>
<g id="a_Node000041"><a xlink:href="_main_menu_8h.html" target="_top" xlink:title=" ">
<polygon fill="white" stroke="#666666" points="3131.38,-132 2978.12,-132 2978.12,-112 3131.38,-112 3131.38,-132"/>
<text text-anchor="middle" x="3054.75" y="-118.5" font-family="Helvetica,sans-Serif" font-size="10.00">Scenes/MainMenu/MainMenu.h</text>
</a>
</g>
</g>
<!-- Node1&#45;&gt;Node41 -->
<g id="edge41_Node000001_Node000041" class="edge">
<title>Node1&#45;&gt;Node41</title>
<g id="a_edge41_Node000001_Node000041"><a xlink:title=" ">
<path fill="none" stroke="#63b8ff" d="M2919.32,-167.59C2945.85,-158.86 2985.59,-145.77 3015.17,-136.03"/>
<polygon fill="#63b8ff" stroke="#63b8ff" points="3016.12,-139.4 3024.52,-132.95 3013.93,-132.76 3016.12,-139.4"/>
</a>
</g>
</g>
<!-- Node42 -->
<g id="Node000042" class="node">
<title>Node42</title>
<g id="a_Node000042"><a xlink:href="_game_over_8h.html" target="_top" xlink:title="Contains the GameOver class for managing the game over state and restart functionality.">
<polygon fill="white" stroke="#666666" points="3307.62,-132 3149.88,-132 3149.88,-112 3307.62,-112 3307.62,-132"/>
<text text-anchor="middle" x="3228.75" y="-118.5" font-family="Helvetica,sans-Serif" font-size="10.00">Scenes/GameOver/GameOver.h</text>
</a>
</g>
</g>
<!-- Node1&#45;&gt;Node42 -->
<g id="edge42_Node000001_Node000042" class="edge">
<title>Node1&#45;&gt;Node42</title>
<g id="a_edge42_Node000001_Node000042"><a xlink:title=" ">
<path fill="none" stroke="#63b8ff" d="M2950.01,-167.53C3008.12,-158.25 3096.71,-144.09 3158.37,-134.24"/>
<polygon fill="#63b8ff" stroke="#63b8ff" points="3158.74,-137.73 3168.06,-132.7 3157.63,-130.82 3158.74,-137.73"/>
</a>
</g>
</g>
<!-- Node43 -->
<g id="Node000043" class="node">
<title>Node43</title>
<g id="a_Node000043"><a xlink:href="_credits_8h.html" target="_top" xlink:title=" ">
<polygon fill="white" stroke="#666666" points="3451.88,-132 3325.62,-132 3325.62,-112 3451.88,-112 3451.88,-132"/>
<text text-anchor="middle" x="3388.75" y="-118.5" font-family="Helvetica,sans-Serif" font-size="10.00">Scenes/Credits/Credits.h</text>
</a>
</g>
</g>
<!-- Node1&#45;&gt;Node43 -->
<g id="edge43_Node000001_Node000043" class="edge">
<title>Node1&#45;&gt;Node43</title>
<g id="a_edge43_Node000001_Node000043"><a xlink:title=" ">
<path fill="none" stroke="#63b8ff" d="M2980.15,-168.06C3063.78,-159.58 3192.49,-146.23 3313.82,-132.32"/>
<polygon fill="#63b8ff" stroke="#63b8ff" points="3314.12,-135.81 3323.65,-131.19 3313.32,-128.86 3314.12,-135.81"/>
</a>
</g>
</g>
<!-- Node44 -->
<g id="Node000044" class="node">
<title>Node44</title>
<g id="a_Node000044"><a xlink:href="_input_manager_8h.html" target="_top" xlink:title="Contains the KeyBind enum and InputManager singleton class.">
<polygon fill="white" stroke="#666666" points="3623.38,-132 3470.12,-132 3470.12,-112 3623.38,-112 3623.38,-132"/>
<text text-anchor="middle" x="3546.75" y="-118.5" font-family="Helvetica,sans-Serif" font-size="10.00">Core/Managers/InputManager.h</text>
</a>
</g>
</g>
<!-- Node1&#45;&gt;Node44 -->
<g id="edge44_Node000001_Node000044" class="edge">
<title>Node1&#45;&gt;Node44</title>
<g id="a_edge44_Node000001_Node000044"><a xlink:title=" ">
<path fill="none" stroke="#63b8ff" d="M2980.16,-170.65C3090.09,-162.68 3282.68,-148.21 3458.57,-132.18"/>
<polygon fill="#63b8ff" stroke="#63b8ff" points="3458.72,-135.68 3468.36,-131.28 3458.08,-128.71 3458.72,-135.68"/>
</a>
</g>
</g>
<!-- Node3 -->
<g id="Node000003" class="node">
<title>Node3</title>
<g id="a_Node000003"><a xlink:title=" ">
<polygon fill="#e0e0e0" stroke="#999999" points="53.5,-76 0,-76 0,-56 53.5,-56 53.5,-76"/>
<text text-anchor="middle" x="26.75" y="-62.5" font-family="Helvetica,sans-Serif" font-size="10.00">iostream</text>
</a>
</g>
</g>
<!-- Node2&#45;&gt;Node3 -->
<g id="edge2_Node000002_Node000003" class="edge">
<title>Node2&#45;&gt;Node3</title>
<g id="a_edge2_Node000002_Node000003"><a xlink:title=" ">
<path fill="none" stroke="#63b8ff" d="M1053.01,-120.56C917.44,-118.14 284.53,-105.51 64.84,-75.93"/>
<polygon fill="#63b8ff" stroke="#63b8ff" points="65.65,-72.51 55.26,-74.58 64.67,-79.44 65.65,-72.51"/>
</a>
</g>
</g>
<!-- Node4 -->
<g id="Node000004" class="node">
<title>Node4</title>
<g id="a_Node000004"><a xlink:title=" ">
<polygon fill="#e0e0e0" stroke="#999999" points="111.75,-76 71.75,-76 71.75,-56 111.75,-56 111.75,-76"/>
<text text-anchor="middle" x="91.75" y="-62.5" font-family="Helvetica,sans-Serif" font-size="10.00">string</text>
</a>
</g>
</g>
<!-- Node2&#45;&gt;Node4 -->
<g id="edge3_Node000002_Node000004" class="edge">
<title>Node2&#45;&gt;Node4</title>
<g id="a_edge3_Node000002_Node000004"><a xlink:title=" ">
<path fill="none" stroke="#63b8ff" d="M1052.74,-120.64C921.53,-118.67 330.75,-108.26 123.58,-75.74"/>
<polygon fill="#63b8ff" stroke="#63b8ff" points="124.18,-72.29 113.74,-74.12 123.04,-79.2 124.18,-72.29"/>
</a>
</g>
</g>
<!-- Node5 -->
<g id="Node000005" class="node">
<title>Node5</title>
<g id="a_Node000005"><a xlink:title=" ">
<polygon fill="#e0e0e0" stroke="#999999" points="173.25,-76 130.25,-76 130.25,-56 173.25,-56 173.25,-76"/>
<text text-anchor="middle" x="151.75" y="-62.5" font-family="Helvetica,sans-Serif" font-size="10.00">vector</text>
</a>
</g>
</g>
<!-- Node2&#45;&gt;Node5 -->
<g id="edge4_Node000002_Node000005" class="edge">
<title>Node2&#45;&gt;Node5</title>
<g id="a_edge4_Node000002_Node000005"><a xlink:title=" ">
<path fill="none" stroke="#63b8ff" d="M1052.73,-120.51C926.75,-118.01 378.71,-105.7 184.78,-75.84"/>
<polygon fill="#63b8ff" stroke="#63b8ff" points="185.54,-72.42 175.11,-74.27 184.43,-79.33 185.54,-72.42"/>
</a>
</g>
</g>
<!-- Node6 -->
<g id="Node000006" class="node">
<title>Node6</title>
<g id="a_Node000006"><a xlink:title=" ">
<polygon fill="#e0e0e0" stroke="#999999" points="226.12,-76 191.38,-76 191.38,-56 226.12,-56 226.12,-76"/>
<text text-anchor="middle" x="208.75" y="-62.5" font-family="Helvetica,sans-Serif" font-size="10.00">map</text>
</a>
</g>
</g>
<!-- Node2&#45;&gt;Node6 -->
<g id="edge5_Node000002_Node000006" class="edge">
<title>Node2&#45;&gt;Node6</title>
<g id="a_edge5_Node000002_Node000006"><a xlink:title=" ">
<path fill="none" stroke="#63b8ff" d="M1053.03,-120.56C932.3,-118.33 420.42,-107.32 237.86,-75.75"/>
<polygon fill="#63b8ff" stroke="#63b8ff" points="238.54,-72.31 228.07,-73.96 237.28,-79.2 238.54,-72.31"/>
</a>
</g>
</g>
<!-- Node7 -->
<g id="Node000007" class="node">
<title>Node7</title>
<g id="a_Node000007"><a xlink:title=" ">
<polygon fill="#e0e0e0" stroke="#999999" points="327.12,-76 244.38,-76 244.38,-56 327.12,-56 327.12,-76"/>
<text text-anchor="middle" x="285.75" y="-62.5" font-family="Helvetica,sans-Serif" font-size="10.00">unordered_map</text>
</a>
</g>
</g>
<!-- Node2&#45;&gt;Node7 -->
<g id="edge6_Node000002_Node000007" class="edge">
<title>Node2&#45;&gt;Node7</title>
<g id="a_edge6_Node000002_Node000007"><a xlink:title=" ">
<path fill="none" stroke="#63b8ff" d="M1052.66,-120.53C958.06,-118.59 624.11,-109.73 338.84,-76.24"/>
<polygon fill="#63b8ff" stroke="#63b8ff" points="339.28,-72.77 328.94,-75.06 338.46,-79.72 339.28,-72.77"/>
</a>
</g>
</g>
<!-- Node8 -->
<g id="Node000008" class="node">
<title>Node8</title>
<g id="a_Node000008"><a xlink:title=" ">
<polygon fill="#e0e0e0" stroke="#999999" points="422.5,-76 345,-76 345,-56 422.5,-56 422.5,-76"/>
<text text-anchor="middle" x="383.75" y="-62.5" font-family="Helvetica,sans-Serif" font-size="10.00">unordered_set</text>
</a>
</g>
</g>
<!-- Node2&#45;&gt;Node8 -->
<g id="edge7_Node000002_Node000008" class="edge">
<title>Node2&#45;&gt;Node8</title>
<g id="a_edge7_Node000002_Node000008"><a xlink:title=" ">
<path fill="none" stroke="#63b8ff" d="M1052.71,-120.31C966.15,-117.79 680.03,-107.57 434.23,-76.32"/>
<polygon fill="#63b8ff" stroke="#63b8ff" points="434.8,-72.87 424.43,-75.06 433.9,-79.81 434.8,-72.87"/>
</a>
</g>
</g>
<!-- Node9 -->
<g id="Node000009" class="node">
<title>Node9</title>
<g id="a_Node000009"><a xlink:title=" ">
<polygon fill="#e0e0e0" stroke="#999999" points="491.38,-76 440.12,-76 440.12,-56 491.38,-56 491.38,-76"/>
<text text-anchor="middle" x="465.75" y="-62.5" font-family="Helvetica,sans-Serif" font-size="10.00">memory</text>
</a>
</g>
</g>
<!-- Node2&#45;&gt;Node9 -->
<g id="edge8_Node000002_Node000009" class="edge">
<title>Node2&#45;&gt;Node9</title>
<g id="a_edge8_Node000002_Node000009"><a xlink:title=" ">
<path fill="none" stroke="#63b8ff" d="M1052.63,-120.58C972.11,-118.95 720.54,-111.33 502.95,-76.06"/>
<polygon fill="#63b8ff" stroke="#63b8ff" points="503.57,-72.61 493.13,-74.44 502.43,-79.52 503.57,-72.61"/>
</a>
</g>
</g>
<!-- Node10 -->
<g id="Node000010" class="node">
<title>Node10</title>
<g id="a_Node000010"><a xlink:title=" ">
<polygon fill="#e0e0e0" stroke="#999999" points="565.62,-76 509.88,-76 509.88,-56 565.62,-56 565.62,-76"/>
<text text-anchor="middle" x="537.75" y="-62.5" font-family="Helvetica,sans-Serif" font-size="10.00">algorithm</text>
</a>
</g>
</g>
<!-- Node2&#45;&gt;Node10 -->
<g id="edge9_Node000002_Node000010" class="edge">
<title>Node2&#45;&gt;Node10</title>
<g id="a_edge9_Node000002_Node000010"><a xlink:title=" ">
<path fill="none" stroke="#63b8ff" d="M1052.88,-120.06C979.71,-117.1 764.94,-106.44 577.13,-76.15"/>
<polygon fill="#63b8ff" stroke="#63b8ff" points="577.87,-72.73 567.44,-74.56 576.74,-79.63 577.87,-72.73"/>
</a>
</g>
</g>
<!-- Node11 -->
<g id="Node000011" class="node">
<title>Node11</title>
<g id="a_Node000011"><a xlink:title=" ">
<polygon fill="#e0e0e0" stroke="#999999" points="621.62,-76 583.88,-76 583.88,-56 621.62,-56 621.62,-76"/>
<text text-anchor="middle" x="602.75" y="-62.5" font-family="Helvetica,sans-Serif" font-size="10.00">array</text>
</a>
</g>
</g>
<!-- Node2&#45;&gt;Node11 -->
<g id="edge10_Node000002_Node000011" class="edge">
<title>Node2&#45;&gt;Node11</title>
<g id="a_edge10_Node000002_Node000011"><a xlink:title=" ">
<path fill="none" stroke="#63b8ff" d="M1052.7,-120.3C984.85,-118.07 797.07,-109.33 632.68,-75.97"/>
<polygon fill="#63b8ff" stroke="#63b8ff" points="633.87,-72.64 623.37,-74.05 632.45,-79.5 633.87,-72.64"/>
</a>
</g>
</g>
<!-- Node12 -->
<g id="Node000012" class="node">
<title>Node12</title>
<g id="a_Node000012"><a xlink:title=" ">
<polygon fill="#e0e0e0" stroke="#999999" points="682.25,-76 639.25,-76 639.25,-56 682.25,-56 682.25,-76"/>
<text text-anchor="middle" x="660.75" y="-62.5" font-family="Helvetica,sans-Serif" font-size="10.00">cmath</text>
</a>
</g>
</g>
<!-- Node2&#45;&gt;Node12 -->
<g id="edge11_Node000002_Node000012" class="edge">
<title>Node2&#45;&gt;Node12</title>
<g id="a_edge11_Node000002_Node000012"><a xlink:title=" ">
<path fill="none" stroke="#63b8ff" d="M1052.7,-119.48C991.61,-115.58 834.28,-103.72 693.61,-76.04"/>
<polygon fill="#63b8ff" stroke="#63b8ff" points="694.63,-72.68 684.14,-74.15 693.25,-79.54 694.63,-72.68"/>
</a>
</g>
</g>
<!-- Node13 -->
<g id="Node000013" class="node">
<title>Node13</title>
<g id="a_Node000013"><a xlink:title=" ">
<polygon fill="#e0e0e0" stroke="#999999" points="743.25,-76 700.25,-76 700.25,-56 743.25,-56 743.25,-76"/>
<text text-anchor="middle" x="721.75" y="-62.5" font-family="Helvetica,sans-Serif" font-size="10.00">thread</text>
</a>
</g>
</g>
<!-- Node2&#45;&gt;Node13 -->
<g id="edge12_Node000002_Node000013" class="edge">
<title>Node2&#45;&gt;Node13</title>
<g id="a_edge12_Node000002_Node000013"><a xlink:title=" ">
<path fill="none" stroke="#63b8ff" d="M1052.75,-118.71C998.96,-113.69 871.42,-100.37 754.9,-76.17"/>
<polygon fill="#63b8ff" stroke="#63b8ff" points="755.65,-72.75 745.15,-74.1 754.21,-79.6 755.65,-72.75"/>
</a>
</g>
</g>
<!-- Node14 -->
<g id="Node000014" class="node">
<title>Node14</title>
<g id="a_Node000014"><a xlink:title=" ">
<polygon fill="#e0e0e0" stroke="#999999" points="810.25,-76 761.25,-76 761.25,-56 810.25,-56 810.25,-76"/>
<text text-anchor="middle" x="785.75" y="-62.5" font-family="Helvetica,sans-Serif" font-size="10.00">fstream</text>
</a>
</g>
</g>
<!-- Node2&#45;&gt;Node14 -->
<g id="edge13_Node000002_Node000014" class="edge">
<title>Node2&#45;&gt;Node14</title>
<g id="a_edge13_Node000002_Node000014"><a xlink:title=" ">
<path fill="none" stroke="#63b8ff" d="M1052.87,-117.26C1007.92,-110.61 912.32,-95.76 821.61,-76.24"/>
<polygon fill="#63b8ff" stroke="#63b8ff" points="822.57,-72.87 812.05,-74.16 821.08,-79.71 822.57,-72.87"/>
</a>
</g>
</g>
<!-- Node15 -->
<g id="Node000015" class="node">
<title>Node15</title>
<g id="a_Node000015"><a xlink:title=" ">
<polygon fill="#e0e0e0" stroke="#999999" points="876.88,-76 828.62,-76 828.62,-56 876.88,-56 876.88,-76"/>
<text text-anchor="middle" x="852.75" y="-62.5" font-family="Helvetica,sans-Serif" font-size="10.00">istream</text>
</a>
</g>
</g>
<!-- Node2&#45;&gt;Node15 -->
<g id="edge14_Node000002_Node000015" class="edge">
<title>Node2&#45;&gt;Node15</title>
<g id="a_edge14_Node000002_Node000015"><a xlink:title=" ">
<path fill="none" stroke="#63b8ff" d="M1052.77,-115.26C1017.59,-107.43 952.62,-92.71 888.01,-76.51"/>
<polygon fill="#63b8ff" stroke="#63b8ff" points="889.25,-73.21 878.7,-74.16 887.54,-80 889.25,-73.21"/>
</a>
</g>
</g>
<!-- Node16 -->
<g id="Node000016" class="node">
<title>Node16</title>
<g id="a_Node000016"><a xlink:title=" ">
<polygon fill="#e0e0e0" stroke="#999999" points="946.38,-76 895.12,-76 895.12,-56 946.38,-56 946.38,-76"/>
<text text-anchor="middle" x="920.75" y="-62.5" font-family="Helvetica,sans-Serif" font-size="10.00">ostream</text>
</a>
</g>
</g>
<!-- Node2&#45;&gt;Node16 -->
<g id="edge15_Node000002_Node000016" class="edge">
<title>Node2&#45;&gt;Node16</title>
<g id="a_edge15_Node000002_Node000016"><a xlink:title=" ">
<path fill="none" stroke="#63b8ff" d="M1052.66,-112.08C1026.62,-103.18 986.4,-89.44 957.21,-79.46"/>
<polygon fill="#63b8ff" stroke="#63b8ff" points="958.64,-76.25 948.05,-76.33 956.38,-82.88 958.64,-76.25"/>
</a>
</g>
</g>
<!-- Node17 -->
<g id="Node000017" class="node">
<title>Node17</title>
<g id="a_Node000017"><a xlink:title=" ">
<polygon fill="#e0e0e0" stroke="#999999" points="1004.75,-76 964.75,-76 964.75,-56 1004.75,-56 1004.75,-76"/>
<text text-anchor="middle" x="984.75" y="-62.5" font-family="Helvetica,sans-Serif" font-size="10.00">bitset</text>
</a>
</g>
</g>
<!-- Node2&#45;&gt;Node17 -->
<g id="edge16_Node000002_Node000017" class="edge">
<title>Node2&#45;&gt;Node17</title>
<g id="a_edge16_Node000002_Node000017"><a xlink:title=" ">
<path fill="none" stroke="#63b8ff" d="M1062.38,-111.59C1048.18,-103.44 1027.37,-91.48 1010.87,-82"/>
<polygon fill="#63b8ff" stroke="#63b8ff" points="1012.98,-79.18 1002.56,-77.23 1009.49,-85.25 1012.98,-79.18"/>
</a>
</g>
</g>
<!-- Node18 -->
<g id="Node000018" class="node">
<title>Node18</title>
<g id="a_Node000018"><a xlink:title=" ">
<polygon fill="#e0e0e0" stroke="#999999" points="1068.38,-76 1023.12,-76 1023.12,-56 1068.38,-56 1068.38,-76"/>
<text text-anchor="middle" x="1045.75" y="-62.5" font-family="Helvetica,sans-Serif" font-size="10.00">cstdint</text>
</a>
</g>
</g>
<!-- Node2&#45;&gt;Node18 -->
<g id="edge17_Node000002_Node000018" class="edge">
<title>Node2&#45;&gt;Node18</title>
<g id="a_edge17_Node000002_Node000018"><a xlink:title=" ">
<path fill="none" stroke="#63b8ff" d="M1073,-111.59C1068.7,-104.55 1062.66,-94.67 1057.36,-86"/>
<polygon fill="#63b8ff" stroke="#63b8ff" points="1060.42,-84.3 1052.22,-77.59 1054.45,-87.95 1060.42,-84.3"/>
</a>
</g>
</g>
<!-- Node19 -->
<g id="Node000019" class="node">
<title>Node19</title>
<g id="a_Node000019"><a xlink:title=" ">
<polygon fill="#e0e0e0" stroke="#999999" points="1134.88,-76 1086.62,-76 1086.62,-56 1134.88,-56 1134.88,-76"/>
<text text-anchor="middle" x="1110.75" y="-62.5" font-family="Helvetica,sans-Serif" font-size="10.00">random</text>
</a>
</g>
</g>
<!-- Node2&#45;&gt;Node19 -->
<g id="edge18_Node000002_Node000019" class="edge">
<title>Node2&#45;&gt;Node19</title>
<g id="a_edge18_Node000002_Node000019"><a xlink:title=" ">
<path fill="none" stroke="#63b8ff" d="M1084.32,-111.59C1088.5,-104.55 1094.35,-94.67 1099.49,-86"/>
<polygon fill="#63b8ff" stroke="#63b8ff" points="1102.38,-87.99 1104.47,-77.6 1096.36,-84.42 1102.38,-87.99"/>
</a>
</g>
</g>
<!-- Node20 -->
<g id="Node000020" class="node">
<title>Node20</title>
<g id="a_Node000020"><a xlink:title=" ">
<polygon fill="#e0e0e0" stroke="#999999" points="1210.75,-76 1152.75,-76 1152.75,-56 1210.75,-56 1210.75,-76"/>
<text text-anchor="middle" x="1181.75" y="-62.5" font-family="Helvetica,sans-Serif" font-size="10.00">functional</text>
</a>
</g>
</g>
<!-- Node2&#45;&gt;Node20 -->
<g id="edge19_Node000002_Node000020" class="edge">
<title>Node2&#45;&gt;Node20</title>
<g id="a_edge19_Node000002_Node000020"><a xlink:title=" ">
<path fill="none" stroke="#63b8ff" d="M1096.69,-111.59C1112.4,-103.36 1135.48,-91.26 1153.64,-81.74"/>
<polygon fill="#63b8ff" stroke="#63b8ff" points="1155.1,-84.93 1162.33,-77.18 1151.85,-78.73 1155.1,-84.93"/>
</a>
</g>
</g>
<!-- Node21 -->
<g id="Node000021" class="node">
<title>Node21</title>
<g id="a_Node000021"><a xlink:title=" ">
<polygon fill="#e0e0e0" stroke="#999999" points="1260.62,-76 1228.88,-76 1228.88,-56 1260.62,-56 1260.62,-76"/>
<text text-anchor="middle" x="1244.75" y="-62.5" font-family="Helvetica,sans-Serif" font-size="10.00">any</text>
</a>
</g>
</g>
<!-- Node2&#45;&gt;Node21 -->
<g id="edge20_Node000002_Node000021" class="edge">
<title>Node2&#45;&gt;Node21</title>
<g id="a_edge20_Node000002_Node000021"><a xlink:title=" ">
<path fill="none" stroke="#63b8ff" d="M1104.83,-112.99C1131.1,-104.86 1173.02,-91.69 1217.82,-76.57"/>
<polygon fill="#63b8ff" stroke="#63b8ff" points="1218.86,-79.91 1227.21,-73.38 1216.61,-73.28 1218.86,-79.91"/>
</a>
</g>
</g>
<!-- Node22 -->
<g id="Node000022" class="node">
<title>Node22</title>
<g id="a_Node000022"><a xlink:title=" ">
<polygon fill="#e0e0e0" stroke="#999999" points="1381.25,-76 1278.25,-76 1278.25,-56 1381.25,-56 1381.25,-76"/>
<text text-anchor="middle" x="1329.75" y="-62.5" font-family="Helvetica,sans-Serif" font-size="10.00">SFML/Graphics.hpp</text>
</a>
</g>
</g>
<!-- Node2&#45;&gt;Node22 -->
<g id="edge21_Node000002_Node000022" class="edge">
<title>Node2&#45;&gt;Node22</title>
<g id="a_edge21_Node000002_Node000022"><a xlink:title=" ">
<path fill="none" stroke="#63b8ff" d="M1104.67,-115.42C1144.57,-106.84 1221.98,-90.19 1274.76,-78.83"/>
<polygon fill="#63b8ff" stroke="#63b8ff" points="1275.43,-82.27 1284.47,-76.74 1273.96,-75.42 1275.43,-82.27"/>
</a>
</g>
</g>
<!-- Node23 -->
<g id="Node000023" class="node">
<title>Node23</title>
<g id="a_Node000023"><a xlink:title=" ">
<polygon fill="#e0e0e0" stroke="#999999" points="1498,-76 1399.5,-76 1399.5,-56 1498,-56 1498,-76"/>
<text text-anchor="middle" x="1448.75" y="-62.5" font-family="Helvetica,sans-Serif" font-size="10.00">SFML/Window.hpp</text>
</a>
</g>
</g>
<!-- Node2&#45;&gt;Node23 -->
<g id="edge22_Node000002_Node000023" class="edge">
<title>Node2&#45;&gt;Node23</title>
<g id="a_edge22_Node000002_Node000023"><a xlink:title=" ">
<path fill="none" stroke="#63b8ff" d="M1104.65,-117.36C1156.41,-110.07 1276.59,-93.03 1387.98,-76.4"/>
<polygon fill="#63b8ff" stroke="#63b8ff" points="1388.21,-79.91 1397.58,-74.97 1387.18,-72.98 1388.21,-79.91"/>
</a>
</g>
</g>
<!-- Node24 -->
<g id="Node000024" class="node">
<title>Node24</title>
<g id="a_Node000024"><a xlink:title=" ">
<polygon fill="#e0e0e0" stroke="#999999" points="1605.12,-76 1516.38,-76 1516.38,-56 1605.12,-56 1605.12,-76"/>
<text text-anchor="middle" x="1560.75" y="-62.5" font-family="Helvetica,sans-Serif" font-size="10.00">SFML/Audio.hpp</text>
</a>
</g>
</g>
<!-- Node2&#45;&gt;Node24 -->
<g id="edge23_Node000002_Node000024" class="edge">
<title>Node2&#45;&gt;Node24</title>
<g id="a_edge23_Node000002_Node000024"><a xlink:title=" ">
<path fill="none" stroke="#63b8ff" d="M1104.87,-118.81C1170.25,-113.2 1346.46,-97.37 1504.64,-76.21"/>
<polygon fill="#63b8ff" stroke="#63b8ff" points="1505.05,-79.68 1514.49,-74.88 1504.11,-72.75 1505.05,-79.68"/>
</a>
</g>
</g>
<!-- Node25 -->
<g id="Node000025" class="node">
<title>Node25</title>
<g id="a_Node000025"><a xlink:title=" ">
<polygon fill="#e0e0e0" stroke="#999999" points="1720.62,-76 1622.88,-76 1622.88,-56 1720.62,-56 1720.62,-76"/>
<text text-anchor="middle" x="1671.75" y="-62.5" font-family="Helvetica,sans-Serif" font-size="10.00">SFML/System.hpp</text>
</a>
</g>
</g>
<!-- Node2&#45;&gt;Node25 -->
<g id="edge24_Node000002_Node000025" class="edge">
<title>Node2&#45;&gt;Node25</title>
<g id="a_edge24_Node000002_Node000025"><a xlink:title=" ">
<path fill="none" stroke="#63b8ff" d="M1104.7,-119.46C1180.77,-114.83 1409.98,-99.88 1611.05,-76.24"/>
<polygon fill="#63b8ff" stroke="#63b8ff" points="1611.4,-79.73 1620.92,-75.07 1610.58,-72.78 1611.4,-79.73"/>
</a>
</g>
</g>
<!-- Node26 -->
<g id="Node000026" class="node">
<title>Node26</title>
<g id="a_Node000026"><a xlink:href="_log_8h.html" target="_top" xlink:title="Provides a lightweight static logging utility for console output.">
<polygon fill="white" stroke="#666666" points="1831,-76 1738.5,-76 1738.5,-56 1831,-56 1831,-76"/>
<text text-anchor="middle" x="1784.75" y="-62.5" font-family="Helvetica,sans-Serif" font-size="10.00">Core/Utility/Log.h</text>
</a>
</g>
</g>
<!-- Node2&#45;&gt;Node26 -->
<g id="edge25_Node000002_Node000026" class="edge">
<title>Node2&#45;&gt;Node26</title>
<g id="a_edge25_Node000002_Node000026"><a xlink:title=" ">
<path fill="none" stroke="#63b8ff" d="M1104.57,-120.08C1191.06,-116.82 1478.63,-104.51 1726.87,-76.23"/>
<polygon fill="#63b8ff" stroke="#63b8ff" points="1727.24,-79.71 1736.78,-75.09 1726.44,-72.76 1727.24,-79.71"/>
</a>
</g>
</g>
<!-- Node27 -->
<g id="Node000027" class="node">
<title>Node27</title>
<g id="a_Node000027"><a xlink:href="_vector2_8h.html" target="_top" xlink:title="A simple 2D vector class based on SFML&#39;s sf::Vector2.">
<polygon fill="white" stroke="#666666" points="1958.62,-76 1848.88,-76 1848.88,-56 1958.62,-56 1958.62,-76"/>
<text text-anchor="middle" x="1903.75" y="-62.5" font-family="Helvetica,sans-Serif" font-size="10.00">Core/Utility/Vector2.h</text>
</a>
</g>
</g>
<!-- Node2&#45;&gt;Node27 -->
<g id="edge26_Node000002_Node000027" class="edge">
<title>Node2&#45;&gt;Node27</title>
<g id="a_edge26_Node000002_Node000027"><a xlink:title=" ">
<path fill="none" stroke="#63b8ff" d="M1104.76,-120.22C1200.64,-117.2 1543.47,-104.98 1837.32,-76.16"/>
<polygon fill="#63b8ff" stroke="#63b8ff" points="1837.51,-79.66 1847.12,-75.19 1836.82,-72.69 1837.51,-79.66"/>
</a>
</g>
</g>
<!-- Node28 -->
<g id="Node000028" class="node">
<title>Node28</title>
<g id="a_Node000028"><a xlink:href="_timer_8h.html" target="_top" xlink:title="A simple timer utility class.">
<polygon fill="white" stroke="#666666" points="2078.5,-76 1977,-76 1977,-56 2078.5,-56 2078.5,-76"/>
<text text-anchor="middle" x="2027.75" y="-62.5" font-family="Helvetica,sans-Serif" font-size="10.00">Core/Utility/Timer.h</text>
</a>
</g>
</g>
<!-- Node2&#45;&gt;Node28 -->
<g id="edge27_Node000002_Node000028" class="edge">
<title>Node2&#45;&gt;Node28</title>
<g id="a_edge27_Node000002_Node000028"><a xlink:title=" ">
<path fill="none" stroke="#63b8ff" d="M1104.64,-120.62C1210.21,-118.87 1618.63,-110.23 1965.45,-76.12"/>
<polygon fill="#63b8ff" stroke="#63b8ff" points="1965.62,-79.62 1975.22,-75.15 1964.93,-72.66 1965.62,-79.62"/>
</a>
</g>
</g>
<!-- Node29 -->
<g id="Node000029" class="node">
<title>Node29</title>
<g id="a_Node000029"><a xlink:href="_random_gen_8h.html" target="_top" xlink:title=" ">
<polygon fill="white" stroke="#666666" points="2228.5,-76 2097,-76 2097,-56 2228.5,-56 2228.5,-76"/>
<text text-anchor="middle" x="2162.75" y="-62.5" font-family="Helvetica,sans-Serif" font-size="10.00">Core/Utility/RandomGen.h</text>
</a>
</g>
</g>
<!-- Node2&#45;&gt;Node29 -->
<g id="edge28_Node000002_Node000029" class="edge">
<title>Node2&#45;&gt;Node29</title>
<g id="a_edge28_Node000002_Node000029"><a xlink:title=" ">
<path fill="none" stroke="#63b8ff" d="M1104.52,-120.56C1218.41,-118.47 1688.1,-108.3 2085.1,-76.15"/>
<polygon fill="#63b8ff" stroke="#63b8ff" points="2085.33,-79.65 2095.02,-75.34 2084.76,-72.67 2085.33,-79.65"/>
</a>
</g>
</g>
<!-- Node30 -->
<g id="Node000030" class="node">
<title>Node30</title>
<g id="a_Node000030"><a xlink:href="_scene_manager_8h.html" target="_top" xlink:title="Contains the SceneID enum, IGameScene interface, and SceneManager class.">
<polygon fill="white" stroke="#666666" points="2405.38,-76 2246.12,-76 2246.12,-56 2405.38,-56 2405.38,-76"/>
<text text-anchor="middle" x="2325.75" y="-62.5" font-family="Helvetica,sans-Serif" font-size="10.00">Core/Managers/SceneManager.h</text>
</a>
</g>
</g>
<!-- Node2&#45;&gt;Node30 -->
<g id="edge29_Node000002_Node000030" class="edge">
<title>Node2&#45;&gt;Node30</title>
<g id="a_edge29_Node000002_Node000030"><a xlink:title=" ">
<path fill="none" stroke="#63b8ff" d="M1104.48,-120.6C1228.3,-118.56 1775.37,-108.13 2234.5,-76.19"/>
<polygon fill="#63b8ff" stroke="#63b8ff" points="2234.43,-79.7 2244.16,-75.51 2233.94,-72.72 2234.43,-79.7"/>
</a>
</g>
</g>
<!-- Node31 -->
<g id="Node000031" class="node">
<title>Node31</title>
<g id="a_Node000031"><a xlink:href="_cursor_8h.html" target="_top" xlink:title="Singleton class that manages the in&#45;game cursor.">
<polygon fill="white" stroke="#666666" points="2512.5,-76 2423,-76 2423,-56 2512.5,-56 2512.5,-76"/>
<text text-anchor="middle" x="2467.75" y="-62.5" font-family="Helvetica,sans-Serif" font-size="10.00">Entities/Cursor.h</text>
</a>
</g>
</g>
<!-- Node2&#45;&gt;Node31 -->
<g id="edge30_Node000002_Node000031" class="edge">
<title>Node2&#45;&gt;Node31</title>
<g id="a_edge30_Node000002_Node000031"><a xlink:title=" ">
<path fill="none" stroke="#63b8ff" d="M1104.71,-120.6C1265.14,-118.08 2123.84,-103.52 2411.48,-76.18"/>
<polygon fill="#63b8ff" stroke="#63b8ff" points="2411.58,-79.68 2421.19,-75.22 2410.9,-72.72 2411.58,-79.68"/>
</a>
</g>
</g>
<!-- Node32 -->
<g id="Node000032" class="node">
<title>Node32</title>
<g id="a_Node000032"><a xlink:title=" ">
<polygon fill="#e0e0e0" stroke="#999999" points="2593,-76 2530.5,-76 2530.5,-56 2593,-56 2593,-76"/>
<text text-anchor="middle" x="2561.75" y="-62.5" font-family="Helvetica,sans-Serif" font-size="10.00">windows.h</text>
</a>
</g>
</g>
<!-- Node2&#45;&gt;Node32 -->
<g id="edge31_Node000002_Node000032" class="edge">
<title>Node2&#45;&gt;Node32</title>
<g id="a_edge31_Node000002_Node000032"><a xlink:title=" ">
<path fill="none" stroke="#63b8ff" d="M1104.86,-120.86C1273.29,-119.89 2208.99,-112.92 2519.2,-76.03"/>
<polygon fill="#63b8ff" stroke="#63b8ff" points="2519.41,-79.53 2528.9,-74.83 2518.55,-72.58 2519.41,-79.53"/>
</a>
</g>
</g>
<!-- Node33 -->
<g id="Node000033" class="node">
<title>Node33</title>
<g id="a_Node000033"><a xlink:title=" ">
<polygon fill="#e0e0e0" stroke="#999999" points="2662.38,-76 2611.12,-76 2611.12,-56 2662.38,-56 2662.38,-76"/>
<text text-anchor="middle" x="2636.75" y="-62.5" font-family="Helvetica,sans-Serif" font-size="10.00">sstream</text>
</a>
</g>
</g>
<!-- Node2&#45;&gt;Node33 -->
<g id="edge32_Node000002_Node000033" class="edge">
<title>Node2&#45;&gt;Node33</title>
<g id="a_edge32_Node000002_Node000033"><a xlink:title=" ">
<path fill="none" stroke="#63b8ff" d="M1104.61,-121.02C1277.81,-121.05 2272.11,-119.35 2599.52,-75.9"/>
<polygon fill="#63b8ff" stroke="#63b8ff" points="2599.96,-79.37 2609.39,-74.54 2599,-72.44 2599.96,-79.37"/>
</a>
</g>
</g>
<!-- Node37 -->
<g id="Node000037" class="node">
<title>Node37</title>
<g id="a_Node000037"><a xlink:href="_spaceship_8h.html" target="_top" xlink:title="Contains the Spaceship class and its related methods.">
<polygon fill="white" stroke="#666666" points="2786.75,-76 2680.75,-76 2680.75,-56 2786.75,-56 2786.75,-76"/>
<text text-anchor="middle" x="2733.75" y="-62.5" font-family="Helvetica,sans-Serif" font-size="10.00">Entities/Spaceship.h</text>
</a>
</g>
</g>
<!-- Node36&#45;&gt;Node37 -->
<g id="edge36_Node000036_Node000037" class="edge">
<title>Node36&#45;&gt;Node37</title>
<g id="a_edge36_Node000036_Node000037"><a xlink:title=" ">
<path fill="none" stroke="#63b8ff" d="M2733.75,-111.59C2733.75,-105.01 2733.75,-95.96 2733.75,-87.73"/>
<polygon fill="#63b8ff" stroke="#63b8ff" points="2737.25,-87.81 2733.75,-77.81 2730.25,-87.81 2737.25,-87.81"/>
</a>
</g>
</g>
<!-- Node39 -->
<g id="Node000039" class="node">
<title>Node39</title>
<g id="a_Node000039"><a xlink:href="_enemy_8h.html" target="_top" xlink:title="Contains the Enemy class and its related methods.">
<polygon fill="white" stroke="#666666" points="2894.88,-76 2804.62,-76 2804.62,-56 2894.88,-56 2894.88,-76"/>
<text text-anchor="middle" x="2849.75" y="-62.5" font-family="Helvetica,sans-Serif" font-size="10.00">Entities/Enemy.h</text>
</a>
</g>
</g>
<!-- Node36&#45;&gt;Node39 -->
<g id="edge38_Node000036_Node000039" class="edge">
<title>Node36&#45;&gt;Node39</title>
<g id="a_edge38_Node000036_Node000039"><a xlink:title=" ">
<path fill="none" stroke="#63b8ff" d="M2753.96,-111.59C2771.98,-103.21 2798.62,-90.8 2819.23,-81.21"/>
<polygon fill="#63b8ff" stroke="#63b8ff" points="2820.43,-84.51 2828.01,-77.12 2817.47,-78.17 2820.43,-84.51"/>
</a>
</g>
</g>
<!-- Node38 -->
<g id="Node000038" class="node">
<title>Node38</title>
<g id="a_Node000038"><a xlink:href="_projectile_8h.html" target="_top" xlink:title="Contains the Projectile class and its related methods.">
<polygon fill="white" stroke="#666666" points="2824.12,-20 2759.38,-20 2759.38,0 2824.12,0 2824.12,-20"/>
<text text-anchor="middle" x="2791.75" y="-6.5" font-family="Helvetica,sans-Serif" font-size="10.00">Projectile.h</text>
</a>
</g>
</g>
<!-- Node37&#45;&gt;Node38 -->
<g id="edge37_Node000037_Node000038" class="edge">
<title>Node37&#45;&gt;Node38</title>
<g id="a_edge37_Node000037_Node000038"><a xlink:title=" ">
<path fill="none" stroke="#63b8ff" d="M2743.85,-55.59C2752,-48.01 2763.68,-37.13 2773.47,-28.02"/>
<polygon fill="#63b8ff" stroke="#63b8ff" points="2775.72,-30.71 2780.66,-21.33 2770.95,-25.58 2775.72,-30.71"/>
</a>
</g>
</g>
<!-- Node39&#45;&gt;Node38 -->
<g id="edge39_Node000039_Node000038" class="edge">
<title>Node39&#45;&gt;Node38</title>
<g id="a_edge39_Node000039_Node000038"><a xlink:title=" ">
<path fill="none" stroke="#63b8ff" d="M2839.65,-55.59C2831.5,-48.01 2819.82,-37.13 2810.03,-28.02"/>
<polygon fill="#63b8ff" stroke="#63b8ff" points="2812.55,-25.58 2802.84,-21.33 2807.78,-30.71 2812.55,-25.58"/>
</a>
</g>
</g>
</g>
</svg>

<g id="navigator" transform="translate(0 0)" fill="#404254">
  <rect fill="#f2f5e9" fill-opacity="0.5" stroke="#606060" stroke-width=".5" x="0" y="0" width="60" height="60"/>
  <use id="zoomplus" xlink:href="#zoomPlus" x="17" y="9" onmousedown="handleZoom(evt,'in')"/>
  <use id="zoomminus" xlink:href="#zoomMin" x="42" y="9" onmousedown="handleZoom(evt,'out')"/>
  <use id="reset" xlink:href="#resetDef" x="30" y="36" onmousedown="handleReset()"/>
   <use id="arrowup" xlink:href="#arrowUp" x="0" y="0" onmousedown="handlePan(0,-1)"/>
  <use id="arrowright" xlink:href="#arrowRight" x="0" y="0" onmousedown="handlePan(1,0)"/>
  <use id="arrowdown" xlink:href="#arrowDown" x="0" y="0" onmousedown="handlePan(0,1)"/>
  <use id="arrowleft" xlink:href="#arrowLeft" x="0" y="0" onmousedown="handlePan(-1,0)"/>
</g>
<svg viewBox="0 0 15 15" width="100%" height="30px" preserveAspectRatio="xMaxYMin meet">
 <g id="arrow_out" transform="scale(0.3 0.3)">
  <a xlink:href="_game_instance_8cpp__incl_org.svg" target="_base">
   <rect id="button" ry="5" rx="5" y="6" x="6" height="38" width="38"
        fill="#f2f5e9" fill-opacity="0.5" stroke="#606060" stroke-width="1.0"/>
   <path id="arrow"
     d="M 11.500037,31.436501 C 11.940474,20.09759 22.043105,11.32322 32.158766,21.979434 L 37.068811,17.246167 C 37.068811,17.246167 37.088388,32 37.088388,32 L 22.160133,31.978069 C 22.160133,31.978069 26.997745,27.140456 26.997745,27.140456 C 18.528582,18.264221 13.291696,25.230495 11.500037,31.436501 z"
     style="fill:#404040;"/>
  </a>
 </g>
</svg>

<style type='text/css'>
<![CDATA[
[data-mouse-over-selected='false'] { opacity: 0.7; }
[data-mouse-over-selected='true']  { opacity: 1.0; }
]]>
</style>
<script type="application/ecmascript"><![CDATA[
document.addEventListener('DOMContentLoaded', (event) => {
  highlightEdges();
  highlightAdjacentNodes();
});
]]></script>
</svg>
