<?xml version="1.0" encoding="UTF-8" standalone="no"?>
<!DOCTYPE svg PUBLIC "-//W3C//DTD SVG 1.1//EN"
 "http://www.w3.org/Graphics/SVG/1.1/DTD/svg11.dtd">
<!-- Generated by graphviz version 12.2.0 (20241103.1931)
 -->
<!-- Title: include/MyLibrary/Core/Managers/InputManager.h Pages: 1 -->
<svg width="943pt" height="108pt"
 viewBox="0.00 0.00 942.75 108.00" xmlns="http://www.w3.org/2000/svg" xmlns:xlink="http://www.w3.org/1999/xlink">
<g id="graph0" class="graph" transform="scale(1 1) rotate(0) translate(4 104)">
<title>include/MyLibrary/Core/Managers/InputManager.h</title>
<!-- Node1 -->
<g id="Node000001" class="node">
<title>Node1</title>
<g id="a_Node000001"><a xlink:title="Contains the KeyBind enum and InputManager singleton class.">
<polygon fill="#999999" stroke="#666666" points="549.5,-100 417.25,-100 417.25,-68 549.5,-68 549.5,-100"/>
<text text-anchor="start" x="425.25" y="-86.5" font-family="Helvetica,sans-Serif" font-size="10.00">include/MyLibrary/Core</text>
<text text-anchor="middle" x="483.38" y="-74.5" font-family="Helvetica,sans-Serif" font-size="10.00">/Managers/InputManager.h</text>
</a>
</g>
</g>
<!-- Node2 -->
<g id="Node000002" class="node">
<title>Node2</title>
<g id="a_Node000002"><a xlink:href="_input_manager_8cpp.html" target="_top" xlink:title=" ">
<polygon fill="white" stroke="#666666" points="142.75,-32 0,-32 0,0 142.75,0 142.75,-32"/>
<text text-anchor="start" x="8" y="-18.5" font-family="Helvetica,sans-Serif" font-size="10.00">include/MyLibrary/Core</text>
<text text-anchor="middle" x="71.38" y="-6.5" font-family="Helvetica,sans-Serif" font-size="10.00">/Managers/InputManager.cpp</text>
</a>
</g>
</g>
<!-- Node1&#45;&gt;Node2 -->
<g id="edge1_Node000001_Node000002" class="edge">
<title>Node1&#45;&gt;Node2</title>
<g id="a_edge1_Node000001_Node000002"><a xlink:title=" ">
<path fill="none" stroke="#63b8ff" d="M405.71,-71.71C338.56,-61.79 238.94,-46.68 152.38,-32 149.27,-31.47 146.11,-30.93 142.91,-30.37"/>
<polygon fill="#63b8ff" stroke="#63b8ff" points="405.12,-75.16 415.53,-73.16 406.15,-68.24 405.12,-75.16"/>
</a>
</g>
</g>
<!-- Node3 -->
<g id="Node000003" class="node">
<title>Node3</title>
<g id="a_Node000003"><a xlink:href="_spaceship_8cpp.html" target="_top" xlink:title=" ">
<polygon fill="white" stroke="#666666" points="289.62,-32 161.12,-32 161.12,0 289.62,0 289.62,-32"/>
<text text-anchor="start" x="169.12" y="-18.5" font-family="Helvetica,sans-Serif" font-size="10.00">include/MyLibrary/Entities</text>
<text text-anchor="middle" x="225.38" y="-6.5" font-family="Helvetica,sans-Serif" font-size="10.00">/Spaceship.cpp</text>
</a>
</g>
</g>
<!-- Node1&#45;&gt;Node3 -->
<g id="edge2_Node000001_Node000003" class="edge">
<title>Node1&#45;&gt;Node3</title>
<g id="a_edge2_Node000001_Node000003"><a xlink:title=" ">
<path fill="none" stroke="#63b8ff" d="M411.97,-64.73C372.37,-54.6 323.66,-42.14 285.93,-32.49"/>
<polygon fill="#63b8ff" stroke="#63b8ff" points="410.86,-68.06 421.42,-67.15 412.6,-61.28 410.86,-68.06"/>
</a>
</g>
</g>
<!-- Node4 -->
<g id="Node000004" class="node">
<title>Node4</title>
<g id="a_Node000004"><a xlink:href="_game_instance_8cpp.html" target="_top" xlink:title=" ">
<polygon fill="white" stroke="#666666" points="485.38,-26 307.38,-26 307.38,-6 485.38,-6 485.38,-26"/>
<text text-anchor="middle" x="396.38" y="-12.5" font-family="Helvetica,sans-Serif" font-size="10.00">include/MyLibrary/GameInstance.cpp</text>
</a>
</g>
</g>
<!-- Node1&#45;&gt;Node4 -->
<g id="edge3_Node000001_Node000004" class="edge">
<title>Node1&#45;&gt;Node4</title>
<g id="a_edge3_Node000001_Node000004"><a xlink:title=" ">
<path fill="none" stroke="#63b8ff" d="M454.43,-61.04C438.87,-49.24 420.5,-35.3 408.66,-26.32"/>
<polygon fill="#63b8ff" stroke="#63b8ff" points="451.91,-63.52 461.99,-66.78 456.14,-57.95 451.91,-63.52"/>
</a>
</g>
</g>
<!-- Node5 -->
<g id="Node000005" class="node">
<title>Node5</title>
<g id="a_Node000005"><a xlink:href="_game_over_8cpp.html" target="_top" xlink:title=" ">
<polygon fill="white" stroke="#666666" points="639,-32 503.75,-32 503.75,0 639,0 639,-32"/>
<text text-anchor="start" x="511.75" y="-18.5" font-family="Helvetica,sans-Serif" font-size="10.00">include/MyLibrary/Scenes</text>
<text text-anchor="middle" x="571.38" y="-6.5" font-family="Helvetica,sans-Serif" font-size="10.00">/GameOver/GameOver.cpp</text>
</a>
</g>
</g>
<!-- Node1&#45;&gt;Node5 -->
<g id="edge4_Node000001_Node000005" class="edge">
<title>Node1&#45;&gt;Node5</title>
<g id="a_edge4_Node000001_Node000005"><a xlink:title=" ">
<path fill="none" stroke="#63b8ff" d="M512.88,-60.87C525.31,-51.55 539.49,-40.91 550.77,-32.45"/>
<polygon fill="#63b8ff" stroke="#63b8ff" points="510.9,-57.98 505,-66.78 515.1,-63.58 510.9,-57.98"/>
</a>
</g>
</g>
<!-- Node6 -->
<g id="Node000006" class="node">
<title>Node6</title>
<g id="a_Node000006"><a xlink:href="_level_one_8cpp.html" target="_top" xlink:title=" ">
<polygon fill="white" stroke="#666666" points="785.62,-32 657.12,-32 657.12,0 785.62,0 785.62,-32"/>
<text text-anchor="start" x="665.12" y="-18.5" font-family="Helvetica,sans-Serif" font-size="10.00">include/MyLibrary/Scenes</text>
<text text-anchor="middle" x="721.38" y="-6.5" font-family="Helvetica,sans-Serif" font-size="10.00">/InGame/LevelOne.cpp</text>
</a>
</g>
</g>
<!-- Node1&#45;&gt;Node6 -->
<g id="edge5_Node000001_Node000006" class="edge">
<title>Node1&#45;&gt;Node6</title>
<g id="a_edge5_Node000001_Node000006"><a xlink:title=" ">
<path fill="none" stroke="#63b8ff" d="M550.18,-64.47C586.54,-54.39 631.01,-42.06 665.51,-32.49"/>
<polygon fill="#63b8ff" stroke="#63b8ff" points="549.33,-61.08 540.63,-67.12 551.21,-67.82 549.33,-61.08"/>
</a>
</g>
</g>
<!-- Node7 -->
<g id="Node000007" class="node">
<title>Node7</title>
<g id="a_Node000007"><a xlink:href="_main_menu_8cpp.html" target="_top" xlink:title=" ">
<polygon fill="white" stroke="#666666" points="934.75,-32 804,-32 804,0 934.75,0 934.75,-32"/>
<text text-anchor="start" x="812" y="-18.5" font-family="Helvetica,sans-Serif" font-size="10.00">include/MyLibrary/Scenes</text>
<text text-anchor="middle" x="869.38" y="-6.5" font-family="Helvetica,sans-Serif" font-size="10.00">/MainMenu/MainMenu.cpp</text>
</a>
</g>
</g>
<!-- Node1&#45;&gt;Node7 -->
<g id="edge6_Node000001_Node000007" class="edge">
<title>Node1&#45;&gt;Node7</title>
<g id="a_edge6_Node000001_Node000007"><a xlink:title=" ">
<path fill="none" stroke="#63b8ff" d="M560.96,-71.05C623.95,-61.16 715.03,-46.44 794.38,-32 797.38,-31.45 800.45,-30.88 803.55,-30.3"/>
<polygon fill="#63b8ff" stroke="#63b8ff" points="560.75,-67.54 551.42,-72.54 561.84,-74.45 560.75,-67.54"/>
</a>
</g>
</g>
</g>
</svg>
