<?xml version="1.0" encoding="UTF-8" standalone="no"?>
<!DOCTYPE svg PUBLIC "-//W3C//DTD SVG 1.1//EN"
 "http://www.w3.org/Graphics/SVG/1.1/DTD/svg11.dtd">
<!-- Generated by graphviz version 12.2.0 (20241103.1931)
 -->
<!-- Title: include/MyLibrary/Scenes/InGame/LevelOne.h Pages: 1 -->
<svg width="222pt" height="152pt"
 viewBox="0.00 0.00 222.12 152.00" xmlns="http://www.w3.org/2000/svg" xmlns:xlink="http://www.w3.org/1999/xlink">
<g id="graph0" class="graph" transform="scale(1 1) rotate(0) translate(4 148)">
<title>include/MyLibrary/Scenes/InGame/LevelOne.h</title>
<!-- Node1 -->
<g id="Node000001" class="node">
<title>Node1</title>
<g id="a_Node000001"><a xlink:title="Contains the LevelOne class for handling the first level of the game.">
<polygon fill="#999999" stroke="#666666" points="175.25,-144 46.75,-144 46.75,-112 175.25,-112 175.25,-144"/>
<text text-anchor="start" x="54.75" y="-130.5" font-family="Helvetica,sans-Serif" font-size="10.00">include/MyLibrary/Scenes</text>
<text text-anchor="middle" x="111" y="-118.5" font-family="Helvetica,sans-Serif" font-size="10.00">/InGame/LevelOne.h</text>
</a>
</g>
</g>
<!-- Node2 -->
<g id="Node000002" class="node">
<title>Node2</title>
<g id="a_Node000002"><a xlink:href="_spaceship_8h.html" target="_top" xlink:title="Contains the Spaceship class and its related methods.">
<polygon fill="white" stroke="#666666" points="106,-76 0,-76 0,-56 106,-56 106,-76"/>
<text text-anchor="middle" x="53" y="-62.5" font-family="Helvetica,sans-Serif" font-size="10.00">Entities/Spaceship.h</text>
</a>
</g>
</g>
<!-- Node1&#45;&gt;Node2 -->
<g id="edge1_Node000001_Node000002" class="edge">
<title>Node1&#45;&gt;Node2</title>
<g id="a_edge1_Node000001_Node000002"><a xlink:title=" ">
<path fill="none" stroke="#63b8ff" d="M96.06,-111.55C88.09,-103.3 78.25,-93.12 69.99,-84.57"/>
<polygon fill="#63b8ff" stroke="#63b8ff" points="72.61,-82.25 63.15,-77.5 67.58,-87.12 72.61,-82.25"/>
</a>
</g>
</g>
<!-- Node4 -->
<g id="Node000004" class="node">
<title>Node4</title>
<g id="a_Node000004"><a xlink:href="_enemy_8h.html" target="_top" xlink:title="Contains the Enemy class and its related methods.">
<polygon fill="white" stroke="#666666" points="214.12,-76 123.88,-76 123.88,-56 214.12,-56 214.12,-76"/>
<text text-anchor="middle" x="169" y="-62.5" font-family="Helvetica,sans-Serif" font-size="10.00">Entities/Enemy.h</text>
</a>
</g>
</g>
<!-- Node1&#45;&gt;Node4 -->
<g id="edge3_Node000001_Node000004" class="edge">
<title>Node1&#45;&gt;Node4</title>
<g id="a_edge3_Node000001_Node000004"><a xlink:title=" ">
<path fill="none" stroke="#63b8ff" d="M125.94,-111.55C133.91,-103.3 143.75,-93.12 152.01,-84.57"/>
<polygon fill="#63b8ff" stroke="#63b8ff" points="154.42,-87.12 158.85,-77.5 149.39,-82.25 154.42,-87.12"/>
</a>
</g>
</g>
<!-- Node3 -->
<g id="Node000003" class="node">
<title>Node3</title>
<g id="a_Node000003"><a xlink:href="_projectile_8h.html" target="_top" xlink:title="Contains the Projectile class and its related methods.">
<polygon fill="white" stroke="#666666" points="143.38,-20 78.62,-20 78.62,0 143.38,0 143.38,-20"/>
<text text-anchor="middle" x="111" y="-6.5" font-family="Helvetica,sans-Serif" font-size="10.00">Projectile.h</text>
</a>
</g>
</g>
<!-- Node2&#45;&gt;Node3 -->
<g id="edge2_Node000002_Node000003" class="edge">
<title>Node2&#45;&gt;Node3</title>
<g id="a_edge2_Node000002_Node000003"><a xlink:title=" ">
<path fill="none" stroke="#63b8ff" d="M63.1,-55.59C71.25,-48.01 82.93,-37.13 92.72,-28.02"/>
<polygon fill="#63b8ff" stroke="#63b8ff" points="94.97,-30.71 99.91,-21.33 90.2,-25.58 94.97,-30.71"/>
</a>
</g>
</g>
<!-- Node4&#45;&gt;Node3 -->
<g id="edge4_Node000004_Node000003" class="edge">
<title>Node4&#45;&gt;Node3</title>
<g id="a_edge4_Node000004_Node000003"><a xlink:title=" ">
<path fill="none" stroke="#63b8ff" d="M158.9,-55.59C150.75,-48.01 139.07,-37.13 129.28,-28.02"/>
<polygon fill="#63b8ff" stroke="#63b8ff" points="131.8,-25.58 122.09,-21.33 127.03,-30.71 131.8,-25.58"/>
</a>
</g>
</g>
</g>
</svg>
