<?xml version="1.0" encoding="UTF-8" standalone="no"?>
<!DOCTYPE svg PUBLIC "-//W3C//DTD SVG 1.1//EN"
 "http://www.w3.org/Graphics/SVG/1.1/DTD/svg11.dtd">
<!-- Generated by graphviz version 12.2.0 (20241103.1931)
 -->
<!-- Title: include/MyLibrary/Core/Utility/Log.h Pages: 1 -->
<!--zoomable 164 -->

<svg id="main" version="1.1" xmlns="http://www.w3.org/2000/svg" xmlns:xlink="http://www.w3.org/1999/xlink" xml:space="preserve" onload="init(evt)">

<style type="text/css"><![CDATA[
.node, .edge {opacity: 0.7;}
.node.selected, .edge.selected {opacity: 1;}
.edge:hover path { stroke: red; }
.edge:hover polygon { stroke: red; fill: red; }
]]></style>

<defs>
  <circle id="rim" cx="0" cy="0" r="7"/>
  <circle id="rim2" cx="0" cy="0" r="3.5"/>
  <g id="zoomPlus">
    <use xlink:href="#rim" fill="#404040"><set attributeName="fill" to="#808080" begin="zoomplus.mouseover" end="zoomplus.mouseout"/></use>
    <path d="M-4,0h8M0,-4v8" fill="none" stroke="white" stroke-width="1.5" pointer-events="none"/>
  </g>
  <g id="zoomMin">
    <use xlink:href="#rim" fill="#404040"><set attributeName="fill" to="#808080" begin="zoomminus.mouseover" end="zoomminus.mouseout"/></use>
    <path d="M-4,0h8" fill="none" stroke="white" stroke-width="1.5" pointer-events="none"/>
  </g>
  <g id="arrowUp" transform="translate(30 24)">
    <use xlink:href="#rim"/>
    <path pointer-events="none" fill="none" stroke="white" stroke-width="1.5" d="M0,-3.0v7 M-2.5,-0.5L0,-3.0L2.5,-0.5"/>
  </g>
  <g id="arrowRight" transform="rotate(90) translate(36 -43)">
    <use xlink:href="#rim"/>
    <path pointer-events="none" fill="none" stroke="white" stroke-width="1.5" d="M0,-3.0v7 M-2.5,-0.5L0,-3.0L2.5,-0.5"/>
  </g>
  <g id="arrowDown" transform="rotate(180) translate(-30 -48)">
    <use xlink:href="#rim"/>
    <path pointer-events="none" fill="none" stroke="white" stroke-width="1.5" d="M0,-3.0v7 M-2.5,-0.5L0,-3.0L2.5,-0.5"/>
  </g>
  <g id="arrowLeft" transform="rotate(270) translate(-36 17)">
    <use xlink:href="#rim"/>
    <path pointer-events="none" fill="none" stroke="white" stroke-width="1.5" d="M0,-3.0v7 M-2.5,-0.5L0,-3.0L2.5,-0.5"/>
  </g>
  <g id="resetDef">
    <use xlink:href="#rim2" fill="#404040"><set attributeName="fill" to="#808080" begin="reset.mouseover" end="reset.mouseout"/></use>
  </g>
</defs>
<script type="application/ecmascript">
var viewWidth = 3302;
var viewHeight = 164;
var sectionId = 'dynsection-0';
</script>
<script type="application/ecmascript" xlink:href="svg.min.js"/>
<svg id="graph" class="graph">
<g id="viewport">
<title>include/MyLibrary/Core/Utility/Log.h</title>
<!-- Node1 -->
<g id="Node000001" class="node">
<title>Node1</title>
<g id="a_Node000001"><a xlink:title="Provides a lightweight static logging utility for console output.">
<polygon fill="#999999" stroke="#666666" points="856.5,-156 740,-156 740,-124 856.5,-124 856.5,-156"/>
<text text-anchor="start" x="748" y="-142.5" font-family="Helvetica,sans-Serif" font-size="10.00">include/MyLibrary/Core</text>
<text text-anchor="middle" x="798.25" y="-130.5" font-family="Helvetica,sans-Serif" font-size="10.00">/Utility/Log.h</text>
</a>
</g>
</g>
<!-- Node2 -->
<g id="Node000002" class="node">
<title>Node2</title>
<g id="a_Node000002"><a xlink:href="_log_8cpp.html" target="_top" xlink:title=" ">
<polygon fill="white" stroke="#666666" points="116.5,-32 0,-32 0,0 116.5,0 116.5,-32"/>
<text text-anchor="start" x="8" y="-18.5" font-family="Helvetica,sans-Serif" font-size="10.00">include/MyLibrary/Core</text>
<text text-anchor="middle" x="58.25" y="-6.5" font-family="Helvetica,sans-Serif" font-size="10.00">/Utility/Log.cpp</text>
</a>
</g>
</g>
<!-- Node1&#45;&gt;Node2 -->
<g id="edge1_Node000001_Node000002" class="edge">
<title>Node1&#45;&gt;Node2</title>
<g id="a_edge1_Node000001_Node000002"><a xlink:title=" ">
<path fill="none" stroke="#63b8ff" d="M728.58,-129.29C606.28,-111.95 345.16,-73.54 126.25,-32 123.16,-31.41 120,-30.79 116.81,-30.15"/>
<polygon fill="#63b8ff" stroke="#63b8ff" points="727.73,-132.71 738.12,-130.65 728.71,-125.78 727.73,-132.71"/>
</a>
</g>
</g>
<!-- Node3 -->
<g id="Node000003" class="node">
<title>Node3</title>
<g id="a_Node000003"><a xlink:href="stdafx_8h.html" target="_top" xlink:title=" ">
<polygon fill="white" stroke="#666666" points="1603.62,-88 1472.88,-88 1472.88,-68 1603.62,-68 1603.62,-88"/>
<text text-anchor="middle" x="1538.25" y="-74.5" font-family="Helvetica,sans-Serif" font-size="10.00">include/MyLibrary/stdafx.h</text>
</a>
</g>
</g>
<!-- Node1&#45;&gt;Node3 -->
<g id="edge2_Node000001_Node000003" class="edge">
<title>Node1&#45;&gt;Node3</title>
<g id="a_edge2_Node000001_Node000003"><a xlink:title=" ">
<path fill="none" stroke="#63b8ff" d="M868.11,-133.34C1010.69,-121.78 1333.4,-95.61 1472.47,-84.33"/>
<polygon fill="#63b8ff" stroke="#63b8ff" points="868.13,-129.82 858.44,-134.12 868.69,-136.8 868.13,-129.82"/>
</a>
</g>
</g>
<!-- Node3&#45;&gt;Node2 -->
<g id="edge8_Node000003_Node000002" class="edge">
<title>Node3&#45;&gt;Node2</title>
<g id="a_edge8_Node000003_Node000002"><a xlink:title=" ">
<path fill="none" stroke="#63b8ff" d="M1461.14,-76.42C1205.58,-74.22 387.8,-64.73 126.25,-32 123.13,-31.61 119.94,-31.14 116.74,-30.62"/>
<polygon fill="#63b8ff" stroke="#63b8ff" points="1460.98,-79.92 1471.01,-76.51 1461.04,-72.92 1460.98,-79.92"/>
</a>
</g>
</g>
<!-- Node4 -->
<g id="Node000004" class="node">
<title>Node4</title>
<g id="a_Node000004"><a xlink:href="_input_manager_8cpp.html" target="_top" xlink:title=" ">
<polygon fill="white" stroke="#666666" points="277.62,-32 134.88,-32 134.88,0 277.62,0 277.62,-32"/>
<text text-anchor="start" x="142.88" y="-18.5" font-family="Helvetica,sans-Serif" font-size="10.00">include/MyLibrary/Core</text>
<text text-anchor="middle" x="206.25" y="-6.5" font-family="Helvetica,sans-Serif" font-size="10.00">/Managers/InputManager.cpp</text>
</a>
</g>
</g>
<!-- Node3&#45;&gt;Node4 -->
<g id="edge3_Node000003_Node000004" class="edge">
<title>Node3&#45;&gt;Node4</title>
<g id="a_edge3_Node000003_Node000004"><a xlink:title=" ">
<path fill="none" stroke="#63b8ff" d="M1461.29,-75.72C1225.72,-71.55 516.53,-57.21 287.25,-32 284.12,-31.66 280.93,-31.26 277.72,-30.82"/>
<polygon fill="#63b8ff" stroke="#63b8ff" points="1460.91,-79.21 1470.97,-75.89 1461.03,-72.21 1460.91,-79.21"/>
</a>
</g>
</g>
<!-- Node5 -->
<g id="Node000005" class="node">
<title>Node5</title>
<g id="a_Node000005"><a xlink:href="_scene_manager_8cpp.html" target="_top" xlink:title=" ">
<polygon fill="white" stroke="#666666" points="444.62,-32 295.88,-32 295.88,0 444.62,0 444.62,-32"/>
<text text-anchor="start" x="303.88" y="-18.5" font-family="Helvetica,sans-Serif" font-size="10.00">include/MyLibrary/Core</text>
<text text-anchor="middle" x="370.25" y="-6.5" font-family="Helvetica,sans-Serif" font-size="10.00">/Managers/SceneManager.cpp</text>
</a>
</g>
</g>
<!-- Node3&#45;&gt;Node5 -->
<g id="edge4_Node000003_Node000005" class="edge">
<title>Node3&#45;&gt;Node5</title>
<g id="a_edge4_Node000003_Node000005"><a xlink:title=" ">
<path fill="none" stroke="#63b8ff" d="M1461.33,-77.37C1283.49,-77.45 830.3,-73.19 454.25,-32 451.16,-31.66 448.01,-31.28 444.83,-30.86"/>
<polygon fill="#63b8ff" stroke="#63b8ff" points="1461.14,-80.87 1471.13,-77.36 1461.13,-73.87 1461.14,-80.87"/>
</a>
</g>
</g>
<!-- Node6 -->
<g id="Node000006" class="node">
<title>Node6</title>
<g id="a_Node000006"><a xlink:href="_sound_manager_8cpp.html" target="_top" xlink:title=" ">
<polygon fill="white" stroke="#666666" points="611.62,-32 462.88,-32 462.88,0 611.62,0 611.62,-32"/>
<text text-anchor="start" x="470.88" y="-18.5" font-family="Helvetica,sans-Serif" font-size="10.00">include/MyLibrary/Core</text>
<text text-anchor="middle" x="537.25" y="-6.5" font-family="Helvetica,sans-Serif" font-size="10.00">/Managers/SoundManager.cpp</text>
</a>
</g>
</g>
<!-- Node3&#45;&gt;Node6 -->
<g id="edge5_Node000003_Node000006" class="edge">
<title>Node3&#45;&gt;Node6</title>
<g id="a_edge5_Node000003_Node000006"><a xlink:title=" ">
<path fill="none" stroke="#63b8ff" d="M1461.15,-76.59C1302.98,-75.02 930.54,-67.49 620.25,-32 617.49,-31.68 614.67,-31.33 611.84,-30.95"/>
<polygon fill="#63b8ff" stroke="#63b8ff" points="1461.07,-80.09 1471.11,-76.69 1461.14,-73.09 1461.07,-80.09"/>
</a>
</g>
</g>
<!-- Node7 -->
<g id="Node000007" class="node">
<title>Node7</title>
<g id="a_Node000007"><a xlink:href="_gameplay_utility_8cpp.html" target="_top" xlink:title=" ">
<polygon fill="white" stroke="#666666" points="764.88,-32 629.62,-32 629.62,0 764.88,0 764.88,-32"/>
<text text-anchor="start" x="637.62" y="-18.5" font-family="Helvetica,sans-Serif" font-size="10.00">include/MyLibrary/Core</text>
<text text-anchor="middle" x="697.25" y="-6.5" font-family="Helvetica,sans-Serif" font-size="10.00">/Utility/GameplayUtility.cpp</text>
</a>
</g>
</g>
<!-- Node3&#45;&gt;Node7 -->
<g id="edge6_Node000003_Node000007" class="edge">
<title>Node3&#45;&gt;Node7</title>
<g id="a_edge6_Node000003_Node000007"><a xlink:title=" ">
<path fill="none" stroke="#63b8ff" d="M1461.31,-75.86C1323.19,-73.06 1024.27,-63.57 774.25,-32 771.28,-31.62 768.25,-31.2 765.19,-30.75"/>
<polygon fill="#63b8ff" stroke="#63b8ff" points="1460.99,-79.36 1471.06,-76.05 1461.13,-72.36 1460.99,-79.36"/>
</a>
</g>
</g>
<!-- Node8 -->
<g id="Node000008" class="node">
<title>Node8</title>
<g id="a_Node000008"><a xlink:href="_helper_8cpp.html" target="_top" xlink:title=" ">
<polygon fill="white" stroke="#666666" points="899.5,-32 783,-32 783,0 899.5,0 899.5,-32"/>
<text text-anchor="start" x="791" y="-18.5" font-family="Helvetica,sans-Serif" font-size="10.00">include/MyLibrary/Core</text>
<text text-anchor="middle" x="841.25" y="-6.5" font-family="Helvetica,sans-Serif" font-size="10.00">/Utility/Helper.cpp</text>
</a>
</g>
</g>
<!-- Node3&#45;&gt;Node8 -->
<g id="edge7_Node000003_Node000008" class="edge">
<title>Node3&#45;&gt;Node8</title>
<g id="a_edge7_Node000003_Node000008"><a xlink:title=" ">
<path fill="none" stroke="#63b8ff" d="M1461.45,-75.2C1342.4,-71.57 1106.36,-61.09 908.25,-32 905.54,-31.6 902.77,-31.15 899.98,-30.67"/>
<polygon fill="#63b8ff" stroke="#63b8ff" points="1460.99,-78.68 1471.09,-75.48 1461.2,-71.69 1460.99,-78.68"/>
</a>
</g>
</g>
<!-- Node9 -->
<g id="Node000009" class="node">
<title>Node9</title>
<g id="a_Node000009"><a xlink:href="_random_gen_8cpp.html" target="_top" xlink:title=" ">
<polygon fill="white" stroke="#666666" points="1038.75,-32 917.75,-32 917.75,0 1038.75,0 1038.75,-32"/>
<text text-anchor="start" x="925.75" y="-18.5" font-family="Helvetica,sans-Serif" font-size="10.00">include/MyLibrary/Core</text>
<text text-anchor="middle" x="978.25" y="-6.5" font-family="Helvetica,sans-Serif" font-size="10.00">/Utility/RandomGen.cpp</text>
</a>
</g>
</g>
<!-- Node3&#45;&gt;Node9 -->
<g id="edge9_Node000003_Node000009" class="edge">
<title>Node3&#45;&gt;Node9</title>
<g id="a_edge9_Node000003_Node000009"><a xlink:title=" ">
<path fill="none" stroke="#63b8ff" d="M1461.13,-72.78C1364.31,-66.82 1193.31,-54.12 1048.25,-32 1045.18,-31.53 1042.04,-31.01 1038.87,-30.45"/>
<polygon fill="#63b8ff" stroke="#63b8ff" points="1460.86,-76.27 1471.05,-73.38 1461.28,-69.28 1460.86,-76.27"/>
</a>
</g>
</g>
<!-- Node10 -->
<g id="Node000010" class="node">
<title>Node10</title>
<g id="a_Node000010"><a xlink:href="_timer_8cpp.html" target="_top" xlink:title=" ">
<polygon fill="white" stroke="#666666" points="1173.5,-32 1057,-32 1057,0 1173.5,0 1173.5,-32"/>
<text text-anchor="start" x="1065" y="-18.5" font-family="Helvetica,sans-Serif" font-size="10.00">include/MyLibrary/Core</text>
<text text-anchor="middle" x="1115.25" y="-6.5" font-family="Helvetica,sans-Serif" font-size="10.00">/Utility/Timer.cpp</text>
</a>
</g>
</g>
<!-- Node3&#45;&gt;Node10 -->
<g id="edge10_Node000003_Node000010" class="edge">
<title>Node3&#45;&gt;Node10</title>
<g id="a_edge10_Node000003_Node000010"><a xlink:title=" ">
<path fill="none" stroke="#63b8ff" d="M1461.32,-69.29C1389.21,-61.58 1278.54,-48.51 1183.25,-32 1180.15,-31.46 1176.98,-30.88 1173.79,-30.27"/>
<polygon fill="#63b8ff" stroke="#63b8ff" points="1460.74,-72.75 1471.05,-70.32 1461.47,-65.79 1460.74,-72.75"/>
</a>
</g>
</g>
<!-- Node11 -->
<g id="Node000011" class="node">
<title>Node11</title>
<g id="a_Node000011"><a xlink:href="_vector2_8cpp.html" target="_top" xlink:title=" ">
<polygon fill="white" stroke="#666666" points="1308.5,-32 1192,-32 1192,0 1308.5,0 1308.5,-32"/>
<text text-anchor="start" x="1200" y="-18.5" font-family="Helvetica,sans-Serif" font-size="10.00">include/MyLibrary/Core</text>
<text text-anchor="middle" x="1250.25" y="-6.5" font-family="Helvetica,sans-Serif" font-size="10.00">/Utility/Vector2.cpp</text>
</a>
</g>
</g>
<!-- Node3&#45;&gt;Node11 -->
<g id="edge11_Node000003_Node000011" class="edge">
<title>Node3&#45;&gt;Node11</title>
<g id="a_edge11_Node000003_Node000011"><a xlink:title=" ">
<path fill="none" stroke="#63b8ff" d="M1479.84,-65.31C1435.48,-56.36 1372.97,-43.63 1318.25,-32 1315.18,-31.35 1312.02,-30.67 1308.84,-29.98"/>
<polygon fill="#63b8ff" stroke="#63b8ff" points="1479.02,-68.71 1489.52,-67.25 1480.4,-61.85 1479.02,-68.71"/>
</a>
</g>
</g>
<!-- Node12 -->
<g id="Node000012" class="node">
<title>Node12</title>
<g id="a_Node000012"><a xlink:href="_cursor_8cpp.html" target="_top" xlink:title=" ">
<polygon fill="white" stroke="#666666" points="1455.5,-32 1327,-32 1327,0 1455.5,0 1455.5,-32"/>
<text text-anchor="start" x="1335" y="-18.5" font-family="Helvetica,sans-Serif" font-size="10.00">include/MyLibrary/Entities</text>
<text text-anchor="middle" x="1391.25" y="-6.5" font-family="Helvetica,sans-Serif" font-size="10.00">/Cursor.cpp</text>
</a>
</g>
</g>
<!-- Node3&#45;&gt;Node12 -->
<g id="edge12_Node000003_Node000012" class="edge">
<title>Node3&#45;&gt;Node12</title>
<g id="a_edge12_Node000003_Node000012"><a xlink:title=" ">
<path fill="none" stroke="#63b8ff" d="M1504.87,-63.38C1482.36,-54.19 1452.61,-42.05 1429.2,-32.49"/>
<polygon fill="#63b8ff" stroke="#63b8ff" points="1503.3,-66.51 1513.88,-67.05 1505.94,-60.03 1503.3,-66.51"/>
</a>
</g>
</g>
<!-- Node13 -->
<g id="Node000013" class="node">
<title>Node13</title>
<g id="a_Node000013"><a xlink:href="_enemy_8cpp.html" target="_top" xlink:title=" ">
<polygon fill="white" stroke="#666666" points="1602.5,-32 1474,-32 1474,0 1602.5,0 1602.5,-32"/>
<text text-anchor="start" x="1482" y="-18.5" font-family="Helvetica,sans-Serif" font-size="10.00">include/MyLibrary/Entities</text>
<text text-anchor="middle" x="1538.25" y="-6.5" font-family="Helvetica,sans-Serif" font-size="10.00">/Enemy.cpp</text>
</a>
</g>
</g>
<!-- Node3&#45;&gt;Node13 -->
<g id="edge13_Node000003_Node000013" class="edge">
<title>Node3&#45;&gt;Node13</title>
<g id="a_edge13_Node000003_Node000013"><a xlink:title=" ">
<path fill="none" stroke="#63b8ff" d="M1538.25,-56.31C1538.25,-48.37 1538.25,-39.46 1538.25,-32.14"/>
<polygon fill="#63b8ff" stroke="#63b8ff" points="1534.75,-56.11 1538.25,-66.11 1541.75,-56.11 1534.75,-56.11"/>
</a>
</g>
</g>
<!-- Node14 -->
<g id="Node000014" class="node">
<title>Node14</title>
<g id="a_Node000014"><a xlink:href="_projectile_8cpp.html" target="_top" xlink:title=" ">
<polygon fill="white" stroke="#666666" points="1749.5,-32 1621,-32 1621,0 1749.5,0 1749.5,-32"/>
<text text-anchor="start" x="1629" y="-18.5" font-family="Helvetica,sans-Serif" font-size="10.00">include/MyLibrary/Entities</text>
<text text-anchor="middle" x="1685.25" y="-6.5" font-family="Helvetica,sans-Serif" font-size="10.00">/Projectile.cpp</text>
</a>
</g>
</g>
<!-- Node3&#45;&gt;Node14 -->
<g id="edge14_Node000003_Node000014" class="edge">
<title>Node3&#45;&gt;Node14</title>
<g id="a_edge14_Node000003_Node000014"><a xlink:title=" ">
<path fill="none" stroke="#63b8ff" d="M1571.63,-63.38C1594.14,-54.19 1623.89,-42.05 1647.3,-32.49"/>
<polygon fill="#63b8ff" stroke="#63b8ff" points="1570.56,-60.03 1562.62,-67.05 1573.2,-66.51 1570.56,-60.03"/>
</a>
</g>
</g>
<!-- Node15 -->
<g id="Node000015" class="node">
<title>Node15</title>
<g id="a_Node000015"><a xlink:href="_spaceship_8cpp.html" target="_top" xlink:title=" ">
<polygon fill="white" stroke="#666666" points="1896.5,-32 1768,-32 1768,0 1896.5,0 1896.5,-32"/>
<text text-anchor="start" x="1776" y="-18.5" font-family="Helvetica,sans-Serif" font-size="10.00">include/MyLibrary/Entities</text>
<text text-anchor="middle" x="1832.25" y="-6.5" font-family="Helvetica,sans-Serif" font-size="10.00">/Spaceship.cpp</text>
</a>
</g>
</g>
<!-- Node3&#45;&gt;Node15 -->
<g id="edge15_Node000003_Node000015" class="edge">
<title>Node3&#45;&gt;Node15</title>
<g id="a_edge15_Node000003_Node000015"><a xlink:title=" ">
<path fill="none" stroke="#63b8ff" d="M1595.64,-65.29C1645.05,-55.2 1716.31,-40.66 1767.7,-30.17"/>
<polygon fill="#63b8ff" stroke="#63b8ff" points="1595.09,-61.83 1585.99,-67.26 1596.49,-68.69 1595.09,-61.83"/>
</a>
</g>
</g>
<!-- Node16 -->
<g id="Node000016" class="node">
<title>Node16</title>
<g id="a_Node000016"><a xlink:href="_game_instance_8cpp.html" target="_top" xlink:title=" ">
<polygon fill="white" stroke="#666666" points="2092.25,-26 1914.25,-26 1914.25,-6 2092.25,-6 2092.25,-26"/>
<text text-anchor="middle" x="2003.25" y="-12.5" font-family="Helvetica,sans-Serif" font-size="10.00">include/MyLibrary/GameInstance.cpp</text>
</a>
</g>
</g>
<!-- Node3&#45;&gt;Node16 -->
<g id="edge16_Node000003_Node000016" class="edge">
<title>Node3&#45;&gt;Node16</title>
<g id="a_edge16_Node000003_Node000016"><a xlink:title=" ">
<path fill="none" stroke="#63b8ff" d="M1615.07,-68.26C1689.38,-59.64 1805.14,-45.8 1905.25,-32 1917.53,-30.31 1930.65,-28.38 1943.17,-26.49"/>
<polygon fill="#63b8ff" stroke="#63b8ff" points="1614.99,-64.74 1605.46,-69.37 1615.8,-71.7 1614.99,-64.74"/>
</a>
</g>
</g>
<!-- Node17 -->
<g id="Node000017" class="node">
<title>Node17</title>
<g id="a_Node000017"><a xlink:href="_credits_8cpp.html" target="_top" xlink:title=" ">
<polygon fill="white" stroke="#666666" points="2238.5,-32 2110,-32 2110,0 2238.5,0 2238.5,-32"/>
<text text-anchor="start" x="2118" y="-18.5" font-family="Helvetica,sans-Serif" font-size="10.00">include/MyLibrary/Scenes</text>
<text text-anchor="middle" x="2174.25" y="-6.5" font-family="Helvetica,sans-Serif" font-size="10.00">/Credits/Credits.cpp</text>
</a>
</g>
</g>
<!-- Node3&#45;&gt;Node17 -->
<g id="edge17_Node000003_Node000017" class="edge">
<title>Node3&#45;&gt;Node17</title>
<g id="a_edge17_Node000003_Node000017"><a xlink:title=" ">
<path fill="none" stroke="#63b8ff" d="M1615.16,-73.85C1723.87,-68.72 1928.5,-56.56 2101.25,-32 2104.07,-31.6 2106.94,-31.16 2109.84,-30.68"/>
<polygon fill="#63b8ff" stroke="#63b8ff" points="1615.32,-70.34 1605.5,-74.3 1615.65,-77.33 1615.32,-70.34"/>
</a>
</g>
</g>
<!-- Node18 -->
<g id="Node000018" class="node">
<title>Node18</title>
<g id="a_Node000018"><a xlink:href="_game_over_8cpp.html" target="_top" xlink:title=" ">
<polygon fill="white" stroke="#666666" points="2391.88,-32 2256.62,-32 2256.62,0 2391.88,0 2391.88,-32"/>
<text text-anchor="start" x="2264.62" y="-18.5" font-family="Helvetica,sans-Serif" font-size="10.00">include/MyLibrary/Scenes</text>
<text text-anchor="middle" x="2324.25" y="-6.5" font-family="Helvetica,sans-Serif" font-size="10.00">/GameOver/GameOver.cpp</text>
</a>
</g>
</g>
<!-- Node3&#45;&gt;Node18 -->
<g id="edge18_Node000003_Node000018" class="edge">
<title>Node3&#45;&gt;Node18</title>
<g id="a_edge18_Node000003_Node000018"><a xlink:title=" ">
<path fill="none" stroke="#63b8ff" d="M1615.44,-75.36C1746.03,-71.85 2018.66,-61.39 2247.25,-32 2250.22,-31.62 2253.25,-31.19 2256.31,-30.73"/>
<polygon fill="#63b8ff" stroke="#63b8ff" points="1615.43,-71.86 1605.52,-75.62 1615.61,-78.85 1615.43,-71.86"/>
</a>
</g>
</g>
<!-- Node19 -->
<g id="Node000019" class="node">
<title>Node19</title>
<g id="a_Node000019"><a xlink:href="_level_one_8cpp.html" target="_top" xlink:title=" ">
<polygon fill="white" stroke="#666666" points="2538.5,-32 2410,-32 2410,0 2538.5,0 2538.5,-32"/>
<text text-anchor="start" x="2418" y="-18.5" font-family="Helvetica,sans-Serif" font-size="10.00">include/MyLibrary/Scenes</text>
<text text-anchor="middle" x="2474.25" y="-6.5" font-family="Helvetica,sans-Serif" font-size="10.00">/InGame/LevelOne.cpp</text>
</a>
</g>
</g>
<!-- Node3&#45;&gt;Node19 -->
<g id="edge19_Node000003_Node000019" class="edge">
<title>Node3&#45;&gt;Node19</title>
<g id="a_edge19_Node000003_Node000019"><a xlink:title=" ">
<path fill="none" stroke="#63b8ff" d="M1615.48,-76.86C1766.87,-75.73 2112.99,-68.92 2401.25,-32 2404.07,-31.64 2406.95,-31.23 2409.85,-30.78"/>
<polygon fill="#63b8ff" stroke="#63b8ff" points="1615.54,-73.36 1605.56,-76.93 1615.59,-80.36 1615.54,-73.36"/>
</a>
</g>
</g>
<!-- Node20 -->
<g id="Node000020" class="node">
<title>Node20</title>
<g id="a_Node000020"><a xlink:href="_level_two_8cpp.html" target="_top" xlink:title=" ">
<polygon fill="white" stroke="#666666" points="2685.5,-32 2557,-32 2557,0 2685.5,0 2685.5,-32"/>
<text text-anchor="start" x="2565" y="-18.5" font-family="Helvetica,sans-Serif" font-size="10.00">include/MyLibrary/Scenes</text>
<text text-anchor="middle" x="2621.25" y="-6.5" font-family="Helvetica,sans-Serif" font-size="10.00">/InGame/LevelTwo.cpp</text>
</a>
</g>
</g>
<!-- Node3&#45;&gt;Node20 -->
<g id="edge20_Node000003_Node000020" class="edge">
<title>Node3&#45;&gt;Node20</title>
<g id="a_edge20_Node000003_Node000020"><a xlink:title=" ">
<path fill="none" stroke="#63b8ff" d="M1615.33,-77.63C1784.64,-78.13 2201.46,-74.5 2547.25,-32 2550.37,-31.62 2553.56,-31.17 2556.77,-30.68"/>
<polygon fill="#63b8ff" stroke="#63b8ff" points="1615.59,-74.13 1605.57,-77.6 1615.56,-81.13 1615.59,-74.13"/>
</a>
</g>
</g>
<!-- Node21 -->
<g id="Node000021" class="node">
<title>Node21</title>
<g id="a_Node000021"><a xlink:href="_intro_8cpp.html" target="_top" xlink:title=" ">
<polygon fill="white" stroke="#666666" points="2832.5,-32 2704,-32 2704,0 2832.5,0 2832.5,-32"/>
<text text-anchor="start" x="2712" y="-18.5" font-family="Helvetica,sans-Serif" font-size="10.00">include/MyLibrary/Scenes</text>
<text text-anchor="middle" x="2768.25" y="-6.5" font-family="Helvetica,sans-Serif" font-size="10.00">/Intro/Intro.cpp</text>
</a>
</g>
</g>
<!-- Node3&#45;&gt;Node21 -->
<g id="edge21_Node000003_Node000021" class="edge">
<title>Node3&#45;&gt;Node21</title>
<g id="a_edge21_Node000003_Node000021"><a xlink:title=" ">
<path fill="none" stroke="#63b8ff" d="M1615.04,-75.63C1838.26,-71.38 2484.4,-57.19 2694.25,-32 2697.37,-31.63 2700.56,-31.19 2703.78,-30.71"/>
<polygon fill="#63b8ff" stroke="#63b8ff" points="1615.23,-72.12 1605.3,-75.81 1615.36,-79.12 1615.23,-72.12"/>
</a>
</g>
</g>
<!-- Node22 -->
<g id="Node000022" class="node">
<title>Node22</title>
<g id="a_Node000022"><a xlink:href="_main_menu_8cpp.html" target="_top" xlink:title=" ">
<polygon fill="white" stroke="#666666" points="2981.62,-32 2850.88,-32 2850.88,0 2981.62,0 2981.62,-32"/>
<text text-anchor="start" x="2858.88" y="-18.5" font-family="Helvetica,sans-Serif" font-size="10.00">include/MyLibrary/Scenes</text>
<text text-anchor="middle" x="2916.25" y="-6.5" font-family="Helvetica,sans-Serif" font-size="10.00">/MainMenu/MainMenu.cpp</text>
</a>
</g>
</g>
<!-- Node3&#45;&gt;Node22 -->
<g id="edge22_Node000003_Node000022" class="edge">
<title>Node3&#45;&gt;Node22</title>
<g id="a_edge22_Node000003_Node000022"><a xlink:title=" ">
<path fill="none" stroke="#63b8ff" d="M1615.46,-75.98C1857.84,-72.54 2601.65,-59.91 2841.25,-32 2844.28,-31.65 2847.38,-31.24 2850.5,-30.78"/>
<polygon fill="#63b8ff" stroke="#63b8ff" points="1615.42,-72.48 1605.47,-76.13 1615.52,-79.48 1615.42,-72.48"/>
</a>
</g>
</g>
<!-- Node23 -->
<g id="Node000023" class="node">
<title>Node23</title>
<g id="a_Node000023"><a xlink:href="main_8cpp.html" target="_top" xlink:title=" ">
<polygon fill="white" stroke="#666666" points="3134.88,-26 2999.62,-26 2999.62,-6 3134.88,-6 3134.88,-26"/>
<text text-anchor="middle" x="3067.25" y="-12.5" font-family="Helvetica,sans-Serif" font-size="10.00">include/MyLibrary/main.cpp</text>
</a>
</g>
</g>
<!-- Node3&#45;&gt;Node23 -->
<g id="edge23_Node000003_Node000023" class="edge">
<title>Node3&#45;&gt;Node23</title>
<g id="a_edge23_Node000003_Node000023"><a xlink:title=" ">
<path fill="none" stroke="#63b8ff" d="M1615.33,-76.25C1875.53,-73.48 2720.14,-62.29 2990.25,-32 3001.62,-30.72 3013.82,-28.67 3025.08,-26.49"/>
<polygon fill="#63b8ff" stroke="#63b8ff" points="1615.59,-72.75 1605.63,-76.36 1615.67,-79.75 1615.59,-72.75"/>
</a>
</g>
</g>
<!-- Node24 -->
<g id="Node000024" class="node">
<title>Node24</title>
<g id="a_Node000024"><a xlink:href="stdafx_8cpp.html" target="_top" xlink:title=" ">
<polygon fill="white" stroke="#666666" points="3293.88,-26 3152.62,-26 3152.62,-6 3293.88,-6 3293.88,-26"/>
<text text-anchor="middle" x="3223.25" y="-12.5" font-family="Helvetica,sans-Serif" font-size="10.00">include/MyLibrary/stdafx.cpp</text>
</a>
</g>
</g>
<!-- Node3&#45;&gt;Node24 -->
<g id="edge24_Node000003_Node000024" class="edge">
<title>Node3&#45;&gt;Node24</title>
<g id="a_edge24_Node000003_Node000024"><a xlink:title=" ">
<path fill="none" stroke="#63b8ff" d="M1614.94,-76.47C1892.25,-74.32 2842.35,-64.68 3144.25,-32 3156.05,-30.72 3168.72,-28.64 3180.39,-26.43"/>
<polygon fill="#63b8ff" stroke="#63b8ff" points="1615.29,-72.97 1605.32,-76.55 1615.34,-79.97 1615.29,-72.97"/>
</a>
</g>
</g>
</g>
</svg>

<g id="navigator" transform="translate(0 0)" fill="#404254">
  <rect fill="#f2f5e9" fill-opacity="0.5" stroke="#606060" stroke-width=".5" x="0" y="0" width="60" height="60"/>
  <use id="zoomplus" xlink:href="#zoomPlus" x="17" y="9" onmousedown="handleZoom(evt,'in')"/>
  <use id="zoomminus" xlink:href="#zoomMin" x="42" y="9" onmousedown="handleZoom(evt,'out')"/>
  <use id="reset" xlink:href="#resetDef" x="30" y="36" onmousedown="handleReset()"/>
   <use id="arrowup" xlink:href="#arrowUp" x="0" y="0" onmousedown="handlePan(0,-1)"/>
  <use id="arrowright" xlink:href="#arrowRight" x="0" y="0" onmousedown="handlePan(1,0)"/>
  <use id="arrowdown" xlink:href="#arrowDown" x="0" y="0" onmousedown="handlePan(0,1)"/>
  <use id="arrowleft" xlink:href="#arrowLeft" x="0" y="0" onmousedown="handlePan(-1,0)"/>
</g>
<svg viewBox="0 0 15 15" width="100%" height="30px" preserveAspectRatio="xMaxYMin meet">
 <g id="arrow_out" transform="scale(0.3 0.3)">
  <a xlink:href="_log_8h__dep__incl_org.svg" target="_base">
   <rect id="button" ry="5" rx="5" y="6" x="6" height="38" width="38"
        fill="#f2f5e9" fill-opacity="0.5" stroke="#606060" stroke-width="1.0"/>
   <path id="arrow"
     d="M 11.500037,31.436501 C 11.940474,20.09759 22.043105,11.32322 32.158766,21.979434 L 37.068811,17.246167 C 37.068811,17.246167 37.088388,32 37.088388,32 L 22.160133,31.978069 C 22.160133,31.978069 26.997745,27.140456 26.997745,27.140456 C 18.528582,18.264221 13.291696,25.230495 11.500037,31.436501 z"
     style="fill:#404040;"/>
  </a>
 </g>
</svg>

<style type='text/css'>
<![CDATA[
[data-mouse-over-selected='false'] { opacity: 0.7; }
[data-mouse-over-selected='true']  { opacity: 1.0; }
]]>
</style>
<script type="application/ecmascript"><![CDATA[
document.addEventListener('DOMContentLoaded', (event) => {
  highlightEdges();
  highlightAdjacentNodes();
});
]]></script>
</svg>
