<?xml version="1.0" encoding="UTF-8" standalone="no"?>
<!DOCTYPE svg PUBLIC "-//W3C//DTD SVG 1.1//EN"
 "http://www.w3.org/Graphics/SVG/1.1/DTD/svg11.dtd">
<!-- Generated by graphviz version 12.2.0 (20241103.1931)
 -->
<!-- Title: include/MyLibrary/Scenes/MainMenu/MainMenu.h Pages: 1 -->
<svg width="334pt" height="108pt"
 viewBox="0.00 0.00 334.38 108.00" xmlns="http://www.w3.org/2000/svg" xmlns:xlink="http://www.w3.org/1999/xlink">
<g id="graph0" class="graph" transform="scale(1 1) rotate(0) translate(4 104)">
<title>include/MyLibrary/Scenes/MainMenu/MainMenu.h</title>
<!-- Node1 -->
<g id="Node000001" class="node">
<title>Node1</title>
<g id="a_Node000001"><a xlink:title=" ">
<polygon fill="#999999" stroke="#666666" points="239.25,-100 110.75,-100 110.75,-68 239.25,-68 239.25,-100"/>
<text text-anchor="start" x="118.75" y="-86.5" font-family="Helvetica,sans-Serif" font-size="10.00">include/MyLibrary/Scenes</text>
<text text-anchor="middle" x="175" y="-74.5" font-family="Helvetica,sans-Serif" font-size="10.00">/MainMenu/MainMenu.h</text>
</a>
</g>
</g>
<!-- Node2 -->
<g id="Node000002" class="node">
<title>Node2</title>
<g id="a_Node000002"><a xlink:href="_game_instance_8cpp.html" target="_top" xlink:title=" ">
<polygon fill="white" stroke="#666666" points="178,-26 0,-26 0,-6 178,-6 178,-26"/>
<text text-anchor="middle" x="89" y="-12.5" font-family="Helvetica,sans-Serif" font-size="10.00">include/MyLibrary/GameInstance.cpp</text>
</a>
</g>
</g>
<!-- Node1&#45;&gt;Node2 -->
<g id="edge1_Node000001_Node000002" class="edge">
<title>Node1&#45;&gt;Node2</title>
<g id="a_edge1_Node000001_Node000002"><a xlink:title=" ">
<path fill="none" stroke="#63b8ff" d="M145.96,-60.71C130.67,-48.98 112.74,-35.22 101.14,-26.32"/>
<polygon fill="#63b8ff" stroke="#63b8ff" points="143.79,-63.46 153.85,-66.77 148.05,-57.91 143.79,-63.46"/>
</a>
</g>
</g>
<!-- Node3 -->
<g id="Node000003" class="node">
<title>Node3</title>
<g id="a_Node000003"><a xlink:href="_main_menu_8cpp.html" target="_top" xlink:title=" ">
<polygon fill="white" stroke="#666666" points="326.38,-32 195.62,-32 195.62,0 326.38,0 326.38,-32"/>
<text text-anchor="start" x="203.62" y="-18.5" font-family="Helvetica,sans-Serif" font-size="10.00">include/MyLibrary/Scenes</text>
<text text-anchor="middle" x="261" y="-6.5" font-family="Helvetica,sans-Serif" font-size="10.00">/MainMenu/MainMenu.cpp</text>
</a>
</g>
</g>
<!-- Node1&#45;&gt;Node3 -->
<g id="edge2_Node000001_Node000003" class="edge">
<title>Node1&#45;&gt;Node3</title>
<g id="a_edge2_Node000001_Node000003"><a xlink:title=" ">
<path fill="none" stroke="#63b8ff" d="M203.83,-60.87C215.99,-51.55 229.84,-40.91 240.86,-32.45"/>
<polygon fill="#63b8ff" stroke="#63b8ff" points="201.95,-57.91 196.15,-66.77 206.21,-63.46 201.95,-57.91"/>
</a>
</g>
</g>
</g>
</svg>
