<?xml version="1.0" encoding="UTF-8" standalone="no"?>
<!DOCTYPE svg PUBLIC "-//W3C//DTD SVG 1.1//EN"
 "http://www.w3.org/Graphics/SVG/1.1/DTD/svg11.dtd">
<!-- Generated by graphviz version 12.2.0 (20241103.1931)
 -->
<!-- Title: include/MyLibrary/Entities/Projectile.h Pages: 1 -->
<svg width="731pt" height="244pt"
 viewBox="0.00 0.00 730.50 244.00" xmlns="http://www.w3.org/2000/svg" xmlns:xlink="http://www.w3.org/1999/xlink">
<g id="graph0" class="graph" transform="scale(1 1) rotate(0) translate(4 240)">
<title>include/MyLibrary/Entities/Projectile.h</title>
<!-- Node1 -->
<g id="Node000001" class="node">
<title>Node1</title>
<g id="a_Node000001"><a xlink:title="Contains the Projectile class and its related methods.">
<polygon fill="#999999" stroke="#666666" points="443.5,-236 315,-236 315,-204 443.5,-204 443.5,-236"/>
<text text-anchor="start" x="323" y="-222.5" font-family="Helvetica,sans-Serif" font-size="10.00">include/MyLibrary/Entities</text>
<text text-anchor="middle" x="379.25" y="-210.5" font-family="Helvetica,sans-Serif" font-size="10.00">/Projectile.h</text>
</a>
</g>
</g>
<!-- Node2 -->
<g id="Node000002" class="node">
<title>Node2</title>
<g id="a_Node000002"><a xlink:href="_gameplay_utility_8cpp.html" target="_top" xlink:title=" ">
<polygon fill="white" stroke="#666666" points="281.88,-100 146.62,-100 146.62,-68 281.88,-68 281.88,-100"/>
<text text-anchor="start" x="154.62" y="-86.5" font-family="Helvetica,sans-Serif" font-size="10.00">include/MyLibrary/Core</text>
<text text-anchor="middle" x="214.25" y="-74.5" font-family="Helvetica,sans-Serif" font-size="10.00">/Utility/GameplayUtility.cpp</text>
</a>
</g>
</g>
<!-- Node1&#45;&gt;Node2 -->
<g id="edge1_Node000001_Node000002" class="edge">
<title>Node1&#45;&gt;Node2</title>
<g id="a_edge1_Node000001_Node000002"><a xlink:title=" ">
<path fill="none" stroke="#63b8ff" d="M303.76,-207.89C278.13,-200.53 251.42,-188.31 233.25,-168 216.49,-149.27 213.61,-118.82 213.57,-100.47"/>
<polygon fill="#63b8ff" stroke="#63b8ff" points="302.62,-211.21 313.18,-210.36 304.4,-204.44 302.62,-211.21"/>
</a>
</g>
</g>
<!-- Node3 -->
<g id="Node000003" class="node">
<title>Node3</title>
<g id="a_Node000003"><a xlink:href="_enemy_8cpp.html" target="_top" xlink:title=" ">
<polygon fill="white" stroke="#666666" points="128.5,-100 0,-100 0,-68 128.5,-68 128.5,-100"/>
<text text-anchor="start" x="8" y="-86.5" font-family="Helvetica,sans-Serif" font-size="10.00">include/MyLibrary/Entities</text>
<text text-anchor="middle" x="64.25" y="-74.5" font-family="Helvetica,sans-Serif" font-size="10.00">/Enemy.cpp</text>
</a>
</g>
</g>
<!-- Node1&#45;&gt;Node3 -->
<g id="edge2_Node000001_Node000003" class="edge">
<title>Node1&#45;&gt;Node3</title>
<g id="a_edge2_Node000001_Node000003"><a xlink:title=" ">
<path fill="none" stroke="#63b8ff" d="M307.95,-200.44C278.46,-191.87 244.21,-180.76 214.25,-168 167.97,-148.29 117.42,-118.43 88.41,-100.41"/>
<polygon fill="#63b8ff" stroke="#63b8ff" points="306.97,-203.8 317.55,-203.18 308.9,-197.07 306.97,-203.8"/>
</a>
</g>
</g>
<!-- Node4 -->
<g id="Node000004" class="node">
<title>Node4</title>
<g id="a_Node000004"><a xlink:href="_enemy_8h.html" target="_top" xlink:title="Contains the Enemy class and its related methods.">
<polygon fill="white" stroke="#666666" points="370.5,-168 242,-168 242,-136 370.5,-136 370.5,-168"/>
<text text-anchor="start" x="250" y="-154.5" font-family="Helvetica,sans-Serif" font-size="10.00">include/MyLibrary/Entities</text>
<text text-anchor="middle" x="306.25" y="-142.5" font-family="Helvetica,sans-Serif" font-size="10.00">/Enemy.h</text>
</a>
</g>
</g>
<!-- Node1&#45;&gt;Node4 -->
<g id="edge3_Node000001_Node000004" class="edge">
<title>Node1&#45;&gt;Node4</title>
<g id="a_edge3_Node000001_Node000004"><a xlink:title=" ">
<path fill="none" stroke="#63b8ff" d="M353.86,-196.05C343.77,-186.92 332.43,-176.67 323.34,-168.45"/>
<polygon fill="#63b8ff" stroke="#63b8ff" points="351.43,-198.57 361.2,-202.68 356.13,-193.37 351.43,-198.57"/>
</a>
</g>
</g>
<!-- Node5 -->
<g id="Node000005" class="node">
<title>Node5</title>
<g id="a_Node000005"><a xlink:href="_projectile_8cpp.html" target="_top" xlink:title=" ">
<polygon fill="white" stroke="#666666" points="575.5,-100 447,-100 447,-68 575.5,-68 575.5,-100"/>
<text text-anchor="start" x="455" y="-86.5" font-family="Helvetica,sans-Serif" font-size="10.00">include/MyLibrary/Entities</text>
<text text-anchor="middle" x="511.25" y="-74.5" font-family="Helvetica,sans-Serif" font-size="10.00">/Projectile.cpp</text>
</a>
</g>
</g>
<!-- Node1&#45;&gt;Node5 -->
<g id="edge11_Node000001_Node000005" class="edge">
<title>Node1&#45;&gt;Node5</title>
<g id="a_edge11_Node000001_Node000005"><a xlink:title=" ">
<path fill="none" stroke="#63b8ff" d="M454.82,-210.92C481.87,-203.96 509.73,-191.21 526.25,-168 540.6,-147.84 529.46,-118.12 520.24,-100.26"/>
<polygon fill="#63b8ff" stroke="#63b8ff" points="454.15,-207.48 445.19,-213.14 455.73,-214.3 454.15,-207.48"/>
</a>
</g>
</g>
<!-- Node6 -->
<g id="Node000006" class="node">
<title>Node6</title>
<g id="a_Node000006"><a xlink:href="_spaceship_8cpp.html" target="_top" xlink:title=" ">
<polygon fill="white" stroke="#666666" points="722.5,-100 594,-100 594,-68 722.5,-68 722.5,-100"/>
<text text-anchor="start" x="602" y="-86.5" font-family="Helvetica,sans-Serif" font-size="10.00">include/MyLibrary/Entities</text>
<text text-anchor="middle" x="658.25" y="-74.5" font-family="Helvetica,sans-Serif" font-size="10.00">/Spaceship.cpp</text>
</a>
</g>
</g>
<!-- Node1&#45;&gt;Node6 -->
<g id="edge12_Node000001_Node000006" class="edge">
<title>Node1&#45;&gt;Node6</title>
<g id="a_edge12_Node000001_Node000006"><a xlink:title=" ">
<path fill="none" stroke="#63b8ff" d="M454.55,-201.11C483.12,-192.91 515.46,-181.88 543.25,-168 580.69,-149.29 619.12,-118.83 640.71,-100.47"/>
<polygon fill="#63b8ff" stroke="#63b8ff" points="453.94,-197.65 445.25,-203.71 455.83,-204.39 453.94,-197.65"/>
</a>
</g>
</g>
<!-- Node10 -->
<g id="Node000010" class="node">
<title>Node10</title>
<g id="a_Node000010"><a xlink:href="_spaceship_8h.html" target="_top" xlink:title="Contains the Spaceship class and its related methods.">
<polygon fill="white" stroke="#666666" points="517.5,-168 389,-168 389,-136 517.5,-136 517.5,-168"/>
<text text-anchor="start" x="397" y="-154.5" font-family="Helvetica,sans-Serif" font-size="10.00">include/MyLibrary/Entities</text>
<text text-anchor="middle" x="453.25" y="-142.5" font-family="Helvetica,sans-Serif" font-size="10.00">/Spaceship.h</text>
</a>
</g>
</g>
<!-- Node1&#45;&gt;Node10 -->
<g id="edge13_Node000001_Node000010" class="edge">
<title>Node1&#45;&gt;Node10</title>
<g id="a_edge13_Node000001_Node000010"><a xlink:title=" ">
<path fill="none" stroke="#63b8ff" d="M404.99,-196.05C415.22,-186.92 426.72,-176.67 435.92,-168.45"/>
<polygon fill="#63b8ff" stroke="#63b8ff" points="402.68,-193.42 397.54,-202.68 407.34,-198.64 402.68,-193.42"/>
</a>
</g>
</g>
<!-- Node4&#45;&gt;Node2 -->
<g id="edge4_Node000004_Node000002" class="edge">
<title>Node4&#45;&gt;Node2</title>
<g id="a_edge4_Node000004_Node000002"><a xlink:title=" ">
<path fill="none" stroke="#63b8ff" d="M275.79,-129.15C262.69,-119.75 247.7,-109 235.79,-100.45"/>
<polygon fill="#63b8ff" stroke="#63b8ff" points="273.52,-131.82 283.68,-134.81 277.6,-126.14 273.52,-131.82"/>
</a>
</g>
</g>
<!-- Node4&#45;&gt;Node3 -->
<g id="edge5_Node000004_Node000003" class="edge">
<title>Node4&#45;&gt;Node3</title>
<g id="a_edge5_Node000004_Node000003"><a xlink:title=" ">
<path fill="none" stroke="#63b8ff" d="M238.8,-132.6C201.74,-122.5 156.28,-110.1 121.05,-100.49"/>
<polygon fill="#63b8ff" stroke="#63b8ff" points="237.48,-135.87 248.05,-135.13 239.32,-129.12 237.48,-135.87"/>
</a>
</g>
</g>
<!-- Node4&#45;&gt;Node5 -->
<g id="edge6_Node000004_Node000005" class="edge">
<title>Node4&#45;&gt;Node5</title>
<g id="a_edge6_Node000004_Node000005"><a xlink:title=" ">
<path fill="none" stroke="#63b8ff" d="M365.01,-132.08C396.1,-122.07 433.8,-109.94 463.13,-100.49"/>
<polygon fill="#63b8ff" stroke="#63b8ff" points="364.2,-128.67 355.75,-135.06 366.35,-135.33 364.2,-128.67"/>
</a>
</g>
</g>
<!-- Node4&#45;&gt;Node6 -->
<g id="edge7_Node000004_Node000006" class="edge">
<title>Node4&#45;&gt;Node6</title>
<g id="a_edge7_Node000004_Node000006"><a xlink:title=" ">
<path fill="none" stroke="#63b8ff" d="M381.89,-135.72C472.56,-118.7 497.24,-116.49 584.25,-100 587.34,-99.41 590.5,-98.81 593.7,-98.19"/>
<polygon fill="#63b8ff" stroke="#63b8ff" points="381.47,-132.24 372.29,-137.53 382.77,-139.12 381.47,-132.24"/>
</a>
</g>
</g>
<!-- Node7 -->
<g id="Node000007" class="node">
<title>Node7</title>
<g id="a_Node000007"><a xlink:href="_level_one_8h.html" target="_top" xlink:title="Contains the LevelOne class for handling the first level of the game.">
<polygon fill="white" stroke="#666666" points="428.5,-100 300,-100 300,-68 428.5,-68 428.5,-100"/>
<text text-anchor="start" x="308" y="-86.5" font-family="Helvetica,sans-Serif" font-size="10.00">include/MyLibrary/Scenes</text>
<text text-anchor="middle" x="364.25" y="-74.5" font-family="Helvetica,sans-Serif" font-size="10.00">/InGame/LevelOne.h</text>
</a>
</g>
</g>
<!-- Node4&#45;&gt;Node7 -->
<g id="edge8_Node000004_Node000007" class="edge">
<title>Node4&#45;&gt;Node7</title>
<g id="a_edge8_Node000004_Node000007"><a xlink:title=" ">
<path fill="none" stroke="#63b8ff" d="M327.21,-127.15C335.1,-118.17 343.86,-108.21 350.87,-100.22"/>
<polygon fill="#63b8ff" stroke="#63b8ff" points="324.67,-124.73 320.7,-134.56 329.93,-129.35 324.67,-124.73"/>
</a>
</g>
</g>
<!-- Node8 -->
<g id="Node000008" class="node">
<title>Node8</title>
<g id="a_Node000008"><a xlink:href="_game_instance_8cpp.html" target="_top" xlink:title=" ">
<polygon fill="white" stroke="#666666" points="367.25,-26 189.25,-26 189.25,-6 367.25,-6 367.25,-26"/>
<text text-anchor="middle" x="278.25" y="-12.5" font-family="Helvetica,sans-Serif" font-size="10.00">include/MyLibrary/GameInstance.cpp</text>
</a>
</g>
</g>
<!-- Node7&#45;&gt;Node8 -->
<g id="edge9_Node000007_Node000008" class="edge">
<title>Node7&#45;&gt;Node8</title>
<g id="a_edge9_Node000007_Node000008"><a xlink:title=" ">
<path fill="none" stroke="#63b8ff" d="M335.21,-60.71C319.92,-48.98 301.99,-35.22 290.39,-26.32"/>
<polygon fill="#63b8ff" stroke="#63b8ff" points="333.04,-63.46 343.1,-66.77 337.3,-57.91 333.04,-63.46"/>
</a>
</g>
</g>
<!-- Node9 -->
<g id="Node000009" class="node">
<title>Node9</title>
<g id="a_Node000009"><a xlink:href="_level_one_8cpp.html" target="_top" xlink:title=" ">
<polygon fill="white" stroke="#666666" points="513.5,-32 385,-32 385,0 513.5,0 513.5,-32"/>
<text text-anchor="start" x="393" y="-18.5" font-family="Helvetica,sans-Serif" font-size="10.00">include/MyLibrary/Scenes</text>
<text text-anchor="middle" x="449.25" y="-6.5" font-family="Helvetica,sans-Serif" font-size="10.00">/InGame/LevelOne.cpp</text>
</a>
</g>
</g>
<!-- Node7&#45;&gt;Node9 -->
<g id="edge10_Node000007_Node000009" class="edge">
<title>Node7&#45;&gt;Node9</title>
<g id="a_edge10_Node000007_Node000009"><a xlink:title=" ">
<path fill="none" stroke="#63b8ff" d="M392.75,-60.87C404.76,-51.55 418.45,-40.91 429.35,-32.45"/>
<polygon fill="#63b8ff" stroke="#63b8ff" points="390.91,-57.87 385.16,-66.76 395.2,-63.4 390.91,-57.87"/>
</a>
</g>
</g>
<!-- Node10&#45;&gt;Node2 -->
<g id="edge14_Node000010_Node000002" class="edge">
<title>Node10&#45;&gt;Node2</title>
<g id="a_edge14_Node000010_Node000002"><a xlink:title=" ">
<path fill="none" stroke="#63b8ff" d="M386.16,-132.47C349.65,-122.39 304.99,-110.06 270.35,-100.49"/>
<polygon fill="#63b8ff" stroke="#63b8ff" points="385.19,-135.83 395.76,-135.12 387.05,-129.09 385.19,-135.83"/>
</a>
</g>
</g>
<!-- Node10&#45;&gt;Node5 -->
<g id="edge15_Node000010_Node000005" class="edge">
<title>Node10&#45;&gt;Node5</title>
<g id="a_edge15_Node000010_Node000005"><a xlink:title=" ">
<path fill="none" stroke="#63b8ff" d="M474.21,-127.15C482.1,-118.17 490.86,-108.21 497.87,-100.22"/>
<polygon fill="#63b8ff" stroke="#63b8ff" points="471.67,-124.73 467.7,-134.56 476.93,-129.35 471.67,-124.73"/>
</a>
</g>
</g>
<!-- Node10&#45;&gt;Node6 -->
<g id="edge16_Node000010_Node000006" class="edge">
<title>Node10&#45;&gt;Node6</title>
<g id="a_edge16_Node000010_Node000006"><a xlink:title=" ">
<path fill="none" stroke="#63b8ff" d="M512.01,-132.08C543.1,-122.07 580.8,-109.94 610.13,-100.49"/>
<polygon fill="#63b8ff" stroke="#63b8ff" points="511.2,-128.67 502.75,-135.06 513.35,-135.33 511.2,-128.67"/>
</a>
</g>
</g>
<!-- Node10&#45;&gt;Node7 -->
<g id="edge17_Node000010_Node000007" class="edge">
<title>Node10&#45;&gt;Node7</title>
<g id="a_edge17_Node000010_Node000007"><a xlink:title=" ">
<path fill="none" stroke="#63b8ff" d="M423.41,-128.87C410.83,-119.55 396.5,-108.91 385.09,-100.45"/>
<polygon fill="#63b8ff" stroke="#63b8ff" points="421.27,-131.65 431.39,-134.79 425.44,-126.02 421.27,-131.65"/>
</a>
</g>
</g>
</g>
</svg>
