<?xml version="1.0" encoding="UTF-8" standalone="no"?>
<!DOCTYPE svg PUBLIC "-//W3C//DTD SVG 1.1//EN"
 "http://www.w3.org/Graphics/SVG/1.1/DTD/svg11.dtd">
<!-- Generated by graphviz version 12.2.0 (20241103.1931)
 -->
<!-- Title: include/MyLibrary/Core/Utility/RandomGen.h Pages: 1 -->
<svg width="3302pt" height="164pt"
 viewBox="0.00 0.00 3302.12 164.00" xmlns="http://www.w3.org/2000/svg" xmlns:xlink="http://www.w3.org/1999/xlink">
<g id="graph0" class="graph" transform="scale(1 1) rotate(0) translate(4 160)">
<title>include/MyLibrary/Core/Utility/RandomGen.h</title>
<!-- Node1 -->
<g id="Node000001" class="node">
<title>Node1</title>
<g id="a_Node000001"><a xlink:title=" ">
<polygon fill="#999999" stroke="#666666" points="857.75,-156 741.25,-156 741.25,-124 857.75,-124 857.75,-156"/>
<text text-anchor="start" x="749.25" y="-142.5" font-family="Helvetica,sans-Serif" font-size="10.00">include/MyLibrary/Core</text>
<text text-anchor="middle" x="799.5" y="-130.5" font-family="Helvetica,sans-Serif" font-size="10.00">/Utility/RandomGen.h</text>
</a>
</g>
</g>
<!-- Node2 -->
<g id="Node000002" class="node">
<title>Node2</title>
<g id="a_Node000002"><a xlink:href="_random_gen_8cpp.html" target="_top" xlink:title=" ">
<polygon fill="white" stroke="#666666" points="121,-32 0,-32 0,0 121,0 121,-32"/>
<text text-anchor="start" x="8" y="-18.5" font-family="Helvetica,sans-Serif" font-size="10.00">include/MyLibrary/Core</text>
<text text-anchor="middle" x="60.5" y="-6.5" font-family="Helvetica,sans-Serif" font-size="10.00">/Utility/RandomGen.cpp</text>
</a>
</g>
</g>
<!-- Node1&#45;&gt;Node2 -->
<g id="edge1_Node000001_Node000002" class="edge">
<title>Node1&#45;&gt;Node2</title>
<g id="a_edge1_Node000001_Node000002"><a xlink:title=" ">
<path fill="none" stroke="#63b8ff" d="M729.8,-129.08C607.93,-111.47 348.35,-72.73 130.5,-32 127.45,-31.43 124.32,-30.83 121.17,-30.2"/>
<polygon fill="#63b8ff" stroke="#63b8ff" points="729.26,-132.54 739.66,-130.51 730.26,-125.61 729.26,-132.54"/>
</a>
</g>
</g>
<!-- Node3 -->
<g id="Node000003" class="node">
<title>Node3</title>
<g id="a_Node000003"><a xlink:href="stdafx_8h.html" target="_top" xlink:title=" ">
<polygon fill="white" stroke="#666666" points="1603.88,-88 1473.12,-88 1473.12,-68 1603.88,-68 1603.88,-88"/>
<text text-anchor="middle" x="1538.5" y="-74.5" font-family="Helvetica,sans-Serif" font-size="10.00">include/MyLibrary/stdafx.h</text>
</a>
</g>
</g>
<!-- Node1&#45;&gt;Node3 -->
<g id="edge2_Node000001_Node000003" class="edge">
<title>Node1&#45;&gt;Node3</title>
<g id="a_edge2_Node000001_Node000003"><a xlink:title=" ">
<path fill="none" stroke="#63b8ff" d="M869.27,-133.34C1011.65,-121.78 1333.93,-95.61 1472.8,-84.33"/>
<polygon fill="#63b8ff" stroke="#63b8ff" points="869.3,-129.82 859.61,-134.12 869.86,-136.8 869.3,-129.82"/>
</a>
</g>
</g>
<!-- Node3&#45;&gt;Node2 -->
<g id="edge9_Node000003_Node000002" class="edge">
<title>Node3&#45;&gt;Node2</title>
<g id="a_edge9_Node000003_Node000002"><a xlink:title=" ">
<path fill="none" stroke="#63b8ff" d="M1461.61,-76.36C1206.8,-73.94 391.41,-63.86 130.5,-32 127.54,-31.64 124.52,-31.21 121.47,-30.74"/>
<polygon fill="#63b8ff" stroke="#63b8ff" points="1461.42,-79.86 1471.45,-76.45 1461.48,-72.86 1461.42,-79.86"/>
</a>
</g>
</g>
<!-- Node4 -->
<g id="Node000004" class="node">
<title>Node4</title>
<g id="a_Node000004"><a xlink:href="_input_manager_8cpp.html" target="_top" xlink:title=" ">
<polygon fill="white" stroke="#666666" points="281.88,-32 139.12,-32 139.12,0 281.88,0 281.88,-32"/>
<text text-anchor="start" x="147.12" y="-18.5" font-family="Helvetica,sans-Serif" font-size="10.00">include/MyLibrary/Core</text>
<text text-anchor="middle" x="210.5" y="-6.5" font-family="Helvetica,sans-Serif" font-size="10.00">/Managers/InputManager.cpp</text>
</a>
</g>
</g>
<!-- Node3&#45;&gt;Node4 -->
<g id="edge3_Node000003_Node000004" class="edge">
<title>Node3&#45;&gt;Node4</title>
<g id="a_edge3_Node000003_Node000004"><a xlink:title=" ">
<path fill="none" stroke="#63b8ff" d="M1461.44,-75.7C1226.26,-71.52 519.94,-57.14 291.5,-32 288.37,-31.66 285.18,-31.26 281.97,-30.82"/>
<polygon fill="#63b8ff" stroke="#63b8ff" points="1461.37,-79.2 1471.43,-75.88 1461.49,-72.2 1461.37,-79.2"/>
</a>
</g>
</g>
<!-- Node5 -->
<g id="Node000005" class="node">
<title>Node5</title>
<g id="a_Node000005"><a xlink:href="_scene_manager_8cpp.html" target="_top" xlink:title=" ">
<polygon fill="white" stroke="#666666" points="448.88,-32 300.12,-32 300.12,0 448.88,0 448.88,-32"/>
<text text-anchor="start" x="308.12" y="-18.5" font-family="Helvetica,sans-Serif" font-size="10.00">include/MyLibrary/Core</text>
<text text-anchor="middle" x="374.5" y="-6.5" font-family="Helvetica,sans-Serif" font-size="10.00">/Managers/SceneManager.cpp</text>
</a>
</g>
</g>
<!-- Node3&#45;&gt;Node5 -->
<g id="edge4_Node000003_Node000005" class="edge">
<title>Node3&#45;&gt;Node5</title>
<g id="a_edge4_Node000003_Node000005"><a xlink:title=" ">
<path fill="none" stroke="#63b8ff" d="M1461.54,-77.35C1284.13,-77.39 832.93,-73.04 458.5,-32 455.41,-31.66 452.26,-31.28 449.08,-30.86"/>
<polygon fill="#63b8ff" stroke="#63b8ff" points="1461.32,-80.85 1471.32,-77.35 1461.31,-73.85 1461.32,-80.85"/>
</a>
</g>
</g>
<!-- Node6 -->
<g id="Node000006" class="node">
<title>Node6</title>
<g id="a_Node000006"><a xlink:href="_sound_manager_8cpp.html" target="_top" xlink:title=" ">
<polygon fill="white" stroke="#666666" points="615.88,-32 467.12,-32 467.12,0 615.88,0 615.88,-32"/>
<text text-anchor="start" x="475.12" y="-18.5" font-family="Helvetica,sans-Serif" font-size="10.00">include/MyLibrary/Core</text>
<text text-anchor="middle" x="541.5" y="-6.5" font-family="Helvetica,sans-Serif" font-size="10.00">/Managers/SoundManager.cpp</text>
</a>
</g>
</g>
<!-- Node3&#45;&gt;Node6 -->
<g id="edge5_Node000003_Node000006" class="edge">
<title>Node3&#45;&gt;Node6</title>
<g id="a_edge5_Node000003_Node000006"><a xlink:title=" ">
<path fill="none" stroke="#63b8ff" d="M1461.44,-76.57C1303.79,-74.95 933.25,-67.35 624.5,-32 621.74,-31.68 618.92,-31.33 616.09,-30.95"/>
<polygon fill="#63b8ff" stroke="#63b8ff" points="1461.33,-80.07 1471.36,-76.67 1461.39,-73.07 1461.33,-80.07"/>
</a>
</g>
</g>
<!-- Node7 -->
<g id="Node000007" class="node">
<title>Node7</title>
<g id="a_Node000007"><a xlink:href="_gameplay_utility_8cpp.html" target="_top" xlink:title=" ">
<polygon fill="white" stroke="#666666" points="769.12,-32 633.88,-32 633.88,0 769.12,0 769.12,-32"/>
<text text-anchor="start" x="641.88" y="-18.5" font-family="Helvetica,sans-Serif" font-size="10.00">include/MyLibrary/Core</text>
<text text-anchor="middle" x="701.5" y="-6.5" font-family="Helvetica,sans-Serif" font-size="10.00">/Utility/GameplayUtility.cpp</text>
</a>
</g>
</g>
<!-- Node3&#45;&gt;Node7 -->
<g id="edge6_Node000003_Node000007" class="edge">
<title>Node3&#45;&gt;Node7</title>
<g id="a_edge6_Node000003_Node000007"><a xlink:title=" ">
<path fill="none" stroke="#63b8ff" d="M1461.43,-75.82C1323.8,-72.97 1026.9,-63.41 778.5,-32 775.53,-31.62 772.5,-31.2 769.44,-30.74"/>
<polygon fill="#63b8ff" stroke="#63b8ff" points="1461.08,-79.32 1471.14,-76.02 1461.22,-72.32 1461.08,-79.32"/>
</a>
</g>
</g>
<!-- Node8 -->
<g id="Node000008" class="node">
<title>Node8</title>
<g id="a_Node000008"><a xlink:href="_helper_8cpp.html" target="_top" xlink:title=" ">
<polygon fill="white" stroke="#666666" points="903.75,-32 787.25,-32 787.25,0 903.75,0 903.75,-32"/>
<text text-anchor="start" x="795.25" y="-18.5" font-family="Helvetica,sans-Serif" font-size="10.00">include/MyLibrary/Core</text>
<text text-anchor="middle" x="845.5" y="-6.5" font-family="Helvetica,sans-Serif" font-size="10.00">/Utility/Helper.cpp</text>
</a>
</g>
</g>
<!-- Node3&#45;&gt;Node8 -->
<g id="edge7_Node000003_Node000008" class="edge">
<title>Node3&#45;&gt;Node8</title>
<g id="a_edge7_Node000003_Node000008"><a xlink:title=" ">
<path fill="none" stroke="#63b8ff" d="M1461.49,-75.05C1343.14,-71.25 1109.63,-60.54 913.5,-32 910.39,-31.55 907.21,-31.03 904.01,-30.47"/>
<polygon fill="#63b8ff" stroke="#63b8ff" points="1461.31,-78.55 1471.42,-75.36 1461.53,-71.55 1461.31,-78.55"/>
</a>
</g>
</g>
<!-- Node9 -->
<g id="Node000009" class="node">
<title>Node9</title>
<g id="a_Node000009"><a xlink:href="_log_8cpp.html" target="_top" xlink:title=" ">
<polygon fill="white" stroke="#666666" points="1038.75,-32 922.25,-32 922.25,0 1038.75,0 1038.75,-32"/>
<text text-anchor="start" x="930.25" y="-18.5" font-family="Helvetica,sans-Serif" font-size="10.00">include/MyLibrary/Core</text>
<text text-anchor="middle" x="980.5" y="-6.5" font-family="Helvetica,sans-Serif" font-size="10.00">/Utility/Log.cpp</text>
</a>
</g>
</g>
<!-- Node3&#45;&gt;Node9 -->
<g id="edge8_Node000003_Node000009" class="edge">
<title>Node3&#45;&gt;Node9</title>
<g id="a_edge8_Node000003_Node000009"><a xlink:title=" ">
<path fill="none" stroke="#63b8ff" d="M1461.36,-72.92C1364.51,-67.1 1193.49,-54.56 1048.5,-32 1045.39,-31.52 1042.22,-30.98 1039.02,-30.4"/>
<polygon fill="#63b8ff" stroke="#63b8ff" points="1461.09,-76.41 1471.28,-73.5 1461.5,-69.42 1461.09,-76.41"/>
</a>
</g>
</g>
<!-- Node10 -->
<g id="Node000010" class="node">
<title>Node10</title>
<g id="a_Node000010"><a xlink:href="_timer_8cpp.html" target="_top" xlink:title=" ">
<polygon fill="white" stroke="#666666" points="1173.75,-32 1057.25,-32 1057.25,0 1173.75,0 1173.75,-32"/>
<text text-anchor="start" x="1065.25" y="-18.5" font-family="Helvetica,sans-Serif" font-size="10.00">include/MyLibrary/Core</text>
<text text-anchor="middle" x="1115.5" y="-6.5" font-family="Helvetica,sans-Serif" font-size="10.00">/Utility/Timer.cpp</text>
</a>
</g>
</g>
<!-- Node3&#45;&gt;Node10 -->
<g id="edge10_Node000003_Node000010" class="edge">
<title>Node3&#45;&gt;Node10</title>
<g id="a_edge10_Node000003_Node000010"><a xlink:title=" ">
<path fill="none" stroke="#63b8ff" d="M1461.57,-69.29C1389.46,-61.58 1278.79,-48.51 1183.5,-32 1180.4,-31.46 1177.23,-30.88 1174.04,-30.27"/>
<polygon fill="#63b8ff" stroke="#63b8ff" points="1460.99,-72.75 1471.3,-70.32 1461.72,-65.79 1460.99,-72.75"/>
</a>
</g>
</g>
<!-- Node11 -->
<g id="Node000011" class="node">
<title>Node11</title>
<g id="a_Node000011"><a xlink:href="_vector2_8cpp.html" target="_top" xlink:title=" ">
<polygon fill="white" stroke="#666666" points="1308.75,-32 1192.25,-32 1192.25,0 1308.75,0 1308.75,-32"/>
<text text-anchor="start" x="1200.25" y="-18.5" font-family="Helvetica,sans-Serif" font-size="10.00">include/MyLibrary/Core</text>
<text text-anchor="middle" x="1250.5" y="-6.5" font-family="Helvetica,sans-Serif" font-size="10.00">/Utility/Vector2.cpp</text>
</a>
</g>
</g>
<!-- Node3&#45;&gt;Node11 -->
<g id="edge11_Node000003_Node000011" class="edge">
<title>Node3&#45;&gt;Node11</title>
<g id="a_edge11_Node000003_Node000011"><a xlink:title=" ">
<path fill="none" stroke="#63b8ff" d="M1480.09,-65.31C1435.73,-56.36 1373.22,-43.63 1318.5,-32 1315.43,-31.35 1312.27,-30.67 1309.09,-29.98"/>
<polygon fill="#63b8ff" stroke="#63b8ff" points="1479.27,-68.71 1489.77,-67.25 1480.65,-61.85 1479.27,-68.71"/>
</a>
</g>
</g>
<!-- Node12 -->
<g id="Node000012" class="node">
<title>Node12</title>
<g id="a_Node000012"><a xlink:href="_cursor_8cpp.html" target="_top" xlink:title=" ">
<polygon fill="white" stroke="#666666" points="1455.75,-32 1327.25,-32 1327.25,0 1455.75,0 1455.75,-32"/>
<text text-anchor="start" x="1335.25" y="-18.5" font-family="Helvetica,sans-Serif" font-size="10.00">include/MyLibrary/Entities</text>
<text text-anchor="middle" x="1391.5" y="-6.5" font-family="Helvetica,sans-Serif" font-size="10.00">/Cursor.cpp</text>
</a>
</g>
</g>
<!-- Node3&#45;&gt;Node12 -->
<g id="edge12_Node000003_Node000012" class="edge">
<title>Node3&#45;&gt;Node12</title>
<g id="a_edge12_Node000003_Node000012"><a xlink:title=" ">
<path fill="none" stroke="#63b8ff" d="M1505.12,-63.38C1482.61,-54.19 1452.86,-42.05 1429.45,-32.49"/>
<polygon fill="#63b8ff" stroke="#63b8ff" points="1503.55,-66.51 1514.13,-67.05 1506.19,-60.03 1503.55,-66.51"/>
</a>
</g>
</g>
<!-- Node13 -->
<g id="Node000013" class="node">
<title>Node13</title>
<g id="a_Node000013"><a xlink:href="_enemy_8cpp.html" target="_top" xlink:title=" ">
<polygon fill="white" stroke="#666666" points="1602.75,-32 1474.25,-32 1474.25,0 1602.75,0 1602.75,-32"/>
<text text-anchor="start" x="1482.25" y="-18.5" font-family="Helvetica,sans-Serif" font-size="10.00">include/MyLibrary/Entities</text>
<text text-anchor="middle" x="1538.5" y="-6.5" font-family="Helvetica,sans-Serif" font-size="10.00">/Enemy.cpp</text>
</a>
</g>
</g>
<!-- Node3&#45;&gt;Node13 -->
<g id="edge13_Node000003_Node000013" class="edge">
<title>Node3&#45;&gt;Node13</title>
<g id="a_edge13_Node000003_Node000013"><a xlink:title=" ">
<path fill="none" stroke="#63b8ff" d="M1538.5,-56.31C1538.5,-48.37 1538.5,-39.46 1538.5,-32.14"/>
<polygon fill="#63b8ff" stroke="#63b8ff" points="1535,-56.11 1538.5,-66.11 1542,-56.11 1535,-56.11"/>
</a>
</g>
</g>
<!-- Node14 -->
<g id="Node000014" class="node">
<title>Node14</title>
<g id="a_Node000014"><a xlink:href="_projectile_8cpp.html" target="_top" xlink:title=" ">
<polygon fill="white" stroke="#666666" points="1749.75,-32 1621.25,-32 1621.25,0 1749.75,0 1749.75,-32"/>
<text text-anchor="start" x="1629.25" y="-18.5" font-family="Helvetica,sans-Serif" font-size="10.00">include/MyLibrary/Entities</text>
<text text-anchor="middle" x="1685.5" y="-6.5" font-family="Helvetica,sans-Serif" font-size="10.00">/Projectile.cpp</text>
</a>
</g>
</g>
<!-- Node3&#45;&gt;Node14 -->
<g id="edge14_Node000003_Node000014" class="edge">
<title>Node3&#45;&gt;Node14</title>
<g id="a_edge14_Node000003_Node000014"><a xlink:title=" ">
<path fill="none" stroke="#63b8ff" d="M1571.88,-63.38C1594.39,-54.19 1624.14,-42.05 1647.55,-32.49"/>
<polygon fill="#63b8ff" stroke="#63b8ff" points="1570.81,-60.03 1562.87,-67.05 1573.45,-66.51 1570.81,-60.03"/>
</a>
</g>
</g>
<!-- Node15 -->
<g id="Node000015" class="node">
<title>Node15</title>
<g id="a_Node000015"><a xlink:href="_spaceship_8cpp.html" target="_top" xlink:title=" ">
<polygon fill="white" stroke="#666666" points="1896.75,-32 1768.25,-32 1768.25,0 1896.75,0 1896.75,-32"/>
<text text-anchor="start" x="1776.25" y="-18.5" font-family="Helvetica,sans-Serif" font-size="10.00">include/MyLibrary/Entities</text>
<text text-anchor="middle" x="1832.5" y="-6.5" font-family="Helvetica,sans-Serif" font-size="10.00">/Spaceship.cpp</text>
</a>
</g>
</g>
<!-- Node3&#45;&gt;Node15 -->
<g id="edge15_Node000003_Node000015" class="edge">
<title>Node3&#45;&gt;Node15</title>
<g id="a_edge15_Node000003_Node000015"><a xlink:title=" ">
<path fill="none" stroke="#63b8ff" d="M1595.89,-65.29C1645.3,-55.2 1716.56,-40.66 1767.95,-30.17"/>
<polygon fill="#63b8ff" stroke="#63b8ff" points="1595.34,-61.83 1586.24,-67.26 1596.74,-68.69 1595.34,-61.83"/>
</a>
</g>
</g>
<!-- Node16 -->
<g id="Node000016" class="node">
<title>Node16</title>
<g id="a_Node000016"><a xlink:href="_game_instance_8cpp.html" target="_top" xlink:title=" ">
<polygon fill="white" stroke="#666666" points="2092.5,-26 1914.5,-26 1914.5,-6 2092.5,-6 2092.5,-26"/>
<text text-anchor="middle" x="2003.5" y="-12.5" font-family="Helvetica,sans-Serif" font-size="10.00">include/MyLibrary/GameInstance.cpp</text>
</a>
</g>
</g>
<!-- Node3&#45;&gt;Node16 -->
<g id="edge16_Node000003_Node000016" class="edge">
<title>Node3&#45;&gt;Node16</title>
<g id="a_edge16_Node000003_Node000016"><a xlink:title=" ">
<path fill="none" stroke="#63b8ff" d="M1615.32,-68.26C1689.63,-59.64 1805.39,-45.8 1905.5,-32 1917.78,-30.31 1930.9,-28.38 1943.42,-26.49"/>
<polygon fill="#63b8ff" stroke="#63b8ff" points="1615.24,-64.74 1605.71,-69.37 1616.05,-71.7 1615.24,-64.74"/>
</a>
</g>
</g>
<!-- Node17 -->
<g id="Node000017" class="node">
<title>Node17</title>
<g id="a_Node000017"><a xlink:href="_credits_8cpp.html" target="_top" xlink:title=" ">
<polygon fill="white" stroke="#666666" points="2238.75,-32 2110.25,-32 2110.25,0 2238.75,0 2238.75,-32"/>
<text text-anchor="start" x="2118.25" y="-18.5" font-family="Helvetica,sans-Serif" font-size="10.00">include/MyLibrary/Scenes</text>
<text text-anchor="middle" x="2174.5" y="-6.5" font-family="Helvetica,sans-Serif" font-size="10.00">/Credits/Credits.cpp</text>
</a>
</g>
</g>
<!-- Node3&#45;&gt;Node17 -->
<g id="edge17_Node000003_Node000017" class="edge">
<title>Node3&#45;&gt;Node17</title>
<g id="a_edge17_Node000003_Node000017"><a xlink:title=" ">
<path fill="none" stroke="#63b8ff" d="M1615.41,-73.85C1724.12,-68.72 1928.75,-56.56 2101.5,-32 2104.32,-31.6 2107.19,-31.16 2110.09,-30.68"/>
<polygon fill="#63b8ff" stroke="#63b8ff" points="1615.57,-70.34 1605.75,-74.3 1615.9,-77.33 1615.57,-70.34"/>
</a>
</g>
</g>
<!-- Node18 -->
<g id="Node000018" class="node">
<title>Node18</title>
<g id="a_Node000018"><a xlink:href="_game_over_8cpp.html" target="_top" xlink:title=" ">
<polygon fill="white" stroke="#666666" points="2392.12,-32 2256.88,-32 2256.88,0 2392.12,0 2392.12,-32"/>
<text text-anchor="start" x="2264.88" y="-18.5" font-family="Helvetica,sans-Serif" font-size="10.00">include/MyLibrary/Scenes</text>
<text text-anchor="middle" x="2324.5" y="-6.5" font-family="Helvetica,sans-Serif" font-size="10.00">/GameOver/GameOver.cpp</text>
</a>
</g>
</g>
<!-- Node3&#45;&gt;Node18 -->
<g id="edge18_Node000003_Node000018" class="edge">
<title>Node3&#45;&gt;Node18</title>
<g id="a_edge18_Node000003_Node000018"><a xlink:title=" ">
<path fill="none" stroke="#63b8ff" d="M1615.69,-75.36C1746.28,-71.85 2018.91,-61.39 2247.5,-32 2250.47,-31.62 2253.5,-31.19 2256.56,-30.73"/>
<polygon fill="#63b8ff" stroke="#63b8ff" points="1615.68,-71.86 1605.77,-75.62 1615.86,-78.85 1615.68,-71.86"/>
</a>
</g>
</g>
<!-- Node19 -->
<g id="Node000019" class="node">
<title>Node19</title>
<g id="a_Node000019"><a xlink:href="_level_one_8cpp.html" target="_top" xlink:title=" ">
<polygon fill="white" stroke="#666666" points="2538.75,-32 2410.25,-32 2410.25,0 2538.75,0 2538.75,-32"/>
<text text-anchor="start" x="2418.25" y="-18.5" font-family="Helvetica,sans-Serif" font-size="10.00">include/MyLibrary/Scenes</text>
<text text-anchor="middle" x="2474.5" y="-6.5" font-family="Helvetica,sans-Serif" font-size="10.00">/InGame/LevelOne.cpp</text>
</a>
</g>
</g>
<!-- Node3&#45;&gt;Node19 -->
<g id="edge19_Node000003_Node000019" class="edge">
<title>Node3&#45;&gt;Node19</title>
<g id="a_edge19_Node000003_Node000019"><a xlink:title=" ">
<path fill="none" stroke="#63b8ff" d="M1615.73,-76.86C1767.12,-75.73 2113.24,-68.92 2401.5,-32 2404.32,-31.64 2407.2,-31.23 2410.1,-30.78"/>
<polygon fill="#63b8ff" stroke="#63b8ff" points="1615.79,-73.36 1605.81,-76.93 1615.84,-80.36 1615.79,-73.36"/>
</a>
</g>
</g>
<!-- Node20 -->
<g id="Node000020" class="node">
<title>Node20</title>
<g id="a_Node000020"><a xlink:href="_level_two_8cpp.html" target="_top" xlink:title=" ">
<polygon fill="white" stroke="#666666" points="2685.75,-32 2557.25,-32 2557.25,0 2685.75,0 2685.75,-32"/>
<text text-anchor="start" x="2565.25" y="-18.5" font-family="Helvetica,sans-Serif" font-size="10.00">include/MyLibrary/Scenes</text>
<text text-anchor="middle" x="2621.5" y="-6.5" font-family="Helvetica,sans-Serif" font-size="10.00">/InGame/LevelTwo.cpp</text>
</a>
</g>
</g>
<!-- Node3&#45;&gt;Node20 -->
<g id="edge20_Node000003_Node000020" class="edge">
<title>Node3&#45;&gt;Node20</title>
<g id="a_edge20_Node000003_Node000020"><a xlink:title=" ">
<path fill="none" stroke="#63b8ff" d="M1615.58,-77.63C1784.89,-78.13 2201.71,-74.5 2547.5,-32 2550.62,-31.62 2553.81,-31.17 2557.02,-30.68"/>
<polygon fill="#63b8ff" stroke="#63b8ff" points="1615.84,-74.13 1605.82,-77.6 1615.81,-81.13 1615.84,-74.13"/>
</a>
</g>
</g>
<!-- Node21 -->
<g id="Node000021" class="node">
<title>Node21</title>
<g id="a_Node000021"><a xlink:href="_intro_8cpp.html" target="_top" xlink:title=" ">
<polygon fill="white" stroke="#666666" points="2832.75,-32 2704.25,-32 2704.25,0 2832.75,0 2832.75,-32"/>
<text text-anchor="start" x="2712.25" y="-18.5" font-family="Helvetica,sans-Serif" font-size="10.00">include/MyLibrary/Scenes</text>
<text text-anchor="middle" x="2768.5" y="-6.5" font-family="Helvetica,sans-Serif" font-size="10.00">/Intro/Intro.cpp</text>
</a>
</g>
</g>
<!-- Node3&#45;&gt;Node21 -->
<g id="edge21_Node000003_Node000021" class="edge">
<title>Node3&#45;&gt;Node21</title>
<g id="a_edge21_Node000003_Node000021"><a xlink:title=" ">
<path fill="none" stroke="#63b8ff" d="M1615.29,-75.63C1838.51,-71.38 2484.65,-57.19 2694.5,-32 2697.62,-31.63 2700.81,-31.19 2704.03,-30.71"/>
<polygon fill="#63b8ff" stroke="#63b8ff" points="1615.48,-72.12 1605.55,-75.81 1615.61,-79.12 1615.48,-72.12"/>
</a>
</g>
</g>
<!-- Node22 -->
<g id="Node000022" class="node">
<title>Node22</title>
<g id="a_Node000022"><a xlink:href="_main_menu_8cpp.html" target="_top" xlink:title=" ">
<polygon fill="white" stroke="#666666" points="2981.88,-32 2851.12,-32 2851.12,0 2981.88,0 2981.88,-32"/>
<text text-anchor="start" x="2859.12" y="-18.5" font-family="Helvetica,sans-Serif" font-size="10.00">include/MyLibrary/Scenes</text>
<text text-anchor="middle" x="2916.5" y="-6.5" font-family="Helvetica,sans-Serif" font-size="10.00">/MainMenu/MainMenu.cpp</text>
</a>
</g>
</g>
<!-- Node3&#45;&gt;Node22 -->
<g id="edge22_Node000003_Node000022" class="edge">
<title>Node3&#45;&gt;Node22</title>
<g id="a_edge22_Node000003_Node000022"><a xlink:title=" ">
<path fill="none" stroke="#63b8ff" d="M1615.71,-75.98C1858.09,-72.54 2601.9,-59.91 2841.5,-32 2844.53,-31.65 2847.63,-31.24 2850.75,-30.78"/>
<polygon fill="#63b8ff" stroke="#63b8ff" points="1615.67,-72.48 1605.72,-76.13 1615.77,-79.48 1615.67,-72.48"/>
</a>
</g>
</g>
<!-- Node23 -->
<g id="Node000023" class="node">
<title>Node23</title>
<g id="a_Node000023"><a xlink:href="main_8cpp.html" target="_top" xlink:title=" ">
<polygon fill="white" stroke="#666666" points="3135.12,-26 2999.88,-26 2999.88,-6 3135.12,-6 3135.12,-26"/>
<text text-anchor="middle" x="3067.5" y="-12.5" font-family="Helvetica,sans-Serif" font-size="10.00">include/MyLibrary/main.cpp</text>
</a>
</g>
</g>
<!-- Node3&#45;&gt;Node23 -->
<g id="edge23_Node000003_Node000023" class="edge">
<title>Node3&#45;&gt;Node23</title>
<g id="a_edge23_Node000003_Node000023"><a xlink:title=" ">
<path fill="none" stroke="#63b8ff" d="M1615.58,-76.25C1875.78,-73.48 2720.39,-62.29 2990.5,-32 3001.87,-30.72 3014.07,-28.67 3025.33,-26.49"/>
<polygon fill="#63b8ff" stroke="#63b8ff" points="1615.84,-72.75 1605.88,-76.36 1615.92,-79.75 1615.84,-72.75"/>
</a>
</g>
</g>
<!-- Node24 -->
<g id="Node000024" class="node">
<title>Node24</title>
<g id="a_Node000024"><a xlink:href="stdafx_8cpp.html" target="_top" xlink:title=" ">
<polygon fill="white" stroke="#666666" points="3294.12,-26 3152.88,-26 3152.88,-6 3294.12,-6 3294.12,-26"/>
<text text-anchor="middle" x="3223.5" y="-12.5" font-family="Helvetica,sans-Serif" font-size="10.00">include/MyLibrary/stdafx.cpp</text>
</a>
</g>
</g>
<!-- Node3&#45;&gt;Node24 -->
<g id="edge24_Node000003_Node000024" class="edge">
<title>Node3&#45;&gt;Node24</title>
<g id="a_edge24_Node000003_Node000024"><a xlink:title=" ">
<path fill="none" stroke="#63b8ff" d="M1615.19,-76.47C1892.5,-74.32 2842.6,-64.68 3144.5,-32 3156.3,-30.72 3168.97,-28.64 3180.64,-26.43"/>
<polygon fill="#63b8ff" stroke="#63b8ff" points="1615.54,-72.97 1605.57,-76.55 1615.59,-79.97 1615.54,-72.97"/>
</a>
</g>
</g>
</g>
</svg>
