<?xml version="1.0" encoding="UTF-8" standalone="no"?>
<!DOCTYPE svg PUBLIC "-//W3C//DTD SVG 1.1//EN"
 "http://www.w3.org/Graphics/SVG/1.1/DTD/svg11.dtd">
<!-- Generated by graphviz version 12.2.0 (20241103.1931)
 -->
<!-- Title: include/MyLibrary/Core/Managers/SceneManager.cpp Pages: 1 -->
<svg width="2671pt" height="152pt"
 viewBox="0.00 0.00 2671.38 152.00" xmlns="http://www.w3.org/2000/svg" xmlns:xlink="http://www.w3.org/1999/xlink">
<g id="graph0" class="graph" transform="scale(1 1) rotate(0) translate(4 148)">
<title>include/MyLibrary/Core/Managers/SceneManager.cpp</title>
<!-- Node1 -->
<g id="Node000001" class="node">
<title>Node1</title>
<g id="a_Node000001"><a xlink:title=" ">
<polygon fill="#999999" stroke="#666666" points="1932.12,-144 1783.38,-144 1783.38,-112 1932.12,-112 1932.12,-144"/>
<text text-anchor="start" x="1791.38" y="-130.5" font-family="Helvetica,sans-Serif" font-size="10.00">include/MyLibrary/Core</text>
<text text-anchor="middle" x="1857.75" y="-118.5" font-family="Helvetica,sans-Serif" font-size="10.00">/Managers/SceneManager.cpp</text>
</a>
</g>
</g>
<!-- Node2 -->
<g id="Node000002" class="node">
<title>Node2</title>
<g id="a_Node000002"><a xlink:href="stdafx_8h.html" target="_top" xlink:title=" ">
<polygon fill="white" stroke="#666666" points="1103.38,-76 1052.12,-76 1052.12,-56 1103.38,-56 1103.38,-76"/>
<text text-anchor="middle" x="1077.75" y="-62.5" font-family="Helvetica,sans-Serif" font-size="10.00">stdafx.h</text>
</a>
</g>
</g>
<!-- Node1&#45;&gt;Node2 -->
<g id="edge1_Node000001_Node000002" class="edge">
<title>Node1&#45;&gt;Node2</title>
<g id="a_edge1_Node000001_Node000002"><a xlink:title=" ">
<path fill="none" stroke="#63b8ff" d="M1782.96,-121.25C1619.49,-108.67 1235.32,-79.12 1114.68,-69.84"/>
<polygon fill="#63b8ff" stroke="#63b8ff" points="1115.27,-66.38 1105.03,-69.1 1114.73,-73.35 1115.27,-66.38"/>
</a>
</g>
</g>
<!-- Node30 -->
<g id="Node000030" class="node">
<title>Node30</title>
<g id="a_Node000030"><a xlink:href="_scene_manager_8h.html" target="_top" xlink:title="Contains the SceneID enum, IGameScene interface, and SceneManager class.">
<polygon fill="white" stroke="#666666" points="2663.38,-20 2504.12,-20 2504.12,0 2663.38,0 2663.38,-20"/>
<text text-anchor="middle" x="2583.75" y="-6.5" font-family="Helvetica,sans-Serif" font-size="10.00">Core/Managers/SceneManager.h</text>
</a>
</g>
</g>
<!-- Node1&#45;&gt;Node30 -->
<g id="edge33_Node000001_Node000030" class="edge">
<title>Node1&#45;&gt;Node30</title>
<g id="a_edge33_Node000001_Node000030"><a xlink:title=" ">
<path fill="none" stroke="#63b8ff" d="M1857.06,-111.51C1857.25,-94.95 1860.43,-69.3 1876.75,-56 1927.97,-14.27 2387.06,-24.53 2492.18,-20.01"/>
<polygon fill="#63b8ff" stroke="#63b8ff" points="2492.38,-23.5 2502.16,-19.43 2491.97,-16.51 2492.38,-23.5"/>
</a>
</g>
</g>
<!-- Node34 -->
<g id="Node000034" class="node">
<title>Node34</title>
<g id="a_Node000034"><a xlink:title=" ">
<polygon fill="#e0e0e0" stroke="#999999" points="1933.88,-76 1885.62,-76 1885.62,-56 1933.88,-56 1933.88,-76"/>
<text text-anchor="middle" x="1909.75" y="-62.5" font-family="Helvetica,sans-Serif" font-size="10.00">cassert</text>
</a>
</g>
</g>
<!-- Node1&#45;&gt;Node34 -->
<g id="edge34_Node000001_Node000034" class="edge">
<title>Node1&#45;&gt;Node34</title>
<g id="a_edge34_Node000001_Node000034"><a xlink:title=" ">
<path fill="none" stroke="#63b8ff" d="M1871.14,-111.55C1878.21,-103.39 1886.93,-93.33 1894.29,-84.84"/>
<polygon fill="#63b8ff" stroke="#63b8ff" points="1896.7,-87.4 1900.61,-77.55 1891.41,-82.82 1896.7,-87.4"/>
</a>
</g>
</g>
<!-- Node3 -->
<g id="Node000003" class="node">
<title>Node3</title>
<g id="a_Node000003"><a xlink:title=" ">
<polygon fill="#e0e0e0" stroke="#999999" points="53.5,-20 0,-20 0,0 53.5,0 53.5,-20"/>
<text text-anchor="middle" x="26.75" y="-6.5" font-family="Helvetica,sans-Serif" font-size="10.00">iostream</text>
</a>
</g>
</g>
<!-- Node2&#45;&gt;Node3 -->
<g id="edge2_Node000002_Node000003" class="edge">
<title>Node2&#45;&gt;Node3</title>
<g id="a_edge2_Node000002_Node000003"><a xlink:title=" ">
<path fill="none" stroke="#63b8ff" d="M1052.03,-64.56C916.66,-62.14 284.93,-49.5 65.16,-19.97"/>
<polygon fill="#63b8ff" stroke="#63b8ff" points="65.65,-16.51 55.26,-18.58 64.68,-23.44 65.65,-16.51"/>
</a>
</g>
</g>
<!-- Node4 -->
<g id="Node000004" class="node">
<title>Node4</title>
<g id="a_Node000004"><a xlink:title=" ">
<polygon fill="#e0e0e0" stroke="#999999" points="111.75,-20 71.75,-20 71.75,0 111.75,0 111.75,-20"/>
<text text-anchor="middle" x="91.75" y="-6.5" font-family="Helvetica,sans-Serif" font-size="10.00">string</text>
</a>
</g>
</g>
<!-- Node2&#45;&gt;Node4 -->
<g id="edge3_Node000002_Node000004" class="edge">
<title>Node2&#45;&gt;Node4</title>
<g id="a_edge3_Node000002_Node000004"><a xlink:title=" ">
<path fill="none" stroke="#63b8ff" d="M1051.74,-64.67C920.5,-62.86 329.6,-53.12 123.46,-19.95"/>
<polygon fill="#63b8ff" stroke="#63b8ff" points="124.12,-16.52 113.68,-18.3 122.96,-23.42 124.12,-16.52"/>
</a>
</g>
</g>
<!-- Node5 -->
<g id="Node000005" class="node">
<title>Node5</title>
<g id="a_Node000005"><a xlink:title=" ">
<polygon fill="#e0e0e0" stroke="#999999" points="173.25,-20 130.25,-20 130.25,0 173.25,0 173.25,-20"/>
<text text-anchor="middle" x="151.75" y="-6.5" font-family="Helvetica,sans-Serif" font-size="10.00">vector</text>
</a>
</g>
</g>
<!-- Node2&#45;&gt;Node5 -->
<g id="edge4_Node000002_Node000005" class="edge">
<title>Node2&#45;&gt;Node5</title>
<g id="a_edge4_Node000002_Node000005"><a xlink:title=" ">
<path fill="none" stroke="#63b8ff" d="M1051.76,-64.51C925.92,-62 378.49,-49.68 184.77,-19.84"/>
<polygon fill="#63b8ff" stroke="#63b8ff" points="185.54,-16.42 175.11,-18.27 184.43,-23.33 185.54,-16.42"/>
</a>
</g>
</g>
<!-- Node6 -->
<g id="Node000006" class="node">
<title>Node6</title>
<g id="a_Node000006"><a xlink:title=" ">
<polygon fill="#e0e0e0" stroke="#999999" points="226.12,-20 191.38,-20 191.38,0 226.12,0 226.12,-20"/>
<text text-anchor="middle" x="208.75" y="-6.5" font-family="Helvetica,sans-Serif" font-size="10.00">map</text>
</a>
</g>
</g>
<!-- Node2&#45;&gt;Node6 -->
<g id="edge5_Node000002_Node000006" class="edge">
<title>Node2&#45;&gt;Node6</title>
<g id="a_edge5_Node000002_Node000006"><a xlink:title=" ">
<path fill="none" stroke="#63b8ff" d="M1051.65,-64.55C930.31,-62.3 419.98,-51.26 237.84,-19.74"/>
<polygon fill="#63b8ff" stroke="#63b8ff" points="238.54,-16.31 228.07,-17.96 237.28,-23.2 238.54,-16.31"/>
</a>
</g>
</g>
<!-- Node7 -->
<g id="Node000007" class="node">
<title>Node7</title>
<g id="a_Node000007"><a xlink:title=" ">
<polygon fill="#e0e0e0" stroke="#999999" points="327.12,-20 244.38,-20 244.38,0 327.12,0 327.12,-20"/>
<text text-anchor="middle" x="285.75" y="-6.5" font-family="Helvetica,sans-Serif" font-size="10.00">unordered_map</text>
</a>
</g>
</g>
<!-- Node2&#45;&gt;Node7 -->
<g id="edge6_Node000002_Node000007" class="edge">
<title>Node2&#45;&gt;Node7</title>
<g id="a_edge6_Node000002_Node000007"><a xlink:title=" ">
<path fill="none" stroke="#63b8ff" d="M1051.69,-64.53C957.23,-62.58 623.72,-53.69 338.83,-20.24"/>
<polygon fill="#63b8ff" stroke="#63b8ff" points="339.28,-16.77 328.94,-19.06 338.46,-23.72 339.28,-16.77"/>
</a>
</g>
</g>
<!-- Node8 -->
<g id="Node000008" class="node">
<title>Node8</title>
<g id="a_Node000008"><a xlink:title=" ">
<polygon fill="#e0e0e0" stroke="#999999" points="422.5,-20 345,-20 345,0 422.5,0 422.5,-20"/>
<text text-anchor="middle" x="383.75" y="-6.5" font-family="Helvetica,sans-Serif" font-size="10.00">unordered_set</text>
</a>
</g>
</g>
<!-- Node2&#45;&gt;Node8 -->
<g id="edge7_Node000002_Node000008" class="edge">
<title>Node2&#45;&gt;Node8</title>
<g id="a_edge7_Node000002_Node000008"><a xlink:title=" ">
<path fill="none" stroke="#63b8ff" d="M1051.75,-64.31C965.33,-61.78 679.64,-51.54 434.22,-20.32"/>
<polygon fill="#63b8ff" stroke="#63b8ff" points="434.8,-16.87 424.43,-19.06 433.9,-23.81 434.8,-16.87"/>
</a>
</g>
</g>
<!-- Node9 -->
<g id="Node000009" class="node">
<title>Node9</title>
<g id="a_Node000009"><a xlink:title=" ">
<polygon fill="#e0e0e0" stroke="#999999" points="491.38,-20 440.12,-20 440.12,0 491.38,0 491.38,-20"/>
<text text-anchor="middle" x="465.75" y="-6.5" font-family="Helvetica,sans-Serif" font-size="10.00">memory</text>
</a>
</g>
</g>
<!-- Node2&#45;&gt;Node9 -->
<g id="edge8_Node000002_Node000009" class="edge">
<title>Node2&#45;&gt;Node9</title>
<g id="a_edge8_Node000002_Node000009"><a xlink:title=" ">
<path fill="none" stroke="#63b8ff" d="M1051.68,-64.58C971.3,-62.94 720.16,-55.29 502.94,-20.05"/>
<polygon fill="#63b8ff" stroke="#63b8ff" points="503.57,-16.61 493.13,-18.44 502.43,-23.52 503.57,-16.61"/>
</a>
</g>
</g>
<!-- Node10 -->
<g id="Node000010" class="node">
<title>Node10</title>
<g id="a_Node000010"><a xlink:title=" ">
<polygon fill="#e0e0e0" stroke="#999999" points="565.62,-20 509.88,-20 509.88,0 565.62,0 565.62,-20"/>
<text text-anchor="middle" x="537.75" y="-6.5" font-family="Helvetica,sans-Serif" font-size="10.00">algorithm</text>
</a>
</g>
</g>
<!-- Node2&#45;&gt;Node10 -->
<g id="edge9_Node000002_Node000010" class="edge">
<title>Node2&#45;&gt;Node10</title>
<g id="a_edge9_Node000002_Node000010"><a xlink:title=" ">
<path fill="none" stroke="#63b8ff" d="M1051.66,-64.04C978.38,-61.06 764.33,-50.37 577.1,-20.15"/>
<polygon fill="#63b8ff" stroke="#63b8ff" points="577.87,-16.73 567.44,-18.56 576.74,-23.63 577.87,-16.73"/>
</a>
</g>
</g>
<!-- Node11 -->
<g id="Node000011" class="node">
<title>Node11</title>
<g id="a_Node000011"><a xlink:title=" ">
<polygon fill="#e0e0e0" stroke="#999999" points="621.62,-20 583.88,-20 583.88,0 621.62,0 621.62,-20"/>
<text text-anchor="middle" x="602.75" y="-6.5" font-family="Helvetica,sans-Serif" font-size="10.00">array</text>
</a>
</g>
</g>
<!-- Node2&#45;&gt;Node11 -->
<g id="edge10_Node000002_Node000011" class="edge">
<title>Node2&#45;&gt;Node11</title>
<g id="a_edge10_Node000002_Node000011"><a xlink:title=" ">
<path fill="none" stroke="#63b8ff" d="M1051.68,-64.39C983.85,-62.4 796.27,-54.18 633.27,-20.38"/>
<polygon fill="#63b8ff" stroke="#63b8ff" points="634.06,-16.97 623.56,-18.33 632.61,-23.82 634.06,-16.97"/>
</a>
</g>
</g>
<!-- Node12 -->
<g id="Node000012" class="node">
<title>Node12</title>
<g id="a_Node000012"><a xlink:title=" ">
<polygon fill="#e0e0e0" stroke="#999999" points="682.25,-20 639.25,-20 639.25,0 682.25,0 682.25,-20"/>
<text text-anchor="middle" x="660.75" y="-6.5" font-family="Helvetica,sans-Serif" font-size="10.00">cmath</text>
</a>
</g>
</g>
<!-- Node2&#45;&gt;Node12 -->
<g id="edge11_Node000002_Node000012" class="edge">
<title>Node2&#45;&gt;Node12</title>
<g id="a_edge11_Node000002_Node000012"><a xlink:title=" ">
<path fill="none" stroke="#63b8ff" d="M1051.68,-63.55C990.56,-59.83 833.16,-48.3 693.47,-20.26"/>
<polygon fill="#63b8ff" stroke="#63b8ff" points="694.57,-16.91 684.07,-18.34 693.17,-23.77 694.57,-16.91"/>
</a>
</g>
</g>
<!-- Node13 -->
<g id="Node000013" class="node">
<title>Node13</title>
<g id="a_Node000013"><a xlink:title=" ">
<polygon fill="#e0e0e0" stroke="#999999" points="743.25,-20 700.25,-20 700.25,0 743.25,0 743.25,-20"/>
<text text-anchor="middle" x="721.75" y="-6.5" font-family="Helvetica,sans-Serif" font-size="10.00">thread</text>
</a>
</g>
</g>
<!-- Node2&#45;&gt;Node13 -->
<g id="edge12_Node000002_Node000013" class="edge">
<title>Node2&#45;&gt;Node13</title>
<g id="a_edge12_Node000002_Node000013"><a xlink:title=" ">
<path fill="none" stroke="#63b8ff" d="M1051.73,-62.78C997.91,-57.91 870.32,-44.85 754.75,-20.38"/>
<polygon fill="#63b8ff" stroke="#63b8ff" points="755.6,-16.99 745.08,-18.3 754.12,-23.83 755.6,-16.99"/>
</a>
</g>
</g>
<!-- Node14 -->
<g id="Node000014" class="node">
<title>Node14</title>
<g id="a_Node000014"><a xlink:title=" ">
<polygon fill="#e0e0e0" stroke="#999999" points="810.25,-20 761.25,-20 761.25,0 810.25,0 810.25,-20"/>
<text text-anchor="middle" x="785.75" y="-6.5" font-family="Helvetica,sans-Serif" font-size="10.00">fstream</text>
</a>
</g>
</g>
<!-- Node2&#45;&gt;Node14 -->
<g id="edge13_Node000002_Node000014" class="edge">
<title>Node2&#45;&gt;Node14</title>
<g id="a_edge13_Node000002_Node000014"><a xlink:title=" ">
<path fill="none" stroke="#63b8ff" d="M1051.97,-61.26C1007.2,-54.59 911.96,-39.72 821.57,-20.23"/>
<polygon fill="#63b8ff" stroke="#63b8ff" points="822.57,-16.87 812.05,-18.16 821.08,-23.71 822.57,-16.87"/>
</a>
</g>
</g>
<!-- Node15 -->
<g id="Node000015" class="node">
<title>Node15</title>
<g id="a_Node000015"><a xlink:title=" ">
<polygon fill="#e0e0e0" stroke="#999999" points="876.88,-20 828.62,-20 828.62,0 876.88,0 876.88,-20"/>
<text text-anchor="middle" x="852.75" y="-6.5" font-family="Helvetica,sans-Serif" font-size="10.00">istream</text>
</a>
</g>
</g>
<!-- Node2&#45;&gt;Node15 -->
<g id="edge14_Node000002_Node000015" class="edge">
<title>Node2&#45;&gt;Node15</title>
<g id="a_edge14_Node000002_Node000015"><a xlink:title=" ">
<path fill="none" stroke="#63b8ff" d="M1051.9,-59.25C1016.98,-51.42 952.54,-36.74 888.36,-20.6"/>
<polygon fill="#63b8ff" stroke="#63b8ff" points="889.25,-17.21 878.7,-18.15 887.54,-24 889.25,-17.21"/>
</a>
</g>
</g>
<!-- Node16 -->
<g id="Node000016" class="node">
<title>Node16</title>
<g id="a_Node000016"><a xlink:title=" ">
<polygon fill="#e0e0e0" stroke="#999999" points="946.38,-20 895.12,-20 895.12,0 946.38,0 946.38,-20"/>
<text text-anchor="middle" x="920.75" y="-6.5" font-family="Helvetica,sans-Serif" font-size="10.00">ostream</text>
</a>
</g>
</g>
<!-- Node2&#45;&gt;Node16 -->
<g id="edge15_Node000002_Node000016" class="edge">
<title>Node2&#45;&gt;Node16</title>
<g id="a_edge15_Node000002_Node000016"><a xlink:title=" ">
<path fill="none" stroke="#63b8ff" d="M1051.82,-56.08C1026.03,-47.21 986.22,-33.52 957.24,-23.55"/>
<polygon fill="#63b8ff" stroke="#63b8ff" points="958.74,-20.37 948.15,-20.42 956.46,-26.98 958.74,-20.37"/>
</a>
</g>
</g>
<!-- Node17 -->
<g id="Node000017" class="node">
<title>Node17</title>
<g id="a_Node000017"><a xlink:title=" ">
<polygon fill="#e0e0e0" stroke="#999999" points="1004.75,-20 964.75,-20 964.75,0 1004.75,0 1004.75,-20"/>
<text text-anchor="middle" x="984.75" y="-6.5" font-family="Helvetica,sans-Serif" font-size="10.00">bitset</text>
</a>
</g>
</g>
<!-- Node2&#45;&gt;Node17 -->
<g id="edge16_Node000002_Node000017" class="edge">
<title>Node2&#45;&gt;Node17</title>
<g id="a_edge16_Node000002_Node000017"><a xlink:title=" ">
<path fill="none" stroke="#63b8ff" d="M1061.55,-55.59C1047.5,-47.44 1026.92,-35.48 1010.59,-26"/>
<polygon fill="#63b8ff" stroke="#63b8ff" points="1012.79,-23.23 1002.38,-21.24 1009.28,-29.29 1012.79,-23.23"/>
</a>
</g>
</g>
<!-- Node18 -->
<g id="Node000018" class="node">
<title>Node18</title>
<g id="a_Node000018"><a xlink:title=" ">
<polygon fill="#e0e0e0" stroke="#999999" points="1068.38,-20 1023.12,-20 1023.12,0 1068.38,0 1068.38,-20"/>
<text text-anchor="middle" x="1045.75" y="-6.5" font-family="Helvetica,sans-Serif" font-size="10.00">cstdint</text>
</a>
</g>
</g>
<!-- Node2&#45;&gt;Node18 -->
<g id="edge17_Node000002_Node000018" class="edge">
<title>Node2&#45;&gt;Node18</title>
<g id="a_edge17_Node000002_Node000018"><a xlink:title=" ">
<path fill="none" stroke="#63b8ff" d="M1072.18,-55.59C1068,-48.55 1062.15,-38.67 1057.01,-30"/>
<polygon fill="#63b8ff" stroke="#63b8ff" points="1060.14,-28.42 1052.03,-21.6 1054.12,-31.99 1060.14,-28.42"/>
</a>
</g>
</g>
<!-- Node19 -->
<g id="Node000019" class="node">
<title>Node19</title>
<g id="a_Node000019"><a xlink:title=" ">
<polygon fill="#e0e0e0" stroke="#999999" points="1134.88,-20 1086.62,-20 1086.62,0 1134.88,0 1134.88,-20"/>
<text text-anchor="middle" x="1110.75" y="-6.5" font-family="Helvetica,sans-Serif" font-size="10.00">random</text>
</a>
</g>
</g>
<!-- Node2&#45;&gt;Node19 -->
<g id="edge18_Node000002_Node000019" class="edge">
<title>Node2&#45;&gt;Node19</title>
<g id="a_edge18_Node000002_Node000019"><a xlink:title=" ">
<path fill="none" stroke="#63b8ff" d="M1083.5,-55.59C1087.8,-48.55 1093.84,-38.67 1099.14,-30"/>
<polygon fill="#63b8ff" stroke="#63b8ff" points="1102.05,-31.95 1104.28,-21.59 1096.08,-28.3 1102.05,-31.95"/>
</a>
</g>
</g>
<!-- Node20 -->
<g id="Node000020" class="node">
<title>Node20</title>
<g id="a_Node000020"><a xlink:title=" ">
<polygon fill="#e0e0e0" stroke="#999999" points="1210.75,-20 1152.75,-20 1152.75,0 1210.75,0 1210.75,-20"/>
<text text-anchor="middle" x="1181.75" y="-6.5" font-family="Helvetica,sans-Serif" font-size="10.00">functional</text>
</a>
</g>
</g>
<!-- Node2&#45;&gt;Node20 -->
<g id="edge19_Node000002_Node000020" class="edge">
<title>Node2&#45;&gt;Node20</title>
<g id="a_edge19_Node000002_Node000020"><a xlink:title=" ">
<path fill="none" stroke="#63b8ff" d="M1095.87,-55.59C1111.72,-47.36 1135.03,-35.26 1153.37,-25.74"/>
<polygon fill="#63b8ff" stroke="#63b8ff" points="1154.89,-28.89 1162.15,-21.18 1151.66,-22.68 1154.89,-28.89"/>
</a>
</g>
</g>
<!-- Node21 -->
<g id="Node000021" class="node">
<title>Node21</title>
<g id="a_Node000021"><a xlink:title=" ">
<polygon fill="#e0e0e0" stroke="#999999" points="1260.62,-20 1228.88,-20 1228.88,0 1260.62,0 1260.62,-20"/>
<text text-anchor="middle" x="1244.75" y="-6.5" font-family="Helvetica,sans-Serif" font-size="10.00">any</text>
</a>
</g>
</g>
<!-- Node2&#45;&gt;Node21 -->
<g id="edge20_Node000002_Node000021" class="edge">
<title>Node2&#45;&gt;Node21</title>
<g id="a_edge20_Node000002_Node000021"><a xlink:title=" ">
<path fill="none" stroke="#63b8ff" d="M1103.76,-57.09C1130.19,-48.98 1172.56,-35.78 1217.52,-20.67"/>
<polygon fill="#63b8ff" stroke="#63b8ff" points="1218.59,-24 1226.94,-17.48 1216.35,-17.37 1218.59,-24"/>
</a>
</g>
</g>
<!-- Node22 -->
<g id="Node000022" class="node">
<title>Node22</title>
<g id="a_Node000022"><a xlink:title=" ">
<polygon fill="#e0e0e0" stroke="#999999" points="1381.25,-20 1278.25,-20 1278.25,0 1381.25,0 1381.25,-20"/>
<text text-anchor="middle" x="1329.75" y="-6.5" font-family="Helvetica,sans-Serif" font-size="10.00">SFML/Graphics.hpp</text>
</a>
</g>
</g>
<!-- Node2&#45;&gt;Node22 -->
<g id="edge21_Node000002_Node000022" class="edge">
<title>Node2&#45;&gt;Node22</title>
<g id="a_edge21_Node000002_Node000022"><a xlink:title=" ">
<path fill="none" stroke="#63b8ff" d="M1103.77,-59.42C1143.84,-50.84 1221.55,-34.19 1274.54,-22.83"/>
<polygon fill="#63b8ff" stroke="#63b8ff" points="1275.25,-26.26 1284.3,-20.74 1273.79,-19.41 1275.25,-26.26"/>
</a>
</g>
</g>
<!-- Node23 -->
<g id="Node000023" class="node">
<title>Node23</title>
<g id="a_Node000023"><a xlink:title=" ">
<polygon fill="#e0e0e0" stroke="#999999" points="1498,-20 1399.5,-20 1399.5,0 1498,0 1498,-20"/>
<text text-anchor="middle" x="1448.75" y="-6.5" font-family="Helvetica,sans-Serif" font-size="10.00">SFML/Window.hpp</text>
</a>
</g>
</g>
<!-- Node2&#45;&gt;Node23 -->
<g id="edge22_Node000002_Node000023" class="edge">
<title>Node2&#45;&gt;Node23</title>
<g id="a_edge22_Node000002_Node000023"><a xlink:title=" ">
<path fill="none" stroke="#63b8ff" d="M1103.65,-61.34C1155.4,-54 1275.57,-36.89 1387.98,-20.25"/>
<polygon fill="#63b8ff" stroke="#63b8ff" points="1388.3,-23.74 1397.68,-18.81 1387.28,-16.82 1388.3,-23.74"/>
</a>
</g>
</g>
<!-- Node24 -->
<g id="Node000024" class="node">
<title>Node24</title>
<g id="a_Node000024"><a xlink:title=" ">
<polygon fill="#e0e0e0" stroke="#999999" points="1605.12,-20 1516.38,-20 1516.38,0 1605.12,0 1605.12,-20"/>
<text text-anchor="middle" x="1560.75" y="-6.5" font-family="Helvetica,sans-Serif" font-size="10.00">SFML/Audio.hpp</text>
</a>
</g>
</g>
<!-- Node2&#45;&gt;Node24 -->
<g id="edge23_Node000002_Node000024" class="edge">
<title>Node2&#45;&gt;Node24</title>
<g id="a_edge23_Node000002_Node000024"><a xlink:title=" ">
<path fill="none" stroke="#63b8ff" d="M1103.44,-62.85C1168.58,-57.29 1345.69,-41.45 1504.59,-20.21"/>
<polygon fill="#63b8ff" stroke="#63b8ff" points="1505.05,-23.68 1514.49,-18.88 1504.11,-16.74 1505.05,-23.68"/>
</a>
</g>
</g>
<!-- Node25 -->
<g id="Node000025" class="node">
<title>Node25</title>
<g id="a_Node000025"><a xlink:title=" ">
<polygon fill="#e0e0e0" stroke="#999999" points="1720.62,-20 1622.88,-20 1622.88,0 1720.62,0 1720.62,-20"/>
<text text-anchor="middle" x="1671.75" y="-6.5" font-family="Helvetica,sans-Serif" font-size="10.00">SFML/System.hpp</text>
</a>
</g>
</g>
<!-- Node2&#45;&gt;Node25 -->
<g id="edge24_Node000002_Node000025" class="edge">
<title>Node2&#45;&gt;Node25</title>
<g id="a_edge24_Node000002_Node000025"><a xlink:title=" ">
<path fill="none" stroke="#63b8ff" d="M1103.75,-63.47C1179.96,-58.83 1409.6,-43.9 1611.03,-20.25"/>
<polygon fill="#63b8ff" stroke="#63b8ff" points="1611.4,-23.73 1620.92,-19.07 1610.58,-16.78 1611.4,-23.73"/>
</a>
</g>
</g>
<!-- Node26 -->
<g id="Node000026" class="node">
<title>Node26</title>
<g id="a_Node000026"><a xlink:href="_log_8h.html" target="_top" xlink:title="Provides a lightweight static logging utility for console output.">
<polygon fill="white" stroke="#666666" points="1831,-20 1738.5,-20 1738.5,0 1831,0 1831,-20"/>
<text text-anchor="middle" x="1784.75" y="-6.5" font-family="Helvetica,sans-Serif" font-size="10.00">Core/Utility/Log.h</text>
</a>
</g>
</g>
<!-- Node2&#45;&gt;Node26 -->
<g id="edge25_Node000002_Node000026" class="edge">
<title>Node2&#45;&gt;Node26</title>
<g id="a_edge25_Node000002_Node000026"><a xlink:title=" ">
<path fill="none" stroke="#63b8ff" d="M1103.61,-64.08C1190.23,-60.83 1478.25,-48.54 1726.85,-20.23"/>
<polygon fill="#63b8ff" stroke="#63b8ff" points="1727.24,-23.71 1736.78,-19.09 1726.44,-16.76 1727.24,-23.71"/>
</a>
</g>
</g>
<!-- Node27 -->
<g id="Node000027" class="node">
<title>Node27</title>
<g id="a_Node000027"><a xlink:href="_vector2_8h.html" target="_top" xlink:title="A simple 2D vector class based on SFML&#39;s sf::Vector2.">
<polygon fill="white" stroke="#666666" points="1958.62,-20 1848.88,-20 1848.88,0 1958.62,0 1958.62,-20"/>
<text text-anchor="middle" x="1903.75" y="-6.5" font-family="Helvetica,sans-Serif" font-size="10.00">Core/Utility/Vector2.h</text>
</a>
</g>
</g>
<!-- Node2&#45;&gt;Node27 -->
<g id="edge26_Node000002_Node000027" class="edge">
<title>Node2&#45;&gt;Node27</title>
<g id="a_edge26_Node000002_Node000027"><a xlink:title=" ">
<path fill="none" stroke="#63b8ff" d="M1103.8,-64.22C1199.8,-61.21 1543.08,-49 1837.3,-20.16"/>
<polygon fill="#63b8ff" stroke="#63b8ff" points="1837.51,-23.66 1847.12,-19.19 1836.82,-16.69 1837.51,-23.66"/>
</a>
</g>
</g>
<!-- Node28 -->
<g id="Node000028" class="node">
<title>Node28</title>
<g id="a_Node000028"><a xlink:href="_timer_8h.html" target="_top" xlink:title="A simple timer utility class.">
<polygon fill="white" stroke="#666666" points="2078.5,-20 1977,-20 1977,0 2078.5,0 2078.5,-20"/>
<text text-anchor="middle" x="2027.75" y="-6.5" font-family="Helvetica,sans-Serif" font-size="10.00">Core/Utility/Timer.h</text>
</a>
</g>
</g>
<!-- Node2&#45;&gt;Node28 -->
<g id="edge27_Node000002_Node000028" class="edge">
<title>Node2&#45;&gt;Node28</title>
<g id="a_edge27_Node000002_Node000028"><a xlink:title=" ">
<path fill="none" stroke="#63b8ff" d="M1103.67,-64.62C1209.36,-62.88 1618.24,-54.26 1965.44,-20.12"/>
<polygon fill="#63b8ff" stroke="#63b8ff" points="1965.62,-23.62 1975.22,-19.15 1964.93,-16.66 1965.62,-23.62"/>
</a>
</g>
</g>
<!-- Node29 -->
<g id="Node000029" class="node">
<title>Node29</title>
<g id="a_Node000029"><a xlink:href="_random_gen_8h.html" target="_top" xlink:title=" ">
<polygon fill="white" stroke="#666666" points="2228.5,-20 2097,-20 2097,0 2228.5,0 2228.5,-20"/>
<text text-anchor="middle" x="2162.75" y="-6.5" font-family="Helvetica,sans-Serif" font-size="10.00">Core/Utility/RandomGen.h</text>
</a>
</g>
</g>
<!-- Node2&#45;&gt;Node29 -->
<g id="edge28_Node000002_Node000029" class="edge">
<title>Node2&#45;&gt;Node29</title>
<g id="a_edge28_Node000002_Node000029"><a xlink:title=" ">
<path fill="none" stroke="#63b8ff" d="M1103.55,-64.56C1217.55,-62.48 1687.71,-52.32 2085.08,-20.15"/>
<polygon fill="#63b8ff" stroke="#63b8ff" points="2085.33,-23.65 2095.02,-19.34 2084.76,-16.67 2085.33,-23.65"/>
</a>
</g>
</g>
<!-- Node2&#45;&gt;Node30 -->
<g id="edge29_Node000002_Node000030" class="edge">
<title>Node2&#45;&gt;Node30</title>
<g id="a_edge29_Node000002_Node000030"><a xlink:title=" ">
<path fill="none" stroke="#63b8ff" d="M1103.42,-64.86C1242.96,-63.94 1924.52,-57.7 2492.38,-20.18"/>
<polygon fill="#63b8ff" stroke="#63b8ff" points="2492.42,-23.69 2502.16,-19.53 2491.95,-16.7 2492.42,-23.69"/>
</a>
</g>
</g>
<!-- Node31 -->
<g id="Node000031" class="node">
<title>Node31</title>
<g id="a_Node000031"><a xlink:href="_cursor_8h.html" target="_top" xlink:title="Singleton class that manages the in&#45;game cursor.">
<polygon fill="white" stroke="#666666" points="2336.5,-20 2247,-20 2247,0 2336.5,0 2336.5,-20"/>
<text text-anchor="middle" x="2291.75" y="-6.5" font-family="Helvetica,sans-Serif" font-size="10.00">Entities/Cursor.h</text>
</a>
</g>
</g>
<!-- Node2&#45;&gt;Node31 -->
<g id="edge30_Node000002_Node000031" class="edge">
<title>Node2&#45;&gt;Node31</title>
<g id="a_edge30_Node000002_Node000031"><a xlink:title=" ">
<path fill="none" stroke="#63b8ff" d="M1103.55,-65.2C1227.72,-65.93 1776.2,-66.3 2235.55,-20.08"/>
<polygon fill="#63b8ff" stroke="#63b8ff" points="2235.63,-23.59 2245.22,-19.09 2234.92,-16.62 2235.63,-23.59"/>
</a>
</g>
</g>
<!-- Node32 -->
<g id="Node000032" class="node">
<title>Node32</title>
<g id="a_Node000032"><a xlink:title=" ">
<polygon fill="#e0e0e0" stroke="#999999" points="2417,-20 2354.5,-20 2354.5,0 2417,0 2417,-20"/>
<text text-anchor="middle" x="2385.75" y="-6.5" font-family="Helvetica,sans-Serif" font-size="10.00">windows.h</text>
</a>
</g>
</g>
<!-- Node2&#45;&gt;Node32 -->
<g id="edge31_Node000002_Node000032" class="edge">
<title>Node2&#45;&gt;Node32</title>
<g id="a_edge31_Node000002_Node000032"><a xlink:title=" ">
<path fill="none" stroke="#63b8ff" d="M1103.67,-64.74C1259.18,-63.06 2070.4,-52.91 2343.37,-20.01"/>
<polygon fill="#63b8ff" stroke="#63b8ff" points="2343.42,-23.53 2352.9,-18.82 2342.55,-16.59 2343.42,-23.53"/>
</a>
</g>
</g>
<!-- Node33 -->
<g id="Node000033" class="node">
<title>Node33</title>
<g id="a_Node000033"><a xlink:title=" ">
<polygon fill="#e0e0e0" stroke="#999999" points="2486.38,-20 2435.12,-20 2435.12,0 2486.38,0 2486.38,-20"/>
<text text-anchor="middle" x="2460.75" y="-6.5" font-family="Helvetica,sans-Serif" font-size="10.00">sstream</text>
</a>
</g>
</g>
<!-- Node2&#45;&gt;Node33 -->
<g id="edge32_Node000002_Node000033" class="edge">
<title>Node2&#45;&gt;Node33</title>
<g id="a_edge32_Node000002_Node000033"><a xlink:title=" ">
<path fill="none" stroke="#63b8ff" d="M1103.72,-64.91C1265.13,-64.21 2133.41,-58.75 2423.57,-19.9"/>
<polygon fill="#63b8ff" stroke="#63b8ff" points="2423.96,-23.38 2433.38,-18.53 2423,-16.44 2423.96,-23.38"/>
</a>
</g>
</g>
</g>
</svg>
