<?xml version="1.0" encoding="UTF-8" standalone="no"?>
<!DOCTYPE svg PUBLIC "-//W3C//DTD SVG 1.1//EN"
 "http://www.w3.org/Graphics/SVG/1.1/DTD/svg11.dtd">
<!-- Generated by graphviz version 12.2.0 (20241103.1931)
 -->
<!-- Title: include/MyLibrary/Core/Managers/SceneManager.h Pages: 1 -->
<!--zoomable 164 -->

<svg id="main" version="1.1" xmlns="http://www.w3.org/2000/svg" xmlns:xlink="http://www.w3.org/1999/xlink" xml:space="preserve" onload="init(evt)">

<style type="text/css"><![CDATA[
.node, .edge {opacity: 0.7;}
.node.selected, .edge.selected {opacity: 1;}
.edge:hover path { stroke: red; }
.edge:hover polygon { stroke: red; fill: red; }
]]></style>

<defs>
  <circle id="rim" cx="0" cy="0" r="7"/>
  <circle id="rim2" cx="0" cy="0" r="3.5"/>
  <g id="zoomPlus">
    <use xlink:href="#rim" fill="#404040"><set attributeName="fill" to="#808080" begin="zoomplus.mouseover" end="zoomplus.mouseout"/></use>
    <path d="M-4,0h8M0,-4v8" fill="none" stroke="white" stroke-width="1.5" pointer-events="none"/>
  </g>
  <g id="zoomMin">
    <use xlink:href="#rim" fill="#404040"><set attributeName="fill" to="#808080" begin="zoomminus.mouseover" end="zoomminus.mouseout"/></use>
    <path d="M-4,0h8" fill="none" stroke="white" stroke-width="1.5" pointer-events="none"/>
  </g>
  <g id="arrowUp" transform="translate(30 24)">
    <use xlink:href="#rim"/>
    <path pointer-events="none" fill="none" stroke="white" stroke-width="1.5" d="M0,-3.0v7 M-2.5,-0.5L0,-3.0L2.5,-0.5"/>
  </g>
  <g id="arrowRight" transform="rotate(90) translate(36 -43)">
    <use xlink:href="#rim"/>
    <path pointer-events="none" fill="none" stroke="white" stroke-width="1.5" d="M0,-3.0v7 M-2.5,-0.5L0,-3.0L2.5,-0.5"/>
  </g>
  <g id="arrowDown" transform="rotate(180) translate(-30 -48)">
    <use xlink:href="#rim"/>
    <path pointer-events="none" fill="none" stroke="white" stroke-width="1.5" d="M0,-3.0v7 M-2.5,-0.5L0,-3.0L2.5,-0.5"/>
  </g>
  <g id="arrowLeft" transform="rotate(270) translate(-36 17)">
    <use xlink:href="#rim"/>
    <path pointer-events="none" fill="none" stroke="white" stroke-width="1.5" d="M0,-3.0v7 M-2.5,-0.5L0,-3.0L2.5,-0.5"/>
  </g>
  <g id="resetDef">
    <use xlink:href="#rim2" fill="#404040"><set attributeName="fill" to="#808080" begin="reset.mouseover" end="reset.mouseout"/></use>
  </g>
</defs>
<script type="application/ecmascript">
var viewWidth = 3302;
var viewHeight = 164;
var sectionId = 'dynsection-0';
</script>
<script type="application/ecmascript" xlink:href="svg.min.js"/>
<svg id="graph" class="graph">
<g id="viewport">
<title>include/MyLibrary/Core/Managers/SceneManager.h</title>
<!-- Node1 -->
<g id="Node000001" class="node">
<title>Node1</title>
<g id="a_Node000001"><a xlink:title="Contains the SceneID enum, IGameScene interface, and SceneManager class.">
<polygon fill="#999999" stroke="#666666" points="875.5,-156 737.25,-156 737.25,-124 875.5,-124 875.5,-156"/>
<text text-anchor="start" x="745.25" y="-142.5" font-family="Helvetica,sans-Serif" font-size="10.00">include/MyLibrary/Core</text>
<text text-anchor="middle" x="806.38" y="-130.5" font-family="Helvetica,sans-Serif" font-size="10.00">/Managers/SceneManager.h</text>
</a>
</g>
</g>
<!-- Node2 -->
<g id="Node000002" class="node">
<title>Node2</title>
<g id="a_Node000002"><a xlink:href="_scene_manager_8cpp.html" target="_top" xlink:title=" ">
<polygon fill="white" stroke="#666666" points="148.75,-32 0,-32 0,0 148.75,0 148.75,-32"/>
<text text-anchor="start" x="8" y="-18.5" font-family="Helvetica,sans-Serif" font-size="10.00">include/MyLibrary/Core</text>
<text text-anchor="middle" x="74.38" y="-6.5" font-family="Helvetica,sans-Serif" font-size="10.00">/Managers/SceneManager.cpp</text>
</a>
</g>
</g>
<!-- Node1&#45;&gt;Node2 -->
<g id="edge1_Node000001_Node000002" class="edge">
<title>Node1&#45;&gt;Node2</title>
<g id="a_edge1_Node000001_Node000002"><a xlink:title=" ">
<path fill="none" stroke="#63b8ff" d="M725.66,-126.02C603.03,-106.22 362.43,-67.06 158.38,-32 155.31,-31.47 152.18,-30.93 149.02,-30.38"/>
<polygon fill="#63b8ff" stroke="#63b8ff" points="724.88,-129.44 735.31,-127.58 725.99,-122.53 724.88,-129.44"/>
</a>
</g>
</g>
<!-- Node3 -->
<g id="Node000003" class="node">
<title>Node3</title>
<g id="a_Node000003"><a xlink:href="stdafx_8h.html" target="_top" xlink:title=" ">
<polygon fill="white" stroke="#666666" points="1603.75,-88 1473,-88 1473,-68 1603.75,-68 1603.75,-88"/>
<text text-anchor="middle" x="1538.38" y="-74.5" font-family="Helvetica,sans-Serif" font-size="10.00">include/MyLibrary/stdafx.h</text>
</a>
</g>
</g>
<!-- Node1&#45;&gt;Node3 -->
<g id="edge2_Node000001_Node000003" class="edge">
<title>Node1&#45;&gt;Node3</title>
<g id="a_edge2_Node000001_Node000003"><a xlink:title=" ">
<path fill="none" stroke="#63b8ff" d="M886.98,-132.39C1032.99,-120.43 1338.52,-95.38 1472.75,-84.38"/>
<polygon fill="#63b8ff" stroke="#63b8ff" points="887.09,-128.87 877.41,-133.18 887.66,-135.85 887.09,-128.87"/>
</a>
</g>
</g>
<!-- Node3&#45;&gt;Node2 -->
<g id="edge4_Node000003_Node000002" class="edge">
<title>Node3&#45;&gt;Node2</title>
<g id="a_edge4_Node000003_Node000002"><a xlink:title=" ">
<path fill="none" stroke="#63b8ff" d="M1461.33,-75.95C1209.77,-72.29 414,-58.85 158.38,-32 155.28,-31.68 152.13,-31.3 148.95,-30.89"/>
<polygon fill="#63b8ff" stroke="#63b8ff" points="1460.98,-79.45 1471.03,-76.09 1461.08,-72.45 1460.98,-79.45"/>
</a>
</g>
</g>
<!-- Node4 -->
<g id="Node000004" class="node">
<title>Node4</title>
<g id="a_Node000004"><a xlink:href="_input_manager_8cpp.html" target="_top" xlink:title=" ">
<polygon fill="white" stroke="#666666" points="309.75,-32 167,-32 167,0 309.75,0 309.75,-32"/>
<text text-anchor="start" x="175" y="-18.5" font-family="Helvetica,sans-Serif" font-size="10.00">include/MyLibrary/Core</text>
<text text-anchor="middle" x="238.38" y="-6.5" font-family="Helvetica,sans-Serif" font-size="10.00">/Managers/InputManager.cpp</text>
</a>
</g>
</g>
<!-- Node3&#45;&gt;Node4 -->
<g id="edge3_Node000003_Node000004" class="edge">
<title>Node3&#45;&gt;Node4</title>
<g id="a_edge3_Node000003_Node000004"><a xlink:title=" ">
<path fill="none" stroke="#63b8ff" d="M1461.44,-75.63C1229.95,-71.29 542.16,-56.61 319.38,-32 316.25,-31.65 313.06,-31.26 309.84,-30.82"/>
<polygon fill="#63b8ff" stroke="#63b8ff" points="1461.19,-79.13 1471.25,-75.82 1461.32,-72.13 1461.19,-79.13"/>
</a>
</g>
</g>
<!-- Node5 -->
<g id="Node000005" class="node">
<title>Node5</title>
<g id="a_Node000005"><a xlink:href="_sound_manager_8cpp.html" target="_top" xlink:title=" ">
<polygon fill="white" stroke="#666666" points="476.75,-32 328,-32 328,0 476.75,0 476.75,-32"/>
<text text-anchor="start" x="336" y="-18.5" font-family="Helvetica,sans-Serif" font-size="10.00">include/MyLibrary/Core</text>
<text text-anchor="middle" x="402.38" y="-6.5" font-family="Helvetica,sans-Serif" font-size="10.00">/Managers/SoundManager.cpp</text>
</a>
</g>
</g>
<!-- Node3&#45;&gt;Node5 -->
<g id="edge5_Node000003_Node000005" class="edge">
<title>Node3&#45;&gt;Node5</title>
<g id="a_edge5_Node000003_Node000005"><a xlink:title=" ">
<path fill="none" stroke="#63b8ff" d="M1461.17,-77.29C1286.69,-77.16 848.88,-72.42 485.38,-32 482.61,-31.69 479.8,-31.35 476.96,-30.97"/>
<polygon fill="#63b8ff" stroke="#63b8ff" points="1461.01,-80.79 1471.01,-77.29 1461.01,-73.79 1461.01,-80.79"/>
</a>
</g>
</g>
<!-- Node6 -->
<g id="Node000006" class="node">
<title>Node6</title>
<g id="a_Node000006"><a xlink:href="_gameplay_utility_8cpp.html" target="_top" xlink:title=" ">
<polygon fill="white" stroke="#666666" points="630,-32 494.75,-32 494.75,0 630,0 630,-32"/>
<text text-anchor="start" x="502.75" y="-18.5" font-family="Helvetica,sans-Serif" font-size="10.00">include/MyLibrary/Core</text>
<text text-anchor="middle" x="562.38" y="-6.5" font-family="Helvetica,sans-Serif" font-size="10.00">/Utility/GameplayUtility.cpp</text>
</a>
</g>
</g>
<!-- Node3&#45;&gt;Node6 -->
<g id="edge6_Node000003_Node000006" class="edge">
<title>Node3&#45;&gt;Node6</title>
<g id="a_edge6_Node000003_Node000006"><a xlink:title=" ">
<path fill="none" stroke="#63b8ff" d="M1461.38,-76.83C1305.58,-75.68 942.05,-68.87 639.38,-32 636.4,-31.64 633.37,-31.23 630.31,-30.78"/>
<polygon fill="#63b8ff" stroke="#63b8ff" points="1461.14,-80.33 1471.16,-76.9 1461.19,-73.33 1461.14,-80.33"/>
</a>
</g>
</g>
<!-- Node7 -->
<g id="Node000007" class="node">
<title>Node7</title>
<g id="a_Node000007"><a xlink:href="_helper_8cpp.html" target="_top" xlink:title=" ">
<polygon fill="white" stroke="#666666" points="764.62,-32 648.12,-32 648.12,0 764.62,0 764.62,-32"/>
<text text-anchor="start" x="656.12" y="-18.5" font-family="Helvetica,sans-Serif" font-size="10.00">include/MyLibrary/Core</text>
<text text-anchor="middle" x="706.38" y="-6.5" font-family="Helvetica,sans-Serif" font-size="10.00">/Utility/Helper.cpp</text>
</a>
</g>
</g>
<!-- Node3&#45;&gt;Node7 -->
<g id="edge7_Node000003_Node000007" class="edge">
<title>Node3&#45;&gt;Node7</title>
<g id="a_edge7_Node000003_Node000007"><a xlink:title=" ">
<path fill="none" stroke="#63b8ff" d="M1461.35,-76.48C1323.1,-74.66 1023.99,-66.66 774.38,-32 771.26,-31.57 768.08,-31.07 764.87,-30.52"/>
<polygon fill="#63b8ff" stroke="#63b8ff" points="1461.07,-79.98 1471.11,-76.6 1461.16,-72.98 1461.07,-79.98"/>
</a>
</g>
</g>
<!-- Node8 -->
<g id="Node000008" class="node">
<title>Node8</title>
<g id="a_Node000008"><a xlink:href="_log_8cpp.html" target="_top" xlink:title=" ">
<polygon fill="white" stroke="#666666" points="899.62,-32 783.12,-32 783.12,0 899.62,0 899.62,-32"/>
<text text-anchor="start" x="791.12" y="-18.5" font-family="Helvetica,sans-Serif" font-size="10.00">include/MyLibrary/Core</text>
<text text-anchor="middle" x="841.38" y="-6.5" font-family="Helvetica,sans-Serif" font-size="10.00">/Utility/Log.cpp</text>
</a>
</g>
</g>
<!-- Node3&#45;&gt;Node8 -->
<g id="edge8_Node000003_Node000008" class="edge">
<title>Node3&#45;&gt;Node8</title>
<g id="a_edge8_Node000003_Node000008"><a xlink:title=" ">
<path fill="none" stroke="#63b8ff" d="M1461.58,-75.2C1342.52,-71.57 1106.49,-61.09 908.38,-32 905.66,-31.6 902.9,-31.15 900.11,-30.67"/>
<polygon fill="#63b8ff" stroke="#63b8ff" points="1461.12,-78.68 1471.21,-75.48 1461.32,-71.69 1461.12,-78.68"/>
</a>
</g>
</g>
<!-- Node9 -->
<g id="Node000009" class="node">
<title>Node9</title>
<g id="a_Node000009"><a xlink:href="_random_gen_8cpp.html" target="_top" xlink:title=" ">
<polygon fill="white" stroke="#666666" points="1038.88,-32 917.88,-32 917.88,0 1038.88,0 1038.88,-32"/>
<text text-anchor="start" x="925.88" y="-18.5" font-family="Helvetica,sans-Serif" font-size="10.00">include/MyLibrary/Core</text>
<text text-anchor="middle" x="978.38" y="-6.5" font-family="Helvetica,sans-Serif" font-size="10.00">/Utility/RandomGen.cpp</text>
</a>
</g>
</g>
<!-- Node3&#45;&gt;Node9 -->
<g id="edge9_Node000003_Node000009" class="edge">
<title>Node3&#45;&gt;Node9</title>
<g id="a_edge9_Node000003_Node000009"><a xlink:title=" ">
<path fill="none" stroke="#63b8ff" d="M1461.25,-72.78C1364.43,-66.82 1193.43,-54.12 1048.38,-32 1045.3,-31.53 1042.16,-31.01 1039,-30.45"/>
<polygon fill="#63b8ff" stroke="#63b8ff" points="1460.98,-76.27 1471.17,-73.38 1461.4,-69.28 1460.98,-76.27"/>
</a>
</g>
</g>
<!-- Node10 -->
<g id="Node000010" class="node">
<title>Node10</title>
<g id="a_Node000010"><a xlink:href="_timer_8cpp.html" target="_top" xlink:title=" ">
<polygon fill="white" stroke="#666666" points="1173.62,-32 1057.12,-32 1057.12,0 1173.62,0 1173.62,-32"/>
<text text-anchor="start" x="1065.12" y="-18.5" font-family="Helvetica,sans-Serif" font-size="10.00">include/MyLibrary/Core</text>
<text text-anchor="middle" x="1115.38" y="-6.5" font-family="Helvetica,sans-Serif" font-size="10.00">/Utility/Timer.cpp</text>
</a>
</g>
</g>
<!-- Node3&#45;&gt;Node10 -->
<g id="edge10_Node000003_Node000010" class="edge">
<title>Node3&#45;&gt;Node10</title>
<g id="a_edge10_Node000003_Node000010"><a xlink:title=" ">
<path fill="none" stroke="#63b8ff" d="M1461.45,-69.29C1389.34,-61.58 1278.67,-48.51 1183.38,-32 1180.28,-31.46 1177.11,-30.88 1173.91,-30.27"/>
<polygon fill="#63b8ff" stroke="#63b8ff" points="1460.86,-72.75 1471.17,-70.32 1461.6,-65.79 1460.86,-72.75"/>
</a>
</g>
</g>
<!-- Node11 -->
<g id="Node000011" class="node">
<title>Node11</title>
<g id="a_Node000011"><a xlink:href="_vector2_8cpp.html" target="_top" xlink:title=" ">
<polygon fill="white" stroke="#666666" points="1308.62,-32 1192.12,-32 1192.12,0 1308.62,0 1308.62,-32"/>
<text text-anchor="start" x="1200.12" y="-18.5" font-family="Helvetica,sans-Serif" font-size="10.00">include/MyLibrary/Core</text>
<text text-anchor="middle" x="1250.38" y="-6.5" font-family="Helvetica,sans-Serif" font-size="10.00">/Utility/Vector2.cpp</text>
</a>
</g>
</g>
<!-- Node3&#45;&gt;Node11 -->
<g id="edge11_Node000003_Node000011" class="edge">
<title>Node3&#45;&gt;Node11</title>
<g id="a_edge11_Node000003_Node000011"><a xlink:title=" ">
<path fill="none" stroke="#63b8ff" d="M1479.97,-65.31C1435.6,-56.36 1373.1,-43.63 1318.38,-32 1315.3,-31.35 1312.15,-30.67 1308.97,-29.98"/>
<polygon fill="#63b8ff" stroke="#63b8ff" points="1479.15,-68.71 1489.64,-67.25 1480.53,-61.85 1479.15,-68.71"/>
</a>
</g>
</g>
<!-- Node12 -->
<g id="Node000012" class="node">
<title>Node12</title>
<g id="a_Node000012"><a xlink:href="_cursor_8cpp.html" target="_top" xlink:title=" ">
<polygon fill="white" stroke="#666666" points="1455.62,-32 1327.12,-32 1327.12,0 1455.62,0 1455.62,-32"/>
<text text-anchor="start" x="1335.12" y="-18.5" font-family="Helvetica,sans-Serif" font-size="10.00">include/MyLibrary/Entities</text>
<text text-anchor="middle" x="1391.38" y="-6.5" font-family="Helvetica,sans-Serif" font-size="10.00">/Cursor.cpp</text>
</a>
</g>
</g>
<!-- Node3&#45;&gt;Node12 -->
<g id="edge12_Node000003_Node000012" class="edge">
<title>Node3&#45;&gt;Node12</title>
<g id="a_edge12_Node000003_Node000012"><a xlink:title=" ">
<path fill="none" stroke="#63b8ff" d="M1505,-63.38C1482.49,-54.19 1452.74,-42.05 1429.33,-32.49"/>
<polygon fill="#63b8ff" stroke="#63b8ff" points="1503.42,-66.51 1514,-67.05 1506.07,-60.03 1503.42,-66.51"/>
</a>
</g>
</g>
<!-- Node13 -->
<g id="Node000013" class="node">
<title>Node13</title>
<g id="a_Node000013"><a xlink:href="_enemy_8cpp.html" target="_top" xlink:title=" ">
<polygon fill="white" stroke="#666666" points="1602.62,-32 1474.12,-32 1474.12,0 1602.62,0 1602.62,-32"/>
<text text-anchor="start" x="1482.12" y="-18.5" font-family="Helvetica,sans-Serif" font-size="10.00">include/MyLibrary/Entities</text>
<text text-anchor="middle" x="1538.38" y="-6.5" font-family="Helvetica,sans-Serif" font-size="10.00">/Enemy.cpp</text>
</a>
</g>
</g>
<!-- Node3&#45;&gt;Node13 -->
<g id="edge13_Node000003_Node000013" class="edge">
<title>Node3&#45;&gt;Node13</title>
<g id="a_edge13_Node000003_Node000013"><a xlink:title=" ">
<path fill="none" stroke="#63b8ff" d="M1538.38,-56.31C1538.38,-48.37 1538.38,-39.46 1538.38,-32.14"/>
<polygon fill="#63b8ff" stroke="#63b8ff" points="1534.88,-56.11 1538.38,-66.11 1541.88,-56.11 1534.88,-56.11"/>
</a>
</g>
</g>
<!-- Node14 -->
<g id="Node000014" class="node">
<title>Node14</title>
<g id="a_Node000014"><a xlink:href="_projectile_8cpp.html" target="_top" xlink:title=" ">
<polygon fill="white" stroke="#666666" points="1749.62,-32 1621.12,-32 1621.12,0 1749.62,0 1749.62,-32"/>
<text text-anchor="start" x="1629.12" y="-18.5" font-family="Helvetica,sans-Serif" font-size="10.00">include/MyLibrary/Entities</text>
<text text-anchor="middle" x="1685.38" y="-6.5" font-family="Helvetica,sans-Serif" font-size="10.00">/Projectile.cpp</text>
</a>
</g>
</g>
<!-- Node3&#45;&gt;Node14 -->
<g id="edge14_Node000003_Node000014" class="edge">
<title>Node3&#45;&gt;Node14</title>
<g id="a_edge14_Node000003_Node000014"><a xlink:title=" ">
<path fill="none" stroke="#63b8ff" d="M1571.75,-63.38C1594.26,-54.19 1624.01,-42.05 1647.42,-32.49"/>
<polygon fill="#63b8ff" stroke="#63b8ff" points="1570.68,-60.03 1562.75,-67.05 1573.33,-66.51 1570.68,-60.03"/>
</a>
</g>
</g>
<!-- Node15 -->
<g id="Node000015" class="node">
<title>Node15</title>
<g id="a_Node000015"><a xlink:href="_spaceship_8cpp.html" target="_top" xlink:title=" ">
<polygon fill="white" stroke="#666666" points="1896.62,-32 1768.12,-32 1768.12,0 1896.62,0 1896.62,-32"/>
<text text-anchor="start" x="1776.12" y="-18.5" font-family="Helvetica,sans-Serif" font-size="10.00">include/MyLibrary/Entities</text>
<text text-anchor="middle" x="1832.38" y="-6.5" font-family="Helvetica,sans-Serif" font-size="10.00">/Spaceship.cpp</text>
</a>
</g>
</g>
<!-- Node3&#45;&gt;Node15 -->
<g id="edge15_Node000003_Node000015" class="edge">
<title>Node3&#45;&gt;Node15</title>
<g id="a_edge15_Node000003_Node000015"><a xlink:title=" ">
<path fill="none" stroke="#63b8ff" d="M1595.77,-65.29C1645.18,-55.2 1716.43,-40.66 1767.82,-30.17"/>
<polygon fill="#63b8ff" stroke="#63b8ff" points="1595.22,-61.83 1586.12,-67.26 1596.62,-68.69 1595.22,-61.83"/>
</a>
</g>
</g>
<!-- Node16 -->
<g id="Node000016" class="node">
<title>Node16</title>
<g id="a_Node000016"><a xlink:href="_game_instance_8cpp.html" target="_top" xlink:title=" ">
<polygon fill="white" stroke="#666666" points="2092.38,-26 1914.38,-26 1914.38,-6 2092.38,-6 2092.38,-26"/>
<text text-anchor="middle" x="2003.38" y="-12.5" font-family="Helvetica,sans-Serif" font-size="10.00">include/MyLibrary/GameInstance.cpp</text>
</a>
</g>
</g>
<!-- Node3&#45;&gt;Node16 -->
<g id="edge16_Node000003_Node000016" class="edge">
<title>Node3&#45;&gt;Node16</title>
<g id="a_edge16_Node000003_Node000016"><a xlink:title=" ">
<path fill="none" stroke="#63b8ff" d="M1615.19,-68.26C1689.51,-59.64 1805.27,-45.8 1905.38,-32 1917.65,-30.31 1930.77,-28.38 1943.3,-26.49"/>
<polygon fill="#63b8ff" stroke="#63b8ff" points="1615.12,-64.74 1605.59,-69.37 1615.92,-71.7 1615.12,-64.74"/>
</a>
</g>
</g>
<!-- Node17 -->
<g id="Node000017" class="node">
<title>Node17</title>
<g id="a_Node000017"><a xlink:href="_credits_8cpp.html" target="_top" xlink:title=" ">
<polygon fill="white" stroke="#666666" points="2238.62,-32 2110.12,-32 2110.12,0 2238.62,0 2238.62,-32"/>
<text text-anchor="start" x="2118.12" y="-18.5" font-family="Helvetica,sans-Serif" font-size="10.00">include/MyLibrary/Scenes</text>
<text text-anchor="middle" x="2174.38" y="-6.5" font-family="Helvetica,sans-Serif" font-size="10.00">/Credits/Credits.cpp</text>
</a>
</g>
</g>
<!-- Node3&#45;&gt;Node17 -->
<g id="edge17_Node000003_Node000017" class="edge">
<title>Node3&#45;&gt;Node17</title>
<g id="a_edge17_Node000003_Node000017"><a xlink:title=" ">
<path fill="none" stroke="#63b8ff" d="M1615.28,-73.85C1724,-68.72 1928.62,-56.56 2101.38,-32 2104.19,-31.6 2107.07,-31.16 2109.96,-30.68"/>
<polygon fill="#63b8ff" stroke="#63b8ff" points="1615.45,-70.34 1605.62,-74.3 1615.77,-77.33 1615.45,-70.34"/>
</a>
</g>
</g>
<!-- Node18 -->
<g id="Node000018" class="node">
<title>Node18</title>
<g id="a_Node000018"><a xlink:href="_game_over_8cpp.html" target="_top" xlink:title=" ">
<polygon fill="white" stroke="#666666" points="2392,-32 2256.75,-32 2256.75,0 2392,0 2392,-32"/>
<text text-anchor="start" x="2264.75" y="-18.5" font-family="Helvetica,sans-Serif" font-size="10.00">include/MyLibrary/Scenes</text>
<text text-anchor="middle" x="2324.38" y="-6.5" font-family="Helvetica,sans-Serif" font-size="10.00">/GameOver/GameOver.cpp</text>
</a>
</g>
</g>
<!-- Node3&#45;&gt;Node18 -->
<g id="edge18_Node000003_Node000018" class="edge">
<title>Node3&#45;&gt;Node18</title>
<g id="a_edge18_Node000003_Node000018"><a xlink:title=" ">
<path fill="none" stroke="#63b8ff" d="M1615.57,-75.36C1746.16,-71.85 2018.79,-61.39 2247.38,-32 2250.35,-31.62 2253.38,-31.19 2256.43,-30.73"/>
<polygon fill="#63b8ff" stroke="#63b8ff" points="1615.55,-71.86 1605.65,-75.62 1615.74,-78.85 1615.55,-71.86"/>
</a>
</g>
</g>
<!-- Node19 -->
<g id="Node000019" class="node">
<title>Node19</title>
<g id="a_Node000019"><a xlink:href="_level_one_8cpp.html" target="_top" xlink:title=" ">
<polygon fill="white" stroke="#666666" points="2538.62,-32 2410.12,-32 2410.12,0 2538.62,0 2538.62,-32"/>
<text text-anchor="start" x="2418.12" y="-18.5" font-family="Helvetica,sans-Serif" font-size="10.00">include/MyLibrary/Scenes</text>
<text text-anchor="middle" x="2474.38" y="-6.5" font-family="Helvetica,sans-Serif" font-size="10.00">/InGame/LevelOne.cpp</text>
</a>
</g>
</g>
<!-- Node3&#45;&gt;Node19 -->
<g id="edge19_Node000003_Node000019" class="edge">
<title>Node3&#45;&gt;Node19</title>
<g id="a_edge19_Node000003_Node000019"><a xlink:title=" ">
<path fill="none" stroke="#63b8ff" d="M1615.61,-76.86C1766.99,-75.73 2113.12,-68.92 2401.38,-32 2404.2,-31.64 2407.08,-31.23 2409.98,-30.78"/>
<polygon fill="#63b8ff" stroke="#63b8ff" points="1615.67,-73.36 1605.69,-76.93 1615.71,-80.36 1615.67,-73.36"/>
</a>
</g>
</g>
<!-- Node20 -->
<g id="Node000020" class="node">
<title>Node20</title>
<g id="a_Node000020"><a xlink:href="_level_two_8cpp.html" target="_top" xlink:title=" ">
<polygon fill="white" stroke="#666666" points="2685.62,-32 2557.12,-32 2557.12,0 2685.62,0 2685.62,-32"/>
<text text-anchor="start" x="2565.12" y="-18.5" font-family="Helvetica,sans-Serif" font-size="10.00">include/MyLibrary/Scenes</text>
<text text-anchor="middle" x="2621.38" y="-6.5" font-family="Helvetica,sans-Serif" font-size="10.00">/InGame/LevelTwo.cpp</text>
</a>
</g>
</g>
<!-- Node3&#45;&gt;Node20 -->
<g id="edge20_Node000003_Node000020" class="edge">
<title>Node3&#45;&gt;Node20</title>
<g id="a_edge20_Node000003_Node000020"><a xlink:title=" ">
<path fill="none" stroke="#63b8ff" d="M1615.46,-77.63C1784.77,-78.13 2201.59,-74.5 2547.38,-32 2550.5,-31.62 2553.69,-31.17 2556.9,-30.68"/>
<polygon fill="#63b8ff" stroke="#63b8ff" points="1615.71,-74.13 1605.7,-77.6 1615.69,-81.13 1615.71,-74.13"/>
</a>
</g>
</g>
<!-- Node21 -->
<g id="Node000021" class="node">
<title>Node21</title>
<g id="a_Node000021"><a xlink:href="_intro_8cpp.html" target="_top" xlink:title=" ">
<polygon fill="white" stroke="#666666" points="2832.62,-32 2704.12,-32 2704.12,0 2832.62,0 2832.62,-32"/>
<text text-anchor="start" x="2712.12" y="-18.5" font-family="Helvetica,sans-Serif" font-size="10.00">include/MyLibrary/Scenes</text>
<text text-anchor="middle" x="2768.38" y="-6.5" font-family="Helvetica,sans-Serif" font-size="10.00">/Intro/Intro.cpp</text>
</a>
</g>
</g>
<!-- Node3&#45;&gt;Node21 -->
<g id="edge21_Node000003_Node000021" class="edge">
<title>Node3&#45;&gt;Node21</title>
<g id="a_edge21_Node000003_Node000021"><a xlink:title=" ">
<path fill="none" stroke="#63b8ff" d="M1615.17,-75.63C1838.38,-71.38 2484.52,-57.19 2694.38,-32 2697.5,-31.63 2700.69,-31.19 2703.9,-30.71"/>
<polygon fill="#63b8ff" stroke="#63b8ff" points="1615.36,-72.12 1605.42,-75.81 1615.49,-79.12 1615.36,-72.12"/>
</a>
</g>
</g>
<!-- Node22 -->
<g id="Node000022" class="node">
<title>Node22</title>
<g id="a_Node000022"><a xlink:href="_main_menu_8cpp.html" target="_top" xlink:title=" ">
<polygon fill="white" stroke="#666666" points="2981.75,-32 2851,-32 2851,0 2981.75,0 2981.75,-32"/>
<text text-anchor="start" x="2859" y="-18.5" font-family="Helvetica,sans-Serif" font-size="10.00">include/MyLibrary/Scenes</text>
<text text-anchor="middle" x="2916.38" y="-6.5" font-family="Helvetica,sans-Serif" font-size="10.00">/MainMenu/MainMenu.cpp</text>
</a>
</g>
</g>
<!-- Node3&#45;&gt;Node22 -->
<g id="edge22_Node000003_Node000022" class="edge">
<title>Node3&#45;&gt;Node22</title>
<g id="a_edge22_Node000003_Node000022"><a xlink:title=" ">
<path fill="none" stroke="#63b8ff" d="M1615.59,-75.98C1857.96,-72.54 2601.78,-59.91 2841.38,-32 2844.41,-31.65 2847.5,-31.24 2850.62,-30.78"/>
<polygon fill="#63b8ff" stroke="#63b8ff" points="1615.55,-72.48 1605.6,-76.13 1615.65,-79.48 1615.55,-72.48"/>
</a>
</g>
</g>
<!-- Node23 -->
<g id="Node000023" class="node">
<title>Node23</title>
<g id="a_Node000023"><a xlink:href="main_8cpp.html" target="_top" xlink:title=" ">
<polygon fill="white" stroke="#666666" points="3135,-26 2999.75,-26 2999.75,-6 3135,-6 3135,-26"/>
<text text-anchor="middle" x="3067.38" y="-12.5" font-family="Helvetica,sans-Serif" font-size="10.00">include/MyLibrary/main.cpp</text>
</a>
</g>
</g>
<!-- Node3&#45;&gt;Node23 -->
<g id="edge23_Node000003_Node000023" class="edge">
<title>Node3&#45;&gt;Node23</title>
<g id="a_edge23_Node000003_Node000023"><a xlink:title=" ">
<path fill="none" stroke="#63b8ff" d="M1615.46,-76.25C1875.65,-73.48 2720.26,-62.29 2990.38,-32 3001.74,-30.72 3013.94,-28.67 3025.2,-26.49"/>
<polygon fill="#63b8ff" stroke="#63b8ff" points="1615.72,-72.75 1605.76,-76.36 1615.79,-79.75 1615.72,-72.75"/>
</a>
</g>
</g>
<!-- Node24 -->
<g id="Node000024" class="node">
<title>Node24</title>
<g id="a_Node000024"><a xlink:href="stdafx_8cpp.html" target="_top" xlink:title=" ">
<polygon fill="white" stroke="#666666" points="3294,-26 3152.75,-26 3152.75,-6 3294,-6 3294,-26"/>
<text text-anchor="middle" x="3223.38" y="-12.5" font-family="Helvetica,sans-Serif" font-size="10.00">include/MyLibrary/stdafx.cpp</text>
</a>
</g>
</g>
<!-- Node3&#45;&gt;Node24 -->
<g id="edge24_Node000003_Node000024" class="edge">
<title>Node3&#45;&gt;Node24</title>
<g id="a_edge24_Node000003_Node000024"><a xlink:title=" ">
<path fill="none" stroke="#63b8ff" d="M1615.07,-76.47C1892.38,-74.32 2842.48,-64.68 3144.38,-32 3156.17,-30.72 3168.84,-28.64 3180.51,-26.43"/>
<polygon fill="#63b8ff" stroke="#63b8ff" points="1615.42,-72.97 1605.44,-76.55 1615.47,-79.97 1615.42,-72.97"/>
</a>
</g>
</g>
</g>
</svg>

<g id="navigator" transform="translate(0 0)" fill="#404254">
  <rect fill="#f2f5e9" fill-opacity="0.5" stroke="#606060" stroke-width=".5" x="0" y="0" width="60" height="60"/>
  <use id="zoomplus" xlink:href="#zoomPlus" x="17" y="9" onmousedown="handleZoom(evt,'in')"/>
  <use id="zoomminus" xlink:href="#zoomMin" x="42" y="9" onmousedown="handleZoom(evt,'out')"/>
  <use id="reset" xlink:href="#resetDef" x="30" y="36" onmousedown="handleReset()"/>
   <use id="arrowup" xlink:href="#arrowUp" x="0" y="0" onmousedown="handlePan(0,-1)"/>
  <use id="arrowright" xlink:href="#arrowRight" x="0" y="0" onmousedown="handlePan(1,0)"/>
  <use id="arrowdown" xlink:href="#arrowDown" x="0" y="0" onmousedown="handlePan(0,1)"/>
  <use id="arrowleft" xlink:href="#arrowLeft" x="0" y="0" onmousedown="handlePan(-1,0)"/>
</g>
<svg viewBox="0 0 15 15" width="100%" height="30px" preserveAspectRatio="xMaxYMin meet">
 <g id="arrow_out" transform="scale(0.3 0.3)">
  <a xlink:href="_scene_manager_8h__dep__incl_org.svg" target="_base">
   <rect id="button" ry="5" rx="5" y="6" x="6" height="38" width="38"
        fill="#f2f5e9" fill-opacity="0.5" stroke="#606060" stroke-width="1.0"/>
   <path id="arrow"
     d="M 11.500037,31.436501 C 11.940474,20.09759 22.043105,11.32322 32.158766,21.979434 L 37.068811,17.246167 C 37.068811,17.246167 37.088388,32 37.088388,32 L 22.160133,31.978069 C 22.160133,31.978069 26.997745,27.140456 26.997745,27.140456 C 18.528582,18.264221 13.291696,25.230495 11.500037,31.436501 z"
     style="fill:#404040;"/>
  </a>
 </g>
</svg>

<style type='text/css'>
<![CDATA[
[data-mouse-over-selected='false'] { opacity: 0.7; }
[data-mouse-over-selected='true']  { opacity: 1.0; }
]]>
</style>
<script type="application/ecmascript"><![CDATA[
document.addEventListener('DOMContentLoaded', (event) => {
  highlightEdges();
  highlightAdjacentNodes();
});
]]></script>
</svg>
