<?xml version="1.0" encoding="UTF-8" standalone="no"?>
<!DOCTYPE svg PUBLIC "-//W3C//DTD SVG 1.1//EN"
 "http://www.w3.org/Graphics/SVG/1.1/DTD/svg11.dtd">
<!-- Generated by graphviz version 12.2.0 (20241103.1931)
 -->
<!-- Title: include/MyLibrary/Core/Managers/SoundManager.h Pages: 1 -->
<svg width="451pt" height="108pt"
 viewBox="0.00 0.00 450.62 108.00" xmlns="http://www.w3.org/2000/svg" xmlns:xlink="http://www.w3.org/1999/xlink">
<g id="graph0" class="graph" transform="scale(1 1) rotate(0) translate(4 104)">
<title>include/MyLibrary/Core/Managers/SoundManager.h</title>
<!-- Node1 -->
<g id="Node000001" class="node">
<title>Node1</title>
<g id="a_Node000001"><a xlink:title="Declares the SoundManager class used to load and manage sound effects.">
<polygon fill="#999999" stroke="#666666" points="300.5,-100 162.25,-100 162.25,-68 300.5,-68 300.5,-100"/>
<text text-anchor="start" x="170.25" y="-86.5" font-family="Helvetica,sans-Serif" font-size="10.00">include/MyLibrary/Core</text>
<text text-anchor="middle" x="231.38" y="-74.5" font-family="Helvetica,sans-Serif" font-size="10.00">/Managers/SoundManager.h</text>
</a>
</g>
</g>
<!-- Node2 -->
<g id="Node000002" class="node">
<title>Node2</title>
<g id="a_Node000002"><a xlink:href="_sound_manager_8cpp.html" target="_top" xlink:title=" ">
<polygon fill="white" stroke="#666666" points="148.75,-32 0,-32 0,0 148.75,0 148.75,-32"/>
<text text-anchor="start" x="8" y="-18.5" font-family="Helvetica,sans-Serif" font-size="10.00">include/MyLibrary/Core</text>
<text text-anchor="middle" x="74.38" y="-6.5" font-family="Helvetica,sans-Serif" font-size="10.00">/Managers/SoundManager.cpp</text>
</a>
</g>
</g>
<!-- Node1&#45;&gt;Node2 -->
<g id="edge1_Node000001_Node000002" class="edge">
<title>Node1&#45;&gt;Node2</title>
<g id="a_edge1_Node000001_Node000002"><a xlink:title=" ">
<path fill="none" stroke="#63b8ff" d="M184.18,-63.16C160.8,-53.33 133,-41.65 111.23,-32.49"/>
<polygon fill="#63b8ff" stroke="#63b8ff" points="182.6,-66.29 193.17,-66.94 185.31,-59.84 182.6,-66.29"/>
</a>
</g>
</g>
<!-- Node3 -->
<g id="Node000003" class="node">
<title>Node3</title>
<g id="a_Node000003"><a xlink:href="_enemy_8cpp.html" target="_top" xlink:title=" ">
<polygon fill="white" stroke="#666666" points="295.62,-32 167.12,-32 167.12,0 295.62,0 295.62,-32"/>
<text text-anchor="start" x="175.12" y="-18.5" font-family="Helvetica,sans-Serif" font-size="10.00">include/MyLibrary/Entities</text>
<text text-anchor="middle" x="231.38" y="-6.5" font-family="Helvetica,sans-Serif" font-size="10.00">/Enemy.cpp</text>
</a>
</g>
</g>
<!-- Node1&#45;&gt;Node3 -->
<g id="edge2_Node000001_Node000003" class="edge">
<title>Node1&#45;&gt;Node3</title>
<g id="a_edge2_Node000001_Node000003"><a xlink:title=" ">
<path fill="none" stroke="#63b8ff" d="M231.38,-56.31C231.38,-48.12 231.38,-39.38 231.38,-32.22"/>
<polygon fill="#63b8ff" stroke="#63b8ff" points="227.88,-56.18 231.38,-66.18 234.88,-56.18 227.88,-56.18"/>
</a>
</g>
</g>
<!-- Node4 -->
<g id="Node000004" class="node">
<title>Node4</title>
<g id="a_Node000004"><a xlink:href="_spaceship_8cpp.html" target="_top" xlink:title=" ">
<polygon fill="white" stroke="#666666" points="442.62,-32 314.12,-32 314.12,0 442.62,0 442.62,-32"/>
<text text-anchor="start" x="322.12" y="-18.5" font-family="Helvetica,sans-Serif" font-size="10.00">include/MyLibrary/Entities</text>
<text text-anchor="middle" x="378.38" y="-6.5" font-family="Helvetica,sans-Serif" font-size="10.00">/Spaceship.cpp</text>
</a>
</g>
</g>
<!-- Node1&#45;&gt;Node4 -->
<g id="edge3_Node000001_Node000004" class="edge">
<title>Node1&#45;&gt;Node4</title>
<g id="a_edge3_Node000001_Node000004"><a xlink:title=" ">
<path fill="none" stroke="#63b8ff" d="M276.16,-62.89C297.92,-53.12 323.66,-41.56 343.87,-32.49"/>
<polygon fill="#63b8ff" stroke="#63b8ff" points="274.91,-59.62 267.22,-66.91 277.78,-66 274.91,-59.62"/>
</a>
</g>
</g>
</g>
</svg>
