<?xml version="1.0" encoding="UTF-8" standalone="no"?>
<!DOCTYPE svg PUBLIC "-//W3C//DTD SVG 1.1//EN"
 "http://www.w3.org/Graphics/SVG/1.1/DTD/svg11.dtd">
<!-- Generated by graphviz version 12.2.0 (20241103.1931)
 -->
<!-- Title: include/MyLibrary/Core/Utility/Strings.h Pages: 1 -->
<svg width="1075pt" height="108pt"
 viewBox="0.00 0.00 1074.62 108.00" xmlns="http://www.w3.org/2000/svg" xmlns:xlink="http://www.w3.org/1999/xlink">
<g id="graph0" class="graph" transform="scale(1 1) rotate(0) translate(4 104)">
<title>include/MyLibrary/Core/Utility/Strings.h</title>
<!-- Node1 -->
<g id="Node000001" class="node">
<title>Node1</title>
<g id="a_Node000001"><a xlink:title=" ">
<polygon fill="#999999" stroke="#666666" points="611.5,-100 495,-100 495,-68 611.5,-68 611.5,-100"/>
<text text-anchor="start" x="503" y="-86.5" font-family="Helvetica,sans-Serif" font-size="10.00">include/MyLibrary/Core</text>
<text text-anchor="middle" x="553.25" y="-74.5" font-family="Helvetica,sans-Serif" font-size="10.00">/Utility/Strings.h</text>
</a>
</g>
</g>
<!-- Node2 -->
<g id="Node000002" class="node">
<title>Node2</title>
<g id="a_Node000002"><a xlink:href="_enemy_8cpp.html" target="_top" xlink:title=" ">
<polygon fill="white" stroke="#666666" points="128.5,-32 0,-32 0,0 128.5,0 128.5,-32"/>
<text text-anchor="start" x="8" y="-18.5" font-family="Helvetica,sans-Serif" font-size="10.00">include/MyLibrary/Entities</text>
<text text-anchor="middle" x="64.25" y="-6.5" font-family="Helvetica,sans-Serif" font-size="10.00">/Enemy.cpp</text>
</a>
</g>
</g>
<!-- Node1&#45;&gt;Node2 -->
<g id="edge1_Node000001_Node000002" class="edge">
<title>Node1&#45;&gt;Node2</title>
<g id="a_edge1_Node000001_Node000002"><a xlink:title=" ">
<path fill="none" stroke="#63b8ff" d="M483.36,-76.09C400.69,-67.52 259.03,-51.63 138.25,-32 135.14,-31.5 131.97,-30.95 128.77,-30.39"/>
<polygon fill="#63b8ff" stroke="#63b8ff" points="482.82,-79.55 493.12,-77.09 483.53,-72.59 482.82,-79.55"/>
</a>
</g>
</g>
<!-- Node3 -->
<g id="Node000003" class="node">
<title>Node3</title>
<g id="a_Node000003"><a xlink:href="_spaceship_8cpp.html" target="_top" xlink:title=" ">
<polygon fill="white" stroke="#666666" points="275.5,-32 147,-32 147,0 275.5,0 275.5,-32"/>
<text text-anchor="start" x="155" y="-18.5" font-family="Helvetica,sans-Serif" font-size="10.00">include/MyLibrary/Entities</text>
<text text-anchor="middle" x="211.25" y="-6.5" font-family="Helvetica,sans-Serif" font-size="10.00">/Spaceship.cpp</text>
</a>
</g>
</g>
<!-- Node1&#45;&gt;Node3 -->
<g id="edge2_Node000001_Node000003" class="edge">
<title>Node1&#45;&gt;Node3</title>
<g id="a_edge2_Node000001_Node000003"><a xlink:title=" ">
<path fill="none" stroke="#63b8ff" d="M483.46,-70.07C429.12,-59.93 351.84,-45.35 284.25,-32 281.46,-31.45 278.61,-30.88 275.73,-30.3"/>
<polygon fill="#63b8ff" stroke="#63b8ff" points="482.73,-73.5 493.2,-71.89 484.01,-66.61 482.73,-73.5"/>
</a>
</g>
</g>
<!-- Node4 -->
<g id="Node000004" class="node">
<title>Node4</title>
<g id="a_Node000004"><a xlink:href="_game_instance_8cpp.html" target="_top" xlink:title=" ">
<polygon fill="white" stroke="#666666" points="471.25,-26 293.25,-26 293.25,-6 471.25,-6 471.25,-26"/>
<text text-anchor="middle" x="382.25" y="-12.5" font-family="Helvetica,sans-Serif" font-size="10.00">include/MyLibrary/GameInstance.cpp</text>
</a>
</g>
</g>
<!-- Node1&#45;&gt;Node4 -->
<g id="edge3_Node000001_Node000004" class="edge">
<title>Node1&#45;&gt;Node4</title>
<g id="a_edge3_Node000001_Node000004"><a xlink:title=" ">
<path fill="none" stroke="#63b8ff" d="M502.75,-63.51C471.1,-51.29 431.7,-36.09 406.76,-26.46"/>
<polygon fill="#63b8ff" stroke="#63b8ff" points="501.16,-66.65 511.75,-66.98 503.68,-60.11 501.16,-66.65"/>
</a>
</g>
</g>
<!-- Node5 -->
<g id="Node000005" class="node">
<title>Node5</title>
<g id="a_Node000005"><a xlink:href="_credits_8cpp.html" target="_top" xlink:title=" ">
<polygon fill="white" stroke="#666666" points="617.5,-32 489,-32 489,0 617.5,0 617.5,-32"/>
<text text-anchor="start" x="497" y="-18.5" font-family="Helvetica,sans-Serif" font-size="10.00">include/MyLibrary/Scenes</text>
<text text-anchor="middle" x="553.25" y="-6.5" font-family="Helvetica,sans-Serif" font-size="10.00">/Credits/Credits.cpp</text>
</a>
</g>
</g>
<!-- Node1&#45;&gt;Node5 -->
<g id="edge4_Node000001_Node000005" class="edge">
<title>Node1&#45;&gt;Node5</title>
<g id="a_edge4_Node000001_Node000005"><a xlink:title=" ">
<path fill="none" stroke="#63b8ff" d="M553.25,-56.31C553.25,-48.12 553.25,-39.38 553.25,-32.22"/>
<polygon fill="#63b8ff" stroke="#63b8ff" points="549.75,-56.18 553.25,-66.18 556.75,-56.18 549.75,-56.18"/>
</a>
</g>
</g>
<!-- Node6 -->
<g id="Node000006" class="node">
<title>Node6</title>
<g id="a_Node000006"><a xlink:href="_game_over_8cpp.html" target="_top" xlink:title=" ">
<polygon fill="white" stroke="#666666" points="770.88,-32 635.62,-32 635.62,0 770.88,0 770.88,-32"/>
<text text-anchor="start" x="643.62" y="-18.5" font-family="Helvetica,sans-Serif" font-size="10.00">include/MyLibrary/Scenes</text>
<text text-anchor="middle" x="703.25" y="-6.5" font-family="Helvetica,sans-Serif" font-size="10.00">/GameOver/GameOver.cpp</text>
</a>
</g>
</g>
<!-- Node1&#45;&gt;Node6 -->
<g id="edge5_Node000001_Node000006" class="edge">
<title>Node1&#45;&gt;Node6</title>
<g id="a_edge5_Node000001_Node000006"><a xlink:title=" ">
<path fill="none" stroke="#63b8ff" d="M598.95,-62.89C621.15,-53.12 647.42,-41.56 668.04,-32.49"/>
<polygon fill="#63b8ff" stroke="#63b8ff" points="597.55,-59.69 589.8,-66.92 600.37,-66.09 597.55,-59.69"/>
</a>
</g>
</g>
<!-- Node7 -->
<g id="Node000007" class="node">
<title>Node7</title>
<g id="a_Node000007"><a xlink:href="_level_one_8cpp.html" target="_top" xlink:title=" ">
<polygon fill="white" stroke="#666666" points="917.5,-32 789,-32 789,0 917.5,0 917.5,-32"/>
<text text-anchor="start" x="797" y="-18.5" font-family="Helvetica,sans-Serif" font-size="10.00">include/MyLibrary/Scenes</text>
<text text-anchor="middle" x="853.25" y="-6.5" font-family="Helvetica,sans-Serif" font-size="10.00">/InGame/LevelOne.cpp</text>
</a>
</g>
</g>
<!-- Node1&#45;&gt;Node7 -->
<g id="edge6_Node000001_Node000007" class="edge">
<title>Node1&#45;&gt;Node7</title>
<g id="a_edge6_Node000001_Node000007"><a xlink:title=" ">
<path fill="none" stroke="#63b8ff" d="M622.84,-67.69C672.85,-56.69 739.77,-41.97 788.6,-31.22"/>
<polygon fill="#63b8ff" stroke="#63b8ff" points="622.3,-64.23 613.28,-69.79 623.8,-71.06 622.3,-64.23"/>
</a>
</g>
</g>
<!-- Node8 -->
<g id="Node000008" class="node">
<title>Node8</title>
<g id="a_Node000008"><a xlink:href="_main_menu_8cpp.html" target="_top" xlink:title=" ">
<polygon fill="white" stroke="#666666" points="1066.62,-32 935.88,-32 935.88,0 1066.62,0 1066.62,-32"/>
<text text-anchor="start" x="943.88" y="-18.5" font-family="Helvetica,sans-Serif" font-size="10.00">include/MyLibrary/Scenes</text>
<text text-anchor="middle" x="1001.25" y="-6.5" font-family="Helvetica,sans-Serif" font-size="10.00">/MainMenu/MainMenu.cpp</text>
</a>
</g>
</g>
<!-- Node1&#45;&gt;Node8 -->
<g id="edge7_Node000001_Node000008" class="edge">
<title>Node1&#45;&gt;Node8</title>
<g id="a_edge7_Node000001_Node000008"><a xlink:title=" ">
<path fill="none" stroke="#63b8ff" d="M623.06,-74.76C698.15,-65.59 820.96,-49.71 926.25,-32 929.26,-31.49 932.34,-30.96 935.44,-30.4"/>
<polygon fill="#63b8ff" stroke="#63b8ff" points="622.89,-71.25 613.39,-75.93 623.74,-78.2 622.89,-71.25"/>
</a>
</g>
</g>
</g>
</svg>
