<?xml version="1.0" encoding="UTF-8" standalone="no"?>
<!DOCTYPE svg PUBLIC "-//W3C//DTD SVG 1.1//EN"
 "http://www.w3.org/Graphics/SVG/1.1/DTD/svg11.dtd">
<!-- Generated by graphviz version 12.2.0 (20241103.1931)
 -->
<!-- Title: GameInstance::Update Pages: 1 -->
<svg width="399pt" height="66pt"
 viewBox="0.00 0.00 398.75 66.00" xmlns="http://www.w3.org/2000/svg" xmlns:xlink="http://www.w3.org/1999/xlink">
<g id="graph0" class="graph" transform="scale(1 1) rotate(0) translate(4 62)">
<title>GameInstance::Update</title>
<!-- Node1 -->
<g id="Node000001" class="node">
<title>Node1</title>
<g id="a_Node000001"><a xlink:title="Updates the game logic.">
<polygon fill="#999999" stroke="#666666" points="117.25,-39 0,-39 0,-19 117.25,-19 117.25,-39"/>
<text text-anchor="middle" x="58.62" y="-25.5" font-family="Helvetica,sans-Serif" font-size="10.00">GameInstance::Update</text>
</a>
</g>
</g>
<!-- Node2 -->
<g id="Node000002" class="node">
<title>Node2</title>
<g id="a_Node000002"><a xlink:href="class_scene_manager.html#adbede64d5706507e65f0e9dd0eaddd6b" target="_top" xlink:title="Updates the currently active scene.">
<polygon fill="white" stroke="#666666" points="272,-39 153.25,-39 153.25,-19 272,-19 272,-39"/>
<text text-anchor="middle" x="212.62" y="-25.5" font-family="Helvetica,sans-Serif" font-size="10.00">SceneManager::Update</text>
</a>
</g>
</g>
<!-- Node1&#45;&gt;Node2 -->
<g id="edge1_Node000001_Node000002" class="edge">
<title>Node1&#45;&gt;Node2</title>
<g id="a_edge1_Node000001_Node000002"><a xlink:title=" ">
<path fill="none" stroke="#63b8ff" d="M117.52,-29C125.39,-29 133.54,-29 141.59,-29"/>
<polygon fill="#63b8ff" stroke="#63b8ff" points="141.37,-32.5 151.37,-29 141.37,-25.5 141.37,-32.5"/>
</a>
</g>
</g>
<!-- Node3 -->
<g id="Node000003" class="node">
<title>Node3</title>
<g id="a_Node000003"><a xlink:href="class_cursor.html#a63a9f41bc993fa26d7b897bed958109d" target="_top" xlink:title="Retrieve the singleton instance of the Cursor class.">
<polygon fill="white" stroke="#666666" points="382.88,-58 315.88,-58 315.88,-38 382.88,-38 382.88,-58"/>
<text text-anchor="middle" x="349.38" y="-44.5" font-family="Helvetica,sans-Serif" font-size="10.00">Cursor::Get</text>
</a>
</g>
</g>
<!-- Node2&#45;&gt;Node3 -->
<g id="edge2_Node000002_Node000003" class="edge">
<title>Node2&#45;&gt;Node3</title>
<g id="a_edge2_Node000002_Node000003"><a xlink:title=" ">
<path fill="none" stroke="#63b8ff" d="M272.34,-37.28C283.05,-38.79 294.07,-40.34 304.27,-41.78"/>
<polygon fill="#63b8ff" stroke="#63b8ff" points="303.5,-45.21 313.89,-43.14 304.48,-38.28 303.5,-45.21"/>
</a>
</g>
</g>
<!-- Node4 -->
<g id="Node000004" class="node">
<title>Node4</title>
<g id="a_Node000004"><a xlink:href="class_cursor.html#a0d5032e03907b8374630fdf3494558d7" target="_top" xlink:title="Update the cursor&#39;s internal state.">
<polygon fill="white" stroke="#666666" points="390.75,-20 308,-20 308,0 390.75,0 390.75,-20"/>
<text text-anchor="middle" x="349.38" y="-6.5" font-family="Helvetica,sans-Serif" font-size="10.00">Cursor::Update</text>
</a>
</g>
</g>
<!-- Node2&#45;&gt;Node4 -->
<g id="edge3_Node000002_Node000004" class="edge">
<title>Node2&#45;&gt;Node4</title>
<g id="a_edge3_Node000002_Node000004"><a xlink:title=" ">
<path fill="none" stroke="#63b8ff" d="M272.34,-20.72C280.34,-19.59 288.51,-18.44 296.39,-17.33"/>
<polygon fill="#63b8ff" stroke="#63b8ff" points="296.75,-20.81 306.16,-15.95 295.77,-13.88 296.75,-20.81"/>
</a>
</g>
</g>
</g>
</svg>
