<?xml version="1.0" encoding="UTF-8" standalone="no"?>
<!DOCTYPE svg PUBLIC "-//W3C//DTD SVG 1.1//EN"
 "http://www.w3.org/Graphics/SVG/1.1/DTD/svg11.dtd">
<!-- Generated by graphviz version 12.2.0 (20241103.1931)
 -->
<!-- Title: Enemy::Update Pages: 1 -->
<svg width="493pt" height="230pt"
 viewBox="0.00 0.00 492.50 230.00" xmlns="http://www.w3.org/2000/svg" xmlns:xlink="http://www.w3.org/1999/xlink">

<svg id="main" version="1.1" xmlns="http://www.w3.org/2000/svg" xmlns:xlink="http://www.w3.org/1999/xlink" xml:space="preserve">

<style type="text/css"><![CDATA[
.node, .edge {opacity: 0.7;}
.node.selected, .edge.selected {opacity: 1;}
.edge:hover path { stroke: red; }
.edge:hover polygon { stroke: red; fill: red; }
]]></style>
<script type="application/ecmascript" xlink:href="svg.min.js"/>
<svg id="graph" class="graph">
<g id="graph0" class="graph" transform="scale(1 1) rotate(0) translate(4 226)">
<title>Enemy::Update</title>
<!-- Node1 -->
<g id="Node000001" class="node">
<title>Node1</title>
<g id="a_Node000001"><a xlink:title="Updates the enemy&#39;s state.">
<polygon fill="#999999" stroke="#666666" points="84.25,-102 0,-102 0,-82 84.25,-82 84.25,-102"/>
<text text-anchor="middle" x="42.12" y="-88.5" font-family="Helvetica,sans-Serif" font-size="10.00">Enemy::Update</text>
</a>
</g>
</g>
<!-- Node2 -->
<g id="Node000002" class="node">
<title>Node2</title>
<g id="a_Node000002"><a xlink:href="class_enemy.html#ad01d14d9036a13fa8053479c01833028" target="_top" xlink:title="Handles the enemy&#39;s movement behavior.">
<polygon fill="white" stroke="#666666" points="246.5,-184 157,-184 157,-164 246.5,-164 246.5,-184"/>
<text text-anchor="middle" x="201.75" y="-170.5" font-family="Helvetica,sans-Serif" font-size="10.00">Enemy::OnMove</text>
</a>
</g>
</g>
<!-- Node1&#45;&gt;Node2 -->
<g id="edge1_Node000001_Node000002" class="edge">
<title>Node1&#45;&gt;Node2</title>
<g id="a_edge1_Node000001_Node000002"><a xlink:title=" ">
<path fill="none" stroke="#63b8ff" d="M52.56,-102.19C66.15,-116.24 92.65,-141.38 120.25,-155 128.22,-158.93 137.04,-162.07 145.83,-164.58"/>
<polygon fill="#63b8ff" stroke="#63b8ff" points="144.87,-167.94 155.42,-167.04 146.61,-161.16 144.87,-167.94"/>
</a>
</g>
</g>
<!-- Node5 -->
<g id="Node000005" class="node">
<title>Node5</title>
<g id="a_Node000005"><a xlink:href="class_enemy.html#aa715eadaf6ac2035640661a2c145cd45" target="_top" xlink:title="Processes the enemy&#39;s shooting behavior.">
<polygon fill="white" stroke="#666666" points="265.25,-146 138.25,-146 138.25,-126 265.25,-126 265.25,-146"/>
<text text-anchor="middle" x="201.75" y="-132.5" font-family="Helvetica,sans-Serif" font-size="10.00">Enemy::ProcessShooting</text>
</a>
</g>
</g>
<!-- Node1&#45;&gt;Node5 -->
<g id="edge4_Node000001_Node000005" class="edge">
<title>Node1&#45;&gt;Node5</title>
<g id="a_edge4_Node000001_Node000005"><a xlink:title=" ">
<path fill="none" stroke="#63b8ff" d="M73.35,-102.43C87.51,-107.15 104.66,-112.64 120.25,-117 127.5,-119.03 135.15,-121.02 142.74,-122.91"/>
<polygon fill="#63b8ff" stroke="#63b8ff" points="141.75,-126.27 152.29,-125.23 143.4,-119.47 141.75,-126.27"/>
</a>
</g>
</g>
<!-- Node8 -->
<g id="Node000008" class="node">
<title>Node8</title>
<g id="a_Node000008"><a xlink:href="namespace_gameplay_utility.html#a3558284331e73b20446925ae3c85e455" target="_top" xlink:title="Removes inactive projectiles from the game.">
<polygon fill="white" stroke="#666666" points="283.25,-108 120.25,-108 120.25,-76 283.25,-76 283.25,-108"/>
<text text-anchor="start" x="128.25" y="-94.5" font-family="Helvetica,sans-Serif" font-size="10.00">GameplayUtility::RemoveInactive</text>
<text text-anchor="middle" x="201.75" y="-82.5" font-family="Helvetica,sans-Serif" font-size="10.00">Projectiles</text>
</a>
</g>
</g>
<!-- Node1&#45;&gt;Node8 -->
<g id="edge7_Node000001_Node000008" class="edge">
<title>Node1&#45;&gt;Node8</title>
<g id="a_edge7_Node000001_Node000008"><a xlink:title=" ">
<path fill="none" stroke="#63b8ff" d="M84.54,-92C92.06,-92 100.18,-92 108.5,-92"/>
<polygon fill="#63b8ff" stroke="#63b8ff" points="108.43,-95.5 118.43,-92 108.43,-88.5 108.43,-95.5"/>
</a>
</g>
</g>
<!-- Node9 -->
<g id="Node000009" class="node">
<title>Node9</title>
<g id="a_Node000009"><a xlink:href="class_enemy.html#a5e89e8c0682754b01150023cb458b7d2" target="_top" xlink:title="Reverses the movement direction when the enemy reaches a movement limit.">
<polygon fill="white" stroke="#666666" points="269.38,-58 134.12,-58 134.12,-38 269.38,-38 269.38,-58"/>
<text text-anchor="middle" x="201.75" y="-44.5" font-family="Helvetica,sans-Serif" font-size="10.00">Enemy::ReverseMovement</text>
</a>
</g>
</g>
<!-- Node1&#45;&gt;Node9 -->
<g id="edge8_Node000001_Node000009" class="edge">
<title>Node1&#45;&gt;Node9</title>
<g id="a_edge8_Node000001_Node000009"><a xlink:title=" ">
<path fill="none" stroke="#63b8ff" d="M73.35,-81.57C87.51,-76.85 104.66,-71.36 120.25,-67 127.5,-64.97 135.15,-62.98 142.74,-61.09"/>
<polygon fill="#63b8ff" stroke="#63b8ff" points="143.4,-64.53 152.29,-58.77 141.75,-57.73 143.4,-64.53"/>
</a>
</g>
</g>
<!-- Node10 -->
<g id="Node000010" class="node">
<title>Node10</title>
<g id="a_Node000010"><a xlink:href="class_enemy.html#ab4090bc9625ecb234b504ab1ba18a760" target="_top" xlink:title="Updates the enemy&#39;s projectiles, checking for collisions and updating their positions.">
<polygon fill="white" stroke="#666666" points="266.75,-20 136.75,-20 136.75,0 266.75,0 266.75,-20"/>
<text text-anchor="middle" x="201.75" y="-6.5" font-family="Helvetica,sans-Serif" font-size="10.00">Enemy::UpdateProjectiles</text>
</a>
</g>
</g>
<!-- Node1&#45;&gt;Node10 -->
<g id="edge9_Node000001_Node000010" class="edge">
<title>Node1&#45;&gt;Node10</title>
<g id="a_edge9_Node000001_Node000010"><a xlink:title=" ">
<path fill="none" stroke="#63b8ff" d="M52.56,-81.81C66.15,-67.76 92.65,-42.62 120.25,-29 123.94,-27.18 127.82,-25.52 131.79,-24.03"/>
<polygon fill="#63b8ff" stroke="#63b8ff" points="132.69,-27.42 141.04,-20.9 130.45,-20.79 132.69,-27.42"/>
</a>
</g>
</g>
<!-- Node3 -->
<g id="Node000003" class="node">
<title>Node3</title>
<g id="a_Node000003"><a xlink:href="class_enemy.html#af4ff5144325866b3766530a3363dd549" target="_top" xlink:title="Gets the horizontal movement for the enemy based on a sine wave pattern.">
<polygon fill="white" stroke="#666666" points="481.12,-222 322.62,-222 322.62,-202 481.12,-202 481.12,-222"/>
<text text-anchor="middle" x="401.88" y="-208.5" font-family="Helvetica,sans-Serif" font-size="10.00">Enemy::GetHorizontalMovement</text>
</a>
</g>
</g>
<!-- Node2&#45;&gt;Node3 -->
<g id="edge2_Node000002_Node000003" class="edge">
<title>Node2&#45;&gt;Node3</title>
<g id="a_edge2_Node000002_Node000003"><a xlink:title=" ">
<path fill="none" stroke="#63b8ff" d="M246.72,-182.43C272.8,-187.44 306.35,-193.87 335.49,-199.46"/>
<polygon fill="#63b8ff" stroke="#63b8ff" points="334.45,-202.82 344.93,-201.27 335.77,-195.95 334.45,-202.82"/>
</a>
</g>
</g>
<!-- Node4 -->
<g id="Node000004" class="node">
<title>Node4</title>
<g id="a_Node000004"><a xlink:href="class_enemy.html#a75d09348e674b364625e010f2f0d945d" target="_top" xlink:title="Gets the vertical movement for the enemy based on a speed and direction.">
<polygon fill="white" stroke="#666666" points="475.12,-184 328.62,-184 328.62,-164 475.12,-164 475.12,-184"/>
<text text-anchor="middle" x="401.88" y="-170.5" font-family="Helvetica,sans-Serif" font-size="10.00">Enemy::GetVerticalMovement</text>
</a>
</g>
</g>
<!-- Node2&#45;&gt;Node4 -->
<g id="edge3_Node000002_Node000004" class="edge">
<title>Node2&#45;&gt;Node4</title>
<g id="a_edge3_Node000002_Node000004"><a xlink:title=" ">
<path fill="none" stroke="#63b8ff" d="M246.72,-174C267.39,-174 292.75,-174 316.88,-174"/>
<polygon fill="#63b8ff" stroke="#63b8ff" points="316.72,-177.5 326.72,-174 316.72,-170.5 316.72,-177.5"/>
</a>
</g>
</g>
<!-- Node6 -->
<g id="Node000006" class="node">
<title>Node6</title>
<g id="a_Node000006"><a xlink:href="class_random_generator.html#a216b26ebaa2ccd17a7d27f1d3a855136" target="_top" xlink:title="Generates a random integer in the specified range.">
<polygon fill="white" stroke="#666666" points="484.5,-146 319.25,-146 319.25,-126 484.5,-126 484.5,-146"/>
<text text-anchor="middle" x="401.88" y="-132.5" font-family="Helvetica,sans-Serif" font-size="10.00">RandomGenerator::GetRandomInt</text>
</a>
</g>
</g>
<!-- Node5&#45;&gt;Node6 -->
<g id="edge5_Node000005_Node000006" class="edge">
<title>Node5&#45;&gt;Node6</title>
<g id="a_edge5_Node000005_Node000006"><a xlink:title=" ">
<path fill="none" stroke="#63b8ff" d="M265.71,-136C279.03,-136 293.36,-136 307.54,-136"/>
<polygon fill="#63b8ff" stroke="#63b8ff" points="307.33,-139.5 317.33,-136 307.33,-132.5 307.33,-139.5"/>
</a>
</g>
</g>
<!-- Node7 -->
<g id="Node000007" class="node">
<title>Node7</title>
<g id="a_Node000007"><a xlink:href="namespace_gameplay_utility.html#ac927e2960c3edb516e0c839afe16428c" target="_top" xlink:title="Spawns a new projectile with the given properties.">
<polygon fill="white" stroke="#666666" points="483,-108 320.75,-108 320.75,-88 483,-88 483,-108"/>
<text text-anchor="middle" x="401.88" y="-94.5" font-family="Helvetica,sans-Serif" font-size="10.00">GameplayUtility::SpawnProjectile</text>
</a>
</g>
</g>
<!-- Node5&#45;&gt;Node7 -->
<g id="edge6_Node000005_Node000007" class="edge">
<title>Node5&#45;&gt;Node7</title>
<g id="a_edge6_Node000005_Node000007"><a xlink:title=" ">
<path fill="none" stroke="#63b8ff" d="M257.41,-125.52C281.56,-120.88 310.14,-115.4 335.41,-110.56"/>
<polygon fill="#63b8ff" stroke="#63b8ff" points="335.74,-114.06 344.9,-108.74 334.42,-107.18 335.74,-114.06"/>
</a>
</g>
</g>
</g>
</svg>
</svg>

<style type='text/css'>
<![CDATA[
[data-mouse-over-selected='false'] { opacity: 0.7; }
[data-mouse-over-selected='true']  { opacity: 1.0; }
]]>
</style>
<script type="application/ecmascript"><![CDATA[
document.addEventListener('DOMContentLoaded', (event) => {
  highlightEdges();
  highlightAdjacentNodes();
});
]]></script>
</svg>
