<?xml version="1.0" encoding="UTF-8" standalone="no"?>
<!DOCTYPE svg PUBLIC "-//W3C//DTD SVG 1.1//EN"
 "http://www.w3.org/Graphics/SVG/1.1/DTD/svg11.dtd">
<!-- Generated by graphviz version 12.2.0 (20241103.1931)
 -->
<!-- Title: Enemy::GetVerticalMovement Pages: 1 -->
<svg width="400pt" height="28pt"
 viewBox="0.00 0.00 400.25 28.00" xmlns="http://www.w3.org/2000/svg" xmlns:xlink="http://www.w3.org/1999/xlink">
<g id="graph0" class="graph" transform="scale(1 1) rotate(0) translate(4 24)">
<title>Enemy::GetVerticalMovement</title>
<!-- Node1 -->
<g id="Node000001" class="node">
<title>Node1</title>
<g id="a_Node000001"><a xlink:title="Gets the vertical movement for the enemy based on a speed and direction.">
<polygon fill="#999999" stroke="#666666" points="392.25,-20 245.75,-20 245.75,0 392.25,0 392.25,-20"/>
<text text-anchor="middle" x="319" y="-6.5" font-family="Helvetica,sans-Serif" font-size="10.00">Enemy::GetVerticalMovement</text>
</a>
</g>
</g>
<!-- Node2 -->
<g id="Node000002" class="node">
<title>Node2</title>
<g id="a_Node000002"><a xlink:href="class_enemy.html#ad01d14d9036a13fa8053479c01833028" target="_top" xlink:title="Handles the enemy&#39;s movement behavior.">
<polygon fill="white" stroke="#666666" points="209.75,-20 120.25,-20 120.25,0 209.75,0 209.75,-20"/>
<text text-anchor="middle" x="165" y="-6.5" font-family="Helvetica,sans-Serif" font-size="10.00">Enemy::OnMove</text>
</a>
</g>
</g>
<!-- Node1&#45;&gt;Node2 -->
<g id="edge1_Node000001_Node000002" class="edge">
<title>Node1&#45;&gt;Node2</title>
<g id="a_edge1_Node000001_Node000002"><a xlink:title=" ">
<path fill="none" stroke="#63b8ff" d="M234.24,-10C225.96,-10 217.81,-10 210.18,-10"/>
<polygon fill="#63b8ff" stroke="#63b8ff" points="234.05,-13.5 244.05,-10 234.05,-6.5 234.05,-13.5"/>
</a>
</g>
</g>
<!-- Node3 -->
<g id="Node000003" class="node">
<title>Node3</title>
<g id="a_Node000003"><a xlink:href="class_enemy.html#ac892bd8564cb726b3538925a32f9f727" target="_top" xlink:title="Updates the enemy&#39;s state.">
<polygon fill="white" stroke="#666666" points="84.25,-20 0,-20 0,0 84.25,0 84.25,-20"/>
<text text-anchor="middle" x="42.12" y="-6.5" font-family="Helvetica,sans-Serif" font-size="10.00">Enemy::Update</text>
</a>
</g>
</g>
<!-- Node2&#45;&gt;Node3 -->
<g id="edge2_Node000002_Node000003" class="edge">
<title>Node2&#45;&gt;Node3</title>
<g id="a_edge2_Node000002_Node000003"><a xlink:title=" ">
<path fill="none" stroke="#63b8ff" d="M108.66,-10C100.51,-10 92.25,-10 84.46,-10"/>
<polygon fill="#63b8ff" stroke="#63b8ff" points="108.51,-13.5 118.51,-10 108.51,-6.5 108.51,-13.5"/>
</a>
</g>
</g>
</g>
</svg>
