<?xml version="1.0" encoding="UTF-8" standalone="no"?>
<!DOCTYPE svg PUBLIC "-//W3C//DTD SVG 1.1//EN"
 "http://www.w3.org/Graphics/SVG/1.1/DTD/svg11.dtd">
<!-- Generated by graphviz version 12.2.0 (20241103.1931)
 -->
<!-- Title: LevelOne::CheckLives Pages: 1 -->
<svg width="499pt" height="28pt"
 viewBox="0.00 0.00 498.75 28.00" xmlns="http://www.w3.org/2000/svg" xmlns:xlink="http://www.w3.org/1999/xlink">
<g id="graph0" class="graph" transform="scale(1 1) rotate(0) translate(4 24)">
<title>LevelOne::CheckLives</title>
<!-- Node1 -->
<g id="Node000001" class="node">
<title>Node1</title>
<g id="a_Node000001"><a xlink:title="Checks the player&#39;s lives and updates the game state if necessary.">
<polygon fill="#999999" stroke="#666666" points="115,-20 0,-20 0,0 115,0 115,-20"/>
<text text-anchor="middle" x="57.5" y="-6.5" font-family="Helvetica,sans-Serif" font-size="10.00">LevelOne::CheckLives</text>
</a>
</g>
</g>
<!-- Node2 -->
<g id="Node000002" class="node">
<title>Node2</title>
<g id="a_Node000002"><a xlink:href="class_scene_manager.html#a923a348879950dfdeba731f5fbcaf731" target="_top" xlink:title="Switches the currently active scene.">
<polygon fill="white" stroke="#666666" points="268.25,-20 151,-20 151,0 268.25,0 268.25,-20"/>
<text text-anchor="middle" x="209.62" y="-6.5" font-family="Helvetica,sans-Serif" font-size="10.00">SceneManager::Switch</text>
</a>
</g>
</g>
<!-- Node1&#45;&gt;Node2 -->
<g id="edge1_Node000001_Node000002" class="edge">
<title>Node1&#45;&gt;Node2</title>
<g id="a_edge1_Node000001_Node000002"><a xlink:title=" ">
<path fill="none" stroke="#63b8ff" d="M115.26,-10C123.1,-10 131.23,-10 139.27,-10"/>
<polygon fill="#63b8ff" stroke="#63b8ff" points="139.03,-13.5 149.03,-10 139.03,-6.5 139.03,-13.5"/>
</a>
</g>
</g>
<!-- Node3 -->
<g id="Node000003" class="node">
<title>Node3</title>
<g id="a_Node000003"><a xlink:href="class_log.html#a0602808efc4b6a11f68f0c9ee2df135e" target="_top" xlink:title="Prints a plain text message with a given log level.">
<polygon fill="white" stroke="#666666" points="362.25,-20 304.25,-20 304.25,0 362.25,0 362.25,-20"/>
<text text-anchor="middle" x="333.25" y="-6.5" font-family="Helvetica,sans-Serif" font-size="10.00">Log::Print</text>
</a>
</g>
</g>
<!-- Node2&#45;&gt;Node3 -->
<g id="edge2_Node000002_Node000003" class="edge">
<title>Node2&#45;&gt;Node3</title>
<g id="a_edge2_Node000002_Node000003"><a xlink:title=" ">
<path fill="none" stroke="#63b8ff" d="M268.59,-10C276.62,-10 284.71,-10 292.32,-10"/>
<polygon fill="#63b8ff" stroke="#63b8ff" points="292.26,-13.5 302.26,-10 292.26,-6.5 292.26,-13.5"/>
</a>
</g>
</g>
<!-- Node4 -->
<g id="Node000004" class="node">
<title>Node4</title>
<g id="a_Node000004"><a xlink:href="class_log.html#a758948f266c4aa6fabbf9b172a018d43" target="_top" xlink:title="Returns the string representation of a log level.">
<polygon fill="white" stroke="#666666" points="490.75,-20 398.25,-20 398.25,0 490.75,0 490.75,-20"/>
<text text-anchor="middle" x="444.5" y="-6.5" font-family="Helvetica,sans-Serif" font-size="10.00">Log::GetLogLevel</text>
</a>
</g>
</g>
<!-- Node3&#45;&gt;Node4 -->
<g id="edge3_Node000003_Node000004" class="edge">
<title>Node3&#45;&gt;Node4</title>
<g id="a_edge3_Node000003_Node000004"><a xlink:title=" ">
<path fill="none" stroke="#63b8ff" d="M362.67,-10C370.06,-10 378.29,-10 386.58,-10"/>
<polygon fill="#63b8ff" stroke="#63b8ff" points="386.36,-13.5 396.36,-10 386.36,-6.5 386.36,-13.5"/>
</a>
</g>
</g>
</g>
</svg>
