<?xml version="1.0" encoding="UTF-8" standalone="no"?>
<!DOCTYPE svg PUBLIC "-//W3C//DTD SVG 1.1//EN"
 "http://www.w3.org/Graphics/SVG/1.1/DTD/svg11.dtd">
<!-- Generated by graphviz version 12.2.0 (20241103.1931)
 -->
<!-- Title: Spaceship::Update Pages: 1 -->
<svg width="500pt" height="154pt"
 viewBox="0.00 0.00 500.00 154.00" xmlns="http://www.w3.org/2000/svg" xmlns:xlink="http://www.w3.org/1999/xlink">
<g id="graph0" class="graph" transform="scale(1 1) rotate(0) translate(4 150)">
<title>Spaceship::Update</title>
<!-- Node1 -->
<g id="Node000001" class="node">
<title>Node1</title>
<g id="a_Node000001"><a xlink:title="Updates the spaceship&#39;s state and actions.">
<polygon fill="#999999" stroke="#666666" points="99.25,-89 0,-89 0,-69 99.25,-69 99.25,-89"/>
<text text-anchor="middle" x="49.62" y="-75.5" font-family="Helvetica,sans-Serif" font-size="10.00">Spaceship::Update</text>
</a>
</g>
</g>
<!-- Node2 -->
<g id="Node000002" class="node">
<title>Node2</title>
<g id="a_Node000002"><a xlink:href="class_spaceship.html#a5281add3949841bea32a358ff41050ab" target="_top" xlink:title="Calculates and updates the spaceship&#39;s position based on the cursor&#39;s position.">
<polygon fill="white" stroke="#666666" points="293,-139 135.25,-139 135.25,-107 293,-107 293,-139"/>
<text text-anchor="start" x="143.25" y="-125.5" font-family="Helvetica,sans-Serif" font-size="10.00">Spaceship::CalculateAndUpdate</text>
<text text-anchor="middle" x="214.12" y="-113.5" font-family="Helvetica,sans-Serif" font-size="10.00">CursorPosition</text>
</a>
</g>
</g>
<!-- Node1&#45;&gt;Node2 -->
<g id="edge1_Node000001_Node000002" class="edge">
<title>Node1&#45;&gt;Node2</title>
<g id="a_edge1_Node000001_Node000002"><a xlink:title=" ">
<path fill="none" stroke="#63b8ff" d="M89.14,-89.43C104.76,-93.66 123.33,-98.69 141.28,-103.55"/>
<polygon fill="#63b8ff" stroke="#63b8ff" points="140.31,-106.91 150.88,-106.15 142.14,-100.15 140.31,-106.91"/>
</a>
</g>
</g>
<!-- Node3 -->
<g id="Node000003" class="node">
<title>Node3</title>
<g id="a_Node000003"><a xlink:href="class_spaceship.html#a005ba375099423cbfe0cbb402965cd35" target="_top" xlink:title="Handles the spaceship firing a projectile.">
<polygon fill="white" stroke="#666666" points="287.38,-89 140.88,-89 140.88,-69 287.38,-69 287.38,-89"/>
<text text-anchor="middle" x="214.12" y="-75.5" font-family="Helvetica,sans-Serif" font-size="10.00">Spaceship::OnProjectileShoot</text>
</a>
</g>
</g>
<!-- Node1&#45;&gt;Node3 -->
<g id="edge2_Node000001_Node000003" class="edge">
<title>Node1&#45;&gt;Node3</title>
<g id="a_edge2_Node000001_Node000003"><a xlink:title=" ">
<path fill="none" stroke="#63b8ff" d="M99.38,-79C108.82,-79 118.96,-79 129.16,-79"/>
<polygon fill="#63b8ff" stroke="#63b8ff" points="129.16,-82.5 139.16,-79 129.16,-75.5 129.16,-82.5"/>
</a>
</g>
</g>
<!-- Node7 -->
<g id="Node000007" class="node">
<title>Node7</title>
<g id="a_Node000007"><a xlink:href="class_spaceship.html#af39e32b6ac8fe12f1b8a752597640e87" target="_top" xlink:title="Updates the state of all projectiles fired by the spaceship.">
<polygon fill="white" stroke="#666666" points="286.62,-48 141.62,-48 141.62,-28 286.62,-28 286.62,-48"/>
<text text-anchor="middle" x="214.12" y="-34.5" font-family="Helvetica,sans-Serif" font-size="10.00">Spaceship::UpdateProjectiles</text>
</a>
</g>
</g>
<!-- Node1&#45;&gt;Node7 -->
<g id="edge6_Node000001_Node000007" class="edge">
<title>Node1&#45;&gt;Node7</title>
<g id="a_edge6_Node000001_Node000007"><a xlink:title=" ">
<path fill="none" stroke="#63b8ff" d="M92.05,-68.55C112.97,-63.27 138.56,-56.81 160.82,-51.2"/>
<polygon fill="#63b8ff" stroke="#63b8ff" points="161.47,-54.64 170.31,-48.8 159.75,-47.86 161.47,-54.64"/>
</a>
</g>
</g>
<!-- Node4 -->
<g id="Node000004" class="node">
<title>Node4</title>
<g id="a_Node000004"><a xlink:href="class_input_manager.html#a681afd1f90d84a1e29883592891c95dd" target="_top" xlink:title="Retrieves the singleton instance of the InputManager.">
<polygon fill="white" stroke="#666666" points="459,-146 362,-146 362,-126 459,-126 459,-146"/>
<text text-anchor="middle" x="410.5" y="-132.5" font-family="Helvetica,sans-Serif" font-size="10.00">InputManager::Get</text>
</a>
</g>
</g>
<!-- Node3&#45;&gt;Node4 -->
<g id="edge3_Node000003_Node000004" class="edge">
<title>Node3&#45;&gt;Node4</title>
<g id="a_edge3_Node000003_Node000004"><a xlink:title=" ">
<path fill="none" stroke="#63b8ff" d="M265.95,-89.48C275.08,-91.9 284.41,-94.74 293,-98 309.92,-104.41 312.06,-110.65 329,-117 335.88,-119.58 343.22,-121.88 350.56,-123.92"/>
<polygon fill="#63b8ff" stroke="#63b8ff" points="349.63,-127.3 360.19,-126.43 351.39,-120.52 349.63,-127.3"/>
</a>
</g>
</g>
<!-- Node5 -->
<g id="Node000005" class="node">
<title>Node5</title>
<g id="a_Node000005"><a xlink:href="class_sound_manager.html#a7da0a1dcb16734c22b4252a3a5fa11c4" target="_top" xlink:title="Plays the sound associated with the given name.">
<polygon fill="white" stroke="#666666" points="477.75,-108 343.25,-108 343.25,-88 477.75,-88 477.75,-108"/>
<text text-anchor="middle" x="410.5" y="-94.5" font-family="Helvetica,sans-Serif" font-size="10.00">SoundManager::PlaySound</text>
</a>
</g>
</g>
<!-- Node3&#45;&gt;Node5 -->
<g id="edge4_Node000003_Node000005" class="edge">
<title>Node3&#45;&gt;Node5</title>
<g id="a_edge4_Node000003_Node000005"><a xlink:title=" ">
<path fill="none" stroke="#63b8ff" d="M287.78,-86.1C302.07,-87.5 317.13,-88.97 331.58,-90.38"/>
<polygon fill="#63b8ff" stroke="#63b8ff" points="331.23,-93.87 341.52,-91.36 331.91,-86.9 331.23,-93.87"/>
</a>
</g>
</g>
<!-- Node6 -->
<g id="Node000006" class="node">
<title>Node6</title>
<g id="a_Node000006"><a xlink:href="namespace_gameplay_utility.html#ac927e2960c3edb516e0c839afe16428c" target="_top" xlink:title="Spawns a new projectile with the given properties.">
<polygon fill="white" stroke="#666666" points="491.62,-70 329.38,-70 329.38,-50 491.62,-50 491.62,-70"/>
<text text-anchor="middle" x="410.5" y="-56.5" font-family="Helvetica,sans-Serif" font-size="10.00">GameplayUtility::SpawnProjectile</text>
</a>
</g>
</g>
<!-- Node3&#45;&gt;Node6 -->
<g id="edge5_Node000003_Node000006" class="edge">
<title>Node3&#45;&gt;Node6</title>
<g id="a_edge5_Node000003_Node000006"><a xlink:title=" ">
<path fill="none" stroke="#63b8ff" d="M287.78,-71.9C297.57,-70.94 307.72,-69.95 317.79,-68.96"/>
<polygon fill="#63b8ff" stroke="#63b8ff" points="317.99,-72.46 327.6,-68.01 317.31,-65.5 317.99,-72.46"/>
</a>
</g>
</g>
<!-- Node8 -->
<g id="Node000008" class="node">
<title>Node8</title>
<g id="a_Node000008"><a xlink:href="namespace_gameplay_utility.html#a3558284331e73b20446925ae3c85e455" target="_top" xlink:title="Removes inactive projectiles from the game.">
<polygon fill="white" stroke="#666666" points="492,-32 329,-32 329,0 492,0 492,-32"/>
<text text-anchor="start" x="337" y="-18.5" font-family="Helvetica,sans-Serif" font-size="10.00">GameplayUtility::RemoveInactive</text>
<text text-anchor="middle" x="410.5" y="-6.5" font-family="Helvetica,sans-Serif" font-size="10.00">Projectiles</text>
</a>
</g>
</g>
<!-- Node7&#45;&gt;Node8 -->
<g id="edge7_Node000007_Node000008" class="edge">
<title>Node7&#45;&gt;Node8</title>
<g id="a_edge7_Node000007_Node000008"><a xlink:title=" ">
<path fill="none" stroke="#63b8ff" d="M286.95,-29.87C296.96,-28.74 307.35,-27.56 317.66,-26.39"/>
<polygon fill="#63b8ff" stroke="#63b8ff" points="317.75,-29.91 327.29,-25.3 316.96,-22.95 317.75,-29.91"/>
</a>
</g>
</g>
</g>
</svg>
