<?xml version="1.0" encoding="UTF-8" standalone="no"?>
<!DOCTYPE svg PUBLIC "-//W3C//DTD SVG 1.1//EN"
 "http://www.w3.org/Graphics/SVG/1.1/DTD/svg11.dtd">
<!-- Generated by graphviz version 12.2.0 (20241103.1931)
 -->
<!-- Title: InputManager::Get Pages: 1 -->
<svg width="730pt" height="142pt"
 viewBox="0.00 0.00 730.00 142.00" xmlns="http://www.w3.org/2000/svg" xmlns:xlink="http://www.w3.org/1999/xlink">
<g id="graph0" class="graph" transform="scale(1 1) rotate(0) translate(4 138)">
<title>InputManager::Get</title>
<!-- Node1 -->
<g id="Node000001" class="node">
<title>Node1</title>
<g id="a_Node000001"><a xlink:title="Retrieves the singleton instance of the InputManager.">
<polygon fill="#999999" stroke="#666666" points="722,-77 625,-77 625,-57 722,-57 722,-77"/>
<text text-anchor="middle" x="673.5" y="-63.5" font-family="Helvetica,sans-Serif" font-size="10.00">InputManager::Get</text>
</a>
</g>
</g>
<!-- Node2 -->
<g id="Node000002" class="node">
<title>Node2</title>
<g id="a_Node000002"><a xlink:href="class_game_over.html#aa608f22a41a01dd72d3e646e84e6169b" target="_top" xlink:title="Handles user input during the game over scene.">
<polygon fill="white" stroke="#666666" points="576.62,-134 454.88,-134 454.88,-114 576.62,-114 576.62,-134"/>
<text text-anchor="middle" x="515.75" y="-120.5" font-family="Helvetica,sans-Serif" font-size="10.00">GameOver::HandleInput</text>
</a>
</g>
</g>
<!-- Node1&#45;&gt;Node2 -->
<g id="edge1_Node000001_Node000002" class="edge">
<title>Node1&#45;&gt;Node2</title>
<g id="a_edge1_Node000001_Node000002"><a xlink:title=" ">
<path fill="none" stroke="#63b8ff" d="M642.18,-82.3C626.56,-89.8 607.04,-98.57 589,-105 580.2,-108.13 570.64,-111.01 561.44,-113.52"/>
<polygon fill="#63b8ff" stroke="#63b8ff" points="643.5,-85.56 650.95,-78.02 640.43,-79.26 643.5,-85.56"/>
</a>
</g>
</g>
<!-- Node3 -->
<g id="Node000003" class="node">
<title>Node3</title>
<g id="a_Node000003"><a xlink:href="class_level_one.html#aa6d973bd7569d1b43a7f33de6b2a0074" target="_top" xlink:title="Handles input events for the level scene.">
<polygon fill="white" stroke="#666666" points="573.62,-96 457.88,-96 457.88,-76 573.62,-76 573.62,-96"/>
<text text-anchor="middle" x="515.75" y="-82.5" font-family="Helvetica,sans-Serif" font-size="10.00">LevelOne::HandleInput</text>
</a>
</g>
</g>
<!-- Node1&#45;&gt;Node3 -->
<g id="edge2_Node000001_Node000003" class="edge">
<title>Node1&#45;&gt;Node3</title>
<g id="a_edge2_Node000001_Node000003"><a xlink:title=" ">
<path fill="none" stroke="#63b8ff" d="M613.7,-74.17C600.67,-75.76 586.87,-77.45 573.9,-79.03"/>
<polygon fill="#63b8ff" stroke="#63b8ff" points="613.92,-77.67 623.42,-72.99 613.07,-70.72 613.92,-77.67"/>
</a>
</g>
</g>
<!-- Node4 -->
<g id="Node000004" class="node">
<title>Node4</title>
<g id="a_Node000004"><a xlink:href="class_menu_state.html#aecd8763b82b9bfb5a64a5d7572e9019a" target="_top" xlink:title="Handles user input in the menu scene.">
<polygon fill="white" stroke="#666666" points="576.62,-58 454.88,-58 454.88,-38 576.62,-38 576.62,-58"/>
<text text-anchor="middle" x="515.75" y="-44.5" font-family="Helvetica,sans-Serif" font-size="10.00">MenuState::HandleInput</text>
</a>
</g>
</g>
<!-- Node1&#45;&gt;Node4 -->
<g id="edge3_Node000001_Node000004" class="edge">
<title>Node1&#45;&gt;Node4</title>
<g id="a_edge3_Node000001_Node000004"><a xlink:title=" ">
<path fill="none" stroke="#63b8ff" d="M613.66,-59.82C601.67,-58.36 589.03,-56.82 576.99,-55.35"/>
<polygon fill="#63b8ff" stroke="#63b8ff" points="613.07,-63.28 623.42,-61.01 613.92,-56.33 613.07,-63.28"/>
</a>
</g>
</g>
<!-- Node5 -->
<g id="Node000005" class="node">
<title>Node5</title>
<g id="a_Node000005"><a xlink:href="class_spaceship.html#a005ba375099423cbfe0cbb402965cd35" target="_top" xlink:title="Handles the spaceship firing a projectile.">
<polygon fill="white" stroke="#666666" points="589,-20 442.5,-20 442.5,0 589,0 589,-20"/>
<text text-anchor="middle" x="515.75" y="-6.5" font-family="Helvetica,sans-Serif" font-size="10.00">Spaceship::OnProjectileShoot</text>
</a>
</g>
</g>
<!-- Node1&#45;&gt;Node5 -->
<g id="edge4_Node000001_Node000005" class="edge">
<title>Node1&#45;&gt;Node5</title>
<g id="a_edge4_Node000001_Node000005"><a xlink:title=" ">
<path fill="none" stroke="#63b8ff" d="M642.18,-51.7C626.56,-44.2 607.04,-35.43 589,-29 580.2,-25.87 570.64,-22.99 561.44,-20.48"/>
<polygon fill="#63b8ff" stroke="#63b8ff" points="640.43,-54.74 650.95,-55.98 643.5,-48.44 640.43,-54.74"/>
</a>
</g>
</g>
<!-- Node6 -->
<g id="Node000006" class="node">
<title>Node6</title>
<g id="a_Node000006"><a xlink:href="class_spaceship.html#a5a1432606489e09a118be526dca09773" target="_top" xlink:title="Updates the spaceship&#39;s state and actions.">
<polygon fill="white" stroke="#666666" points="406.5,-20 307.25,-20 307.25,0 406.5,0 406.5,-20"/>
<text text-anchor="middle" x="356.88" y="-6.5" font-family="Helvetica,sans-Serif" font-size="10.00">Spaceship::Update</text>
</a>
</g>
</g>
<!-- Node5&#45;&gt;Node6 -->
<g id="edge5_Node000005_Node000006" class="edge">
<title>Node5&#45;&gt;Node6</title>
<g id="a_edge5_Node000005_Node000006"><a xlink:title=" ">
<path fill="none" stroke="#63b8ff" d="M430.97,-10C422.69,-10 414.49,-10 406.73,-10"/>
<polygon fill="#63b8ff" stroke="#63b8ff" points="430.77,-13.5 440.77,-10 430.77,-6.5 430.77,-13.5"/>
</a>
</g>
</g>
<!-- Node7 -->
<g id="Node000007" class="node">
<title>Node7</title>
<g id="a_Node000007"><a xlink:href="class_level_one.html#a9bd86c94bf7851dd1c230a0f7917c204" target="_top" xlink:title="Updates the spaceship position and actions.">
<polygon fill="white" stroke="#666666" points="271.25,-20 130.75,-20 130.75,0 271.25,0 271.25,-20"/>
<text text-anchor="middle" x="201" y="-6.5" font-family="Helvetica,sans-Serif" font-size="10.00">LevelOne::UpdateSpaceship</text>
</a>
</g>
</g>
<!-- Node6&#45;&gt;Node7 -->
<g id="edge6_Node000006_Node000007" class="edge">
<title>Node6&#45;&gt;Node7</title>
<g id="a_edge6_Node000006_Node000007"><a xlink:title=" ">
<path fill="none" stroke="#63b8ff" d="M295.52,-10C287.7,-10 279.63,-10 271.68,-10"/>
<polygon fill="#63b8ff" stroke="#63b8ff" points="295.25,-13.5 305.25,-10 295.25,-6.5 295.25,-13.5"/>
</a>
</g>
</g>
<!-- Node8 -->
<g id="Node000008" class="node">
<title>Node8</title>
<g id="a_Node000008"><a xlink:href="class_level_one.html#ac5f4953425e9d335e735f1cde198a1fb" target="_top" xlink:title="Updates the level scene every frame.">
<polygon fill="white" stroke="#666666" points="94.75,-20 0,-20 0,0 94.75,0 94.75,-20"/>
<text text-anchor="middle" x="47.38" y="-6.5" font-family="Helvetica,sans-Serif" font-size="10.00">LevelOne::Update</text>
</a>
</g>
</g>
<!-- Node7&#45;&gt;Node8 -->
<g id="edge7_Node000007_Node000008" class="edge">
<title>Node7&#45;&gt;Node8</title>
<g id="a_edge7_Node000007_Node000008"><a xlink:title=" ">
<path fill="none" stroke="#63b8ff" d="M119.14,-10C110.89,-10 102.71,-10 95.02,-10"/>
<polygon fill="#63b8ff" stroke="#63b8ff" points="118.89,-13.5 128.89,-10 118.89,-6.5 118.89,-13.5"/>
</a>
</g>
</g>
</g>
</svg>
