<?xml version="1.0" encoding="UTF-8" standalone="no"?>
<!DOCTYPE svg PUBLIC "-//W3C//DTD SVG 1.1//EN"
 "http://www.w3.org/Graphics/SVG/1.1/DTD/svg11.dtd">
<!-- Generated by graphviz version 12.2.0 (20241103.1931)
 -->
<!-- Title: Vector2::Vector2 Pages: 1 -->
<svg width="231pt" height="218pt"
 viewBox="0.00 0.00 231.25 218.00" xmlns="http://www.w3.org/2000/svg" xmlns:xlink="http://www.w3.org/1999/xlink">

<svg id="main" version="1.1" xmlns="http://www.w3.org/2000/svg" xmlns:xlink="http://www.w3.org/1999/xlink" xml:space="preserve">

<style type="text/css"><![CDATA[
.node, .edge {opacity: 0.7;}
.node.selected, .edge.selected {opacity: 1;}
.edge:hover path { stroke: red; }
.edge:hover polygon { stroke: red; fill: red; }
]]></style>
<script type="application/ecmascript" xlink:href="svg.min.js"/>
<svg id="graph" class="graph">
<g id="graph0" class="graph" transform="scale(1 1) rotate(0) translate(4 214)">
<title>Vector2::Vector2</title>
<!-- Node1 -->
<g id="Node000001" class="node">
<title>Node1</title>
<g id="a_Node000001"><a xlink:title="Constructor to create a Vector2 instance.">
<polygon fill="#999999" stroke="#666666" points="223.25,-115 135.25,-115 135.25,-95 223.25,-95 223.25,-115"/>
<text text-anchor="middle" x="179.25" y="-101.5" font-family="Helvetica,sans-Serif" font-size="10.00">Vector2::Vector2</text>
</a>
</g>
</g>
<!-- Node2 -->
<g id="Node000002" class="node">
<title>Node2</title>
<g id="a_Node000002"><a xlink:href="class_vector2.html#a68e97aac95f6ab5fffd3c9691b649fd4" target="_top" xlink:title="Normalize the vector to a length of 1.">
<polygon fill="white" stroke="#666666" points="99.25,-210 0,-210 0,-190 99.25,-190 99.25,-210"/>
<text text-anchor="middle" x="49.62" y="-196.5" font-family="Helvetica,sans-Serif" font-size="10.00">Vector2::Normalize</text>
</a>
</g>
</g>
<!-- Node1&#45;&gt;Node2 -->
<g id="edge1_Node000001_Node000002" class="edge">
<title>Node1&#45;&gt;Node2</title>
<g id="a_edge1_Node000001_Node000002"><a xlink:title=" ">
<path fill="none" stroke="#63b8ff" d="M162.49,-123.92C147.63,-140.78 124,-165.16 99.25,-181 94.14,-184.27 88.37,-187.13 82.64,-189.58"/>
<polygon fill="#63b8ff" stroke="#63b8ff" points="164.94,-126.45 168.81,-116.58 159.64,-121.88 164.94,-126.45"/>
</a>
</g>
</g>
<!-- Node3 -->
<g id="Node000003" class="node">
<title>Node3</title>
<g id="a_Node000003"><a xlink:href="class_vector2.html#a108ffa0005048f1d6467e17c3e2c19ad" target="_top" xlink:title="Scale this vector by a scalar.">
<polygon fill="white" stroke="#666666" points="96.62,-172 2.62,-172 2.62,-152 96.62,-152 96.62,-172"/>
<text text-anchor="middle" x="49.62" y="-158.5" font-family="Helvetica,sans-Serif" font-size="10.00">Vector2::operator*</text>
</a>
</g>
</g>
<!-- Node1&#45;&gt;Node3 -->
<g id="edge2_Node000001_Node000003" class="edge">
<title>Node1&#45;&gt;Node3</title>
<g id="a_edge2_Node000001_Node000003"><a xlink:title=" ">
<path fill="none" stroke="#63b8ff" d="M147.69,-120.37C133.14,-127.51 115.42,-135.96 99.25,-143 92.6,-145.89 85.36,-148.83 78.54,-151.51"/>
<polygon fill="#63b8ff" stroke="#63b8ff" points="148.89,-123.68 156.3,-116.11 145.79,-117.4 148.89,-123.68"/>
</a>
</g>
</g>
<!-- Node4 -->
<g id="Node000004" class="node">
<title>Node4</title>
<g id="a_Node000004"><a xlink:href="class_vector2.html#a03b3bed59f21158ddc893534d8779488" target="_top" xlink:title="Add another vector to this vector.">
<polygon fill="white" stroke="#666666" points="97.75,-134 1.5,-134 1.5,-114 97.75,-114 97.75,-134"/>
<text text-anchor="middle" x="49.62" y="-120.5" font-family="Helvetica,sans-Serif" font-size="10.00">Vector2::operator+</text>
</a>
</g>
</g>
<!-- Node1&#45;&gt;Node4 -->
<g id="edge3_Node000001_Node000004" class="edge">
<title>Node1&#45;&gt;Node4</title>
<g id="a_edge3_Node000001_Node000004"><a xlink:title=" ">
<path fill="none" stroke="#63b8ff" d="M123.67,-113.13C115.19,-114.39 106.48,-115.68 98.17,-116.92"/>
<polygon fill="#63b8ff" stroke="#63b8ff" points="124.17,-116.59 133.54,-111.66 123.14,-109.67 124.17,-116.59"/>
</a>
</g>
</g>
<!-- Node5 -->
<g id="Node000005" class="node">
<title>Node5</title>
<g id="a_Node000005"><a xlink:href="class_vector2.html#ae5ebd41ff5146f99486b1bc04321d7ea" target="_top" xlink:title="Subtract another vector from this vector.">
<polygon fill="white" stroke="#666666" points="96.25,-96 3,-96 3,-76 96.25,-76 96.25,-96"/>
<text text-anchor="middle" x="49.62" y="-82.5" font-family="Helvetica,sans-Serif" font-size="10.00">Vector2::operator&#45;</text>
</a>
</g>
</g>
<!-- Node1&#45;&gt;Node5 -->
<g id="edge4_Node000001_Node000005" class="edge">
<title>Node1&#45;&gt;Node5</title>
<g id="a_edge4_Node000001_Node000005"><a xlink:title=" ">
<path fill="none" stroke="#63b8ff" d="M123.71,-96.88C114.61,-95.53 105.26,-94.13 96.41,-92.82"/>
<polygon fill="#63b8ff" stroke="#63b8ff" points="123.14,-100.33 133.54,-98.34 124.17,-93.41 123.14,-100.33"/>
</a>
</g>
</g>
<!-- Node6 -->
<g id="Node000006" class="node">
<title>Node6</title>
<g id="a_Node000006"><a xlink:href="class_vector2.html#a705b52bc9847164ba5b654b3667d9712" target="_top" xlink:title="Divide this vector by a scalar.">
<polygon fill="white" stroke="#666666" points="96.25,-58 3,-58 3,-38 96.25,-38 96.25,-58"/>
<text text-anchor="middle" x="49.62" y="-44.5" font-family="Helvetica,sans-Serif" font-size="10.00">Vector2::operator/</text>
</a>
</g>
</g>
<!-- Node1&#45;&gt;Node6 -->
<g id="edge5_Node000001_Node000006" class="edge">
<title>Node1&#45;&gt;Node6</title>
<g id="a_edge5_Node000001_Node000006"><a xlink:title=" ">
<path fill="none" stroke="#63b8ff" d="M147.69,-89.63C133.14,-82.49 115.42,-74.04 99.25,-67 92.6,-64.11 85.36,-61.17 78.54,-58.49"/>
<polygon fill="#63b8ff" stroke="#63b8ff" points="145.79,-92.6 156.3,-93.89 148.89,-86.32 145.79,-92.6"/>
</a>
</g>
</g>
<!-- Node7 -->
<g id="Node000007" class="node">
<title>Node7</title>
<g id="a_Node000007"><a xlink:href="class_vector2.html#a31d2b051e5166a8a2ce20790b4fa9dd7" target="_top" xlink:title="Scale the vector by a given factor.">
<polygon fill="white" stroke="#666666" points="89.5,-20 9.75,-20 9.75,0 89.5,0 89.5,-20"/>
<text text-anchor="middle" x="49.62" y="-6.5" font-family="Helvetica,sans-Serif" font-size="10.00">Vector2::Scale</text>
</a>
</g>
</g>
<!-- Node1&#45;&gt;Node7 -->
<g id="edge6_Node000001_Node000007" class="edge">
<title>Node1&#45;&gt;Node7</title>
<g id="a_edge6_Node000001_Node000007"><a xlink:title=" ">
<path fill="none" stroke="#63b8ff" d="M162.49,-86.08C147.63,-69.22 124,-44.84 99.25,-29 94.14,-25.73 88.37,-22.87 82.64,-20.42"/>
<polygon fill="#63b8ff" stroke="#63b8ff" points="159.64,-88.12 168.81,-93.42 164.94,-83.55 159.64,-88.12"/>
</a>
</g>
</g>
</g>
</svg>
</svg>

<style type='text/css'>
<![CDATA[
[data-mouse-over-selected='false'] { opacity: 0.7; }
[data-mouse-over-selected='true']  { opacity: 1.0; }
]]>
</style>
<script type="application/ecmascript"><![CDATA[
document.addEventListener('DOMContentLoaded', (event) => {
  highlightEdges();
  highlightAdjacentNodes();
});
]]></script>
</svg>
