<?xml version="1.0" encoding="UTF-8" standalone="no"?>
<!DOCTYPE svg PUBLIC "-//W3C//DTD SVG 1.1//EN"
 "http://www.w3.org/Graphics/SVG/1.1/DTD/svg11.dtd">
<!-- Generated by graphviz version 12.2.0 (20241103.1931)
 -->
<!-- Title: MenuState::MenuState Pages: 1 -->
<svg width="525pt" height="78pt"
 viewBox="0.00 0.00 525.00 78.00" xmlns="http://www.w3.org/2000/svg" xmlns:xlink="http://www.w3.org/1999/xlink">
<g id="graph0" class="graph" transform="scale(1 1) rotate(0) translate(4 74)">
<title>MenuState::MenuState</title>
<!-- Node1 -->
<g id="Node000001" class="node">
<title>Node1</title>
<g id="a_Node000001"><a xlink:title="Constructs the MenuState with a reference to the scene manager and the render window.">
<polygon fill="#999999" stroke="#666666" points="116.5,-48 0,-48 0,-28 116.5,-28 116.5,-48"/>
<text text-anchor="middle" x="58.25" y="-34.5" font-family="Helvetica,sans-Serif" font-size="10.00">MenuState::MenuState</text>
</a>
</g>
</g>
<!-- Node2 -->
<g id="Node000002" class="node">
<title>Node2</title>
<g id="a_Node000002"><a xlink:href="class_menu_state.html#a3c5a85349ab47790f9a589dcfa90655a" target="_top" xlink:title="Initializes the buttons for the menu.">
<polygon fill="white" stroke="#666666" points="281.75,-70 165.25,-70 165.25,-50 281.75,-50 281.75,-70"/>
<text text-anchor="middle" x="223.5" y="-56.5" font-family="Helvetica,sans-Serif" font-size="10.00">MenuState::InitButtons</text>
</a>
</g>
</g>
<!-- Node1&#45;&gt;Node2 -->
<g id="edge1_Node000001_Node000002" class="edge">
<title>Node1&#45;&gt;Node2</title>
<g id="a_edge1_Node000001_Node000002"><a xlink:title=" ">
<path fill="none" stroke="#63b8ff" d="M116.81,-45.76C128.75,-47.37 141.46,-49.08 153.76,-50.74"/>
<polygon fill="#63b8ff" stroke="#63b8ff" points="153.04,-54.17 163.41,-52.04 153.97,-47.23 153.04,-54.17"/>
</a>
</g>
</g>
<!-- Node5 -->
<g id="Node000005" class="node">
<title>Node5</title>
<g id="a_Node000005"><a xlink:href="namespace_core_helper.html#a0609ff46cfcbe7d88492b38418267da5" target="_top" xlink:title="Loads a texture and assigns it to a sprite.">
<polygon fill="white" stroke="#666666" points="294.5,-32 152.5,-32 152.5,0 294.5,0 294.5,-32"/>
<text text-anchor="start" x="160.5" y="-18.5" font-family="Helvetica,sans-Serif" font-size="10.00">CoreHelper::LoadTextureAnd</text>
<text text-anchor="middle" x="223.5" y="-6.5" font-family="Helvetica,sans-Serif" font-size="10.00">Sprite</text>
</a>
</g>
</g>
<!-- Node1&#45;&gt;Node5 -->
<g id="edge4_Node000001_Node000005" class="edge">
<title>Node1&#45;&gt;Node5</title>
<g id="a_edge4_Node000001_Node000005"><a xlink:title=" ">
<path fill="none" stroke="#63b8ff" d="M116.81,-30.24C124.54,-29.2 132.6,-28.12 140.65,-27.03"/>
<polygon fill="#63b8ff" stroke="#63b8ff" points="141.07,-30.51 150.51,-25.7 140.13,-23.57 141.07,-30.51"/>
</a>
</g>
</g>
<!-- Node3 -->
<g id="Node000003" class="node">
<title>Node3</title>
<g id="a_Node000003"><a xlink:href="class_log.html#a0602808efc4b6a11f68f0c9ee2df135e" target="_top" xlink:title="Prints a plain text message with a given log level.">
<polygon fill="white" stroke="#666666" points="388.5,-48 330.5,-48 330.5,-28 388.5,-28 388.5,-48"/>
<text text-anchor="middle" x="359.5" y="-34.5" font-family="Helvetica,sans-Serif" font-size="10.00">Log::Print</text>
</a>
</g>
</g>
<!-- Node2&#45;&gt;Node3 -->
<g id="edge2_Node000002_Node000003" class="edge">
<title>Node2&#45;&gt;Node3</title>
<g id="a_edge2_Node000002_Node000003"><a xlink:title=" ">
<path fill="none" stroke="#63b8ff" d="M282.11,-50.54C294.55,-48.5 307.45,-46.38 319.01,-44.48"/>
<polygon fill="#63b8ff" stroke="#63b8ff" points="319.28,-47.99 328.58,-42.91 318.14,-41.08 319.28,-47.99"/>
</a>
</g>
</g>
<!-- Node4 -->
<g id="Node000004" class="node">
<title>Node4</title>
<g id="a_Node000004"><a xlink:href="class_log.html#a758948f266c4aa6fabbf9b172a018d43" target="_top" xlink:title="Returns the string representation of a log level.">
<polygon fill="white" stroke="#666666" points="517,-48 424.5,-48 424.5,-28 517,-28 517,-48"/>
<text text-anchor="middle" x="470.75" y="-34.5" font-family="Helvetica,sans-Serif" font-size="10.00">Log::GetLogLevel</text>
</a>
</g>
</g>
<!-- Node3&#45;&gt;Node4 -->
<g id="edge3_Node000003_Node000004" class="edge">
<title>Node3&#45;&gt;Node4</title>
<g id="a_edge3_Node000003_Node000004"><a xlink:title=" ">
<path fill="none" stroke="#63b8ff" d="M388.92,-38C396.31,-38 404.54,-38 412.83,-38"/>
<polygon fill="#63b8ff" stroke="#63b8ff" points="412.61,-41.5 422.61,-38 412.61,-34.5 412.61,-41.5"/>
</a>
</g>
</g>
<!-- Node5&#45;&gt;Node3 -->
<g id="edge5_Node000005_Node000003" class="edge">
<title>Node5&#45;&gt;Node3</title>
<g id="a_edge5_Node000005_Node000003"><a xlink:title=" ">
<path fill="none" stroke="#63b8ff" d="M294.64,-27.52C302.97,-28.88 311.23,-30.24 318.91,-31.5"/>
<polygon fill="#63b8ff" stroke="#63b8ff" points="318.12,-34.92 328.56,-33.08 319.26,-28.01 318.12,-34.92"/>
</a>
</g>
</g>
</g>
</svg>
