<?xml version="1.0" encoding="UTF-8" standalone="no"?>
<!DOCTYPE svg PUBLIC "-//W3C//DTD SVG 1.1//EN"
 "http://www.w3.org/Graphics/SVG/1.1/DTD/svg11.dtd">
<!-- Generated by graphviz version 12.2.0 (20241103.1931)
 -->
<!-- Title: Projectile Pages: 1 -->
<svg width="142pt" height="177pt"
 viewBox="0.00 0.00 142.00 177.00" xmlns="http://www.w3.org/2000/svg" xmlns:xlink="http://www.w3.org/1999/xlink">
<g id="graph0" class="graph" transform="scale(1 1) rotate(0) translate(4 173)">
<title>Projectile</title>
<!-- Node1 -->
<g id="Node000001" class="node">
<title>Node1</title>
<g id="a_Node000001"><a xlink:title="Represents a projectile in the game, including its movement, appearance, and active status.">
<polygon fill="#999999" stroke="#666666" points="78.25,-20 21.75,-20 21.75,0 78.25,0 78.25,-20"/>
<text text-anchor="middle" x="50" y="-6.5" font-family="Helvetica,sans-Serif" font-size="10.00">Projectile</text>
</a>
</g>
</g>
<!-- Node2 -->
<g id="Node000002" class="node">
<title>Node2</title>
<g id="a_Node000002"><a xlink:href="class_vector2.html" target="_top" xlink:title=" ">
<polygon fill="white" stroke="#666666" points="92.88,-112 7.12,-112 7.12,-92 92.88,-92 92.88,-112"/>
<text text-anchor="middle" x="50" y="-98.5" font-family="Helvetica,sans-Serif" font-size="10.00">Vector2&lt; float &gt;</text>
</a>
</g>
</g>
<!-- Node2&#45;&gt;Node1 -->
<g id="edge1_Node000001_Node000002" class="edge">
<title>Node2&#45;&gt;Node1</title>
<g id="a_edge1_Node000001_Node000002"><a xlink:title=" ">
<path fill="none" stroke="#9a32cd" stroke-dasharray="5,2" d="M50,-80.2C50,-61.36 50,-34.44 50,-20.38"/>
<polygon fill="#9a32cd" stroke="#9a32cd" points="46.5,-80.19 50,-90.19 53.5,-80.19 46.5,-80.19"/>
</a>
</g>
<text text-anchor="middle" x="92" y="-64.5" font-family="Helvetica,sans-Serif" font-size="10.00" fill="grey"> m_CurrentPosition</text>
<text text-anchor="middle" x="92" y="-52.5" font-family="Helvetica,sans-Serif" font-size="10.00" fill="grey">m_Direction</text>
<text text-anchor="middle" x="92" y="-40.5" font-family="Helvetica,sans-Serif" font-size="10.00" fill="grey">m_StartingPosition</text>
</g>
<!-- Node3 -->
<g id="Node000003" class="node">
<title>Node3</title>
<g id="a_Node000003"><a xlink:title=" ">
<polygon fill="white" stroke="#666666" points="100,-169 0,-169 0,-149 100,-149 100,-169"/>
<text text-anchor="middle" x="50" y="-155.5" font-family="Helvetica,sans-Serif" font-size="10.00">sf::Vector2&lt; float &gt;</text>
</a>
</g>
</g>
<!-- Node3&#45;&gt;Node2 -->
<g id="edge2_Node000002_Node000003" class="edge">
<title>Node3&#45;&gt;Node2</title>
<g id="a_edge2_Node000002_Node000003"><a xlink:title=" ">
<path fill="none" stroke="#63b8ff" d="M50,-137.69C50,-128.97 50,-119.22 50,-112.28"/>
<polygon fill="#63b8ff" stroke="#63b8ff" points="46.5,-137.4 50,-147.4 53.5,-137.4 46.5,-137.4"/>
</a>
</g>
</g>
</g>
</svg>
