<?xml version="1.0" encoding="UTF-8" standalone="no"?>
<!DOCTYPE svg PUBLIC "-//W3C//DTD SVG 1.1//EN"
 "http://www.w3.org/Graphics/SVG/1.1/DTD/svg11.dtd">
<!-- Generated by graphviz version 12.2.0 (20241103.1931)
 -->
<!-- Title: Spaceship::UpdateProjectiles Pages: 1 -->
<svg width="596pt" height="28pt"
 viewBox="0.00 0.00 595.50 28.00" xmlns="http://www.w3.org/2000/svg" xmlns:xlink="http://www.w3.org/1999/xlink">
<g id="graph0" class="graph" transform="scale(1 1) rotate(0) translate(4 24)">
<title>Spaceship::UpdateProjectiles</title>
<!-- Node1 -->
<g id="Node000001" class="node">
<title>Node1</title>
<g id="a_Node000001"><a xlink:title="Updates the state of all projectiles fired by the spaceship.">
<polygon fill="#999999" stroke="#666666" points="587.5,-20 442.5,-20 442.5,0 587.5,0 587.5,-20"/>
<text text-anchor="middle" x="515" y="-6.5" font-family="Helvetica,sans-Serif" font-size="10.00">Spaceship::UpdateProjectiles</text>
</a>
</g>
</g>
<!-- Node2 -->
<g id="Node000002" class="node">
<title>Node2</title>
<g id="a_Node000002"><a xlink:href="class_spaceship.html#a5a1432606489e09a118be526dca09773" target="_top" xlink:title="Updates the spaceship&#39;s state and actions.">
<polygon fill="white" stroke="#666666" points="406.5,-20 307.25,-20 307.25,0 406.5,0 406.5,-20"/>
<text text-anchor="middle" x="356.88" y="-6.5" font-family="Helvetica,sans-Serif" font-size="10.00">Spaceship::Update</text>
</a>
</g>
</g>
<!-- Node1&#45;&gt;Node2 -->
<g id="edge1_Node000001_Node000002" class="edge">
<title>Node1&#45;&gt;Node2</title>
<g id="a_edge1_Node000001_Node000002"><a xlink:title=" ">
<path fill="none" stroke="#63b8ff" d="M431.04,-10C422.76,-10 414.56,-10 406.8,-10"/>
<polygon fill="#63b8ff" stroke="#63b8ff" points="430.82,-13.5 440.82,-10 430.82,-6.5 430.82,-13.5"/>
</a>
</g>
</g>
<!-- Node3 -->
<g id="Node000003" class="node">
<title>Node3</title>
<g id="a_Node000003"><a xlink:href="class_level_one.html#a9bd86c94bf7851dd1c230a0f7917c204" target="_top" xlink:title="Updates the spaceship position and actions.">
<polygon fill="white" stroke="#666666" points="271.25,-20 130.75,-20 130.75,0 271.25,0 271.25,-20"/>
<text text-anchor="middle" x="201" y="-6.5" font-family="Helvetica,sans-Serif" font-size="10.00">LevelOne::UpdateSpaceship</text>
</a>
</g>
</g>
<!-- Node2&#45;&gt;Node3 -->
<g id="edge2_Node000002_Node000003" class="edge">
<title>Node2&#45;&gt;Node3</title>
<g id="a_edge2_Node000002_Node000003"><a xlink:title=" ">
<path fill="none" stroke="#63b8ff" d="M295.52,-10C287.7,-10 279.63,-10 271.68,-10"/>
<polygon fill="#63b8ff" stroke="#63b8ff" points="295.25,-13.5 305.25,-10 295.25,-6.5 295.25,-13.5"/>
</a>
</g>
</g>
<!-- Node4 -->
<g id="Node000004" class="node">
<title>Node4</title>
<g id="a_Node000004"><a xlink:href="class_level_one.html#ac5f4953425e9d335e735f1cde198a1fb" target="_top" xlink:title="Updates the level scene every frame.">
<polygon fill="white" stroke="#666666" points="94.75,-20 0,-20 0,0 94.75,0 94.75,-20"/>
<text text-anchor="middle" x="47.38" y="-6.5" font-family="Helvetica,sans-Serif" font-size="10.00">LevelOne::Update</text>
</a>
</g>
</g>
<!-- Node3&#45;&gt;Node4 -->
<g id="edge3_Node000003_Node000004" class="edge">
<title>Node3&#45;&gt;Node4</title>
<g id="a_edge3_Node000003_Node000004"><a xlink:title=" ">
<path fill="none" stroke="#63b8ff" d="M119.14,-10C110.89,-10 102.71,-10 95.02,-10"/>
<polygon fill="#63b8ff" stroke="#63b8ff" points="118.89,-13.5 128.89,-10 118.89,-6.5 118.89,-13.5"/>
</a>
</g>
</g>
</g>
</svg>
