<?xml version="1.0" encoding="UTF-8" standalone="no"?>
<!DOCTYPE svg PUBLIC "-//W3C//DTD SVG 1.1//EN"
 "http://www.w3.org/Graphics/SVG/1.1/DTD/svg11.dtd">
<!-- Generated by graphviz version 12.2.0 (20241103.1931)
 -->
<!-- Title: MenuState Pages: 1 -->
<svg width="269pt" height="96pt"
 viewBox="0.00 0.00 268.97 96.00" xmlns="http://www.w3.org/2000/svg" xmlns:xlink="http://www.w3.org/1999/xlink">

<svg id="main" version="1.1" xmlns="http://www.w3.org/2000/svg" xmlns:xlink="http://www.w3.org/1999/xlink" xml:space="preserve">

<style type="text/css"><![CDATA[
.node, .edge {opacity: 0.7;}
.node.selected, .edge.selected {opacity: 1;}
.edge:hover path { stroke: red; }
.edge:hover polygon { stroke: red; fill: red; }
]]></style>
<script type="application/ecmascript" xlink:href="svg.min.js"/>
<svg id="graph" class="graph">
<g id="graph0" class="graph" transform="scale(1 1) rotate(0) translate(4 92)">
<title>MenuState</title>
<!-- Node1 -->
<g id="Node000001" class="node">
<title>Node1</title>
<g id="a_Node000001"><a xlink:title="Represents the main menu state in the game.">
<polygon fill="#999999" stroke="#666666" points="163.12,-20 99.88,-20 99.88,0 163.12,0 163.12,-20"/>
<text text-anchor="middle" x="131.5" y="-6.5" font-family="Helvetica,sans-Serif" font-size="10.00">MenuState</text>
</a>
</g>
</g>
<!-- Node2 -->
<g id="Node000002" class="node">
<title>Node2</title>
<g id="a_Node000002"><a xlink:href="class_i_game_scene.html" target="_top" xlink:title="Interface for all game scenes.">
<polygon fill="white" stroke="#666666" points="73,-88 0,-88 0,-68 73,-68 73,-88"/>
<text text-anchor="middle" x="36.5" y="-74.5" font-family="Helvetica,sans-Serif" font-size="10.00">IGameScene</text>
</a>
</g>
</g>
<!-- Node2&#45;&gt;Node1 -->
<g id="edge1_Node000001_Node000002" class="edge">
<title>Node2&#45;&gt;Node1</title>
<g id="a_edge1_Node000001_Node000002"><a xlink:title=" ">
<path fill="none" stroke="#63b8ff" d="M59.47,-61.04C77.74,-48.35 102.69,-31.02 117.91,-20.44"/>
<polygon fill="#63b8ff" stroke="#63b8ff" points="57.57,-58.1 51.35,-66.68 61.56,-63.85 57.57,-58.1"/>
</a>
</g>
</g>
<!-- Node3 -->
<g id="Node000003" class="node">
<title>Node3</title>
<g id="a_Node000003"><a xlink:href="class_scene_manager.html" target="_top" xlink:title="Manages game scenes, allowing for seamless transitions between them.">
<polygon fill="white" stroke="#666666" points="172.12,-88 90.88,-88 90.88,-68 172.12,-68 172.12,-88"/>
<text text-anchor="middle" x="131.5" y="-74.5" font-family="Helvetica,sans-Serif" font-size="10.00">SceneManager</text>
</a>
</g>
</g>
<!-- Node3&#45;&gt;Node1 -->
<g id="edge2_Node000001_Node000003" class="edge">
<title>Node3&#45;&gt;Node1</title>
<g id="a_edge2_Node000001_Node000003"><a xlink:title=" ">
<path fill="none" stroke="#9a32cd" stroke-dasharray="5,2" d="M131.5,-56.28C131.5,-44.27 131.5,-29.74 131.5,-20.44"/>
<polygon fill="#9a32cd" stroke="#9a32cd" points="128,-56.03 131.5,-66.03 135,-56.03 128,-56.03"/>
</a>
</g>
<text text-anchor="middle" x="170.12" y="-40.5" font-family="Helvetica,sans-Serif" font-size="10.00" fill="grey"> m_StateManager</text>
</g>
<!-- Node4 -->
<g id="Node000004" class="node">
<title>Node4</title>
<g id="a_Node000004"><a xlink:href="class_timer.html" target="_top" xlink:title="Tracks elapsed time and allows periodic actions based on intervals.">
<polygon fill="white" stroke="#666666" points="251.88,-88 211.12,-88 211.12,-68 251.88,-68 251.88,-88"/>
<text text-anchor="middle" x="231.5" y="-74.5" font-family="Helvetica,sans-Serif" font-size="10.00">Timer</text>
</a>
</g>
</g>
<!-- Node4&#45;&gt;Node1 -->
<g id="edge3_Node000001_Node000004" class="edge">
<title>Node4&#45;&gt;Node1</title>
<g id="a_edge3_Node000001_Node000004"><a xlink:title=" ">
<path fill="none" stroke="#9a32cd" stroke-dasharray="5,2" d="M223.98,-57.49C220.47,-50.54 215.69,-43.16 209.5,-38 196.4,-27.08 178.63,-20.47 163.36,-16.54"/>
<polygon fill="#9a32cd" stroke="#9a32cd" points="220.62,-58.55 227.84,-66.3 227.03,-55.74 220.62,-58.55"/>
</a>
</g>
<text text-anchor="middle" x="240.34" y="-40.5" font-family="Helvetica,sans-Serif" font-size="10.00" fill="grey"> m_Timer</text>
</g>
</g>
</svg>
</svg>

<style type='text/css'>
<![CDATA[
[data-mouse-over-selected='false'] { opacity: 0.7; }
[data-mouse-over-selected='true']  { opacity: 1.0; }
]]>
</style>
<script type="application/ecmascript"><![CDATA[
document.addEventListener('DOMContentLoaded', (event) => {
  highlightEdges();
  highlightAdjacentNodes();
});
]]></script>
</svg>
