<?xml version="1.0" encoding="UTF-8" standalone="no"?>
<!DOCTYPE svg PUBLIC "-//W3C//DTD SVG 1.1//EN"
 "http://www.w3.org/Graphics/SVG/1.1/DTD/svg11.dtd">
<!-- Generated by graphviz version 12.2.0 (20241103.1931)
 -->
<!-- Title: SoundManager::LoadSound Pages: 1 -->
<svg width="294pt" height="66pt"
 viewBox="0.00 0.00 293.50 66.00" xmlns="http://www.w3.org/2000/svg" xmlns:xlink="http://www.w3.org/1999/xlink">
<g id="graph0" class="graph" transform="scale(1 1) rotate(0) translate(4 62)">
<title>SoundManager::LoadSound</title>
<!-- Node1 -->
<g id="Node000001" class="node">
<title>Node1</title>
<g id="a_Node000001"><a xlink:title="Loads a sound file into memory and stores it under a name.">
<polygon fill="#999999" stroke="#666666" points="285.5,-39 149.5,-39 149.5,-19 285.5,-19 285.5,-39"/>
<text text-anchor="middle" x="217.5" y="-25.5" font-family="Helvetica,sans-Serif" font-size="10.00">SoundManager::LoadSound</text>
</a>
</g>
</g>
<!-- Node2 -->
<g id="Node000002" class="node">
<title>Node2</title>
<g id="a_Node000002"><a xlink:href="class_enemy.html#a57d7a918ac6ea909d2e50aa3951bab65" target="_top" xlink:title="Constructor that initializes an enemy with specific properties.">
<polygon fill="white" stroke="#666666" points="98.5,-58 15,-58 15,-38 98.5,-38 98.5,-58"/>
<text text-anchor="middle" x="56.75" y="-44.5" font-family="Helvetica,sans-Serif" font-size="10.00">Enemy::Enemy</text>
</a>
</g>
</g>
<!-- Node1&#45;&gt;Node2 -->
<g id="edge1_Node000001_Node000002" class="edge">
<title>Node1&#45;&gt;Node2</title>
<g id="a_edge1_Node000001_Node000002"><a xlink:title=" ">
<path fill="none" stroke="#63b8ff" d="M137.9,-38.41C124.42,-40.02 110.92,-41.64 98.94,-43.07"/>
<polygon fill="#63b8ff" stroke="#63b8ff" points="138.16,-41.9 147.67,-37.24 137.33,-34.95 138.16,-41.9"/>
</a>
</g>
</g>
<!-- Node3 -->
<g id="Node000003" class="node">
<title>Node3</title>
<g id="a_Node000003"><a xlink:href="class_spaceship.html#a13f1c8eb5ded2fb1687203322b22bca9" target="_top" xlink:title="Default constructor for the Spaceship class.">
<polygon fill="white" stroke="#666666" points="113.5,-20 0,-20 0,0 113.5,0 113.5,-20"/>
<text text-anchor="middle" x="56.75" y="-6.5" font-family="Helvetica,sans-Serif" font-size="10.00">Spaceship::Spaceship</text>
</a>
</g>
</g>
<!-- Node1&#45;&gt;Node3 -->
<g id="edge2_Node000001_Node000003" class="edge">
<title>Node1&#45;&gt;Node3</title>
<g id="a_edge2_Node000001_Node000003"><a xlink:title=" ">
<path fill="none" stroke="#63b8ff" d="M138.01,-19.61C129.79,-18.62 121.56,-17.64 113.67,-16.69"/>
<polygon fill="#63b8ff" stroke="#63b8ff" points="137.33,-23.05 147.67,-20.76 138.16,-16.1 137.33,-23.05"/>
</a>
</g>
</g>
</g>
</svg>
