<?xml version="1.0" encoding="UTF-8" standalone="no"?>
<!DOCTYPE svg PUBLIC "-//W3C//DTD SVG 1.1//EN"
 "http://www.w3.org/Graphics/SVG/1.1/DTD/svg11.dtd">
<!-- Generated by graphviz version 12.2.0 (20241103.1931)
 -->
<!-- Title: SceneManager::Switch Pages: 1 -->
<svg width="501pt" height="256pt"
 viewBox="0.00 0.00 500.75 256.00" xmlns="http://www.w3.org/2000/svg" xmlns:xlink="http://www.w3.org/1999/xlink">
<g id="graph0" class="graph" transform="scale(1 1) rotate(0) translate(4 252)">
<title>SceneManager::Switch</title>
<!-- Node1 -->
<g id="Node000001" class="node">
<title>Node1</title>
<g id="a_Node000001"><a xlink:title="Switches the currently active scene.">
<polygon fill="#999999" stroke="#666666" points="492.75,-134 375.5,-134 375.5,-114 492.75,-114 492.75,-134"/>
<text text-anchor="middle" x="434.12" y="-120.5" font-family="Helvetica,sans-Serif" font-size="10.00">SceneManager::Switch</text>
</a>
</g>
</g>
<!-- Node2 -->
<g id="Node000002" class="node">
<title>Node2</title>
<g id="a_Node000002"><a xlink:href="class_level_one.html#aa2a81cea0271d042063be2aa367f6c02" target="_top" xlink:title="Checks the player&#39;s lives and updates the game state if necessary.">
<polygon fill="white" stroke="#666666" points="320,-172 205,-172 205,-152 320,-152 320,-172"/>
<text text-anchor="middle" x="262.5" y="-158.5" font-family="Helvetica,sans-Serif" font-size="10.00">LevelOne::CheckLives</text>
</a>
</g>
</g>
<!-- Node1&#45;&gt;Node2 -->
<g id="edge1_Node000001_Node000002" class="edge">
<title>Node1&#45;&gt;Node2</title>
<g id="a_edge1_Node000001_Node000002"><a xlink:title=" ">
<path fill="none" stroke="#63b8ff" d="M375.17,-136.98C353.95,-141.74 330.24,-147.05 310.15,-151.55"/>
<polygon fill="#63b8ff" stroke="#63b8ff" points="375.86,-140.42 384.85,-134.82 374.32,-133.59 375.86,-140.42"/>
</a>
</g>
</g>
<!-- Node4 -->
<g id="Node000004" class="node">
<title>Node4</title>
<g id="a_Node000004"><a xlink:href="class_menu_state.html#aecd8763b82b9bfb5a64a5d7572e9019a" target="_top" xlink:title="Handles user input in the menu scene.">
<polygon fill="white" stroke="#666666" points="323.38,-210 201.62,-210 201.62,-190 323.38,-190 323.38,-210"/>
<text text-anchor="middle" x="262.5" y="-196.5" font-family="Helvetica,sans-Serif" font-size="10.00">MenuState::HandleInput</text>
</a>
</g>
</g>
<!-- Node1&#45;&gt;Node4 -->
<g id="edge3_Node000001_Node000004" class="edge">
<title>Node1&#45;&gt;Node4</title>
<g id="a_edge3_Node000001_Node000004"><a xlink:title=" ">
<path fill="none" stroke="#63b8ff" d="M409.99,-140.82C391.66,-153.46 364.98,-170.35 339.5,-181 331.59,-184.3 322.98,-187.13 314.48,-189.52"/>
<polygon fill="#63b8ff" stroke="#63b8ff" points="411.85,-143.79 418.02,-135.18 407.82,-138.07 411.85,-143.79"/>
</a>
</g>
</g>
<!-- Node5 -->
<g id="Node000005" class="node">
<title>Node5</title>
<g id="a_Node000005"><a xlink:href="class_game_instance.html#a06fe6dbd18ae41ac7f5f8f79b4f8b99d" target="_top" xlink:title="Initializes game states.">
<polygon fill="white" stroke="#666666" points="339.5,-248 185.5,-248 185.5,-228 339.5,-228 339.5,-248"/>
<text text-anchor="middle" x="262.5" y="-234.5" font-family="Helvetica,sans-Serif" font-size="10.00">GameInstance::InitGameStates</text>
</a>
</g>
</g>
<!-- Node1&#45;&gt;Node5 -->
<g id="edge4_Node000001_Node000005" class="edge">
<title>Node1&#45;&gt;Node5</title>
<g id="a_edge4_Node000001_Node000005"><a xlink:title=" ">
<path fill="none" stroke="#63b8ff" d="M419.33,-143.37C402.82,-165.09 373.16,-199.78 339.5,-219 333.48,-222.44 326.84,-225.26 320.07,-227.58"/>
<polygon fill="#63b8ff" stroke="#63b8ff" points="421.93,-145.74 425.06,-135.62 416.3,-141.58 421.93,-145.74"/>
</a>
</g>
</g>
<!-- Node7 -->
<g id="Node000007" class="node">
<title>Node7</title>
<g id="a_Node000007"><a xlink:href="class_level_one.html#a53f3108775fb3266debed32e9a2284c6" target="_top" xlink:title="Handles the game over state.">
<polygon fill="white" stroke="#666666" points="324.12,-134 200.88,-134 200.88,-114 324.12,-114 324.12,-134"/>
<text text-anchor="middle" x="262.5" y="-120.5" font-family="Helvetica,sans-Serif" font-size="10.00">LevelOne::OnGameOver</text>
</a>
</g>
</g>
<!-- Node1&#45;&gt;Node7 -->
<g id="edge6_Node000001_Node000007" class="edge">
<title>Node1&#45;&gt;Node7</title>
<g id="a_edge6_Node000001_Node000007"><a xlink:title=" ">
<path fill="none" stroke="#63b8ff" d="M363.94,-124C350.91,-124 337.37,-124 324.61,-124"/>
<polygon fill="#63b8ff" stroke="#63b8ff" points="363.71,-127.5 373.71,-124 363.71,-120.5 363.71,-127.5"/>
</a>
</g>
</g>
<!-- Node8 -->
<g id="Node000008" class="node">
<title>Node8</title>
<g id="a_Node000008"><a xlink:href="class_credits.html#aaf8dd49979cd73f003c4ae4e5eed472e" target="_top" xlink:title="Updates the scene logic.">
<polygon fill="white" stroke="#666666" points="305,-96 220,-96 220,-76 305,-76 305,-96"/>
<text text-anchor="middle" x="262.5" y="-82.5" font-family="Helvetica,sans-Serif" font-size="10.00">Credits::Update</text>
</a>
</g>
</g>
<!-- Node1&#45;&gt;Node8 -->
<g id="edge7_Node000001_Node000008" class="edge">
<title>Node1&#45;&gt;Node8</title>
<g id="a_edge7_Node000001_Node000008"><a xlink:title=" ">
<path fill="none" stroke="#63b8ff" d="M375.3,-111.05C352.3,-105.89 326.34,-100.08 305.23,-95.35"/>
<polygon fill="#63b8ff" stroke="#63b8ff" points="374.32,-114.41 384.85,-113.18 375.86,-107.58 374.32,-114.41"/>
</a>
</g>
</g>
<!-- Node9 -->
<g id="Node000009" class="node">
<title>Node9</title>
<g id="a_Node000009"><a xlink:href="class_game_over.html#a574908eb0d8bd368a45c986b2e853e14" target="_top" xlink:title="Updates the game over scene every frame.">
<polygon fill="white" stroke="#666666" points="312.88,-58 212.12,-58 212.12,-38 312.88,-38 312.88,-58"/>
<text text-anchor="middle" x="262.5" y="-44.5" font-family="Helvetica,sans-Serif" font-size="10.00">GameOver::Update</text>
</a>
</g>
</g>
<!-- Node1&#45;&gt;Node9 -->
<g id="edge8_Node000001_Node000009" class="edge">
<title>Node1&#45;&gt;Node9</title>
<g id="a_edge8_Node000001_Node000009"><a xlink:title=" ">
<path fill="none" stroke="#63b8ff" d="M409.99,-107.18C391.66,-94.54 364.98,-77.65 339.5,-67 331.22,-63.54 322.15,-60.6 313.26,-58.14"/>
<polygon fill="#63b8ff" stroke="#63b8ff" points="407.82,-109.93 418.02,-112.82 411.85,-104.21 407.82,-109.93"/>
</a>
</g>
</g>
<!-- Node10 -->
<g id="Node000010" class="node">
<title>Node10</title>
<g id="a_Node000010"><a xlink:href="class_level_one.html#a49050c25247260db25be9fdee638ab41" target="_top" xlink:title="Updates the level&#45;related UI text, such as level name and lives count.">
<polygon fill="white" stroke="#666666" points="330.88,-20 194.12,-20 194.12,0 330.88,0 330.88,-20"/>
<text text-anchor="middle" x="262.5" y="-6.5" font-family="Helvetica,sans-Serif" font-size="10.00">LevelOne::UpdateLevelText</text>
</a>
</g>
</g>
<!-- Node1&#45;&gt;Node10 -->
<g id="edge9_Node000001_Node000010" class="edge">
<title>Node1&#45;&gt;Node10</title>
<g id="a_edge9_Node000001_Node000010"><a xlink:title=" ">
<path fill="none" stroke="#63b8ff" d="M419.33,-104.63C402.82,-82.91 373.16,-48.22 339.5,-29 333.48,-25.56 326.84,-22.74 320.07,-20.42"/>
<polygon fill="#63b8ff" stroke="#63b8ff" points="416.3,-106.42 425.06,-112.38 421.93,-102.26 416.3,-106.42"/>
</a>
</g>
</g>
<!-- Node3 -->
<g id="Node000003" class="node">
<title>Node3</title>
<g id="a_Node000003"><a xlink:href="class_level_one.html#ac5f4953425e9d335e735f1cde198a1fb" target="_top" xlink:title="Updates the level scene every frame.">
<polygon fill="white" stroke="#666666" points="122.12,-96 27.38,-96 27.38,-76 122.12,-76 122.12,-96"/>
<text text-anchor="middle" x="74.75" y="-82.5" font-family="Helvetica,sans-Serif" font-size="10.00">LevelOne::Update</text>
</a>
</g>
</g>
<!-- Node2&#45;&gt;Node3 -->
<g id="edge2_Node000002_Node000003" class="edge">
<title>Node2&#45;&gt;Node3</title>
<g id="a_edge2_Node000002_Node000003"><a xlink:title=" ">
<path fill="none" stroke="#63b8ff" d="M201.94,-148.54C196.33,-146.84 190.77,-145 185.5,-143 151.17,-130 113.73,-108.93 92.66,-96.38"/>
<polygon fill="#63b8ff" stroke="#63b8ff" points="200.7,-151.83 211.28,-151.19 202.61,-145.09 200.7,-151.83"/>
</a>
</g>
</g>
<!-- Node6 -->
<g id="Node000006" class="node">
<title>Node6</title>
<g id="a_Node000006"><a xlink:href="class_game_instance.html#a4960d24b6dbc4d273882cb55db1e022c" target="_top" xlink:title="Constructs the game instance.">
<polygon fill="white" stroke="#666666" points="149.5,-248 0,-248 0,-228 149.5,-228 149.5,-248"/>
<text text-anchor="middle" x="74.75" y="-234.5" font-family="Helvetica,sans-Serif" font-size="10.00">GameInstance::GameInstance</text>
</a>
</g>
</g>
<!-- Node5&#45;&gt;Node6 -->
<g id="edge5_Node000005_Node000006" class="edge">
<title>Node5&#45;&gt;Node6</title>
<g id="a_edge5_Node000005_Node000006"><a xlink:title=" ">
<path fill="none" stroke="#63b8ff" d="M173.81,-238C165.75,-238 157.63,-238 149.71,-238"/>
<polygon fill="#63b8ff" stroke="#63b8ff" points="173.63,-241.5 183.63,-238 173.63,-234.5 173.63,-241.5"/>
</a>
</g>
</g>
<!-- Node10&#45;&gt;Node3 -->
<g id="edge10_Node000010_Node000003" class="edge">
<title>Node10&#45;&gt;Node3</title>
<g id="a_edge10_Node000010_Node000003"><a xlink:title=" ">
<path fill="none" stroke="#63b8ff" d="M201.94,-23.46C196.33,-25.16 190.77,-27 185.5,-29 151.17,-42 113.73,-63.07 92.66,-75.62"/>
<polygon fill="#63b8ff" stroke="#63b8ff" points="202.61,-26.91 211.28,-20.81 200.7,-20.17 202.61,-26.91"/>
</a>
</g>
</g>
</g>
</svg>
