<?xml version="1.0" encoding="UTF-8" standalone="no"?>
<!DOCTYPE svg PUBLIC "-//W3C//DTD SVG 1.1//EN"
 "http://www.w3.org/Graphics/SVG/1.1/DTD/svg11.dtd">
<!-- Generated by graphviz version 12.2.0 (20241103.1931)
 -->
<!-- Title: SceneManager::Update Pages: 1 -->
<svg width="246pt" height="66pt"
 viewBox="0.00 0.00 245.50 66.00" xmlns="http://www.w3.org/2000/svg" xmlns:xlink="http://www.w3.org/1999/xlink">
<g id="graph0" class="graph" transform="scale(1 1) rotate(0) translate(4 62)">
<title>SceneManager::Update</title>
<!-- Node1 -->
<g id="Node000001" class="node">
<title>Node1</title>
<g id="a_Node000001"><a xlink:title="Updates the currently active scene.">
<polygon fill="#999999" stroke="#666666" points="118.75,-39 0,-39 0,-19 118.75,-19 118.75,-39"/>
<text text-anchor="middle" x="59.38" y="-25.5" font-family="Helvetica,sans-Serif" font-size="10.00">SceneManager::Update</text>
</a>
</g>
</g>
<!-- Node2 -->
<g id="Node000002" class="node">
<title>Node2</title>
<g id="a_Node000002"><a xlink:href="class_cursor.html#a63a9f41bc993fa26d7b897bed958109d" target="_top" xlink:title="Retrieve the singleton instance of the Cursor class.">
<polygon fill="white" stroke="#666666" points="229.62,-58 162.62,-58 162.62,-38 229.62,-38 229.62,-58"/>
<text text-anchor="middle" x="196.12" y="-44.5" font-family="Helvetica,sans-Serif" font-size="10.00">Cursor::Get</text>
</a>
</g>
</g>
<!-- Node1&#45;&gt;Node2 -->
<g id="edge1_Node000001_Node000002" class="edge">
<title>Node1&#45;&gt;Node2</title>
<g id="a_edge1_Node000001_Node000002"><a xlink:title=" ">
<path fill="none" stroke="#63b8ff" d="M119.09,-37.28C129.8,-38.79 140.82,-40.34 151.02,-41.78"/>
<polygon fill="#63b8ff" stroke="#63b8ff" points="150.25,-45.21 160.64,-43.14 151.23,-38.28 150.25,-45.21"/>
</a>
</g>
</g>
<!-- Node3 -->
<g id="Node000003" class="node">
<title>Node3</title>
<g id="a_Node000003"><a xlink:href="class_cursor.html#a0d5032e03907b8374630fdf3494558d7" target="_top" xlink:title="Update the cursor&#39;s internal state.">
<polygon fill="white" stroke="#666666" points="237.5,-20 154.75,-20 154.75,0 237.5,0 237.5,-20"/>
<text text-anchor="middle" x="196.12" y="-6.5" font-family="Helvetica,sans-Serif" font-size="10.00">Cursor::Update</text>
</a>
</g>
</g>
<!-- Node1&#45;&gt;Node3 -->
<g id="edge2_Node000001_Node000003" class="edge">
<title>Node1&#45;&gt;Node3</title>
<g id="a_edge2_Node000001_Node000003"><a xlink:title=" ">
<path fill="none" stroke="#63b8ff" d="M119.09,-20.72C127.09,-19.59 135.26,-18.44 143.14,-17.33"/>
<polygon fill="#63b8ff" stroke="#63b8ff" points="143.5,-20.81 152.91,-15.95 142.52,-13.88 143.5,-20.81"/>
</a>
</g>
</g>
</g>
</svg>
