<?xml version="1.0" encoding="UTF-8" standalone="no"?>
<!DOCTYPE svg PUBLIC "-//W3C//DTD SVG 1.1//EN"
 "http://www.w3.org/Graphics/SVG/1.1/DTD/svg11.dtd">
<!-- Generated by graphviz version 12.2.0 (20241103.1931)
 -->
<!-- Title: LevelOne::LevelOne Pages: 1 -->
<svg width="678pt" height="116pt"
 viewBox="0.00 0.00 677.50 116.00" xmlns="http://www.w3.org/2000/svg" xmlns:xlink="http://www.w3.org/1999/xlink">
<g id="graph0" class="graph" transform="scale(1 1) rotate(0) translate(4 112)">
<title>LevelOne::LevelOne</title>
<!-- Node1 -->
<g id="Node000001" class="node">
<title>Node1</title>
<g id="a_Node000001"><a xlink:title="Constructs the LevelOne scene with a reference to the scene manager and window.">
<polygon fill="#999999" stroke="#666666" points="104.5,-58 0,-58 0,-38 104.5,-38 104.5,-58"/>
<text text-anchor="middle" x="52.25" y="-44.5" font-family="Helvetica,sans-Serif" font-size="10.00">LevelOne::LevelOne</text>
</a>
</g>
</g>
<!-- Node2 -->
<g id="Node000002" class="node">
<title>Node2</title>
<g id="a_Node000002"><a xlink:href="class_level_one.html#a07f13cbce0fed886e7c800a52e32158c" target="_top" xlink:title="Initializes the background for the level.">
<polygon fill="white" stroke="#666666" points="269,-99 140.5,-99 140.5,-79 269,-79 269,-99"/>
<text text-anchor="middle" x="204.75" y="-85.5" font-family="Helvetica,sans-Serif" font-size="10.00">LevelOne::InitBackground</text>
</a>
</g>
</g>
<!-- Node1&#45;&gt;Node2 -->
<g id="edge1_Node000001_Node000002" class="edge">
<title>Node1&#45;&gt;Node2</title>
<g id="a_edge1_Node000001_Node000002"><a xlink:title=" ">
<path fill="none" stroke="#63b8ff" d="M91.62,-58.45C110.72,-63.66 134.04,-70.01 154.46,-75.57"/>
<polygon fill="#63b8ff" stroke="#63b8ff" points="153.42,-78.92 163.99,-78.17 155.26,-72.16 153.42,-78.92"/>
</a>
</g>
</g>
<!-- Node6 -->
<g id="Node000006" class="node">
<title>Node6</title>
<g id="a_Node000006"><a xlink:href="class_level_one.html#ab45be2d82cb57188dda251343856fb16" target="_top" xlink:title="Initializes the level text for displaying information such as level name and player lives.">
<polygon fill="white" stroke="#666666" points="264.12,-58 145.38,-58 145.38,-38 264.12,-38 264.12,-58"/>
<text text-anchor="middle" x="204.75" y="-44.5" font-family="Helvetica,sans-Serif" font-size="10.00">LevelOne::InitLevelText</text>
</a>
</g>
</g>
<!-- Node1&#45;&gt;Node6 -->
<g id="edge5_Node000001_Node000006" class="edge">
<title>Node1&#45;&gt;Node6</title>
<g id="a_edge5_Node000001_Node000006"><a xlink:title=" ">
<path fill="none" stroke="#63b8ff" d="M104.62,-48C113.99,-48 123.9,-48 133.7,-48"/>
<polygon fill="#63b8ff" stroke="#63b8ff" points="133.59,-51.5 143.59,-48 133.59,-44.5 133.59,-51.5"/>
</a>
</g>
</g>
<!-- Node7 -->
<g id="Node000007" class="node">
<title>Node7</title>
<g id="a_Node000007"><a xlink:href="namespace_core_helper.html#a5bc59fd3ff2736ca4415da047fe428bc" target="_top" xlink:title="Loads background music from a file.">
<polygon fill="white" stroke="#666666" points="435.38,-20 316.62,-20 316.62,0 435.38,0 435.38,-20"/>
<text text-anchor="middle" x="376" y="-6.5" font-family="Helvetica,sans-Serif" font-size="10.00">CoreHelper::LoadMusic</text>
</a>
</g>
</g>
<!-- Node1&#45;&gt;Node7 -->
<g id="edge7_Node000001_Node000007" class="edge">
<title>Node1&#45;&gt;Node7</title>
<g id="a_edge7_Node000001_Node000007"><a xlink:title=" ">
<path fill="none" stroke="#63b8ff" d="M95.64,-37.58C109.83,-34.41 125.78,-31.19 140.5,-29 195.55,-20.81 258.44,-15.96 305.22,-13.21"/>
<polygon fill="#63b8ff" stroke="#63b8ff" points="305.15,-16.72 314.94,-12.66 304.76,-9.73 305.15,-16.72"/>
</a>
</g>
</g>
<!-- Node3 -->
<g id="Node000003" class="node">
<title>Node3</title>
<g id="a_Node000003"><a xlink:href="namespace_core_helper.html#a0609ff46cfcbe7d88492b38418267da5" target="_top" xlink:title="Loads a texture and assigns it to a sprite.">
<polygon fill="white" stroke="#666666" points="447,-108 305,-108 305,-76 447,-76 447,-108"/>
<text text-anchor="start" x="313" y="-94.5" font-family="Helvetica,sans-Serif" font-size="10.00">CoreHelper::LoadTextureAnd</text>
<text text-anchor="middle" x="376" y="-82.5" font-family="Helvetica,sans-Serif" font-size="10.00">Sprite</text>
</a>
</g>
</g>
<!-- Node2&#45;&gt;Node3 -->
<g id="edge2_Node000002_Node000003" class="edge">
<title>Node2&#45;&gt;Node3</title>
<g id="a_edge2_Node000002_Node000003"><a xlink:title=" ">
<path fill="none" stroke="#63b8ff" d="M269.25,-90.13C277.1,-90.26 285.2,-90.41 293.26,-90.55"/>
<polygon fill="#63b8ff" stroke="#63b8ff" points="293.04,-94.05 303.1,-90.73 293.16,-87.05 293.04,-94.05"/>
</a>
</g>
</g>
<!-- Node4 -->
<g id="Node000004" class="node">
<title>Node4</title>
<g id="a_Node000004"><a xlink:href="class_log.html#a0602808efc4b6a11f68f0c9ee2df135e" target="_top" xlink:title="Prints a plain text message with a given log level.">
<polygon fill="white" stroke="#666666" points="541,-58 483,-58 483,-38 541,-38 541,-58"/>
<text text-anchor="middle" x="512" y="-44.5" font-family="Helvetica,sans-Serif" font-size="10.00">Log::Print</text>
</a>
</g>
</g>
<!-- Node3&#45;&gt;Node4 -->
<g id="edge3_Node000003_Node000004" class="edge">
<title>Node3&#45;&gt;Node4</title>
<g id="a_edge3_Node000003_Node000004"><a xlink:title=" ">
<path fill="none" stroke="#63b8ff" d="M426.9,-75.62C441.81,-70.72 457.94,-65.42 472.04,-60.79"/>
<polygon fill="#63b8ff" stroke="#63b8ff" points="473.01,-64.16 481.42,-57.71 470.82,-57.51 473.01,-64.16"/>
</a>
</g>
</g>
<!-- Node5 -->
<g id="Node000005" class="node">
<title>Node5</title>
<g id="a_Node000005"><a xlink:href="class_log.html#a758948f266c4aa6fabbf9b172a018d43" target="_top" xlink:title="Returns the string representation of a log level.">
<polygon fill="white" stroke="#666666" points="669.5,-58 577,-58 577,-38 669.5,-38 669.5,-58"/>
<text text-anchor="middle" x="623.25" y="-44.5" font-family="Helvetica,sans-Serif" font-size="10.00">Log::GetLogLevel</text>
</a>
</g>
</g>
<!-- Node4&#45;&gt;Node5 -->
<g id="edge4_Node000004_Node000005" class="edge">
<title>Node4&#45;&gt;Node5</title>
<g id="a_edge4_Node000004_Node000005"><a xlink:title=" ">
<path fill="none" stroke="#63b8ff" d="M541.42,-48C548.81,-48 557.04,-48 565.33,-48"/>
<polygon fill="#63b8ff" stroke="#63b8ff" points="565.11,-51.5 575.11,-48 565.11,-44.5 565.11,-51.5"/>
</a>
</g>
</g>
<!-- Node6&#45;&gt;Node4 -->
<g id="edge6_Node000006_Node000004" class="edge">
<title>Node6&#45;&gt;Node4</title>
<g id="a_edge6_Node000006_Node000004"><a xlink:title=" ">
<path fill="none" stroke="#63b8ff" d="M264.61,-48C325.49,-48 418.87,-48 471.46,-48"/>
<polygon fill="#63b8ff" stroke="#63b8ff" points="471.15,-51.5 481.15,-48 471.15,-44.5 471.15,-51.5"/>
</a>
</g>
</g>
<!-- Node7&#45;&gt;Node4 -->
<g id="edge8_Node000007_Node000004" class="edge">
<title>Node7&#45;&gt;Node4</title>
<g id="a_edge8_Node000007_Node000004"><a xlink:title=" ">
<path fill="none" stroke="#63b8ff" d="M413.97,-20.48C431.93,-25.58 453.53,-31.7 471.78,-36.88"/>
<polygon fill="#63b8ff" stroke="#63b8ff" points="470.62,-40.19 481.19,-39.55 472.53,-33.45 470.62,-40.19"/>
</a>
</g>
</g>
</g>
</svg>
