<?xml version="1.0" encoding="UTF-8" standalone="no"?>
<!DOCTYPE svg PUBLIC "-//W3C//DTD SVG 1.1//EN"
 "http://www.w3.org/Graphics/SVG/1.1/DTD/svg11.dtd">
<!-- Generated by graphviz version 12.2.0 (20241103.1931)
 -->
<!-- Title: Spaceship::CalculateAndUpdateCursorPosition Pages: 1 -->
<svg width="608pt" height="40pt"
 viewBox="0.00 0.00 608.25 40.00" xmlns="http://www.w3.org/2000/svg" xmlns:xlink="http://www.w3.org/1999/xlink">
<g id="graph0" class="graph" transform="scale(1 1) rotate(0) translate(4 36)">
<title>Spaceship::CalculateAndUpdateCursorPosition</title>
<!-- Node1 -->
<g id="Node000001" class="node">
<title>Node1</title>
<g id="a_Node000001"><a xlink:title="Calculates and updates the spaceship&#39;s position based on the cursor&#39;s position.">
<polygon fill="#999999" stroke="#666666" points="600.25,-32 442.5,-32 442.5,0 600.25,0 600.25,-32"/>
<text text-anchor="start" x="450.5" y="-18.5" font-family="Helvetica,sans-Serif" font-size="10.00">Spaceship::CalculateAndUpdate</text>
<text text-anchor="middle" x="521.38" y="-6.5" font-family="Helvetica,sans-Serif" font-size="10.00">CursorPosition</text>
</a>
</g>
</g>
<!-- Node2 -->
<g id="Node000002" class="node">
<title>Node2</title>
<g id="a_Node000002"><a xlink:href="class_spaceship.html#a5a1432606489e09a118be526dca09773" target="_top" xlink:title="Updates the spaceship&#39;s state and actions.">
<polygon fill="white" stroke="#666666" points="406.5,-26 307.25,-26 307.25,-6 406.5,-6 406.5,-26"/>
<text text-anchor="middle" x="356.88" y="-12.5" font-family="Helvetica,sans-Serif" font-size="10.00">Spaceship::Update</text>
</a>
</g>
</g>
<!-- Node1&#45;&gt;Node2 -->
<g id="edge1_Node000001_Node000002" class="edge">
<title>Node1&#45;&gt;Node2</title>
<g id="a_edge1_Node000001_Node000002"><a xlink:title=" ">
<path fill="none" stroke="#63b8ff" d="M431.01,-16C422.64,-16 414.38,-16 406.61,-16"/>
<polygon fill="#63b8ff" stroke="#63b8ff" points="430.94,-19.5 440.94,-16 430.94,-12.5 430.94,-19.5"/>
</a>
</g>
</g>
<!-- Node3 -->
<g id="Node000003" class="node">
<title>Node3</title>
<g id="a_Node000003"><a xlink:href="class_level_one.html#a9bd86c94bf7851dd1c230a0f7917c204" target="_top" xlink:title="Updates the spaceship position and actions.">
<polygon fill="white" stroke="#666666" points="271.25,-26 130.75,-26 130.75,-6 271.25,-6 271.25,-26"/>
<text text-anchor="middle" x="201" y="-12.5" font-family="Helvetica,sans-Serif" font-size="10.00">LevelOne::UpdateSpaceship</text>
</a>
</g>
</g>
<!-- Node2&#45;&gt;Node3 -->
<g id="edge2_Node000002_Node000003" class="edge">
<title>Node2&#45;&gt;Node3</title>
<g id="a_edge2_Node000002_Node000003"><a xlink:title=" ">
<path fill="none" stroke="#63b8ff" d="M295.52,-16C287.7,-16 279.63,-16 271.68,-16"/>
<polygon fill="#63b8ff" stroke="#63b8ff" points="295.25,-19.5 305.25,-16 295.25,-12.5 295.25,-19.5"/>
</a>
</g>
</g>
<!-- Node4 -->
<g id="Node000004" class="node">
<title>Node4</title>
<g id="a_Node000004"><a xlink:href="class_level_one.html#ac5f4953425e9d335e735f1cde198a1fb" target="_top" xlink:title="Updates the level scene every frame.">
<polygon fill="white" stroke="#666666" points="94.75,-26 0,-26 0,-6 94.75,-6 94.75,-26"/>
<text text-anchor="middle" x="47.38" y="-12.5" font-family="Helvetica,sans-Serif" font-size="10.00">LevelOne::Update</text>
</a>
</g>
</g>
<!-- Node3&#45;&gt;Node4 -->
<g id="edge3_Node000003_Node000004" class="edge">
<title>Node3&#45;&gt;Node4</title>
<g id="a_edge3_Node000003_Node000004"><a xlink:title=" ">
<path fill="none" stroke="#63b8ff" d="M119.14,-16C110.89,-16 102.71,-16 95.02,-16"/>
<polygon fill="#63b8ff" stroke="#63b8ff" points="118.89,-19.5 128.89,-16 118.89,-12.5 118.89,-19.5"/>
</a>
</g>
</g>
</g>
</svg>
