<?xml version="1.0" encoding="UTF-8" standalone="no"?>
<!DOCTYPE svg PUBLIC "-//W3C//DTD SVG 1.1//EN"
 "http://www.w3.org/Graphics/SVG/1.1/DTD/svg11.dtd">
<!-- Generated by graphviz version 12.2.0 (20241103.1931)
 -->
<!-- Title: GameInstance::InitGameStates Pages: 1 -->
<svg width="538pt" height="66pt"
 viewBox="0.00 0.00 537.75 66.00" xmlns="http://www.w3.org/2000/svg" xmlns:xlink="http://www.w3.org/1999/xlink">
<g id="graph0" class="graph" transform="scale(1 1) rotate(0) translate(4 62)">
<title>GameInstance::InitGameStates</title>
<!-- Node1 -->
<g id="Node000001" class="node">
<title>Node1</title>
<g id="a_Node000001"><a xlink:title="Initializes game states.">
<polygon fill="#999999" stroke="#666666" points="154,-39 0,-39 0,-19 154,-19 154,-39"/>
<text text-anchor="middle" x="77" y="-25.5" font-family="Helvetica,sans-Serif" font-size="10.00">GameInstance::InitGameStates</text>
</a>
</g>
</g>
<!-- Node2 -->
<g id="Node000002" class="node">
<title>Node2</title>
<g id="a_Node000002"><a xlink:href="class_scene_manager.html#abfffecc4ffd12a2592249b922fe91658" target="_top" xlink:title="Adds a new scene to the manager.">
<polygon fill="white" stroke="#666666" points="300.88,-58 196.38,-58 196.38,-38 300.88,-38 300.88,-58"/>
<text text-anchor="middle" x="248.62" y="-44.5" font-family="Helvetica,sans-Serif" font-size="10.00">SceneManager::Add</text>
</a>
</g>
</g>
<!-- Node1&#45;&gt;Node2 -->
<g id="edge1_Node000001_Node000002" class="edge">
<title>Node1&#45;&gt;Node2</title>
<g id="a_edge1_Node000001_Node000002"><a xlink:title=" ">
<path fill="none" stroke="#63b8ff" d="M154.38,-37.56C164.49,-38.69 174.76,-39.84 184.62,-40.94"/>
<polygon fill="#63b8ff" stroke="#63b8ff" points="184.12,-44.41 194.45,-42.04 184.9,-37.45 184.12,-44.41"/>
</a>
</g>
</g>
<!-- Node5 -->
<g id="Node000005" class="node">
<title>Node5</title>
<g id="a_Node000005"><a xlink:href="class_scene_manager.html#a923a348879950dfdeba731f5fbcaf731" target="_top" xlink:title="Switches the currently active scene.">
<polygon fill="white" stroke="#666666" points="307.25,-20 190,-20 190,0 307.25,0 307.25,-20"/>
<text text-anchor="middle" x="248.62" y="-6.5" font-family="Helvetica,sans-Serif" font-size="10.00">SceneManager::Switch</text>
</a>
</g>
</g>
<!-- Node1&#45;&gt;Node5 -->
<g id="edge4_Node000001_Node000005" class="edge">
<title>Node1&#45;&gt;Node5</title>
<g id="a_edge4_Node000001_Node000005"><a xlink:title=" ">
<path fill="none" stroke="#63b8ff" d="M154.38,-20.44C162.35,-19.55 170.43,-18.65 178.32,-17.76"/>
<polygon fill="#63b8ff" stroke="#63b8ff" points="178.66,-21.25 188.21,-16.66 177.88,-14.29 178.66,-21.25"/>
</a>
</g>
</g>
<!-- Node3 -->
<g id="Node000003" class="node">
<title>Node3</title>
<g id="a_Node000003"><a xlink:href="class_log.html#a0602808efc4b6a11f68f0c9ee2df135e" target="_top" xlink:title="Prints a plain text message with a given log level.">
<polygon fill="white" stroke="#666666" points="401.25,-39 343.25,-39 343.25,-19 401.25,-19 401.25,-39"/>
<text text-anchor="middle" x="372.25" y="-25.5" font-family="Helvetica,sans-Serif" font-size="10.00">Log::Print</text>
</a>
</g>
</g>
<!-- Node2&#45;&gt;Node3 -->
<g id="edge2_Node000002_Node000003" class="edge">
<title>Node2&#45;&gt;Node3</title>
<g id="a_edge2_Node000002_Node000003"><a xlink:title=" ">
<path fill="none" stroke="#63b8ff" d="M301.2,-39.94C311.33,-38.36 321.81,-36.72 331.47,-35.21"/>
<polygon fill="#63b8ff" stroke="#63b8ff" points="331.95,-38.68 341.29,-33.68 330.87,-31.77 331.95,-38.68"/>
</a>
</g>
</g>
<!-- Node4 -->
<g id="Node000004" class="node">
<title>Node4</title>
<g id="a_Node000004"><a xlink:href="class_log.html#a758948f266c4aa6fabbf9b172a018d43" target="_top" xlink:title="Returns the string representation of a log level.">
<polygon fill="white" stroke="#666666" points="529.75,-39 437.25,-39 437.25,-19 529.75,-19 529.75,-39"/>
<text text-anchor="middle" x="483.5" y="-25.5" font-family="Helvetica,sans-Serif" font-size="10.00">Log::GetLogLevel</text>
</a>
</g>
</g>
<!-- Node3&#45;&gt;Node4 -->
<g id="edge3_Node000003_Node000004" class="edge">
<title>Node3&#45;&gt;Node4</title>
<g id="a_edge3_Node000003_Node000004"><a xlink:title=" ">
<path fill="none" stroke="#63b8ff" d="M401.67,-29C409.06,-29 417.29,-29 425.58,-29"/>
<polygon fill="#63b8ff" stroke="#63b8ff" points="425.36,-32.5 435.36,-29 425.36,-25.5 425.36,-32.5"/>
</a>
</g>
</g>
<!-- Node5&#45;&gt;Node3 -->
<g id="edge5_Node000005_Node000003" class="edge">
<title>Node5&#45;&gt;Node3</title>
<g id="a_edge5_Node000005_Node000003"><a xlink:title=" ">
<path fill="none" stroke="#63b8ff" d="M307.59,-19.05C315.71,-20.32 323.91,-21.6 331.59,-22.8"/>
<polygon fill="#63b8ff" stroke="#63b8ff" points="330.86,-26.23 341.28,-24.32 331.94,-19.32 330.86,-26.23"/>
</a>
</g>
</g>
</g>
</svg>
