<?xml version="1.0" encoding="UTF-8" standalone="no"?>
<!DOCTYPE svg PUBLIC "-//W3C//DTD SVG 1.1//EN"
 "http://www.w3.org/Graphics/SVG/1.1/DTD/svg11.dtd">
<!-- Generated by graphviz version 12.2.0 (20241103.1931)
 -->
<!-- Title: LevelOne::OnStart Pages: 1 -->
<svg width="814pt" height="108pt"
 viewBox="0.00 0.00 814.25 108.00" xmlns="http://www.w3.org/2000/svg" xmlns:xlink="http://www.w3.org/1999/xlink">
<g id="graph0" class="graph" transform="scale(1 1) rotate(0) translate(4 104)">
<title>LevelOne::OnStart</title>
<!-- Node1 -->
<g id="Node000001" class="node">
<title>Node1</title>
<g id="a_Node000001"><a xlink:title="Starts the level scene, preparing necessary resources.">
<polygon fill="#999999" stroke="#666666" points="97,-58 0,-58 0,-38 97,-38 97,-58"/>
<text text-anchor="middle" x="48.5" y="-44.5" font-family="Helvetica,sans-Serif" font-size="10.00">LevelOne::OnStart</text>
</a>
</g>
</g>
<!-- Node2 -->
<g id="Node000002" class="node">
<title>Node2</title>
<g id="a_Node000002"><a xlink:href="class_level_one.html#a150f5898ace9c858941cfe46c1b36cb4" target="_top" xlink:title="Resets the level for a new playthrough.">
<polygon fill="white" stroke="#666666" points="222.5,-58 133,-58 133,-38 222.5,-38 222.5,-58"/>
<text text-anchor="middle" x="177.75" y="-44.5" font-family="Helvetica,sans-Serif" font-size="10.00">LevelOne::Reset</text>
</a>
</g>
</g>
<!-- Node1&#45;&gt;Node2 -->
<g id="edge1_Node000001_Node000002" class="edge">
<title>Node1&#45;&gt;Node2</title>
<g id="a_edge1_Node000001_Node000002"><a xlink:title=" ">
<path fill="none" stroke="#63b8ff" d="M97.25,-48C105.02,-48 113.12,-48 121.07,-48"/>
<polygon fill="#63b8ff" stroke="#63b8ff" points="121.01,-51.5 131.01,-48 121.01,-44.5 121.01,-51.5"/>
</a>
</g>
</g>
<!-- Node3 -->
<g id="Node000003" class="node">
<title>Node3</title>
<g id="a_Node000003"><a xlink:href="namespace_gameplay_utility.html#a24348bc2bb771397d9716c320eca7b25" target="_top" xlink:title="Spawns a set number of enemies in a grid pattern.">
<polygon fill="white" stroke="#666666" points="583.75,-100 423,-100 423,-80 583.75,-80 583.75,-100"/>
<text text-anchor="middle" x="503.38" y="-86.5" font-family="Helvetica,sans-Serif" font-size="10.00">GameplayUtility::EnemySpawner</text>
</a>
</g>
</g>
<!-- Node2&#45;&gt;Node3 -->
<g id="edge2_Node000002_Node000003" class="edge">
<title>Node2&#45;&gt;Node3</title>
<g id="a_edge2_Node000002_Node000003"><a xlink:title=" ">
<path fill="none" stroke="#63b8ff" d="M217.87,-58.47C230.74,-61.61 245.16,-64.79 258.5,-67 308.69,-75.3 365.22,-80.87 411.2,-84.44"/>
<polygon fill="#63b8ff" stroke="#63b8ff" points="410.91,-87.93 421.15,-85.19 411.44,-80.95 410.91,-87.93"/>
</a>
</g>
</g>
<!-- Node6 -->
<g id="Node000006" class="node">
<title>Node6</title>
<g id="a_Node000006"><a xlink:href="class_level_one.html#a07f13cbce0fed886e7c800a52e32158c" target="_top" xlink:title="Initializes the background for the level.">
<polygon fill="white" stroke="#666666" points="387,-58 258.5,-58 258.5,-38 387,-38 387,-58"/>
<text text-anchor="middle" x="322.75" y="-44.5" font-family="Helvetica,sans-Serif" font-size="10.00">LevelOne::InitBackground</text>
</a>
</g>
</g>
<!-- Node2&#45;&gt;Node6 -->
<g id="edge5_Node000002_Node000006" class="edge">
<title>Node2&#45;&gt;Node6</title>
<g id="a_edge5_Node000002_Node000006"><a xlink:title=" ">
<path fill="none" stroke="#63b8ff" d="M222.82,-48C230.41,-48 238.48,-48 246.61,-48"/>
<polygon fill="#63b8ff" stroke="#63b8ff" points="246.6,-51.5 256.6,-48 246.6,-44.5 246.6,-51.5"/>
</a>
</g>
</g>
<!-- Node8 -->
<g id="Node000008" class="node">
<title>Node8</title>
<g id="a_Node000008"><a xlink:href="class_spaceship.html#a6b2ffa8e8b3c93c9132958d47436c6b8" target="_top" xlink:title="Resets the spaceship&#39;s state to &quot;alive.&quot;.">
<polygon fill="white" stroke="#666666" points="369.75,-20 275.75,-20 275.75,0 369.75,0 369.75,-20"/>
<text text-anchor="middle" x="322.75" y="-6.5" font-family="Helvetica,sans-Serif" font-size="10.00">Spaceship::Reset</text>
</a>
</g>
</g>
<!-- Node2&#45;&gt;Node8 -->
<g id="edge8_Node000002_Node000008" class="edge">
<title>Node2&#45;&gt;Node8</title>
<g id="a_edge8_Node000002_Node000008"><a xlink:title=" ">
<path fill="none" stroke="#63b8ff" d="M218.2,-37.52C234.77,-33.11 254.23,-27.94 271.79,-23.28"/>
<polygon fill="#63b8ff" stroke="#63b8ff" points="272.2,-26.79 280.96,-20.84 270.4,-20.02 272.2,-26.79"/>
</a>
</g>
</g>
<!-- Node4 -->
<g id="Node000004" class="node">
<title>Node4</title>
<g id="a_Node000004"><a xlink:href="class_log.html#a0602808efc4b6a11f68f0c9ee2df135e" target="_top" xlink:title="Prints a plain text message with a given log level.">
<polygon fill="white" stroke="#666666" points="677.75,-78 619.75,-78 619.75,-58 677.75,-58 677.75,-78"/>
<text text-anchor="middle" x="648.75" y="-64.5" font-family="Helvetica,sans-Serif" font-size="10.00">Log::Print</text>
</a>
</g>
</g>
<!-- Node3&#45;&gt;Node4 -->
<g id="edge3_Node000003_Node000004" class="edge">
<title>Node3&#45;&gt;Node4</title>
<g id="a_edge3_Node000003_Node000004"><a xlink:title=" ">
<path fill="none" stroke="#63b8ff" d="M572.7,-79.52C584.78,-77.66 596.98,-75.79 607.94,-74.11"/>
<polygon fill="#63b8ff" stroke="#63b8ff" points="608.42,-77.58 617.78,-72.6 607.36,-70.66 608.42,-77.58"/>
</a>
</g>
</g>
<!-- Node5 -->
<g id="Node000005" class="node">
<title>Node5</title>
<g id="a_Node000005"><a xlink:href="class_log.html#a758948f266c4aa6fabbf9b172a018d43" target="_top" xlink:title="Returns the string representation of a log level.">
<polygon fill="white" stroke="#666666" points="806.25,-78 713.75,-78 713.75,-58 806.25,-58 806.25,-78"/>
<text text-anchor="middle" x="760" y="-64.5" font-family="Helvetica,sans-Serif" font-size="10.00">Log::GetLogLevel</text>
</a>
</g>
</g>
<!-- Node4&#45;&gt;Node5 -->
<g id="edge4_Node000004_Node000005" class="edge">
<title>Node4&#45;&gt;Node5</title>
<g id="a_edge4_Node000004_Node000005"><a xlink:title=" ">
<path fill="none" stroke="#63b8ff" d="M678.17,-68C685.56,-68 693.79,-68 702.08,-68"/>
<polygon fill="#63b8ff" stroke="#63b8ff" points="701.86,-71.5 711.86,-68 701.86,-64.5 701.86,-71.5"/>
</a>
</g>
</g>
<!-- Node7 -->
<g id="Node000007" class="node">
<title>Node7</title>
<g id="a_Node000007"><a xlink:href="namespace_core_helper.html#a0609ff46cfcbe7d88492b38418267da5" target="_top" xlink:title="Loads a texture and assigns it to a sprite.">
<polygon fill="white" stroke="#666666" points="574.38,-62 432.38,-62 432.38,-30 574.38,-30 574.38,-62"/>
<text text-anchor="start" x="440.38" y="-48.5" font-family="Helvetica,sans-Serif" font-size="10.00">CoreHelper::LoadTextureAnd</text>
<text text-anchor="middle" x="503.38" y="-36.5" font-family="Helvetica,sans-Serif" font-size="10.00">Sprite</text>
</a>
</g>
</g>
<!-- Node6&#45;&gt;Node7 -->
<g id="edge6_Node000006_Node000007" class="edge">
<title>Node6&#45;&gt;Node7</title>
<g id="a_edge6_Node000006_Node000007"><a xlink:title=" ">
<path fill="none" stroke="#63b8ff" d="M387.48,-47.29C398.19,-47.17 409.43,-47.04 420.52,-46.92"/>
<polygon fill="#63b8ff" stroke="#63b8ff" points="420.52,-50.42 430.48,-46.8 420.44,-43.42 420.52,-50.42"/>
</a>
</g>
</g>
<!-- Node7&#45;&gt;Node4 -->
<g id="edge7_Node000007_Node000004" class="edge">
<title>Node7&#45;&gt;Node4</title>
<g id="a_edge7_Node000007_Node000004"><a xlink:title=" ">
<path fill="none" stroke="#63b8ff" d="M574.8,-56.81C586.33,-58.58 597.9,-60.35 608.32,-61.95"/>
<polygon fill="#63b8ff" stroke="#63b8ff" points="607.62,-65.38 618.03,-63.44 608.68,-58.46 607.62,-65.38"/>
</a>
</g>
</g>
</g>
</svg>
