<?xml version="1.0" encoding="UTF-8" standalone="no"?>
<!DOCTYPE svg PUBLIC "-//W3C//DTD SVG 1.1//EN"
 "http://www.w3.org/Graphics/SVG/1.1/DTD/svg11.dtd">
<!-- Generated by graphviz version 12.2.0 (20241103.1931)
 -->
<!-- Title: LevelOne::UpdateLevelText Pages: 1 -->
<svg width="521pt" height="28pt"
 viewBox="0.00 0.00 520.50 28.00" xmlns="http://www.w3.org/2000/svg" xmlns:xlink="http://www.w3.org/1999/xlink">
<g id="graph0" class="graph" transform="scale(1 1) rotate(0) translate(4 24)">
<title>LevelOne::UpdateLevelText</title>
<!-- Node1 -->
<g id="Node000001" class="node">
<title>Node1</title>
<g id="a_Node000001"><a xlink:title="Updates the level&#45;related UI text, such as level name and lives count.">
<polygon fill="#999999" stroke="#666666" points="136.75,-20 0,-20 0,0 136.75,0 136.75,-20"/>
<text text-anchor="middle" x="68.38" y="-6.5" font-family="Helvetica,sans-Serif" font-size="10.00">LevelOne::UpdateLevelText</text>
</a>
</g>
</g>
<!-- Node2 -->
<g id="Node000002" class="node">
<title>Node2</title>
<g id="a_Node000002"><a xlink:href="class_scene_manager.html#a923a348879950dfdeba731f5fbcaf731" target="_top" xlink:title="Switches the currently active scene.">
<polygon fill="white" stroke="#666666" points="290,-20 172.75,-20 172.75,0 290,0 290,-20"/>
<text text-anchor="middle" x="231.38" y="-6.5" font-family="Helvetica,sans-Serif" font-size="10.00">SceneManager::Switch</text>
</a>
</g>
</g>
<!-- Node1&#45;&gt;Node2 -->
<g id="edge1_Node000001_Node000002" class="edge">
<title>Node1&#45;&gt;Node2</title>
<g id="a_edge1_Node000001_Node000002"><a xlink:title=" ">
<path fill="none" stroke="#63b8ff" d="M137.19,-10C145.04,-10 153.06,-10 160.93,-10"/>
<polygon fill="#63b8ff" stroke="#63b8ff" points="160.82,-13.5 170.81,-10 160.81,-6.5 160.82,-13.5"/>
</a>
</g>
</g>
<!-- Node3 -->
<g id="Node000003" class="node">
<title>Node3</title>
<g id="a_Node000003"><a xlink:href="class_log.html#a0602808efc4b6a11f68f0c9ee2df135e" target="_top" xlink:title="Prints a plain text message with a given log level.">
<polygon fill="white" stroke="#666666" points="384,-20 326,-20 326,0 384,0 384,-20"/>
<text text-anchor="middle" x="355" y="-6.5" font-family="Helvetica,sans-Serif" font-size="10.00">Log::Print</text>
</a>
</g>
</g>
<!-- Node2&#45;&gt;Node3 -->
<g id="edge2_Node000002_Node000003" class="edge">
<title>Node2&#45;&gt;Node3</title>
<g id="a_edge2_Node000002_Node000003"><a xlink:title=" ">
<path fill="none" stroke="#63b8ff" d="M290.34,-10C298.37,-10 306.46,-10 314.07,-10"/>
<polygon fill="#63b8ff" stroke="#63b8ff" points="314.01,-13.5 324.01,-10 314.01,-6.5 314.01,-13.5"/>
</a>
</g>
</g>
<!-- Node4 -->
<g id="Node000004" class="node">
<title>Node4</title>
<g id="a_Node000004"><a xlink:href="class_log.html#a758948f266c4aa6fabbf9b172a018d43" target="_top" xlink:title="Returns the string representation of a log level.">
<polygon fill="white" stroke="#666666" points="512.5,-20 420,-20 420,0 512.5,0 512.5,-20"/>
<text text-anchor="middle" x="466.25" y="-6.5" font-family="Helvetica,sans-Serif" font-size="10.00">Log::GetLogLevel</text>
</a>
</g>
</g>
<!-- Node3&#45;&gt;Node4 -->
<g id="edge3_Node000003_Node000004" class="edge">
<title>Node3&#45;&gt;Node4</title>
<g id="a_edge3_Node000003_Node000004"><a xlink:title=" ">
<path fill="none" stroke="#63b8ff" d="M384.42,-10C391.81,-10 400.04,-10 408.33,-10"/>
<polygon fill="#63b8ff" stroke="#63b8ff" points="408.11,-13.5 418.11,-10 408.11,-6.5 408.11,-13.5"/>
</a>
</g>
</g>
</g>
</svg>
