<?xml version="1.0" encoding="UTF-8" standalone="no"?>
<!DOCTYPE svg PUBLIC "-//W3C//DTD SVG 1.1//EN"
 "http://www.w3.org/Graphics/SVG/1.1/DTD/svg11.dtd">
<!-- Generated by graphviz version 12.2.0 (20241103.1931)
 -->
<!-- Title: LevelOne::CheckAndResolveCollisions Pages: 1 -->
<svg width="485pt" height="141pt"
 viewBox="0.00 0.00 485.00 141.00" xmlns="http://www.w3.org/2000/svg" xmlns:xlink="http://www.w3.org/1999/xlink">

<svg id="main" version="1.1" xmlns="http://www.w3.org/2000/svg" xmlns:xlink="http://www.w3.org/1999/xlink" xml:space="preserve">

<style type="text/css"><![CDATA[
.node, .edge {opacity: 0.7;}
.node.selected, .edge.selected {opacity: 1;}
.edge:hover path { stroke: red; }
.edge:hover polygon { stroke: red; fill: red; }
]]></style>
<script type="application/ecmascript" xlink:href="svg.min.js"/>
<svg id="graph" class="graph">
<g id="graph0" class="graph" transform="scale(1 1) rotate(0) translate(4 137)">
<title>LevelOne::CheckAndResolveCollisions</title>
<!-- Node1 -->
<g id="Node000001" class="node">
<title>Node1</title>
<g id="a_Node000001"><a xlink:title="Checks and resolves collisions between the spaceship and enemies.">
<polygon fill="#999999" stroke="#666666" points="145,-89 0,-89 0,-57 145,-57 145,-89"/>
<text text-anchor="start" x="8" y="-75.5" font-family="Helvetica,sans-Serif" font-size="10.00">LevelOne::CheckAndResolve</text>
<text text-anchor="middle" x="72.5" y="-63.5" font-family="Helvetica,sans-Serif" font-size="10.00">Collisions</text>
</a>
</g>
</g>
<!-- Node2 -->
<g id="Node000002" class="node">
<title>Node2</title>
<g id="a_Node000002"><a xlink:href="namespace_gameplay_utility.html#af2f86a3f5aad8dd1baf691129c62854b" target="_top" xlink:title="Checks for collisions between projectiles and enemies.">
<polygon fill="white" stroke="#666666" points="332,-133 181,-133 181,-101 332,-101 332,-133"/>
<text text-anchor="start" x="189" y="-119.5" font-family="Helvetica,sans-Serif" font-size="10.00">GameplayUtility::CheckEnemy</text>
<text text-anchor="middle" x="256.5" y="-107.5" font-family="Helvetica,sans-Serif" font-size="10.00">Collision</text>
</a>
</g>
</g>
<!-- Node1&#45;&gt;Node2 -->
<g id="edge1_Node000001_Node000002" class="edge">
<title>Node1&#45;&gt;Node2</title>
<g id="a_edge1_Node000001_Node000002"><a xlink:title=" ">
<path fill="none" stroke="#63b8ff" d="M141.53,-89.45C152.85,-92.18 164.68,-95.04 176.26,-97.84"/>
<polygon fill="#63b8ff" stroke="#63b8ff" points="175.24,-101.2 185.78,-100.14 176.88,-94.39 175.24,-101.2"/>
</a>
</g>
</g>
<!-- Node3 -->
<g id="Node000003" class="node">
<title>Node3</title>
<g id="a_Node000003"><a xlink:href="class_spaceship.html#a0d3e300dc2814aea1f7c0f8127466087" target="_top" xlink:title="Gets the list of projectiles currently fired by the spaceship.">
<polygon fill="white" stroke="#666666" points="321.12,-83 191.88,-83 191.88,-63 321.12,-63 321.12,-83"/>
<text text-anchor="middle" x="256.5" y="-69.5" font-family="Helvetica,sans-Serif" font-size="10.00">Spaceship::GetProjectiles</text>
</a>
</g>
</g>
<!-- Node1&#45;&gt;Node3 -->
<g id="edge2_Node000001_Node000003" class="edge">
<title>Node1&#45;&gt;Node3</title>
<g id="a_edge2_Node000001_Node000003"><a xlink:title=" ">
<path fill="none" stroke="#63b8ff" d="M145.43,-73C156.83,-73 168.65,-73 180.13,-73"/>
<polygon fill="#63b8ff" stroke="#63b8ff" points="179.95,-76.5 189.95,-73 179.95,-69.5 179.95,-76.5"/>
</a>
</g>
</g>
<!-- Node4 -->
<g id="Node000004" class="node">
<title>Node4</title>
<g id="a_Node000004"><a xlink:href="namespace_gameplay_utility.html#a019f2cb298967e143d649e5137672a86" target="_top" xlink:title="Checks if any cow projectiles hit the spaceship.">
<polygon fill="white" stroke="#666666" points="326.75,-45 186.25,-45 186.25,-13 326.75,-13 326.75,-45"/>
<text text-anchor="start" x="194.25" y="-31.5" font-family="Helvetica,sans-Serif" font-size="10.00">GameplayUtility::HasEnemy</text>
<text text-anchor="middle" x="256.5" y="-19.5" font-family="Helvetica,sans-Serif" font-size="10.00">ProjectileHitSpaceship</text>
</a>
</g>
</g>
<!-- Node1&#45;&gt;Node4 -->
<g id="edge3_Node000001_Node000004" class="edge">
<title>Node1&#45;&gt;Node4</title>
<g id="a_edge3_Node000001_Node000004"><a xlink:title=" ">
<path fill="none" stroke="#63b8ff" d="M141.53,-56.55C152.85,-53.82 164.68,-50.96 176.26,-48.16"/>
<polygon fill="#63b8ff" stroke="#63b8ff" points="176.88,-51.61 185.78,-45.86 175.24,-44.8 176.88,-51.61"/>
</a>
</g>
</g>
<!-- Node5 -->
<g id="Node000005" class="node">
<title>Node5</title>
<g id="a_Node000005"><a xlink:href="class_spaceship.html#a0b67cc4317b4bc2b0c759e3f3621cc97" target="_top" xlink:title="Gets the spaceship&#39;s sprite.">
<polygon fill="white" stroke="#666666" points="477,-58 368,-58 368,-38 477,-38 477,-58"/>
<text text-anchor="middle" x="422.5" y="-44.5" font-family="Helvetica,sans-Serif" font-size="10.00">Spaceship::GetSprite</text>
</a>
</g>
</g>
<!-- Node4&#45;&gt;Node5 -->
<g id="edge4_Node000004_Node000005" class="edge">
<title>Node4&#45;&gt;Node5</title>
<g id="a_edge4_Node000004_Node000005"><a xlink:title=" ">
<path fill="none" stroke="#63b8ff" d="M327.05,-37.06C336.78,-38.18 346.74,-39.34 356.38,-40.46"/>
<polygon fill="#63b8ff" stroke="#63b8ff" points="355.67,-43.9 366.01,-41.57 356.48,-36.94 355.67,-43.9"/>
</a>
</g>
</g>
<!-- Node6 -->
<g id="Node000006" class="node">
<title>Node6</title>
<g id="a_Node000006"><a xlink:href="class_spaceship.html#a966d043a3d9502ddc700dc67c562de4d" target="_top" xlink:title="Handles the spaceship being hit by an enemy or obstacle.">
<polygon fill="white" stroke="#666666" points="469.12,-20 375.88,-20 375.88,0 469.12,0 469.12,-20"/>
<text text-anchor="middle" x="422.5" y="-6.5" font-family="Helvetica,sans-Serif" font-size="10.00">Spaceship::OnHit</text>
</a>
</g>
</g>
<!-- Node4&#45;&gt;Node6 -->
<g id="edge5_Node000004_Node000006" class="edge">
<title>Node4&#45;&gt;Node6</title>
<g id="a_edge5_Node000004_Node000006"><a xlink:title=" ">
<path fill="none" stroke="#63b8ff" d="M327.05,-20.94C339.49,-19.5 352.32,-18.02 364.36,-16.62"/>
<polygon fill="#63b8ff" stroke="#63b8ff" points="364.59,-20.12 374.12,-15.49 363.78,-13.16 364.59,-20.12"/>
</a>
</g>
</g>
</g>
</svg>
</svg>

<style type='text/css'>
<![CDATA[
[data-mouse-over-selected='false'] { opacity: 0.7; }
[data-mouse-over-selected='true']  { opacity: 1.0; }
]]>
</style>
<script type="application/ecmascript"><![CDATA[
document.addEventListener('DOMContentLoaded', (event) => {
  highlightEdges();
  highlightAdjacentNodes();
});
]]></script>
</svg>
