<?xml version="1.0" encoding="UTF-8" standalone="no"?>
<!DOCTYPE svg PUBLIC "-//W3C//DTD SVG 1.1//EN"
 "http://www.w3.org/Graphics/SVG/1.1/DTD/svg11.dtd">
<!-- Generated by graphviz version 12.2.0 (20241103.1931)
 -->
<!-- Title: GameInstance::Run Pages: 1 -->
<svg width="584pt" height="217pt"
 viewBox="0.00 0.00 584.25 216.52" xmlns="http://www.w3.org/2000/svg" xmlns:xlink="http://www.w3.org/1999/xlink">
<g id="graph0" class="graph" transform="scale(1 1) rotate(0) translate(4 212.52)">
<title>GameInstance::Run</title>
<!-- Node1 -->
<g id="Node000001" class="node">
<title>Node1</title>
<g id="a_Node000001"><a xlink:title="Starts the game loop and runs the game.">
<polygon fill="#999999" stroke="#666666" points="103.75,-113.52 0,-113.52 0,-93.52 103.75,-93.52 103.75,-113.52"/>
<text text-anchor="middle" x="51.88" y="-100.02" font-family="Helvetica,sans-Serif" font-size="10.00">GameInstance::Run</text>
</a>
</g>
</g>
<!-- Node2 -->
<g id="Node000002" class="node">
<title>Node2</title>
<g id="a_Node000002"><a xlink:href="class_game_instance.html#a11189b5aa4b25b17b2ec554eca8a1d1c" target="_top" xlink:title="Draws the game objects to the window.">
<polygon fill="white" stroke="#666666" points="265.25,-208.52 156.25,-208.52 156.25,-188.52 265.25,-188.52 265.25,-208.52"/>
<text text-anchor="middle" x="210.75" y="-195.02" font-family="Helvetica,sans-Serif" font-size="10.00">GameInstance::Draw</text>
</a>
</g>
</g>
<!-- Node1&#45;&gt;Node2 -->
<g id="edge1_Node000001_Node000002" class="edge">
<title>Node1&#45;&gt;Node2</title>
<g id="a_edge1_Node000001_Node000002"><a xlink:title=" ">
<path fill="none" stroke="#63b8ff" d="M62.94,-113.82C78.27,-128.98 108.94,-157.38 139.75,-174.52 146.24,-178.13 153.36,-181.33 160.5,-184.13"/>
<polygon fill="#63b8ff" stroke="#63b8ff" points="159.26,-187.4 169.86,-187.54 161.66,-180.82 159.26,-187.4"/>
</a>
</g>
</g>
<!-- Node4 -->
<g id="Node000004" class="node">
<title>Node4</title>
<g id="a_Node000004"><a xlink:href="class_cursor.html#a63a9f41bc993fa26d7b897bed958109d" target="_top" xlink:title="Retrieve the singleton instance of the Cursor class.">
<polygon fill="white" stroke="#666666" points="568.38,-75.52 501.38,-75.52 501.38,-55.52 568.38,-55.52 568.38,-75.52"/>
<text text-anchor="middle" x="534.88" y="-62.02" font-family="Helvetica,sans-Serif" font-size="10.00">Cursor::Get</text>
</a>
</g>
</g>
<!-- Node1&#45;&gt;Node4 -->
<g id="edge3_Node000001_Node000004" class="edge">
<title>Node1&#45;&gt;Node4</title>
<g id="a_edge3_Node000001_Node000004"><a xlink:title=" ">
<path fill="none" stroke="#63b8ff" d="M70.78,-113.98C87.85,-123.3 114.61,-136.26 139.75,-141.52 278.97,-170.63 323.29,-150.59 457.5,-103.52 474.21,-97.66 491.96,-88.99 506.14,-81.41"/>
<polygon fill="#63b8ff" stroke="#63b8ff" points="507.8,-84.49 514.89,-76.61 504.44,-78.35 507.8,-84.49"/>
</a>
</g>
</g>
<!-- Node5 -->
<g id="Node000005" class="node">
<title>Node5</title>
<g id="a_Node000005"><a xlink:href="class_game_instance.html#a782ce33b89f46c92d9f85b63cc10babd" target="_top" xlink:title="Handles window events.">
<polygon fill="white" stroke="#666666" points="281.75,-132.52 139.75,-132.52 139.75,-112.52 281.75,-112.52 281.75,-132.52"/>
<text text-anchor="middle" x="210.75" y="-119.02" font-family="Helvetica,sans-Serif" font-size="10.00">GameInstance::HandleEvent</text>
</a>
</g>
</g>
<!-- Node1&#45;&gt;Node5 -->
<g id="edge4_Node000001_Node000005" class="edge">
<title>Node1&#45;&gt;Node5</title>
<g id="a_edge4_Node000001_Node000005"><a xlink:title=" ">
<path fill="none" stroke="#63b8ff" d="M104.24,-109.74C111.98,-110.68 120.12,-111.66 128.31,-112.66"/>
<polygon fill="#63b8ff" stroke="#63b8ff" points="127.61,-116.1 137.96,-113.82 128.46,-109.15 127.61,-116.1"/>
</a>
</g>
</g>
<!-- Node6 -->
<g id="Node000006" class="node">
<title>Node6</title>
<g id="a_Node000006"><a xlink:href="class_game_instance.html#a3de6d5da975ab0f53c1b4b96cb035893" target="_top" xlink:title="Handles player input.">
<polygon fill="white" stroke="#666666" points="279.88,-94.52 141.62,-94.52 141.62,-74.52 279.88,-74.52 279.88,-94.52"/>
<text text-anchor="middle" x="210.75" y="-81.02" font-family="Helvetica,sans-Serif" font-size="10.00">GameInstance::HandleInput</text>
</a>
</g>
</g>
<!-- Node1&#45;&gt;Node6 -->
<g id="edge5_Node000001_Node000006" class="edge">
<title>Node1&#45;&gt;Node6</title>
<g id="a_edge5_Node000001_Node000006"><a xlink:title=" ">
<path fill="none" stroke="#63b8ff" d="M104.24,-97.3C112.44,-96.3 121.09,-95.26 129.77,-94.21"/>
<polygon fill="#63b8ff" stroke="#63b8ff" points="130.15,-97.69 139.65,-93.01 129.31,-90.74 130.15,-97.69"/>
</a>
</g>
</g>
<!-- Node8 -->
<g id="Node000008" class="node">
<title>Node8</title>
<g id="a_Node000008"><a xlink:href="class_cursor.html#a0d5032e03907b8374630fdf3494558d7" target="_top" xlink:title="Update the cursor&#39;s internal state.">
<polygon fill="white" stroke="#666666" points="576.25,-37.52 493.5,-37.52 493.5,-17.52 576.25,-17.52 576.25,-37.52"/>
<text text-anchor="middle" x="534.88" y="-24.02" font-family="Helvetica,sans-Serif" font-size="10.00">Cursor::Update</text>
</a>
</g>
</g>
<!-- Node1&#45;&gt;Node8 -->
<g id="edge7_Node000001_Node000008" class="edge">
<title>Node1&#45;&gt;Node8</title>
<g id="a_edge7_Node000001_Node000008"><a xlink:title=" ">
<path fill="none" stroke="#63b8ff" d="M60.54,-93.09C74.16,-75.54 104.48,-40.77 139.75,-27.52 255.75,16.06 404.86,-2.02 482.19,-16.33"/>
<polygon fill="#63b8ff" stroke="#63b8ff" points="481.1,-19.68 491.57,-18.12 482.41,-12.81 481.1,-19.68"/>
</a>
</g>
</g>
<!-- Node9 -->
<g id="Node000009" class="node">
<title>Node9</title>
<g id="a_Node000009"><a xlink:href="class_game_instance.html#a422f52b6d9640ba39cf47f80fff28f76" target="_top" xlink:title="Updates the game logic.">
<polygon fill="white" stroke="#666666" points="269.38,-56.52 152.12,-56.52 152.12,-36.52 269.38,-36.52 269.38,-56.52"/>
<text text-anchor="middle" x="210.75" y="-43.02" font-family="Helvetica,sans-Serif" font-size="10.00">GameInstance::Update</text>
</a>
</g>
</g>
<!-- Node1&#45;&gt;Node9 -->
<g id="edge8_Node000001_Node000009" class="edge">
<title>Node1&#45;&gt;Node9</title>
<g id="a_edge8_Node000001_Node000009"><a xlink:title=" ">
<path fill="none" stroke="#63b8ff" d="M74.3,-93.09C91.67,-84.9 116.93,-73.56 139.75,-65.52 145.11,-63.63 150.75,-61.82 156.41,-60.12"/>
<polygon fill="#63b8ff" stroke="#63b8ff" points="157.16,-63.54 165.79,-57.4 155.21,-56.82 157.16,-63.54"/>
</a>
</g>
</g>
<!-- Node3 -->
<g id="Node000003" class="node">
<title>Node3</title>
<g id="a_Node000003"><a xlink:href="class_scene_manager.html#a1991078e3f864e043c82d480959fc733" target="_top" xlink:title="Draws the currently active scene.">
<polygon fill="white" stroke="#666666" points="442.88,-208.52 332.38,-208.52 332.38,-188.52 442.88,-188.52 442.88,-208.52"/>
<text text-anchor="middle" x="387.62" y="-195.02" font-family="Helvetica,sans-Serif" font-size="10.00">SceneManager::Draw</text>
</a>
</g>
</g>
<!-- Node2&#45;&gt;Node3 -->
<g id="edge2_Node000002_Node000003" class="edge">
<title>Node2&#45;&gt;Node3</title>
<g id="a_edge2_Node000002_Node000003"><a xlink:title=" ">
<path fill="none" stroke="#63b8ff" d="M265.65,-198.52C283.02,-198.52 302.47,-198.52 320.61,-198.52"/>
<polygon fill="#63b8ff" stroke="#63b8ff" points="320.49,-202.02 330.49,-198.52 320.49,-195.02 320.49,-202.02"/>
</a>
</g>
</g>
<!-- Node7 -->
<g id="Node000007" class="node">
<title>Node7</title>
<g id="a_Node000007"><a xlink:href="class_scene_manager.html#ab3e6ef346009802e1ed1ee24ce56aeb3" target="_top" xlink:title="Handles input for the active scene.">
<polygon fill="white" stroke="#666666" points="457.5,-94.52 317.75,-94.52 317.75,-74.52 457.5,-74.52 457.5,-94.52"/>
<text text-anchor="middle" x="387.62" y="-81.02" font-family="Helvetica,sans-Serif" font-size="10.00">SceneManager::HandleInput</text>
</a>
</g>
</g>
<!-- Node6&#45;&gt;Node7 -->
<g id="edge6_Node000006_Node000007" class="edge">
<title>Node6&#45;&gt;Node7</title>
<g id="a_edge6_Node000006_Node000007"><a xlink:title=" ">
<path fill="none" stroke="#63b8ff" d="M280.36,-84.52C288.81,-84.52 297.51,-84.52 306.11,-84.52"/>
<polygon fill="#63b8ff" stroke="#63b8ff" points="305.83,-88.02 315.83,-84.52 305.83,-81.02 305.83,-88.02"/>
</a>
</g>
</g>
<!-- Node10 -->
<g id="Node000010" class="node">
<title>Node10</title>
<g id="a_Node000010"><a xlink:href="class_scene_manager.html#adbede64d5706507e65f0e9dd0eaddd6b" target="_top" xlink:title="Updates the currently active scene.">
<polygon fill="white" stroke="#666666" points="447,-56.52 328.25,-56.52 328.25,-36.52 447,-36.52 447,-56.52"/>
<text text-anchor="middle" x="387.62" y="-43.02" font-family="Helvetica,sans-Serif" font-size="10.00">SceneManager::Update</text>
</a>
</g>
</g>
<!-- Node9&#45;&gt;Node10 -->
<g id="edge9_Node000009_Node000010" class="edge">
<title>Node9&#45;&gt;Node10</title>
<g id="a_edge9_Node000009_Node000010"><a xlink:title=" ">
<path fill="none" stroke="#63b8ff" d="M269.5,-46.52C284.63,-46.52 301.1,-46.52 316.79,-46.52"/>
<polygon fill="#63b8ff" stroke="#63b8ff" points="316.53,-50.02 326.53,-46.52 316.53,-43.02 316.53,-50.02"/>
</a>
</g>
</g>
<!-- Node10&#45;&gt;Node4 -->
<g id="edge10_Node000010_Node000004" class="edge">
<title>Node10&#45;&gt;Node4</title>
<g id="a_edge10_Node000010_Node000004"><a xlink:title=" ">
<path fill="none" stroke="#63b8ff" d="M447.29,-54.19C461.41,-56.04 476.27,-57.98 489.62,-59.73"/>
<polygon fill="#63b8ff" stroke="#63b8ff" points="489.03,-63.18 499.4,-61.01 489.94,-56.24 489.03,-63.18"/>
</a>
</g>
</g>
<!-- Node10&#45;&gt;Node8 -->
<g id="edge11_Node000010_Node000008" class="edge">
<title>Node10&#45;&gt;Node8</title>
<g id="a_edge11_Node000010_Node000008"><a xlink:title=" ">
<path fill="none" stroke="#63b8ff" d="M447.29,-38.85C458.74,-37.35 470.67,-35.79 481.89,-34.32"/>
<polygon fill="#63b8ff" stroke="#63b8ff" points="482.31,-37.79 491.77,-33.03 481.4,-30.85 482.31,-37.79"/>
</a>
</g>
</g>
</g>
</svg>
