<?xml version="1.0" encoding="UTF-8" standalone="no"?>
<!DOCTYPE svg PUBLIC "-//W3C//DTD SVG 1.1//EN"
 "http://www.w3.org/Graphics/SVG/1.1/DTD/svg11.dtd">
<!-- Generated by graphviz version 12.2.0 (20241103.1931)
 -->
<!-- Title: SceneManager::PrintStates Pages: 1 -->
<svg width="367pt" height="28pt"
 viewBox="0.00 0.00 366.50 28.00" xmlns="http://www.w3.org/2000/svg" xmlns:xlink="http://www.w3.org/1999/xlink">
<g id="graph0" class="graph" transform="scale(1 1) rotate(0) translate(4 24)">
<title>SceneManager::PrintStates</title>
<!-- Node1 -->
<g id="Node000001" class="node">
<title>Node1</title>
<g id="a_Node000001"><a xlink:title="Prints all currently stored scene IDs.">
<polygon fill="#999999" stroke="#666666" points="136,-20 0,-20 0,0 136,0 136,-20"/>
<text text-anchor="middle" x="68" y="-6.5" font-family="Helvetica,sans-Serif" font-size="10.00">SceneManager::PrintStates</text>
</a>
</g>
</g>
<!-- Node2 -->
<g id="Node000002" class="node">
<title>Node2</title>
<g id="a_Node000002"><a xlink:href="class_log.html#a0602808efc4b6a11f68f0c9ee2df135e" target="_top" xlink:title="Prints a plain text message with a given log level.">
<polygon fill="white" stroke="#666666" points="230,-20 172,-20 172,0 230,0 230,-20"/>
<text text-anchor="middle" x="201" y="-6.5" font-family="Helvetica,sans-Serif" font-size="10.00">Log::Print</text>
</a>
</g>
</g>
<!-- Node1&#45;&gt;Node2 -->
<g id="edge1_Node000001_Node000002" class="edge">
<title>Node1&#45;&gt;Node2</title>
<g id="a_edge1_Node000001_Node000002"><a xlink:title=" ">
<path fill="none" stroke="#63b8ff" d="M136.42,-10C144.56,-10 152.67,-10 160.23,-10"/>
<polygon fill="#63b8ff" stroke="#63b8ff" points="160.08,-13.5 170.08,-10 160.08,-6.5 160.08,-13.5"/>
</a>
</g>
</g>
<!-- Node3 -->
<g id="Node000003" class="node">
<title>Node3</title>
<g id="a_Node000003"><a xlink:href="class_log.html#a758948f266c4aa6fabbf9b172a018d43" target="_top" xlink:title="Returns the string representation of a log level.">
<polygon fill="white" stroke="#666666" points="358.5,-20 266,-20 266,0 358.5,0 358.5,-20"/>
<text text-anchor="middle" x="312.25" y="-6.5" font-family="Helvetica,sans-Serif" font-size="10.00">Log::GetLogLevel</text>
</a>
</g>
</g>
<!-- Node2&#45;&gt;Node3 -->
<g id="edge2_Node000002_Node000003" class="edge">
<title>Node2&#45;&gt;Node3</title>
<g id="a_edge2_Node000002_Node000003"><a xlink:title=" ">
<path fill="none" stroke="#63b8ff" d="M230.42,-10C237.81,-10 246.04,-10 254.33,-10"/>
<polygon fill="#63b8ff" stroke="#63b8ff" points="254.11,-13.5 264.11,-10 254.11,-6.5 254.11,-13.5"/>
</a>
</g>
</g>
</g>
</svg>
