<?xml version="1.0" encoding="UTF-8" standalone="no"?>
<!DOCTYPE svg PUBLIC "-//W3C//DTD SVG 1.1//EN"
 "http://www.w3.org/Graphics/SVG/1.1/DTD/svg11.dtd">
<!-- Generated by graphviz version 12.2.0 (20241103.1931)
 -->
<!-- Title: Spaceship::OnHit Pages: 1 -->
<svg width="590pt" height="40pt"
 viewBox="0.00 0.00 589.50 40.00" xmlns="http://www.w3.org/2000/svg" xmlns:xlink="http://www.w3.org/1999/xlink">
<g id="graph0" class="graph" transform="scale(1 1) rotate(0) translate(4 36)">
<title>Spaceship::OnHit</title>
<!-- Node1 -->
<g id="Node000001" class="node">
<title>Node1</title>
<g id="a_Node000001"><a xlink:title="Handles the spaceship being hit by an enemy or obstacle.">
<polygon fill="#999999" stroke="#666666" points="581.5,-26 488.25,-26 488.25,-6 581.5,-6 581.5,-26"/>
<text text-anchor="middle" x="534.88" y="-12.5" font-family="Helvetica,sans-Serif" font-size="10.00">Spaceship::OnHit</text>
</a>
</g>
</g>
<!-- Node2 -->
<g id="Node000002" class="node">
<title>Node2</title>
<g id="a_Node000002"><a xlink:href="namespace_gameplay_utility.html#a019f2cb298967e143d649e5137672a86" target="_top" xlink:title="Checks if any cow projectiles hit the spaceship.">
<polygon fill="white" stroke="#666666" points="452.25,-32 311.75,-32 311.75,0 452.25,0 452.25,-32"/>
<text text-anchor="start" x="319.75" y="-18.5" font-family="Helvetica,sans-Serif" font-size="10.00">GameplayUtility::HasEnemy</text>
<text text-anchor="middle" x="382" y="-6.5" font-family="Helvetica,sans-Serif" font-size="10.00">ProjectileHitSpaceship</text>
</a>
</g>
</g>
<!-- Node1&#45;&gt;Node2 -->
<g id="edge1_Node000001_Node000002" class="edge">
<title>Node1&#45;&gt;Node2</title>
<g id="a_edge1_Node000001_Node000002"><a xlink:title=" ">
<path fill="none" stroke="#63b8ff" d="M476.31,-16C468.59,-16 460.6,-16 452.7,-16"/>
<polygon fill="#63b8ff" stroke="#63b8ff" points="476.27,-19.5 486.27,-16 476.27,-12.5 476.27,-19.5"/>
</a>
</g>
</g>
<!-- Node3 -->
<g id="Node000003" class="node">
<title>Node3</title>
<g id="a_Node000003"><a xlink:href="class_level_one.html#aa9b2531fc298d7d9a5cdf0bd96456921" target="_top" xlink:title="Checks and resolves collisions between the spaceship and enemies.">
<polygon fill="white" stroke="#666666" points="275.75,-32 130.75,-32 130.75,0 275.75,0 275.75,-32"/>
<text text-anchor="start" x="138.75" y="-18.5" font-family="Helvetica,sans-Serif" font-size="10.00">LevelOne::CheckAndResolve</text>
<text text-anchor="middle" x="203.25" y="-6.5" font-family="Helvetica,sans-Serif" font-size="10.00">Collisions</text>
</a>
</g>
</g>
<!-- Node2&#45;&gt;Node3 -->
<g id="edge2_Node000002_Node000003" class="edge">
<title>Node2&#45;&gt;Node3</title>
<g id="a_edge2_Node000002_Node000003"><a xlink:title=" ">
<path fill="none" stroke="#63b8ff" d="M300.15,-16C292.13,-16 284.03,-16 276.11,-16"/>
<polygon fill="#63b8ff" stroke="#63b8ff" points="299.88,-19.5 309.88,-16 299.88,-12.5 299.88,-19.5"/>
</a>
</g>
</g>
<!-- Node4 -->
<g id="Node000004" class="node">
<title>Node4</title>
<g id="a_Node000004"><a xlink:href="class_level_one.html#ac5f4953425e9d335e735f1cde198a1fb" target="_top" xlink:title="Updates the level scene every frame.">
<polygon fill="white" stroke="#666666" points="94.75,-26 0,-26 0,-6 94.75,-6 94.75,-26"/>
<text text-anchor="middle" x="47.38" y="-12.5" font-family="Helvetica,sans-Serif" font-size="10.00">LevelOne::Update</text>
</a>
</g>
</g>
<!-- Node3&#45;&gt;Node4 -->
<g id="edge3_Node000003_Node000004" class="edge">
<title>Node3&#45;&gt;Node4</title>
<g id="a_edge3_Node000003_Node000004"><a xlink:title=" ">
<path fill="none" stroke="#63b8ff" d="M118.96,-16C110.69,-16 102.52,-16 94.83,-16"/>
<polygon fill="#63b8ff" stroke="#63b8ff" points="118.75,-19.5 128.75,-16 118.75,-12.5 118.75,-19.5"/>
</a>
</g>
</g>
</g>
</svg>
