<?xml version="1.0" encoding="UTF-8" standalone="no"?>
<!DOCTYPE svg PUBLIC "-//W3C//DTD SVG 1.1//EN"
 "http://www.w3.org/Graphics/SVG/1.1/DTD/svg11.dtd">
<!-- Generated by graphviz version 12.2.0 (20241103.1931)
 -->
<!-- Title: LevelOne::UpdateSpaceship Pages: 1 -->
<!--zoomable 154 -->

<svg id="main" version="1.1" xmlns="http://www.w3.org/2000/svg" xmlns:xlink="http://www.w3.org/1999/xlink" xml:space="preserve" onload="init(evt)">

<style type="text/css"><![CDATA[
.node, .edge {opacity: 0.7;}
.node.selected, .edge.selected {opacity: 1;}
.edge:hover path { stroke: red; }
.edge:hover polygon { stroke: red; fill: red; }
]]></style>

<defs>
  <circle id="rim" cx="0" cy="0" r="7"/>
  <circle id="rim2" cx="0" cy="0" r="3.5"/>
  <g id="zoomPlus">
    <use xlink:href="#rim" fill="#404040"><set attributeName="fill" to="#808080" begin="zoomplus.mouseover" end="zoomplus.mouseout"/></use>
    <path d="M-4,0h8M0,-4v8" fill="none" stroke="white" stroke-width="1.5" pointer-events="none"/>
  </g>
  <g id="zoomMin">
    <use xlink:href="#rim" fill="#404040"><set attributeName="fill" to="#808080" begin="zoomminus.mouseover" end="zoomminus.mouseout"/></use>
    <path d="M-4,0h8" fill="none" stroke="white" stroke-width="1.5" pointer-events="none"/>
  </g>
  <g id="arrowUp" transform="translate(30 24)">
    <use xlink:href="#rim"/>
    <path pointer-events="none" fill="none" stroke="white" stroke-width="1.5" d="M0,-3.0v7 M-2.5,-0.5L0,-3.0L2.5,-0.5"/>
  </g>
  <g id="arrowRight" transform="rotate(90) translate(36 -43)">
    <use xlink:href="#rim"/>
    <path pointer-events="none" fill="none" stroke="white" stroke-width="1.5" d="M0,-3.0v7 M-2.5,-0.5L0,-3.0L2.5,-0.5"/>
  </g>
  <g id="arrowDown" transform="rotate(180) translate(-30 -48)">
    <use xlink:href="#rim"/>
    <path pointer-events="none" fill="none" stroke="white" stroke-width="1.5" d="M0,-3.0v7 M-2.5,-0.5L0,-3.0L2.5,-0.5"/>
  </g>
  <g id="arrowLeft" transform="rotate(270) translate(-36 17)">
    <use xlink:href="#rim"/>
    <path pointer-events="none" fill="none" stroke="white" stroke-width="1.5" d="M0,-3.0v7 M-2.5,-0.5L0,-3.0L2.5,-0.5"/>
  </g>
  <g id="resetDef">
    <use xlink:href="#rim2" fill="#404040"><set attributeName="fill" to="#808080" begin="reset.mouseover" end="reset.mouseout"/></use>
  </g>
</defs>
<script type="application/ecmascript">
var viewWidth = 677;
var viewHeight = 154;
var sectionId = 'dynsection-27';
</script>
<script type="application/ecmascript" xlink:href="svg.min.js"/>
<svg id="graph" class="graph">
<g id="viewport">
<title>LevelOne::UpdateSpaceship</title>
<!-- Node1 -->
<g id="Node000001" class="node">
<title>Node1</title>
<g id="a_Node000001"><a xlink:title="Updates the spaceship position and actions.">
<polygon fill="#999999" stroke="#666666" points="140.5,-89 0,-89 0,-69 140.5,-69 140.5,-89"/>
<text text-anchor="middle" x="70.25" y="-75.5" font-family="Helvetica,sans-Serif" font-size="10.00">LevelOne::UpdateSpaceship</text>
</a>
</g>
</g>
<!-- Node2 -->
<g id="Node000002" class="node">
<title>Node2</title>
<g id="a_Node000002"><a xlink:href="class_spaceship.html#a5a1432606489e09a118be526dca09773" target="_top" xlink:title="Updates the spaceship&#39;s state and actions.">
<polygon fill="white" stroke="#666666" points="275.75,-89 176.5,-89 176.5,-69 275.75,-69 275.75,-89"/>
<text text-anchor="middle" x="226.12" y="-75.5" font-family="Helvetica,sans-Serif" font-size="10.00">Spaceship::Update</text>
</a>
</g>
</g>
<!-- Node1&#45;&gt;Node2 -->
<g id="edge1_Node000001_Node000002" class="edge">
<title>Node1&#45;&gt;Node2</title>
<g id="a_edge1_Node000001_Node000002"><a xlink:title=" ">
<path fill="none" stroke="#63b8ff" d="M140.98,-79C149,-79 157.12,-79 164.99,-79"/>
<polygon fill="#63b8ff" stroke="#63b8ff" points="164.79,-82.5 174.79,-79 164.79,-75.5 164.79,-82.5"/>
</a>
</g>
</g>
<!-- Node3 -->
<g id="Node000003" class="node">
<title>Node3</title>
<g id="a_Node000003"><a xlink:href="class_spaceship.html#a5281add3949841bea32a358ff41050ab" target="_top" xlink:title="Calculates and updates the spaceship&#39;s position based on the cursor&#39;s position.">
<polygon fill="white" stroke="#666666" points="469.5,-139 311.75,-139 311.75,-107 469.5,-107 469.5,-139"/>
<text text-anchor="start" x="319.75" y="-125.5" font-family="Helvetica,sans-Serif" font-size="10.00">Spaceship::CalculateAndUpdate</text>
<text text-anchor="middle" x="390.62" y="-113.5" font-family="Helvetica,sans-Serif" font-size="10.00">CursorPosition</text>
</a>
</g>
</g>
<!-- Node2&#45;&gt;Node3 -->
<g id="edge2_Node000002_Node000003" class="edge">
<title>Node2&#45;&gt;Node3</title>
<g id="a_edge2_Node000002_Node000003"><a xlink:title=" ">
<path fill="none" stroke="#63b8ff" d="M265.64,-89.43C281.26,-93.66 299.83,-98.69 317.78,-103.55"/>
<polygon fill="#63b8ff" stroke="#63b8ff" points="316.81,-106.91 327.38,-106.15 318.64,-100.15 316.81,-106.91"/>
</a>
</g>
</g>
<!-- Node4 -->
<g id="Node000004" class="node">
<title>Node4</title>
<g id="a_Node000004"><a xlink:href="class_spaceship.html#a005ba375099423cbfe0cbb402965cd35" target="_top" xlink:title="Handles the spaceship firing a projectile.">
<polygon fill="white" stroke="#666666" points="463.88,-89 317.38,-89 317.38,-69 463.88,-69 463.88,-89"/>
<text text-anchor="middle" x="390.62" y="-75.5" font-family="Helvetica,sans-Serif" font-size="10.00">Spaceship::OnProjectileShoot</text>
</a>
</g>
</g>
<!-- Node2&#45;&gt;Node4 -->
<g id="edge3_Node000002_Node000004" class="edge">
<title>Node2&#45;&gt;Node4</title>
<g id="a_edge3_Node000002_Node000004"><a xlink:title=" ">
<path fill="none" stroke="#63b8ff" d="M275.88,-79C285.32,-79 295.46,-79 305.66,-79"/>
<polygon fill="#63b8ff" stroke="#63b8ff" points="305.66,-82.5 315.66,-79 305.66,-75.5 305.66,-82.5"/>
</a>
</g>
</g>
<!-- Node8 -->
<g id="Node000008" class="node">
<title>Node8</title>
<g id="a_Node000008"><a xlink:href="class_spaceship.html#af39e32b6ac8fe12f1b8a752597640e87" target="_top" xlink:title="Updates the state of all projectiles fired by the spaceship.">
<polygon fill="white" stroke="#666666" points="463.12,-48 318.12,-48 318.12,-28 463.12,-28 463.12,-48"/>
<text text-anchor="middle" x="390.62" y="-34.5" font-family="Helvetica,sans-Serif" font-size="10.00">Spaceship::UpdateProjectiles</text>
</a>
</g>
</g>
<!-- Node2&#45;&gt;Node8 -->
<g id="edge7_Node000002_Node000008" class="edge">
<title>Node2&#45;&gt;Node8</title>
<g id="a_edge7_Node000002_Node000008"><a xlink:title=" ">
<path fill="none" stroke="#63b8ff" d="M268.55,-68.55C289.47,-63.27 315.06,-56.81 337.32,-51.2"/>
<polygon fill="#63b8ff" stroke="#63b8ff" points="337.97,-54.64 346.81,-48.8 336.25,-47.86 337.97,-54.64"/>
</a>
</g>
</g>
<!-- Node5 -->
<g id="Node000005" class="node">
<title>Node5</title>
<g id="a_Node000005"><a xlink:href="class_input_manager.html#a681afd1f90d84a1e29883592891c95dd" target="_top" xlink:title="Retrieves the singleton instance of the InputManager.">
<polygon fill="white" stroke="#666666" points="635.5,-146 538.5,-146 538.5,-126 635.5,-126 635.5,-146"/>
<text text-anchor="middle" x="587" y="-132.5" font-family="Helvetica,sans-Serif" font-size="10.00">InputManager::Get</text>
</a>
</g>
</g>
<!-- Node4&#45;&gt;Node5 -->
<g id="edge4_Node000004_Node000005" class="edge">
<title>Node4&#45;&gt;Node5</title>
<g id="a_edge4_Node000004_Node000005"><a xlink:title=" ">
<path fill="none" stroke="#63b8ff" d="M442.45,-89.48C451.58,-91.9 460.91,-94.74 469.5,-98 486.42,-104.41 488.56,-110.65 505.5,-117 512.38,-119.58 519.72,-121.88 527.06,-123.92"/>
<polygon fill="#63b8ff" stroke="#63b8ff" points="526.13,-127.3 536.69,-126.43 527.89,-120.52 526.13,-127.3"/>
</a>
</g>
</g>
<!-- Node6 -->
<g id="Node000006" class="node">
<title>Node6</title>
<g id="a_Node000006"><a xlink:href="class_sound_manager.html#a7da0a1dcb16734c22b4252a3a5fa11c4" target="_top" xlink:title="Plays the sound associated with the given name.">
<polygon fill="white" stroke="#666666" points="654.25,-108 519.75,-108 519.75,-88 654.25,-88 654.25,-108"/>
<text text-anchor="middle" x="587" y="-94.5" font-family="Helvetica,sans-Serif" font-size="10.00">SoundManager::PlaySound</text>
</a>
</g>
</g>
<!-- Node4&#45;&gt;Node6 -->
<g id="edge5_Node000004_Node000006" class="edge">
<title>Node4&#45;&gt;Node6</title>
<g id="a_edge5_Node000004_Node000006"><a xlink:title=" ">
<path fill="none" stroke="#63b8ff" d="M464.28,-86.1C478.57,-87.5 493.63,-88.97 508.08,-90.38"/>
<polygon fill="#63b8ff" stroke="#63b8ff" points="507.73,-93.87 518.02,-91.36 508.41,-86.9 507.73,-93.87"/>
</a>
</g>
</g>
<!-- Node7 -->
<g id="Node000007" class="node">
<title>Node7</title>
<g id="a_Node000007"><a xlink:href="namespace_gameplay_utility.html#ac927e2960c3edb516e0c839afe16428c" target="_top" xlink:title="Spawns a new projectile with the given properties.">
<polygon fill="white" stroke="#666666" points="668.12,-70 505.88,-70 505.88,-50 668.12,-50 668.12,-70"/>
<text text-anchor="middle" x="587" y="-56.5" font-family="Helvetica,sans-Serif" font-size="10.00">GameplayUtility::SpawnProjectile</text>
</a>
</g>
</g>
<!-- Node4&#45;&gt;Node7 -->
<g id="edge6_Node000004_Node000007" class="edge">
<title>Node4&#45;&gt;Node7</title>
<g id="a_edge6_Node000004_Node000007"><a xlink:title=" ">
<path fill="none" stroke="#63b8ff" d="M464.28,-71.9C474.07,-70.94 484.22,-69.95 494.29,-68.96"/>
<polygon fill="#63b8ff" stroke="#63b8ff" points="494.49,-72.46 504.1,-68.01 493.81,-65.5 494.49,-72.46"/>
</a>
</g>
</g>
<!-- Node9 -->
<g id="Node000009" class="node">
<title>Node9</title>
<g id="a_Node000009"><a xlink:href="namespace_gameplay_utility.html#a3558284331e73b20446925ae3c85e455" target="_top" xlink:title="Removes inactive projectiles from the game.">
<polygon fill="white" stroke="#666666" points="668.5,-32 505.5,-32 505.5,0 668.5,0 668.5,-32"/>
<text text-anchor="start" x="513.5" y="-18.5" font-family="Helvetica,sans-Serif" font-size="10.00">GameplayUtility::RemoveInactive</text>
<text text-anchor="middle" x="587" y="-6.5" font-family="Helvetica,sans-Serif" font-size="10.00">Projectiles</text>
</a>
</g>
</g>
<!-- Node8&#45;&gt;Node9 -->
<g id="edge8_Node000008_Node000009" class="edge">
<title>Node8&#45;&gt;Node9</title>
<g id="a_edge8_Node000008_Node000009"><a xlink:title=" ">
<path fill="none" stroke="#63b8ff" d="M463.45,-29.87C473.46,-28.74 483.85,-27.56 494.16,-26.39"/>
<polygon fill="#63b8ff" stroke="#63b8ff" points="494.25,-29.91 503.79,-25.3 493.46,-22.95 494.25,-29.91"/>
</a>
</g>
</g>
</g>
</svg>

<g id="navigator" transform="translate(0 0)" fill="#404254">
  <rect fill="#f2f5e9" fill-opacity="0.5" stroke="#606060" stroke-width=".5" x="0" y="0" width="60" height="60"/>
  <use id="zoomplus" xlink:href="#zoomPlus" x="17" y="9" onmousedown="handleZoom(evt,'in')"/>
  <use id="zoomminus" xlink:href="#zoomMin" x="42" y="9" onmousedown="handleZoom(evt,'out')"/>
  <use id="reset" xlink:href="#resetDef" x="30" y="36" onmousedown="handleReset()"/>
   <use id="arrowup" xlink:href="#arrowUp" x="0" y="0" onmousedown="handlePan(0,-1)"/>
  <use id="arrowright" xlink:href="#arrowRight" x="0" y="0" onmousedown="handlePan(1,0)"/>
  <use id="arrowdown" xlink:href="#arrowDown" x="0" y="0" onmousedown="handlePan(0,1)"/>
  <use id="arrowleft" xlink:href="#arrowLeft" x="0" y="0" onmousedown="handlePan(-1,0)"/>
</g>
<svg viewBox="0 0 15 15" width="100%" height="30px" preserveAspectRatio="xMaxYMin meet">
 <g id="arrow_out" transform="scale(0.3 0.3)">
  <a xlink:href="class_level_one_a9bd86c94bf7851dd1c230a0f7917c204_cgraph_org.svg" target="_base">
   <rect id="button" ry="5" rx="5" y="6" x="6" height="38" width="38"
        fill="#f2f5e9" fill-opacity="0.5" stroke="#606060" stroke-width="1.0"/>
   <path id="arrow"
     d="M 11.500037,31.436501 C 11.940474,20.09759 22.043105,11.32322 32.158766,21.979434 L 37.068811,17.246167 C 37.068811,17.246167 37.088388,32 37.088388,32 L 22.160133,31.978069 C 22.160133,31.978069 26.997745,27.140456 26.997745,27.140456 C 18.528582,18.264221 13.291696,25.230495 11.500037,31.436501 z"
     style="fill:#404040;"/>
  </a>
 </g>
</svg>

<style type='text/css'>
<![CDATA[
[data-mouse-over-selected='false'] { opacity: 0.7; }
[data-mouse-over-selected='true']  { opacity: 1.0; }
]]>
</style>
<script type="application/ecmascript"><![CDATA[
document.addEventListener('DOMContentLoaded', (event) => {
  highlightEdges();
  highlightAdjacentNodes();
});
]]></script>
</svg>
