<?xml version="1.0" encoding="UTF-8" standalone="no"?>
<!DOCTYPE svg PUBLIC "-//W3C//DTD SVG 1.1//EN"
 "http://www.w3.org/Graphics/SVG/1.1/DTD/svg11.dtd">
<!-- Generated by graphviz version 12.2.0 (20241103.1931)
 -->
<!-- Title: Credits::Update Pages: 1 -->
<svg width="469pt" height="66pt"
 viewBox="0.00 0.00 468.75 66.00" xmlns="http://www.w3.org/2000/svg" xmlns:xlink="http://www.w3.org/1999/xlink">
<g id="graph0" class="graph" transform="scale(1 1) rotate(0) translate(4 62)">
<title>Credits::Update</title>
<!-- Node1 -->
<g id="Node000001" class="node">
<title>Node1</title>
<g id="a_Node000001"><a xlink:title="Updates the scene logic.">
<polygon fill="#999999" stroke="#666666" points="85,-39 0,-39 0,-19 85,-19 85,-39"/>
<text text-anchor="middle" x="42.5" y="-25.5" font-family="Helvetica,sans-Serif" font-size="10.00">Credits::Update</text>
</a>
</g>
</g>
<!-- Node2 -->
<g id="Node000002" class="node">
<title>Node2</title>
<g id="a_Node000002"><a xlink:href="class_scene_manager.html#a923a348879950dfdeba731f5fbcaf731" target="_top" xlink:title="Switches the currently active scene.">
<polygon fill="white" stroke="#666666" points="238.25,-58 121,-58 121,-38 238.25,-38 238.25,-58"/>
<text text-anchor="middle" x="179.62" y="-44.5" font-family="Helvetica,sans-Serif" font-size="10.00">SceneManager::Switch</text>
</a>
</g>
</g>
<!-- Node1&#45;&gt;Node2 -->
<g id="edge1_Node000001_Node000002" class="edge">
<title>Node1&#45;&gt;Node2</title>
<g id="a_edge1_Node000001_Node000002"><a xlink:title=" ">
<path fill="none" stroke="#63b8ff" d="M85.14,-34.86C92.93,-35.95 101.25,-37.12 109.61,-38.3"/>
<polygon fill="#63b8ff" stroke="#63b8ff" points="109.08,-41.76 119.47,-39.68 110.06,-34.82 109.08,-41.76"/>
</a>
</g>
</g>
<!-- Node5 -->
<g id="Node000005" class="node">
<title>Node5</title>
<g id="a_Node000005"><a xlink:href="class_credits.html#a76cdbde40120c3106dc6658bf4d7553b" target="_top" xlink:title=" ">
<polygon fill="white" stroke="#666666" points="236.75,-20 122.5,-20 122.5,0 236.75,0 236.75,-20"/>
<text text-anchor="middle" x="179.62" y="-6.5" font-family="Helvetica,sans-Serif" font-size="10.00">Credits::UpdateCursor</text>
</a>
</g>
</g>
<!-- Node1&#45;&gt;Node5 -->
<g id="edge4_Node000001_Node000005" class="edge">
<title>Node1&#45;&gt;Node5</title>
<g id="a_edge4_Node000001_Node000005"><a xlink:title=" ">
<path fill="none" stroke="#63b8ff" d="M85.14,-23.14C93.43,-21.98 102.33,-20.73 111.23,-19.48"/>
<polygon fill="#63b8ff" stroke="#63b8ff" points="111.54,-22.97 120.95,-18.11 110.56,-16.04 111.54,-22.97"/>
</a>
</g>
</g>
<!-- Node3 -->
<g id="Node000003" class="node">
<title>Node3</title>
<g id="a_Node000003"><a xlink:href="class_log.html#a0602808efc4b6a11f68f0c9ee2df135e" target="_top" xlink:title="Prints a plain text message with a given log level.">
<polygon fill="white" stroke="#666666" points="332.25,-58 274.25,-58 274.25,-38 332.25,-38 332.25,-58"/>
<text text-anchor="middle" x="303.25" y="-44.5" font-family="Helvetica,sans-Serif" font-size="10.00">Log::Print</text>
</a>
</g>
</g>
<!-- Node2&#45;&gt;Node3 -->
<g id="edge2_Node000002_Node000003" class="edge">
<title>Node2&#45;&gt;Node3</title>
<g id="a_edge2_Node000002_Node000003"><a xlink:title=" ">
<path fill="none" stroke="#63b8ff" d="M238.59,-48C246.62,-48 254.71,-48 262.32,-48"/>
<polygon fill="#63b8ff" stroke="#63b8ff" points="262.26,-51.5 272.26,-48 262.26,-44.5 262.26,-51.5"/>
</a>
</g>
</g>
<!-- Node4 -->
<g id="Node000004" class="node">
<title>Node4</title>
<g id="a_Node000004"><a xlink:href="class_log.html#a758948f266c4aa6fabbf9b172a018d43" target="_top" xlink:title="Returns the string representation of a log level.">
<polygon fill="white" stroke="#666666" points="460.75,-58 368.25,-58 368.25,-38 460.75,-38 460.75,-58"/>
<text text-anchor="middle" x="414.5" y="-44.5" font-family="Helvetica,sans-Serif" font-size="10.00">Log::GetLogLevel</text>
</a>
</g>
</g>
<!-- Node3&#45;&gt;Node4 -->
<g id="edge3_Node000003_Node000004" class="edge">
<title>Node3&#45;&gt;Node4</title>
<g id="a_edge3_Node000003_Node000004"><a xlink:title=" ">
<path fill="none" stroke="#63b8ff" d="M332.67,-48C340.06,-48 348.29,-48 356.58,-48"/>
<polygon fill="#63b8ff" stroke="#63b8ff" points="356.36,-51.5 366.36,-48 356.36,-44.5 356.36,-51.5"/>
</a>
</g>
</g>
</g>
</svg>
