<?xml version="1.0" encoding="UTF-8" standalone="no"?>
<!DOCTYPE svg PUBLIC "-//W3C//DTD SVG 1.1//EN"
 "http://www.w3.org/Graphics/SVG/1.1/DTD/svg11.dtd">
<!-- Generated by graphviz version 12.2.0 (20241103.1931)
 -->
<!-- Title: LevelOne Pages: 1 -->
<svg width="383pt" height="221pt"
 viewBox="0.00 0.00 383.25 221.00" xmlns="http://www.w3.org/2000/svg" xmlns:xlink="http://www.w3.org/1999/xlink">
<g id="graph0" class="graph" transform="scale(1 1) rotate(0) translate(4 217)">
<title>LevelOne</title>
<!-- Node1 -->
<g id="Node000001" class="node">
<title>Node1</title>
<g id="a_Node000001"><a xlink:title="Represents the first level of the game, including background, spaceship, enemies, and game state.">
<polygon fill="#999999" stroke="#666666" points="212.12,-20 154.88,-20 154.88,0 212.12,0 212.12,-20"/>
<text text-anchor="middle" x="183.5" y="-6.5" font-family="Helvetica,sans-Serif" font-size="10.00">LevelOne</text>
</a>
</g>
</g>
<!-- Node2 -->
<g id="Node000002" class="node">
<title>Node2</title>
<g id="a_Node000002"><a xlink:href="class_i_game_scene.html" target="_top" xlink:title="Interface for all game scenes.">
<polygon fill="white" stroke="#666666" points="73,-88 0,-88 0,-68 73,-68 73,-88"/>
<text text-anchor="middle" x="36.5" y="-74.5" font-family="Helvetica,sans-Serif" font-size="10.00">IGameScene</text>
</a>
</g>
</g>
<!-- Node2&#45;&gt;Node1 -->
<g id="edge1_Node000001_Node000002" class="edge">
<title>Node2&#45;&gt;Node1</title>
<g id="a_edge1_Node000001_Node000002"><a xlink:title=" ">
<path fill="none" stroke="#63b8ff" d="M66.71,-62.97C82.92,-55.48 103.26,-46.15 121.5,-38 134.79,-32.06 149.75,-25.54 161.65,-20.39"/>
<polygon fill="#63b8ff" stroke="#63b8ff" points="65.69,-59.58 58.09,-66.96 68.63,-65.93 65.69,-59.58"/>
</a>
</g>
</g>
<!-- Node3 -->
<g id="Node000003" class="node">
<title>Node3</title>
<g id="a_Node000003"><a xlink:href="class_scene_manager.html" target="_top" xlink:title="Manages game scenes, allowing for seamless transitions between them.">
<polygon fill="white" stroke="#666666" points="172.12,-88 90.88,-88 90.88,-68 172.12,-68 172.12,-88"/>
<text text-anchor="middle" x="131.5" y="-74.5" font-family="Helvetica,sans-Serif" font-size="10.00">SceneManager</text>
</a>
</g>
</g>
<!-- Node3&#45;&gt;Node1 -->
<g id="edge2_Node000001_Node000003" class="edge">
<title>Node3&#45;&gt;Node1</title>
<g id="a_edge2_Node000001_Node000003"><a xlink:title=" ">
<path fill="none" stroke="#9a32cd" stroke-dasharray="5,2" d="M125.54,-56.39C124.86,-50.09 125.39,-43.41 128.75,-38 134.51,-28.73 144.5,-22.55 154.38,-18.47"/>
<polygon fill="#9a32cd" stroke="#9a32cd" points="122.1,-57.05 127.6,-66.11 128.95,-55.6 122.1,-57.05"/>
</a>
</g>
<text text-anchor="middle" x="169.62" y="-40.5" font-family="Helvetica,sans-Serif" font-size="10.00" fill="grey"> m_SceneManager</text>
</g>
<!-- Node4 -->
<g id="Node000004" class="node">
<title>Node4</title>
<g id="a_Node000004"><a xlink:href="class_spaceship.html" target="_top" xlink:title="Represents the player&#39;s spaceship in the game, managing movement, shooting, and state updates.">
<polygon fill="white" stroke="#666666" points="261.38,-88 199.62,-88 199.62,-68 261.38,-68 261.38,-88"/>
<text text-anchor="middle" x="230.5" y="-74.5" font-family="Helvetica,sans-Serif" font-size="10.00">Spaceship</text>
</a>
</g>
</g>
<!-- Node4&#45;&gt;Node1 -->
<g id="edge3_Node000001_Node000004" class="edge">
<title>Node4&#45;&gt;Node1</title>
<g id="a_edge3_Node000001_Node000004"><a xlink:title=" ">
<path fill="none" stroke="#9a32cd" stroke-dasharray="5,2" d="M224.38,-57.08C221.88,-50.66 218.6,-43.73 214.5,-38 209.68,-31.27 202.86,-25.1 196.85,-20.36"/>
<polygon fill="#9a32cd" stroke="#9a32cd" points="220.98,-57.97 227.54,-66.29 227.6,-55.7 220.98,-57.97"/>
</a>
</g>
<text text-anchor="middle" x="252.49" y="-40.5" font-family="Helvetica,sans-Serif" font-size="10.00" fill="grey"> m_Spaceship</text>
</g>
<!-- Node5 -->
<g id="Node000005" class="node">
<title>Node5</title>
<g id="a_Node000005"><a xlink:href="class_vector2.html" target="_top" xlink:title=" ">
<polygon fill="white" stroke="#666666" points="273.38,-156 187.62,-156 187.62,-136 273.38,-136 273.38,-156"/>
<text text-anchor="middle" x="230.5" y="-142.5" font-family="Helvetica,sans-Serif" font-size="10.00">Vector2&lt; float &gt;</text>
</a>
</g>
</g>
<!-- Node5&#45;&gt;Node4 -->
<g id="edge4_Node000004_Node000005" class="edge">
<title>Node5&#45;&gt;Node4</title>
<g id="a_edge4_Node000004_Node000005"><a xlink:title=" ">
<path fill="none" stroke="#9a32cd" stroke-dasharray="5,2" d="M230.5,-124.28C230.5,-112.27 230.5,-97.74 230.5,-88.44"/>
<polygon fill="#9a32cd" stroke="#9a32cd" points="227,-124.03 230.5,-134.03 234,-124.03 227,-124.03"/>
</a>
</g>
<text text-anchor="middle" x="256.38" y="-108.5" font-family="Helvetica,sans-Serif" font-size="10.00" fill="grey"> m_Position</text>
</g>
<!-- Node6 -->
<g id="Node000006" class="node">
<title>Node6</title>
<g id="a_Node000006"><a xlink:title=" ">
<polygon fill="white" stroke="#666666" points="280.5,-213 180.5,-213 180.5,-193 280.5,-193 280.5,-213"/>
<text text-anchor="middle" x="230.5" y="-199.5" font-family="Helvetica,sans-Serif" font-size="10.00">sf::Vector2&lt; float &gt;</text>
</a>
</g>
</g>
<!-- Node6&#45;&gt;Node5 -->
<g id="edge5_Node000005_Node000006" class="edge">
<title>Node6&#45;&gt;Node5</title>
<g id="a_edge5_Node000005_Node000006"><a xlink:title=" ">
<path fill="none" stroke="#63b8ff" d="M230.5,-181.69C230.5,-172.97 230.5,-163.22 230.5,-156.28"/>
<polygon fill="#63b8ff" stroke="#63b8ff" points="227,-181.4 230.5,-191.4 234,-181.4 227,-181.4"/>
</a>
</g>
</g>
<!-- Node7 -->
<g id="Node000007" class="node">
<title>Node7</title>
<g id="a_Node000007"><a xlink:href="class_random_generator.html" target="_top" xlink:title="Provides random number generation utilities for integers and floats.">
<polygon fill="white" stroke="#666666" points="375.25,-88 279.75,-88 279.75,-68 375.25,-68 375.25,-88"/>
<text text-anchor="middle" x="327.5" y="-74.5" font-family="Helvetica,sans-Serif" font-size="10.00">RandomGenerator</text>
</a>
</g>
</g>
<!-- Node7&#45;&gt;Node1 -->
<g id="edge6_Node000001_Node000007" class="edge">
<title>Node7&#45;&gt;Node1</title>
<g id="a_edge6_Node000001_Node000007"><a xlink:title=" ">
<path fill="none" stroke="#9a32cd" stroke-dasharray="5,2" d="M313.04,-59.24C306.05,-51.69 297.09,-43.41 287.5,-38 264.1,-24.81 234.12,-17.91 212.36,-14.41"/>
<polygon fill="#9a32cd" stroke="#9a32cd" points="310.07,-61.16 319.28,-66.4 315.35,-56.56 310.07,-61.16"/>
</a>
</g>
<text text-anchor="middle" x="322.94" y="-40.5" font-family="Helvetica,sans-Serif" font-size="10.00" fill="grey"> m_RNG</text>
</g>
</g>
</svg>
