<?xml version="1.0" encoding="UTF-8" standalone="no"?>
<!DOCTYPE svg PUBLIC "-//W3C//DTD SVG 1.1//EN"
 "http://www.w3.org/Graphics/SVG/1.1/DTD/svg11.dtd">
<!-- Generated by graphviz version 12.2.0 (20241103.1931)
 -->
<!-- Title: IGameScene Pages: 1 -->
<svg width="420pt" height="84pt"
 viewBox="0.00 0.00 420.38 84.00" xmlns="http://www.w3.org/2000/svg" xmlns:xlink="http://www.w3.org/1999/xlink">
<g id="graph0" class="graph" transform="scale(1 1) rotate(0) translate(4 80)">
<title>IGameScene</title>
<!-- Node1 -->
<g id="Node000001" class="node">
<title>Node1</title>
<g id="a_Node000001"><a xlink:title="Interface for all game scenes.">
<polygon fill="#999999" stroke="#666666" points="232.25,-76 159.25,-76 159.25,-56 232.25,-56 232.25,-76"/>
<text text-anchor="middle" x="195.75" y="-62.5" font-family="Helvetica,sans-Serif" font-size="10.00">IGameScene</text>
</a>
</g>
</g>
<!-- Node2 -->
<g id="Node000002" class="node">
<title>Node2</title>
<g id="a_Node000002"><a xlink:href="class_credits.html" target="_top" xlink:title=" ">
<polygon fill="white" stroke="#666666" points="47.5,-20 0,-20 0,0 47.5,0 47.5,-20"/>
<text text-anchor="middle" x="23.75" y="-6.5" font-family="Helvetica,sans-Serif" font-size="10.00">Credits</text>
</a>
</g>
</g>
<!-- Node1&#45;&gt;Node2 -->
<g id="edge1_Node000001_Node000002" class="edge">
<title>Node1&#45;&gt;Node2</title>
<g id="a_edge1_Node000001_Node000002"><a xlink:title=" ">
<path fill="none" stroke="#63b8ff" d="M155.01,-52.21C121.65,-41.73 75.58,-27.27 47.82,-18.56"/>
<polygon fill="#63b8ff" stroke="#63b8ff" points="153.76,-55.48 164.35,-55.14 155.85,-48.81 153.76,-55.48"/>
</a>
</g>
</g>
<!-- Node3 -->
<g id="Node000003" class="node">
<title>Node3</title>
<g id="a_Node000003"><a xlink:href="class_game_over.html" target="_top" xlink:title="Represents the game over scene where the player is shown the end of the game and options to restart.">
<polygon fill="white" stroke="#666666" points="128.38,-20 65.12,-20 65.12,0 128.38,0 128.38,-20"/>
<text text-anchor="middle" x="96.75" y="-6.5" font-family="Helvetica,sans-Serif" font-size="10.00">GameOver</text>
</a>
</g>
</g>
<!-- Node1&#45;&gt;Node3 -->
<g id="edge2_Node000001_Node000003" class="edge">
<title>Node1&#45;&gt;Node3</title>
<g id="a_edge2_Node000001_Node000003"><a xlink:title=" ">
<path fill="none" stroke="#63b8ff" d="M168.89,-50.35C151.46,-40.84 129.27,-28.74 114.13,-20.48"/>
<polygon fill="#63b8ff" stroke="#63b8ff" points="166.72,-53.15 177.18,-54.87 170.07,-47.01 166.72,-53.15"/>
</a>
</g>
</g>
<!-- Node4 -->
<g id="Node000004" class="node">
<title>Node4</title>
<g id="a_Node000004"><a xlink:href="class_intro.html" target="_top" xlink:title=" ">
<polygon fill="white" stroke="#666666" points="181.5,-20 146,-20 146,0 181.5,0 181.5,-20"/>
<text text-anchor="middle" x="163.75" y="-6.5" font-family="Helvetica,sans-Serif" font-size="10.00">Intro</text>
</a>
</g>
</g>
<!-- Node1&#45;&gt;Node4 -->
<g id="edge3_Node000001_Node000004" class="edge">
<title>Node1&#45;&gt;Node4</title>
<g id="a_edge3_Node000001_Node000004"><a xlink:title=" ">
<path fill="none" stroke="#63b8ff" d="M184.41,-45.87C179.27,-37.19 173.42,-27.32 169.26,-20.3"/>
<polygon fill="#63b8ff" stroke="#63b8ff" points="181.3,-47.47 189.4,-54.29 187.32,-43.9 181.3,-47.47"/>
</a>
</g>
</g>
<!-- Node5 -->
<g id="Node000005" class="node">
<title>Node5</title>
<g id="a_Node000005"><a xlink:href="class_level_one.html" target="_top" xlink:title="Represents the first level of the game, including background, spaceship, enemies, and game state.">
<polygon fill="white" stroke="#666666" points="256.38,-20 199.12,-20 199.12,0 256.38,0 256.38,-20"/>
<text text-anchor="middle" x="227.75" y="-6.5" font-family="Helvetica,sans-Serif" font-size="10.00">LevelOne</text>
</a>
</g>
</g>
<!-- Node1&#45;&gt;Node5 -->
<g id="edge4_Node000001_Node000005" class="edge">
<title>Node1&#45;&gt;Node5</title>
<g id="a_edge4_Node000001_Node000005"><a xlink:title=" ">
<path fill="none" stroke="#63b8ff" d="M207.09,-45.87C212.23,-37.19 218.08,-27.32 222.24,-20.3"/>
<polygon fill="#63b8ff" stroke="#63b8ff" points="204.18,-43.9 202.1,-54.29 210.2,-47.47 204.18,-43.9"/>
</a>
</g>
</g>
<!-- Node6 -->
<g id="Node000006" class="node">
<title>Node6</title>
<g id="a_Node000006"><a xlink:href="class_level_two.html" target="_top" xlink:title="Represents the second level of the game, including scene management and rendering.">
<polygon fill="white" stroke="#666666" points="331.38,-20 274.12,-20 274.12,0 331.38,0 331.38,-20"/>
<text text-anchor="middle" x="302.75" y="-6.5" font-family="Helvetica,sans-Serif" font-size="10.00">LevelTwo</text>
</a>
</g>
</g>
<!-- Node1&#45;&gt;Node6 -->
<g id="edge5_Node000001_Node000006" class="edge">
<title>Node1&#45;&gt;Node6</title>
<g id="a_edge5_Node000001_Node000006"><a xlink:title=" ">
<path fill="none" stroke="#63b8ff" d="M224.52,-50.48C243.39,-40.96 267.53,-28.78 283.97,-20.48"/>
<polygon fill="#63b8ff" stroke="#63b8ff" points="223.09,-47.28 215.74,-54.91 226.24,-53.53 223.09,-47.28"/>
</a>
</g>
</g>
<!-- Node7 -->
<g id="Node000007" class="node">
<title>Node7</title>
<g id="a_Node000007"><a xlink:href="class_menu_state.html" target="_top" xlink:title="Represents the main menu state in the game.">
<polygon fill="white" stroke="#666666" points="412.38,-20 349.12,-20 349.12,0 412.38,0 412.38,-20"/>
<text text-anchor="middle" x="380.75" y="-6.5" font-family="Helvetica,sans-Serif" font-size="10.00">MenuState</text>
</a>
</g>
</g>
<!-- Node1&#45;&gt;Node7 -->
<g id="edge6_Node000001_Node000007" class="edge">
<title>Node1&#45;&gt;Node7</title>
<g id="a_edge6_Node000001_Node000007"><a xlink:title=" ">
<path fill="none" stroke="#63b8ff" d="M238.87,-52.41C272.53,-42.59 318.51,-29.17 348.89,-20.3"/>
<polygon fill="#63b8ff" stroke="#63b8ff" points="238.05,-49.01 229.43,-55.17 240.01,-55.73 238.05,-49.01"/>
</a>
</g>
</g>
</g>
</svg>
