<?xml version="1.0" encoding="UTF-8" standalone="no"?>
<!DOCTYPE svg PUBLIC "-//W3C//DTD SVG 1.1//EN"
 "http://www.w3.org/Graphics/SVG/1.1/DTD/svg11.dtd">
<!-- Generated by graphviz version 12.2.0 (20241103.1931)
 -->
<!-- Title: LevelOne::Draw Pages: 1 -->
<svg width="574pt" height="142pt"
 viewBox="0.00 0.00 573.75 142.00" xmlns="http://www.w3.org/2000/svg" xmlns:xlink="http://www.w3.org/1999/xlink">
<g id="graph0" class="graph" transform="scale(1 1) rotate(0) translate(4 138)">
<title>LevelOne::Draw</title>
<!-- Node1 -->
<g id="Node000001" class="node">
<title>Node1</title>
<g id="a_Node000001"><a xlink:title="Draws the level scene to the window.">
<polygon fill="#999999" stroke="#666666" points="86.5,-77 0,-77 0,-57 86.5,-57 86.5,-77"/>
<text text-anchor="middle" x="43.25" y="-63.5" font-family="Helvetica,sans-Serif" font-size="10.00">LevelOne::Draw</text>
</a>
</g>
</g>
<!-- Node2 -->
<g id="Node000002" class="node">
<title>Node2</title>
<g id="a_Node000002"><a xlink:href="class_level_one.html#ac05ae7c3ef582a61690ff18b7e5cb843" target="_top" xlink:title="Draws the background to the window.">
<polygon fill="white" stroke="#666666" points="266,-134 122.5,-134 122.5,-114 266,-114 266,-134"/>
<text text-anchor="middle" x="194.25" y="-120.5" font-family="Helvetica,sans-Serif" font-size="10.00">LevelOne::DrawBackgrounds</text>
</a>
</g>
</g>
<!-- Node1&#45;&gt;Node2 -->
<g id="edge1_Node000001_Node000002" class="edge">
<title>Node1&#45;&gt;Node2</title>
<g id="a_edge1_Node000001_Node000002"><a xlink:title=" ">
<path fill="none" stroke="#63b8ff" d="M63.1,-77.41C78.68,-85.7 101.56,-97.18 122.5,-105 127.52,-106.87 132.81,-108.65 138.14,-110.3"/>
<polygon fill="#63b8ff" stroke="#63b8ff" points="137.03,-113.62 147.61,-113.09 139.01,-106.91 137.03,-113.62"/>
</a>
</g>
</g>
<!-- Node3 -->
<g id="Node000003" class="node">
<title>Node3</title>
<g id="a_Node000003"><a xlink:href="class_level_one.html#ae65028a0125d115132877bfb149ae165" target="_top" xlink:title="Draws the enemies to the window.">
<polygon fill="white" stroke="#666666" points="256.62,-96 131.88,-96 131.88,-76 256.62,-76 256.62,-96"/>
<text text-anchor="middle" x="194.25" y="-82.5" font-family="Helvetica,sans-Serif" font-size="10.00">LevelOne::DrawEnemies</text>
</a>
</g>
</g>
<!-- Node1&#45;&gt;Node3 -->
<g id="edge2_Node000001_Node000003" class="edge">
<title>Node1&#45;&gt;Node3</title>
<g id="a_edge2_Node000001_Node000003"><a xlink:title=" ">
<path fill="none" stroke="#63b8ff" d="M86.95,-72.44C97.33,-73.77 108.73,-75.22 120.09,-76.67"/>
<polygon fill="#63b8ff" stroke="#63b8ff" points="119.53,-80.13 129.89,-77.92 120.41,-73.18 119.53,-80.13"/>
</a>
</g>
</g>
<!-- Node4 -->
<g id="Node000004" class="node">
<title>Node4</title>
<g id="a_Node000004"><a xlink:href="class_level_one.html#a8cd8e028469d2a83df7258c217e5df39" target="_top" xlink:title="Draws the spaceship to the window.">
<polygon fill="white" stroke="#666666" points="260.38,-58 128.12,-58 128.12,-38 260.38,-38 260.38,-58"/>
<text text-anchor="middle" x="194.25" y="-44.5" font-family="Helvetica,sans-Serif" font-size="10.00">LevelOne::DrawSpaceship</text>
</a>
</g>
</g>
<!-- Node1&#45;&gt;Node4 -->
<g id="edge3_Node000001_Node000004" class="edge">
<title>Node1&#45;&gt;Node4</title>
<g id="a_edge3_Node000001_Node000004"><a xlink:title=" ">
<path fill="none" stroke="#63b8ff" d="M86.95,-61.56C96.19,-60.38 106.25,-59.09 116.36,-57.81"/>
<polygon fill="#63b8ff" stroke="#63b8ff" points="116.78,-61.28 126.26,-56.54 115.89,-54.34 116.78,-61.28"/>
</a>
</g>
</g>
<!-- Node8 -->
<g id="Node000008" class="node">
<title>Node8</title>
<g id="a_Node000008"><a xlink:href="class_level_one.html#afaf089d753cb2040b2a752fd7199d788" target="_top" xlink:title="Draws the UI text elements (level, lives, paused text) to the window.">
<polygon fill="white" stroke="#666666" points="249.5,-20 139,-20 139,0 249.5,0 249.5,-20"/>
<text text-anchor="middle" x="194.25" y="-6.5" font-family="Helvetica,sans-Serif" font-size="10.00">LevelOne::DrawTexts</text>
</a>
</g>
</g>
<!-- Node1&#45;&gt;Node8 -->
<g id="edge7_Node000001_Node000008" class="edge">
<title>Node1&#45;&gt;Node8</title>
<g id="a_edge7_Node000001_Node000008"><a xlink:title=" ">
<path fill="none" stroke="#63b8ff" d="M63.1,-56.59C78.68,-48.3 101.56,-36.82 122.5,-29 127.52,-27.13 132.81,-25.35 138.14,-23.7"/>
<polygon fill="#63b8ff" stroke="#63b8ff" points="139.01,-27.09 147.61,-20.91 137.03,-20.38 139.01,-27.09"/>
</a>
</g>
</g>
<!-- Node5 -->
<g id="Node000005" class="node">
<title>Node5</title>
<g id="a_Node000005"><a xlink:href="class_spaceship.html#a114f821d9c5173a3afdd857fd277c060" target="_top" xlink:title="Draws the spaceship and its projectiles to the screen.">
<polygon fill="white" stroke="#666666" points="393,-58 302,-58 302,-38 393,-38 393,-58"/>
<text text-anchor="middle" x="347.5" y="-44.5" font-family="Helvetica,sans-Serif" font-size="10.00">Spaceship::Draw</text>
</a>
</g>
</g>
<!-- Node4&#45;&gt;Node5 -->
<g id="edge4_Node000004_Node000005" class="edge">
<title>Node4&#45;&gt;Node5</title>
<g id="a_edge4_Node000004_Node000005"><a xlink:title=" ">
<path fill="none" stroke="#63b8ff" d="M260.71,-48C270.59,-48 280.7,-48 290.36,-48"/>
<polygon fill="#63b8ff" stroke="#63b8ff" points="290.35,-51.5 300.35,-48 290.35,-44.5 290.35,-51.5"/>
</a>
</g>
</g>
<!-- Node6 -->
<g id="Node000006" class="node">
<title>Node6</title>
<g id="a_Node000006"><a xlink:href="class_spaceship.html#a9dfaca2d72e43533bf6ad31a1dcd04fd" target="_top" xlink:title="Draws all active projectiles to the window.">
<polygon fill="white" stroke="#666666" points="563.12,-77 431.62,-77 431.62,-57 563.12,-57 563.12,-77"/>
<text text-anchor="middle" x="497.38" y="-63.5" font-family="Helvetica,sans-Serif" font-size="10.00">Spaceship::DrawProjectile</text>
</a>
</g>
</g>
<!-- Node5&#45;&gt;Node6 -->
<g id="edge5_Node000005_Node000006" class="edge">
<title>Node5&#45;&gt;Node6</title>
<g id="a_edge5_Node000005_Node000006"><a xlink:title=" ">
<path fill="none" stroke="#63b8ff" d="M393.27,-53.75C401.79,-54.85 410.93,-56.02 420.11,-57.2"/>
<polygon fill="#63b8ff" stroke="#63b8ff" points="419.43,-60.64 429.8,-58.45 420.33,-53.7 419.43,-60.64"/>
</a>
</g>
</g>
<!-- Node7 -->
<g id="Node000007" class="node">
<title>Node7</title>
<g id="a_Node000007"><a xlink:href="class_spaceship.html#a444e1d452b234aa6d3e52d636d75547e" target="_top" xlink:title="Draws the spaceship to the window.">
<polygon fill="white" stroke="#666666" points="565.75,-39 429,-39 429,-19 565.75,-19 565.75,-39"/>
<text text-anchor="middle" x="497.38" y="-25.5" font-family="Helvetica,sans-Serif" font-size="10.00">Spaceship::DrawSpaceship</text>
</a>
</g>
</g>
<!-- Node5&#45;&gt;Node7 -->
<g id="edge6_Node000005_Node000007" class="edge">
<title>Node5&#45;&gt;Node7</title>
<g id="a_edge6_Node000005_Node000007"><a xlink:title=" ">
<path fill="none" stroke="#63b8ff" d="M393.27,-42.25C400.92,-41.26 409.08,-40.22 417.32,-39.16"/>
<polygon fill="#63b8ff" stroke="#63b8ff" points="417.59,-42.65 427.06,-37.91 416.7,-35.71 417.59,-42.65"/>
</a>
</g>
</g>
</g>
</svg>
