<?xml version="1.0" encoding="UTF-8" standalone="no"?>
<!DOCTYPE svg PUBLIC "-//W3C//DTD SVG 1.1//EN"
 "http://www.w3.org/Graphics/SVG/1.1/DTD/svg11.dtd">
<!-- Generated by graphviz version 12.2.0 (20241103.1931)
 -->
<!-- Title: RandomGenerator::GetRandomInt Pages: 1 -->
<svg width="461pt" height="78pt"
 viewBox="0.00 0.00 461.00 78.00" xmlns="http://www.w3.org/2000/svg" xmlns:xlink="http://www.w3.org/1999/xlink">
<g id="graph0" class="graph" transform="scale(1 1) rotate(0) translate(4 74)">
<title>RandomGenerator::GetRandomInt</title>
<!-- Node1 -->
<g id="Node000001" class="node">
<title>Node1</title>
<g id="a_Node000001"><a xlink:title="Generates a random integer in the specified range.">
<polygon fill="#999999" stroke="#666666" points="453,-48 287.75,-48 287.75,-28 453,-28 453,-48"/>
<text text-anchor="middle" x="370.38" y="-34.5" font-family="Helvetica,sans-Serif" font-size="10.00">RandomGenerator::GetRandomInt</text>
</a>
</g>
</g>
<!-- Node2 -->
<g id="Node000002" class="node">
<title>Node2</title>
<g id="a_Node000002"><a xlink:href="class_enemy.html#aa715eadaf6ac2035640661a2c145cd45" target="_top" xlink:title="Processes the enemy&#39;s shooting behavior.">
<polygon fill="white" stroke="#666666" points="249.5,-70 122.5,-70 122.5,-50 249.5,-50 249.5,-70"/>
<text text-anchor="middle" x="186" y="-56.5" font-family="Helvetica,sans-Serif" font-size="10.00">Enemy::ProcessShooting</text>
</a>
</g>
</g>
<!-- Node1&#45;&gt;Node2 -->
<g id="edge1_Node000001_Node000002" class="edge">
<title>Node1&#45;&gt;Node2</title>
<g id="a_edge1_Node000001_Node000002"><a xlink:title=" ">
<path fill="none" stroke="#63b8ff" d="M276.02,-49.26C267.14,-50.33 258.29,-51.4 249.81,-52.42"/>
<polygon fill="#63b8ff" stroke="#63b8ff" points="276.25,-52.76 285.75,-48.09 275.41,-45.81 276.25,-52.76"/>
</a>
</g>
</g>
<!-- Node4 -->
<g id="Node000004" class="node">
<title>Node4</title>
<g id="a_Node000004"><a xlink:href="namespace_gameplay_utility.html#aff88507b1242c74e8a11025076ef7a7f" target="_top" xlink:title="Attempts to shoot a projectile with a random cooldown.">
<polygon fill="white" stroke="#666666" points="251.75,-32 120.25,-32 120.25,0 251.75,0 251.75,-32"/>
<text text-anchor="start" x="128.25" y="-18.5" font-family="Helvetica,sans-Serif" font-size="10.00">GameplayUtility::TryShoot</text>
<text text-anchor="middle" x="186" y="-6.5" font-family="Helvetica,sans-Serif" font-size="10.00">WithRandomCooldown</text>
</a>
</g>
</g>
<!-- Node1&#45;&gt;Node4 -->
<g id="edge3_Node000001_Node000004" class="edge">
<title>Node1&#45;&gt;Node4</title>
<g id="a_edge3_Node000001_Node000004"><a xlink:title=" ">
<path fill="none" stroke="#63b8ff" d="M275.86,-26.72C267.8,-25.75 259.76,-24.78 251.99,-23.84"/>
<polygon fill="#63b8ff" stroke="#63b8ff" points="275.41,-30.19 285.75,-27.91 276.25,-23.24 275.41,-30.19"/>
</a>
</g>
</g>
<!-- Node3 -->
<g id="Node000003" class="node">
<title>Node3</title>
<g id="a_Node000003"><a xlink:href="class_enemy.html#ac892bd8564cb726b3538925a32f9f727" target="_top" xlink:title="Updates the enemy&#39;s state.">
<polygon fill="white" stroke="#666666" points="84.25,-70 0,-70 0,-50 84.25,-50 84.25,-70"/>
<text text-anchor="middle" x="42.12" y="-56.5" font-family="Helvetica,sans-Serif" font-size="10.00">Enemy::Update</text>
</a>
</g>
</g>
<!-- Node2&#45;&gt;Node3 -->
<g id="edge2_Node000002_Node000003" class="edge">
<title>Node2&#45;&gt;Node3</title>
<g id="a_edge2_Node000002_Node000003"><a xlink:title=" ">
<path fill="none" stroke="#63b8ff" d="M110.94,-60C101.91,-60 92.95,-60 84.65,-60"/>
<polygon fill="#63b8ff" stroke="#63b8ff" points="110.85,-63.5 120.85,-60 110.85,-56.5 110.85,-63.5"/>
</a>
</g>
</g>
</g>
</svg>
