<?xml version="1.0" encoding="UTF-8" standalone="no"?>
<!DOCTYPE svg PUBLIC "-//W3C//DTD SVG 1.1//EN"
 "http://www.w3.org/Graphics/SVG/1.1/DTD/svg11.dtd">
<!-- Generated by graphviz version 12.2.0 (20241103.1931)
 -->
<!-- Title: SceneManager::Switch Pages: 1 -->
<!--zoomable 256 -->

<svg id="main" version="1.1" xmlns="http://www.w3.org/2000/svg" xmlns:xlink="http://www.w3.org/1999/xlink" xml:space="preserve" onload="init(evt)">

<style type="text/css"><![CDATA[
.node, .edge {opacity: 0.7;}
.node.selected, .edge.selected {opacity: 1;}
.edge:hover path { stroke: red; }
.edge:hover polygon { stroke: red; fill: red; }
]]></style>

<defs>
  <circle id="rim" cx="0" cy="0" r="7"/>
  <circle id="rim2" cx="0" cy="0" r="3.5"/>
  <g id="zoomPlus">
    <use xlink:href="#rim" fill="#404040"><set attributeName="fill" to="#808080" begin="zoomplus.mouseover" end="zoomplus.mouseout"/></use>
    <path d="M-4,0h8M0,-4v8" fill="none" stroke="white" stroke-width="1.5" pointer-events="none"/>
  </g>
  <g id="zoomMin">
    <use xlink:href="#rim" fill="#404040"><set attributeName="fill" to="#808080" begin="zoomminus.mouseover" end="zoomminus.mouseout"/></use>
    <path d="M-4,0h8" fill="none" stroke="white" stroke-width="1.5" pointer-events="none"/>
  </g>
  <g id="arrowUp" transform="translate(30 24)">
    <use xlink:href="#rim"/>
    <path pointer-events="none" fill="none" stroke="white" stroke-width="1.5" d="M0,-3.0v7 M-2.5,-0.5L0,-3.0L2.5,-0.5"/>
  </g>
  <g id="arrowRight" transform="rotate(90) translate(36 -43)">
    <use xlink:href="#rim"/>
    <path pointer-events="none" fill="none" stroke="white" stroke-width="1.5" d="M0,-3.0v7 M-2.5,-0.5L0,-3.0L2.5,-0.5"/>
  </g>
  <g id="arrowDown" transform="rotate(180) translate(-30 -48)">
    <use xlink:href="#rim"/>
    <path pointer-events="none" fill="none" stroke="white" stroke-width="1.5" d="M0,-3.0v7 M-2.5,-0.5L0,-3.0L2.5,-0.5"/>
  </g>
  <g id="arrowLeft" transform="rotate(270) translate(-36 17)">
    <use xlink:href="#rim"/>
    <path pointer-events="none" fill="none" stroke="white" stroke-width="1.5" d="M0,-3.0v7 M-2.5,-0.5L0,-3.0L2.5,-0.5"/>
  </g>
  <g id="resetDef">
    <use xlink:href="#rim2" fill="#404040"><set attributeName="fill" to="#808080" begin="reset.mouseover" end="reset.mouseout"/></use>
  </g>
</defs>
<script type="application/ecmascript">
var viewWidth = 501;
var viewHeight = 256;
var sectionId = 'dynsection-6';
</script>
<script type="application/ecmascript" xlink:href="svg.min.js"/>
<svg id="graph" class="graph">
<g id="viewport">
<title>SceneManager::Switch</title>
<!-- Node1 -->
<g id="Node000001" class="node">
<title>Node1</title>
<g id="a_Node000001"><a xlink:title="Switches the currently active scene.">
<polygon fill="#999999" stroke="#666666" points="492.75,-134 375.5,-134 375.5,-114 492.75,-114 492.75,-134"/>
<text text-anchor="middle" x="434.12" y="-120.5" font-family="Helvetica,sans-Serif" font-size="10.00">SceneManager::Switch</text>
</a>
</g>
</g>
<!-- Node2 -->
<g id="Node000002" class="node">
<title>Node2</title>
<g id="a_Node000002"><a xlink:href="class_level_one.html#aa2a81cea0271d042063be2aa367f6c02" target="_top" xlink:title="Checks the player&#39;s lives and updates the game state if necessary.">
<polygon fill="white" stroke="#666666" points="320,-172 205,-172 205,-152 320,-152 320,-172"/>
<text text-anchor="middle" x="262.5" y="-158.5" font-family="Helvetica,sans-Serif" font-size="10.00">LevelOne::CheckLives</text>
</a>
</g>
</g>
<!-- Node1&#45;&gt;Node2 -->
<g id="edge1_Node000001_Node000002" class="edge">
<title>Node1&#45;&gt;Node2</title>
<g id="a_edge1_Node000001_Node000002"><a xlink:title=" ">
<path fill="none" stroke="#63b8ff" d="M375.17,-136.98C353.95,-141.74 330.24,-147.05 310.15,-151.55"/>
<polygon fill="#63b8ff" stroke="#63b8ff" points="375.86,-140.42 384.85,-134.82 374.32,-133.59 375.86,-140.42"/>
</a>
</g>
</g>
<!-- Node4 -->
<g id="Node000004" class="node">
<title>Node4</title>
<g id="a_Node000004"><a xlink:href="class_menu_state.html#aecd8763b82b9bfb5a64a5d7572e9019a" target="_top" xlink:title="Handles user input in the menu scene.">
<polygon fill="white" stroke="#666666" points="323.38,-210 201.62,-210 201.62,-190 323.38,-190 323.38,-210"/>
<text text-anchor="middle" x="262.5" y="-196.5" font-family="Helvetica,sans-Serif" font-size="10.00">MenuState::HandleInput</text>
</a>
</g>
</g>
<!-- Node1&#45;&gt;Node4 -->
<g id="edge3_Node000001_Node000004" class="edge">
<title>Node1&#45;&gt;Node4</title>
<g id="a_edge3_Node000001_Node000004"><a xlink:title=" ">
<path fill="none" stroke="#63b8ff" d="M409.99,-140.82C391.66,-153.46 364.98,-170.35 339.5,-181 331.59,-184.3 322.98,-187.13 314.48,-189.52"/>
<polygon fill="#63b8ff" stroke="#63b8ff" points="411.85,-143.79 418.02,-135.18 407.82,-138.07 411.85,-143.79"/>
</a>
</g>
</g>
<!-- Node5 -->
<g id="Node000005" class="node">
<title>Node5</title>
<g id="a_Node000005"><a xlink:href="class_game_instance.html#a06fe6dbd18ae41ac7f5f8f79b4f8b99d" target="_top" xlink:title="Initializes game states.">
<polygon fill="white" stroke="#666666" points="339.5,-248 185.5,-248 185.5,-228 339.5,-228 339.5,-248"/>
<text text-anchor="middle" x="262.5" y="-234.5" font-family="Helvetica,sans-Serif" font-size="10.00">GameInstance::InitGameStates</text>
</a>
</g>
</g>
<!-- Node1&#45;&gt;Node5 -->
<g id="edge4_Node000001_Node000005" class="edge">
<title>Node1&#45;&gt;Node5</title>
<g id="a_edge4_Node000001_Node000005"><a xlink:title=" ">
<path fill="none" stroke="#63b8ff" d="M419.33,-143.37C402.82,-165.09 373.16,-199.78 339.5,-219 333.48,-222.44 326.84,-225.26 320.07,-227.58"/>
<polygon fill="#63b8ff" stroke="#63b8ff" points="421.93,-145.74 425.06,-135.62 416.3,-141.58 421.93,-145.74"/>
</a>
</g>
</g>
<!-- Node7 -->
<g id="Node000007" class="node">
<title>Node7</title>
<g id="a_Node000007"><a xlink:href="class_level_one.html#a53f3108775fb3266debed32e9a2284c6" target="_top" xlink:title="Handles the game over state.">
<polygon fill="white" stroke="#666666" points="324.12,-134 200.88,-134 200.88,-114 324.12,-114 324.12,-134"/>
<text text-anchor="middle" x="262.5" y="-120.5" font-family="Helvetica,sans-Serif" font-size="10.00">LevelOne::OnGameOver</text>
</a>
</g>
</g>
<!-- Node1&#45;&gt;Node7 -->
<g id="edge6_Node000001_Node000007" class="edge">
<title>Node1&#45;&gt;Node7</title>
<g id="a_edge6_Node000001_Node000007"><a xlink:title=" ">
<path fill="none" stroke="#63b8ff" d="M363.94,-124C350.91,-124 337.37,-124 324.61,-124"/>
<polygon fill="#63b8ff" stroke="#63b8ff" points="363.71,-127.5 373.71,-124 363.71,-120.5 363.71,-127.5"/>
</a>
</g>
</g>
<!-- Node8 -->
<g id="Node000008" class="node">
<title>Node8</title>
<g id="a_Node000008"><a xlink:href="class_credits.html#aaf8dd49979cd73f003c4ae4e5eed472e" target="_top" xlink:title="Updates the scene logic.">
<polygon fill="white" stroke="#666666" points="305,-96 220,-96 220,-76 305,-76 305,-96"/>
<text text-anchor="middle" x="262.5" y="-82.5" font-family="Helvetica,sans-Serif" font-size="10.00">Credits::Update</text>
</a>
</g>
</g>
<!-- Node1&#45;&gt;Node8 -->
<g id="edge7_Node000001_Node000008" class="edge">
<title>Node1&#45;&gt;Node8</title>
<g id="a_edge7_Node000001_Node000008"><a xlink:title=" ">
<path fill="none" stroke="#63b8ff" d="M375.3,-111.05C352.3,-105.89 326.34,-100.08 305.23,-95.35"/>
<polygon fill="#63b8ff" stroke="#63b8ff" points="374.32,-114.41 384.85,-113.18 375.86,-107.58 374.32,-114.41"/>
</a>
</g>
</g>
<!-- Node9 -->
<g id="Node000009" class="node">
<title>Node9</title>
<g id="a_Node000009"><a xlink:href="class_game_over.html#a574908eb0d8bd368a45c986b2e853e14" target="_top" xlink:title="Updates the game over scene every frame.">
<polygon fill="white" stroke="#666666" points="312.88,-58 212.12,-58 212.12,-38 312.88,-38 312.88,-58"/>
<text text-anchor="middle" x="262.5" y="-44.5" font-family="Helvetica,sans-Serif" font-size="10.00">GameOver::Update</text>
</a>
</g>
</g>
<!-- Node1&#45;&gt;Node9 -->
<g id="edge8_Node000001_Node000009" class="edge">
<title>Node1&#45;&gt;Node9</title>
<g id="a_edge8_Node000001_Node000009"><a xlink:title=" ">
<path fill="none" stroke="#63b8ff" d="M409.99,-107.18C391.66,-94.54 364.98,-77.65 339.5,-67 331.22,-63.54 322.15,-60.6 313.26,-58.14"/>
<polygon fill="#63b8ff" stroke="#63b8ff" points="407.82,-109.93 418.02,-112.82 411.85,-104.21 407.82,-109.93"/>
</a>
</g>
</g>
<!-- Node10 -->
<g id="Node000010" class="node">
<title>Node10</title>
<g id="a_Node000010"><a xlink:href="class_level_one.html#a49050c25247260db25be9fdee638ab41" target="_top" xlink:title="Updates the level&#45;related UI text, such as level name and lives count.">
<polygon fill="white" stroke="#666666" points="330.88,-20 194.12,-20 194.12,0 330.88,0 330.88,-20"/>
<text text-anchor="middle" x="262.5" y="-6.5" font-family="Helvetica,sans-Serif" font-size="10.00">LevelOne::UpdateLevelText</text>
</a>
</g>
</g>
<!-- Node1&#45;&gt;Node10 -->
<g id="edge9_Node000001_Node000010" class="edge">
<title>Node1&#45;&gt;Node10</title>
<g id="a_edge9_Node000001_Node000010"><a xlink:title=" ">
<path fill="none" stroke="#63b8ff" d="M419.33,-104.63C402.82,-82.91 373.16,-48.22 339.5,-29 333.48,-25.56 326.84,-22.74 320.07,-20.42"/>
<polygon fill="#63b8ff" stroke="#63b8ff" points="416.3,-106.42 425.06,-112.38 421.93,-102.26 416.3,-106.42"/>
</a>
</g>
</g>
<!-- Node3 -->
<g id="Node000003" class="node">
<title>Node3</title>
<g id="a_Node000003"><a xlink:href="class_level_one.html#ac5f4953425e9d335e735f1cde198a1fb" target="_top" xlink:title="Updates the level scene every frame.">
<polygon fill="white" stroke="#666666" points="122.12,-96 27.38,-96 27.38,-76 122.12,-76 122.12,-96"/>
<text text-anchor="middle" x="74.75" y="-82.5" font-family="Helvetica,sans-Serif" font-size="10.00">LevelOne::Update</text>
</a>
</g>
</g>
<!-- Node2&#45;&gt;Node3 -->
<g id="edge2_Node000002_Node000003" class="edge">
<title>Node2&#45;&gt;Node3</title>
<g id="a_edge2_Node000002_Node000003"><a xlink:title=" ">
<path fill="none" stroke="#63b8ff" d="M201.94,-148.54C196.33,-146.84 190.77,-145 185.5,-143 151.17,-130 113.73,-108.93 92.66,-96.38"/>
<polygon fill="#63b8ff" stroke="#63b8ff" points="200.7,-151.83 211.28,-151.19 202.61,-145.09 200.7,-151.83"/>
</a>
</g>
</g>
<!-- Node6 -->
<g id="Node000006" class="node">
<title>Node6</title>
<g id="a_Node000006"><a xlink:href="class_game_instance.html#a4960d24b6dbc4d273882cb55db1e022c" target="_top" xlink:title="Constructs the game instance.">
<polygon fill="white" stroke="#666666" points="149.5,-248 0,-248 0,-228 149.5,-228 149.5,-248"/>
<text text-anchor="middle" x="74.75" y="-234.5" font-family="Helvetica,sans-Serif" font-size="10.00">GameInstance::GameInstance</text>
</a>
</g>
</g>
<!-- Node5&#45;&gt;Node6 -->
<g id="edge5_Node000005_Node000006" class="edge">
<title>Node5&#45;&gt;Node6</title>
<g id="a_edge5_Node000005_Node000006"><a xlink:title=" ">
<path fill="none" stroke="#63b8ff" d="M173.81,-238C165.75,-238 157.63,-238 149.71,-238"/>
<polygon fill="#63b8ff" stroke="#63b8ff" points="173.63,-241.5 183.63,-238 173.63,-234.5 173.63,-241.5"/>
</a>
</g>
</g>
<!-- Node10&#45;&gt;Node3 -->
<g id="edge10_Node000010_Node000003" class="edge">
<title>Node10&#45;&gt;Node3</title>
<g id="a_edge10_Node000010_Node000003"><a xlink:title=" ">
<path fill="none" stroke="#63b8ff" d="M201.94,-23.46C196.33,-25.16 190.77,-27 185.5,-29 151.17,-42 113.73,-63.07 92.66,-75.62"/>
<polygon fill="#63b8ff" stroke="#63b8ff" points="202.61,-26.91 211.28,-20.81 200.7,-20.17 202.61,-26.91"/>
</a>
</g>
</g>
</g>
</svg>

<g id="navigator" transform="translate(0 0)" fill="#404254">
  <rect fill="#f2f5e9" fill-opacity="0.5" stroke="#606060" stroke-width=".5" x="0" y="0" width="60" height="60"/>
  <use id="zoomplus" xlink:href="#zoomPlus" x="17" y="9" onmousedown="handleZoom(evt,'in')"/>
  <use id="zoomminus" xlink:href="#zoomMin" x="42" y="9" onmousedown="handleZoom(evt,'out')"/>
  <use id="reset" xlink:href="#resetDef" x="30" y="36" onmousedown="handleReset()"/>
   <use id="arrowup" xlink:href="#arrowUp" x="0" y="0" onmousedown="handlePan(0,-1)"/>
  <use id="arrowright" xlink:href="#arrowRight" x="0" y="0" onmousedown="handlePan(1,0)"/>
  <use id="arrowdown" xlink:href="#arrowDown" x="0" y="0" onmousedown="handlePan(0,1)"/>
  <use id="arrowleft" xlink:href="#arrowLeft" x="0" y="0" onmousedown="handlePan(-1,0)"/>
</g>
<svg viewBox="0 0 15 15" width="100%" height="30px" preserveAspectRatio="xMaxYMin meet">
 <g id="arrow_out" transform="scale(0.3 0.3)">
  <a xlink:href="class_scene_manager_a923a348879950dfdeba731f5fbcaf731_icgraph_org.svg" target="_base">
   <rect id="button" ry="5" rx="5" y="6" x="6" height="38" width="38"
        fill="#f2f5e9" fill-opacity="0.5" stroke="#606060" stroke-width="1.0"/>
   <path id="arrow"
     d="M 11.500037,31.436501 C 11.940474,20.09759 22.043105,11.32322 32.158766,21.979434 L 37.068811,17.246167 C 37.068811,17.246167 37.088388,32 37.088388,32 L 22.160133,31.978069 C 22.160133,31.978069 26.997745,27.140456 26.997745,27.140456 C 18.528582,18.264221 13.291696,25.230495 11.500037,31.436501 z"
     style="fill:#404040;"/>
  </a>
 </g>
</svg>

<style type='text/css'>
<![CDATA[
[data-mouse-over-selected='false'] { opacity: 0.7; }
[data-mouse-over-selected='true']  { opacity: 1.0; }
]]>
</style>
<script type="application/ecmascript"><![CDATA[
document.addEventListener('DOMContentLoaded', (event) => {
  highlightEdges();
  highlightAdjacentNodes();
});
]]></script>
</svg>
