<?xml version="1.0" encoding="UTF-8" standalone="no"?>
<!DOCTYPE svg PUBLIC "-//W3C//DTD SVG 1.1//EN"
 "http://www.w3.org/Graphics/SVG/1.1/DTD/svg11.dtd">
<!-- Generated by graphviz version 12.2.0 (20241103.1931)
 -->
<!-- Title: LevelOne::Reset Pages: 1 -->
<svg width="681pt" height="108pt"
 viewBox="0.00 0.00 681.25 108.00" xmlns="http://www.w3.org/2000/svg" xmlns:xlink="http://www.w3.org/1999/xlink">
<g id="graph0" class="graph" transform="scale(1 1) rotate(0) translate(4 104)">
<title>LevelOne::Reset</title>
<!-- Node1 -->
<g id="Node000001" class="node">
<title>Node1</title>
<g id="a_Node000001"><a xlink:title="Resets the level for a new playthrough.">
<polygon fill="#999999" stroke="#666666" points="89.5,-58 0,-58 0,-38 89.5,-38 89.5,-58"/>
<text text-anchor="middle" x="44.75" y="-44.5" font-family="Helvetica,sans-Serif" font-size="10.00">LevelOne::Reset</text>
</a>
</g>
</g>
<!-- Node2 -->
<g id="Node000002" class="node">
<title>Node2</title>
<g id="a_Node000002"><a xlink:href="namespace_gameplay_utility.html#a24348bc2bb771397d9716c320eca7b25" target="_top" xlink:title="Spawns a set number of enemies in a grid pattern.">
<polygon fill="white" stroke="#666666" points="450.75,-100 290,-100 290,-80 450.75,-80 450.75,-100"/>
<text text-anchor="middle" x="370.38" y="-86.5" font-family="Helvetica,sans-Serif" font-size="10.00">GameplayUtility::EnemySpawner</text>
</a>
</g>
</g>
<!-- Node1&#45;&gt;Node2 -->
<g id="edge1_Node000001_Node000002" class="edge">
<title>Node1&#45;&gt;Node2</title>
<g id="a_edge1_Node000001_Node000002"><a xlink:title=" ">
<path fill="none" stroke="#63b8ff" d="M84.87,-58.47C97.74,-61.61 112.16,-64.79 125.5,-67 175.69,-75.3 232.22,-80.87 278.2,-84.44"/>
<polygon fill="#63b8ff" stroke="#63b8ff" points="277.91,-87.93 288.15,-85.19 278.44,-80.95 277.91,-87.93"/>
</a>
</g>
</g>
<!-- Node5 -->
<g id="Node000005" class="node">
<title>Node5</title>
<g id="a_Node000005"><a xlink:href="class_level_one.html#a07f13cbce0fed886e7c800a52e32158c" target="_top" xlink:title="Initializes the background for the level.">
<polygon fill="white" stroke="#666666" points="254,-58 125.5,-58 125.5,-38 254,-38 254,-58"/>
<text text-anchor="middle" x="189.75" y="-44.5" font-family="Helvetica,sans-Serif" font-size="10.00">LevelOne::InitBackground</text>
</a>
</g>
</g>
<!-- Node1&#45;&gt;Node5 -->
<g id="edge4_Node000001_Node000005" class="edge">
<title>Node1&#45;&gt;Node5</title>
<g id="a_edge4_Node000001_Node000005"><a xlink:title=" ">
<path fill="none" stroke="#63b8ff" d="M89.82,-48C97.41,-48 105.48,-48 113.61,-48"/>
<polygon fill="#63b8ff" stroke="#63b8ff" points="113.6,-51.5 123.6,-48 113.6,-44.5 113.6,-51.5"/>
</a>
</g>
</g>
<!-- Node7 -->
<g id="Node000007" class="node">
<title>Node7</title>
<g id="a_Node000007"><a xlink:href="class_spaceship.html#a6b2ffa8e8b3c93c9132958d47436c6b8" target="_top" xlink:title="Resets the spaceship&#39;s state to &quot;alive.&quot;.">
<polygon fill="white" stroke="#666666" points="236.75,-20 142.75,-20 142.75,0 236.75,0 236.75,-20"/>
<text text-anchor="middle" x="189.75" y="-6.5" font-family="Helvetica,sans-Serif" font-size="10.00">Spaceship::Reset</text>
</a>
</g>
</g>
<!-- Node1&#45;&gt;Node7 -->
<g id="edge7_Node000001_Node000007" class="edge">
<title>Node1&#45;&gt;Node7</title>
<g id="a_edge7_Node000001_Node000007"><a xlink:title=" ">
<path fill="none" stroke="#63b8ff" d="M85.2,-37.52C101.77,-33.11 121.23,-27.94 138.79,-23.28"/>
<polygon fill="#63b8ff" stroke="#63b8ff" points="139.2,-26.79 147.96,-20.84 137.4,-20.02 139.2,-26.79"/>
</a>
</g>
</g>
<!-- Node3 -->
<g id="Node000003" class="node">
<title>Node3</title>
<g id="a_Node000003"><a xlink:href="class_log.html#a0602808efc4b6a11f68f0c9ee2df135e" target="_top" xlink:title="Prints a plain text message with a given log level.">
<polygon fill="white" stroke="#666666" points="544.75,-78 486.75,-78 486.75,-58 544.75,-58 544.75,-78"/>
<text text-anchor="middle" x="515.75" y="-64.5" font-family="Helvetica,sans-Serif" font-size="10.00">Log::Print</text>
</a>
</g>
</g>
<!-- Node2&#45;&gt;Node3 -->
<g id="edge2_Node000002_Node000003" class="edge">
<title>Node2&#45;&gt;Node3</title>
<g id="a_edge2_Node000002_Node000003"><a xlink:title=" ">
<path fill="none" stroke="#63b8ff" d="M439.7,-79.52C451.78,-77.66 463.98,-75.79 474.94,-74.11"/>
<polygon fill="#63b8ff" stroke="#63b8ff" points="475.42,-77.58 484.78,-72.6 474.36,-70.66 475.42,-77.58"/>
</a>
</g>
</g>
<!-- Node4 -->
<g id="Node000004" class="node">
<title>Node4</title>
<g id="a_Node000004"><a xlink:href="class_log.html#a758948f266c4aa6fabbf9b172a018d43" target="_top" xlink:title="Returns the string representation of a log level.">
<polygon fill="white" stroke="#666666" points="673.25,-78 580.75,-78 580.75,-58 673.25,-58 673.25,-78"/>
<text text-anchor="middle" x="627" y="-64.5" font-family="Helvetica,sans-Serif" font-size="10.00">Log::GetLogLevel</text>
</a>
</g>
</g>
<!-- Node3&#45;&gt;Node4 -->
<g id="edge3_Node000003_Node000004" class="edge">
<title>Node3&#45;&gt;Node4</title>
<g id="a_edge3_Node000003_Node000004"><a xlink:title=" ">
<path fill="none" stroke="#63b8ff" d="M545.17,-68C552.56,-68 560.79,-68 569.08,-68"/>
<polygon fill="#63b8ff" stroke="#63b8ff" points="568.86,-71.5 578.86,-68 568.86,-64.5 568.86,-71.5"/>
</a>
</g>
</g>
<!-- Node6 -->
<g id="Node000006" class="node">
<title>Node6</title>
<g id="a_Node000006"><a xlink:href="namespace_core_helper.html#a0609ff46cfcbe7d88492b38418267da5" target="_top" xlink:title="Loads a texture and assigns it to a sprite.">
<polygon fill="white" stroke="#666666" points="441.38,-62 299.38,-62 299.38,-30 441.38,-30 441.38,-62"/>
<text text-anchor="start" x="307.38" y="-48.5" font-family="Helvetica,sans-Serif" font-size="10.00">CoreHelper::LoadTextureAnd</text>
<text text-anchor="middle" x="370.38" y="-36.5" font-family="Helvetica,sans-Serif" font-size="10.00">Sprite</text>
</a>
</g>
</g>
<!-- Node5&#45;&gt;Node6 -->
<g id="edge5_Node000005_Node000006" class="edge">
<title>Node5&#45;&gt;Node6</title>
<g id="a_edge5_Node000005_Node000006"><a xlink:title=" ">
<path fill="none" stroke="#63b8ff" d="M254.48,-47.29C265.19,-47.17 276.43,-47.04 287.52,-46.92"/>
<polygon fill="#63b8ff" stroke="#63b8ff" points="287.52,-50.42 297.48,-46.8 287.44,-43.42 287.52,-50.42"/>
</a>
</g>
</g>
<!-- Node6&#45;&gt;Node3 -->
<g id="edge6_Node000006_Node000003" class="edge">
<title>Node6&#45;&gt;Node3</title>
<g id="a_edge6_Node000006_Node000003"><a xlink:title=" ">
<path fill="none" stroke="#63b8ff" d="M441.8,-56.81C453.33,-58.58 464.9,-60.35 475.32,-61.95"/>
<polygon fill="#63b8ff" stroke="#63b8ff" points="474.62,-65.38 485.03,-63.44 475.68,-58.46 474.62,-65.38"/>
</a>
</g>
</g>
</g>
</svg>
