<?xml version="1.0" encoding="UTF-8" standalone="no"?>
<!DOCTYPE svg PUBLIC "-//W3C//DTD SVG 1.1//EN"
 "http://www.w3.org/Graphics/SVG/1.1/DTD/svg11.dtd">
<!-- Generated by graphviz version 12.2.0 (20241103.1931)
 -->
<!-- Title: Log::GetLogLevel Pages: 1 -->
<svg width="935pt" height="480pt"
 viewBox="0.00 0.00 935.00 480.00" xmlns="http://www.w3.org/2000/svg" xmlns:xlink="http://www.w3.org/1999/xlink">
<g id="graph0" class="graph" transform="scale(1 1) rotate(0) translate(4 476)">
<title>Log::GetLogLevel</title>
<!-- Node1 -->
<g id="Node000001" class="node">
<title>Node1</title>
<g id="a_Node000001"><a xlink:title="Returns the string representation of a log level.">
<polygon fill="#999999" stroke="#666666" points="927,-267 834.5,-267 834.5,-247 927,-247 927,-267"/>
<text text-anchor="middle" x="880.75" y="-253.5" font-family="Helvetica,sans-Serif" font-size="10.00">Log::GetLogLevel</text>
</a>
</g>
</g>
<!-- Node2 -->
<g id="Node000002" class="node">
<title>Node2</title>
<g id="a_Node000002"><a xlink:href="class_log.html#a0602808efc4b6a11f68f0c9ee2df135e" target="_top" xlink:title="Prints a plain text message with a given log level.">
<polygon fill="white" stroke="#666666" points="780.88,-305 722.88,-305 722.88,-285 780.88,-285 780.88,-305"/>
<text text-anchor="middle" x="751.88" y="-291.5" font-family="Helvetica,sans-Serif" font-size="10.00">Log::Print</text>
</a>
</g>
</g>
<!-- Node1&#45;&gt;Node2 -->
<g id="edge1_Node000001_Node000002" class="edge">
<title>Node1&#45;&gt;Node2</title>
<g id="a_edge1_Node000001_Node000002"><a xlink:title=" ">
<path fill="none" stroke="#63b8ff" d="M834.09,-270.67C816.49,-275.95 796.89,-281.82 781.36,-286.47"/>
<polygon fill="#63b8ff" stroke="#63b8ff" points="834.72,-274.14 843.3,-267.92 832.71,-267.43 834.72,-274.14"/>
</a>
</g>
</g>
<!-- Node26 -->
<g id="Node000026" class="node">
<title>Node26</title>
<g id="a_Node000026"><a xlink:href="class_log.html#ac01883d16edd935eaf7fdb304f7b78e7" target="_top" xlink:title="Prints a message with an associated variable value.">
<polygon fill="white" stroke="#666666" points="780.88,-267 722.88,-267 722.88,-247 780.88,-247 780.88,-267"/>
<text text-anchor="middle" x="751.88" y="-253.5" font-family="Helvetica,sans-Serif" font-size="10.00">Log::Print</text>
</a>
</g>
</g>
<!-- Node1&#45;&gt;Node26 -->
<g id="edge31_Node000001_Node000026" class="edge">
<title>Node1&#45;&gt;Node26</title>
<g id="a_edge31_Node000001_Node000026"><a xlink:title=" ">
<path fill="none" stroke="#63b8ff" d="M822.84,-257C808.35,-257 793.4,-257 781.06,-257"/>
<polygon fill="#63b8ff" stroke="#63b8ff" points="822.79,-260.5 832.79,-257 822.79,-253.5 822.79,-260.5"/>
</a>
</g>
</g>
<!-- Node27 -->
<g id="Node000027" class="node">
<title>Node27</title>
<g id="a_Node000027"><a xlink:href="class_log.html#a1cfdb452dda3379f35d38e1c57397b83" target="_top" xlink:title="Prints the memory address of a given variable.">
<polygon fill="white" stroke="#666666" points="798.5,-229 705.25,-229 705.25,-209 798.5,-209 798.5,-229"/>
<text text-anchor="middle" x="751.88" y="-215.5" font-family="Helvetica,sans-Serif" font-size="10.00">Log::PrintMemory</text>
</a>
</g>
</g>
<!-- Node1&#45;&gt;Node27 -->
<g id="edge32_Node000001_Node000027" class="edge">
<title>Node1&#45;&gt;Node27</title>
<g id="a_edge32_Node000001_Node000027"><a xlink:title=" ">
<path fill="none" stroke="#63b8ff" d="M833.97,-243.29C818.74,-238.73 802.04,-233.72 787.77,-229.45"/>
<polygon fill="#63b8ff" stroke="#63b8ff" points="832.71,-246.57 843.3,-246.08 834.72,-239.86 832.71,-246.57"/>
</a>
</g>
</g>
<!-- Node3 -->
<g id="Node000003" class="node">
<title>Node3</title>
<g id="a_Node000003"><a xlink:href="class_scene_manager.html#abfffecc4ffd12a2592249b922fe91658" target="_top" xlink:title="Adds a new scene to the manager.">
<polygon fill="white" stroke="#666666" points="641.12,-248 536.62,-248 536.62,-228 641.12,-228 641.12,-248"/>
<text text-anchor="middle" x="588.88" y="-234.5" font-family="Helvetica,sans-Serif" font-size="10.00">SceneManager::Add</text>
</a>
</g>
</g>
<!-- Node2&#45;&gt;Node3 -->
<g id="edge2_Node000002_Node000003" class="edge">
<title>Node2&#45;&gt;Node3</title>
<g id="a_edge2_Node000002_Node000003"><a xlink:title=" ">
<path fill="none" stroke="#63b8ff" d="M714.26,-280.1C711.2,-278.75 708.16,-277.37 705.25,-276 688.88,-268.29 686.18,-263.38 669.25,-257 660.37,-253.65 650.7,-250.76 641.26,-248.3"/>
<polygon fill="#63b8ff" stroke="#63b8ff" points="712.68,-283.23 723.25,-283.96 715.44,-276.8 712.68,-283.23"/>
</a>
</g>
</g>
<!-- Node6 -->
<g id="Node000006" class="node">
<title>Node6</title>
<g id="a_Node000006"><a xlink:href="namespace_gameplay_utility.html#a24348bc2bb771397d9716c320eca7b25" target="_top" xlink:title="Spawns a set number of enemies in a grid pattern.">
<polygon fill="white" stroke="#666666" points="669.25,-472 508.5,-472 508.5,-452 669.25,-452 669.25,-472"/>
<text text-anchor="middle" x="588.88" y="-458.5" font-family="Helvetica,sans-Serif" font-size="10.00">GameplayUtility::EnemySpawner</text>
</a>
</g>
</g>
<!-- Node2&#45;&gt;Node6 -->
<g id="edge5_Node000002_Node000006" class="edge">
<title>Node2&#45;&gt;Node6</title>
<g id="a_edge5_Node000002_Node000006"><a xlink:title=" ">
<path fill="none" stroke="#63b8ff" d="M744.85,-315.87C734.61,-347.54 710.8,-407.47 669.25,-440 663.06,-444.85 655.86,-448.63 648.38,-451.58"/>
<polygon fill="#63b8ff" stroke="#63b8ff" points="748.08,-317.27 747.67,-306.68 741.39,-315.21 748.08,-317.27"/>
</a>
</g>
</g>
<!-- Node9 -->
<g id="Node000009" class="node">
<title>Node9</title>
<g id="a_Node000009"><a xlink:href="class_menu_state.html#a3c5a85349ab47790f9a589dcfa90655a" target="_top" xlink:title="Initializes the buttons for the menu.">
<polygon fill="white" stroke="#666666" points="647.12,-431 530.62,-431 530.62,-411 647.12,-411 647.12,-431"/>
<text text-anchor="middle" x="588.88" y="-417.5" font-family="Helvetica,sans-Serif" font-size="10.00">MenuState::InitButtons</text>
</a>
</g>
</g>
<!-- Node2&#45;&gt;Node9 -->
<g id="edge8_Node000002_Node000009" class="edge">
<title>Node2&#45;&gt;Node9</title>
<g id="a_edge8_Node000002_Node000009"><a xlink:title=" ">
<path fill="none" stroke="#63b8ff" d="M737.85,-314.95C723.3,-335.87 698,-368.5 669.25,-389 656.19,-398.32 640.02,-405.47 625.69,-410.62"/>
<polygon fill="#63b8ff" stroke="#63b8ff" points="740.71,-316.97 743.41,-306.72 734.91,-313.04 740.71,-316.97"/>
</a>
</g>
</g>
<!-- Node11 -->
<g id="Node000011" class="node">
<title>Node11</title>
<g id="a_Node000011"><a xlink:href="class_level_one.html#ab45be2d82cb57188dda251343856fb16" target="_top" xlink:title="Initializes the level text for displaying information such as level name and player lives.">
<polygon fill="white" stroke="#666666" points="648.25,-286 529.5,-286 529.5,-266 648.25,-266 648.25,-286"/>
<text text-anchor="middle" x="588.88" y="-272.5" font-family="Helvetica,sans-Serif" font-size="10.00">LevelOne::InitLevelText</text>
</a>
</g>
</g>
<!-- Node2&#45;&gt;Node11 -->
<g id="edge10_Node000002_Node000011" class="edge">
<title>Node2&#45;&gt;Node11</title>
<g id="a_edge10_Node000002_Node000011"><a xlink:title=" ">
<path fill="none" stroke="#63b8ff" d="M711.04,-290.3C692.23,-288.08 669.41,-285.39 648.67,-282.94"/>
<polygon fill="#63b8ff" stroke="#63b8ff" points="710.62,-293.77 720.96,-291.47 711.44,-286.82 710.62,-293.77"/>
</a>
</g>
</g>
<!-- Node13 -->
<g id="Node000013" class="node">
<title>Node13</title>
<g id="a_Node000013"><a xlink:href="namespace_core_helper.html#a5bc59fd3ff2736ca4415da047fe428bc" target="_top" xlink:title="Loads background music from a file.">
<polygon fill="white" stroke="#666666" points="648.25,-324 529.5,-324 529.5,-304 648.25,-304 648.25,-324"/>
<text text-anchor="middle" x="588.88" y="-310.5" font-family="Helvetica,sans-Serif" font-size="10.00">CoreHelper::LoadMusic</text>
</a>
</g>
</g>
<!-- Node2&#45;&gt;Node13 -->
<g id="edge12_Node000002_Node000013" class="edge">
<title>Node2&#45;&gt;Node13</title>
<g id="a_edge12_Node000002_Node000013"><a xlink:title=" ">
<path fill="none" stroke="#63b8ff" d="M711.04,-299.7C692.23,-301.92 669.41,-304.61 648.67,-307.06"/>
<polygon fill="#63b8ff" stroke="#63b8ff" points="711.44,-303.18 720.96,-298.53 710.62,-296.23 711.44,-303.18"/>
</a>
</g>
</g>
<!-- Node14 -->
<g id="Node000014" class="node">
<title>Node14</title>
<g id="a_Node000014"><a xlink:href="namespace_core_helper.html#a0609ff46cfcbe7d88492b38418267da5" target="_top" xlink:title="Loads a texture and assigns it to a sprite.">
<polygon fill="white" stroke="#666666" points="659.88,-380 517.88,-380 517.88,-348 659.88,-348 659.88,-380"/>
<text text-anchor="start" x="525.88" y="-366.5" font-family="Helvetica,sans-Serif" font-size="10.00">CoreHelper::LoadTextureAnd</text>
<text text-anchor="middle" x="588.88" y="-354.5" font-family="Helvetica,sans-Serif" font-size="10.00">Sprite</text>
</a>
</g>
</g>
<!-- Node2&#45;&gt;Node14 -->
<g id="edge14_Node000002_Node000014" class="edge">
<title>Node2&#45;&gt;Node14</title>
<g id="a_edge14_Node000002_Node000014"><a xlink:title=" ">
<path fill="none" stroke="#63b8ff" d="M719.25,-310.29C704.21,-317.42 685.9,-325.88 669.25,-333 657.69,-337.94 645.05,-343.02 633.33,-347.6"/>
<polygon fill="#63b8ff" stroke="#63b8ff" points="720.67,-313.49 728.19,-306.03 717.66,-307.17 720.67,-313.49"/>
</a>
</g>
</g>
<!-- Node17 -->
<g id="Node000017" class="node">
<title>Node17</title>
<g id="a_Node000017"><a xlink:href="class_scene_manager.html#a7716bf6132d950af755ee95e07395827" target="_top" xlink:title="Prints all currently stored scene IDs.">
<polygon fill="white" stroke="#666666" points="656.88,-210 520.88,-210 520.88,-190 656.88,-190 656.88,-210"/>
<text text-anchor="middle" x="588.88" y="-196.5" font-family="Helvetica,sans-Serif" font-size="10.00">SceneManager::PrintStates</text>
</a>
</g>
</g>
<!-- Node2&#45;&gt;Node17 -->
<g id="edge20_Node000002_Node000017" class="edge">
<title>Node2&#45;&gt;Node17</title>
<g id="a_edge20_Node000002_Node000017"><a xlink:title=" ">
<path fill="none" stroke="#63b8ff" d="M712.78,-281.35C710.11,-279.73 707.57,-277.96 705.25,-276 682.35,-256.67 693.62,-236.44 669.25,-219 664.41,-215.54 659.02,-212.7 653.4,-210.37"/>
<polygon fill="#63b8ff" stroke="#63b8ff" points="710.95,-284.34 721.45,-285.79 714.14,-278.11 710.95,-284.34"/>
</a>
</g>
</g>
<!-- Node18 -->
<g id="Node000018" class="node">
<title>Node18</title>
<g id="a_Node000018"><a xlink:href="class_scene_manager.html#a923a348879950dfdeba731f5fbcaf731" target="_top" xlink:title="Switches the currently active scene.">
<polygon fill="white" stroke="#666666" points="647.5,-153 530.25,-153 530.25,-133 647.5,-133 647.5,-153"/>
<text text-anchor="middle" x="588.88" y="-139.5" font-family="Helvetica,sans-Serif" font-size="10.00">SceneManager::Switch</text>
</a>
</g>
</g>
<!-- Node2&#45;&gt;Node18 -->
<g id="edge21_Node000002_Node000018" class="edge">
<title>Node2&#45;&gt;Node18</title>
<g id="a_edge21_Node000002_Node000018"><a xlink:title=" ">
<path fill="none" stroke="#63b8ff" d="M712.52,-281.97C709.88,-280.22 707.41,-278.23 705.25,-276 673.84,-243.56 699.8,-214.24 669.25,-181 657.57,-168.29 640.73,-159.4 625.57,-153.43"/>
<polygon fill="#63b8ff" stroke="#63b8ff" points="710.8,-285.03 721.27,-286.68 714.12,-278.86 710.8,-285.03"/>
</a>
</g>
</g>
<!-- Node4 -->
<g id="Node000004" class="node">
<title>Node4</title>
<g id="a_Node000004"><a xlink:href="class_game_instance.html#a06fe6dbd18ae41ac7f5f8f79b4f8b99d" target="_top" xlink:title="Initializes game states.">
<polygon fill="white" stroke="#666666" points="472.5,-248 318.5,-248 318.5,-228 472.5,-228 472.5,-248"/>
<text text-anchor="middle" x="395.5" y="-234.5" font-family="Helvetica,sans-Serif" font-size="10.00">GameInstance::InitGameStates</text>
</a>
</g>
</g>
<!-- Node3&#45;&gt;Node4 -->
<g id="edge3_Node000003_Node000004" class="edge">
<title>Node3&#45;&gt;Node4</title>
<g id="a_edge3_Node000003_Node000004"><a xlink:title=" ">
<path fill="none" stroke="#63b8ff" d="M525.08,-238C508.42,-238 490.25,-238 472.95,-238"/>
<polygon fill="#63b8ff" stroke="#63b8ff" points="524.82,-241.5 534.82,-238 524.82,-234.5 524.82,-241.5"/>
</a>
</g>
</g>
<!-- Node5 -->
<g id="Node000005" class="node">
<title>Node5</title>
<g id="a_Node000005"><a xlink:href="class_game_instance.html#a4960d24b6dbc4d273882cb55db1e022c" target="_top" xlink:title="Constructs the game instance.">
<polygon fill="white" stroke="#666666" points="282.5,-248 133,-248 133,-228 282.5,-228 282.5,-248"/>
<text text-anchor="middle" x="207.75" y="-234.5" font-family="Helvetica,sans-Serif" font-size="10.00">GameInstance::GameInstance</text>
</a>
</g>
</g>
<!-- Node4&#45;&gt;Node5 -->
<g id="edge4_Node000004_Node000005" class="edge">
<title>Node4&#45;&gt;Node5</title>
<g id="a_edge4_Node000004_Node000005"><a xlink:title=" ">
<path fill="none" stroke="#63b8ff" d="M306.81,-238C298.75,-238 290.63,-238 282.71,-238"/>
<polygon fill="#63b8ff" stroke="#63b8ff" points="306.63,-241.5 316.63,-238 306.63,-234.5 306.63,-241.5"/>
</a>
</g>
</g>
<!-- Node7 -->
<g id="Node000007" class="node">
<title>Node7</title>
<g id="a_Node000007"><a xlink:href="class_level_one.html#a150f5898ace9c858941cfe46c1b36cb4" target="_top" xlink:title="Resets the level for a new playthrough.">
<polygon fill="white" stroke="#666666" points="252.5,-438 163,-438 163,-418 252.5,-418 252.5,-438"/>
<text text-anchor="middle" x="207.75" y="-424.5" font-family="Helvetica,sans-Serif" font-size="10.00">LevelOne::Reset</text>
</a>
</g>
</g>
<!-- Node6&#45;&gt;Node7 -->
<g id="edge6_Node000006_Node000007" class="edge">
<title>Node6&#45;&gt;Node7</title>
<g id="a_edge6_Node000006_Node000007"><a xlink:title=" ">
<path fill="none" stroke="#63b8ff" d="M496.84,-459.55C444.54,-457.49 377.68,-453.75 318.5,-447 296.79,-444.52 272.86,-440.53 252.9,-436.85"/>
<polygon fill="#63b8ff" stroke="#63b8ff" points="496.47,-463.04 506.6,-459.92 496.74,-456.05 496.47,-463.04"/>
</a>
</g>
</g>
<!-- Node8 -->
<g id="Node000008" class="node">
<title>Node8</title>
<g id="a_Node000008"><a xlink:href="class_level_one.html#a8ca877257c567a5f2441c34476cccb01" target="_top" xlink:title="Starts the level scene, preparing necessary resources.">
<polygon fill="white" stroke="#666666" points="97,-438 0,-438 0,-418 97,-418 97,-438"/>
<text text-anchor="middle" x="48.5" y="-424.5" font-family="Helvetica,sans-Serif" font-size="10.00">LevelOne::OnStart</text>
</a>
</g>
</g>
<!-- Node7&#45;&gt;Node8 -->
<g id="edge7_Node000007_Node000008" class="edge">
<title>Node7&#45;&gt;Node8</title>
<g id="a_edge7_Node000007_Node000008"><a xlink:title=" ">
<path fill="none" stroke="#63b8ff" d="M151.23,-428C133.6,-428 114.27,-428 97.24,-428"/>
<polygon fill="#63b8ff" stroke="#63b8ff" points="151.02,-431.5 161.02,-428 151.02,-424.5 151.02,-431.5"/>
</a>
</g>
</g>
<!-- Node10 -->
<g id="Node000010" class="node">
<title>Node10</title>
<g id="a_Node000010"><a xlink:href="class_menu_state.html#aff364a6503fca58c645a8b40a663f990" target="_top" xlink:title="Constructs the MenuState with a reference to the scene manager and the render window.">
<polygon fill="white" stroke="#666666" points="453.75,-438 337.25,-438 337.25,-418 453.75,-418 453.75,-438"/>
<text text-anchor="middle" x="395.5" y="-424.5" font-family="Helvetica,sans-Serif" font-size="10.00">MenuState::MenuState</text>
</a>
</g>
</g>
<!-- Node9&#45;&gt;Node10 -->
<g id="edge9_Node000009_Node000010" class="edge">
<title>Node9&#45;&gt;Node10</title>
<g id="a_edge9_Node000009_Node000010"><a xlink:title=" ">
<path fill="none" stroke="#63b8ff" d="M518.94,-423.52C497.67,-424.3 474.48,-425.15 454.06,-425.89"/>
<polygon fill="#63b8ff" stroke="#63b8ff" points="518.82,-427.03 528.68,-423.17 518.56,-420.03 518.82,-427.03"/>
</a>
</g>
</g>
<!-- Node12 -->
<g id="Node000012" class="node">
<title>Node12</title>
<g id="a_Node000012"><a xlink:href="class_level_one.html#aab7fa7fff62beadc614eefb210ae0d74" target="_top" xlink:title="Constructs the LevelOne scene with a reference to the scene manager and window.">
<polygon fill="white" stroke="#666666" points="260,-324 155.5,-324 155.5,-304 260,-304 260,-324"/>
<text text-anchor="middle" x="207.75" y="-310.5" font-family="Helvetica,sans-Serif" font-size="10.00">LevelOne::LevelOne</text>
</a>
</g>
</g>
<!-- Node11&#45;&gt;Node12 -->
<g id="edge11_Node000011_Node000012" class="edge">
<title>Node11&#45;&gt;Node12</title>
<g id="a_edge11_Node000011_Node000012"><a xlink:title=" ">
<path fill="none" stroke="#63b8ff" d="M517.91,-283.01C443.36,-290.49 327.07,-302.14 260.4,-308.82"/>
<polygon fill="#63b8ff" stroke="#63b8ff" points="517.95,-286.53 527.55,-282.05 517.25,-279.56 517.95,-286.53"/>
</a>
</g>
</g>
<!-- Node13&#45;&gt;Node12 -->
<g id="edge13_Node000013_Node000012" class="edge">
<title>Node13&#45;&gt;Node12</title>
<g id="a_edge13_Node000013_Node000012"><a xlink:title=" ">
<path fill="none" stroke="#63b8ff" d="M517.91,-314C443.36,-314 327.07,-314 260.4,-314"/>
<polygon fill="#63b8ff" stroke="#63b8ff" points="517.54,-317.5 527.54,-314 517.54,-310.5 517.54,-317.5"/>
</a>
</g>
</g>
<!-- Node14&#45;&gt;Node10 -->
<g id="edge19_Node000014_Node000010" class="edge">
<title>Node14&#45;&gt;Node10</title>
<g id="a_edge19_Node000014_Node000010"><a xlink:title=" ">
<path fill="none" stroke="#63b8ff" d="M538.76,-384.74C518.46,-392.9 494.55,-401.97 472.5,-409 462.78,-412.1 452.23,-415.01 442.18,-417.58"/>
<polygon fill="#63b8ff" stroke="#63b8ff" points="539.98,-388.03 547.93,-381.02 537.35,-381.54 539.98,-388.03"/>
</a>
</g>
</g>
<!-- Node15 -->
<g id="Node000015" class="node">
<title>Node15</title>
<g id="a_Node000015"><a xlink:href="class_credits.html#a58e91d08effadbc3295eb9b06944ec0d" target="_top" xlink:title=" ">
<polygon fill="white" stroke="#666666" points="438,-362 353,-362 353,-342 438,-342 438,-362"/>
<text text-anchor="middle" x="395.5" y="-348.5" font-family="Helvetica,sans-Serif" font-size="10.00">Credits::Credits</text>
</a>
</g>
</g>
<!-- Node14&#45;&gt;Node15 -->
<g id="edge15_Node000014_Node000015" class="edge">
<title>Node14&#45;&gt;Node15</title>
<g id="a_edge15_Node000014_Node000015"><a xlink:title=" ">
<path fill="none" stroke="#63b8ff" d="M506.09,-358.87C482.77,-357.41 458.31,-355.88 438.44,-354.63"/>
<polygon fill="#63b8ff" stroke="#63b8ff" points="505.72,-362.36 515.92,-359.49 506.16,-355.37 505.72,-362.36"/>
</a>
</g>
</g>
<!-- Node16 -->
<g id="Node000016" class="node">
<title>Node16</title>
<g id="a_Node000016"><a xlink:href="class_level_one.html#a07f13cbce0fed886e7c800a52e32158c" target="_top" xlink:title="Initializes the background for the level.">
<polygon fill="white" stroke="#666666" points="459.75,-400 331.25,-400 331.25,-380 459.75,-380 459.75,-400"/>
<text text-anchor="middle" x="395.5" y="-386.5" font-family="Helvetica,sans-Serif" font-size="10.00">LevelOne::InitBackground</text>
</a>
</g>
</g>
<!-- Node14&#45;&gt;Node16 -->
<g id="edge16_Node000014_Node000016" class="edge">
<title>Node14&#45;&gt;Node16</title>
<g id="a_edge16_Node000014_Node000016"><a xlink:title=" ">
<path fill="none" stroke="#63b8ff" d="M506.3,-375.08C490.87,-377.18 474.93,-379.34 460.15,-381.35"/>
<polygon fill="#63b8ff" stroke="#63b8ff" points="506.49,-378.59 515.93,-373.77 505.55,-371.65 506.49,-378.59"/>
</a>
</g>
</g>
<!-- Node16&#45;&gt;Node7 -->
<g id="edge18_Node000016_Node000007" class="edge">
<title>Node16&#45;&gt;Node7</title>
<g id="a_edge18_Node000016_Node000007"><a xlink:title=" ">
<path fill="none" stroke="#63b8ff" d="M331.99,-402.79C306.04,-408.1 276.53,-414.13 252.9,-418.97"/>
<polygon fill="#63b8ff" stroke="#63b8ff" points="332.67,-406.22 341.77,-400.79 331.27,-399.36 332.67,-406.22"/>
</a>
</g>
</g>
<!-- Node16&#45;&gt;Node12 -->
<g id="edge17_Node000016_Node000012" class="edge">
<title>Node16&#45;&gt;Node12</title>
<g id="a_edge17_Node000016_Node000012"><a xlink:title=" ">
<path fill="none" stroke="#63b8ff" d="M334.94,-376.54C329.33,-374.84 323.77,-373 318.5,-371 284.17,-358 246.73,-336.93 225.66,-324.38"/>
<polygon fill="#63b8ff" stroke="#63b8ff" points="333.7,-379.83 344.28,-379.19 335.61,-373.09 333.7,-379.83"/>
</a>
</g>
</g>
<!-- Node18&#45;&gt;Node4 -->
<g id="edge25_Node000018_Node000004" class="edge">
<title>Node18&#45;&gt;Node4</title>
<g id="a_edge25_Node000018_Node000004"><a xlink:title=" ">
<path fill="none" stroke="#63b8ff" d="M549.53,-157.93C535.96,-164.08 520.97,-171.92 508.5,-181 489.69,-194.7 492.59,-207.27 472.5,-219 466.63,-222.43 460.15,-225.25 453.53,-227.55"/>
<polygon fill="#63b8ff" stroke="#63b8ff" points="550.88,-161.16 558.66,-153.97 548.09,-154.74 550.88,-161.16"/>
</a>
</g>
</g>
<!-- Node19 -->
<g id="Node000019" class="node">
<title>Node19</title>
<g id="a_Node000019"><a xlink:href="class_level_one.html#aa2a81cea0271d042063be2aa367f6c02" target="_top" xlink:title="Checks the player&#39;s lives and updates the game state if necessary.">
<polygon fill="white" stroke="#666666" points="453,-210 338,-210 338,-190 453,-190 453,-210"/>
<text text-anchor="middle" x="395.5" y="-196.5" font-family="Helvetica,sans-Serif" font-size="10.00">LevelOne::CheckLives</text>
</a>
</g>
</g>
<!-- Node18&#45;&gt;Node19 -->
<g id="edge22_Node000018_Node000019" class="edge">
<title>Node18&#45;&gt;Node19</title>
<g id="a_edge22_Node000018_Node000019"><a xlink:title=" ">
<path fill="none" stroke="#63b8ff" d="M547.54,-157.09C525.49,-164.58 497.63,-173.73 472.5,-181 462.18,-183.99 450.99,-186.94 440.45,-189.59"/>
<polygon fill="#63b8ff" stroke="#63b8ff" points="548.42,-160.49 556.75,-153.94 546.15,-153.86 548.42,-160.49"/>
</a>
</g>
</g>
<!-- Node21 -->
<g id="Node000021" class="node">
<title>Node21</title>
<g id="a_Node000021"><a xlink:href="class_menu_state.html#aecd8763b82b9bfb5a64a5d7572e9019a" target="_top" xlink:title="Handles user input in the menu scene.">
<polygon fill="white" stroke="#666666" points="456.38,-134 334.62,-134 334.62,-114 456.38,-114 456.38,-134"/>
<text text-anchor="middle" x="395.5" y="-120.5" font-family="Helvetica,sans-Serif" font-size="10.00">MenuState::HandleInput</text>
</a>
</g>
</g>
<!-- Node18&#45;&gt;Node21 -->
<g id="edge24_Node000018_Node000021" class="edge">
<title>Node18&#45;&gt;Node21</title>
<g id="a_edge24_Node000018_Node000021"><a xlink:title=" ">
<path fill="none" stroke="#63b8ff" d="M518.54,-136.12C498.24,-134.1 476.23,-131.92 456.56,-129.96"/>
<polygon fill="#63b8ff" stroke="#63b8ff" points="518.13,-139.59 528.43,-137.1 518.83,-132.63 518.13,-139.59"/>
</a>
</g>
</g>
<!-- Node22 -->
<g id="Node000022" class="node">
<title>Node22</title>
<g id="a_Node000022"><a xlink:href="class_level_one.html#a53f3108775fb3266debed32e9a2284c6" target="_top" xlink:title="Handles the game over state.">
<polygon fill="white" stroke="#666666" points="457.12,-96 333.88,-96 333.88,-76 457.12,-76 457.12,-96"/>
<text text-anchor="middle" x="395.5" y="-82.5" font-family="Helvetica,sans-Serif" font-size="10.00">LevelOne::OnGameOver</text>
</a>
</g>
</g>
<!-- Node18&#45;&gt;Node22 -->
<g id="edge26_Node000018_Node000022" class="edge">
<title>Node18&#45;&gt;Node22</title>
<g id="a_edge26_Node000018_Node000022"><a xlink:title=" ">
<path fill="none" stroke="#63b8ff" d="M547.54,-128.91C525.49,-121.42 497.63,-112.27 472.5,-105 462.18,-102.01 450.99,-99.06 440.45,-96.41"/>
<polygon fill="#63b8ff" stroke="#63b8ff" points="546.15,-132.14 556.75,-132.06 548.42,-125.51 546.15,-132.14"/>
</a>
</g>
</g>
<!-- Node23 -->
<g id="Node000023" class="node">
<title>Node23</title>
<g id="a_Node000023"><a xlink:href="class_credits.html#aaf8dd49979cd73f003c4ae4e5eed472e" target="_top" xlink:title="Updates the scene logic.">
<polygon fill="white" stroke="#666666" points="438,-58 353,-58 353,-38 438,-38 438,-58"/>
<text text-anchor="middle" x="395.5" y="-44.5" font-family="Helvetica,sans-Serif" font-size="10.00">Credits::Update</text>
</a>
</g>
</g>
<!-- Node18&#45;&gt;Node23 -->
<g id="edge27_Node000018_Node000023" class="edge">
<title>Node18&#45;&gt;Node23</title>
<g id="a_edge27_Node000018_Node000023"><a xlink:title=" ">
<path fill="none" stroke="#63b8ff" d="M566.31,-125.55C544.05,-108.35 507.7,-82.46 472.5,-67 461.79,-62.3 449.7,-58.61 438.36,-55.79"/>
<polygon fill="#63b8ff" stroke="#63b8ff" points="564,-128.19 574.03,-131.62 568.33,-122.69 564,-128.19"/>
</a>
</g>
</g>
<!-- Node24 -->
<g id="Node000024" class="node">
<title>Node24</title>
<g id="a_Node000024"><a xlink:href="class_game_over.html#a574908eb0d8bd368a45c986b2e853e14" target="_top" xlink:title="Updates the game over scene every frame.">
<polygon fill="white" stroke="#666666" points="445.88,-20 345.12,-20 345.12,0 445.88,0 445.88,-20"/>
<text text-anchor="middle" x="395.5" y="-6.5" font-family="Helvetica,sans-Serif" font-size="10.00">GameOver::Update</text>
</a>
</g>
</g>
<!-- Node18&#45;&gt;Node24 -->
<g id="edge28_Node000018_Node000024" class="edge">
<title>Node18&#45;&gt;Node24</title>
<g id="a_edge28_Node000018_Node000024"><a xlink:title=" ">
<path fill="none" stroke="#63b8ff" d="M573.66,-123.54C553.89,-97.9 515.62,-53.24 472.5,-29 464.44,-24.47 455.3,-21 446.22,-18.36"/>
<polygon fill="#63b8ff" stroke="#63b8ff" points="570.8,-125.56 579.62,-131.44 576.4,-121.34 570.8,-125.56"/>
</a>
</g>
</g>
<!-- Node25 -->
<g id="Node000025" class="node">
<title>Node25</title>
<g id="a_Node000025"><a xlink:href="class_level_one.html#a49050c25247260db25be9fdee638ab41" target="_top" xlink:title="Updates the level&#45;related UI text, such as level name and lives count.">
<polygon fill="white" stroke="#666666" points="463.88,-172 327.12,-172 327.12,-152 463.88,-152 463.88,-172"/>
<text text-anchor="middle" x="395.5" y="-158.5" font-family="Helvetica,sans-Serif" font-size="10.00">LevelOne::UpdateLevelText</text>
</a>
</g>
</g>
<!-- Node18&#45;&gt;Node25 -->
<g id="edge29_Node000018_Node000025" class="edge">
<title>Node18&#45;&gt;Node25</title>
<g id="a_edge29_Node000018_Node000025"><a xlink:title=" ">
<path fill="none" stroke="#63b8ff" d="M518.54,-149.88C500.88,-151.64 481.92,-153.52 464.33,-155.27"/>
<polygon fill="#63b8ff" stroke="#63b8ff" points="518.83,-153.37 528.43,-148.9 518.13,-146.41 518.83,-153.37"/>
</a>
</g>
</g>
<!-- Node20 -->
<g id="Node000020" class="node">
<title>Node20</title>
<g id="a_Node000020"><a xlink:href="class_level_one.html#ac5f4953425e9d335e735f1cde198a1fb" target="_top" xlink:title="Updates the level scene every frame.">
<polygon fill="white" stroke="#666666" points="255.12,-191 160.38,-191 160.38,-171 255.12,-171 255.12,-191"/>
<text text-anchor="middle" x="207.75" y="-177.5" font-family="Helvetica,sans-Serif" font-size="10.00">LevelOne::Update</text>
</a>
</g>
</g>
<!-- Node19&#45;&gt;Node20 -->
<g id="edge23_Node000019_Node000020" class="edge">
<title>Node19&#45;&gt;Node20</title>
<g id="a_edge23_Node000019_Node000020"><a xlink:title=" ">
<path fill="none" stroke="#63b8ff" d="M326.15,-193.01C302.6,-190.6 276.77,-187.96 255.35,-185.77"/>
<polygon fill="#63b8ff" stroke="#63b8ff" points="325.7,-196.48 336,-194.02 326.41,-189.52 325.7,-196.48"/>
</a>
</g>
</g>
<!-- Node25&#45;&gt;Node20 -->
<g id="edge30_Node000025_Node000020" class="edge">
<title>Node25&#45;&gt;Node20</title>
<g id="a_edge30_Node000025_Node000020"><a xlink:title=" ">
<path fill="none" stroke="#63b8ff" d="M315.43,-170.09C295.02,-172.18 273.69,-174.36 255.52,-176.22"/>
<polygon fill="#63b8ff" stroke="#63b8ff" points="315.55,-173.59 325.15,-169.09 314.84,-166.63 315.55,-173.59"/>
</a>
</g>
</g>
</g>
</svg>
