<?xml version="1.0" encoding="UTF-8" standalone="no"?>
<!DOCTYPE svg PUBLIC "-//W3C//DTD SVG 1.1//EN"
 "http://www.w3.org/Graphics/SVG/1.1/DTD/svg11.dtd">
<!-- Generated by graphviz version 12.2.0 (20241103.1931)
 -->
<!-- Title: LevelOne::Draw Pages: 1 -->
<!--zoomable 142 -->

<svg id="main" version="1.1" xmlns="http://www.w3.org/2000/svg" xmlns:xlink="http://www.w3.org/1999/xlink" xml:space="preserve" onload="init(evt)">

<style type="text/css"><![CDATA[
.node, .edge {opacity: 0.7;}
.node.selected, .edge.selected {opacity: 1;}
.edge:hover path { stroke: red; }
.edge:hover polygon { stroke: red; fill: red; }
]]></style>

<defs>
  <circle id="rim" cx="0" cy="0" r="7"/>
  <circle id="rim2" cx="0" cy="0" r="3.5"/>
  <g id="zoomPlus">
    <use xlink:href="#rim" fill="#404040"><set attributeName="fill" to="#808080" begin="zoomplus.mouseover" end="zoomplus.mouseout"/></use>
    <path d="M-4,0h8M0,-4v8" fill="none" stroke="white" stroke-width="1.5" pointer-events="none"/>
  </g>
  <g id="zoomMin">
    <use xlink:href="#rim" fill="#404040"><set attributeName="fill" to="#808080" begin="zoomminus.mouseover" end="zoomminus.mouseout"/></use>
    <path d="M-4,0h8" fill="none" stroke="white" stroke-width="1.5" pointer-events="none"/>
  </g>
  <g id="arrowUp" transform="translate(30 24)">
    <use xlink:href="#rim"/>
    <path pointer-events="none" fill="none" stroke="white" stroke-width="1.5" d="M0,-3.0v7 M-2.5,-0.5L0,-3.0L2.5,-0.5"/>
  </g>
  <g id="arrowRight" transform="rotate(90) translate(36 -43)">
    <use xlink:href="#rim"/>
    <path pointer-events="none" fill="none" stroke="white" stroke-width="1.5" d="M0,-3.0v7 M-2.5,-0.5L0,-3.0L2.5,-0.5"/>
  </g>
  <g id="arrowDown" transform="rotate(180) translate(-30 -48)">
    <use xlink:href="#rim"/>
    <path pointer-events="none" fill="none" stroke="white" stroke-width="1.5" d="M0,-3.0v7 M-2.5,-0.5L0,-3.0L2.5,-0.5"/>
  </g>
  <g id="arrowLeft" transform="rotate(270) translate(-36 17)">
    <use xlink:href="#rim"/>
    <path pointer-events="none" fill="none" stroke="white" stroke-width="1.5" d="M0,-3.0v7 M-2.5,-0.5L0,-3.0L2.5,-0.5"/>
  </g>
  <g id="resetDef">
    <use xlink:href="#rim2" fill="#404040"><set attributeName="fill" to="#808080" begin="reset.mouseover" end="reset.mouseout"/></use>
  </g>
</defs>
<script type="application/ecmascript">
var viewWidth = 574;
var viewHeight = 142;
var sectionId = 'dynsection-7';
</script>
<script type="application/ecmascript" xlink:href="svg.min.js"/>
<svg id="graph" class="graph">
<g id="viewport">
<title>LevelOne::Draw</title>
<!-- Node1 -->
<g id="Node000001" class="node">
<title>Node1</title>
<g id="a_Node000001"><a xlink:title="Draws the level scene to the window.">
<polygon fill="#999999" stroke="#666666" points="86.5,-77 0,-77 0,-57 86.5,-57 86.5,-77"/>
<text text-anchor="middle" x="43.25" y="-63.5" font-family="Helvetica,sans-Serif" font-size="10.00">LevelOne::Draw</text>
</a>
</g>
</g>
<!-- Node2 -->
<g id="Node000002" class="node">
<title>Node2</title>
<g id="a_Node000002"><a xlink:href="class_level_one.html#ac05ae7c3ef582a61690ff18b7e5cb843" target="_top" xlink:title="Draws the background to the window.">
<polygon fill="white" stroke="#666666" points="266,-134 122.5,-134 122.5,-114 266,-114 266,-134"/>
<text text-anchor="middle" x="194.25" y="-120.5" font-family="Helvetica,sans-Serif" font-size="10.00">LevelOne::DrawBackgrounds</text>
</a>
</g>
</g>
<!-- Node1&#45;&gt;Node2 -->
<g id="edge1_Node000001_Node000002" class="edge">
<title>Node1&#45;&gt;Node2</title>
<g id="a_edge1_Node000001_Node000002"><a xlink:title=" ">
<path fill="none" stroke="#63b8ff" d="M63.1,-77.41C78.68,-85.7 101.56,-97.18 122.5,-105 127.52,-106.87 132.81,-108.65 138.14,-110.3"/>
<polygon fill="#63b8ff" stroke="#63b8ff" points="137.03,-113.62 147.61,-113.09 139.01,-106.91 137.03,-113.62"/>
</a>
</g>
</g>
<!-- Node3 -->
<g id="Node000003" class="node">
<title>Node3</title>
<g id="a_Node000003"><a xlink:href="class_level_one.html#ae65028a0125d115132877bfb149ae165" target="_top" xlink:title="Draws the enemies to the window.">
<polygon fill="white" stroke="#666666" points="256.62,-96 131.88,-96 131.88,-76 256.62,-76 256.62,-96"/>
<text text-anchor="middle" x="194.25" y="-82.5" font-family="Helvetica,sans-Serif" font-size="10.00">LevelOne::DrawEnemies</text>
</a>
</g>
</g>
<!-- Node1&#45;&gt;Node3 -->
<g id="edge2_Node000001_Node000003" class="edge">
<title>Node1&#45;&gt;Node3</title>
<g id="a_edge2_Node000001_Node000003"><a xlink:title=" ">
<path fill="none" stroke="#63b8ff" d="M86.95,-72.44C97.33,-73.77 108.73,-75.22 120.09,-76.67"/>
<polygon fill="#63b8ff" stroke="#63b8ff" points="119.53,-80.13 129.89,-77.92 120.41,-73.18 119.53,-80.13"/>
</a>
</g>
</g>
<!-- Node4 -->
<g id="Node000004" class="node">
<title>Node4</title>
<g id="a_Node000004"><a xlink:href="class_level_one.html#a8cd8e028469d2a83df7258c217e5df39" target="_top" xlink:title="Draws the spaceship to the window.">
<polygon fill="white" stroke="#666666" points="260.38,-58 128.12,-58 128.12,-38 260.38,-38 260.38,-58"/>
<text text-anchor="middle" x="194.25" y="-44.5" font-family="Helvetica,sans-Serif" font-size="10.00">LevelOne::DrawSpaceship</text>
</a>
</g>
</g>
<!-- Node1&#45;&gt;Node4 -->
<g id="edge3_Node000001_Node000004" class="edge">
<title>Node1&#45;&gt;Node4</title>
<g id="a_edge3_Node000001_Node000004"><a xlink:title=" ">
<path fill="none" stroke="#63b8ff" d="M86.95,-61.56C96.19,-60.38 106.25,-59.09 116.36,-57.81"/>
<polygon fill="#63b8ff" stroke="#63b8ff" points="116.78,-61.28 126.26,-56.54 115.89,-54.34 116.78,-61.28"/>
</a>
</g>
</g>
<!-- Node8 -->
<g id="Node000008" class="node">
<title>Node8</title>
<g id="a_Node000008"><a xlink:href="class_level_one.html#afaf089d753cb2040b2a752fd7199d788" target="_top" xlink:title="Draws the UI text elements (level, lives, paused text) to the window.">
<polygon fill="white" stroke="#666666" points="249.5,-20 139,-20 139,0 249.5,0 249.5,-20"/>
<text text-anchor="middle" x="194.25" y="-6.5" font-family="Helvetica,sans-Serif" font-size="10.00">LevelOne::DrawTexts</text>
</a>
</g>
</g>
<!-- Node1&#45;&gt;Node8 -->
<g id="edge7_Node000001_Node000008" class="edge">
<title>Node1&#45;&gt;Node8</title>
<g id="a_edge7_Node000001_Node000008"><a xlink:title=" ">
<path fill="none" stroke="#63b8ff" d="M63.1,-56.59C78.68,-48.3 101.56,-36.82 122.5,-29 127.52,-27.13 132.81,-25.35 138.14,-23.7"/>
<polygon fill="#63b8ff" stroke="#63b8ff" points="139.01,-27.09 147.61,-20.91 137.03,-20.38 139.01,-27.09"/>
</a>
</g>
</g>
<!-- Node5 -->
<g id="Node000005" class="node">
<title>Node5</title>
<g id="a_Node000005"><a xlink:href="class_spaceship.html#a114f821d9c5173a3afdd857fd277c060" target="_top" xlink:title="Draws the spaceship and its projectiles to the screen.">
<polygon fill="white" stroke="#666666" points="393,-58 302,-58 302,-38 393,-38 393,-58"/>
<text text-anchor="middle" x="347.5" y="-44.5" font-family="Helvetica,sans-Serif" font-size="10.00">Spaceship::Draw</text>
</a>
</g>
</g>
<!-- Node4&#45;&gt;Node5 -->
<g id="edge4_Node000004_Node000005" class="edge">
<title>Node4&#45;&gt;Node5</title>
<g id="a_edge4_Node000004_Node000005"><a xlink:title=" ">
<path fill="none" stroke="#63b8ff" d="M260.71,-48C270.59,-48 280.7,-48 290.36,-48"/>
<polygon fill="#63b8ff" stroke="#63b8ff" points="290.35,-51.5 300.35,-48 290.35,-44.5 290.35,-51.5"/>
</a>
</g>
</g>
<!-- Node6 -->
<g id="Node000006" class="node">
<title>Node6</title>
<g id="a_Node000006"><a xlink:href="class_spaceship.html#a9dfaca2d72e43533bf6ad31a1dcd04fd" target="_top" xlink:title="Draws all active projectiles to the window.">
<polygon fill="white" stroke="#666666" points="563.12,-77 431.62,-77 431.62,-57 563.12,-57 563.12,-77"/>
<text text-anchor="middle" x="497.38" y="-63.5" font-family="Helvetica,sans-Serif" font-size="10.00">Spaceship::DrawProjectile</text>
</a>
</g>
</g>
<!-- Node5&#45;&gt;Node6 -->
<g id="edge5_Node000005_Node000006" class="edge">
<title>Node5&#45;&gt;Node6</title>
<g id="a_edge5_Node000005_Node000006"><a xlink:title=" ">
<path fill="none" stroke="#63b8ff" d="M393.27,-53.75C401.79,-54.85 410.93,-56.02 420.11,-57.2"/>
<polygon fill="#63b8ff" stroke="#63b8ff" points="419.43,-60.64 429.8,-58.45 420.33,-53.7 419.43,-60.64"/>
</a>
</g>
</g>
<!-- Node7 -->
<g id="Node000007" class="node">
<title>Node7</title>
<g id="a_Node000007"><a xlink:href="class_spaceship.html#a444e1d452b234aa6d3e52d636d75547e" target="_top" xlink:title="Draws the spaceship to the window.">
<polygon fill="white" stroke="#666666" points="565.75,-39 429,-39 429,-19 565.75,-19 565.75,-39"/>
<text text-anchor="middle" x="497.38" y="-25.5" font-family="Helvetica,sans-Serif" font-size="10.00">Spaceship::DrawSpaceship</text>
</a>
</g>
</g>
<!-- Node5&#45;&gt;Node7 -->
<g id="edge6_Node000005_Node000007" class="edge">
<title>Node5&#45;&gt;Node7</title>
<g id="a_edge6_Node000005_Node000007"><a xlink:title=" ">
<path fill="none" stroke="#63b8ff" d="M393.27,-42.25C400.92,-41.26 409.08,-40.22 417.32,-39.16"/>
<polygon fill="#63b8ff" stroke="#63b8ff" points="417.59,-42.65 427.06,-37.91 416.7,-35.71 417.59,-42.65"/>
</a>
</g>
</g>
</g>
</svg>

<g id="navigator" transform="translate(0 0)" fill="#404254">
  <rect fill="#f2f5e9" fill-opacity="0.5" stroke="#606060" stroke-width=".5" x="0" y="0" width="60" height="60"/>
  <use id="zoomplus" xlink:href="#zoomPlus" x="17" y="9" onmousedown="handleZoom(evt,'in')"/>
  <use id="zoomminus" xlink:href="#zoomMin" x="42" y="9" onmousedown="handleZoom(evt,'out')"/>
  <use id="reset" xlink:href="#resetDef" x="30" y="36" onmousedown="handleReset()"/>
   <use id="arrowup" xlink:href="#arrowUp" x="0" y="0" onmousedown="handlePan(0,-1)"/>
  <use id="arrowright" xlink:href="#arrowRight" x="0" y="0" onmousedown="handlePan(1,0)"/>
  <use id="arrowdown" xlink:href="#arrowDown" x="0" y="0" onmousedown="handlePan(0,1)"/>
  <use id="arrowleft" xlink:href="#arrowLeft" x="0" y="0" onmousedown="handlePan(-1,0)"/>
</g>
<svg viewBox="0 0 15 15" width="100%" height="30px" preserveAspectRatio="xMaxYMin meet">
 <g id="arrow_out" transform="scale(0.3 0.3)">
  <a xlink:href="class_level_one_ae117669d46ff60a7318be87a105df94c_cgraph_org.svg" target="_base">
   <rect id="button" ry="5" rx="5" y="6" x="6" height="38" width="38"
        fill="#f2f5e9" fill-opacity="0.5" stroke="#606060" stroke-width="1.0"/>
   <path id="arrow"
     d="M 11.500037,31.436501 C 11.940474,20.09759 22.043105,11.32322 32.158766,21.979434 L 37.068811,17.246167 C 37.068811,17.246167 37.088388,32 37.088388,32 L 22.160133,31.978069 C 22.160133,31.978069 26.997745,27.140456 26.997745,27.140456 C 18.528582,18.264221 13.291696,25.230495 11.500037,31.436501 z"
     style="fill:#404040;"/>
  </a>
 </g>
</svg>

<style type='text/css'>
<![CDATA[
[data-mouse-over-selected='false'] { opacity: 0.7; }
[data-mouse-over-selected='true']  { opacity: 1.0; }
]]>
</style>
<script type="application/ecmascript"><![CDATA[
document.addEventListener('DOMContentLoaded', (event) => {
  highlightEdges();
  highlightAdjacentNodes();
});
]]></script>
</svg>
