<?xml version="1.0" encoding="UTF-8" standalone="no"?>
<!DOCTYPE svg PUBLIC "-//W3C//DTD SVG 1.1//EN"
 "http://www.w3.org/Graphics/SVG/1.1/DTD/svg11.dtd">
<!-- Generated by graphviz version 12.2.0 (20241103.1931)
 -->
<!-- Title: LevelOne::Update Pages: 1 -->
<svg width="865pt" height="351pt"
 viewBox="0.00 0.00 865.00 351.00" xmlns="http://www.w3.org/2000/svg" xmlns:xlink="http://www.w3.org/1999/xlink">
<g id="graph0" class="graph" transform="scale(1 1) rotate(0) translate(4 347)">
<title>LevelOne::Update</title>
<!-- Node1 -->
<g id="Node000001" class="node">
<title>Node1</title>
<g id="a_Node000001"><a xlink:title="Updates the level scene every frame.">
<polygon fill="#999999" stroke="#666666" points="94.75,-192 0,-192 0,-172 94.75,-172 94.75,-192"/>
<text text-anchor="middle" x="47.38" y="-178.5" font-family="Helvetica,sans-Serif" font-size="10.00">LevelOne::Update</text>
</a>
</g>
</g>
<!-- Node2 -->
<g id="Node000002" class="node">
<title>Node2</title>
<g id="a_Node000002"><a xlink:href="class_level_one.html#aa9b2531fc298d7d9a5cdf0bd96456921" target="_top" xlink:title="Checks and resolves collisions between the spaceship and enemies.">
<polygon fill="white" stroke="#666666" points="276.5,-299 131.5,-299 131.5,-267 276.5,-267 276.5,-299"/>
<text text-anchor="start" x="139.5" y="-285.5" font-family="Helvetica,sans-Serif" font-size="10.00">LevelOne::CheckAndResolve</text>
<text text-anchor="middle" x="204" y="-273.5" font-family="Helvetica,sans-Serif" font-size="10.00">Collisions</text>
</a>
</g>
</g>
<!-- Node1&#45;&gt;Node2 -->
<g id="edge1_Node000001_Node000002" class="edge">
<title>Node1&#45;&gt;Node2</title>
<g id="a_edge1_Node000001_Node000002"><a xlink:title=" ">
<path fill="none" stroke="#63b8ff" d="M56.97,-192.29C70.91,-208.4 100.03,-239.62 130.75,-258 132.92,-259.3 135.18,-260.55 137.48,-261.74"/>
<polygon fill="#63b8ff" stroke="#63b8ff" points="135.96,-264.89 146.5,-265.98 138.94,-258.56 135.96,-264.89"/>
</a>
</g>
</g>
<!-- Node8 -->
<g id="Node000008" class="node">
<title>Node8</title>
<g id="a_Node000008"><a xlink:href="class_level_one.html#aa2a81cea0271d042063be2aa367f6c02" target="_top" xlink:title="Checks the player&#39;s lives and updates the game state if necessary.">
<polygon fill="white" stroke="#666666" points="261.5,-249 146.5,-249 146.5,-229 261.5,-229 261.5,-249"/>
<text text-anchor="middle" x="204" y="-235.5" font-family="Helvetica,sans-Serif" font-size="10.00">LevelOne::CheckLives</text>
</a>
</g>
</g>
<!-- Node1&#45;&gt;Node8 -->
<g id="edge7_Node000001_Node000008" class="edge">
<title>Node1&#45;&gt;Node8</title>
<g id="a_edge7_Node000001_Node000008"><a xlink:title=" ">
<path fill="none" stroke="#63b8ff" d="M68.27,-192.38C84.71,-200.65 108.81,-212.12 130.75,-220 136.11,-221.92 141.75,-223.74 147.42,-225.44"/>
<polygon fill="#63b8ff" stroke="#63b8ff" points="146.27,-228.75 156.85,-228.14 148.19,-222.02 146.27,-228.75"/>
</a>
</g>
</g>
<!-- Node12 -->
<g id="Node000012" class="node">
<title>Node12</title>
<g id="a_Node000012"><a xlink:href="class_level_one.html#a9dec36f6529ca8c360d058981ccbd6d2" target="_top" xlink:title="Updates the background, including parallax effects if applicable.">
<polygon fill="white" stroke="#666666" points="277.25,-211 130.75,-211 130.75,-191 277.25,-191 277.25,-211"/>
<text text-anchor="middle" x="204" y="-197.5" font-family="Helvetica,sans-Serif" font-size="10.00">LevelOne::UpdateBackground</text>
</a>
</g>
</g>
<!-- Node1&#45;&gt;Node12 -->
<g id="edge11_Node000001_Node000012" class="edge">
<title>Node1&#45;&gt;Node12</title>
<g id="a_edge11_Node000001_Node000012"><a xlink:title=" ">
<path fill="none" stroke="#63b8ff" d="M95.19,-187.75C102.83,-188.69 110.94,-189.69 119.15,-190.7"/>
<polygon fill="#63b8ff" stroke="#63b8ff" points="118.52,-194.15 128.87,-191.89 119.37,-187.2 118.52,-194.15"/>
</a>
</g>
</g>
<!-- Node13 -->
<g id="Node000013" class="node">
<title>Node13</title>
<g id="a_Node000013"><a xlink:href="class_level_one.html#a4a9202c914f2e542524ae97282f783c0" target="_top" xlink:title="Updates the enemies&#39; behaviors and positions.">
<polygon fill="white" stroke="#666666" points="270.5,-173 137.5,-173 137.5,-153 270.5,-153 270.5,-173"/>
<text text-anchor="middle" x="204" y="-159.5" font-family="Helvetica,sans-Serif" font-size="10.00">LevelOne::UpdateEnemies</text>
</a>
</g>
</g>
<!-- Node1&#45;&gt;Node13 -->
<g id="edge12_Node000001_Node000013" class="edge">
<title>Node1&#45;&gt;Node13</title>
<g id="a_edge12_Node000001_Node000013"><a xlink:title=" ">
<path fill="none" stroke="#63b8ff" d="M95.19,-176.25C104.91,-175.05 115.41,-173.76 125.89,-172.47"/>
<polygon fill="#63b8ff" stroke="#63b8ff" points="126.24,-175.96 135.73,-171.27 125.38,-169.01 126.24,-175.96"/>
</a>
</g>
</g>
<!-- Node14 -->
<g id="Node000014" class="node">
<title>Node14</title>
<g id="a_Node000014"><a xlink:href="class_level_one.html#a49050c25247260db25be9fdee638ab41" target="_top" xlink:title="Updates the level&#45;related UI text, such as level name and lives count.">
<polygon fill="white" stroke="#666666" points="272.38,-135 135.62,-135 135.62,-115 272.38,-115 272.38,-135"/>
<text text-anchor="middle" x="204" y="-121.5" font-family="Helvetica,sans-Serif" font-size="10.00">LevelOne::UpdateLevelText</text>
</a>
</g>
</g>
<!-- Node1&#45;&gt;Node14 -->
<g id="edge13_Node000001_Node000014" class="edge">
<title>Node1&#45;&gt;Node14</title>
<g id="a_edge13_Node000001_Node000014"><a xlink:title=" ">
<path fill="none" stroke="#63b8ff" d="M68.27,-171.62C84.71,-163.35 108.81,-151.88 130.75,-144 136.11,-142.08 141.75,-140.26 147.42,-138.56"/>
<polygon fill="#63b8ff" stroke="#63b8ff" points="148.19,-141.98 156.85,-135.86 146.27,-135.25 148.19,-141.98"/>
</a>
</g>
</g>
<!-- Node15 -->
<g id="Node000015" class="node">
<title>Node15</title>
<g id="a_Node000015"><a xlink:href="class_level_one.html#a9bd86c94bf7851dd1c230a0f7917c204" target="_top" xlink:title="Updates the spaceship position and actions.">
<polygon fill="white" stroke="#666666" points="274.25,-97 133.75,-97 133.75,-77 274.25,-77 274.25,-97"/>
<text text-anchor="middle" x="204" y="-83.5" font-family="Helvetica,sans-Serif" font-size="10.00">LevelOne::UpdateSpaceship</text>
</a>
</g>
</g>
<!-- Node1&#45;&gt;Node15 -->
<g id="edge15_Node000001_Node000015" class="edge">
<title>Node1&#45;&gt;Node15</title>
<g id="a_edge15_Node000001_Node000015"><a xlink:title=" ">
<path fill="none" stroke="#63b8ff" d="M56.58,-171.7C70.22,-155.28 99.18,-123.29 130.75,-106 133.78,-104.34 136.96,-102.82 140.23,-101.43"/>
<polygon fill="#63b8ff" stroke="#63b8ff" points="141.35,-104.75 149.48,-97.94 138.88,-98.2 141.35,-104.75"/>
</a>
</g>
</g>
<!-- Node3 -->
<g id="Node000003" class="node">
<title>Node3</title>
<g id="a_Node000003"><a xlink:href="namespace_gameplay_utility.html#af2f86a3f5aad8dd1baf691129c62854b" target="_top" xlink:title="Checks for collisions between projectiles and enemies.">
<polygon fill="white" stroke="#666666" points="464.25,-343 313.25,-343 313.25,-311 464.25,-311 464.25,-343"/>
<text text-anchor="start" x="321.25" y="-329.5" font-family="Helvetica,sans-Serif" font-size="10.00">GameplayUtility::CheckEnemy</text>
<text text-anchor="middle" x="388.75" y="-317.5" font-family="Helvetica,sans-Serif" font-size="10.00">Collision</text>
</a>
</g>
</g>
<!-- Node2&#45;&gt;Node3 -->
<g id="edge2_Node000002_Node000003" class="edge">
<title>Node2&#45;&gt;Node3</title>
<g id="a_edge2_Node000002_Node000003"><a xlink:title=" ">
<path fill="none" stroke="#63b8ff" d="M273.31,-299.45C284.68,-302.18 296.56,-305.04 308.18,-307.84"/>
<polygon fill="#63b8ff" stroke="#63b8ff" points="307.21,-311.21 317.75,-310.15 308.84,-304.4 307.21,-311.21"/>
</a>
</g>
</g>
<!-- Node4 -->
<g id="Node000004" class="node">
<title>Node4</title>
<g id="a_Node000004"><a xlink:href="class_spaceship.html#a0d3e300dc2814aea1f7c0f8127466087" target="_top" xlink:title="Gets the list of projectiles currently fired by the spaceship.">
<polygon fill="white" stroke="#666666" points="453.38,-293 324.12,-293 324.12,-273 453.38,-273 453.38,-293"/>
<text text-anchor="middle" x="388.75" y="-279.5" font-family="Helvetica,sans-Serif" font-size="10.00">Spaceship::GetProjectiles</text>
</a>
</g>
</g>
<!-- Node2&#45;&gt;Node4 -->
<g id="edge3_Node000002_Node000004" class="edge">
<title>Node2&#45;&gt;Node4</title>
<g id="a_edge3_Node000002_Node000004"><a xlink:title=" ">
<path fill="none" stroke="#63b8ff" d="M276.97,-283C288.7,-283 300.88,-283 312.68,-283"/>
<polygon fill="#63b8ff" stroke="#63b8ff" points="312.34,-286.5 322.34,-283 312.34,-279.5 312.34,-286.5"/>
</a>
</g>
</g>
<!-- Node5 -->
<g id="Node000005" class="node">
<title>Node5</title>
<g id="a_Node000005"><a xlink:href="namespace_gameplay_utility.html#a019f2cb298967e143d649e5137672a86" target="_top" xlink:title="Checks if any cow projectiles hit the spaceship.">
<polygon fill="white" stroke="#666666" points="459,-255 318.5,-255 318.5,-223 459,-223 459,-255"/>
<text text-anchor="start" x="326.5" y="-241.5" font-family="Helvetica,sans-Serif" font-size="10.00">GameplayUtility::HasEnemy</text>
<text text-anchor="middle" x="388.75" y="-229.5" font-family="Helvetica,sans-Serif" font-size="10.00">ProjectileHitSpaceship</text>
</a>
</g>
</g>
<!-- Node2&#45;&gt;Node5 -->
<g id="edge4_Node000002_Node000005" class="edge">
<title>Node2&#45;&gt;Node5</title>
<g id="a_edge4_Node000002_Node000005"><a xlink:title=" ">
<path fill="none" stroke="#63b8ff" d="M273.31,-266.55C284.68,-263.82 296.56,-260.96 308.18,-258.16"/>
<polygon fill="#63b8ff" stroke="#63b8ff" points="308.84,-261.6 317.75,-255.85 307.21,-254.79 308.84,-261.6"/>
</a>
</g>
</g>
<!-- Node6 -->
<g id="Node000006" class="node">
<title>Node6</title>
<g id="a_Node000006"><a xlink:href="class_spaceship.html#a0b67cc4317b4bc2b0c759e3f3621cc97" target="_top" xlink:title="Gets the spaceship&#39;s sprite.">
<polygon fill="white" stroke="#666666" points="633.62,-279 524.62,-279 524.62,-259 633.62,-259 633.62,-279"/>
<text text-anchor="middle" x="579.12" y="-265.5" font-family="Helvetica,sans-Serif" font-size="10.00">Spaceship::GetSprite</text>
</a>
</g>
</g>
<!-- Node5&#45;&gt;Node6 -->
<g id="edge5_Node000005_Node000006" class="edge">
<title>Node5&#45;&gt;Node6</title>
<g id="a_edge5_Node000005_Node000006"><a xlink:title=" ">
<path fill="none" stroke="#63b8ff" d="M459.36,-250.09C476.98,-252.89 495.84,-255.9 513.22,-258.66"/>
<polygon fill="#63b8ff" stroke="#63b8ff" points="512.48,-262.09 522.91,-260.21 513.59,-255.18 512.48,-262.09"/>
</a>
</g>
</g>
<!-- Node7 -->
<g id="Node000007" class="node">
<title>Node7</title>
<g id="a_Node000007"><a xlink:href="class_spaceship.html#a966d043a3d9502ddc700dc67c562de4d" target="_top" xlink:title="Handles the spaceship being hit by an enemy or obstacle.">
<polygon fill="white" stroke="#666666" points="625.75,-241 532.5,-241 532.5,-221 625.75,-221 625.75,-241"/>
<text text-anchor="middle" x="579.12" y="-227.5" font-family="Helvetica,sans-Serif" font-size="10.00">Spaceship::OnHit</text>
</a>
</g>
</g>
<!-- Node5&#45;&gt;Node7 -->
<g id="edge6_Node000005_Node000007" class="edge">
<title>Node5&#45;&gt;Node7</title>
<g id="a_edge6_Node000005_Node000007"><a xlink:title=" ">
<path fill="none" stroke="#63b8ff" d="M459.36,-236.04C479.59,-235.18 501.45,-234.26 520.83,-233.43"/>
<polygon fill="#63b8ff" stroke="#63b8ff" points="520.88,-236.93 530.72,-233.01 520.58,-229.94 520.88,-236.93"/>
</a>
</g>
</g>
<!-- Node9 -->
<g id="Node000009" class="node">
<title>Node9</title>
<g id="a_Node000009"><a xlink:href="class_scene_manager.html#a923a348879950dfdeba731f5fbcaf731" target="_top" xlink:title="Switches the currently active scene.">
<polygon fill="white" stroke="#666666" points="447.38,-195 330.12,-195 330.12,-175 447.38,-175 447.38,-195"/>
<text text-anchor="middle" x="388.75" y="-181.5" font-family="Helvetica,sans-Serif" font-size="10.00">SceneManager::Switch</text>
</a>
</g>
</g>
<!-- Node8&#45;&gt;Node9 -->
<g id="edge8_Node000008_Node000009" class="edge">
<title>Node8&#45;&gt;Node9</title>
<g id="a_edge8_Node000008_Node000009"><a xlink:title=" ">
<path fill="none" stroke="#63b8ff" d="M246.36,-228.5C256.49,-225.82 267.28,-222.89 277.25,-220 299.92,-213.43 325.01,-205.54 345.54,-198.91"/>
<polygon fill="#63b8ff" stroke="#63b8ff" points="346.57,-202.26 355,-195.84 344.41,-195.6 346.57,-202.26"/>
</a>
</g>
</g>
<!-- Node10 -->
<g id="Node000010" class="node">
<title>Node10</title>
<g id="a_Node000010"><a xlink:href="class_log.html#a0602808efc4b6a11f68f0c9ee2df135e" target="_top" xlink:title="Prints a plain text message with a given log level.">
<polygon fill="white" stroke="#666666" points="608.12,-195 550.12,-195 550.12,-175 608.12,-175 608.12,-195"/>
<text text-anchor="middle" x="579.12" y="-181.5" font-family="Helvetica,sans-Serif" font-size="10.00">Log::Print</text>
</a>
</g>
</g>
<!-- Node9&#45;&gt;Node10 -->
<g id="edge9_Node000009_Node000010" class="edge">
<title>Node9&#45;&gt;Node10</title>
<g id="a_edge9_Node000009_Node000010"><a xlink:title=" ">
<path fill="none" stroke="#63b8ff" d="M447.81,-185C477.15,-185 512.01,-185 538.28,-185"/>
<polygon fill="#63b8ff" stroke="#63b8ff" points="538.19,-188.5 548.19,-185 538.19,-181.5 538.19,-188.5"/>
</a>
</g>
</g>
<!-- Node11 -->
<g id="Node000011" class="node">
<title>Node11</title>
<g id="a_Node000011"><a xlink:href="class_log.html#a758948f266c4aa6fabbf9b172a018d43" target="_top" xlink:title="Returns the string representation of a log level.">
<polygon fill="white" stroke="#666666" points="821.75,-195 729.25,-195 729.25,-175 821.75,-175 821.75,-195"/>
<text text-anchor="middle" x="775.5" y="-181.5" font-family="Helvetica,sans-Serif" font-size="10.00">Log::GetLogLevel</text>
</a>
</g>
</g>
<!-- Node10&#45;&gt;Node11 -->
<g id="edge10_Node000010_Node000011" class="edge">
<title>Node10&#45;&gt;Node11</title>
<g id="a_edge10_Node000010_Node000011"><a xlink:title=" ">
<path fill="none" stroke="#63b8ff" d="M608.39,-185C636.89,-185 681.69,-185 717.58,-185"/>
<polygon fill="#63b8ff" stroke="#63b8ff" points="717.38,-188.5 727.38,-185 717.38,-181.5 717.38,-188.5"/>
</a>
</g>
</g>
<!-- Node14&#45;&gt;Node9 -->
<g id="edge14_Node000014_Node000009" class="edge">
<title>Node14&#45;&gt;Node9</title>
<g id="a_edge14_Node000014_Node000009"><a xlink:title=" ">
<path fill="none" stroke="#63b8ff" d="M247.61,-135.46C257.4,-138.07 267.73,-140.99 277.25,-144 302.34,-151.93 330.1,-162.24 351.52,-170.54"/>
<polygon fill="#63b8ff" stroke="#63b8ff" points="350.1,-173.74 360.69,-174.12 352.65,-167.22 350.1,-173.74"/>
</a>
</g>
</g>
<!-- Node16 -->
<g id="Node000016" class="node">
<title>Node16</title>
<g id="a_Node000016"><a xlink:href="class_spaceship.html#a5a1432606489e09a118be526dca09773" target="_top" xlink:title="Updates the spaceship&#39;s state and actions.">
<polygon fill="white" stroke="#666666" points="438.38,-97 339.12,-97 339.12,-77 438.38,-77 438.38,-97"/>
<text text-anchor="middle" x="388.75" y="-83.5" font-family="Helvetica,sans-Serif" font-size="10.00">Spaceship::Update</text>
</a>
</g>
</g>
<!-- Node15&#45;&gt;Node16 -->
<g id="edge16_Node000015_Node000016" class="edge">
<title>Node15&#45;&gt;Node16</title>
<g id="a_edge16_Node000015_Node000016"><a xlink:title=" ">
<path fill="none" stroke="#63b8ff" d="M274.61,-87C291.99,-87 310.48,-87 327.36,-87"/>
<polygon fill="#63b8ff" stroke="#63b8ff" points="327.25,-90.5 337.25,-87 327.25,-83.5 327.25,-90.5"/>
</a>
</g>
</g>
<!-- Node17 -->
<g id="Node000017" class="node">
<title>Node17</title>
<g id="a_Node000017"><a xlink:href="class_spaceship.html#a5281add3949841bea32a358ff41050ab" target="_top" xlink:title="Calculates and updates the spaceship&#39;s position based on the cursor&#39;s position.">
<polygon fill="white" stroke="#666666" points="658,-147 500.25,-147 500.25,-115 658,-115 658,-147"/>
<text text-anchor="start" x="508.25" y="-133.5" font-family="Helvetica,sans-Serif" font-size="10.00">Spaceship::CalculateAndUpdate</text>
<text text-anchor="middle" x="579.12" y="-121.5" font-family="Helvetica,sans-Serif" font-size="10.00">CursorPosition</text>
</a>
</g>
</g>
<!-- Node16&#45;&gt;Node17 -->
<g id="edge17_Node000016_Node000017" class="edge">
<title>Node16&#45;&gt;Node17</title>
<g id="a_edge17_Node000016_Node000017"><a xlink:title=" ">
<path fill="none" stroke="#63b8ff" d="M434.39,-97.43C453.01,-101.78 475.25,-106.97 496.6,-111.96"/>
<polygon fill="#63b8ff" stroke="#63b8ff" points="495.65,-115.33 506.19,-114.2 497.25,-108.51 495.65,-115.33"/>
</a>
</g>
</g>
<!-- Node18 -->
<g id="Node000018" class="node">
<title>Node18</title>
<g id="a_Node000018"><a xlink:href="class_spaceship.html#a005ba375099423cbfe0cbb402965cd35" target="_top" xlink:title="Handles the spaceship firing a projectile.">
<polygon fill="white" stroke="#666666" points="652.38,-97 505.88,-97 505.88,-77 652.38,-77 652.38,-97"/>
<text text-anchor="middle" x="579.12" y="-83.5" font-family="Helvetica,sans-Serif" font-size="10.00">Spaceship::OnProjectileShoot</text>
</a>
</g>
</g>
<!-- Node16&#45;&gt;Node18 -->
<g id="edge18_Node000016_Node000018" class="edge">
<title>Node16&#45;&gt;Node18</title>
<g id="a_edge18_Node000016_Node000018"><a xlink:title=" ">
<path fill="none" stroke="#63b8ff" d="M438.75,-87C455.71,-87 475.24,-87 494.2,-87"/>
<polygon fill="#63b8ff" stroke="#63b8ff" points="494.07,-90.5 504.07,-87 494.07,-83.5 494.07,-90.5"/>
</a>
</g>
</g>
<!-- Node22 -->
<g id="Node000022" class="node">
<title>Node22</title>
<g id="a_Node000022"><a xlink:href="class_spaceship.html#af39e32b6ac8fe12f1b8a752597640e87" target="_top" xlink:title="Updates the state of all projectiles fired by the spaceship.">
<polygon fill="white" stroke="#666666" points="651.62,-48 506.62,-48 506.62,-28 651.62,-28 651.62,-48"/>
<text text-anchor="middle" x="579.12" y="-34.5" font-family="Helvetica,sans-Serif" font-size="10.00">Spaceship::UpdateProjectiles</text>
</a>
</g>
</g>
<!-- Node16&#45;&gt;Node22 -->
<g id="edge22_Node000016_Node000022" class="edge">
<title>Node16&#45;&gt;Node22</title>
<g id="a_edge22_Node000016_Node000022"><a xlink:title=" ">
<path fill="none" stroke="#63b8ff" d="M429.7,-76.61C458.07,-69.23 496.41,-59.25 527.02,-51.29"/>
<polygon fill="#63b8ff" stroke="#63b8ff" points="527.65,-54.75 536.44,-48.84 525.88,-47.97 527.65,-54.75"/>
</a>
</g>
</g>
<!-- Node19 -->
<g id="Node000019" class="node">
<title>Node19</title>
<g id="a_Node000019"><a xlink:href="class_input_manager.html#a681afd1f90d84a1e29883592891c95dd" target="_top" xlink:title="Retrieves the singleton instance of the InputManager.">
<polygon fill="white" stroke="#666666" points="824,-146 727,-146 727,-126 824,-126 824,-146"/>
<text text-anchor="middle" x="775.5" y="-132.5" font-family="Helvetica,sans-Serif" font-size="10.00">InputManager::Get</text>
</a>
</g>
</g>
<!-- Node18&#45;&gt;Node19 -->
<g id="edge19_Node000018_Node000019" class="edge">
<title>Node18&#45;&gt;Node19</title>
<g id="a_edge19_Node000018_Node000019"><a xlink:title=" ">
<path fill="none" stroke="#63b8ff" d="M624.71,-97.41C635.63,-100.09 647.26,-103.05 658,-106 674.13,-110.43 677.85,-112.63 694,-117 701.36,-118.99 709.12,-120.97 716.82,-122.86"/>
<polygon fill="#63b8ff" stroke="#63b8ff" points="715.96,-126.26 726.5,-125.2 717.6,-119.45 715.96,-126.26"/>
</a>
</g>
</g>
<!-- Node20 -->
<g id="Node000020" class="node">
<title>Node20</title>
<g id="a_Node000020"><a xlink:href="class_sound_manager.html#a7da0a1dcb16734c22b4252a3a5fa11c4" target="_top" xlink:title="Plays the sound associated with the given name.">
<polygon fill="white" stroke="#666666" points="842.75,-108 708.25,-108 708.25,-88 842.75,-88 842.75,-108"/>
<text text-anchor="middle" x="775.5" y="-94.5" font-family="Helvetica,sans-Serif" font-size="10.00">SoundManager::PlaySound</text>
</a>
</g>
</g>
<!-- Node18&#45;&gt;Node20 -->
<g id="edge20_Node000018_Node000020" class="edge">
<title>Node18&#45;&gt;Node20</title>
<g id="a_edge20_Node000018_Node000020"><a xlink:title=" ">
<path fill="none" stroke="#63b8ff" d="M652.78,-91.11C667.07,-91.92 682.13,-92.77 696.58,-93.59"/>
<polygon fill="#63b8ff" stroke="#63b8ff" points="696.33,-97.08 706.52,-94.15 696.73,-90.09 696.33,-97.08"/>
</a>
</g>
</g>
<!-- Node21 -->
<g id="Node000021" class="node">
<title>Node21</title>
<g id="a_Node000021"><a xlink:href="namespace_gameplay_utility.html#ac927e2960c3edb516e0c839afe16428c" target="_top" xlink:title="Spawns a new projectile with the given properties.">
<polygon fill="white" stroke="#666666" points="856.62,-70 694.38,-70 694.38,-50 856.62,-50 856.62,-70"/>
<text text-anchor="middle" x="775.5" y="-56.5" font-family="Helvetica,sans-Serif" font-size="10.00">GameplayUtility::SpawnProjectile</text>
</a>
</g>
</g>
<!-- Node18&#45;&gt;Node21 -->
<g id="edge21_Node000018_Node000021" class="edge">
<title>Node18&#45;&gt;Node21</title>
<g id="a_edge21_Node000018_Node000021"><a xlink:title=" ">
<path fill="none" stroke="#63b8ff" d="M652.78,-76.91C664.22,-75.32 676.15,-73.66 687.86,-72.03"/>
<polygon fill="#63b8ff" stroke="#63b8ff" points="688.09,-75.54 697.51,-70.69 687.13,-68.6 688.09,-75.54"/>
</a>
</g>
</g>
<!-- Node23 -->
<g id="Node000023" class="node">
<title>Node23</title>
<g id="a_Node000023"><a xlink:href="namespace_gameplay_utility.html#a3558284331e73b20446925ae3c85e455" target="_top" xlink:title="Removes inactive projectiles from the game.">
<polygon fill="white" stroke="#666666" points="857,-32 694,-32 694,0 857,0 857,-32"/>
<text text-anchor="start" x="702" y="-18.5" font-family="Helvetica,sans-Serif" font-size="10.00">GameplayUtility::RemoveInactive</text>
<text text-anchor="middle" x="775.5" y="-6.5" font-family="Helvetica,sans-Serif" font-size="10.00">Projectiles</text>
</a>
</g>
</g>
<!-- Node22&#45;&gt;Node23 -->
<g id="edge23_Node000022_Node000023" class="edge">
<title>Node22&#45;&gt;Node23</title>
<g id="a_edge23_Node000022_Node000023"><a xlink:title=" ">
<path fill="none" stroke="#63b8ff" d="M651.95,-29.87C661.96,-28.74 672.35,-27.56 682.66,-26.39"/>
<polygon fill="#63b8ff" stroke="#63b8ff" points="682.75,-29.91 692.29,-25.3 681.96,-22.95 682.75,-29.91"/>
</a>
</g>
</g>
</g>
</svg>
