<?xml version="1.0" encoding="UTF-8" standalone="no"?>
<!DOCTYPE svg PUBLIC "-//W3C//DTD SVG 1.1//EN"
 "http://www.w3.org/Graphics/SVG/1.1/DTD/svg11.dtd">
<!-- Generated by graphviz version 12.2.0 (20241103.1931)
 -->
<!-- Title: SceneManager::HandleInput Pages: 1 -->
<svg width="552pt" height="28pt"
 viewBox="0.00 0.00 552.00 28.00" xmlns="http://www.w3.org/2000/svg" xmlns:xlink="http://www.w3.org/1999/xlink">
<g id="graph0" class="graph" transform="scale(1 1) rotate(0) translate(4 24)">
<title>SceneManager::HandleInput</title>
<!-- Node1 -->
<g id="Node000001" class="node">
<title>Node1</title>
<g id="a_Node000001"><a xlink:title="Handles input for the active scene.">
<polygon fill="#999999" stroke="#666666" points="544,-20 404.25,-20 404.25,0 544,0 544,-20"/>
<text text-anchor="middle" x="474.12" y="-6.5" font-family="Helvetica,sans-Serif" font-size="10.00">SceneManager::HandleInput</text>
</a>
</g>
</g>
<!-- Node2 -->
<g id="Node000002" class="node">
<title>Node2</title>
<g id="a_Node000002"><a xlink:href="class_game_instance.html#a3de6d5da975ab0f53c1b4b96cb035893" target="_top" xlink:title="Handles player input.">
<polygon fill="white" stroke="#666666" points="368.25,-20 230,-20 230,0 368.25,0 368.25,-20"/>
<text text-anchor="middle" x="299.12" y="-6.5" font-family="Helvetica,sans-Serif" font-size="10.00">GameInstance::HandleInput</text>
</a>
</g>
</g>
<!-- Node1&#45;&gt;Node2 -->
<g id="edge1_Node000001_Node000002" class="edge">
<title>Node1&#45;&gt;Node2</title>
<g id="a_edge1_Node000001_Node000002"><a xlink:title=" ">
<path fill="none" stroke="#63b8ff" d="M392.27,-10C384.37,-10 376.42,-10 368.66,-10"/>
<polygon fill="#63b8ff" stroke="#63b8ff" points="392.24,-13.5 402.24,-10 392.24,-6.5 392.24,-13.5"/>
</a>
</g>
</g>
<!-- Node3 -->
<g id="Node000003" class="node">
<title>Node3</title>
<g id="a_Node000003"><a xlink:href="class_game_instance.html#aad33789f20dcd91cef933f273903aa6f" target="_top" xlink:title="Starts the game loop and runs the game.">
<polygon fill="white" stroke="#666666" points="194,-20 90.25,-20 90.25,0 194,0 194,-20"/>
<text text-anchor="middle" x="142.12" y="-6.5" font-family="Helvetica,sans-Serif" font-size="10.00">GameInstance::Run</text>
</a>
</g>
</g>
<!-- Node2&#45;&gt;Node3 -->
<g id="edge2_Node000002_Node000003" class="edge">
<title>Node2&#45;&gt;Node3</title>
<g id="a_edge2_Node000002_Node000003"><a xlink:title=" ">
<path fill="none" stroke="#63b8ff" d="M218.26,-10C210.17,-10 202.11,-10 194.44,-10"/>
<polygon fill="#63b8ff" stroke="#63b8ff" points="218.18,-13.5 228.18,-10 218.17,-6.5 218.18,-13.5"/>
</a>
</g>
</g>
<!-- Node4 -->
<g id="Node000004" class="node">
<title>Node4</title>
<g id="a_Node000004"><a xlink:href="main_8cpp.html#ac11a9f698adda87a72e4d287beaabc5f" target="_top" xlink:title="Entry point for the game in release mode.">
<polygon fill="white" stroke="#666666" points="54.25,-20 0,-20 0,0 54.25,0 54.25,-20"/>
<text text-anchor="middle" x="27.12" y="-6.5" font-family="Helvetica,sans-Serif" font-size="10.00">WinMain</text>
</a>
</g>
</g>
<!-- Node3&#45;&gt;Node4 -->
<g id="edge3_Node000003_Node000004" class="edge">
<title>Node3&#45;&gt;Node4</title>
<g id="a_edge3_Node000003_Node000004"><a xlink:title=" ">
<path fill="none" stroke="#63b8ff" d="M78.68,-10C70.16,-10 61.83,-10 54.46,-10"/>
<polygon fill="#63b8ff" stroke="#63b8ff" points="78.4,-13.5 88.4,-10 78.4,-6.5 78.4,-13.5"/>
</a>
</g>
</g>
</g>
</svg>
