<?xml version="1.0" encoding="UTF-8" standalone="no"?>
<!DOCTYPE svg PUBLIC "-//W3C//DTD SVG 1.1//EN"
 "http://www.w3.org/Graphics/SVG/1.1/DTD/svg11.dtd">
<!-- Generated by graphviz version 12.2.0 (20241103.1931)
 -->
<!-- Title: SceneManager::Switch Pages: 1 -->
<svg width="348pt" height="28pt"
 viewBox="0.00 0.00 347.75 28.00" xmlns="http://www.w3.org/2000/svg" xmlns:xlink="http://www.w3.org/1999/xlink">
<g id="graph0" class="graph" transform="scale(1 1) rotate(0) translate(4 24)">
<title>SceneManager::Switch</title>
<!-- Node1 -->
<g id="Node000001" class="node">
<title>Node1</title>
<g id="a_Node000001"><a xlink:title="Switches the currently active scene.">
<polygon fill="#999999" stroke="#666666" points="117.25,-20 0,-20 0,0 117.25,0 117.25,-20"/>
<text text-anchor="middle" x="58.62" y="-6.5" font-family="Helvetica,sans-Serif" font-size="10.00">SceneManager::Switch</text>
</a>
</g>
</g>
<!-- Node2 -->
<g id="Node000002" class="node">
<title>Node2</title>
<g id="a_Node000002"><a xlink:href="class_log.html#a0602808efc4b6a11f68f0c9ee2df135e" target="_top" xlink:title="Prints a plain text message with a given log level.">
<polygon fill="white" stroke="#666666" points="211.25,-20 153.25,-20 153.25,0 211.25,0 211.25,-20"/>
<text text-anchor="middle" x="182.25" y="-6.5" font-family="Helvetica,sans-Serif" font-size="10.00">Log::Print</text>
</a>
</g>
</g>
<!-- Node1&#45;&gt;Node2 -->
<g id="edge1_Node000001_Node000002" class="edge">
<title>Node1&#45;&gt;Node2</title>
<g id="a_edge1_Node000001_Node000002"><a xlink:title=" ">
<path fill="none" stroke="#63b8ff" d="M117.59,-10C125.62,-10 133.71,-10 141.32,-10"/>
<polygon fill="#63b8ff" stroke="#63b8ff" points="141.26,-13.5 151.26,-10 141.26,-6.5 141.26,-13.5"/>
</a>
</g>
</g>
<!-- Node3 -->
<g id="Node000003" class="node">
<title>Node3</title>
<g id="a_Node000003"><a xlink:href="class_log.html#a758948f266c4aa6fabbf9b172a018d43" target="_top" xlink:title="Returns the string representation of a log level.">
<polygon fill="white" stroke="#666666" points="339.75,-20 247.25,-20 247.25,0 339.75,0 339.75,-20"/>
<text text-anchor="middle" x="293.5" y="-6.5" font-family="Helvetica,sans-Serif" font-size="10.00">Log::GetLogLevel</text>
</a>
</g>
</g>
<!-- Node2&#45;&gt;Node3 -->
<g id="edge2_Node000002_Node000003" class="edge">
<title>Node2&#45;&gt;Node3</title>
<g id="a_edge2_Node000002_Node000003"><a xlink:title=" ">
<path fill="none" stroke="#63b8ff" d="M211.67,-10C219.06,-10 227.29,-10 235.58,-10"/>
<polygon fill="#63b8ff" stroke="#63b8ff" points="235.36,-13.5 245.36,-10 235.36,-6.5 235.36,-13.5"/>
</a>
</g>
</g>
</g>
</svg>
