<?xml version="1.0" encoding="UTF-8" standalone="no"?>
<!DOCTYPE svg PUBLIC "-//W3C//DTD SVG 1.1//EN"
 "http://www.w3.org/Graphics/SVG/1.1/DTD/svg11.dtd">
<!-- Generated by graphviz version 12.2.0 (20241103.1931)
 -->
<!-- Title: MenuState::HandleInput Pages: 1 -->
<svg width="602pt" height="142pt"
 viewBox="0.00 0.00 601.50 142.00" xmlns="http://www.w3.org/2000/svg" xmlns:xlink="http://www.w3.org/1999/xlink">
<g id="graph0" class="graph" transform="scale(1 1) rotate(0) translate(4 138)">
<title>MenuState::HandleInput</title>
<!-- Node1 -->
<g id="Node000001" class="node">
<title>Node1</title>
<g id="a_Node000001"><a xlink:title="Handles user input in the menu scene.">
<polygon fill="#999999" stroke="#666666" points="121.75,-96 0,-96 0,-76 121.75,-76 121.75,-96"/>
<text text-anchor="middle" x="60.88" y="-82.5" font-family="Helvetica,sans-Serif" font-size="10.00">MenuState::HandleInput</text>
</a>
</g>
</g>
<!-- Node2 -->
<g id="Node000002" class="node">
<title>Node2</title>
<g id="a_Node000002"><a xlink:href="class_input_manager.html#a681afd1f90d84a1e29883592891c95dd" target="_top" xlink:title="Retrieves the singleton instance of the InputManager.">
<polygon fill="white" stroke="#666666" points="264.88,-134 167.88,-134 167.88,-114 264.88,-114 264.88,-134"/>
<text text-anchor="middle" x="216.38" y="-120.5" font-family="Helvetica,sans-Serif" font-size="10.00">InputManager::Get</text>
</a>
</g>
</g>
<!-- Node1&#45;&gt;Node2 -->
<g id="edge1_Node000001_Node000002" class="edge">
<title>Node1&#45;&gt;Node2</title>
<g id="a_edge1_Node000001_Node000002"><a xlink:title=" ">
<path fill="none" stroke="#63b8ff" d="M104.23,-96.48C122.09,-100.91 143.1,-106.11 162.01,-110.79"/>
<polygon fill="#63b8ff" stroke="#63b8ff" points="161.15,-114.18 171.69,-113.19 162.83,-107.39 161.15,-114.18"/>
</a>
</g>
</g>
<!-- Node3 -->
<g id="Node000003" class="node">
<title>Node3</title>
<g id="a_Node000003"><a xlink:href="class_scene_manager.html#a923a348879950dfdeba731f5fbcaf731" target="_top" xlink:title="Switches the currently active scene.">
<polygon fill="white" stroke="#666666" points="275,-96 157.75,-96 157.75,-76 275,-76 275,-96"/>
<text text-anchor="middle" x="216.38" y="-82.5" font-family="Helvetica,sans-Serif" font-size="10.00">SceneManager::Switch</text>
</a>
</g>
</g>
<!-- Node1&#45;&gt;Node3 -->
<g id="edge2_Node000001_Node000003" class="edge">
<title>Node1&#45;&gt;Node3</title>
<g id="a_edge2_Node000001_Node000003"><a xlink:title=" ">
<path fill="none" stroke="#63b8ff" d="M122.1,-86C129.89,-86 137.92,-86 145.84,-86"/>
<polygon fill="#63b8ff" stroke="#63b8ff" points="145.82,-89.5 155.82,-86 145.82,-82.5 145.82,-89.5"/>
</a>
</g>
</g>
<!-- Node6 -->
<g id="Node000006" class="node">
<title>Node6</title>
<g id="a_Node000006"><a xlink:href="class_input_manager.html#aef542a6bfc8dd4b0a09091cfe1727fff" target="_top" xlink:title="Updates the input state each frame.">
<polygon fill="white" stroke="#666666" points="272.75,-58 160,-58 160,-38 272.75,-38 272.75,-58"/>
<text text-anchor="middle" x="216.38" y="-44.5" font-family="Helvetica,sans-Serif" font-size="10.00">InputManager::Update</text>
</a>
</g>
</g>
<!-- Node1&#45;&gt;Node6 -->
<g id="edge5_Node000001_Node000006" class="edge">
<title>Node1&#45;&gt;Node6</title>
<g id="a_edge5_Node000001_Node000006"><a xlink:title=" ">
<path fill="none" stroke="#63b8ff" d="M104.23,-75.52C122.09,-71.09 143.1,-65.89 162.01,-61.21"/>
<polygon fill="#63b8ff" stroke="#63b8ff" points="162.83,-64.61 171.69,-58.81 161.15,-57.82 162.83,-64.61"/>
</a>
</g>
</g>
<!-- Node4 -->
<g id="Node000004" class="node">
<title>Node4</title>
<g id="a_Node000004"><a xlink:href="class_log.html#a0602808efc4b6a11f68f0c9ee2df135e" target="_top" xlink:title="Prints a plain text message with a given log level.">
<polygon fill="white" stroke="#666666" points="417,-96 359,-96 359,-76 417,-76 417,-96"/>
<text text-anchor="middle" x="388" y="-82.5" font-family="Helvetica,sans-Serif" font-size="10.00">Log::Print</text>
</a>
</g>
</g>
<!-- Node3&#45;&gt;Node4 -->
<g id="edge3_Node000003_Node000004" class="edge">
<title>Node3&#45;&gt;Node4</title>
<g id="a_edge3_Node000003_Node000004"><a xlink:title=" ">
<path fill="none" stroke="#63b8ff" d="M275.28,-86C299.08,-86 326.05,-86 347.52,-86"/>
<polygon fill="#63b8ff" stroke="#63b8ff" points="347.32,-89.5 357.32,-86 347.32,-82.5 347.32,-89.5"/>
</a>
</g>
</g>
<!-- Node5 -->
<g id="Node000005" class="node">
<title>Node5</title>
<g id="a_Node000005"><a xlink:href="class_log.html#a758948f266c4aa6fabbf9b172a018d43" target="_top" xlink:title="Returns the string representation of a log level.">
<polygon fill="white" stroke="#666666" points="593.5,-96 501,-96 501,-76 593.5,-76 593.5,-96"/>
<text text-anchor="middle" x="547.25" y="-82.5" font-family="Helvetica,sans-Serif" font-size="10.00">Log::GetLogLevel</text>
</a>
</g>
</g>
<!-- Node4&#45;&gt;Node5 -->
<g id="edge4_Node000004_Node000005" class="edge">
<title>Node4&#45;&gt;Node5</title>
<g id="a_edge4_Node000004_Node000005"><a xlink:title=" ">
<path fill="none" stroke="#63b8ff" d="M417.48,-86C437.5,-86 464.96,-86 489.38,-86"/>
<polygon fill="#63b8ff" stroke="#63b8ff" points="489.2,-89.5 499.2,-86 489.2,-82.5 489.2,-89.5"/>
</a>
</g>
</g>
<!-- Node7 -->
<g id="Node000007" class="node">
<title>Node7</title>
<g id="a_Node000007"><a xlink:href="class_input_manager.html#aad8d6154eb7442d0f48db609a9a7d81b" target="_top" xlink:title="Polls SFML keyboard state and sets flags accordingly.">
<polygon fill="white" stroke="#666666" points="465,-58 311,-58 311,-38 465,-38 465,-58"/>
<text text-anchor="middle" x="388" y="-44.5" font-family="Helvetica,sans-Serif" font-size="10.00">InputManager::UpdateKeyboard</text>
</a>
</g>
</g>
<!-- Node6&#45;&gt;Node7 -->
<g id="edge6_Node000006_Node000007" class="edge">
<title>Node6&#45;&gt;Node7</title>
<g id="a_edge6_Node000006_Node000007"><a xlink:title=" ">
<path fill="none" stroke="#63b8ff" d="M272.92,-48C281.41,-48 290.35,-48 299.33,-48"/>
<polygon fill="#63b8ff" stroke="#63b8ff" points="299.18,-51.5 309.18,-48 299.18,-44.5 299.18,-51.5"/>
</a>
</g>
</g>
<!-- Node8 -->
<g id="Node000008" class="node">
<title>Node8</title>
<g id="a_Node000008"><a xlink:href="class_input_manager.html#aa85d5d75cfd3f4b9595c99c388a1d8aa" target="_top" xlink:title="Polls SFML mouse button state and sets flags accordingly.">
<polygon fill="white" stroke="#666666" points="459,-20 317,-20 317,0 459,0 459,-20"/>
<text text-anchor="middle" x="388" y="-6.5" font-family="Helvetica,sans-Serif" font-size="10.00">InputManager::UpdateMouse</text>
</a>
</g>
</g>
<!-- Node6&#45;&gt;Node8 -->
<g id="edge7_Node000006_Node000008" class="edge">
<title>Node6&#45;&gt;Node8</title>
<g id="a_edge7_Node000006_Node000008"><a xlink:title=" ">
<path fill="none" stroke="#63b8ff" d="M264.17,-37.52C284.29,-33.01 308,-27.7 329.2,-22.95"/>
<polygon fill="#63b8ff" stroke="#63b8ff" points="329.88,-26.38 338.88,-20.78 328.35,-19.55 329.88,-26.38"/>
</a>
</g>
</g>
</g>
</svg>
