<?xml version="1.0" encoding="UTF-8" standalone="no"?>
<!DOCTYPE svg PUBLIC "-//W3C//DTD SVG 1.1//EN"
 "http://www.w3.org/Graphics/SVG/1.1/DTD/svg11.dtd">
<!-- Generated by graphviz version 12.2.0 (20241103.1931)
 -->
<!-- Title: Spaceship::DrawSpaceship Pages: 1 -->
<svg width="563pt" height="28pt"
 viewBox="0.00 0.00 562.50 28.00" xmlns="http://www.w3.org/2000/svg" xmlns:xlink="http://www.w3.org/1999/xlink">
<g id="graph0" class="graph" transform="scale(1 1) rotate(0) translate(4 24)">
<title>Spaceship::DrawSpaceship</title>
<!-- Node1 -->
<g id="Node000001" class="node">
<title>Node1</title>
<g id="a_Node000001"><a xlink:title="Draws the spaceship to the window.">
<polygon fill="#999999" stroke="#666666" points="554.5,-20 417.75,-20 417.75,0 554.5,0 554.5,-20"/>
<text text-anchor="middle" x="486.12" y="-6.5" font-family="Helvetica,sans-Serif" font-size="10.00">Spaceship::DrawSpaceship</text>
</a>
</g>
</g>
<!-- Node2 -->
<g id="Node000002" class="node">
<title>Node2</title>
<g id="a_Node000002"><a xlink:href="class_spaceship.html#a114f821d9c5173a3afdd857fd277c060" target="_top" xlink:title="Draws the spaceship and its projectiles to the screen.">
<polygon fill="white" stroke="#666666" points="381.75,-20 290.75,-20 290.75,0 381.75,0 381.75,-20"/>
<text text-anchor="middle" x="336.25" y="-6.5" font-family="Helvetica,sans-Serif" font-size="10.00">Spaceship::Draw</text>
</a>
</g>
</g>
<!-- Node1&#45;&gt;Node2 -->
<g id="edge1_Node000001_Node000002" class="edge">
<title>Node1&#45;&gt;Node2</title>
<g id="a_edge1_Node000001_Node000002"><a xlink:title=" ">
<path fill="none" stroke="#63b8ff" d="M406.37,-10C398.08,-10 389.87,-10 382.17,-10"/>
<polygon fill="#63b8ff" stroke="#63b8ff" points="406.16,-13.5 416.16,-10 406.16,-6.5 406.16,-13.5"/>
</a>
</g>
</g>
<!-- Node3 -->
<g id="Node000003" class="node">
<title>Node3</title>
<g id="a_Node000003"><a xlink:href="class_level_one.html#a8cd8e028469d2a83df7258c217e5df39" target="_top" xlink:title="Draws the spaceship to the window.">
<polygon fill="white" stroke="#666666" points="254.75,-20 122.5,-20 122.5,0 254.75,0 254.75,-20"/>
<text text-anchor="middle" x="188.62" y="-6.5" font-family="Helvetica,sans-Serif" font-size="10.00">LevelOne::DrawSpaceship</text>
</a>
</g>
</g>
<!-- Node2&#45;&gt;Node3 -->
<g id="edge2_Node000002_Node000003" class="edge">
<title>Node2&#45;&gt;Node3</title>
<g id="a_edge2_Node000002_Node000003"><a xlink:title=" ">
<path fill="none" stroke="#63b8ff" d="M278.87,-10C271.13,-10 263.13,-10 255.24,-10"/>
<polygon fill="#63b8ff" stroke="#63b8ff" points="278.86,-13.5 288.86,-10 278.86,-6.5 278.86,-13.5"/>
</a>
</g>
</g>
<!-- Node4 -->
<g id="Node000004" class="node">
<title>Node4</title>
<g id="a_Node000004"><a xlink:href="class_level_one.html#ae117669d46ff60a7318be87a105df94c" target="_top" xlink:title="Draws the level scene to the window.">
<polygon fill="white" stroke="#666666" points="86.5,-20 0,-20 0,0 86.5,0 86.5,-20"/>
<text text-anchor="middle" x="43.25" y="-6.5" font-family="Helvetica,sans-Serif" font-size="10.00">LevelOne::Draw</text>
</a>
</g>
</g>
<!-- Node3&#45;&gt;Node4 -->
<g id="edge3_Node000003_Node000004" class="edge">
<title>Node3&#45;&gt;Node4</title>
<g id="a_edge3_Node000003_Node000004"><a xlink:title=" ">
<path fill="none" stroke="#63b8ff" d="M110.99,-10C102.75,-10 94.6,-10 86.98,-10"/>
<polygon fill="#63b8ff" stroke="#63b8ff" points="110.72,-13.5 120.72,-10 110.72,-6.5 110.72,-13.5"/>
</a>
</g>
</g>
</g>
</svg>
