<?xml version="1.0" encoding="UTF-8" standalone="no"?>
<!DOCTYPE svg PUBLIC "-//W3C//DTD SVG 1.1//EN"
 "http://www.w3.org/Graphics/SVG/1.1/DTD/svg11.dtd">
<!-- Generated by graphviz version 12.2.0 (20241103.1931)
 -->
<!-- Title: Log::Print Pages: 1 -->
<!--zoomable 480 -->

<svg id="main" version="1.1" xmlns="http://www.w3.org/2000/svg" xmlns:xlink="http://www.w3.org/1999/xlink" xml:space="preserve" onload="init(evt)">

<style type="text/css"><![CDATA[
.node, .edge {opacity: 0.7;}
.node.selected, .edge.selected {opacity: 1;}
.edge:hover path { stroke: red; }
.edge:hover polygon { stroke: red; fill: red; }
]]></style>

<defs>
  <circle id="rim" cx="0" cy="0" r="7"/>
  <circle id="rim2" cx="0" cy="0" r="3.5"/>
  <g id="zoomPlus">
    <use xlink:href="#rim" fill="#404040"><set attributeName="fill" to="#808080" begin="zoomplus.mouseover" end="zoomplus.mouseout"/></use>
    <path d="M-4,0h8M0,-4v8" fill="none" stroke="white" stroke-width="1.5" pointer-events="none"/>
  </g>
  <g id="zoomMin">
    <use xlink:href="#rim" fill="#404040"><set attributeName="fill" to="#808080" begin="zoomminus.mouseover" end="zoomminus.mouseout"/></use>
    <path d="M-4,0h8" fill="none" stroke="white" stroke-width="1.5" pointer-events="none"/>
  </g>
  <g id="arrowUp" transform="translate(30 24)">
    <use xlink:href="#rim"/>
    <path pointer-events="none" fill="none" stroke="white" stroke-width="1.5" d="M0,-3.0v7 M-2.5,-0.5L0,-3.0L2.5,-0.5"/>
  </g>
  <g id="arrowRight" transform="rotate(90) translate(36 -43)">
    <use xlink:href="#rim"/>
    <path pointer-events="none" fill="none" stroke="white" stroke-width="1.5" d="M0,-3.0v7 M-2.5,-0.5L0,-3.0L2.5,-0.5"/>
  </g>
  <g id="arrowDown" transform="rotate(180) translate(-30 -48)">
    <use xlink:href="#rim"/>
    <path pointer-events="none" fill="none" stroke="white" stroke-width="1.5" d="M0,-3.0v7 M-2.5,-0.5L0,-3.0L2.5,-0.5"/>
  </g>
  <g id="arrowLeft" transform="rotate(270) translate(-36 17)">
    <use xlink:href="#rim"/>
    <path pointer-events="none" fill="none" stroke="white" stroke-width="1.5" d="M0,-3.0v7 M-2.5,-0.5L0,-3.0L2.5,-0.5"/>
  </g>
  <g id="resetDef">
    <use xlink:href="#rim2" fill="#404040"><set attributeName="fill" to="#808080" begin="reset.mouseover" end="reset.mouseout"/></use>
  </g>
</defs>
<script type="application/ecmascript">
var viewWidth = 771;
var viewHeight = 480;
var sectionId = 'dynsection-2';
</script>
<script type="application/ecmascript" xlink:href="svg.min.js"/>
<svg id="graph" class="graph">
<g id="viewport">
<title>Log::Print</title>
<!-- Node1 -->
<g id="Node000001" class="node">
<title>Node1</title>
<g id="a_Node000001"><a xlink:title="Prints a plain text message with a given log level.">
<polygon fill="#999999" stroke="#666666" points="763.25,-305 705.25,-305 705.25,-285 763.25,-285 763.25,-305"/>
<text text-anchor="middle" x="734.25" y="-291.5" font-family="Helvetica,sans-Serif" font-size="10.00">Log::Print</text>
</a>
</g>
</g>
<!-- Node2 -->
<g id="Node000002" class="node">
<title>Node2</title>
<g id="a_Node000002"><a xlink:href="class_scene_manager.html#abfffecc4ffd12a2592249b922fe91658" target="_top" xlink:title="Adds a new scene to the manager.">
<polygon fill="white" stroke="#666666" points="641.12,-248 536.62,-248 536.62,-228 641.12,-228 641.12,-248"/>
<text text-anchor="middle" x="588.88" y="-234.5" font-family="Helvetica,sans-Serif" font-size="10.00">SceneManager::Add</text>
</a>
</g>
</g>
<!-- Node1&#45;&gt;Node2 -->
<g id="edge1_Node000001_Node000002" class="edge">
<title>Node1&#45;&gt;Node2</title>
<g id="a_edge1_Node000001_Node000002"><a xlink:title=" ">
<path fill="none" stroke="#63b8ff" d="M709.23,-278.39C697.59,-270.97 683.14,-262.64 669.25,-257 660.45,-253.43 650.82,-250.43 641.4,-247.94"/>
<polygon fill="#63b8ff" stroke="#63b8ff" points="707.12,-281.19 717.39,-283.77 710.96,-275.34 707.12,-281.19"/>
</a>
</g>
</g>
<!-- Node5 -->
<g id="Node000005" class="node">
<title>Node5</title>
<g id="a_Node000005"><a xlink:href="namespace_gameplay_utility.html#a24348bc2bb771397d9716c320eca7b25" target="_top" xlink:title="Spawns a set number of enemies in a grid pattern.">
<polygon fill="white" stroke="#666666" points="669.25,-472 508.5,-472 508.5,-452 669.25,-452 669.25,-472"/>
<text text-anchor="middle" x="588.88" y="-458.5" font-family="Helvetica,sans-Serif" font-size="10.00">GameplayUtility::EnemySpawner</text>
</a>
</g>
</g>
<!-- Node1&#45;&gt;Node5 -->
<g id="edge4_Node000001_Node000005" class="edge">
<title>Node1&#45;&gt;Node5</title>
<g id="a_edge4_Node000001_Node000005"><a xlink:title=" ">
<path fill="none" stroke="#63b8ff" d="M729.78,-316.21C723.48,-347.87 707.11,-407.28 669.25,-440 663.62,-444.86 657.01,-448.66 650.04,-451.62"/>
<polygon fill="#63b8ff" stroke="#63b8ff" points="733.17,-317.15 731.52,-306.68 726.28,-315.89 733.17,-317.15"/>
</a>
</g>
</g>
<!-- Node8 -->
<g id="Node000008" class="node">
<title>Node8</title>
<g id="a_Node000008"><a xlink:href="class_menu_state.html#a3c5a85349ab47790f9a589dcfa90655a" target="_top" xlink:title="Initializes the buttons for the menu.">
<polygon fill="white" stroke="#666666" points="647.12,-431 530.62,-431 530.62,-411 647.12,-411 647.12,-431"/>
<text text-anchor="middle" x="588.88" y="-417.5" font-family="Helvetica,sans-Serif" font-size="10.00">MenuState::InitButtons</text>
</a>
</g>
</g>
<!-- Node1&#45;&gt;Node8 -->
<g id="edge7_Node000001_Node000008" class="edge">
<title>Node1&#45;&gt;Node8</title>
<g id="a_edge7_Node000001_Node000008"><a xlink:title=" ">
<path fill="none" stroke="#63b8ff" d="M723.92,-315.31C713.35,-336.32 694.27,-368.84 669.25,-389 657.45,-398.51 642.45,-405.52 628.68,-410.51"/>
<polygon fill="#63b8ff" stroke="#63b8ff" points="726.93,-317.12 728.13,-306.59 720.63,-314.08 726.93,-317.12"/>
</a>
</g>
</g>
<!-- Node10 -->
<g id="Node000010" class="node">
<title>Node10</title>
<g id="a_Node000010"><a xlink:href="class_level_one.html#ab45be2d82cb57188dda251343856fb16" target="_top" xlink:title="Initializes the level text for displaying information such as level name and player lives.">
<polygon fill="white" stroke="#666666" points="648.25,-286 529.5,-286 529.5,-266 648.25,-266 648.25,-286"/>
<text text-anchor="middle" x="588.88" y="-272.5" font-family="Helvetica,sans-Serif" font-size="10.00">LevelOne::InitLevelText</text>
</a>
</g>
</g>
<!-- Node1&#45;&gt;Node10 -->
<g id="edge9_Node000001_Node000010" class="edge">
<title>Node1&#45;&gt;Node10</title>
<g id="a_edge9_Node000001_Node000010"><a xlink:title=" ">
<path fill="none" stroke="#63b8ff" d="M693.77,-289.77C679.84,-287.92 663.86,-285.8 648.68,-283.79"/>
<polygon fill="#63b8ff" stroke="#63b8ff" points="693.05,-293.2 703.42,-291.05 693.97,-286.26 693.05,-293.2"/>
</a>
</g>
</g>
<!-- Node12 -->
<g id="Node000012" class="node">
<title>Node12</title>
<g id="a_Node000012"><a xlink:href="namespace_core_helper.html#a5bc59fd3ff2736ca4415da047fe428bc" target="_top" xlink:title="Loads background music from a file.">
<polygon fill="white" stroke="#666666" points="648.25,-324 529.5,-324 529.5,-304 648.25,-304 648.25,-324"/>
<text text-anchor="middle" x="588.88" y="-310.5" font-family="Helvetica,sans-Serif" font-size="10.00">CoreHelper::LoadMusic</text>
</a>
</g>
</g>
<!-- Node1&#45;&gt;Node12 -->
<g id="edge11_Node000001_Node000012" class="edge">
<title>Node1&#45;&gt;Node12</title>
<g id="a_edge11_Node000001_Node000012"><a xlink:title=" ">
<path fill="none" stroke="#63b8ff" d="M693.77,-300.23C679.84,-302.08 663.86,-304.2 648.68,-306.21"/>
<polygon fill="#63b8ff" stroke="#63b8ff" points="693.97,-303.74 703.42,-298.95 693.05,-296.8 693.97,-303.74"/>
</a>
</g>
</g>
<!-- Node13 -->
<g id="Node000013" class="node">
<title>Node13</title>
<g id="a_Node000013"><a xlink:href="namespace_core_helper.html#a0609ff46cfcbe7d88492b38418267da5" target="_top" xlink:title="Loads a texture and assigns it to a sprite.">
<polygon fill="white" stroke="#666666" points="659.88,-380 517.88,-380 517.88,-348 659.88,-348 659.88,-380"/>
<text text-anchor="start" x="525.88" y="-366.5" font-family="Helvetica,sans-Serif" font-size="10.00">CoreHelper::LoadTextureAnd</text>
<text text-anchor="middle" x="588.88" y="-354.5" font-family="Helvetica,sans-Serif" font-size="10.00">Sprite</text>
</a>
</g>
</g>
<!-- Node1&#45;&gt;Node13 -->
<g id="edge13_Node000001_Node000013" class="edge">
<title>Node1&#45;&gt;Node13</title>
<g id="a_edge13_Node000001_Node000013"><a xlink:title=" ">
<path fill="none" stroke="#63b8ff" d="M707.91,-311.34C696.36,-318.45 682.36,-326.6 669.25,-333 658.61,-338.19 646.87,-343.17 635.76,-347.55"/>
<polygon fill="#63b8ff" stroke="#63b8ff" points="709.45,-314.51 716.06,-306.24 705.73,-308.58 709.45,-314.51"/>
</a>
</g>
</g>
<!-- Node16 -->
<g id="Node000016" class="node">
<title>Node16</title>
<g id="a_Node000016"><a xlink:href="class_scene_manager.html#a7716bf6132d950af755ee95e07395827" target="_top" xlink:title="Prints all currently stored scene IDs.">
<polygon fill="white" stroke="#666666" points="656.88,-210 520.88,-210 520.88,-190 656.88,-190 656.88,-210"/>
<text text-anchor="middle" x="588.88" y="-196.5" font-family="Helvetica,sans-Serif" font-size="10.00">SceneManager::PrintStates</text>
</a>
</g>
</g>
<!-- Node1&#45;&gt;Node16 -->
<g id="edge19_Node000001_Node000016" class="edge">
<title>Node1&#45;&gt;Node16</title>
<g id="a_edge19_Node000001_Node000016"><a xlink:title=" ">
<path fill="none" stroke="#63b8ff" d="M721.46,-274.79C710.23,-257.36 691.74,-232.88 669.25,-219 663.7,-215.58 657.59,-212.77 651.28,-210.47"/>
<polygon fill="#63b8ff" stroke="#63b8ff" points="718.46,-276.6 726.69,-283.28 724.42,-272.93 718.46,-276.6"/>
</a>
</g>
</g>
<!-- Node17 -->
<g id="Node000017" class="node">
<title>Node17</title>
<g id="a_Node000017"><a xlink:href="class_scene_manager.html#a923a348879950dfdeba731f5fbcaf731" target="_top" xlink:title="Switches the currently active scene.">
<polygon fill="white" stroke="#666666" points="647.5,-153 530.25,-153 530.25,-133 647.5,-133 647.5,-153"/>
<text text-anchor="middle" x="588.88" y="-139.5" font-family="Helvetica,sans-Serif" font-size="10.00">SceneManager::Switch</text>
</a>
</g>
</g>
<!-- Node1&#45;&gt;Node17 -->
<g id="edge20_Node000001_Node000017" class="edge">
<title>Node1&#45;&gt;Node17</title>
<g id="a_edge20_Node000001_Node000017"><a xlink:title=" ">
<path fill="none" stroke="#63b8ff" d="M725.99,-274.05C716.43,-249.07 697.43,-207.41 669.25,-181 656.09,-168.67 638.2,-159.64 622.74,-153.48"/>
<polygon fill="#63b8ff" stroke="#63b8ff" points="722.69,-275.22 729.41,-283.41 729.27,-272.81 722.69,-275.22"/>
</a>
</g>
</g>
<!-- Node3 -->
<g id="Node000003" class="node">
<title>Node3</title>
<g id="a_Node000003"><a xlink:href="class_game_instance.html#a06fe6dbd18ae41ac7f5f8f79b4f8b99d" target="_top" xlink:title="Initializes game states.">
<polygon fill="white" stroke="#666666" points="472.5,-248 318.5,-248 318.5,-228 472.5,-228 472.5,-248"/>
<text text-anchor="middle" x="395.5" y="-234.5" font-family="Helvetica,sans-Serif" font-size="10.00">GameInstance::InitGameStates</text>
</a>
</g>
</g>
<!-- Node2&#45;&gt;Node3 -->
<g id="edge2_Node000002_Node000003" class="edge">
<title>Node2&#45;&gt;Node3</title>
<g id="a_edge2_Node000002_Node000003"><a xlink:title=" ">
<path fill="none" stroke="#63b8ff" d="M525.08,-238C508.42,-238 490.25,-238 472.95,-238"/>
<polygon fill="#63b8ff" stroke="#63b8ff" points="524.82,-241.5 534.82,-238 524.82,-234.5 524.82,-241.5"/>
</a>
</g>
</g>
<!-- Node4 -->
<g id="Node000004" class="node">
<title>Node4</title>
<g id="a_Node000004"><a xlink:href="class_game_instance.html#a4960d24b6dbc4d273882cb55db1e022c" target="_top" xlink:title="Constructs the game instance.">
<polygon fill="white" stroke="#666666" points="282.5,-248 133,-248 133,-228 282.5,-228 282.5,-248"/>
<text text-anchor="middle" x="207.75" y="-234.5" font-family="Helvetica,sans-Serif" font-size="10.00">GameInstance::GameInstance</text>
</a>
</g>
</g>
<!-- Node3&#45;&gt;Node4 -->
<g id="edge3_Node000003_Node000004" class="edge">
<title>Node3&#45;&gt;Node4</title>
<g id="a_edge3_Node000003_Node000004"><a xlink:title=" ">
<path fill="none" stroke="#63b8ff" d="M306.81,-238C298.75,-238 290.63,-238 282.71,-238"/>
<polygon fill="#63b8ff" stroke="#63b8ff" points="306.63,-241.5 316.63,-238 306.63,-234.5 306.63,-241.5"/>
</a>
</g>
</g>
<!-- Node6 -->
<g id="Node000006" class="node">
<title>Node6</title>
<g id="a_Node000006"><a xlink:href="class_level_one.html#a150f5898ace9c858941cfe46c1b36cb4" target="_top" xlink:title="Resets the level for a new playthrough.">
<polygon fill="white" stroke="#666666" points="252.5,-438 163,-438 163,-418 252.5,-418 252.5,-438"/>
<text text-anchor="middle" x="207.75" y="-424.5" font-family="Helvetica,sans-Serif" font-size="10.00">LevelOne::Reset</text>
</a>
</g>
</g>
<!-- Node5&#45;&gt;Node6 -->
<g id="edge5_Node000005_Node000006" class="edge">
<title>Node5&#45;&gt;Node6</title>
<g id="a_edge5_Node000005_Node000006"><a xlink:title=" ">
<path fill="none" stroke="#63b8ff" d="M496.84,-459.55C444.54,-457.49 377.68,-453.75 318.5,-447 296.79,-444.52 272.86,-440.53 252.9,-436.85"/>
<polygon fill="#63b8ff" stroke="#63b8ff" points="496.47,-463.04 506.6,-459.92 496.74,-456.05 496.47,-463.04"/>
</a>
</g>
</g>
<!-- Node7 -->
<g id="Node000007" class="node">
<title>Node7</title>
<g id="a_Node000007"><a xlink:href="class_level_one.html#a8ca877257c567a5f2441c34476cccb01" target="_top" xlink:title="Starts the level scene, preparing necessary resources.">
<polygon fill="white" stroke="#666666" points="97,-438 0,-438 0,-418 97,-418 97,-438"/>
<text text-anchor="middle" x="48.5" y="-424.5" font-family="Helvetica,sans-Serif" font-size="10.00">LevelOne::OnStart</text>
</a>
</g>
</g>
<!-- Node6&#45;&gt;Node7 -->
<g id="edge6_Node000006_Node000007" class="edge">
<title>Node6&#45;&gt;Node7</title>
<g id="a_edge6_Node000006_Node000007"><a xlink:title=" ">
<path fill="none" stroke="#63b8ff" d="M151.23,-428C133.6,-428 114.27,-428 97.24,-428"/>
<polygon fill="#63b8ff" stroke="#63b8ff" points="151.02,-431.5 161.02,-428 151.02,-424.5 151.02,-431.5"/>
</a>
</g>
</g>
<!-- Node9 -->
<g id="Node000009" class="node">
<title>Node9</title>
<g id="a_Node000009"><a xlink:href="class_menu_state.html#aff364a6503fca58c645a8b40a663f990" target="_top" xlink:title="Constructs the MenuState with a reference to the scene manager and the render window.">
<polygon fill="white" stroke="#666666" points="453.75,-438 337.25,-438 337.25,-418 453.75,-418 453.75,-438"/>
<text text-anchor="middle" x="395.5" y="-424.5" font-family="Helvetica,sans-Serif" font-size="10.00">MenuState::MenuState</text>
</a>
</g>
</g>
<!-- Node8&#45;&gt;Node9 -->
<g id="edge8_Node000008_Node000009" class="edge">
<title>Node8&#45;&gt;Node9</title>
<g id="a_edge8_Node000008_Node000009"><a xlink:title=" ">
<path fill="none" stroke="#63b8ff" d="M518.94,-423.52C497.67,-424.3 474.48,-425.15 454.06,-425.89"/>
<polygon fill="#63b8ff" stroke="#63b8ff" points="518.82,-427.03 528.68,-423.17 518.56,-420.03 518.82,-427.03"/>
</a>
</g>
</g>
<!-- Node11 -->
<g id="Node000011" class="node">
<title>Node11</title>
<g id="a_Node000011"><a xlink:href="class_level_one.html#aab7fa7fff62beadc614eefb210ae0d74" target="_top" xlink:title="Constructs the LevelOne scene with a reference to the scene manager and window.">
<polygon fill="white" stroke="#666666" points="260,-324 155.5,-324 155.5,-304 260,-304 260,-324"/>
<text text-anchor="middle" x="207.75" y="-310.5" font-family="Helvetica,sans-Serif" font-size="10.00">LevelOne::LevelOne</text>
</a>
</g>
</g>
<!-- Node10&#45;&gt;Node11 -->
<g id="edge10_Node000010_Node000011" class="edge">
<title>Node10&#45;&gt;Node11</title>
<g id="a_edge10_Node000010_Node000011"><a xlink:title=" ">
<path fill="none" stroke="#63b8ff" d="M517.91,-283.01C443.36,-290.49 327.07,-302.14 260.4,-308.82"/>
<polygon fill="#63b8ff" stroke="#63b8ff" points="517.95,-286.53 527.55,-282.05 517.25,-279.56 517.95,-286.53"/>
</a>
</g>
</g>
<!-- Node12&#45;&gt;Node11 -->
<g id="edge12_Node000012_Node000011" class="edge">
<title>Node12&#45;&gt;Node11</title>
<g id="a_edge12_Node000012_Node000011"><a xlink:title=" ">
<path fill="none" stroke="#63b8ff" d="M517.91,-314C443.36,-314 327.07,-314 260.4,-314"/>
<polygon fill="#63b8ff" stroke="#63b8ff" points="517.54,-317.5 527.54,-314 517.54,-310.5 517.54,-317.5"/>
</a>
</g>
</g>
<!-- Node13&#45;&gt;Node9 -->
<g id="edge18_Node000013_Node000009" class="edge">
<title>Node13&#45;&gt;Node9</title>
<g id="a_edge18_Node000013_Node000009"><a xlink:title=" ">
<path fill="none" stroke="#63b8ff" d="M538.76,-384.74C518.46,-392.9 494.55,-401.97 472.5,-409 462.78,-412.1 452.23,-415.01 442.18,-417.58"/>
<polygon fill="#63b8ff" stroke="#63b8ff" points="539.98,-388.03 547.93,-381.02 537.35,-381.54 539.98,-388.03"/>
</a>
</g>
</g>
<!-- Node14 -->
<g id="Node000014" class="node">
<title>Node14</title>
<g id="a_Node000014"><a xlink:href="class_credits.html#a58e91d08effadbc3295eb9b06944ec0d" target="_top" xlink:title=" ">
<polygon fill="white" stroke="#666666" points="438,-362 353,-362 353,-342 438,-342 438,-362"/>
<text text-anchor="middle" x="395.5" y="-348.5" font-family="Helvetica,sans-Serif" font-size="10.00">Credits::Credits</text>
</a>
</g>
</g>
<!-- Node13&#45;&gt;Node14 -->
<g id="edge14_Node000013_Node000014" class="edge">
<title>Node13&#45;&gt;Node14</title>
<g id="a_edge14_Node000013_Node000014"><a xlink:title=" ">
<path fill="none" stroke="#63b8ff" d="M506.09,-358.87C482.77,-357.41 458.31,-355.88 438.44,-354.63"/>
<polygon fill="#63b8ff" stroke="#63b8ff" points="505.72,-362.36 515.92,-359.49 506.16,-355.37 505.72,-362.36"/>
</a>
</g>
</g>
<!-- Node15 -->
<g id="Node000015" class="node">
<title>Node15</title>
<g id="a_Node000015"><a xlink:href="class_level_one.html#a07f13cbce0fed886e7c800a52e32158c" target="_top" xlink:title="Initializes the background for the level.">
<polygon fill="white" stroke="#666666" points="459.75,-400 331.25,-400 331.25,-380 459.75,-380 459.75,-400"/>
<text text-anchor="middle" x="395.5" y="-386.5" font-family="Helvetica,sans-Serif" font-size="10.00">LevelOne::InitBackground</text>
</a>
</g>
</g>
<!-- Node13&#45;&gt;Node15 -->
<g id="edge15_Node000013_Node000015" class="edge">
<title>Node13&#45;&gt;Node15</title>
<g id="a_edge15_Node000013_Node000015"><a xlink:title=" ">
<path fill="none" stroke="#63b8ff" d="M506.3,-375.08C490.87,-377.18 474.93,-379.34 460.15,-381.35"/>
<polygon fill="#63b8ff" stroke="#63b8ff" points="506.49,-378.59 515.93,-373.77 505.55,-371.65 506.49,-378.59"/>
</a>
</g>
</g>
<!-- Node15&#45;&gt;Node6 -->
<g id="edge17_Node000015_Node000006" class="edge">
<title>Node15&#45;&gt;Node6</title>
<g id="a_edge17_Node000015_Node000006"><a xlink:title=" ">
<path fill="none" stroke="#63b8ff" d="M331.99,-402.79C306.04,-408.1 276.53,-414.13 252.9,-418.97"/>
<polygon fill="#63b8ff" stroke="#63b8ff" points="332.67,-406.22 341.77,-400.79 331.27,-399.36 332.67,-406.22"/>
</a>
</g>
</g>
<!-- Node15&#45;&gt;Node11 -->
<g id="edge16_Node000015_Node000011" class="edge">
<title>Node15&#45;&gt;Node11</title>
<g id="a_edge16_Node000015_Node000011"><a xlink:title=" ">
<path fill="none" stroke="#63b8ff" d="M334.94,-376.54C329.33,-374.84 323.77,-373 318.5,-371 284.17,-358 246.73,-336.93 225.66,-324.38"/>
<polygon fill="#63b8ff" stroke="#63b8ff" points="333.7,-379.83 344.28,-379.19 335.61,-373.09 333.7,-379.83"/>
</a>
</g>
</g>
<!-- Node17&#45;&gt;Node3 -->
<g id="edge24_Node000017_Node000003" class="edge">
<title>Node17&#45;&gt;Node3</title>
<g id="a_edge24_Node000017_Node000003"><a xlink:title=" ">
<path fill="none" stroke="#63b8ff" d="M549.53,-157.93C535.96,-164.08 520.97,-171.92 508.5,-181 489.69,-194.7 492.59,-207.27 472.5,-219 466.63,-222.43 460.15,-225.25 453.53,-227.55"/>
<polygon fill="#63b8ff" stroke="#63b8ff" points="550.88,-161.16 558.66,-153.97 548.09,-154.74 550.88,-161.16"/>
</a>
</g>
</g>
<!-- Node18 -->
<g id="Node000018" class="node">
<title>Node18</title>
<g id="a_Node000018"><a xlink:href="class_level_one.html#aa2a81cea0271d042063be2aa367f6c02" target="_top" xlink:title="Checks the player&#39;s lives and updates the game state if necessary.">
<polygon fill="white" stroke="#666666" points="453,-210 338,-210 338,-190 453,-190 453,-210"/>
<text text-anchor="middle" x="395.5" y="-196.5" font-family="Helvetica,sans-Serif" font-size="10.00">LevelOne::CheckLives</text>
</a>
</g>
</g>
<!-- Node17&#45;&gt;Node18 -->
<g id="edge21_Node000017_Node000018" class="edge">
<title>Node17&#45;&gt;Node18</title>
<g id="a_edge21_Node000017_Node000018"><a xlink:title=" ">
<path fill="none" stroke="#63b8ff" d="M547.54,-157.09C525.49,-164.58 497.63,-173.73 472.5,-181 462.18,-183.99 450.99,-186.94 440.45,-189.59"/>
<polygon fill="#63b8ff" stroke="#63b8ff" points="548.42,-160.49 556.75,-153.94 546.15,-153.86 548.42,-160.49"/>
</a>
</g>
</g>
<!-- Node20 -->
<g id="Node000020" class="node">
<title>Node20</title>
<g id="a_Node000020"><a xlink:href="class_menu_state.html#aecd8763b82b9bfb5a64a5d7572e9019a" target="_top" xlink:title="Handles user input in the menu scene.">
<polygon fill="white" stroke="#666666" points="456.38,-134 334.62,-134 334.62,-114 456.38,-114 456.38,-134"/>
<text text-anchor="middle" x="395.5" y="-120.5" font-family="Helvetica,sans-Serif" font-size="10.00">MenuState::HandleInput</text>
</a>
</g>
</g>
<!-- Node17&#45;&gt;Node20 -->
<g id="edge23_Node000017_Node000020" class="edge">
<title>Node17&#45;&gt;Node20</title>
<g id="a_edge23_Node000017_Node000020"><a xlink:title=" ">
<path fill="none" stroke="#63b8ff" d="M518.54,-136.12C498.24,-134.1 476.23,-131.92 456.56,-129.96"/>
<polygon fill="#63b8ff" stroke="#63b8ff" points="518.13,-139.59 528.43,-137.1 518.83,-132.63 518.13,-139.59"/>
</a>
</g>
</g>
<!-- Node21 -->
<g id="Node000021" class="node">
<title>Node21</title>
<g id="a_Node000021"><a xlink:href="class_level_one.html#a53f3108775fb3266debed32e9a2284c6" target="_top" xlink:title="Handles the game over state.">
<polygon fill="white" stroke="#666666" points="457.12,-96 333.88,-96 333.88,-76 457.12,-76 457.12,-96"/>
<text text-anchor="middle" x="395.5" y="-82.5" font-family="Helvetica,sans-Serif" font-size="10.00">LevelOne::OnGameOver</text>
</a>
</g>
</g>
<!-- Node17&#45;&gt;Node21 -->
<g id="edge25_Node000017_Node000021" class="edge">
<title>Node17&#45;&gt;Node21</title>
<g id="a_edge25_Node000017_Node000021"><a xlink:title=" ">
<path fill="none" stroke="#63b8ff" d="M547.54,-128.91C525.49,-121.42 497.63,-112.27 472.5,-105 462.18,-102.01 450.99,-99.06 440.45,-96.41"/>
<polygon fill="#63b8ff" stroke="#63b8ff" points="546.15,-132.14 556.75,-132.06 548.42,-125.51 546.15,-132.14"/>
</a>
</g>
</g>
<!-- Node22 -->
<g id="Node000022" class="node">
<title>Node22</title>
<g id="a_Node000022"><a xlink:href="class_credits.html#aaf8dd49979cd73f003c4ae4e5eed472e" target="_top" xlink:title="Updates the scene logic.">
<polygon fill="white" stroke="#666666" points="438,-58 353,-58 353,-38 438,-38 438,-58"/>
<text text-anchor="middle" x="395.5" y="-44.5" font-family="Helvetica,sans-Serif" font-size="10.00">Credits::Update</text>
</a>
</g>
</g>
<!-- Node17&#45;&gt;Node22 -->
<g id="edge26_Node000017_Node000022" class="edge">
<title>Node17&#45;&gt;Node22</title>
<g id="a_edge26_Node000017_Node000022"><a xlink:title=" ">
<path fill="none" stroke="#63b8ff" d="M566.31,-125.55C544.05,-108.35 507.7,-82.46 472.5,-67 461.79,-62.3 449.7,-58.61 438.36,-55.79"/>
<polygon fill="#63b8ff" stroke="#63b8ff" points="564,-128.19 574.03,-131.62 568.33,-122.69 564,-128.19"/>
</a>
</g>
</g>
<!-- Node23 -->
<g id="Node000023" class="node">
<title>Node23</title>
<g id="a_Node000023"><a xlink:href="class_game_over.html#a574908eb0d8bd368a45c986b2e853e14" target="_top" xlink:title="Updates the game over scene every frame.">
<polygon fill="white" stroke="#666666" points="445.88,-20 345.12,-20 345.12,0 445.88,0 445.88,-20"/>
<text text-anchor="middle" x="395.5" y="-6.5" font-family="Helvetica,sans-Serif" font-size="10.00">GameOver::Update</text>
</a>
</g>
</g>
<!-- Node17&#45;&gt;Node23 -->
<g id="edge27_Node000017_Node000023" class="edge">
<title>Node17&#45;&gt;Node23</title>
<g id="a_edge27_Node000017_Node000023"><a xlink:title=" ">
<path fill="none" stroke="#63b8ff" d="M573.66,-123.54C553.89,-97.9 515.62,-53.24 472.5,-29 464.44,-24.47 455.3,-21 446.22,-18.36"/>
<polygon fill="#63b8ff" stroke="#63b8ff" points="570.8,-125.56 579.62,-131.44 576.4,-121.34 570.8,-125.56"/>
</a>
</g>
</g>
<!-- Node24 -->
<g id="Node000024" class="node">
<title>Node24</title>
<g id="a_Node000024"><a xlink:href="class_level_one.html#a49050c25247260db25be9fdee638ab41" target="_top" xlink:title="Updates the level&#45;related UI text, such as level name and lives count.">
<polygon fill="white" stroke="#666666" points="463.88,-172 327.12,-172 327.12,-152 463.88,-152 463.88,-172"/>
<text text-anchor="middle" x="395.5" y="-158.5" font-family="Helvetica,sans-Serif" font-size="10.00">LevelOne::UpdateLevelText</text>
</a>
</g>
</g>
<!-- Node17&#45;&gt;Node24 -->
<g id="edge28_Node000017_Node000024" class="edge">
<title>Node17&#45;&gt;Node24</title>
<g id="a_edge28_Node000017_Node000024"><a xlink:title=" ">
<path fill="none" stroke="#63b8ff" d="M518.54,-149.88C500.88,-151.64 481.92,-153.52 464.33,-155.27"/>
<polygon fill="#63b8ff" stroke="#63b8ff" points="518.83,-153.37 528.43,-148.9 518.13,-146.41 518.83,-153.37"/>
</a>
</g>
</g>
<!-- Node19 -->
<g id="Node000019" class="node">
<title>Node19</title>
<g id="a_Node000019"><a xlink:href="class_level_one.html#ac5f4953425e9d335e735f1cde198a1fb" target="_top" xlink:title="Updates the level scene every frame.">
<polygon fill="white" stroke="#666666" points="255.12,-191 160.38,-191 160.38,-171 255.12,-171 255.12,-191"/>
<text text-anchor="middle" x="207.75" y="-177.5" font-family="Helvetica,sans-Serif" font-size="10.00">LevelOne::Update</text>
</a>
</g>
</g>
<!-- Node18&#45;&gt;Node19 -->
<g id="edge22_Node000018_Node000019" class="edge">
<title>Node18&#45;&gt;Node19</title>
<g id="a_edge22_Node000018_Node000019"><a xlink:title=" ">
<path fill="none" stroke="#63b8ff" d="M326.15,-193.01C302.6,-190.6 276.77,-187.96 255.35,-185.77"/>
<polygon fill="#63b8ff" stroke="#63b8ff" points="325.7,-196.48 336,-194.02 326.41,-189.52 325.7,-196.48"/>
</a>
</g>
</g>
<!-- Node24&#45;&gt;Node19 -->
<g id="edge29_Node000024_Node000019" class="edge">
<title>Node24&#45;&gt;Node19</title>
<g id="a_edge29_Node000024_Node000019"><a xlink:title=" ">
<path fill="none" stroke="#63b8ff" d="M315.43,-170.09C295.02,-172.18 273.69,-174.36 255.52,-176.22"/>
<polygon fill="#63b8ff" stroke="#63b8ff" points="315.55,-173.59 325.15,-169.09 314.84,-166.63 315.55,-173.59"/>
</a>
</g>
</g>
</g>
</svg>

<g id="navigator" transform="translate(0 0)" fill="#404254">
  <rect fill="#f2f5e9" fill-opacity="0.5" stroke="#606060" stroke-width=".5" x="0" y="0" width="60" height="60"/>
  <use id="zoomplus" xlink:href="#zoomPlus" x="17" y="9" onmousedown="handleZoom(evt,'in')"/>
  <use id="zoomminus" xlink:href="#zoomMin" x="42" y="9" onmousedown="handleZoom(evt,'out')"/>
  <use id="reset" xlink:href="#resetDef" x="30" y="36" onmousedown="handleReset()"/>
   <use id="arrowup" xlink:href="#arrowUp" x="0" y="0" onmousedown="handlePan(0,-1)"/>
  <use id="arrowright" xlink:href="#arrowRight" x="0" y="0" onmousedown="handlePan(1,0)"/>
  <use id="arrowdown" xlink:href="#arrowDown" x="0" y="0" onmousedown="handlePan(0,1)"/>
  <use id="arrowleft" xlink:href="#arrowLeft" x="0" y="0" onmousedown="handlePan(-1,0)"/>
</g>
<svg viewBox="0 0 15 15" width="100%" height="30px" preserveAspectRatio="xMaxYMin meet">
 <g id="arrow_out" transform="scale(0.3 0.3)">
  <a xlink:href="class_log_a0602808efc4b6a11f68f0c9ee2df135e_icgraph_org.svg" target="_base">
   <rect id="button" ry="5" rx="5" y="6" x="6" height="38" width="38"
        fill="#f2f5e9" fill-opacity="0.5" stroke="#606060" stroke-width="1.0"/>
   <path id="arrow"
     d="M 11.500037,31.436501 C 11.940474,20.09759 22.043105,11.32322 32.158766,21.979434 L 37.068811,17.246167 C 37.068811,17.246167 37.088388,32 37.088388,32 L 22.160133,31.978069 C 22.160133,31.978069 26.997745,27.140456 26.997745,27.140456 C 18.528582,18.264221 13.291696,25.230495 11.500037,31.436501 z"
     style="fill:#404040;"/>
  </a>
 </g>
</svg>

<style type='text/css'>
<![CDATA[
[data-mouse-over-selected='false'] { opacity: 0.7; }
[data-mouse-over-selected='true']  { opacity: 1.0; }
]]>
</style>
<script type="application/ecmascript"><![CDATA[
document.addEventListener('DOMContentLoaded', (event) => {
  highlightEdges();
  highlightAdjacentNodes();
});
]]></script>
</svg>
