<?xml version="1.0" encoding="UTF-8" standalone="no"?>
<!DOCTYPE svg PUBLIC "-//W3C//DTD SVG 1.1//EN"
 "http://www.w3.org/Graphics/SVG/1.1/DTD/svg11.dtd">
<!-- Generated by graphviz version 12.2.0 (20241103.1931)
 -->
<!-- Title: Intro Pages: 1 -->
<svg width="202pt" height="96pt"
 viewBox="0.00 0.00 201.55 96.00" xmlns="http://www.w3.org/2000/svg" xmlns:xlink="http://www.w3.org/1999/xlink">
<g id="graph0" class="graph" transform="scale(1 1) rotate(0) translate(4 92)">
<title>Intro</title>
<!-- Node1 -->
<g id="Node000001" class="node">
<title>Node1</title>
<g id="a_Node000001"><a xlink:title=" ">
<polygon fill="#999999" stroke="#666666" points="101.25,-20 65.75,-20 65.75,0 101.25,0 101.25,-20"/>
<text text-anchor="middle" x="83.5" y="-6.5" font-family="Helvetica,sans-Serif" font-size="10.00">Intro</text>
</a>
</g>
</g>
<!-- Node2 -->
<g id="Node000002" class="node">
<title>Node2</title>
<g id="a_Node000002"><a xlink:href="class_i_game_scene.html" target="_top" xlink:title="Interface for all game scenes.">
<polygon fill="white" stroke="#666666" points="73,-88 0,-88 0,-68 73,-68 73,-88"/>
<text text-anchor="middle" x="36.5" y="-74.5" font-family="Helvetica,sans-Serif" font-size="10.00">IGameScene</text>
</a>
</g>
</g>
<!-- Node2&#45;&gt;Node1 -->
<g id="edge1_Node000001_Node000002" class="edge">
<title>Node2&#45;&gt;Node1</title>
<g id="a_edge1_Node000001_Node000002"><a xlink:title=" ">
<path fill="none" stroke="#63b8ff" d="M49.66,-58.52C58.48,-46.13 69.73,-30.33 76.78,-20.44"/>
<polygon fill="#63b8ff" stroke="#63b8ff" points="47.06,-56.13 44.11,-66.31 52.76,-60.2 47.06,-56.13"/>
</a>
</g>
</g>
<!-- Node3 -->
<g id="Node000003" class="node">
<title>Node3</title>
<g id="a_Node000003"><a xlink:href="class_scene_manager.html" target="_top" xlink:title="Manages game scenes, allowing for seamless transitions between them.">
<polygon fill="white" stroke="#666666" points="172.12,-88 90.88,-88 90.88,-68 172.12,-68 172.12,-88"/>
<text text-anchor="middle" x="131.5" y="-74.5" font-family="Helvetica,sans-Serif" font-size="10.00">SceneManager</text>
</a>
</g>
</g>
<!-- Node3&#45;&gt;Node1 -->
<g id="edge2_Node000001_Node000003" class="edge">
<title>Node3&#45;&gt;Node1</title>
<g id="a_edge2_Node000001_Node000003"><a xlink:title=" ">
<path fill="none" stroke="#9a32cd" stroke-dasharray="5,2" d="M118.06,-58.52C109.05,-46.13 97.56,-30.33 90.36,-20.44"/>
<polygon fill="#9a32cd" stroke="#9a32cd" points="115.02,-60.29 123.73,-66.32 120.68,-56.17 115.02,-60.29"/>
</a>
</g>
<text text-anchor="middle" x="152.67" y="-40.5" font-family="Helvetica,sans-Serif" font-size="10.00" fill="grey"> m_SceneManager</text>
</g>
</g>
</svg>
