<?xml version="1.0" encoding="UTF-8" standalone="no"?>
<!DOCTYPE svg PUBLIC "-//W3C//DTD SVG 1.1//EN"
 "http://www.w3.org/Graphics/SVG/1.1/DTD/svg11.dtd">
<!-- Generated by graphviz version 12.2.0 (20241103.1931)
 -->
<!-- Title: LevelOne::InitBackground Pages: 1 -->
<svg width="537pt" height="40pt"
 viewBox="0.00 0.00 537.00 40.00" xmlns="http://www.w3.org/2000/svg" xmlns:xlink="http://www.w3.org/1999/xlink">
<g id="graph0" class="graph" transform="scale(1 1) rotate(0) translate(4 36)">
<title>LevelOne::InitBackground</title>
<!-- Node1 -->
<g id="Node000001" class="node">
<title>Node1</title>
<g id="a_Node000001"><a xlink:title="Initializes the background for the level.">
<polygon fill="#999999" stroke="#666666" points="128.5,-26 0,-26 0,-6 128.5,-6 128.5,-26"/>
<text text-anchor="middle" x="64.25" y="-12.5" font-family="Helvetica,sans-Serif" font-size="10.00">LevelOne::InitBackground</text>
</a>
</g>
</g>
<!-- Node2 -->
<g id="Node000002" class="node">
<title>Node2</title>
<g id="a_Node000002"><a xlink:href="namespace_core_helper.html#a0609ff46cfcbe7d88492b38418267da5" target="_top" xlink:title="Loads a texture and assigns it to a sprite.">
<polygon fill="white" stroke="#666666" points="306.5,-32 164.5,-32 164.5,0 306.5,0 306.5,-32"/>
<text text-anchor="start" x="172.5" y="-18.5" font-family="Helvetica,sans-Serif" font-size="10.00">CoreHelper::LoadTextureAnd</text>
<text text-anchor="middle" x="235.5" y="-6.5" font-family="Helvetica,sans-Serif" font-size="10.00">Sprite</text>
</a>
</g>
</g>
<!-- Node1&#45;&gt;Node2 -->
<g id="edge1_Node000001_Node000002" class="edge">
<title>Node1&#45;&gt;Node2</title>
<g id="a_edge1_Node000001_Node000002"><a xlink:title=" ">
<path fill="none" stroke="#63b8ff" d="M128.75,-16C136.6,-16 144.7,-16 152.76,-16"/>
<polygon fill="#63b8ff" stroke="#63b8ff" points="152.6,-19.5 162.6,-16 152.6,-12.5 152.6,-19.5"/>
</a>
</g>
</g>
<!-- Node3 -->
<g id="Node000003" class="node">
<title>Node3</title>
<g id="a_Node000003"><a xlink:href="class_log.html#a0602808efc4b6a11f68f0c9ee2df135e" target="_top" xlink:title="Prints a plain text message with a given log level.">
<polygon fill="white" stroke="#666666" points="400.5,-26 342.5,-26 342.5,-6 400.5,-6 400.5,-26"/>
<text text-anchor="middle" x="371.5" y="-12.5" font-family="Helvetica,sans-Serif" font-size="10.00">Log::Print</text>
</a>
</g>
</g>
<!-- Node2&#45;&gt;Node3 -->
<g id="edge2_Node000002_Node000003" class="edge">
<title>Node2&#45;&gt;Node3</title>
<g id="a_edge2_Node000002_Node000003"><a xlink:title=" ">
<path fill="none" stroke="#63b8ff" d="M306.64,-16C314.87,-16 323.03,-16 330.64,-16"/>
<polygon fill="#63b8ff" stroke="#63b8ff" points="330.54,-19.5 340.54,-16 330.54,-12.5 330.54,-19.5"/>
</a>
</g>
</g>
<!-- Node4 -->
<g id="Node000004" class="node">
<title>Node4</title>
<g id="a_Node000004"><a xlink:href="class_log.html#a758948f266c4aa6fabbf9b172a018d43" target="_top" xlink:title="Returns the string representation of a log level.">
<polygon fill="white" stroke="#666666" points="529,-26 436.5,-26 436.5,-6 529,-6 529,-26"/>
<text text-anchor="middle" x="482.75" y="-12.5" font-family="Helvetica,sans-Serif" font-size="10.00">Log::GetLogLevel</text>
</a>
</g>
</g>
<!-- Node3&#45;&gt;Node4 -->
<g id="edge3_Node000003_Node000004" class="edge">
<title>Node3&#45;&gt;Node4</title>
<g id="a_edge3_Node000003_Node000004"><a xlink:title=" ">
<path fill="none" stroke="#63b8ff" d="M400.92,-16C408.31,-16 416.54,-16 424.83,-16"/>
<polygon fill="#63b8ff" stroke="#63b8ff" points="424.61,-19.5 434.61,-16 424.61,-12.5 424.61,-19.5"/>
</a>
</g>
</g>
</g>
</svg>
