<?xml version="1.0" encoding="UTF-8" standalone="no"?>
<!DOCTYPE svg PUBLIC "-//W3C//DTD SVG 1.1//EN"
 "http://www.w3.org/Graphics/SVG/1.1/DTD/svg11.dtd">
<!-- Generated by graphviz version 12.2.0 (20241103.1931)
 -->
<!-- Title: LevelOne::DrawSpaceship Pages: 1 -->
<svg width="440pt" height="66pt"
 viewBox="0.00 0.00 440.00 66.00" xmlns="http://www.w3.org/2000/svg" xmlns:xlink="http://www.w3.org/1999/xlink">
<g id="graph0" class="graph" transform="scale(1 1) rotate(0) translate(4 62)">
<title>LevelOne::DrawSpaceship</title>
<!-- Node1 -->
<g id="Node000001" class="node">
<title>Node1</title>
<g id="a_Node000001"><a xlink:title="Draws the spaceship to the window.">
<polygon fill="#999999" stroke="#666666" points="132.25,-39 0,-39 0,-19 132.25,-19 132.25,-39"/>
<text text-anchor="middle" x="66.12" y="-25.5" font-family="Helvetica,sans-Serif" font-size="10.00">LevelOne::DrawSpaceship</text>
</a>
</g>
</g>
<!-- Node2 -->
<g id="Node000002" class="node">
<title>Node2</title>
<g id="a_Node000002"><a xlink:href="class_spaceship.html#a114f821d9c5173a3afdd857fd277c060" target="_top" xlink:title="Draws the spaceship and its projectiles to the screen.">
<polygon fill="white" stroke="#666666" points="259.25,-39 168.25,-39 168.25,-19 259.25,-19 259.25,-39"/>
<text text-anchor="middle" x="213.75" y="-25.5" font-family="Helvetica,sans-Serif" font-size="10.00">Spaceship::Draw</text>
</a>
</g>
</g>
<!-- Node1&#45;&gt;Node2 -->
<g id="edge1_Node000001_Node000002" class="edge">
<title>Node1&#45;&gt;Node2</title>
<g id="a_edge1_Node000001_Node000002"><a xlink:title=" ">
<path fill="none" stroke="#63b8ff" d="M132.7,-29C140.71,-29 148.84,-29 156.7,-29"/>
<polygon fill="#63b8ff" stroke="#63b8ff" points="156.45,-32.5 166.45,-29 156.45,-25.5 156.45,-32.5"/>
</a>
</g>
</g>
<!-- Node3 -->
<g id="Node000003" class="node">
<title>Node3</title>
<g id="a_Node000003"><a xlink:href="class_spaceship.html#a9dfaca2d72e43533bf6ad31a1dcd04fd" target="_top" xlink:title="Draws all active projectiles to the window.">
<polygon fill="white" stroke="#666666" points="429.38,-58 297.88,-58 297.88,-38 429.38,-38 429.38,-58"/>
<text text-anchor="middle" x="363.62" y="-44.5" font-family="Helvetica,sans-Serif" font-size="10.00">Spaceship::DrawProjectile</text>
</a>
</g>
</g>
<!-- Node2&#45;&gt;Node3 -->
<g id="edge2_Node000002_Node000003" class="edge">
<title>Node2&#45;&gt;Node3</title>
<g id="a_edge2_Node000002_Node000003"><a xlink:title=" ">
<path fill="none" stroke="#63b8ff" d="M259.52,-34.75C268.04,-35.85 277.18,-37.02 286.36,-38.2"/>
<polygon fill="#63b8ff" stroke="#63b8ff" points="285.68,-41.64 296.05,-39.45 286.58,-34.7 285.68,-41.64"/>
</a>
</g>
</g>
<!-- Node4 -->
<g id="Node000004" class="node">
<title>Node4</title>
<g id="a_Node000004"><a xlink:href="class_spaceship.html#a444e1d452b234aa6d3e52d636d75547e" target="_top" xlink:title="Draws the spaceship to the window.">
<polygon fill="white" stroke="#666666" points="432,-20 295.25,-20 295.25,0 432,0 432,-20"/>
<text text-anchor="middle" x="363.62" y="-6.5" font-family="Helvetica,sans-Serif" font-size="10.00">Spaceship::DrawSpaceship</text>
</a>
</g>
</g>
<!-- Node2&#45;&gt;Node4 -->
<g id="edge3_Node000002_Node000004" class="edge">
<title>Node2&#45;&gt;Node4</title>
<g id="a_edge3_Node000002_Node000004"><a xlink:title=" ">
<path fill="none" stroke="#63b8ff" d="M259.52,-23.25C267.17,-22.26 275.33,-21.22 283.57,-20.16"/>
<polygon fill="#63b8ff" stroke="#63b8ff" points="283.84,-23.65 293.31,-18.91 282.95,-16.71 283.84,-23.65"/>
</a>
</g>
</g>
</g>
</svg>
