<?xml version="1.0" encoding="UTF-8" standalone="no"?>
<!DOCTYPE svg PUBLIC "-//W3C//DTD SVG 1.1//EN"
 "http://www.w3.org/Graphics/SVG/1.1/DTD/svg11.dtd">
<!-- Generated by graphviz version 12.2.0 (20241103.1931)
 -->
<!-- Title: GameInstance::GameInstance Pages: 1 -->
<svg width="723pt" height="123pt"
 viewBox="0.00 0.00 723.25 123.00" xmlns="http://www.w3.org/2000/svg" xmlns:xlink="http://www.w3.org/1999/xlink">
<g id="graph0" class="graph" transform="scale(1 1) rotate(0) translate(4 119)">
<title>GameInstance::GameInstance</title>
<!-- Node1 -->
<g id="Node000001" class="node">
<title>Node1</title>
<g id="a_Node000001"><a xlink:title="Constructs the game instance.">
<polygon fill="#999999" stroke="#666666" points="149.5,-58 0,-58 0,-38 149.5,-38 149.5,-58"/>
<text text-anchor="middle" x="74.75" y="-44.5" font-family="Helvetica,sans-Serif" font-size="10.00">GameInstance::GameInstance</text>
</a>
</g>
</g>
<!-- Node2 -->
<g id="Node000002" class="node">
<title>Node2</title>
<g id="a_Node000002"><a xlink:href="class_game_instance.html#a06fe6dbd18ae41ac7f5f8f79b4f8b99d" target="_top" xlink:title="Initializes game states.">
<polygon fill="white" stroke="#666666" points="339.5,-96 185.5,-96 185.5,-76 339.5,-76 339.5,-96"/>
<text text-anchor="middle" x="262.5" y="-82.5" font-family="Helvetica,sans-Serif" font-size="10.00">GameInstance::InitGameStates</text>
</a>
</g>
</g>
<!-- Node1&#45;&gt;Node2 -->
<g id="edge1_Node000001_Node000002" class="edge">
<title>Node1&#45;&gt;Node2</title>
<g id="a_edge1_Node000001_Node000002"><a xlink:title=" ">
<path fill="none" stroke="#63b8ff" d="M127,-58.48C149.33,-63.05 175.71,-68.45 199.17,-73.25"/>
<polygon fill="#63b8ff" stroke="#63b8ff" points="198.44,-76.67 208.94,-75.25 199.84,-69.81 198.44,-76.67"/>
</a>
</g>
</g>
<!-- Node7 -->
<g id="Node000007" class="node">
<title>Node7</title>
<g id="a_Node000007"><a xlink:href="class_game_instance.html#afe164350cda76e0193dc43dad0f57526" target="_top" xlink:title="Initializes game resources.">
<polygon fill="white" stroke="#666666" points="335.75,-58 189.25,-58 189.25,-38 335.75,-38 335.75,-58"/>
<text text-anchor="middle" x="262.5" y="-44.5" font-family="Helvetica,sans-Serif" font-size="10.00">GameInstance::InitResources</text>
</a>
</g>
</g>
<!-- Node1&#45;&gt;Node7 -->
<g id="edge7_Node000001_Node000007" class="edge">
<title>Node1&#45;&gt;Node7</title>
<g id="a_edge7_Node000001_Node000007"><a xlink:title=" ">
<path fill="none" stroke="#63b8ff" d="M149.96,-48C158.99,-48 168.26,-48 177.41,-48"/>
<polygon fill="#63b8ff" stroke="#63b8ff" points="177.4,-51.5 187.4,-48 177.4,-44.5 177.4,-51.5"/>
</a>
</g>
</g>
<!-- Node8 -->
<g id="Node000008" class="node">
<title>Node8</title>
<g id="a_Node000008"><a xlink:href="class_game_instance.html#a9c9f9ff5d5224dc8558ad33288d7a1b3" target="_top" xlink:title="Initializes the game window.">
<polygon fill="white" stroke="#666666" points="329.75,-20 195.25,-20 195.25,0 329.75,0 329.75,-20"/>
<text text-anchor="middle" x="262.5" y="-6.5" font-family="Helvetica,sans-Serif" font-size="10.00">GameInstance::InitWindow</text>
</a>
</g>
</g>
<!-- Node1&#45;&gt;Node8 -->
<g id="edge8_Node000001_Node000008" class="edge">
<title>Node1&#45;&gt;Node8</title>
<g id="a_edge8_Node000001_Node000008"><a xlink:title=" ">
<path fill="none" stroke="#63b8ff" d="M127,-37.52C149.33,-32.95 175.71,-27.55 199.17,-22.75"/>
<polygon fill="#63b8ff" stroke="#63b8ff" points="199.84,-26.19 208.94,-20.75 198.44,-19.33 199.84,-26.19"/>
</a>
</g>
</g>
<!-- Node3 -->
<g id="Node000003" class="node">
<title>Node3</title>
<g id="a_Node000003"><a xlink:href="class_scene_manager.html#abfffecc4ffd12a2592249b922fe91658" target="_top" xlink:title="Adds a new scene to the manager.">
<polygon fill="white" stroke="#666666" points="486.38,-115 381.88,-115 381.88,-95 486.38,-95 486.38,-115"/>
<text text-anchor="middle" x="434.12" y="-101.5" font-family="Helvetica,sans-Serif" font-size="10.00">SceneManager::Add</text>
</a>
</g>
</g>
<!-- Node2&#45;&gt;Node3 -->
<g id="edge2_Node000002_Node000003" class="edge">
<title>Node2&#45;&gt;Node3</title>
<g id="a_edge2_Node000002_Node000003"><a xlink:title=" ">
<path fill="none" stroke="#63b8ff" d="M339.88,-94.56C349.99,-95.69 360.26,-96.84 370.12,-97.94"/>
<polygon fill="#63b8ff" stroke="#63b8ff" points="369.62,-101.41 379.95,-99.04 370.4,-94.45 369.62,-101.41"/>
</a>
</g>
</g>
<!-- Node6 -->
<g id="Node000006" class="node">
<title>Node6</title>
<g id="a_Node000006"><a xlink:href="class_scene_manager.html#a923a348879950dfdeba731f5fbcaf731" target="_top" xlink:title="Switches the currently active scene.">
<polygon fill="white" stroke="#666666" points="492.75,-77 375.5,-77 375.5,-57 492.75,-57 492.75,-77"/>
<text text-anchor="middle" x="434.12" y="-63.5" font-family="Helvetica,sans-Serif" font-size="10.00">SceneManager::Switch</text>
</a>
</g>
</g>
<!-- Node2&#45;&gt;Node6 -->
<g id="edge5_Node000002_Node000006" class="edge">
<title>Node2&#45;&gt;Node6</title>
<g id="a_edge5_Node000002_Node000006"><a xlink:title=" ">
<path fill="none" stroke="#63b8ff" d="M339.88,-77.44C347.85,-76.55 355.93,-75.65 363.82,-74.76"/>
<polygon fill="#63b8ff" stroke="#63b8ff" points="364.16,-78.25 373.71,-73.66 363.38,-71.29 364.16,-78.25"/>
</a>
</g>
</g>
<!-- Node4 -->
<g id="Node000004" class="node">
<title>Node4</title>
<g id="a_Node000004"><a xlink:href="class_log.html#a0602808efc4b6a11f68f0c9ee2df135e" target="_top" xlink:title="Prints a plain text message with a given log level.">
<polygon fill="white" stroke="#666666" points="586.75,-96 528.75,-96 528.75,-76 586.75,-76 586.75,-96"/>
<text text-anchor="middle" x="557.75" y="-82.5" font-family="Helvetica,sans-Serif" font-size="10.00">Log::Print</text>
</a>
</g>
</g>
<!-- Node3&#45;&gt;Node4 -->
<g id="edge3_Node000003_Node000004" class="edge">
<title>Node3&#45;&gt;Node4</title>
<g id="a_edge3_Node000003_Node000004"><a xlink:title=" ">
<path fill="none" stroke="#63b8ff" d="M486.7,-96.94C496.83,-95.36 507.31,-93.72 516.97,-92.21"/>
<polygon fill="#63b8ff" stroke="#63b8ff" points="517.45,-95.68 526.79,-90.68 516.37,-88.77 517.45,-95.68"/>
</a>
</g>
</g>
<!-- Node5 -->
<g id="Node000005" class="node">
<title>Node5</title>
<g id="a_Node000005"><a xlink:href="class_log.html#a758948f266c4aa6fabbf9b172a018d43" target="_top" xlink:title="Returns the string representation of a log level.">
<polygon fill="white" stroke="#666666" points="715.25,-96 622.75,-96 622.75,-76 715.25,-76 715.25,-96"/>
<text text-anchor="middle" x="669" y="-82.5" font-family="Helvetica,sans-Serif" font-size="10.00">Log::GetLogLevel</text>
</a>
</g>
</g>
<!-- Node4&#45;&gt;Node5 -->
<g id="edge4_Node000004_Node000005" class="edge">
<title>Node4&#45;&gt;Node5</title>
<g id="a_edge4_Node000004_Node000005"><a xlink:title=" ">
<path fill="none" stroke="#63b8ff" d="M587.17,-86C594.56,-86 602.79,-86 611.08,-86"/>
<polygon fill="#63b8ff" stroke="#63b8ff" points="610.86,-89.5 620.86,-86 610.86,-82.5 610.86,-89.5"/>
</a>
</g>
</g>
<!-- Node6&#45;&gt;Node4 -->
<g id="edge6_Node000006_Node000004" class="edge">
<title>Node6&#45;&gt;Node4</title>
<g id="a_edge6_Node000006_Node000004"><a xlink:title=" ">
<path fill="none" stroke="#63b8ff" d="M493.09,-76.05C501.21,-77.32 509.41,-78.6 517.09,-79.8"/>
<polygon fill="#63b8ff" stroke="#63b8ff" points="516.36,-83.23 526.78,-81.32 517.44,-76.32 516.36,-83.23"/>
</a>
</g>
</g>
</g>
</svg>
