<?xml version="1.0" encoding="UTF-8" standalone="no"?>
<!DOCTYPE svg PUBLIC "-//W3C//DTD SVG 1.1//EN"
 "http://www.w3.org/Graphics/SVG/1.1/DTD/svg11.dtd">
<!-- Generated by graphviz version 12.2.0 (20241103.1931)
 -->
<!-- Title: GameOver::HandleInput Pages: 1 -->
<svg width="469pt" height="85pt"
 viewBox="0.00 0.00 468.50 85.00" xmlns="http://www.w3.org/2000/svg" xmlns:xlink="http://www.w3.org/1999/xlink">
<g id="graph0" class="graph" transform="scale(1 1) rotate(0) translate(4 81)">
<title>GameOver::HandleInput</title>
<!-- Node1 -->
<g id="Node000001" class="node">
<title>Node1</title>
<g id="a_Node000001"><a xlink:title="Handles user input during the game over scene.">
<polygon fill="#999999" stroke="#666666" points="121.75,-58 0,-58 0,-38 121.75,-38 121.75,-58"/>
<text text-anchor="middle" x="60.88" y="-44.5" font-family="Helvetica,sans-Serif" font-size="10.00">GameOver::HandleInput</text>
</a>
</g>
</g>
<!-- Node2 -->
<g id="Node000002" class="node">
<title>Node2</title>
<g id="a_Node000002"><a xlink:href="class_input_manager.html#a681afd1f90d84a1e29883592891c95dd" target="_top" xlink:title="Retrieves the singleton instance of the InputManager.">
<polygon fill="white" stroke="#666666" points="262.62,-77 165.62,-77 165.62,-57 262.62,-57 262.62,-77"/>
<text text-anchor="middle" x="214.12" y="-63.5" font-family="Helvetica,sans-Serif" font-size="10.00">InputManager::Get</text>
</a>
</g>
</g>
<!-- Node1&#45;&gt;Node2 -->
<g id="edge1_Node000001_Node000002" class="edge">
<title>Node1&#45;&gt;Node2</title>
<g id="a_edge1_Node000001_Node000002"><a xlink:title=" ">
<path fill="none" stroke="#63b8ff" d="M122.09,-55.56C132.61,-56.89 143.56,-58.26 154.05,-59.58"/>
<polygon fill="#63b8ff" stroke="#63b8ff" points="153.36,-63.02 163.72,-60.79 154.24,-56.07 153.36,-63.02"/>
</a>
</g>
</g>
<!-- Node3 -->
<g id="Node000003" class="node">
<title>Node3</title>
<g id="a_Node000003"><a xlink:href="class_input_manager.html#aef542a6bfc8dd4b0a09091cfe1727fff" target="_top" xlink:title="Updates the input state each frame.">
<polygon fill="white" stroke="#666666" points="270.5,-39 157.75,-39 157.75,-19 270.5,-19 270.5,-39"/>
<text text-anchor="middle" x="214.12" y="-25.5" font-family="Helvetica,sans-Serif" font-size="10.00">InputManager::Update</text>
</a>
</g>
</g>
<!-- Node1&#45;&gt;Node3 -->
<g id="edge2_Node000001_Node000003" class="edge">
<title>Node1&#45;&gt;Node3</title>
<g id="a_edge2_Node000001_Node000003"><a xlink:title=" ">
<path fill="none" stroke="#63b8ff" d="M122.09,-40.44C130.04,-39.44 138.23,-38.41 146.28,-37.4"/>
<polygon fill="#63b8ff" stroke="#63b8ff" points="146.55,-40.89 156.04,-36.17 145.68,-33.95 146.55,-40.89"/>
</a>
</g>
</g>
<!-- Node4 -->
<g id="Node000004" class="node">
<title>Node4</title>
<g id="a_Node000004"><a xlink:href="class_input_manager.html#aad8d6154eb7442d0f48db609a9a7d81b" target="_top" xlink:title="Polls SFML keyboard state and sets flags accordingly.">
<polygon fill="white" stroke="#666666" points="460.5,-58 306.5,-58 306.5,-38 460.5,-38 460.5,-58"/>
<text text-anchor="middle" x="383.5" y="-44.5" font-family="Helvetica,sans-Serif" font-size="10.00">InputManager::UpdateKeyboard</text>
</a>
</g>
</g>
<!-- Node3&#45;&gt;Node4 -->
<g id="edge3_Node000003_Node000004" class="edge">
<title>Node3&#45;&gt;Node4</title>
<g id="a_edge3_Node000003_Node000004"><a xlink:title=" ">
<path fill="none" stroke="#63b8ff" d="M270.86,-35.33C278.64,-36.21 286.78,-37.13 294.98,-38.06"/>
<polygon fill="#63b8ff" stroke="#63b8ff" points="294.32,-41.51 304.65,-39.16 295.1,-34.56 294.32,-41.51"/>
</a>
</g>
</g>
<!-- Node5 -->
<g id="Node000005" class="node">
<title>Node5</title>
<g id="a_Node000005"><a xlink:href="class_input_manager.html#aa85d5d75cfd3f4b9595c99c388a1d8aa" target="_top" xlink:title="Polls SFML mouse button state and sets flags accordingly.">
<polygon fill="white" stroke="#666666" points="454.5,-20 312.5,-20 312.5,0 454.5,0 454.5,-20"/>
<text text-anchor="middle" x="383.5" y="-6.5" font-family="Helvetica,sans-Serif" font-size="10.00">InputManager::UpdateMouse</text>
</a>
</g>
</g>
<!-- Node3&#45;&gt;Node5 -->
<g id="edge4_Node000003_Node000005" class="edge">
<title>Node3&#45;&gt;Node5</title>
<g id="a_edge4_Node000003_Node000005"><a xlink:title=" ">
<path fill="none" stroke="#63b8ff" d="M270.86,-22.67C280.46,-21.58 290.62,-20.43 300.74,-19.28"/>
<polygon fill="#63b8ff" stroke="#63b8ff" points="301.08,-22.77 310.62,-18.16 300.29,-15.81 301.08,-22.77"/>
</a>
</g>
</g>
</g>
</svg>
