<?xml version="1.0" encoding="UTF-8" standalone="no"?>
<!DOCTYPE svg PUBLIC "-//W3C//DTD SVG 1.1//EN"
 "http://www.w3.org/Graphics/SVG/1.1/DTD/svg11.dtd">
<!-- Generated by graphviz version 12.2.0 (20241103.1931)
 -->
<!-- Title: include/MyLibrary Pages: 1 -->
<svg width="146pt" height="264pt"
 viewBox="0.00 0.00 146.00 264.00" xmlns="http://www.w3.org/2000/svg" xmlns:xlink="http://www.w3.org/1999/xlink">
<g id="graph0" class="graph" transform="scale(1 1) rotate(0) translate(4 260)">
<title>include/MyLibrary</title>
<g id="clust1" class="cluster">
<title>clusterdir_d44c64559bbebec7f509842c48db8b23</title>
<g id="a_clust1"><a xlink:href="dir_d44c64559bbebec7f509842c48db8b23.html" target="_top" xlink:title="include">
<polygon fill="#daedff" stroke="#404040" stroke-dasharray="5,2" points="8,-8 8,-248 130,-248 130,-8 8,-8"/>
<text text-anchor="middle" x="69" y="-234.5" font-family="Helvetica,sans-Serif" font-size="10.00">include</text>
</a>
</g>
</g>
<g id="clust2" class="cluster">
<title>clusterdir_0bed9bdbe20071aa10d0d00e40d77c56</title>
<g id="a_clust2"><a xlink:href="dir_0bed9bdbe20071aa10d0d00e40d77c56.html" target="_top">
<polygon fill="#daedff" stroke="#404040" stroke-width="2" points="16,-16 16,-220 122,-220 122,-16 16,-16"/>
</a>
</g>
</g>
<!-- dir_0bed9bdbe20071aa10d0d00e40d77c56 -->
<g id="node1" class="node">
<title>dir_0bed9bdbe20071aa10d0d00e40d77c56</title>
<text text-anchor="middle" x="53" y="-198.5" font-family="Helvetica,sans-Serif" font-size="10.00">MyLibrary</text>
</g>
<!-- dir_460c78a6f36b0d162ecc2bbd9fc05f61 -->
<g id="node2" class="node">
<title>dir_460c78a6f36b0d162ecc2bbd9fc05f61</title>
<g id="a_node2"><a xlink:href="dir_460c78a6f36b0d162ecc2bbd9fc05f61.html" target="_top" xlink:title="Core">
<polygon fill="#4ea9ff" stroke="#404040" points="81.5,-100 44.5,-100 44.5,-80 81.5,-80 81.5,-100"/>
<text text-anchor="middle" x="63" y="-86.5" font-family="Helvetica,sans-Serif" font-size="10.00">Core</text>
</a>
</g>
</g>
<!-- dir_0bed9bdbe20071aa10d0d00e40d77c56&#45;&gt;dir_460c78a6f36b0d162ecc2bbd9fc05f61 -->
<g id="edge1" class="edge">
<title>dir_0bed9bdbe20071aa10d0d00e40d77c56&#45;&gt;dir_460c78a6f36b0d162ecc2bbd9fc05f61</title>
<g id="a_edge1"><a xlink:href="dir_000009_000000.html" target="_top">
<path fill="none" stroke="#63b8ff" d="M53.11,-192.15C53.32,-179.62 53.99,-156.01 56,-136 56.81,-127.94 58.09,-119.12 59.34,-111.45"/>
<polygon fill="#63b8ff" stroke="#63b8ff" points="62.76,-112.21 61,-101.76 55.86,-111.03 62.76,-112.21"/>
</a>
</g>
<g id="a_edge1&#45;headlabel"><a xlink:href="dir_000009_000000.html" target="_top" xlink:title="25">
<text text-anchor="middle" x="65.21" y="-111.24" font-family="Helvetica,sans-Serif" font-size="10.00" fill="#63b8ff">25</text>
</a>
</g>
</g>
<!-- dir_4d433d14fbde837bf55744f8e0afbd13 -->
<g id="node3" class="node">
<title>dir_4d433d14fbde837bf55744f8e0afbd13</title>
<g id="a_node3"><a xlink:href="dir_4d433d14fbde837bf55744f8e0afbd13.html" target="_top" xlink:title="Entities">
<polygon fill="#4ea9ff" stroke="#404040" points="87.5,-44 38.5,-44 38.5,-24 87.5,-24 87.5,-44"/>
<text text-anchor="middle" x="63" y="-30.5" font-family="Helvetica,sans-Serif" font-size="10.00">Entities</text>
</a>
</g>
</g>
<!-- dir_0bed9bdbe20071aa10d0d00e40d77c56&#45;&gt;dir_4d433d14fbde837bf55744f8e0afbd13 -->
<g id="edge2" class="edge">
<title>dir_0bed9bdbe20071aa10d0d00e40d77c56&#45;&gt;dir_4d433d14fbde837bf55744f8e0afbd13</title>
<g id="a_edge2"><a xlink:href="dir_000009_000002.html" target="_top">
<path fill="none" stroke="#63b8ff" d="M49.29,-192.03C41.42,-171.74 24.67,-120.89 36,-80 38.57,-70.7 43.64,-61.4 48.69,-53.68"/>
<polygon fill="#63b8ff" stroke="#63b8ff" points="51.54,-55.72 54.47,-45.53 45.83,-51.67 51.54,-55.72"/>
</a>
</g>
<g id="a_edge2&#45;headlabel"><a xlink:href="dir_000009_000002.html" target="_top" xlink:title="6">
<text text-anchor="middle" x="52.65" y="-55.56" font-family="Helvetica,sans-Serif" font-size="10.00" fill="#63b8ff">6</text>
</a>
</g>
</g>
<!-- dir_a2e9d5ea58887e37ae1f6e1fcef6f226 -->
<g id="node4" class="node">
<title>dir_a2e9d5ea58887e37ae1f6e1fcef6f226</title>
<g id="a_node4"><a xlink:href="dir_a2e9d5ea58887e37ae1f6e1fcef6f226.html" target="_top" xlink:title="Scenes">
<polygon fill="#4ea9ff" stroke="#404040" points="113.5,-156 64.5,-156 64.5,-136 113.5,-136 113.5,-156"/>
<text text-anchor="middle" x="89" y="-142.5" font-family="Helvetica,sans-Serif" font-size="10.00">Scenes</text>
</a>
</g>
</g>
<!-- dir_0bed9bdbe20071aa10d0d00e40d77c56&#45;&gt;dir_a2e9d5ea58887e37ae1f6e1fcef6f226 -->
<g id="edge3" class="edge">
<title>dir_0bed9bdbe20071aa10d0d00e40d77c56&#45;&gt;dir_a2e9d5ea58887e37ae1f6e1fcef6f226</title>
<g id="a_edge3"><a xlink:href="dir_000009_000010.html" target="_top">
<path fill="none" stroke="#63b8ff" d="M58.94,-192.08C63.65,-185.02 70.4,-174.9 76.3,-166.04"/>
<polygon fill="#63b8ff" stroke="#63b8ff" points="79.21,-168 81.84,-157.73 73.38,-164.11 79.21,-168"/>
</a>
</g>
<g id="a_edge3&#45;headlabel"><a xlink:href="dir_000009_000010.html" target="_top" xlink:title="5">
<text text-anchor="middle" x="80.42" y="-167.8" font-family="Helvetica,sans-Serif" font-size="10.00" fill="#63b8ff">5</text>
</a>
</g>
</g>
<!-- dir_460c78a6f36b0d162ecc2bbd9fc05f61&#45;&gt;dir_4d433d14fbde837bf55744f8e0afbd13 -->
<g id="edge4" class="edge">
<title>dir_460c78a6f36b0d162ecc2bbd9fc05f61&#45;&gt;dir_4d433d14fbde837bf55744f8e0afbd13</title>
<g id="a_edge4"><a xlink:href="dir_000000_000002.html" target="_top">
<path fill="none" stroke="#63b8ff" d="M57.73,-79.59C56.42,-73.01 55.98,-63.96 56.41,-55.73"/>
<polygon fill="#63b8ff" stroke="#63b8ff" points="59.89,-56.14 57.58,-45.8 52.94,-55.33 59.89,-56.14"/>
</a>
</g>
<g id="a_edge4&#45;headlabel"><a xlink:href="dir_000000_000002.html" target="_top" xlink:title="3">
<text text-anchor="middle" x="62.47" y="-55.04" font-family="Helvetica,sans-Serif" font-size="10.00" fill="#63b8ff">3</text>
</a>
</g>
</g>
<!-- dir_4d433d14fbde837bf55744f8e0afbd13&#45;&gt;dir_460c78a6f36b0d162ecc2bbd9fc05f61 -->
<g id="edge5" class="edge">
<title>dir_4d433d14fbde837bf55744f8e0afbd13&#45;&gt;dir_460c78a6f36b0d162ecc2bbd9fc05f61</title>
<g id="a_edge5"><a xlink:href="dir_000002_000000.html" target="_top">
<path fill="none" stroke="#63b8ff" d="M68.25,-44.3C69.59,-50.93 70.03,-60.11 69.58,-68.43"/>
<polygon fill="#63b8ff" stroke="#63b8ff" points="66.13,-67.75 68.44,-78.09 73.08,-68.57 66.13,-67.75"/>
</a>
</g>
<g id="a_edge5&#45;headlabel"><a xlink:href="dir_000002_000000.html" target="_top" xlink:title="7">
<text text-anchor="middle" x="63.55" y="-61.85" font-family="Helvetica,sans-Serif" font-size="10.00" fill="#63b8ff">7</text>
</a>
</g>
</g>
<!-- dir_a2e9d5ea58887e37ae1f6e1fcef6f226&#45;&gt;dir_460c78a6f36b0d162ecc2bbd9fc05f61 -->
<g id="edge6" class="edge">
<title>dir_a2e9d5ea58887e37ae1f6e1fcef6f226&#45;&gt;dir_460c78a6f36b0d162ecc2bbd9fc05f61</title>
<g id="a_edge6"><a xlink:href="dir_000010_000000.html" target="_top">
<path fill="none" stroke="#63b8ff" d="M84.47,-135.59C81.15,-128.7 76.53,-119.1 72.42,-110.57"/>
<polygon fill="#63b8ff" stroke="#63b8ff" points="75.63,-109.15 68.13,-101.66 69.32,-112.19 75.63,-109.15"/>
</a>
</g>
<g id="a_edge6&#45;headlabel"><a xlink:href="dir_000010_000000.html" target="_top" xlink:title="11">
<text text-anchor="middle" x="79.09" y="-106.3" font-family="Helvetica,sans-Serif" font-size="10.00" fill="#63b8ff">11</text>
</a>
</g>
</g>
<!-- dir_a2e9d5ea58887e37ae1f6e1fcef6f226&#45;&gt;dir_4d433d14fbde837bf55744f8e0afbd13 -->
<g id="edge7" class="edge">
<title>dir_a2e9d5ea58887e37ae1f6e1fcef6f226&#45;&gt;dir_4d433d14fbde837bf55744f8e0afbd13</title>
<g id="a_edge7"><a xlink:href="dir_000010_000002.html" target="_top">
<path fill="none" stroke="#63b8ff" d="M91.06,-135.52C93.47,-122.66 96.46,-99.11 91,-80 88.29,-70.53 82.95,-61.11 77.65,-53.35"/>
<polygon fill="#63b8ff" stroke="#63b8ff" points="80.59,-51.44 71.84,-45.47 74.96,-55.59 80.59,-51.44"/>
</a>
</g>
<g id="a_edge7&#45;headlabel"><a xlink:href="dir_000010_000002.html" target="_top" xlink:title="2">
<text text-anchor="middle" x="84.11" y="-47.92" font-family="Helvetica,sans-Serif" font-size="10.00" fill="#63b8ff">2</text>
</a>
</g>
</g>
</g>
</svg>
