<?xml version="1.0" encoding="UTF-8" standalone="no"?>
<!DOCTYPE svg PUBLIC "-//W3C//DTD SVG 1.1//EN"
 "http://www.w3.org/Graphics/SVG/1.1/DTD/svg11.dtd">
<!-- Generated by graphviz version 12.2.0 (20241103.1931)
 -->
<!-- Title: Graphical Class Hierarchy Pages: 1 -->
<svg width="193pt" height="104pt"
 viewBox="0.00 0.00 193.00 104.00" xmlns="http://www.w3.org/2000/svg" xmlns:xlink="http://www.w3.org/1999/xlink">
<g id="graph0" class="graph" transform="scale(1 1) rotate(0) translate(4 100)">
<title>Graphical Class Hierarchy</title>
<!-- Node0 -->
<g id="Node000000" class="node">
<title>Node0</title>
<g id="a_Node000000"><a xlink:title=" ">
<polygon fill="#e0e0e0" stroke="#999999" points="63.25,-58 0,-58 0,-38 63.25,-38 63.25,-58"/>
<text text-anchor="middle" x="31.62" y="-44.5" font-family="Helvetica,sans-Serif" font-size="10.00">sf::Vector2</text>
</a>
</g>
</g>
<!-- Node1 -->
<g id="Node000001" class="node">
<title>Node1</title>
<g id="a_Node000001"><a xlink:href="class_vector2.html" target="_top" xlink:title=" ">
<polygon fill="white" stroke="#666666" points="180.88,-96 103.38,-96 103.38,-76 180.88,-76 180.88,-96"/>
<text text-anchor="middle" x="142.12" y="-82.5" font-family="Helvetica,sans-Serif" font-size="10.00">Vector2&lt; int &gt;</text>
</a>
</g>
</g>
<!-- Node0&#45;&gt;Node1 -->
<g id="edge7_Node000000_Node000001" class="edge">
<title>Node0&#45;&gt;Node1</title>
<g id="a_edge7_Node000000_Node000001"><a xlink:title=" ">
<path fill="none" stroke="#63b8ff" d="M73.3,-62.24C85.9,-66.66 99.56,-71.44 111.29,-75.55"/>
<polygon fill="#63b8ff" stroke="#63b8ff" points="74.58,-58.99 63.99,-58.98 72.27,-65.59 74.58,-58.99"/>
</a>
</g>
</g>
<!-- Node2 -->
<g id="Node000002" class="node">
<title>Node2</title>
<g id="a_Node000002"><a xlink:href="class_vector2.html" target="_top" xlink:title=" ">
<polygon fill="white" stroke="#666666" points="185,-58 99.25,-58 99.25,-38 185,-38 185,-58"/>
<text text-anchor="middle" x="142.12" y="-44.5" font-family="Helvetica,sans-Serif" font-size="10.00">Vector2&lt; float &gt;</text>
</a>
</g>
</g>
<!-- Node0&#45;&gt;Node2 -->
<g id="edge8_Node000000_Node000002" class="edge">
<title>Node0&#45;&gt;Node2</title>
<g id="a_edge8_Node000000_Node000002"><a xlink:title=" ">
<path fill="none" stroke="#63b8ff" d="M74.99,-48C82.91,-48 91.19,-48 99.11,-48"/>
<polygon fill="#63b8ff" stroke="#63b8ff" points="75.23,-44.5 65.23,-48 75.23,-51.5 75.23,-44.5"/>
</a>
</g>
</g>
<!-- Node3 -->
<g id="Node000003" class="node">
<title>Node3</title>
<g id="a_Node000003"><a xlink:href="class_vector2.html" target="_top" xlink:title="A basic 2D vector class for game development.">
<polygon fill="white" stroke="#666666" points="178.25,-20 106,-20 106,0 178.25,0 178.25,-20"/>
<text text-anchor="middle" x="142.12" y="-6.5" font-family="Helvetica,sans-Serif" font-size="10.00">Vector2&lt; T &gt;</text>
</a>
</g>
</g>
<!-- Node0&#45;&gt;Node3 -->
<g id="edge9_Node000000_Node000003" class="edge">
<title>Node0&#45;&gt;Node3</title>
<g id="a_edge9_Node000000_Node000003"><a xlink:title=" ">
<path fill="none" stroke="#63b8ff" d="M73.3,-33.76C85.9,-29.34 99.56,-24.56 111.29,-20.45"/>
<polygon fill="#63b8ff" stroke="#63b8ff" points="72.27,-30.41 63.99,-37.02 74.58,-37.01 72.27,-30.41"/>
</a>
</g>
</g>
</g>
</svg>
