<?xml version="1.0" encoding="UTF-8" standalone="no"?>
<!DOCTYPE svg PUBLIC "-//W3C//DTD SVG 1.1//EN"
 "http://www.w3.org/Graphics/SVG/1.1/DTD/svg11.dtd">
<!-- Generated by graphviz version 12.2.0 (20241103.1931)
 -->
<!-- Title: Graphical Class Hierarchy Pages: 1 -->
<svg width="180pt" height="218pt"
 viewBox="0.00 0.00 180.25 218.00" xmlns="http://www.w3.org/2000/svg" xmlns:xlink="http://www.w3.org/1999/xlink">
<g id="graph0" class="graph" transform="scale(1 1) rotate(0) translate(4 214)">
<title>Graphical Class Hierarchy</title>
<!-- Node0 -->
<g id="Node000000" class="node">
<title>Node0</title>
<g id="a_Node000000"><a xlink:href="class_i_game_scene.html" target="_top" xlink:title="Interface for all game scenes.">
<polygon fill="white" stroke="#666666" points="73,-115 0,-115 0,-95 73,-95 73,-115"/>
<text text-anchor="middle" x="36.5" y="-101.5" font-family="Helvetica,sans-Serif" font-size="10.00">IGameScene</text>
</a>
</g>
</g>
<!-- Node1 -->
<g id="Node000001" class="node">
<title>Node1</title>
<g id="a_Node000001"><a xlink:href="class_credits.html" target="_top" xlink:title=" ">
<polygon fill="white" stroke="#666666" points="164.38,-210 116.88,-210 116.88,-190 164.38,-190 164.38,-210"/>
<text text-anchor="middle" x="140.62" y="-196.5" font-family="Helvetica,sans-Serif" font-size="10.00">Credits</text>
</a>
</g>
</g>
<!-- Node0&#45;&gt;Node1 -->
<g id="edge1_Node000000_Node000001" class="edge">
<title>Node0&#45;&gt;Node1</title>
<g id="a_edge1_Node000000_Node000001"><a xlink:title=" ">
<path fill="none" stroke="#63b8ff" d="M52.95,-124.03C66.67,-140.26 87.78,-163.65 109,-181 112.78,-184.09 117.1,-187.06 121.28,-189.7"/>
<polygon fill="#63b8ff" stroke="#63b8ff" points="55.83,-122.02 46.75,-116.57 50.45,-126.49 55.83,-122.02"/>
</a>
</g>
</g>
<!-- Node2 -->
<g id="Node000002" class="node">
<title>Node2</title>
<g id="a_Node000002"><a xlink:href="class_game_over.html" target="_top" xlink:title="Represents the game over scene where the player is shown the end of the game and options to restart.">
<polygon fill="white" stroke="#666666" points="172.25,-172 109,-172 109,-152 172.25,-152 172.25,-172"/>
<text text-anchor="middle" x="140.62" y="-158.5" font-family="Helvetica,sans-Serif" font-size="10.00">GameOver</text>
</a>
</g>
</g>
<!-- Node0&#45;&gt;Node2 -->
<g id="edge2_Node000000_Node000002" class="edge">
<title>Node0&#45;&gt;Node2</title>
<g id="a_edge2_Node000000_Node000002"><a xlink:title=" ">
<path fill="none" stroke="#63b8ff" d="M65.99,-120.9C83.58,-130.72 105.64,-143.03 121.01,-151.61"/>
<polygon fill="#63b8ff" stroke="#63b8ff" points="67.99,-118.01 57.55,-116.19 64.58,-124.12 67.99,-118.01"/>
</a>
</g>
</g>
<!-- Node3 -->
<g id="Node000003" class="node">
<title>Node3</title>
<g id="a_Node000003"><a xlink:href="class_intro.html" target="_top" xlink:title=" ">
<polygon fill="white" stroke="#666666" points="158.38,-134 122.88,-134 122.88,-114 158.38,-114 158.38,-134"/>
<text text-anchor="middle" x="140.62" y="-120.5" font-family="Helvetica,sans-Serif" font-size="10.00">Intro</text>
</a>
</g>
</g>
<!-- Node0&#45;&gt;Node3 -->
<g id="edge3_Node000000_Node000003" class="edge">
<title>Node0&#45;&gt;Node3</title>
<g id="a_edge3_Node000000_Node000003"><a xlink:title=" ">
<path fill="none" stroke="#63b8ff" d="M84.43,-113.73C97.98,-116.25 111.92,-118.85 122.41,-120.8"/>
<polygon fill="#63b8ff" stroke="#63b8ff" points="85.18,-110.31 74.71,-111.92 83.9,-117.19 85.18,-110.31"/>
</a>
</g>
</g>
<!-- Node4 -->
<g id="Node000004" class="node">
<title>Node4</title>
<g id="a_Node000004"><a xlink:href="class_level_one.html" target="_top" xlink:title="Represents the first level of the game, including background, spaceship, enemies, and game state.">
<polygon fill="white" stroke="#666666" points="169.25,-96 112,-96 112,-76 169.25,-76 169.25,-96"/>
<text text-anchor="middle" x="140.62" y="-82.5" font-family="Helvetica,sans-Serif" font-size="10.00">LevelOne</text>
</a>
</g>
</g>
<!-- Node0&#45;&gt;Node4 -->
<g id="edge4_Node000000_Node000004" class="edge">
<title>Node0&#45;&gt;Node4</title>
<g id="a_edge4_Node000000_Node000004"><a xlink:title=" ">
<path fill="none" stroke="#63b8ff" d="M84.45,-96.26C93.81,-94.52 103.35,-92.75 111.81,-91.17"/>
<polygon fill="#63b8ff" stroke="#63b8ff" points="83.9,-92.81 74.71,-98.08 85.18,-99.69 83.9,-92.81"/>
</a>
</g>
</g>
<!-- Node5 -->
<g id="Node000005" class="node">
<title>Node5</title>
<g id="a_Node000005"><a xlink:href="class_level_two.html" target="_top" xlink:title="Represents the second level of the game, including scene management and rendering.">
<polygon fill="white" stroke="#666666" points="169.25,-58 112,-58 112,-38 169.25,-38 169.25,-58"/>
<text text-anchor="middle" x="140.62" y="-44.5" font-family="Helvetica,sans-Serif" font-size="10.00">LevelTwo</text>
</a>
</g>
</g>
<!-- Node0&#45;&gt;Node5 -->
<g id="edge5_Node000000_Node000005" class="edge">
<title>Node0&#45;&gt;Node5</title>
<g id="a_edge5_Node000000_Node000005"><a xlink:title=" ">
<path fill="none" stroke="#63b8ff" d="M65.99,-89.1C83.58,-79.28 105.64,-66.97 121.01,-58.39"/>
<polygon fill="#63b8ff" stroke="#63b8ff" points="64.58,-85.88 57.55,-93.81 67.99,-91.99 64.58,-85.88"/>
</a>
</g>
</g>
<!-- Node6 -->
<g id="Node000006" class="node">
<title>Node6</title>
<g id="a_Node000006"><a xlink:href="class_menu_state.html" target="_top" xlink:title="Represents the main menu state in the game.">
<polygon fill="white" stroke="#666666" points="172.25,-20 109,-20 109,0 172.25,0 172.25,-20"/>
<text text-anchor="middle" x="140.62" y="-6.5" font-family="Helvetica,sans-Serif" font-size="10.00">MenuState</text>
</a>
</g>
</g>
<!-- Node0&#45;&gt;Node6 -->
<g id="edge6_Node000000_Node000006" class="edge">
<title>Node0&#45;&gt;Node6</title>
<g id="a_edge6_Node000000_Node000006"><a xlink:title=" ">
<path fill="none" stroke="#63b8ff" d="M52.95,-85.97C66.67,-69.74 87.78,-46.35 109,-29 112.78,-25.91 117.1,-22.94 121.28,-20.3"/>
<polygon fill="#63b8ff" stroke="#63b8ff" points="50.45,-83.51 46.75,-93.43 55.83,-87.98 50.45,-83.51"/>
</a>
</g>
</g>
</g>
</svg>
