<?xml version="1.0" encoding="UTF-8" standalone="no"?>
<!DOCTYPE svg PUBLIC "-//W3C//DTD SVG 1.1//EN"
 "http://www.w3.org/Graphics/SVG/1.1/DTD/svg11.dtd">
<!-- Generated by graphviz version 12.2.0 (20241103.1931)
 -->
<!-- Title: WinMain Pages: 1 -->
<!--zoomable 217 -->

<svg id="main" version="1.1" xmlns="http://www.w3.org/2000/svg" xmlns:xlink="http://www.w3.org/1999/xlink" xml:space="preserve" onload="init(evt)">

<style type="text/css"><![CDATA[
.node, .edge {opacity: 0.7;}
.node.selected, .edge.selected {opacity: 1;}
.edge:hover path { stroke: red; }
.edge:hover polygon { stroke: red; fill: red; }
]]></style>

<defs>
  <circle id="rim" cx="0" cy="0" r="7"/>
  <circle id="rim2" cx="0" cy="0" r="3.5"/>
  <g id="zoomPlus">
    <use xlink:href="#rim" fill="#404040"><set attributeName="fill" to="#808080" begin="zoomplus.mouseover" end="zoomplus.mouseout"/></use>
    <path d="M-4,0h8M0,-4v8" fill="none" stroke="white" stroke-width="1.5" pointer-events="none"/>
  </g>
  <g id="zoomMin">
    <use xlink:href="#rim" fill="#404040"><set attributeName="fill" to="#808080" begin="zoomminus.mouseover" end="zoomminus.mouseout"/></use>
    <path d="M-4,0h8" fill="none" stroke="white" stroke-width="1.5" pointer-events="none"/>
  </g>
  <g id="arrowUp" transform="translate(30 24)">
    <use xlink:href="#rim"/>
    <path pointer-events="none" fill="none" stroke="white" stroke-width="1.5" d="M0,-3.0v7 M-2.5,-0.5L0,-3.0L2.5,-0.5"/>
  </g>
  <g id="arrowRight" transform="rotate(90) translate(36 -43)">
    <use xlink:href="#rim"/>
    <path pointer-events="none" fill="none" stroke="white" stroke-width="1.5" d="M0,-3.0v7 M-2.5,-0.5L0,-3.0L2.5,-0.5"/>
  </g>
  <g id="arrowDown" transform="rotate(180) translate(-30 -48)">
    <use xlink:href="#rim"/>
    <path pointer-events="none" fill="none" stroke="white" stroke-width="1.5" d="M0,-3.0v7 M-2.5,-0.5L0,-3.0L2.5,-0.5"/>
  </g>
  <g id="arrowLeft" transform="rotate(270) translate(-36 17)">
    <use xlink:href="#rim"/>
    <path pointer-events="none" fill="none" stroke="white" stroke-width="1.5" d="M0,-3.0v7 M-2.5,-0.5L0,-3.0L2.5,-0.5"/>
  </g>
  <g id="resetDef">
    <use xlink:href="#rim2" fill="#404040"><set attributeName="fill" to="#808080" begin="reset.mouseover" end="reset.mouseout"/></use>
  </g>
</defs>
<script type="application/ecmascript">
var viewWidth = 675;
var viewHeight = 217;
var sectionId = 'dynsection-1';
</script>
<script type="application/ecmascript" xlink:href="svg.min.js"/>
<svg id="graph" class="graph">
<g id="viewport">
<title>WinMain</title>
<!-- Node1 -->
<g id="Node000001" class="node">
<title>Node1</title>
<g id="a_Node000001"><a xlink:title="Entry point for the game in release mode.">
<polygon fill="#999999" stroke="#666666" points="54.25,-113.52 0,-113.52 0,-93.52 54.25,-93.52 54.25,-113.52"/>
<text text-anchor="middle" x="27.12" y="-100.02" font-family="Helvetica,sans-Serif" font-size="10.00">WinMain</text>
</a>
</g>
</g>
<!-- Node2 -->
<g id="Node000002" class="node">
<title>Node2</title>
<g id="a_Node000002"><a xlink:href="class_game_instance.html#aad33789f20dcd91cef933f273903aa6f" target="_top" xlink:title="Starts the game loop and runs the game.">
<polygon fill="white" stroke="#666666" points="194,-113.52 90.25,-113.52 90.25,-93.52 194,-93.52 194,-113.52"/>
<text text-anchor="middle" x="142.12" y="-100.02" font-family="Helvetica,sans-Serif" font-size="10.00">GameInstance::Run</text>
</a>
</g>
</g>
<!-- Node1&#45;&gt;Node2 -->
<g id="edge1_Node000001_Node000002" class="edge">
<title>Node1&#45;&gt;Node2</title>
<g id="a_edge1_Node000001_Node000002"><a xlink:title=" ">
<path fill="none" stroke="#63b8ff" d="M54.62,-103.52C61.88,-103.52 70.08,-103.52 78.46,-103.52"/>
<polygon fill="#63b8ff" stroke="#63b8ff" points="78.42,-107.02 88.42,-103.52 78.42,-100.02 78.42,-107.02"/>
</a>
</g>
</g>
<!-- Node3 -->
<g id="Node000003" class="node">
<title>Node3</title>
<g id="a_Node000003"><a xlink:href="class_game_instance.html#a11189b5aa4b25b17b2ec554eca8a1d1c" target="_top" xlink:title="Draws the game objects to the window.">
<polygon fill="white" stroke="#666666" points="355.5,-208.52 246.5,-208.52 246.5,-188.52 355.5,-188.52 355.5,-208.52"/>
<text text-anchor="middle" x="301" y="-195.02" font-family="Helvetica,sans-Serif" font-size="10.00">GameInstance::Draw</text>
</a>
</g>
</g>
<!-- Node2&#45;&gt;Node3 -->
<g id="edge2_Node000002_Node000003" class="edge">
<title>Node2&#45;&gt;Node3</title>
<g id="a_edge2_Node000002_Node000003"><a xlink:title=" ">
<path fill="none" stroke="#63b8ff" d="M153.19,-113.82C168.52,-128.98 199.19,-157.38 230,-174.52 236.49,-178.13 243.61,-181.33 250.75,-184.13"/>
<polygon fill="#63b8ff" stroke="#63b8ff" points="249.51,-187.4 260.11,-187.54 251.91,-180.82 249.51,-187.4"/>
</a>
</g>
</g>
<!-- Node5 -->
<g id="Node000005" class="node">
<title>Node5</title>
<g id="a_Node000005"><a xlink:href="class_cursor.html#a63a9f41bc993fa26d7b897bed958109d" target="_top" xlink:title="Retrieve the singleton instance of the Cursor class.">
<polygon fill="white" stroke="#666666" points="658.62,-75.52 591.62,-75.52 591.62,-55.52 658.62,-55.52 658.62,-75.52"/>
<text text-anchor="middle" x="625.12" y="-62.02" font-family="Helvetica,sans-Serif" font-size="10.00">Cursor::Get</text>
</a>
</g>
</g>
<!-- Node2&#45;&gt;Node5 -->
<g id="edge4_Node000002_Node000005" class="edge">
<title>Node2&#45;&gt;Node5</title>
<g id="a_edge4_Node000002_Node000005"><a xlink:title=" ">
<path fill="none" stroke="#63b8ff" d="M161.03,-113.98C178.1,-123.3 204.86,-136.26 230,-141.52 369.22,-170.63 413.54,-150.59 547.75,-103.52 564.46,-97.66 582.21,-88.99 596.39,-81.41"/>
<polygon fill="#63b8ff" stroke="#63b8ff" points="598.05,-84.49 605.14,-76.61 594.69,-78.35 598.05,-84.49"/>
</a>
</g>
</g>
<!-- Node6 -->
<g id="Node000006" class="node">
<title>Node6</title>
<g id="a_Node000006"><a xlink:href="class_game_instance.html#a782ce33b89f46c92d9f85b63cc10babd" target="_top" xlink:title="Handles window events.">
<polygon fill="white" stroke="#666666" points="372,-132.52 230,-132.52 230,-112.52 372,-112.52 372,-132.52"/>
<text text-anchor="middle" x="301" y="-119.02" font-family="Helvetica,sans-Serif" font-size="10.00">GameInstance::HandleEvent</text>
</a>
</g>
</g>
<!-- Node2&#45;&gt;Node6 -->
<g id="edge5_Node000002_Node000006" class="edge">
<title>Node2&#45;&gt;Node6</title>
<g id="a_edge5_Node000002_Node000006"><a xlink:title=" ">
<path fill="none" stroke="#63b8ff" d="M194.49,-109.74C202.23,-110.68 210.37,-111.66 218.56,-112.66"/>
<polygon fill="#63b8ff" stroke="#63b8ff" points="217.86,-116.1 228.21,-113.82 218.71,-109.15 217.86,-116.1"/>
</a>
</g>
</g>
<!-- Node7 -->
<g id="Node000007" class="node">
<title>Node7</title>
<g id="a_Node000007"><a xlink:href="class_game_instance.html#a3de6d5da975ab0f53c1b4b96cb035893" target="_top" xlink:title="Handles player input.">
<polygon fill="white" stroke="#666666" points="370.12,-94.52 231.88,-94.52 231.88,-74.52 370.12,-74.52 370.12,-94.52"/>
<text text-anchor="middle" x="301" y="-81.02" font-family="Helvetica,sans-Serif" font-size="10.00">GameInstance::HandleInput</text>
</a>
</g>
</g>
<!-- Node2&#45;&gt;Node7 -->
<g id="edge6_Node000002_Node000007" class="edge">
<title>Node2&#45;&gt;Node7</title>
<g id="a_edge6_Node000002_Node000007"><a xlink:title=" ">
<path fill="none" stroke="#63b8ff" d="M194.49,-97.3C202.69,-96.3 211.34,-95.26 220.02,-94.21"/>
<polygon fill="#63b8ff" stroke="#63b8ff" points="220.4,-97.69 229.9,-93.01 219.56,-90.74 220.4,-97.69"/>
</a>
</g>
</g>
<!-- Node9 -->
<g id="Node000009" class="node">
<title>Node9</title>
<g id="a_Node000009"><a xlink:href="class_cursor.html#a0d5032e03907b8374630fdf3494558d7" target="_top" xlink:title="Update the cursor&#39;s internal state.">
<polygon fill="white" stroke="#666666" points="666.5,-37.52 583.75,-37.52 583.75,-17.52 666.5,-17.52 666.5,-37.52"/>
<text text-anchor="middle" x="625.12" y="-24.02" font-family="Helvetica,sans-Serif" font-size="10.00">Cursor::Update</text>
</a>
</g>
</g>
<!-- Node2&#45;&gt;Node9 -->
<g id="edge8_Node000002_Node000009" class="edge">
<title>Node2&#45;&gt;Node9</title>
<g id="a_edge8_Node000002_Node000009"><a xlink:title=" ">
<path fill="none" stroke="#63b8ff" d="M150.79,-93.09C164.41,-75.54 194.73,-40.77 230,-27.52 346,16.06 495.11,-2.02 572.44,-16.33"/>
<polygon fill="#63b8ff" stroke="#63b8ff" points="571.35,-19.68 581.82,-18.12 572.66,-12.81 571.35,-19.68"/>
</a>
</g>
</g>
<!-- Node10 -->
<g id="Node000010" class="node">
<title>Node10</title>
<g id="a_Node000010"><a xlink:href="class_game_instance.html#a422f52b6d9640ba39cf47f80fff28f76" target="_top" xlink:title="Updates the game logic.">
<polygon fill="white" stroke="#666666" points="359.62,-56.52 242.38,-56.52 242.38,-36.52 359.62,-36.52 359.62,-56.52"/>
<text text-anchor="middle" x="301" y="-43.02" font-family="Helvetica,sans-Serif" font-size="10.00">GameInstance::Update</text>
</a>
</g>
</g>
<!-- Node2&#45;&gt;Node10 -->
<g id="edge9_Node000002_Node000010" class="edge">
<title>Node2&#45;&gt;Node10</title>
<g id="a_edge9_Node000002_Node000010"><a xlink:title=" ">
<path fill="none" stroke="#63b8ff" d="M164.55,-93.09C181.92,-84.9 207.18,-73.56 230,-65.52 235.36,-63.63 241,-61.82 246.66,-60.12"/>
<polygon fill="#63b8ff" stroke="#63b8ff" points="247.41,-63.54 256.04,-57.4 245.46,-56.82 247.41,-63.54"/>
</a>
</g>
</g>
<!-- Node4 -->
<g id="Node000004" class="node">
<title>Node4</title>
<g id="a_Node000004"><a xlink:href="class_scene_manager.html#a1991078e3f864e043c82d480959fc733" target="_top" xlink:title="Draws the currently active scene.">
<polygon fill="white" stroke="#666666" points="533.12,-208.52 422.62,-208.52 422.62,-188.52 533.12,-188.52 533.12,-208.52"/>
<text text-anchor="middle" x="477.88" y="-195.02" font-family="Helvetica,sans-Serif" font-size="10.00">SceneManager::Draw</text>
</a>
</g>
</g>
<!-- Node3&#45;&gt;Node4 -->
<g id="edge3_Node000003_Node000004" class="edge">
<title>Node3&#45;&gt;Node4</title>
<g id="a_edge3_Node000003_Node000004"><a xlink:title=" ">
<path fill="none" stroke="#63b8ff" d="M355.9,-198.52C373.27,-198.52 392.72,-198.52 410.86,-198.52"/>
<polygon fill="#63b8ff" stroke="#63b8ff" points="410.74,-202.02 420.74,-198.52 410.74,-195.02 410.74,-202.02"/>
</a>
</g>
</g>
<!-- Node8 -->
<g id="Node000008" class="node">
<title>Node8</title>
<g id="a_Node000008"><a xlink:href="class_scene_manager.html#ab3e6ef346009802e1ed1ee24ce56aeb3" target="_top" xlink:title="Handles input for the active scene.">
<polygon fill="white" stroke="#666666" points="547.75,-94.52 408,-94.52 408,-74.52 547.75,-74.52 547.75,-94.52"/>
<text text-anchor="middle" x="477.88" y="-81.02" font-family="Helvetica,sans-Serif" font-size="10.00">SceneManager::HandleInput</text>
</a>
</g>
</g>
<!-- Node7&#45;&gt;Node8 -->
<g id="edge7_Node000007_Node000008" class="edge">
<title>Node7&#45;&gt;Node8</title>
<g id="a_edge7_Node000007_Node000008"><a xlink:title=" ">
<path fill="none" stroke="#63b8ff" d="M370.61,-84.52C379.06,-84.52 387.76,-84.52 396.36,-84.52"/>
<polygon fill="#63b8ff" stroke="#63b8ff" points="396.08,-88.02 406.08,-84.52 396.08,-81.02 396.08,-88.02"/>
</a>
</g>
</g>
<!-- Node11 -->
<g id="Node000011" class="node">
<title>Node11</title>
<g id="a_Node000011"><a xlink:href="class_scene_manager.html#adbede64d5706507e65f0e9dd0eaddd6b" target="_top" xlink:title="Updates the currently active scene.">
<polygon fill="white" stroke="#666666" points="537.25,-56.52 418.5,-56.52 418.5,-36.52 537.25,-36.52 537.25,-56.52"/>
<text text-anchor="middle" x="477.88" y="-43.02" font-family="Helvetica,sans-Serif" font-size="10.00">SceneManager::Update</text>
</a>
</g>
</g>
<!-- Node10&#45;&gt;Node11 -->
<g id="edge10_Node000010_Node000011" class="edge">
<title>Node10&#45;&gt;Node11</title>
<g id="a_edge10_Node000010_Node000011"><a xlink:title=" ">
<path fill="none" stroke="#63b8ff" d="M359.75,-46.52C374.88,-46.52 391.35,-46.52 407.04,-46.52"/>
<polygon fill="#63b8ff" stroke="#63b8ff" points="406.78,-50.02 416.78,-46.52 406.78,-43.02 406.78,-50.02"/>
</a>
</g>
</g>
<!-- Node11&#45;&gt;Node5 -->
<g id="edge11_Node000011_Node000005" class="edge">
<title>Node11&#45;&gt;Node5</title>
<g id="a_edge11_Node000011_Node000005"><a xlink:title=" ">
<path fill="none" stroke="#63b8ff" d="M537.54,-54.19C551.66,-56.04 566.52,-57.98 579.87,-59.73"/>
<polygon fill="#63b8ff" stroke="#63b8ff" points="579.28,-63.18 589.65,-61.01 580.19,-56.24 579.28,-63.18"/>
</a>
</g>
</g>
<!-- Node11&#45;&gt;Node9 -->
<g id="edge12_Node000011_Node000009" class="edge">
<title>Node11&#45;&gt;Node9</title>
<g id="a_edge12_Node000011_Node000009"><a xlink:title=" ">
<path fill="none" stroke="#63b8ff" d="M537.54,-38.85C548.99,-37.35 560.92,-35.79 572.14,-34.32"/>
<polygon fill="#63b8ff" stroke="#63b8ff" points="572.56,-37.79 582.02,-33.03 571.65,-30.85 572.56,-37.79"/>
</a>
</g>
</g>
</g>
</svg>

<g id="navigator" transform="translate(0 0)" fill="#404254">
  <rect fill="#f2f5e9" fill-opacity="0.5" stroke="#606060" stroke-width=".5" x="0" y="0" width="60" height="60"/>
  <use id="zoomplus" xlink:href="#zoomPlus" x="17" y="9" onmousedown="handleZoom(evt,'in')"/>
  <use id="zoomminus" xlink:href="#zoomMin" x="42" y="9" onmousedown="handleZoom(evt,'out')"/>
  <use id="reset" xlink:href="#resetDef" x="30" y="36" onmousedown="handleReset()"/>
   <use id="arrowup" xlink:href="#arrowUp" x="0" y="0" onmousedown="handlePan(0,-1)"/>
  <use id="arrowright" xlink:href="#arrowRight" x="0" y="0" onmousedown="handlePan(1,0)"/>
  <use id="arrowdown" xlink:href="#arrowDown" x="0" y="0" onmousedown="handlePan(0,1)"/>
  <use id="arrowleft" xlink:href="#arrowLeft" x="0" y="0" onmousedown="handlePan(-1,0)"/>
</g>
<svg viewBox="0 0 15 15" width="100%" height="30px" preserveAspectRatio="xMaxYMin meet">
 <g id="arrow_out" transform="scale(0.3 0.3)">
  <a xlink:href="main_8cpp_ac11a9f698adda87a72e4d287beaabc5f_cgraph_org.svg" target="_base">
   <rect id="button" ry="5" rx="5" y="6" x="6" height="38" width="38"
        fill="#f2f5e9" fill-opacity="0.5" stroke="#606060" stroke-width="1.0"/>
   <path id="arrow"
     d="M 11.500037,31.436501 C 11.940474,20.09759 22.043105,11.32322 32.158766,21.979434 L 37.068811,17.246167 C 37.068811,17.246167 37.088388,32 37.088388,32 L 22.160133,31.978069 C 22.160133,31.978069 26.997745,27.140456 26.997745,27.140456 C 18.528582,18.264221 13.291696,25.230495 11.500037,31.436501 z"
     style="fill:#404040;"/>
  </a>
 </g>
</svg>

<style type='text/css'>
<![CDATA[
[data-mouse-over-selected='false'] { opacity: 0.7; }
[data-mouse-over-selected='true']  { opacity: 1.0; }
]]>
</style>
<script type="application/ecmascript"><![CDATA[
document.addEventListener('DOMContentLoaded', (event) => {
  highlightEdges();
  highlightAdjacentNodes();
});
]]></script>
</svg>
