<?xml version="1.0" encoding="UTF-8" standalone="no"?>
<!DOCTYPE svg PUBLIC "-//W3C//DTD SVG 1.1//EN"
 "http://www.w3.org/Graphics/SVG/1.1/DTD/svg11.dtd">
<!-- Generated by graphviz version 12.2.0 (20241103.1931)
 -->
<!-- Title: GameplayUtility::RemoveInactiveProjectiles Pages: 1 -->
<svg width="795pt" height="66pt"
 viewBox="0.00 0.00 794.50 66.00" xmlns="http://www.w3.org/2000/svg" xmlns:xlink="http://www.w3.org/1999/xlink">
<g id="graph0" class="graph" transform="scale(1 1) rotate(0) translate(4 62)">
<title>GameplayUtility::RemoveInactiveProjectiles</title>
<!-- Node1 -->
<g id="Node000001" class="node">
<title>Node1</title>
<g id="a_Node000001"><a xlink:title="Removes inactive projectiles from the game.">
<polygon fill="#999999" stroke="#666666" points="786.5,-45 623.5,-45 623.5,-13 786.5,-13 786.5,-45"/>
<text text-anchor="start" x="631.5" y="-31.5" font-family="Helvetica,sans-Serif" font-size="10.00">GameplayUtility::RemoveInactive</text>
<text text-anchor="middle" x="705" y="-19.5" font-family="Helvetica,sans-Serif" font-size="10.00">Projectiles</text>
</a>
</g>
</g>
<!-- Node2 -->
<g id="Node000002" class="node">
<title>Node2</title>
<g id="a_Node000002"><a xlink:href="class_enemy.html#ac892bd8564cb726b3538925a32f9f727" target="_top" xlink:title="Updates the enemy&#39;s state.">
<polygon fill="white" stroke="#666666" points="557.12,-58 472.88,-58 472.88,-38 557.12,-38 557.12,-58"/>
<text text-anchor="middle" x="515" y="-44.5" font-family="Helvetica,sans-Serif" font-size="10.00">Enemy::Update</text>
</a>
</g>
</g>
<!-- Node1&#45;&gt;Node2 -->
<g id="edge1_Node000001_Node000002" class="edge">
<title>Node1&#45;&gt;Node2</title>
<g id="a_edge1_Node000001_Node000002"><a xlink:title=" ">
<path fill="none" stroke="#63b8ff" d="M611.95,-38.3C592.82,-40.24 573.58,-42.18 557.4,-43.82"/>
<polygon fill="#63b8ff" stroke="#63b8ff" points="612.08,-41.81 621.67,-37.32 611.37,-34.84 612.08,-41.81"/>
</a>
</g>
</g>
<!-- Node3 -->
<g id="Node000003" class="node">
<title>Node3</title>
<g id="a_Node000003"><a xlink:href="class_spaceship.html#af39e32b6ac8fe12f1b8a752597640e87" target="_top" xlink:title="Updates the state of all projectiles fired by the spaceship.">
<polygon fill="white" stroke="#666666" points="587.5,-20 442.5,-20 442.5,0 587.5,0 587.5,-20"/>
<text text-anchor="middle" x="515" y="-6.5" font-family="Helvetica,sans-Serif" font-size="10.00">Spaceship::UpdateProjectiles</text>
</a>
</g>
</g>
<!-- Node1&#45;&gt;Node3 -->
<g id="edge2_Node000001_Node000003" class="edge">
<title>Node1&#45;&gt;Node3</title>
<g id="a_edge2_Node000001_Node000003"><a xlink:title=" ">
<path fill="none" stroke="#63b8ff" d="M611.83,-19.69C603.78,-18.87 595.71,-18.06 587.86,-17.26"/>
<polygon fill="#63b8ff" stroke="#63b8ff" points="611.37,-23.16 621.67,-20.68 612.08,-16.19 611.37,-23.16"/>
</a>
</g>
</g>
<!-- Node4 -->
<g id="Node000004" class="node">
<title>Node4</title>
<g id="a_Node000004"><a xlink:href="class_spaceship.html#a5a1432606489e09a118be526dca09773" target="_top" xlink:title="Updates the spaceship&#39;s state and actions.">
<polygon fill="white" stroke="#666666" points="406.5,-20 307.25,-20 307.25,0 406.5,0 406.5,-20"/>
<text text-anchor="middle" x="356.88" y="-6.5" font-family="Helvetica,sans-Serif" font-size="10.00">Spaceship::Update</text>
</a>
</g>
</g>
<!-- Node3&#45;&gt;Node4 -->
<g id="edge3_Node000003_Node000004" class="edge">
<title>Node3&#45;&gt;Node4</title>
<g id="a_edge3_Node000003_Node000004"><a xlink:title=" ">
<path fill="none" stroke="#63b8ff" d="M431.04,-10C422.76,-10 414.56,-10 406.8,-10"/>
<polygon fill="#63b8ff" stroke="#63b8ff" points="430.82,-13.5 440.82,-10 430.82,-6.5 430.82,-13.5"/>
</a>
</g>
</g>
<!-- Node5 -->
<g id="Node000005" class="node">
<title>Node5</title>
<g id="a_Node000005"><a xlink:href="class_level_one.html#a9bd86c94bf7851dd1c230a0f7917c204" target="_top" xlink:title="Updates the spaceship position and actions.">
<polygon fill="white" stroke="#666666" points="271.25,-20 130.75,-20 130.75,0 271.25,0 271.25,-20"/>
<text text-anchor="middle" x="201" y="-6.5" font-family="Helvetica,sans-Serif" font-size="10.00">LevelOne::UpdateSpaceship</text>
</a>
</g>
</g>
<!-- Node4&#45;&gt;Node5 -->
<g id="edge4_Node000004_Node000005" class="edge">
<title>Node4&#45;&gt;Node5</title>
<g id="a_edge4_Node000004_Node000005"><a xlink:title=" ">
<path fill="none" stroke="#63b8ff" d="M295.52,-10C287.7,-10 279.63,-10 271.68,-10"/>
<polygon fill="#63b8ff" stroke="#63b8ff" points="295.25,-13.5 305.25,-10 295.25,-6.5 295.25,-13.5"/>
</a>
</g>
</g>
<!-- Node6 -->
<g id="Node000006" class="node">
<title>Node6</title>
<g id="a_Node000006"><a xlink:href="class_level_one.html#ac5f4953425e9d335e735f1cde198a1fb" target="_top" xlink:title="Updates the level scene every frame.">
<polygon fill="white" stroke="#666666" points="94.75,-20 0,-20 0,0 94.75,0 94.75,-20"/>
<text text-anchor="middle" x="47.38" y="-6.5" font-family="Helvetica,sans-Serif" font-size="10.00">LevelOne::Update</text>
</a>
</g>
</g>
<!-- Node5&#45;&gt;Node6 -->
<g id="edge5_Node000005_Node000006" class="edge">
<title>Node5&#45;&gt;Node6</title>
<g id="a_edge5_Node000005_Node000006"><a xlink:title=" ">
<path fill="none" stroke="#63b8ff" d="M119.14,-10C110.89,-10 102.71,-10 95.02,-10"/>
<polygon fill="#63b8ff" stroke="#63b8ff" points="118.89,-13.5 128.89,-10 118.89,-6.5 118.89,-13.5"/>
</a>
</g>
</g>
</g>
</svg>
