<?xml version="1.0" encoding="UTF-8" standalone="no"?>
<!DOCTYPE svg PUBLIC "-//W3C//DTD SVG 1.1//EN"
 "http://www.w3.org/Graphics/SVG/1.1/DTD/svg11.dtd">
<!-- Generated by graphviz version 12.2.0 (20241103.1931)
 -->
<!-- Title: GameplayUtility::EnemySpawner Pages: 1 -->
<svg width="427pt" height="28pt"
 viewBox="0.00 0.00 427.25 28.00" xmlns="http://www.w3.org/2000/svg" xmlns:xlink="http://www.w3.org/1999/xlink">
<g id="graph0" class="graph" transform="scale(1 1) rotate(0) translate(4 24)">
<title>GameplayUtility::EnemySpawner</title>
<!-- Node1 -->
<g id="Node000001" class="node">
<title>Node1</title>
<g id="a_Node000001"><a xlink:title="Spawns a set number of enemies in a grid pattern.">
<polygon fill="#999999" stroke="#666666" points="419.25,-20 258.5,-20 258.5,0 419.25,0 419.25,-20"/>
<text text-anchor="middle" x="338.88" y="-6.5" font-family="Helvetica,sans-Serif" font-size="10.00">GameplayUtility::EnemySpawner</text>
</a>
</g>
</g>
<!-- Node2 -->
<g id="Node000002" class="node">
<title>Node2</title>
<g id="a_Node000002"><a xlink:href="class_level_one.html#a150f5898ace9c858941cfe46c1b36cb4" target="_top" xlink:title="Resets the level for a new playthrough.">
<polygon fill="white" stroke="#666666" points="222.5,-20 133,-20 133,0 222.5,0 222.5,-20"/>
<text text-anchor="middle" x="177.75" y="-6.5" font-family="Helvetica,sans-Serif" font-size="10.00">LevelOne::Reset</text>
</a>
</g>
</g>
<!-- Node1&#45;&gt;Node2 -->
<g id="edge1_Node000001_Node000002" class="edge">
<title>Node1&#45;&gt;Node2</title>
<g id="a_edge1_Node000001_Node000002"><a xlink:title=" ">
<path fill="none" stroke="#63b8ff" d="M246.84,-10C238.48,-10 230.29,-10 222.65,-10"/>
<polygon fill="#63b8ff" stroke="#63b8ff" points="246.8,-13.5 256.8,-10 246.8,-6.5 246.8,-13.5"/>
</a>
</g>
</g>
<!-- Node3 -->
<g id="Node000003" class="node">
<title>Node3</title>
<g id="a_Node000003"><a xlink:href="class_level_one.html#a8ca877257c567a5f2441c34476cccb01" target="_top" xlink:title="Starts the level scene, preparing necessary resources.">
<polygon fill="white" stroke="#666666" points="97,-20 0,-20 0,0 97,0 97,-20"/>
<text text-anchor="middle" x="48.5" y="-6.5" font-family="Helvetica,sans-Serif" font-size="10.00">LevelOne::OnStart</text>
</a>
</g>
</g>
<!-- Node2&#45;&gt;Node3 -->
<g id="edge2_Node000002_Node000003" class="edge">
<title>Node2&#45;&gt;Node3</title>
<g id="a_edge2_Node000002_Node000003"><a xlink:title=" ">
<path fill="none" stroke="#63b8ff" d="M121.2,-10C113.3,-10 105.22,-10 97.48,-10"/>
<polygon fill="#63b8ff" stroke="#63b8ff" points="121.09,-13.5 131.09,-10 121.09,-6.5 121.09,-13.5"/>
</a>
</g>
</g>
</g>
</svg>
