<?xml version="1.0" encoding="UTF-8" standalone="no"?>
<!DOCTYPE svg PUBLIC "-//W3C//DTD SVG 1.1//EN"
 "http://www.w3.org/Graphics/SVG/1.1/DTD/svg11.dtd">
<!-- Generated by graphviz version 12.2.0 (20241103.1931)
 -->
<!-- Title: CoreHelper::LoadTextureAndSprite Pages: 1 -->
<svg width="588pt" height="104pt"
 viewBox="0.00 0.00 588.00 104.00" xmlns="http://www.w3.org/2000/svg" xmlns:xlink="http://www.w3.org/1999/xlink">
<g id="graph0" class="graph" transform="scale(1 1) rotate(0) translate(4 100)">
<title>CoreHelper::LoadTextureAndSprite</title>
<!-- Node1 -->
<g id="Node000001" class="node">
<title>Node1</title>
<g id="a_Node000001"><a xlink:title="Loads a texture and assigns it to a sprite.">
<polygon fill="#999999" stroke="#666666" points="580,-64 438,-64 438,-32 580,-32 580,-64"/>
<text text-anchor="start" x="446" y="-50.5" font-family="Helvetica,sans-Serif" font-size="10.00">CoreHelper::LoadTextureAnd</text>
<text text-anchor="middle" x="509" y="-38.5" font-family="Helvetica,sans-Serif" font-size="10.00">Sprite</text>
</a>
</g>
</g>
<!-- Node2 -->
<g id="Node000002" class="node">
<title>Node2</title>
<g id="a_Node000002"><a xlink:href="class_credits.html#a58e91d08effadbc3295eb9b06944ec0d" target="_top" xlink:title=" ">
<polygon fill="white" stroke="#666666" points="380.25,-96 295.25,-96 295.25,-76 380.25,-76 380.25,-96"/>
<text text-anchor="middle" x="337.75" y="-82.5" font-family="Helvetica,sans-Serif" font-size="10.00">Credits::Credits</text>
</a>
</g>
</g>
<!-- Node1&#45;&gt;Node2 -->
<g id="edge1_Node000001_Node000002" class="edge">
<title>Node1&#45;&gt;Node2</title>
<g id="a_edge1_Node000001_Node000002"><a xlink:title=" ">
<path fill="none" stroke="#63b8ff" d="M426.68,-66.26C410.69,-69.85 394.55,-73.47 380.53,-76.62"/>
<polygon fill="#63b8ff" stroke="#63b8ff" points="427.23,-69.72 436.22,-64.12 425.69,-62.89 427.23,-69.72"/>
</a>
</g>
</g>
<!-- Node3 -->
<g id="Node000003" class="node">
<title>Node3</title>
<g id="a_Node000003"><a xlink:href="class_level_one.html#a07f13cbce0fed886e7c800a52e32158c" target="_top" xlink:title="Initializes the background for the level.">
<polygon fill="white" stroke="#666666" points="402,-58 273.5,-58 273.5,-38 402,-38 402,-58"/>
<text text-anchor="middle" x="337.75" y="-44.5" font-family="Helvetica,sans-Serif" font-size="10.00">LevelOne::InitBackground</text>
</a>
</g>
</g>
<!-- Node1&#45;&gt;Node3 -->
<g id="edge2_Node000001_Node000003" class="edge">
<title>Node1&#45;&gt;Node3</title>
<g id="a_edge2_Node000001_Node000003"><a xlink:title=" ">
<path fill="none" stroke="#63b8ff" d="M426.35,-48C418.29,-48 410.19,-48 402.35,-48"/>
<polygon fill="#63b8ff" stroke="#63b8ff" points="426.18,-51.5 436.18,-48 426.18,-44.5 426.18,-51.5"/>
</a>
</g>
</g>
<!-- Node7 -->
<g id="Node000007" class="node">
<title>Node7</title>
<g id="a_Node000007"><a xlink:href="class_menu_state.html#aff364a6503fca58c645a8b40a663f990" target="_top" xlink:title="Constructs the MenuState with a reference to the scene manager and the render window.">
<polygon fill="white" stroke="#666666" points="396,-20 279.5,-20 279.5,0 396,0 396,-20"/>
<text text-anchor="middle" x="337.75" y="-6.5" font-family="Helvetica,sans-Serif" font-size="10.00">MenuState::MenuState</text>
</a>
</g>
</g>
<!-- Node1&#45;&gt;Node7 -->
<g id="edge6_Node000001_Node000007" class="edge">
<title>Node1&#45;&gt;Node7</title>
<g id="a_edge6_Node000001_Node000007"><a xlink:title=" ">
<path fill="none" stroke="#63b8ff" d="M426.88,-29.79C412.66,-26.6 398.32,-23.37 385.45,-20.49"/>
<polygon fill="#63b8ff" stroke="#63b8ff" points="425.69,-33.11 436.22,-31.88 427.23,-26.28 425.69,-33.11"/>
</a>
</g>
</g>
<!-- Node4 -->
<g id="Node000004" class="node">
<title>Node4</title>
<g id="a_Node000004"><a xlink:href="class_level_one.html#aab7fa7fff62beadc614eefb210ae0d74" target="_top" xlink:title="Constructs the LevelOne scene with a reference to the scene manager and window.">
<polygon fill="white" stroke="#666666" points="237.5,-77 133,-77 133,-57 237.5,-57 237.5,-77"/>
<text text-anchor="middle" x="185.25" y="-63.5" font-family="Helvetica,sans-Serif" font-size="10.00">LevelOne::LevelOne</text>
</a>
</g>
</g>
<!-- Node3&#45;&gt;Node4 -->
<g id="edge3_Node000003_Node000004" class="edge">
<title>Node3&#45;&gt;Node4</title>
<g id="a_edge3_Node000003_Node000004"><a xlink:title=" ">
<path fill="none" stroke="#63b8ff" d="M262.13,-57.42C253.87,-58.46 245.59,-59.51 237.7,-60.5"/>
<polygon fill="#63b8ff" stroke="#63b8ff" points="262.38,-60.92 271.86,-56.19 261.5,-53.97 262.38,-60.92"/>
</a>
</g>
</g>
<!-- Node5 -->
<g id="Node000005" class="node">
<title>Node5</title>
<g id="a_Node000005"><a xlink:href="class_level_one.html#a150f5898ace9c858941cfe46c1b36cb4" target="_top" xlink:title="Resets the level for a new playthrough.">
<polygon fill="white" stroke="#666666" points="230,-39 140.5,-39 140.5,-19 230,-19 230,-39"/>
<text text-anchor="middle" x="185.25" y="-25.5" font-family="Helvetica,sans-Serif" font-size="10.00">LevelOne::Reset</text>
</a>
</g>
</g>
<!-- Node3&#45;&gt;Node5 -->
<g id="edge4_Node000003_Node000005" class="edge">
<title>Node3&#45;&gt;Node5</title>
<g id="a_edge4_Node000003_Node000005"><a xlink:title=" ">
<path fill="none" stroke="#63b8ff" d="M262.1,-38.58C251.24,-37.21 240.37,-35.83 230.39,-34.57"/>
<polygon fill="#63b8ff" stroke="#63b8ff" points="261.5,-42.03 271.86,-39.81 262.38,-35.08 261.5,-42.03"/>
</a>
</g>
</g>
<!-- Node6 -->
<g id="Node000006" class="node">
<title>Node6</title>
<g id="a_Node000006"><a xlink:href="class_level_one.html#a8ca877257c567a5f2441c34476cccb01" target="_top" xlink:title="Starts the level scene, preparing necessary resources.">
<polygon fill="white" stroke="#666666" points="97,-39 0,-39 0,-19 97,-19 97,-39"/>
<text text-anchor="middle" x="48.5" y="-25.5" font-family="Helvetica,sans-Serif" font-size="10.00">LevelOne::OnStart</text>
</a>
</g>
</g>
<!-- Node5&#45;&gt;Node6 -->
<g id="edge5_Node000005_Node000006" class="edge">
<title>Node5&#45;&gt;Node6</title>
<g id="a_edge5_Node000005_Node000006"><a xlink:title=" ">
<path fill="none" stroke="#63b8ff" d="M128.65,-29C118.29,-29 107.55,-29 97.44,-29"/>
<polygon fill="#63b8ff" stroke="#63b8ff" points="128.61,-32.5 138.61,-29 128.61,-25.5 128.61,-32.5"/>
</a>
</g>
</g>
</g>
</svg>
