<?xml version="1.0" encoding="UTF-8" standalone="no"?>
<!DOCTYPE svg PUBLIC "-//W3C//DTD SVG 1.1//EN"
 "http://www.w3.org/Graphics/SVG/1.1/DTD/svg11.dtd">
<!-- Generated by graphviz version 12.2.0 (20241103.1931)
 -->
<!-- Title: GameplayUtility::SpawnProjectile Pages: 1 -->
<svg width="795pt" height="66pt"
 viewBox="0.00 0.00 795.25 66.00" xmlns="http://www.w3.org/2000/svg" xmlns:xlink="http://www.w3.org/1999/xlink">
<g id="graph0" class="graph" transform="scale(1 1) rotate(0) translate(4 62)">
<title>GameplayUtility::SpawnProjectile</title>
<!-- Node1 -->
<g id="Node000001" class="node">
<title>Node1</title>
<g id="a_Node000001"><a xlink:title="Spawns a new projectile with the given properties.">
<polygon fill="#999999" stroke="#666666" points="787.25,-39 625,-39 625,-19 787.25,-19 787.25,-39"/>
<text text-anchor="middle" x="706.12" y="-25.5" font-family="Helvetica,sans-Serif" font-size="10.00">GameplayUtility::SpawnProjectile</text>
</a>
</g>
</g>
<!-- Node2 -->
<g id="Node000002" class="node">
<title>Node2</title>
<g id="a_Node000002"><a xlink:href="class_spaceship.html#a005ba375099423cbfe0cbb402965cd35" target="_top" xlink:title="Handles the spaceship firing a projectile.">
<polygon fill="white" stroke="#666666" points="589,-58 442.5,-58 442.5,-38 589,-38 589,-58"/>
<text text-anchor="middle" x="515.75" y="-44.5" font-family="Helvetica,sans-Serif" font-size="10.00">Spaceship::OnProjectileShoot</text>
</a>
</g>
</g>
<!-- Node1&#45;&gt;Node2 -->
<g id="edge1_Node000001_Node000002" class="edge">
<title>Node1&#45;&gt;Node2</title>
<g id="a_edge1_Node000001_Node000002"><a xlink:title=" ">
<path fill="none" stroke="#63b8ff" d="M613.38,-38.25C605.36,-39.06 597.31,-39.87 589.47,-40.67"/>
<polygon fill="#63b8ff" stroke="#63b8ff" points="613.59,-41.75 623.18,-37.26 612.88,-34.79 613.59,-41.75"/>
</a>
</g>
</g>
<!-- Node6 -->
<g id="Node000006" class="node">
<title>Node6</title>
<g id="a_Node000006"><a xlink:href="class_enemy.html#aa715eadaf6ac2035640661a2c145cd45" target="_top" xlink:title="Processes the enemy&#39;s shooting behavior.">
<polygon fill="white" stroke="#666666" points="579.25,-20 452.25,-20 452.25,0 579.25,0 579.25,-20"/>
<text text-anchor="middle" x="515.75" y="-6.5" font-family="Helvetica,sans-Serif" font-size="10.00">Enemy::ProcessShooting</text>
</a>
</g>
</g>
<!-- Node1&#45;&gt;Node6 -->
<g id="edge5_Node000001_Node000006" class="edge">
<title>Node1&#45;&gt;Node6</title>
<g id="a_edge5_Node000001_Node000006"><a xlink:title=" ">
<path fill="none" stroke="#63b8ff" d="M613.3,-19.74C601.87,-18.59 590.39,-17.43 579.54,-16.33"/>
<polygon fill="#63b8ff" stroke="#63b8ff" points="612.88,-23.21 623.18,-20.74 613.59,-16.25 612.88,-23.21"/>
</a>
</g>
</g>
<!-- Node3 -->
<g id="Node000003" class="node">
<title>Node3</title>
<g id="a_Node000003"><a xlink:href="class_spaceship.html#a5a1432606489e09a118be526dca09773" target="_top" xlink:title="Updates the spaceship&#39;s state and actions.">
<polygon fill="white" stroke="#666666" points="406.5,-58 307.25,-58 307.25,-38 406.5,-38 406.5,-58"/>
<text text-anchor="middle" x="356.88" y="-44.5" font-family="Helvetica,sans-Serif" font-size="10.00">Spaceship::Update</text>
</a>
</g>
</g>
<!-- Node2&#45;&gt;Node3 -->
<g id="edge2_Node000002_Node000003" class="edge">
<title>Node2&#45;&gt;Node3</title>
<g id="a_edge2_Node000002_Node000003"><a xlink:title=" ">
<path fill="none" stroke="#63b8ff" d="M430.97,-48C422.69,-48 414.49,-48 406.73,-48"/>
<polygon fill="#63b8ff" stroke="#63b8ff" points="430.77,-51.5 440.77,-48 430.77,-44.5 430.77,-51.5"/>
</a>
</g>
</g>
<!-- Node4 -->
<g id="Node000004" class="node">
<title>Node4</title>
<g id="a_Node000004"><a xlink:href="class_level_one.html#a9bd86c94bf7851dd1c230a0f7917c204" target="_top" xlink:title="Updates the spaceship position and actions.">
<polygon fill="white" stroke="#666666" points="271.25,-58 130.75,-58 130.75,-38 271.25,-38 271.25,-58"/>
<text text-anchor="middle" x="201" y="-44.5" font-family="Helvetica,sans-Serif" font-size="10.00">LevelOne::UpdateSpaceship</text>
</a>
</g>
</g>
<!-- Node3&#45;&gt;Node4 -->
<g id="edge3_Node000003_Node000004" class="edge">
<title>Node3&#45;&gt;Node4</title>
<g id="a_edge3_Node000003_Node000004"><a xlink:title=" ">
<path fill="none" stroke="#63b8ff" d="M295.52,-48C287.7,-48 279.63,-48 271.68,-48"/>
<polygon fill="#63b8ff" stroke="#63b8ff" points="295.25,-51.5 305.25,-48 295.25,-44.5 295.25,-51.5"/>
</a>
</g>
</g>
<!-- Node5 -->
<g id="Node000005" class="node">
<title>Node5</title>
<g id="a_Node000005"><a xlink:href="class_level_one.html#ac5f4953425e9d335e735f1cde198a1fb" target="_top" xlink:title="Updates the level scene every frame.">
<polygon fill="white" stroke="#666666" points="94.75,-58 0,-58 0,-38 94.75,-38 94.75,-58"/>
<text text-anchor="middle" x="47.38" y="-44.5" font-family="Helvetica,sans-Serif" font-size="10.00">LevelOne::Update</text>
</a>
</g>
</g>
<!-- Node4&#45;&gt;Node5 -->
<g id="edge4_Node000004_Node000005" class="edge">
<title>Node4&#45;&gt;Node5</title>
<g id="a_edge4_Node000004_Node000005"><a xlink:title=" ">
<path fill="none" stroke="#63b8ff" d="M119.14,-48C110.89,-48 102.71,-48 95.02,-48"/>
<polygon fill="#63b8ff" stroke="#63b8ff" points="118.89,-51.5 128.89,-48 118.89,-44.5 118.89,-51.5"/>
</a>
</g>
</g>
<!-- Node7 -->
<g id="Node000007" class="node">
<title>Node7</title>
<g id="a_Node000007"><a xlink:href="class_enemy.html#ac892bd8564cb726b3538925a32f9f727" target="_top" xlink:title="Updates the enemy&#39;s state.">
<polygon fill="white" stroke="#666666" points="399,-20 314.75,-20 314.75,0 399,0 399,-20"/>
<text text-anchor="middle" x="356.88" y="-6.5" font-family="Helvetica,sans-Serif" font-size="10.00">Enemy::Update</text>
</a>
</g>
</g>
<!-- Node6&#45;&gt;Node7 -->
<g id="edge6_Node000006_Node000007" class="edge">
<title>Node6&#45;&gt;Node7</title>
<g id="a_edge6_Node000006_Node000007"><a xlink:title=" ">
<path fill="none" stroke="#63b8ff" d="M440.52,-10C426.29,-10 411.88,-10 399.17,-10"/>
<polygon fill="#63b8ff" stroke="#63b8ff" points="440.33,-13.5 450.33,-10 440.33,-6.5 440.33,-13.5"/>
</a>
</g>
</g>
</g>
</svg>
