<?xml version="1.0" encoding="UTF-8" standalone="no"?>
<!DOCTYPE svg PUBLIC "-//W3C//DTD SVG 1.1//EN"
 "http://www.w3.org/Graphics/SVG/1.1/DTD/svg11.dtd">
<!-- Generated by graphviz version 12.2.0 (20241103.1931)
 -->
<!-- Title: include/MyLibrary/stdafx.cpp Pages: 1 -->
<!--zoomable 140 -->

<svg id="main" version="1.1" xmlns="http://www.w3.org/2000/svg" xmlns:xlink="http://www.w3.org/1999/xlink" xml:space="preserve" onload="init(evt)">

<style type="text/css"><![CDATA[
.node, .edge {opacity: 0.7;}
.node.selected, .edge.selected {opacity: 1;}
.edge:hover path { stroke: red; }
.edge:hover polygon { stroke: red; fill: red; }
]]></style>

<defs>
  <circle id="rim" cx="0" cy="0" r="7"/>
  <circle id="rim2" cx="0" cy="0" r="3.5"/>
  <g id="zoomPlus">
    <use xlink:href="#rim" fill="#404040"><set attributeName="fill" to="#808080" begin="zoomplus.mouseover" end="zoomplus.mouseout"/></use>
    <path d="M-4,0h8M0,-4v8" fill="none" stroke="white" stroke-width="1.5" pointer-events="none"/>
  </g>
  <g id="zoomMin">
    <use xlink:href="#rim" fill="#404040"><set attributeName="fill" to="#808080" begin="zoomminus.mouseover" end="zoomminus.mouseout"/></use>
    <path d="M-4,0h8" fill="none" stroke="white" stroke-width="1.5" pointer-events="none"/>
  </g>
  <g id="arrowUp" transform="translate(30 24)">
    <use xlink:href="#rim"/>
    <path pointer-events="none" fill="none" stroke="white" stroke-width="1.5" d="M0,-3.0v7 M-2.5,-0.5L0,-3.0L2.5,-0.5"/>
  </g>
  <g id="arrowRight" transform="rotate(90) translate(36 -43)">
    <use xlink:href="#rim"/>
    <path pointer-events="none" fill="none" stroke="white" stroke-width="1.5" d="M0,-3.0v7 M-2.5,-0.5L0,-3.0L2.5,-0.5"/>
  </g>
  <g id="arrowDown" transform="rotate(180) translate(-30 -48)">
    <use xlink:href="#rim"/>
    <path pointer-events="none" fill="none" stroke="white" stroke-width="1.5" d="M0,-3.0v7 M-2.5,-0.5L0,-3.0L2.5,-0.5"/>
  </g>
  <g id="arrowLeft" transform="rotate(270) translate(-36 17)">
    <use xlink:href="#rim"/>
    <path pointer-events="none" fill="none" stroke="white" stroke-width="1.5" d="M0,-3.0v7 M-2.5,-0.5L0,-3.0L2.5,-0.5"/>
  </g>
  <g id="resetDef">
    <use xlink:href="#rim2" fill="#404040"><set attributeName="fill" to="#808080" begin="reset.mouseover" end="reset.mouseout"/></use>
  </g>
</defs>
<script type="application/ecmascript">
var viewWidth = 2670;
var viewHeight = 140;
var sectionId = 'dynsection-0';
</script>
<script type="application/ecmascript" xlink:href="svg.min.js"/>
<svg id="graph" class="graph">
<g id="viewport">
<title>include/MyLibrary/stdafx.cpp</title>
<!-- Node1 -->
<g id="Node000001" class="node">
<title>Node1</title>
<g id="a_Node000001"><a xlink:title=" ">
<polygon fill="#999999" stroke="#666666" points="1116.38,-132 975.12,-132 975.12,-112 1116.38,-112 1116.38,-132"/>
<text text-anchor="middle" x="1045.75" y="-118.5" font-family="Helvetica,sans-Serif" font-size="10.00">include/MyLibrary/stdafx.cpp</text>
</a>
</g>
</g>
<!-- Node2 -->
<g id="Node000002" class="node">
<title>Node2</title>
<g id="a_Node000002"><a xlink:href="stdafx_8h.html" target="_top" xlink:title=" ">
<polygon fill="white" stroke="#666666" points="1071.38,-76 1020.12,-76 1020.12,-56 1071.38,-56 1071.38,-76"/>
<text text-anchor="middle" x="1045.75" y="-62.5" font-family="Helvetica,sans-Serif" font-size="10.00">stdafx.h</text>
</a>
</g>
</g>
<!-- Node1&#45;&gt;Node2 -->
<g id="edge1_Node000001_Node000002" class="edge">
<title>Node1&#45;&gt;Node2</title>
<g id="a_edge1_Node000001_Node000002"><a xlink:title=" ">
<path fill="none" stroke="#63b8ff" d="M1045.75,-111.59C1045.75,-105.01 1045.75,-95.96 1045.75,-87.73"/>
<polygon fill="#63b8ff" stroke="#63b8ff" points="1049.25,-87.81 1045.75,-77.81 1042.25,-87.81 1049.25,-87.81"/>
</a>
</g>
</g>
<!-- Node3 -->
<g id="Node000003" class="node">
<title>Node3</title>
<g id="a_Node000003"><a xlink:title=" ">
<polygon fill="#e0e0e0" stroke="#999999" points="53.5,-20 0,-20 0,0 53.5,0 53.5,-20"/>
<text text-anchor="middle" x="26.75" y="-6.5" font-family="Helvetica,sans-Serif" font-size="10.00">iostream</text>
</a>
</g>
</g>
<!-- Node2&#45;&gt;Node3 -->
<g id="edge2_Node000002_Node000003" class="edge">
<title>Node2&#45;&gt;Node3</title>
<g id="a_edge2_Node000002_Node000003"><a xlink:title=" ">
<path fill="none" stroke="#63b8ff" d="M1019.96,-64.52C887.08,-61.91 278.02,-48.7 65.11,-19.97"/>
<polygon fill="#63b8ff" stroke="#63b8ff" points="65.65,-16.51 55.26,-18.58 64.67,-23.44 65.65,-16.51"/>
</a>
</g>
</g>
<!-- Node4 -->
<g id="Node000004" class="node">
<title>Node4</title>
<g id="a_Node000004"><a xlink:title=" ">
<polygon fill="#e0e0e0" stroke="#999999" points="111.75,-20 71.75,-20 71.75,0 111.75,0 111.75,-20"/>
<text text-anchor="middle" x="91.75" y="-6.5" font-family="Helvetica,sans-Serif" font-size="10.00">string</text>
</a>
</g>
</g>
<!-- Node2&#45;&gt;Node4 -->
<g id="edge3_Node000002_Node000004" class="edge">
<title>Node2&#45;&gt;Node4</title>
<g id="a_edge3_Node000002_Node000004"><a xlink:title=" ">
<path fill="none" stroke="#63b8ff" d="M1019.75,-64.62C891.26,-62.61 322.7,-52.14 123.37,-19.94"/>
<polygon fill="#63b8ff" stroke="#63b8ff" points="124.12,-16.52 113.68,-18.3 122.95,-23.42 124.12,-16.52"/>
</a>
</g>
</g>
<!-- Node5 -->
<g id="Node000005" class="node">
<title>Node5</title>
<g id="a_Node000005"><a xlink:title=" ">
<polygon fill="#e0e0e0" stroke="#999999" points="173.25,-20 130.25,-20 130.25,0 173.25,0 173.25,-20"/>
<text text-anchor="middle" x="151.75" y="-6.5" font-family="Helvetica,sans-Serif" font-size="10.00">vector</text>
</a>
</g>
</g>
<!-- Node2&#45;&gt;Node5 -->
<g id="edge4_Node000002_Node000005" class="edge">
<title>Node2&#45;&gt;Node5</title>
<g id="a_edge4_Node000002_Node000005"><a xlink:title=" ">
<path fill="none" stroke="#63b8ff" d="M1019.86,-64.45C897.09,-61.75 372.08,-48.78 184.92,-19.86"/>
<polygon fill="#63b8ff" stroke="#63b8ff" points="185.55,-16.42 175.11,-18.27 184.42,-23.33 185.55,-16.42"/>
</a>
</g>
</g>
<!-- Node6 -->
<g id="Node000006" class="node">
<title>Node6</title>
<g id="a_Node000006"><a xlink:title=" ">
<polygon fill="#e0e0e0" stroke="#999999" points="226.12,-20 191.38,-20 191.38,0 226.12,0 226.12,-20"/>
<text text-anchor="middle" x="208.75" y="-6.5" font-family="Helvetica,sans-Serif" font-size="10.00">map</text>
</a>
</g>
</g>
<!-- Node2&#45;&gt;Node6 -->
<g id="edge5_Node000002_Node000006" class="edge">
<title>Node2&#45;&gt;Node6</title>
<g id="a_edge5_Node000002_Node000006"><a xlink:title=" ">
<path fill="none" stroke="#63b8ff" d="M1019.84,-64.49C901.74,-62.01 413.03,-50.23 237.67,-19.72"/>
<polygon fill="#63b8ff" stroke="#63b8ff" points="238.54,-16.32 228.07,-17.96 237.27,-23.2 238.54,-16.32"/>
</a>
</g>
</g>
<!-- Node7 -->
<g id="Node000007" class="node">
<title>Node7</title>
<g id="a_Node000007"><a xlink:title=" ">
<polygon fill="#e0e0e0" stroke="#999999" points="327.12,-20 244.38,-20 244.38,0 327.12,0 327.12,-20"/>
<text text-anchor="middle" x="285.75" y="-6.5" font-family="Helvetica,sans-Serif" font-size="10.00">unordered_map</text>
</a>
</g>
</g>
<!-- Node2&#45;&gt;Node7 -->
<g id="edge6_Node000002_Node000007" class="edge">
<title>Node2&#45;&gt;Node7</title>
<g id="a_edge6_Node000002_Node000007"><a xlink:title=" ">
<path fill="none" stroke="#63b8ff" d="M1019.86,-64.43C928.24,-62.2 610.67,-52.54 338.72,-20.23"/>
<polygon fill="#63b8ff" stroke="#63b8ff" points="339.29,-16.77 328.94,-19.05 338.45,-23.72 339.29,-16.77"/>
</a>
</g>
</g>
<!-- Node8 -->
<g id="Node000008" class="node">
<title>Node8</title>
<g id="a_Node000008"><a xlink:title=" ">
<polygon fill="#e0e0e0" stroke="#999999" points="422.5,-20 345,-20 345,0 422.5,0 422.5,-20"/>
<text text-anchor="middle" x="383.75" y="-6.5" font-family="Helvetica,sans-Serif" font-size="10.00">unordered_set</text>
</a>
</g>
</g>
<!-- Node2&#45;&gt;Node8 -->
<g id="edge7_Node000002_Node000008" class="edge">
<title>Node2&#45;&gt;Node8</title>
<g id="a_edge7_Node000002_Node000008"><a xlink:title=" ">
<path fill="none" stroke="#63b8ff" d="M1019.86,-64.18C936.4,-61.32 666.77,-50.32 434.32,-20.34"/>
<polygon fill="#63b8ff" stroke="#63b8ff" points="434.8,-16.88 424.43,-19.05 433.9,-23.82 434.8,-16.88"/>
</a>
</g>
</g>
<!-- Node9 -->
<g id="Node000009" class="node">
<title>Node9</title>
<g id="a_Node000009"><a xlink:title=" ">
<polygon fill="#e0e0e0" stroke="#999999" points="491.38,-20 440.12,-20 440.12,0 491.38,0 491.38,-20"/>
<text text-anchor="middle" x="465.75" y="-6.5" font-family="Helvetica,sans-Serif" font-size="10.00">memory</text>
</a>
</g>
</g>
<!-- Node2&#45;&gt;Node9 -->
<g id="edge8_Node000002_Node000009" class="edge">
<title>Node2&#45;&gt;Node9</title>
<g id="a_edge8_Node000002_Node000009"><a xlink:title=" ">
<path fill="none" stroke="#63b8ff" d="M1019.74,-64.41C942.43,-62.34 707.23,-53.67 502.89,-20.06"/>
<polygon fill="#63b8ff" stroke="#63b8ff" points="503.57,-16.62 493.13,-18.43 502.42,-23.53 503.57,-16.62"/>
</a>
</g>
</g>
<!-- Node10 -->
<g id="Node000010" class="node">
<title>Node10</title>
<g id="a_Node000010"><a xlink:title=" ">
<polygon fill="#e0e0e0" stroke="#999999" points="565.62,-20 509.88,-20 509.88,0 565.62,0 565.62,-20"/>
<text text-anchor="middle" x="537.75" y="-6.5" font-family="Helvetica,sans-Serif" font-size="10.00">algorithm</text>
</a>
</g>
</g>
<!-- Node2&#45;&gt;Node10 -->
<g id="edge9_Node000002_Node000010" class="edge">
<title>Node2&#45;&gt;Node10</title>
<g id="a_edge9_Node000002_Node000010"><a xlink:title=" ">
<path fill="none" stroke="#63b8ff" d="M1019.8,-63.83C949.87,-60.4 751.59,-48.85 577.14,-20.17"/>
<polygon fill="#63b8ff" stroke="#63b8ff" points="577.88,-16.74 567.44,-18.55 576.72,-23.65 577.88,-16.74"/>
</a>
</g>
</g>
<!-- Node11 -->
<g id="Node000011" class="node">
<title>Node11</title>
<g id="a_Node000011"><a xlink:title=" ">
<polygon fill="#e0e0e0" stroke="#999999" points="621.62,-20 583.88,-20 583.88,0 621.62,0 621.62,-20"/>
<text text-anchor="middle" x="602.75" y="-6.5" font-family="Helvetica,sans-Serif" font-size="10.00">array</text>
</a>
</g>
</g>
<!-- Node2&#45;&gt;Node11 -->
<g id="edge10_Node000002_Node000011" class="edge">
<title>Node2&#45;&gt;Node11</title>
<g id="a_edge10_Node000002_Node000011"><a xlink:title=" ">
<path fill="none" stroke="#63b8ff" d="M1019.64,-64.11C955.22,-61.52 783.55,-52.13 633.32,-20.42"/>
<polygon fill="#63b8ff" stroke="#63b8ff" points="634.07,-17 623.56,-18.31 632.6,-23.84 634.07,-17"/>
</a>
</g>
</g>
<!-- Node12 -->
<g id="Node000012" class="node">
<title>Node12</title>
<g id="a_Node000012"><a xlink:title=" ">
<polygon fill="#e0e0e0" stroke="#999999" points="682.25,-20 639.25,-20 639.25,0 682.25,0 682.25,-20"/>
<text text-anchor="middle" x="660.75" y="-6.5" font-family="Helvetica,sans-Serif" font-size="10.00">cmath</text>
</a>
</g>
</g>
<!-- Node2&#45;&gt;Node12 -->
<g id="edge11_Node000002_Node000012" class="edge">
<title>Node2&#45;&gt;Node12</title>
<g id="a_edge11_Node000002_Node000012"><a xlink:title=" ">
<path fill="none" stroke="#63b8ff" d="M1019.67,-63.18C962.28,-58.86 820.63,-46.48 693.66,-20.33"/>
<polygon fill="#63b8ff" stroke="#63b8ff" points="694.58,-16.95 684.08,-18.32 693.15,-23.8 694.58,-16.95"/>
</a>
</g>
</g>
<!-- Node13 -->
<g id="Node000013" class="node">
<title>Node13</title>
<g id="a_Node000013"><a xlink:title=" ">
<polygon fill="#e0e0e0" stroke="#999999" points="743.25,-20 700.25,-20 700.25,0 743.25,0 743.25,-20"/>
<text text-anchor="middle" x="721.75" y="-6.5" font-family="Helvetica,sans-Serif" font-size="10.00">thread</text>
</a>
</g>
</g>
<!-- Node2&#45;&gt;Node13 -->
<g id="edge12_Node000002_Node000013" class="edge">
<title>Node2&#45;&gt;Node13</title>
<g id="a_edge12_Node000002_Node000013"><a xlink:title=" ">
<path fill="none" stroke="#63b8ff" d="M1019.96,-62.28C970.34,-56.79 858,-43.09 754.85,-20.45"/>
<polygon fill="#63b8ff" stroke="#63b8ff" points="755.61,-17.04 745.09,-18.27 754.08,-23.87 755.61,-17.04"/>
</a>
</g>
</g>
<!-- Node14 -->
<g id="Node000014" class="node">
<title>Node14</title>
<g id="a_Node000014"><a xlink:title=" ">
<polygon fill="#e0e0e0" stroke="#999999" points="810.25,-20 761.25,-20 761.25,0 810.25,0 810.25,-20"/>
<text text-anchor="middle" x="785.75" y="-6.5" font-family="Helvetica,sans-Serif" font-size="10.00">fstream</text>
</a>
</g>
</g>
<!-- Node2&#45;&gt;Node14 -->
<g id="edge13_Node000002_Node000014" class="edge">
<title>Node2&#45;&gt;Node14</title>
<g id="a_edge13_Node000002_Node000014"><a xlink:title=" ">
<path fill="none" stroke="#63b8ff" d="M1019.88,-60.39C979.66,-53.11 899.48,-38.13 821.56,-20.3"/>
<polygon fill="#63b8ff" stroke="#63b8ff" points="822.59,-16.95 812.06,-18.11 821.02,-23.77 822.59,-16.95"/>
</a>
</g>
</g>
<!-- Node15 -->
<g id="Node000015" class="node">
<title>Node15</title>
<g id="a_Node000015"><a xlink:title=" ">
<polygon fill="#e0e0e0" stroke="#999999" points="876.88,-20 828.62,-20 828.62,0 876.88,0 876.88,-20"/>
<text text-anchor="middle" x="852.75" y="-6.5" font-family="Helvetica,sans-Serif" font-size="10.00">istream</text>
</a>
</g>
</g>
<!-- Node2&#45;&gt;Node15 -->
<g id="edge14_Node000002_Node000015" class="edge">
<title>Node2&#45;&gt;Node15</title>
<g id="a_edge14_Node000002_Node000015"><a xlink:title=" ">
<path fill="none" stroke="#63b8ff" d="M1019.72,-57.72C985.78,-48.22 926.26,-31.57 888.22,-20.92"/>
<polygon fill="#63b8ff" stroke="#63b8ff" points="889.18,-17.56 878.61,-18.23 887.3,-24.3 889.18,-17.56"/>
</a>
</g>
</g>
<!-- Node16 -->
<g id="Node000016" class="node">
<title>Node16</title>
<g id="a_Node000016"><a xlink:title=" ">
<polygon fill="#e0e0e0" stroke="#999999" points="946.38,-20 895.12,-20 895.12,0 946.38,0 946.38,-20"/>
<text text-anchor="middle" x="920.75" y="-6.5" font-family="Helvetica,sans-Serif" font-size="10.00">ostream</text>
</a>
</g>
</g>
<!-- Node2&#45;&gt;Node16 -->
<g id="edge15_Node000002_Node000016" class="edge">
<title>Node2&#45;&gt;Node16</title>
<g id="a_edge15_Node000002_Node000016"><a xlink:title=" ">
<path fill="none" stroke="#63b8ff" d="M1023.98,-55.59C1004.38,-47.13 975.32,-34.58 953.03,-24.94"/>
<polygon fill="#63b8ff" stroke="#63b8ff" points="954.65,-21.83 944.08,-21.08 951.87,-28.26 954.65,-21.83"/>
</a>
</g>
</g>
<!-- Node17 -->
<g id="Node000017" class="node">
<title>Node17</title>
<g id="a_Node000017"><a xlink:title=" ">
<polygon fill="#e0e0e0" stroke="#999999" points="1004.75,-20 964.75,-20 964.75,0 1004.75,0 1004.75,-20"/>
<text text-anchor="middle" x="984.75" y="-6.5" font-family="Helvetica,sans-Serif" font-size="10.00">bitset</text>
</a>
</g>
</g>
<!-- Node2&#45;&gt;Node17 -->
<g id="edge16_Node000002_Node000017" class="edge">
<title>Node2&#45;&gt;Node17</title>
<g id="a_edge16_Node000002_Node000017"><a xlink:title=" ">
<path fill="none" stroke="#63b8ff" d="M1035.12,-55.59C1026.47,-47.93 1014.02,-36.91 1003.67,-27.75"/>
<polygon fill="#63b8ff" stroke="#63b8ff" points="1006.19,-25.31 996.39,-21.3 1001.55,-30.55 1006.19,-25.31"/>
</a>
</g>
</g>
<!-- Node18 -->
<g id="Node000018" class="node">
<title>Node18</title>
<g id="a_Node000018"><a xlink:title=" ">
<polygon fill="#e0e0e0" stroke="#999999" points="1068.38,-20 1023.12,-20 1023.12,0 1068.38,0 1068.38,-20"/>
<text text-anchor="middle" x="1045.75" y="-6.5" font-family="Helvetica,sans-Serif" font-size="10.00">cstdint</text>
</a>
</g>
</g>
<!-- Node2&#45;&gt;Node18 -->
<g id="edge17_Node000002_Node000018" class="edge">
<title>Node2&#45;&gt;Node18</title>
<g id="a_edge17_Node000002_Node000018"><a xlink:title=" ">
<path fill="none" stroke="#63b8ff" d="M1045.75,-55.59C1045.75,-49.01 1045.75,-39.96 1045.75,-31.73"/>
<polygon fill="#63b8ff" stroke="#63b8ff" points="1049.25,-31.81 1045.75,-21.81 1042.25,-31.81 1049.25,-31.81"/>
</a>
</g>
</g>
<!-- Node19 -->
<g id="Node000019" class="node">
<title>Node19</title>
<g id="a_Node000019"><a xlink:title=" ">
<polygon fill="#e0e0e0" stroke="#999999" points="1134.88,-20 1086.62,-20 1086.62,0 1134.88,0 1134.88,-20"/>
<text text-anchor="middle" x="1110.75" y="-6.5" font-family="Helvetica,sans-Serif" font-size="10.00">random</text>
</a>
</g>
</g>
<!-- Node2&#45;&gt;Node19 -->
<g id="edge18_Node000002_Node000019" class="edge">
<title>Node2&#45;&gt;Node19</title>
<g id="a_edge18_Node000002_Node000019"><a xlink:title=" ">
<path fill="none" stroke="#63b8ff" d="M1057.07,-55.59C1066.39,-47.85 1079.83,-36.69 1090.93,-27.47"/>
<polygon fill="#63b8ff" stroke="#63b8ff" points="1092.94,-30.35 1098.39,-21.27 1088.46,-24.96 1092.94,-30.35"/>
</a>
</g>
</g>
<!-- Node20 -->
<g id="Node000020" class="node">
<title>Node20</title>
<g id="a_Node000020"><a xlink:title=" ">
<polygon fill="#e0e0e0" stroke="#999999" points="1210.75,-20 1152.75,-20 1152.75,0 1210.75,0 1210.75,-20"/>
<text text-anchor="middle" x="1181.75" y="-6.5" font-family="Helvetica,sans-Serif" font-size="10.00">functional</text>
</a>
</g>
</g>
<!-- Node2&#45;&gt;Node20 -->
<g id="edge19_Node000002_Node000020" class="edge">
<title>Node2&#45;&gt;Node20</title>
<g id="a_edge19_Node000002_Node000020"><a xlink:title=" ">
<path fill="none" stroke="#63b8ff" d="M1069.44,-55.59C1090.95,-47.05 1122.95,-34.35 1147.29,-24.68"/>
<polygon fill="#63b8ff" stroke="#63b8ff" points="1148.47,-27.98 1156.47,-21.04 1145.88,-21.48 1148.47,-27.98"/>
</a>
</g>
</g>
<!-- Node21 -->
<g id="Node000021" class="node">
<title>Node21</title>
<g id="a_Node000021"><a xlink:title=" ">
<polygon fill="#e0e0e0" stroke="#999999" points="1260.62,-20 1228.88,-20 1228.88,0 1260.62,0 1260.62,-20"/>
<text text-anchor="middle" x="1244.75" y="-6.5" font-family="Helvetica,sans-Serif" font-size="10.00">any</text>
</a>
</g>
</g>
<!-- Node2&#45;&gt;Node21 -->
<g id="edge20_Node000002_Node000021" class="edge">
<title>Node2&#45;&gt;Node21</title>
<g id="a_edge20_Node000002_Node000021"><a xlink:title=" ">
<path fill="none" stroke="#63b8ff" d="M1071.61,-59.1C1103.78,-51.6 1160.56,-37.8 1217.74,-20.41"/>
<polygon fill="#63b8ff" stroke="#63b8ff" points="1218.44,-23.86 1226.97,-17.57 1216.38,-17.17 1218.44,-23.86"/>
</a>
</g>
</g>
<!-- Node22 -->
<g id="Node000022" class="node">
<title>Node22</title>
<g id="a_Node000022"><a xlink:title=" ">
<polygon fill="#e0e0e0" stroke="#999999" points="1381.25,-20 1278.25,-20 1278.25,0 1381.25,0 1381.25,-20"/>
<text text-anchor="middle" x="1329.75" y="-6.5" font-family="Helvetica,sans-Serif" font-size="10.00">SFML/Graphics.hpp</text>
</a>
</g>
</g>
<!-- Node2&#45;&gt;Node22 -->
<g id="edge21_Node000002_Node000022" class="edge">
<title>Node2&#45;&gt;Node22</title>
<g id="a_edge21_Node000002_Node000022"><a xlink:title=" ">
<path fill="none" stroke="#63b8ff" d="M1071.71,-60.06C1116.05,-51.63 1207.53,-34.24 1268.78,-22.59"/>
<polygon fill="#63b8ff" stroke="#63b8ff" points="1269.19,-26.08 1278.36,-20.77 1267.88,-19.2 1269.19,-26.08"/>
</a>
</g>
</g>
<!-- Node23 -->
<g id="Node000023" class="node">
<title>Node23</title>
<g id="a_Node000023"><a xlink:title=" ">
<polygon fill="#e0e0e0" stroke="#999999" points="1498,-20 1399.5,-20 1399.5,0 1498,0 1498,-20"/>
<text text-anchor="middle" x="1448.75" y="-6.5" font-family="Helvetica,sans-Serif" font-size="10.00">SFML/Window.hpp</text>
</a>
</g>
</g>
<!-- Node2&#45;&gt;Node23 -->
<g id="edge22_Node000002_Node000023" class="edge">
<title>Node2&#45;&gt;Node23</title>
<g id="a_edge22_Node000002_Node000023"><a xlink:title=" ">
<path fill="none" stroke="#63b8ff" d="M1071.75,-61.83C1127.6,-54.97 1263.48,-38.02 1387.86,-20.39"/>
<polygon fill="#63b8ff" stroke="#63b8ff" points="1388.18,-23.88 1397.59,-19 1387.2,-16.95 1388.18,-23.88"/>
</a>
</g>
</g>
<!-- Node24 -->
<g id="Node000024" class="node">
<title>Node24</title>
<g id="a_Node000024"><a xlink:title=" ">
<polygon fill="#e0e0e0" stroke="#999999" points="1605.12,-20 1516.38,-20 1516.38,0 1605.12,0 1605.12,-20"/>
<text text-anchor="middle" x="1560.75" y="-6.5" font-family="Helvetica,sans-Serif" font-size="10.00">SFML/Audio.hpp</text>
</a>
</g>
</g>
<!-- Node2&#45;&gt;Node24 -->
<g id="edge23_Node000002_Node000024" class="edge">
<title>Node2&#45;&gt;Node24</title>
<g id="a_edge23_Node000002_Node000024"><a xlink:title=" ">
<path fill="none" stroke="#63b8ff" d="M1071.81,-63.08C1140.65,-57.87 1333.21,-42.46 1504.73,-20.18"/>
<polygon fill="#63b8ff" stroke="#63b8ff" points="1505.04,-23.67 1514.5,-18.9 1504.12,-16.73 1505.04,-23.67"/>
</a>
</g>
</g>
<!-- Node25 -->
<g id="Node000025" class="node">
<title>Node25</title>
<g id="a_Node000025"><a xlink:title=" ">
<polygon fill="#e0e0e0" stroke="#999999" points="1720.62,-20 1622.88,-20 1622.88,0 1720.62,0 1720.62,-20"/>
<text text-anchor="middle" x="1671.75" y="-6.5" font-family="Helvetica,sans-Serif" font-size="10.00">SFML/System.hpp</text>
</a>
</g>
</g>
<!-- Node2&#45;&gt;Node25 -->
<g id="edge24_Node000002_Node000025" class="edge">
<title>Node2&#45;&gt;Node25</title>
<g id="a_edge24_Node000002_Node000025"><a xlink:title=" ">
<path fill="none" stroke="#63b8ff" d="M1071.86,-63.63C1151.24,-59.32 1396.87,-44.88 1611.27,-20.21"/>
<polygon fill="#63b8ff" stroke="#63b8ff" points="1611.39,-23.72 1620.92,-19.09 1610.58,-16.76 1611.39,-23.72"/>
</a>
</g>
</g>
<!-- Node26 -->
<g id="Node000026" class="node">
<title>Node26</title>
<g id="a_Node000026"><a xlink:href="_log_8h.html" target="_top" xlink:title="Provides a lightweight static logging utility for console output.">
<polygon fill="white" stroke="#666666" points="1831,-20 1738.5,-20 1738.5,0 1831,0 1831,-20"/>
<text text-anchor="middle" x="1784.75" y="-6.5" font-family="Helvetica,sans-Serif" font-size="10.00">Core/Utility/Log.h</text>
</a>
</g>
</g>
<!-- Node2&#45;&gt;Node26 -->
<g id="edge25_Node000002_Node000026" class="edge">
<title>Node2&#45;&gt;Node26</title>
<g id="a_edge25_Node000002_Node000026"><a xlink:title=" ">
<path fill="none" stroke="#63b8ff" d="M1071.61,-64.2C1160.99,-61.24 1465.28,-49.6 1727.03,-20.2"/>
<polygon fill="#63b8ff" stroke="#63b8ff" points="1727.24,-23.7 1736.78,-19.1 1726.45,-16.75 1727.24,-23.7"/>
</a>
</g>
</g>
<!-- Node27 -->
<g id="Node000027" class="node">
<title>Node27</title>
<g id="a_Node000027"><a xlink:href="_vector2_8h.html" target="_top" xlink:title="A simple 2D vector class based on SFML&#39;s sf::Vector2.">
<polygon fill="white" stroke="#666666" points="1958.62,-20 1848.88,-20 1848.88,0 1958.62,0 1958.62,-20"/>
<text text-anchor="middle" x="1903.75" y="-6.5" font-family="Helvetica,sans-Serif" font-size="10.00">Core/Utility/Vector2.h</text>
</a>
</g>
</g>
<!-- Node2&#45;&gt;Node27 -->
<g id="edge26_Node000002_Node000027" class="edge">
<title>Node2&#45;&gt;Node27</title>
<g id="a_edge26_Node000002_Node000027"><a xlink:title=" ">
<path fill="none" stroke="#63b8ff" d="M1071.86,-64.31C1170.48,-61.53 1529.91,-49.92 1837.26,-20.16"/>
<polygon fill="#63b8ff" stroke="#63b8ff" points="1837.51,-23.65 1847.12,-19.2 1836.83,-16.69 1837.51,-23.65"/>
</a>
</g>
</g>
<!-- Node28 -->
<g id="Node000028" class="node">
<title>Node28</title>
<g id="a_Node000028"><a xlink:href="_timer_8h.html" target="_top" xlink:title="A simple timer utility class.">
<polygon fill="white" stroke="#666666" points="2078.5,-20 1977,-20 1977,0 2078.5,0 2078.5,-20"/>
<text text-anchor="middle" x="2027.75" y="-6.5" font-family="Helvetica,sans-Serif" font-size="10.00">Core/Utility/Timer.h</text>
</a>
</g>
</g>
<!-- Node2&#45;&gt;Node28 -->
<g id="edge27_Node000002_Node000028" class="edge">
<title>Node2&#45;&gt;Node28</title>
<g id="a_edge27_Node000002_Node000028"><a xlink:title=" ">
<path fill="none" stroke="#63b8ff" d="M1071.85,-64.68C1180.18,-63.16 1605.06,-55.23 1965.29,-20.13"/>
<polygon fill="#63b8ff" stroke="#63b8ff" points="1965.62,-23.62 1975.22,-19.16 1964.93,-16.65 1965.62,-23.62"/>
</a>
</g>
</g>
<!-- Node29 -->
<g id="Node000029" class="node">
<title>Node29</title>
<g id="a_Node000029"><a xlink:href="_random_gen_8h.html" target="_top" xlink:title=" ">
<polygon fill="white" stroke="#666666" points="2228.5,-20 2097,-20 2097,0 2228.5,0 2228.5,-20"/>
<text text-anchor="middle" x="2162.75" y="-6.5" font-family="Helvetica,sans-Serif" font-size="10.00">Core/Utility/RandomGen.h</text>
</a>
</g>
</g>
<!-- Node2&#45;&gt;Node29 -->
<g id="edge28_Node000002_Node000029" class="edge">
<title>Node2&#45;&gt;Node29</title>
<g id="a_edge28_Node000002_Node000029"><a xlink:title=" ">
<path fill="none" stroke="#63b8ff" d="M1071.57,-64.61C1187.84,-62.7 1674.58,-53.11 2085.31,-20.13"/>
<polygon fill="#63b8ff" stroke="#63b8ff" points="2085.33,-23.64 2095.02,-19.35 2084.77,-16.67 2085.33,-23.64"/>
</a>
</g>
</g>
<!-- Node30 -->
<g id="Node000030" class="node">
<title>Node30</title>
<g id="a_Node000030"><a xlink:href="_scene_manager_8h.html" target="_top" xlink:title="Contains the SceneID enum, IGameScene interface, and SceneManager class.">
<polygon fill="white" stroke="#666666" points="2405.38,-20 2246.12,-20 2246.12,0 2405.38,0 2405.38,-20"/>
<text text-anchor="middle" x="2325.75" y="-6.5" font-family="Helvetica,sans-Serif" font-size="10.00">Core/Managers/SceneManager.h</text>
</a>
</g>
</g>
<!-- Node2&#45;&gt;Node30 -->
<g id="edge29_Node000002_Node000030" class="edge">
<title>Node2&#45;&gt;Node30</title>
<g id="a_edge29_Node000002_Node000030"><a xlink:title=" ">
<path fill="none" stroke="#63b8ff" d="M1071.79,-64.64C1198.33,-62.74 1761.96,-52.81 2234.53,-20.18"/>
<polygon fill="#63b8ff" stroke="#63b8ff" points="2234.43,-23.7 2244.16,-19.51 2233.94,-16.72 2234.43,-23.7"/>
</a>
</g>
</g>
<!-- Node31 -->
<g id="Node000031" class="node">
<title>Node31</title>
<g id="a_Node000031"><a xlink:href="_cursor_8h.html" target="_top" xlink:title="Singleton class that manages the in&#45;game cursor.">
<polygon fill="white" stroke="#666666" points="2512.5,-20 2423,-20 2423,0 2512.5,0 2512.5,-20"/>
<text text-anchor="middle" x="2467.75" y="-6.5" font-family="Helvetica,sans-Serif" font-size="10.00">Entities/Cursor.h</text>
</a>
</g>
</g>
<!-- Node2&#45;&gt;Node31 -->
<g id="edge30_Node000002_Node000031" class="edge">
<title>Node2&#45;&gt;Node31</title>
<g id="a_edge30_Node000002_Node000031"><a xlink:title=" ">
<path fill="none" stroke="#63b8ff" d="M1071.82,-64.63C1234.9,-62.21 2117.19,-48.08 2411.64,-20.16"/>
<polygon fill="#63b8ff" stroke="#63b8ff" points="2411.58,-23.68 2421.19,-19.22 2410.9,-16.72 2411.58,-23.68"/>
</a>
</g>
</g>
<!-- Node32 -->
<g id="Node000032" class="node">
<title>Node32</title>
<g id="a_Node000032"><a xlink:title=" ">
<polygon fill="#e0e0e0" stroke="#999999" points="2593,-20 2530.5,-20 2530.5,0 2593,0 2593,-20"/>
<text text-anchor="middle" x="2561.75" y="-6.5" font-family="Helvetica,sans-Serif" font-size="10.00">windows.h</text>
</a>
</g>
</g>
<!-- Node2&#45;&gt;Node32 -->
<g id="edge31_Node000002_Node000032" class="edge">
<title>Node2&#45;&gt;Node32</title>
<g id="a_edge31_Node000002_Node000032"><a xlink:title=" ">
<path fill="none" stroke="#63b8ff" d="M1071.62,-64.89C1241.69,-64.04 2202.24,-57.69 2519.4,-20"/>
<polygon fill="#63b8ff" stroke="#63b8ff" points="2519.41,-23.53 2528.91,-18.83 2518.55,-16.58 2519.41,-23.53"/>
</a>
</g>
</g>
<!-- Node33 -->
<g id="Node000033" class="node">
<title>Node33</title>
<g id="a_Node000033"><a xlink:title=" ">
<polygon fill="#e0e0e0" stroke="#999999" points="2662.38,-20 2611.12,-20 2611.12,0 2662.38,0 2662.38,-20"/>
<text text-anchor="middle" x="2636.75" y="-6.5" font-family="Helvetica,sans-Serif" font-size="10.00">sstream</text>
</a>
</g>
</g>
<!-- Node2&#45;&gt;Node33 -->
<g id="edge32_Node000002_Node000033" class="edge">
<title>Node2&#45;&gt;Node33</title>
<g id="a_edge32_Node000002_Node000033"><a xlink:title=" ">
<path fill="none" stroke="#63b8ff" d="M1071.6,-65.04C1247,-65.19 2265.58,-64.22 2599.77,-19.86"/>
<polygon fill="#63b8ff" stroke="#63b8ff" points="2599.96,-23.37 2609.39,-18.54 2599,-16.44 2599.96,-23.37"/>
</a>
</g>
</g>
</g>
</svg>

<g id="navigator" transform="translate(0 0)" fill="#404254">
  <rect fill="#f2f5e9" fill-opacity="0.5" stroke="#606060" stroke-width=".5" x="0" y="0" width="60" height="60"/>
  <use id="zoomplus" xlink:href="#zoomPlus" x="17" y="9" onmousedown="handleZoom(evt,'in')"/>
  <use id="zoomminus" xlink:href="#zoomMin" x="42" y="9" onmousedown="handleZoom(evt,'out')"/>
  <use id="reset" xlink:href="#resetDef" x="30" y="36" onmousedown="handleReset()"/>
   <use id="arrowup" xlink:href="#arrowUp" x="0" y="0" onmousedown="handlePan(0,-1)"/>
  <use id="arrowright" xlink:href="#arrowRight" x="0" y="0" onmousedown="handlePan(1,0)"/>
  <use id="arrowdown" xlink:href="#arrowDown" x="0" y="0" onmousedown="handlePan(0,1)"/>
  <use id="arrowleft" xlink:href="#arrowLeft" x="0" y="0" onmousedown="handlePan(-1,0)"/>
</g>
<svg viewBox="0 0 15 15" width="100%" height="30px" preserveAspectRatio="xMaxYMin meet">
 <g id="arrow_out" transform="scale(0.3 0.3)">
  <a xlink:href="stdafx_8cpp__incl_org.svg" target="_base">
   <rect id="button" ry="5" rx="5" y="6" x="6" height="38" width="38"
        fill="#f2f5e9" fill-opacity="0.5" stroke="#606060" stroke-width="1.0"/>
   <path id="arrow"
     d="M 11.500037,31.436501 C 11.940474,20.09759 22.043105,11.32322 32.158766,21.979434 L 37.068811,17.246167 C 37.068811,17.246167 37.088388,32 37.088388,32 L 22.160133,31.978069 C 22.160133,31.978069 26.997745,27.140456 26.997745,27.140456 C 18.528582,18.264221 13.291696,25.230495 11.500037,31.436501 z"
     style="fill:#404040;"/>
  </a>
 </g>
</svg>

<style type='text/css'>
<![CDATA[
[data-mouse-over-selected='false'] { opacity: 0.7; }
[data-mouse-over-selected='true']  { opacity: 1.0; }
]]>
</style>
<script type="application/ecmascript"><![CDATA[
document.addEventListener('DOMContentLoaded', (event) => {
  highlightEdges();
  highlightAdjacentNodes();
});
]]></script>
</svg>
