<?xml version="1.0" encoding="UTF-8" standalone="no"?>
<!DOCTYPE svg PUBLIC "-//W3C//DTD SVG 1.1//EN"
 "http://www.w3.org/Graphics/SVG/1.1/DTD/svg11.dtd">
<!-- Generated by graphviz version 12.2.0 (20241103.1931)
 -->
<!-- Title: include/MyLibrary/stdafx.h Pages: 1 -->
<svg width="3302pt" height="96pt"
 viewBox="0.00 0.00 3302.00 96.00" xmlns="http://www.w3.org/2000/svg" xmlns:xlink="http://www.w3.org/1999/xlink">
<g id="graph0" class="graph" transform="scale(1 1) rotate(0) translate(4 92)">
<title>include/MyLibrary/stdafx.h</title>
<!-- Node1 -->
<g id="Node000001" class="node">
<title>Node1</title>
<g id="a_Node000001"><a xlink:title=" ">
<polygon fill="#999999" stroke="#666666" points="1676.75,-88 1546,-88 1546,-68 1676.75,-68 1676.75,-88"/>
<text text-anchor="middle" x="1611.38" y="-74.5" font-family="Helvetica,sans-Serif" font-size="10.00">include/MyLibrary/stdafx.h</text>
</a>
</g>
</g>
<!-- Node2 -->
<g id="Node000002" class="node">
<title>Node2</title>
<g id="a_Node000002"><a xlink:href="_input_manager_8cpp.html" target="_top" xlink:title=" ">
<polygon fill="white" stroke="#666666" points="142.75,-32 0,-32 0,0 142.75,0 142.75,-32"/>
<text text-anchor="start" x="8" y="-18.5" font-family="Helvetica,sans-Serif" font-size="10.00">include/MyLibrary/Core</text>
<text text-anchor="middle" x="71.38" y="-6.5" font-family="Helvetica,sans-Serif" font-size="10.00">/Managers/InputManager.cpp</text>
</a>
</g>
</g>
<!-- Node1&#45;&gt;Node2 -->
<g id="edge1_Node000001_Node000002" class="edge">
<title>Node1&#45;&gt;Node2</title>
<g id="a_edge1_Node000001_Node000002"><a xlink:title=" ">
<path fill="none" stroke="#63b8ff" d="M1534.38,-76.17C1273.49,-73.13 424.09,-61.18 152.38,-32 149.25,-31.66 146.06,-31.28 142.84,-30.84"/>
<polygon fill="#63b8ff" stroke="#63b8ff" points="1534.07,-79.67 1544.11,-76.29 1534.15,-72.67 1534.07,-79.67"/>
</a>
</g>
</g>
<!-- Node3 -->
<g id="Node000003" class="node">
<title>Node3</title>
<g id="a_Node000003"><a xlink:href="_scene_manager_8cpp.html" target="_top" xlink:title=" ">
<polygon fill="white" stroke="#666666" points="309.75,-32 161,-32 161,0 309.75,0 309.75,-32"/>
<text text-anchor="start" x="169" y="-18.5" font-family="Helvetica,sans-Serif" font-size="10.00">include/MyLibrary/Core</text>
<text text-anchor="middle" x="235.38" y="-6.5" font-family="Helvetica,sans-Serif" font-size="10.00">/Managers/SceneManager.cpp</text>
</a>
</g>
</g>
<!-- Node1&#45;&gt;Node3 -->
<g id="edge2_Node000001_Node000003" class="edge">
<title>Node1&#45;&gt;Node3</title>
<g id="a_edge2_Node000001_Node000003"><a xlink:title=" ">
<path fill="none" stroke="#63b8ff" d="M1534.42,-75.75C1293.73,-71.63 557.08,-57.23 319.38,-32 316.28,-31.67 313.13,-31.3 309.95,-30.88"/>
<polygon fill="#63b8ff" stroke="#63b8ff" points="1534.27,-79.25 1544.33,-75.92 1534.39,-72.25 1534.27,-79.25"/>
</a>
</g>
</g>
<!-- Node4 -->
<g id="Node000004" class="node">
<title>Node4</title>
<g id="a_Node000004"><a xlink:href="_sound_manager_8cpp.html" target="_top" xlink:title=" ">
<polygon fill="white" stroke="#666666" points="476.75,-32 328,-32 328,0 476.75,0 476.75,-32"/>
<text text-anchor="start" x="336" y="-18.5" font-family="Helvetica,sans-Serif" font-size="10.00">include/MyLibrary/Core</text>
<text text-anchor="middle" x="402.38" y="-6.5" font-family="Helvetica,sans-Serif" font-size="10.00">/Managers/SoundManager.cpp</text>
</a>
</g>
</g>
<!-- Node1&#45;&gt;Node4 -->
<g id="edge3_Node000001_Node000004" class="edge">
<title>Node1&#45;&gt;Node4</title>
<g id="a_edge3_Node000001_Node000004"><a xlink:title=" ">
<path fill="none" stroke="#63b8ff" d="M1534.43,-77.6C1351.79,-78.21 878.05,-75.12 485.38,-32 482.61,-31.7 479.8,-31.36 476.96,-30.98"/>
<polygon fill="#63b8ff" stroke="#63b8ff" points="1534.27,-81.1 1544.26,-77.56 1534.25,-74.1 1534.27,-81.1"/>
</a>
</g>
</g>
<!-- Node5 -->
<g id="Node000005" class="node">
<title>Node5</title>
<g id="a_Node000005"><a xlink:href="_gameplay_utility_8cpp.html" target="_top" xlink:title=" ">
<polygon fill="white" stroke="#666666" points="630,-32 494.75,-32 494.75,0 630,0 630,-32"/>
<text text-anchor="start" x="502.75" y="-18.5" font-family="Helvetica,sans-Serif" font-size="10.00">include/MyLibrary/Core</text>
<text text-anchor="middle" x="562.38" y="-6.5" font-family="Helvetica,sans-Serif" font-size="10.00">/Utility/GameplayUtility.cpp</text>
</a>
</g>
</g>
<!-- Node1&#45;&gt;Node5 -->
<g id="edge4_Node000001_Node000005" class="edge">
<title>Node1&#45;&gt;Node5</title>
<g id="a_edge4_Node000001_Node000005"><a xlink:title=" ">
<path fill="none" stroke="#63b8ff" d="M1534.22,-77.25C1369.34,-76.94 970.66,-71.72 639.38,-32 636.4,-31.64 633.37,-31.24 630.31,-30.79"/>
<polygon fill="#63b8ff" stroke="#63b8ff" points="1534.17,-80.75 1544.17,-77.26 1534.18,-73.75 1534.17,-80.75"/>
</a>
</g>
</g>
<!-- Node6 -->
<g id="Node000006" class="node">
<title>Node6</title>
<g id="a_Node000006"><a xlink:href="_helper_8cpp.html" target="_top" xlink:title=" ">
<polygon fill="white" stroke="#666666" points="764.62,-32 648.12,-32 648.12,0 764.62,0 764.62,-32"/>
<text text-anchor="start" x="656.12" y="-18.5" font-family="Helvetica,sans-Serif" font-size="10.00">include/MyLibrary/Core</text>
<text text-anchor="middle" x="706.38" y="-6.5" font-family="Helvetica,sans-Serif" font-size="10.00">/Utility/Helper.cpp</text>
</a>
</g>
</g>
<!-- Node1&#45;&gt;Node6 -->
<g id="edge5_Node000001_Node000006" class="edge">
<title>Node1&#45;&gt;Node6</title>
<g id="a_edge5_Node000001_Node000006"><a xlink:title=" ">
<path fill="none" stroke="#63b8ff" d="M1534.47,-77.05C1386.56,-76.23 1052.45,-69.89 774.38,-32 771.26,-31.58 768.08,-31.08 764.87,-30.54"/>
<polygon fill="#63b8ff" stroke="#63b8ff" points="1534.12,-80.55 1544.13,-77.1 1534.15,-73.55 1534.12,-80.55"/>
</a>
</g>
</g>
<!-- Node7 -->
<g id="Node000007" class="node">
<title>Node7</title>
<g id="a_Node000007"><a xlink:href="_log_8cpp.html" target="_top" xlink:title=" ">
<polygon fill="white" stroke="#666666" points="899.62,-32 783.12,-32 783.12,0 899.62,0 899.62,-32"/>
<text text-anchor="start" x="791.12" y="-18.5" font-family="Helvetica,sans-Serif" font-size="10.00">include/MyLibrary/Core</text>
<text text-anchor="middle" x="841.38" y="-6.5" font-family="Helvetica,sans-Serif" font-size="10.00">/Utility/Log.cpp</text>
</a>
</g>
</g>
<!-- Node1&#45;&gt;Node7 -->
<g id="edge6_Node000001_Node000007" class="edge">
<title>Node1&#45;&gt;Node7</title>
<g id="a_edge6_Node000001_Node000007"><a xlink:title=" ">
<path fill="none" stroke="#63b8ff" d="M1534.24,-76C1404.42,-73.43 1134.31,-64.32 908.38,-32 905.66,-31.61 902.89,-31.17 900.11,-30.69"/>
<polygon fill="#63b8ff" stroke="#63b8ff" points="1534.03,-79.49 1544.09,-76.18 1534.16,-72.5 1534.03,-79.49"/>
</a>
</g>
</g>
<!-- Node8 -->
<g id="Node000008" class="node">
<title>Node8</title>
<g id="a_Node000008"><a xlink:href="_random_gen_8cpp.html" target="_top" xlink:title=" ">
<polygon fill="white" stroke="#666666" points="1038.88,-32 917.88,-32 917.88,0 1038.88,0 1038.88,-32"/>
<text text-anchor="start" x="925.88" y="-18.5" font-family="Helvetica,sans-Serif" font-size="10.00">include/MyLibrary/Core</text>
<text text-anchor="middle" x="978.38" y="-6.5" font-family="Helvetica,sans-Serif" font-size="10.00">/Utility/RandomGen.cpp</text>
</a>
</g>
</g>
<!-- Node1&#45;&gt;Node8 -->
<g id="edge7_Node000001_Node000008" class="edge">
<title>Node1&#45;&gt;Node8</title>
<g id="a_edge7_Node000001_Node000008"><a xlink:title=" ">
<path fill="none" stroke="#63b8ff" d="M1534.44,-74.05C1425.69,-69.16 1221.02,-57.29 1048.38,-32 1045.42,-31.57 1042.41,-31.08 1039.37,-30.56"/>
<polygon fill="#63b8ff" stroke="#63b8ff" points="1533.96,-77.54 1544.1,-74.48 1534.27,-70.54 1533.96,-77.54"/>
</a>
</g>
</g>
<!-- Node9 -->
<g id="Node000009" class="node">
<title>Node9</title>
<g id="a_Node000009"><a xlink:href="_timer_8cpp.html" target="_top" xlink:title=" ">
<polygon fill="white" stroke="#666666" points="1173.62,-32 1057.12,-32 1057.12,0 1173.62,0 1173.62,-32"/>
<text text-anchor="start" x="1065.12" y="-18.5" font-family="Helvetica,sans-Serif" font-size="10.00">include/MyLibrary/Core</text>
<text text-anchor="middle" x="1115.38" y="-6.5" font-family="Helvetica,sans-Serif" font-size="10.00">/Utility/Timer.cpp</text>
</a>
</g>
</g>
<!-- Node1&#45;&gt;Node9 -->
<g id="edge8_Node000001_Node000009" class="edge">
<title>Node1&#45;&gt;Node9</title>
<g id="a_edge8_Node000001_Node000009"><a xlink:title=" ">
<path fill="none" stroke="#63b8ff" d="M1534.59,-71.54C1448.67,-64.83 1305.48,-51.82 1183.38,-32 1180.27,-31.5 1177.1,-30.94 1173.9,-30.35"/>
<polygon fill="#63b8ff" stroke="#63b8ff" points="1534.06,-75.01 1544.3,-72.29 1534.6,-68.03 1534.06,-75.01"/>
</a>
</g>
</g>
<!-- Node10 -->
<g id="Node000010" class="node">
<title>Node10</title>
<g id="a_Node000010"><a xlink:href="_vector2_8cpp.html" target="_top" xlink:title=" ">
<polygon fill="white" stroke="#666666" points="1308.62,-32 1192.12,-32 1192.12,0 1308.62,0 1308.62,-32"/>
<text text-anchor="start" x="1200.12" y="-18.5" font-family="Helvetica,sans-Serif" font-size="10.00">include/MyLibrary/Core</text>
<text text-anchor="middle" x="1250.38" y="-6.5" font-family="Helvetica,sans-Serif" font-size="10.00">/Utility/Vector2.cpp</text>
</a>
</g>
</g>
<!-- Node1&#45;&gt;Node10 -->
<g id="edge9_Node000001_Node000010" class="edge">
<title>Node1&#45;&gt;Node10</title>
<g id="a_edge9_Node000001_Node000010"><a xlink:title=" ">
<path fill="none" stroke="#63b8ff" d="M1534.57,-66.59C1475.34,-58.23 1391.45,-45.66 1318.38,-32 1315.29,-31.42 1312.12,-30.81 1308.93,-30.17"/>
<polygon fill="#63b8ff" stroke="#63b8ff" points="1533.82,-70.02 1544.21,-67.94 1534.8,-63.09 1533.82,-70.02"/>
</a>
</g>
</g>
<!-- Node11 -->
<g id="Node000011" class="node">
<title>Node11</title>
<g id="a_Node000011"><a xlink:href="_cursor_8cpp.html" target="_top" xlink:title=" ">
<polygon fill="white" stroke="#666666" points="1455.62,-32 1327.12,-32 1327.12,0 1455.62,0 1455.62,-32"/>
<text text-anchor="start" x="1335.12" y="-18.5" font-family="Helvetica,sans-Serif" font-size="10.00">include/MyLibrary/Entities</text>
<text text-anchor="middle" x="1391.38" y="-6.5" font-family="Helvetica,sans-Serif" font-size="10.00">/Cursor.cpp</text>
</a>
</g>
</g>
<!-- Node1&#45;&gt;Node11 -->
<g id="edge10_Node000001_Node000011" class="edge">
<title>Node1&#45;&gt;Node11</title>
<g id="a_edge10_Node000001_Node000011"><a xlink:title=" ">
<path fill="none" stroke="#63b8ff" d="M1565.95,-64.61C1531.8,-55.3 1484.8,-42.48 1448.17,-32.49"/>
<polygon fill="#63b8ff" stroke="#63b8ff" points="1564.97,-67.97 1575.54,-67.23 1566.81,-61.22 1564.97,-67.97"/>
</a>
</g>
</g>
<!-- Node12 -->
<g id="Node000012" class="node">
<title>Node12</title>
<g id="a_Node000012"><a xlink:href="_enemy_8cpp.html" target="_top" xlink:title=" ">
<polygon fill="white" stroke="#666666" points="1602.62,-32 1474.12,-32 1474.12,0 1602.62,0 1602.62,-32"/>
<text text-anchor="start" x="1482.12" y="-18.5" font-family="Helvetica,sans-Serif" font-size="10.00">include/MyLibrary/Entities</text>
<text text-anchor="middle" x="1538.38" y="-6.5" font-family="Helvetica,sans-Serif" font-size="10.00">/Enemy.cpp</text>
</a>
</g>
</g>
<!-- Node1&#45;&gt;Node12 -->
<g id="edge11_Node000001_Node000012" class="edge">
<title>Node1&#45;&gt;Node12</title>
<g id="a_edge11_Node000001_Node000012"><a xlink:title=" ">
<path fill="none" stroke="#63b8ff" d="M1591.31,-60.51C1580.62,-51.72 1567.56,-40.98 1557.08,-32.37"/>
<polygon fill="#63b8ff" stroke="#63b8ff" points="1588.85,-63.02 1598.8,-66.66 1593.3,-57.61 1588.85,-63.02"/>
</a>
</g>
</g>
<!-- Node13 -->
<g id="Node000013" class="node">
<title>Node13</title>
<g id="a_Node000013"><a xlink:href="_projectile_8cpp.html" target="_top" xlink:title=" ">
<polygon fill="white" stroke="#666666" points="1749.62,-32 1621.12,-32 1621.12,0 1749.62,0 1749.62,-32"/>
<text text-anchor="start" x="1629.12" y="-18.5" font-family="Helvetica,sans-Serif" font-size="10.00">include/MyLibrary/Entities</text>
<text text-anchor="middle" x="1685.38" y="-6.5" font-family="Helvetica,sans-Serif" font-size="10.00">/Projectile.cpp</text>
</a>
</g>
</g>
<!-- Node1&#45;&gt;Node13 -->
<g id="edge12_Node000001_Node000013" class="edge">
<title>Node1&#45;&gt;Node13</title>
<g id="a_edge12_Node000001_Node000013"><a xlink:title=" ">
<path fill="none" stroke="#63b8ff" d="M1631.71,-60.51C1642.55,-51.72 1655.79,-40.98 1666.41,-32.37"/>
<polygon fill="#63b8ff" stroke="#63b8ff" points="1629.68,-57.66 1624.11,-66.67 1634.09,-63.09 1629.68,-57.66"/>
</a>
</g>
</g>
<!-- Node14 -->
<g id="Node000014" class="node">
<title>Node14</title>
<g id="a_Node000014"><a xlink:href="_spaceship_8cpp.html" target="_top" xlink:title=" ">
<polygon fill="white" stroke="#666666" points="1896.62,-32 1768.12,-32 1768.12,0 1896.62,0 1896.62,-32"/>
<text text-anchor="start" x="1776.12" y="-18.5" font-family="Helvetica,sans-Serif" font-size="10.00">include/MyLibrary/Entities</text>
<text text-anchor="middle" x="1832.38" y="-6.5" font-family="Helvetica,sans-Serif" font-size="10.00">/Spaceship.cpp</text>
</a>
</g>
</g>
<!-- Node1&#45;&gt;Node14 -->
<g id="edge13_Node000001_Node000014" class="edge">
<title>Node1&#45;&gt;Node14</title>
<g id="a_edge13_Node000001_Node000014"><a xlink:title=" ">
<path fill="none" stroke="#63b8ff" d="M1657.01,-64.61C1691.31,-55.3 1738.52,-42.48 1775.32,-32.49"/>
<polygon fill="#63b8ff" stroke="#63b8ff" points="1656.1,-61.23 1647.37,-67.23 1657.93,-67.99 1656.1,-61.23"/>
</a>
</g>
</g>
<!-- Node15 -->
<g id="Node000015" class="node">
<title>Node15</title>
<g id="a_Node000015"><a xlink:href="_game_instance_8cpp.html" target="_top" xlink:title=" ">
<polygon fill="white" stroke="#666666" points="2092.38,-26 1914.38,-26 1914.38,-6 2092.38,-6 2092.38,-26"/>
<text text-anchor="middle" x="2003.38" y="-12.5" font-family="Helvetica,sans-Serif" font-size="10.00">include/MyLibrary/GameInstance.cpp</text>
</a>
</g>
</g>
<!-- Node1&#45;&gt;Node15 -->
<g id="edge14_Node000001_Node000015" class="edge">
<title>Node1&#45;&gt;Node15</title>
<g id="a_edge14_Node000001_Node000015"><a xlink:title=" ">
<path fill="none" stroke="#63b8ff" d="M1684.13,-65.86C1758.12,-54.54 1871.56,-37.18 1941.41,-26.48"/>
<polygon fill="#63b8ff" stroke="#63b8ff" points="1683.91,-62.36 1674.55,-67.33 1684.97,-69.28 1683.91,-62.36"/>
</a>
</g>
</g>
<!-- Node16 -->
<g id="Node000016" class="node">
<title>Node16</title>
<g id="a_Node000016"><a xlink:href="_credits_8cpp.html" target="_top" xlink:title=" ">
<polygon fill="white" stroke="#666666" points="2238.62,-32 2110.12,-32 2110.12,0 2238.62,0 2238.62,-32"/>
<text text-anchor="start" x="2118.12" y="-18.5" font-family="Helvetica,sans-Serif" font-size="10.00">include/MyLibrary/Scenes</text>
<text text-anchor="middle" x="2174.38" y="-6.5" font-family="Helvetica,sans-Serif" font-size="10.00">/Credits/Credits.cpp</text>
</a>
</g>
</g>
<!-- Node1&#45;&gt;Node16 -->
<g id="edge15_Node000001_Node000016" class="edge">
<title>Node1&#45;&gt;Node16</title>
<g id="a_edge15_Node000001_Node000016"><a xlink:title=" ">
<path fill="none" stroke="#63b8ff" d="M1688.47,-72.58C1785.26,-66.41 1956.22,-53.51 2101.38,-32 2104.19,-31.58 2107.06,-31.13 2109.96,-30.64"/>
<polygon fill="#63b8ff" stroke="#63b8ff" points="1688.31,-69.08 1678.55,-73.2 1688.75,-76.07 1688.31,-69.08"/>
</a>
</g>
</g>
<!-- Node17 -->
<g id="Node000017" class="node">
<title>Node17</title>
<g id="a_Node000017"><a xlink:href="_game_over_8cpp.html" target="_top" xlink:title=" ">
<polygon fill="white" stroke="#666666" points="2392,-32 2256.75,-32 2256.75,0 2392,0 2392,-32"/>
<text text-anchor="start" x="2264.75" y="-18.5" font-family="Helvetica,sans-Serif" font-size="10.00">include/MyLibrary/Scenes</text>
<text text-anchor="middle" x="2324.38" y="-6.5" font-family="Helvetica,sans-Serif" font-size="10.00">/GameOver/GameOver.cpp</text>
</a>
</g>
</g>
<!-- Node1&#45;&gt;Node17 -->
<g id="edge16_Node000001_Node000017" class="edge">
<title>Node1&#45;&gt;Node17</title>
<g id="a_edge16_Node000001_Node000017"><a xlink:title=" ">
<path fill="none" stroke="#63b8ff" d="M1688.33,-74.58C1808.24,-70.13 2046.72,-58.54 2247.38,-32 2250.35,-31.61 2253.37,-31.17 2256.43,-30.7"/>
<polygon fill="#63b8ff" stroke="#63b8ff" points="1688.48,-71.07 1678.62,-74.93 1688.74,-78.07 1688.48,-71.07"/>
</a>
</g>
</g>
<!-- Node18 -->
<g id="Node000018" class="node">
<title>Node18</title>
<g id="a_Node000018"><a xlink:href="_level_one_8cpp.html" target="_top" xlink:title=" ">
<polygon fill="white" stroke="#666666" points="2538.62,-32 2410.12,-32 2410.12,0 2538.62,0 2538.62,-32"/>
<text text-anchor="start" x="2418.12" y="-18.5" font-family="Helvetica,sans-Serif" font-size="10.00">include/MyLibrary/Scenes</text>
<text text-anchor="middle" x="2474.38" y="-6.5" font-family="Helvetica,sans-Serif" font-size="10.00">/InGame/LevelOne.cpp</text>
</a>
</g>
</g>
<!-- Node1&#45;&gt;Node18 -->
<g id="edge17_Node000001_Node000018" class="edge">
<title>Node1&#45;&gt;Node18</title>
<g id="a_edge17_Node000001_Node000018"><a xlink:title=" ">
<path fill="none" stroke="#63b8ff" d="M1688.36,-76.33C1830.04,-74.28 2141.42,-65.93 2401.38,-32 2404.2,-31.63 2407.07,-31.22 2409.97,-30.76"/>
<polygon fill="#63b8ff" stroke="#63b8ff" points="1688.69,-72.83 1678.74,-76.46 1688.78,-79.83 1688.69,-72.83"/>
</a>
</g>
</g>
<!-- Node19 -->
<g id="Node000019" class="node">
<title>Node19</title>
<g id="a_Node000019"><a xlink:href="_level_two_8cpp.html" target="_top" xlink:title=" ">
<polygon fill="white" stroke="#666666" points="2685.62,-32 2557.12,-32 2557.12,0 2685.62,0 2685.62,-32"/>
<text text-anchor="start" x="2565.12" y="-18.5" font-family="Helvetica,sans-Serif" font-size="10.00">include/MyLibrary/Scenes</text>
<text text-anchor="middle" x="2621.38" y="-6.5" font-family="Helvetica,sans-Serif" font-size="10.00">/InGame/LevelTwo.cpp</text>
</a>
</g>
</g>
<!-- Node1&#45;&gt;Node19 -->
<g id="edge18_Node000001_Node000019" class="edge">
<title>Node1&#45;&gt;Node19</title>
<g id="a_edge18_Node000001_Node000019"><a xlink:title=" ">
<path fill="none" stroke="#63b8ff" d="M1688.37,-77.25C1848.79,-76.89 2230.29,-71.53 2547.38,-32 2550.5,-31.61 2553.68,-31.16 2556.9,-30.67"/>
<polygon fill="#63b8ff" stroke="#63b8ff" points="1688.71,-73.74 1678.72,-77.26 1688.72,-80.74 1688.71,-73.74"/>
</a>
</g>
</g>
<!-- Node20 -->
<g id="Node000020" class="node">
<title>Node20</title>
<g id="a_Node000020"><a xlink:href="_intro_8cpp.html" target="_top" xlink:title=" ">
<polygon fill="white" stroke="#666666" points="2832.62,-32 2704.12,-32 2704.12,0 2832.62,0 2832.62,-32"/>
<text text-anchor="start" x="2712.12" y="-18.5" font-family="Helvetica,sans-Serif" font-size="10.00">include/MyLibrary/Scenes</text>
<text text-anchor="middle" x="2768.38" y="-6.5" font-family="Helvetica,sans-Serif" font-size="10.00">/Intro/Intro.cpp</text>
</a>
</g>
</g>
<!-- Node1&#45;&gt;Node20 -->
<g id="edge19_Node000001_Node000020" class="edge">
<title>Node1&#45;&gt;Node20</title>
<g id="a_edge19_Node000001_Node000020"><a xlink:title=" ">
<path fill="none" stroke="#63b8ff" d="M1688.41,-75.39C1902.09,-70.66 2499.36,-55.67 2694.38,-32 2697.5,-31.62 2700.69,-31.18 2703.9,-30.7"/>
<polygon fill="#63b8ff" stroke="#63b8ff" points="1688.44,-71.89 1678.52,-75.6 1688.59,-78.88 1688.44,-71.89"/>
</a>
</g>
</g>
<!-- Node21 -->
<g id="Node000021" class="node">
<title>Node21</title>
<g id="a_Node000021"><a xlink:href="_main_menu_8cpp.html" target="_top" xlink:title=" ">
<polygon fill="white" stroke="#666666" points="2981.75,-32 2851,-32 2851,0 2981.75,0 2981.75,-32"/>
<text text-anchor="start" x="2859" y="-18.5" font-family="Helvetica,sans-Serif" font-size="10.00">include/MyLibrary/Scenes</text>
<text text-anchor="middle" x="2916.38" y="-6.5" font-family="Helvetica,sans-Serif" font-size="10.00">/MainMenu/MainMenu.cpp</text>
</a>
</g>
</g>
<!-- Node1&#45;&gt;Node21 -->
<g id="edge20_Node000001_Node000021" class="edge">
<title>Node1&#45;&gt;Node21</title>
<g id="a_edge20_Node000001_Node000021"><a xlink:title=" ">
<path fill="none" stroke="#63b8ff" d="M1688.62,-75.8C1921.84,-71.92 2616.63,-58.41 2841.38,-32 2844.41,-31.64 2847.5,-31.23 2850.62,-30.77"/>
<polygon fill="#63b8ff" stroke="#63b8ff" points="1688.66,-72.3 1678.72,-75.96 1688.77,-79.3 1688.66,-72.3"/>
</a>
</g>
</g>
<!-- Node22 -->
<g id="Node000022" class="node">
<title>Node22</title>
<g id="a_Node000022"><a xlink:href="main_8cpp.html" target="_top" xlink:title=" ">
<polygon fill="white" stroke="#666666" points="3135,-26 2999.75,-26 2999.75,-6 3135,-6 3135,-26"/>
<text text-anchor="middle" x="3067.38" y="-12.5" font-family="Helvetica,sans-Serif" font-size="10.00">include/MyLibrary/main.cpp</text>
</a>
</g>
</g>
<!-- Node1&#45;&gt;Node22 -->
<g id="edge21_Node000001_Node000022" class="edge">
<title>Node1&#45;&gt;Node22</title>
<g id="a_edge21_Node000001_Node000022"><a xlink:title=" ">
<path fill="none" stroke="#63b8ff" d="M1688.38,-76.11C1939.81,-72.94 2735.15,-60.84 2990.38,-32 3001.74,-30.72 3013.94,-28.66 3025.2,-26.48"/>
<polygon fill="#63b8ff" stroke="#63b8ff" points="1688.65,-72.6 1678.69,-76.23 1688.73,-79.6 1688.65,-72.6"/>
</a>
</g>
</g>
<!-- Node23 -->
<g id="Node000023" class="node">
<title>Node23</title>
<g id="a_Node000023"><a xlink:href="stdafx_8cpp.html" target="_top" xlink:title=" ">
<polygon fill="white" stroke="#666666" points="3294,-26 3152.75,-26 3152.75,-6 3294,-6 3294,-26"/>
<text text-anchor="middle" x="3223.38" y="-12.5" font-family="Helvetica,sans-Serif" font-size="10.00">include/MyLibrary/stdafx.cpp</text>
</a>
</g>
</g>
<!-- Node1&#45;&gt;Node23 -->
<g id="edge22_Node000001_Node000023" class="edge">
<title>Node1&#45;&gt;Node23</title>
<g id="a_edge22_Node000001_Node000023"><a xlink:title=" ">
<path fill="none" stroke="#63b8ff" d="M1688.16,-76.35C1957.36,-73.84 2857.5,-63.25 3144.38,-32 3156.03,-30.73 3168.55,-28.68 3180.1,-26.5"/>
<polygon fill="#63b8ff" stroke="#63b8ff" points="1688.44,-72.85 1678.47,-76.44 1688.5,-79.85 1688.44,-72.85"/>
</a>
</g>
</g>
</g>
</svg>
